G04 #@! TF.GenerationSoftware,KiCad,Pcbnew,9.0.5*
G04 #@! TF.CreationDate,2025-12-02T14:35:45+00:00*
G04 #@! TF.ProjectId,jitx-design,6a697478-2d64-4657-9369-676e2e6b6963,1.0*
G04 #@! TF.SameCoordinates,Original*
G04 #@! TF.FileFunction,Legend,Top*
G04 #@! TF.FilePolarity,Positive*
%FSLAX46Y46*%
G04 Gerber Fmt 4.6, Leading zero omitted, Abs format (unit mm)*
G04 Created by KiCad (PCBNEW 9.0.5) date 2025-12-02 14:35:45*
%MOMM*%
%LPD*%
G01*
G04 APERTURE LIST*
G04 Aperture macros list*
%AMRoundRect*
0 Rectangle with rounded corners*
0 $1 Rounding radius*
0 $2 $3 $4 $5 $6 $7 $8 $9 X,Y pos of 4 corners*
0 Add a 4 corners polygon primitive as box body*
4,1,4,$2,$3,$4,$5,$6,$7,$8,$9,$2,$3,0*
0 Add four circle primitives for the rounded corners*
1,1,$1+$1,$2,$3*
1,1,$1+$1,$4,$5*
1,1,$1+$1,$6,$7*
1,1,$1+$1,$8,$9*
0 Add four rect primitives between the rounded corners*
20,1,$1+$1,$2,$3,$4,$5,0*
20,1,$1+$1,$4,$5,$6,$7,0*
20,1,$1+$1,$6,$7,$8,$9,0*
20,1,$1+$1,$8,$9,$2,$3,0*%
G04 Aperture macros list end*
%ADD10C,0.120000*%
%ADD11C,0.150000*%
%ADD12C,0.100000*%
%ADD13C,0.125000*%
%ADD14C,0.254000*%
%ADD15C,0.400000*%
%ADD16C,0.200000*%
%ADD17C,0.500000*%
%ADD18RoundRect,0.051000X1.000000X-1.000000X1.000000X1.000000X-1.000000X1.000000X-1.000000X-1.000000X0*%
%ADD19C,2.102000*%
%ADD20RoundRect,0.051000X-0.850000X0.200000X-0.850000X-0.200000X0.850000X-0.200000X0.850000X0.200000X0*%
%ADD21RoundRect,0.250000X-0.450000X0.350000X-0.450000X-0.350000X0.450000X-0.350000X0.450000X0.350000X0*%
%ADD22RoundRect,0.250000X-0.337500X-0.475000X0.337500X-0.475000X0.337500X0.475000X-0.337500X0.475000X0*%
%ADD23C,2.700000*%
%ADD24O,1.700000X1.700000*%
%ADD25R,3.500000X1.700000*%
%ADD26R,1.700000X1.700000*%
%ADD27C,1.600000*%
%ADD28RoundRect,0.800000X-0.000010X-0.800000X0.000010X-0.800000X0.000010X0.800000X-0.000010X0.800000X0*%
%ADD29RoundRect,0.800000X-0.800000X-0.000010X0.800000X-0.000010X0.800000X0.000010X-0.800000X0.000010X0*%
%ADD30RoundRect,0.250000X0.337500X0.475000X-0.337500X0.475000X-0.337500X-0.475000X0.337500X-0.475000X0*%
%ADD31C,2.000000*%
%ADD32C,4.700000*%
%ADD33RoundRect,0.051000X-0.850000X0.550000X-0.850000X-0.550000X0.850000X-0.550000X0.850000X0.550000X0*%
%ADD34RoundRect,0.051000X0.900000X0.900000X-0.900000X0.900000X-0.900000X-0.900000X0.900000X-0.900000X0*%
%ADD35C,1.902000*%
%ADD36C,1.700000*%
%ADD37O,2.100000X1.300000*%
G04 APERTURE END LIST*
D10*
X120000000Y-105000000D02*
X125000000Y-105000000D01*
X120000000Y-115000000D02*
X125000000Y-115000000D01*
X120000000Y-120000000D02*
X125000000Y-120000000D01*
X119947941Y-92630949D02*
X125000000Y-92630949D01*
X125000000Y-132500000D01*
X119947941Y-132500000D01*
X119947941Y-92630949D01*
X119750000Y-84250000D02*
X119750000Y-89500000D01*
X120000000Y-102500000D02*
X125000000Y-102500000D01*
X120000000Y-112500000D02*
X125000000Y-112500000D01*
X120000000Y-97500000D02*
X125000000Y-97500000D01*
X118000000Y-87750000D02*
X124750000Y-87750000D01*
X120000000Y-107500000D02*
X125000000Y-107500000D01*
X120000000Y-100000000D02*
X125000000Y-100000000D01*
X120000000Y-125000000D02*
X125000000Y-125000000D01*
X120000000Y-130000000D02*
X125000000Y-130000000D01*
X120000000Y-117500000D02*
X125000000Y-117500000D01*
X120000000Y-122500000D02*
X125000000Y-122500000D01*
X122473971Y-92630949D02*
X122473970Y-132500000D01*
X120000000Y-110000000D02*
X125000000Y-110000000D01*
X118000000Y-86000000D02*
X124750000Y-86000000D01*
X120000000Y-95000000D02*
X125000000Y-95000000D01*
X118000000Y-84250000D02*
X124750000Y-84250000D01*
X124750000Y-89500000D01*
X118000000Y-89500000D01*
X118000000Y-84250000D01*
X120000000Y-127500000D02*
X125000000Y-127500000D01*
D11*
X123610588Y-116869819D02*
X123039160Y-116869819D01*
X123324874Y-116869819D02*
X123324874Y-115869819D01*
X123324874Y-115869819D02*
X123229636Y-116012676D01*
X123229636Y-116012676D02*
X123134398Y-116107914D01*
X123134398Y-116107914D02*
X123039160Y-116155533D01*
X124229636Y-115869819D02*
X124324874Y-115869819D01*
X124324874Y-115869819D02*
X124420112Y-115917438D01*
X124420112Y-115917438D02*
X124467731Y-115965057D01*
X124467731Y-115965057D02*
X124515350Y-116060295D01*
X124515350Y-116060295D02*
X124562969Y-116250771D01*
X124562969Y-116250771D02*
X124562969Y-116488866D01*
X124562969Y-116488866D02*
X124515350Y-116679342D01*
X124515350Y-116679342D02*
X124467731Y-116774580D01*
X124467731Y-116774580D02*
X124420112Y-116822200D01*
X124420112Y-116822200D02*
X124324874Y-116869819D01*
X124324874Y-116869819D02*
X124229636Y-116869819D01*
X124229636Y-116869819D02*
X124134398Y-116822200D01*
X124134398Y-116822200D02*
X124086779Y-116774580D01*
X124086779Y-116774580D02*
X124039160Y-116679342D01*
X124039160Y-116679342D02*
X123991541Y-116488866D01*
X123991541Y-116488866D02*
X123991541Y-116250771D01*
X123991541Y-116250771D02*
X124039160Y-116060295D01*
X124039160Y-116060295D02*
X124086779Y-115965057D01*
X124086779Y-115965057D02*
X124134398Y-115917438D01*
X124134398Y-115917438D02*
X124229636Y-115869819D01*
X123491541Y-108369819D02*
X124158207Y-108369819D01*
X124158207Y-108369819D02*
X123729636Y-109369819D01*
X120442969Y-123369819D02*
X120851541Y-123369819D01*
X120851541Y-123369819D02*
X120631541Y-123750771D01*
X120631541Y-123750771D02*
X120725826Y-123750771D01*
X120725826Y-123750771D02*
X120788684Y-123798390D01*
X120788684Y-123798390D02*
X120820112Y-123846009D01*
X120820112Y-123846009D02*
X120851541Y-123941247D01*
X120851541Y-123941247D02*
X120851541Y-124179342D01*
X120851541Y-124179342D02*
X120820112Y-124274580D01*
X120820112Y-124274580D02*
X120788684Y-124322200D01*
X120788684Y-124322200D02*
X120725826Y-124369819D01*
X120725826Y-124369819D02*
X120537255Y-124369819D01*
X120537255Y-124369819D02*
X120474398Y-124322200D01*
X120474398Y-124322200D02*
X120442969Y-124274580D01*
X121040112Y-123369819D02*
X121260112Y-124369819D01*
X121260112Y-124369819D02*
X121480112Y-123369819D01*
X121637254Y-123369819D02*
X122045826Y-123369819D01*
X122045826Y-123369819D02*
X121825826Y-123750771D01*
X121825826Y-123750771D02*
X121920111Y-123750771D01*
X121920111Y-123750771D02*
X121982969Y-123798390D01*
X121982969Y-123798390D02*
X122014397Y-123846009D01*
X122014397Y-123846009D02*
X122045826Y-123941247D01*
X122045826Y-123941247D02*
X122045826Y-124179342D01*
X122045826Y-124179342D02*
X122014397Y-124274580D01*
X122014397Y-124274580D02*
X121982969Y-124322200D01*
X121982969Y-124322200D02*
X121920111Y-124369819D01*
X121920111Y-124369819D02*
X121731540Y-124369819D01*
X121731540Y-124369819D02*
X121668683Y-124322200D01*
X121668683Y-124322200D02*
X121637254Y-124274580D01*
X119158207Y-87274580D02*
X119110588Y-87322200D01*
X119110588Y-87322200D02*
X118967731Y-87369819D01*
X118967731Y-87369819D02*
X118872493Y-87369819D01*
X118872493Y-87369819D02*
X118729636Y-87322200D01*
X118729636Y-87322200D02*
X118634398Y-87226961D01*
X118634398Y-87226961D02*
X118586779Y-87131723D01*
X118586779Y-87131723D02*
X118539160Y-86941247D01*
X118539160Y-86941247D02*
X118539160Y-86798390D01*
X118539160Y-86798390D02*
X118586779Y-86607914D01*
X118586779Y-86607914D02*
X118634398Y-86512676D01*
X118634398Y-86512676D02*
X118729636Y-86417438D01*
X118729636Y-86417438D02*
X118872493Y-86369819D01*
X118872493Y-86369819D02*
X118967731Y-86369819D01*
X118967731Y-86369819D02*
X119110588Y-86417438D01*
X119110588Y-86417438D02*
X119158207Y-86465057D01*
X123610588Y-119369819D02*
X123039160Y-119369819D01*
X123324874Y-119369819D02*
X123324874Y-118369819D01*
X123324874Y-118369819D02*
X123229636Y-118512676D01*
X123229636Y-118512676D02*
X123134398Y-118607914D01*
X123134398Y-118607914D02*
X123039160Y-118655533D01*
X124562969Y-119369819D02*
X123991541Y-119369819D01*
X124277255Y-119369819D02*
X124277255Y-118369819D01*
X124277255Y-118369819D02*
X124182017Y-118512676D01*
X124182017Y-118512676D02*
X124086779Y-118607914D01*
X124086779Y-118607914D02*
X123991541Y-118655533D01*
X124110588Y-94369819D02*
X123539160Y-94369819D01*
X123824874Y-94369819D02*
X123824874Y-93369819D01*
X123824874Y-93369819D02*
X123729636Y-93512676D01*
X123729636Y-93512676D02*
X123634398Y-93607914D01*
X123634398Y-93607914D02*
X123539160Y-93655533D01*
X123610588Y-121869819D02*
X123039160Y-121869819D01*
X123324874Y-121869819D02*
X123324874Y-120869819D01*
X123324874Y-120869819D02*
X123229636Y-121012676D01*
X123229636Y-121012676D02*
X123134398Y-121107914D01*
X123134398Y-121107914D02*
X123039160Y-121155533D01*
X123991541Y-120965057D02*
X124039160Y-120917438D01*
X124039160Y-120917438D02*
X124134398Y-120869819D01*
X124134398Y-120869819D02*
X124372493Y-120869819D01*
X124372493Y-120869819D02*
X124467731Y-120917438D01*
X124467731Y-120917438D02*
X124515350Y-120965057D01*
X124515350Y-120965057D02*
X124562969Y-121060295D01*
X124562969Y-121060295D02*
X124562969Y-121155533D01*
X124562969Y-121155533D02*
X124515350Y-121298390D01*
X124515350Y-121298390D02*
X123943922Y-121869819D01*
X123943922Y-121869819D02*
X124562969Y-121869819D01*
X121110588Y-114369819D02*
X120539160Y-114369819D01*
X120824874Y-114369819D02*
X120824874Y-113369819D01*
X120824874Y-113369819D02*
X120729636Y-113512676D01*
X120729636Y-113512676D02*
X120634398Y-113607914D01*
X120634398Y-113607914D02*
X120539160Y-113655533D01*
X121967731Y-113369819D02*
X121777255Y-113369819D01*
X121777255Y-113369819D02*
X121682017Y-113417438D01*
X121682017Y-113417438D02*
X121634398Y-113465057D01*
X121634398Y-113465057D02*
X121539160Y-113607914D01*
X121539160Y-113607914D02*
X121491541Y-113798390D01*
X121491541Y-113798390D02*
X121491541Y-114179342D01*
X121491541Y-114179342D02*
X121539160Y-114274580D01*
X121539160Y-114274580D02*
X121586779Y-114322200D01*
X121586779Y-114322200D02*
X121682017Y-114369819D01*
X121682017Y-114369819D02*
X121872493Y-114369819D01*
X121872493Y-114369819D02*
X121967731Y-114322200D01*
X121967731Y-114322200D02*
X122015350Y-114274580D01*
X122015350Y-114274580D02*
X122062969Y-114179342D01*
X122062969Y-114179342D02*
X122062969Y-113941247D01*
X122062969Y-113941247D02*
X122015350Y-113846009D01*
X122015350Y-113846009D02*
X121967731Y-113798390D01*
X121967731Y-113798390D02*
X121872493Y-113750771D01*
X121872493Y-113750771D02*
X121682017Y-113750771D01*
X121682017Y-113750771D02*
X121586779Y-113798390D01*
X121586779Y-113798390D02*
X121539160Y-113846009D01*
X121539160Y-113846009D02*
X121491541Y-113941247D01*
X121110588Y-109369819D02*
X120539160Y-109369819D01*
X120824874Y-109369819D02*
X120824874Y-108369819D01*
X120824874Y-108369819D02*
X120729636Y-108512676D01*
X120729636Y-108512676D02*
X120634398Y-108607914D01*
X120634398Y-108607914D02*
X120539160Y-108655533D01*
X121682017Y-108798390D02*
X121586779Y-108750771D01*
X121586779Y-108750771D02*
X121539160Y-108703152D01*
X121539160Y-108703152D02*
X121491541Y-108607914D01*
X121491541Y-108607914D02*
X121491541Y-108560295D01*
X121491541Y-108560295D02*
X121539160Y-108465057D01*
X121539160Y-108465057D02*
X121586779Y-108417438D01*
X121586779Y-108417438D02*
X121682017Y-108369819D01*
X121682017Y-108369819D02*
X121872493Y-108369819D01*
X121872493Y-108369819D02*
X121967731Y-108417438D01*
X121967731Y-108417438D02*
X122015350Y-108465057D01*
X122015350Y-108465057D02*
X122062969Y-108560295D01*
X122062969Y-108560295D02*
X122062969Y-108607914D01*
X122062969Y-108607914D02*
X122015350Y-108703152D01*
X122015350Y-108703152D02*
X121967731Y-108750771D01*
X121967731Y-108750771D02*
X121872493Y-108798390D01*
X121872493Y-108798390D02*
X121682017Y-108798390D01*
X121682017Y-108798390D02*
X121586779Y-108846009D01*
X121586779Y-108846009D02*
X121539160Y-108893628D01*
X121539160Y-108893628D02*
X121491541Y-108988866D01*
X121491541Y-108988866D02*
X121491541Y-109179342D01*
X121491541Y-109179342D02*
X121539160Y-109274580D01*
X121539160Y-109274580D02*
X121586779Y-109322200D01*
X121586779Y-109322200D02*
X121682017Y-109369819D01*
X121682017Y-109369819D02*
X121872493Y-109369819D01*
X121872493Y-109369819D02*
X121967731Y-109322200D01*
X121967731Y-109322200D02*
X122015350Y-109274580D01*
X122015350Y-109274580D02*
X122062969Y-109179342D01*
X122062969Y-109179342D02*
X122062969Y-108988866D01*
X122062969Y-108988866D02*
X122015350Y-108893628D01*
X122015350Y-108893628D02*
X121967731Y-108846009D01*
X121967731Y-108846009D02*
X121872493Y-108798390D01*
X120851541Y-130917438D02*
X120788684Y-130869819D01*
X120788684Y-130869819D02*
X120694398Y-130869819D01*
X120694398Y-130869819D02*
X120600112Y-130917438D01*
X120600112Y-130917438D02*
X120537255Y-131012676D01*
X120537255Y-131012676D02*
X120505826Y-131107914D01*
X120505826Y-131107914D02*
X120474398Y-131298390D01*
X120474398Y-131298390D02*
X120474398Y-131441247D01*
X120474398Y-131441247D02*
X120505826Y-131631723D01*
X120505826Y-131631723D02*
X120537255Y-131726961D01*
X120537255Y-131726961D02*
X120600112Y-131822200D01*
X120600112Y-131822200D02*
X120694398Y-131869819D01*
X120694398Y-131869819D02*
X120757255Y-131869819D01*
X120757255Y-131869819D02*
X120851541Y-131822200D01*
X120851541Y-131822200D02*
X120882969Y-131774580D01*
X120882969Y-131774580D02*
X120882969Y-131441247D01*
X120882969Y-131441247D02*
X120757255Y-131441247D01*
X121165826Y-131869819D02*
X121165826Y-130869819D01*
X121165826Y-130869819D02*
X121542969Y-131869819D01*
X121542969Y-131869819D02*
X121542969Y-130869819D01*
X121857255Y-131869819D02*
X121857255Y-130869819D01*
X121857255Y-130869819D02*
X122014398Y-130869819D01*
X122014398Y-130869819D02*
X122108684Y-130917438D01*
X122108684Y-130917438D02*
X122171541Y-131012676D01*
X122171541Y-131012676D02*
X122202970Y-131107914D01*
X122202970Y-131107914D02*
X122234398Y-131298390D01*
X122234398Y-131298390D02*
X122234398Y-131441247D01*
X122234398Y-131441247D02*
X122202970Y-131631723D01*
X122202970Y-131631723D02*
X122171541Y-131726961D01*
X122171541Y-131726961D02*
X122108684Y-131822200D01*
X122108684Y-131822200D02*
X122014398Y-131869819D01*
X122014398Y-131869819D02*
X121857255Y-131869819D01*
X121110588Y-111869819D02*
X120539160Y-111869819D01*
X120824874Y-111869819D02*
X120824874Y-110869819D01*
X120824874Y-110869819D02*
X120729636Y-111012676D01*
X120729636Y-111012676D02*
X120634398Y-111107914D01*
X120634398Y-111107914D02*
X120539160Y-111155533D01*
X121443922Y-110869819D02*
X122110588Y-110869819D01*
X122110588Y-110869819D02*
X121682017Y-111869819D01*
X120411541Y-128369819D02*
X120788684Y-128369819D01*
X120600112Y-129369819D02*
X120600112Y-128369819D01*
X121385826Y-129369819D02*
X121165826Y-128893628D01*
X121008683Y-129369819D02*
X121008683Y-128369819D01*
X121008683Y-128369819D02*
X121260112Y-128369819D01*
X121260112Y-128369819D02*
X121322969Y-128417438D01*
X121322969Y-128417438D02*
X121354398Y-128465057D01*
X121354398Y-128465057D02*
X121385826Y-128560295D01*
X121385826Y-128560295D02*
X121385826Y-128703152D01*
X121385826Y-128703152D02*
X121354398Y-128798390D01*
X121354398Y-128798390D02*
X121322969Y-128846009D01*
X121322969Y-128846009D02*
X121260112Y-128893628D01*
X121260112Y-128893628D02*
X121008683Y-128893628D01*
X122014398Y-128417438D02*
X121951541Y-128369819D01*
X121951541Y-128369819D02*
X121857255Y-128369819D01*
X121857255Y-128369819D02*
X121762969Y-128417438D01*
X121762969Y-128417438D02*
X121700112Y-128512676D01*
X121700112Y-128512676D02*
X121668683Y-128607914D01*
X121668683Y-128607914D02*
X121637255Y-128798390D01*
X121637255Y-128798390D02*
X121637255Y-128941247D01*
X121637255Y-128941247D02*
X121668683Y-129131723D01*
X121668683Y-129131723D02*
X121700112Y-129226961D01*
X121700112Y-129226961D02*
X121762969Y-129322200D01*
X121762969Y-129322200D02*
X121857255Y-129369819D01*
X121857255Y-129369819D02*
X121920112Y-129369819D01*
X121920112Y-129369819D02*
X122014398Y-129322200D01*
X122014398Y-129322200D02*
X122045826Y-129274580D01*
X122045826Y-129274580D02*
X122045826Y-128941247D01*
X122045826Y-128941247D02*
X121920112Y-128941247D01*
X120539160Y-93465057D02*
X120586779Y-93417438D01*
X120586779Y-93417438D02*
X120682017Y-93369819D01*
X120682017Y-93369819D02*
X120920112Y-93369819D01*
X120920112Y-93369819D02*
X121015350Y-93417438D01*
X121015350Y-93417438D02*
X121062969Y-93465057D01*
X121062969Y-93465057D02*
X121110588Y-93560295D01*
X121110588Y-93560295D02*
X121110588Y-93655533D01*
X121110588Y-93655533D02*
X121062969Y-93798390D01*
X121062969Y-93798390D02*
X120491541Y-94369819D01*
X120491541Y-94369819D02*
X121110588Y-94369819D01*
X121967731Y-93703152D02*
X121967731Y-94369819D01*
X121729636Y-93322200D02*
X121491541Y-94036485D01*
X121491541Y-94036485D02*
X122110588Y-94036485D01*
X120539160Y-103465057D02*
X120586779Y-103417438D01*
X120586779Y-103417438D02*
X120682017Y-103369819D01*
X120682017Y-103369819D02*
X120920112Y-103369819D01*
X120920112Y-103369819D02*
X121015350Y-103417438D01*
X121015350Y-103417438D02*
X121062969Y-103465057D01*
X121062969Y-103465057D02*
X121110588Y-103560295D01*
X121110588Y-103560295D02*
X121110588Y-103655533D01*
X121110588Y-103655533D02*
X121062969Y-103798390D01*
X121062969Y-103798390D02*
X120491541Y-104369819D01*
X120491541Y-104369819D02*
X121110588Y-104369819D01*
X121729636Y-103369819D02*
X121824874Y-103369819D01*
X121824874Y-103369819D02*
X121920112Y-103417438D01*
X121920112Y-103417438D02*
X121967731Y-103465057D01*
X121967731Y-103465057D02*
X122015350Y-103560295D01*
X122015350Y-103560295D02*
X122062969Y-103750771D01*
X122062969Y-103750771D02*
X122062969Y-103988866D01*
X122062969Y-103988866D02*
X122015350Y-104179342D01*
X122015350Y-104179342D02*
X121967731Y-104274580D01*
X121967731Y-104274580D02*
X121920112Y-104322200D01*
X121920112Y-104322200D02*
X121824874Y-104369819D01*
X121824874Y-104369819D02*
X121729636Y-104369819D01*
X121729636Y-104369819D02*
X121634398Y-104322200D01*
X121634398Y-104322200D02*
X121586779Y-104274580D01*
X121586779Y-104274580D02*
X121539160Y-104179342D01*
X121539160Y-104179342D02*
X121491541Y-103988866D01*
X121491541Y-103988866D02*
X121491541Y-103750771D01*
X121491541Y-103750771D02*
X121539160Y-103560295D01*
X121539160Y-103560295D02*
X121586779Y-103465057D01*
X121586779Y-103465057D02*
X121634398Y-103417438D01*
X121634398Y-103417438D02*
X121729636Y-103369819D01*
X123729636Y-111298390D02*
X123634398Y-111250771D01*
X123634398Y-111250771D02*
X123586779Y-111203152D01*
X123586779Y-111203152D02*
X123539160Y-111107914D01*
X123539160Y-111107914D02*
X123539160Y-111060295D01*
X123539160Y-111060295D02*
X123586779Y-110965057D01*
X123586779Y-110965057D02*
X123634398Y-110917438D01*
X123634398Y-110917438D02*
X123729636Y-110869819D01*
X123729636Y-110869819D02*
X123920112Y-110869819D01*
X123920112Y-110869819D02*
X124015350Y-110917438D01*
X124015350Y-110917438D02*
X124062969Y-110965057D01*
X124062969Y-110965057D02*
X124110588Y-111060295D01*
X124110588Y-111060295D02*
X124110588Y-111107914D01*
X124110588Y-111107914D02*
X124062969Y-111203152D01*
X124062969Y-111203152D02*
X124015350Y-111250771D01*
X124015350Y-111250771D02*
X123920112Y-111298390D01*
X123920112Y-111298390D02*
X123729636Y-111298390D01*
X123729636Y-111298390D02*
X123634398Y-111346009D01*
X123634398Y-111346009D02*
X123586779Y-111393628D01*
X123586779Y-111393628D02*
X123539160Y-111488866D01*
X123539160Y-111488866D02*
X123539160Y-111679342D01*
X123539160Y-111679342D02*
X123586779Y-111774580D01*
X123586779Y-111774580D02*
X123634398Y-111822200D01*
X123634398Y-111822200D02*
X123729636Y-111869819D01*
X123729636Y-111869819D02*
X123920112Y-111869819D01*
X123920112Y-111869819D02*
X124015350Y-111822200D01*
X124015350Y-111822200D02*
X124062969Y-111774580D01*
X124062969Y-111774580D02*
X124110588Y-111679342D01*
X124110588Y-111679342D02*
X124110588Y-111488866D01*
X124110588Y-111488866D02*
X124062969Y-111393628D01*
X124062969Y-111393628D02*
X124015350Y-111346009D01*
X124015350Y-111346009D02*
X123920112Y-111298390D01*
X123539160Y-95965057D02*
X123586779Y-95917438D01*
X123586779Y-95917438D02*
X123682017Y-95869819D01*
X123682017Y-95869819D02*
X123920112Y-95869819D01*
X123920112Y-95869819D02*
X124015350Y-95917438D01*
X124015350Y-95917438D02*
X124062969Y-95965057D01*
X124062969Y-95965057D02*
X124110588Y-96060295D01*
X124110588Y-96060295D02*
X124110588Y-96155533D01*
X124110588Y-96155533D02*
X124062969Y-96298390D01*
X124062969Y-96298390D02*
X123491541Y-96869819D01*
X123491541Y-96869819D02*
X124110588Y-96869819D01*
X119062969Y-85619819D02*
X118586779Y-85619819D01*
X118586779Y-85619819D02*
X118586779Y-84619819D01*
X120539160Y-100965057D02*
X120586779Y-100917438D01*
X120586779Y-100917438D02*
X120682017Y-100869819D01*
X120682017Y-100869819D02*
X120920112Y-100869819D01*
X120920112Y-100869819D02*
X121015350Y-100917438D01*
X121015350Y-100917438D02*
X121062969Y-100965057D01*
X121062969Y-100965057D02*
X121110588Y-101060295D01*
X121110588Y-101060295D02*
X121110588Y-101155533D01*
X121110588Y-101155533D02*
X121062969Y-101298390D01*
X121062969Y-101298390D02*
X120491541Y-101869819D01*
X120491541Y-101869819D02*
X121110588Y-101869819D01*
X122062969Y-101869819D02*
X121491541Y-101869819D01*
X121777255Y-101869819D02*
X121777255Y-100869819D01*
X121777255Y-100869819D02*
X121682017Y-101012676D01*
X121682017Y-101012676D02*
X121586779Y-101107914D01*
X121586779Y-101107914D02*
X121491541Y-101155533D01*
X124015350Y-105869819D02*
X123824874Y-105869819D01*
X123824874Y-105869819D02*
X123729636Y-105917438D01*
X123729636Y-105917438D02*
X123682017Y-105965057D01*
X123682017Y-105965057D02*
X123586779Y-106107914D01*
X123586779Y-106107914D02*
X123539160Y-106298390D01*
X123539160Y-106298390D02*
X123539160Y-106679342D01*
X123539160Y-106679342D02*
X123586779Y-106774580D01*
X123586779Y-106774580D02*
X123634398Y-106822200D01*
X123634398Y-106822200D02*
X123729636Y-106869819D01*
X123729636Y-106869819D02*
X123920112Y-106869819D01*
X123920112Y-106869819D02*
X124015350Y-106822200D01*
X124015350Y-106822200D02*
X124062969Y-106774580D01*
X124062969Y-106774580D02*
X124110588Y-106679342D01*
X124110588Y-106679342D02*
X124110588Y-106441247D01*
X124110588Y-106441247D02*
X124062969Y-106346009D01*
X124062969Y-106346009D02*
X124015350Y-106298390D01*
X124015350Y-106298390D02*
X123920112Y-106250771D01*
X123920112Y-106250771D02*
X123729636Y-106250771D01*
X123729636Y-106250771D02*
X123634398Y-106298390D01*
X123634398Y-106298390D02*
X123586779Y-106346009D01*
X123586779Y-106346009D02*
X123539160Y-106441247D01*
X123491541Y-98369819D02*
X124110588Y-98369819D01*
X124110588Y-98369819D02*
X123777255Y-98750771D01*
X123777255Y-98750771D02*
X123920112Y-98750771D01*
X123920112Y-98750771D02*
X124015350Y-98798390D01*
X124015350Y-98798390D02*
X124062969Y-98846009D01*
X124062969Y-98846009D02*
X124110588Y-98941247D01*
X124110588Y-98941247D02*
X124110588Y-99179342D01*
X124110588Y-99179342D02*
X124062969Y-99274580D01*
X124062969Y-99274580D02*
X124015350Y-99322200D01*
X124015350Y-99322200D02*
X123920112Y-99369819D01*
X123920112Y-99369819D02*
X123634398Y-99369819D01*
X123634398Y-99369819D02*
X123539160Y-99322200D01*
X123539160Y-99322200D02*
X123491541Y-99274580D01*
X120539160Y-95965057D02*
X120586779Y-95917438D01*
X120586779Y-95917438D02*
X120682017Y-95869819D01*
X120682017Y-95869819D02*
X120920112Y-95869819D01*
X120920112Y-95869819D02*
X121015350Y-95917438D01*
X121015350Y-95917438D02*
X121062969Y-95965057D01*
X121062969Y-95965057D02*
X121110588Y-96060295D01*
X121110588Y-96060295D02*
X121110588Y-96155533D01*
X121110588Y-96155533D02*
X121062969Y-96298390D01*
X121062969Y-96298390D02*
X120491541Y-96869819D01*
X120491541Y-96869819D02*
X121110588Y-96869819D01*
X121443922Y-95869819D02*
X122062969Y-95869819D01*
X122062969Y-95869819D02*
X121729636Y-96250771D01*
X121729636Y-96250771D02*
X121872493Y-96250771D01*
X121872493Y-96250771D02*
X121967731Y-96298390D01*
X121967731Y-96298390D02*
X122015350Y-96346009D01*
X122015350Y-96346009D02*
X122062969Y-96441247D01*
X122062969Y-96441247D02*
X122062969Y-96679342D01*
X122062969Y-96679342D02*
X122015350Y-96774580D01*
X122015350Y-96774580D02*
X121967731Y-96822200D01*
X121967731Y-96822200D02*
X121872493Y-96869819D01*
X121872493Y-96869819D02*
X121586779Y-96869819D01*
X121586779Y-96869819D02*
X121491541Y-96822200D01*
X121491541Y-96822200D02*
X121443922Y-96774580D01*
X121562969Y-88119819D02*
X121086779Y-88119819D01*
X121086779Y-88119819D02*
X121039160Y-88596009D01*
X121039160Y-88596009D02*
X121086779Y-88548390D01*
X121086779Y-88548390D02*
X121182017Y-88500771D01*
X121182017Y-88500771D02*
X121420112Y-88500771D01*
X121420112Y-88500771D02*
X121515350Y-88548390D01*
X121515350Y-88548390D02*
X121562969Y-88596009D01*
X121562969Y-88596009D02*
X121610588Y-88691247D01*
X121610588Y-88691247D02*
X121610588Y-88929342D01*
X121610588Y-88929342D02*
X121562969Y-89024580D01*
X121562969Y-89024580D02*
X121515350Y-89072200D01*
X121515350Y-89072200D02*
X121420112Y-89119819D01*
X121420112Y-89119819D02*
X121182017Y-89119819D01*
X121182017Y-89119819D02*
X121086779Y-89072200D01*
X121086779Y-89072200D02*
X121039160Y-89024580D01*
X121943922Y-88453152D02*
X122182017Y-89119819D01*
X122182017Y-89119819D02*
X122420112Y-88453152D01*
X122991541Y-88119819D02*
X123086779Y-88119819D01*
X123086779Y-88119819D02*
X123182017Y-88167438D01*
X123182017Y-88167438D02*
X123229636Y-88215057D01*
X123229636Y-88215057D02*
X123277255Y-88310295D01*
X123277255Y-88310295D02*
X123324874Y-88500771D01*
X123324874Y-88500771D02*
X123324874Y-88738866D01*
X123324874Y-88738866D02*
X123277255Y-88929342D01*
X123277255Y-88929342D02*
X123229636Y-89024580D01*
X123229636Y-89024580D02*
X123182017Y-89072200D01*
X123182017Y-89072200D02*
X123086779Y-89119819D01*
X123086779Y-89119819D02*
X122991541Y-89119819D01*
X122991541Y-89119819D02*
X122896303Y-89072200D01*
X122896303Y-89072200D02*
X122848684Y-89024580D01*
X122848684Y-89024580D02*
X122801065Y-88929342D01*
X122801065Y-88929342D02*
X122753446Y-88738866D01*
X122753446Y-88738866D02*
X122753446Y-88500771D01*
X122753446Y-88500771D02*
X122801065Y-88310295D01*
X122801065Y-88310295D02*
X122848684Y-88215057D01*
X122848684Y-88215057D02*
X122896303Y-88167438D01*
X122896303Y-88167438D02*
X122991541Y-88119819D01*
X123351541Y-130917438D02*
X123288684Y-130869819D01*
X123288684Y-130869819D02*
X123194398Y-130869819D01*
X123194398Y-130869819D02*
X123100112Y-130917438D01*
X123100112Y-130917438D02*
X123037255Y-131012676D01*
X123037255Y-131012676D02*
X123005826Y-131107914D01*
X123005826Y-131107914D02*
X122974398Y-131298390D01*
X122974398Y-131298390D02*
X122974398Y-131441247D01*
X122974398Y-131441247D02*
X123005826Y-131631723D01*
X123005826Y-131631723D02*
X123037255Y-131726961D01*
X123037255Y-131726961D02*
X123100112Y-131822200D01*
X123100112Y-131822200D02*
X123194398Y-131869819D01*
X123194398Y-131869819D02*
X123257255Y-131869819D01*
X123257255Y-131869819D02*
X123351541Y-131822200D01*
X123351541Y-131822200D02*
X123382969Y-131774580D01*
X123382969Y-131774580D02*
X123382969Y-131441247D01*
X123382969Y-131441247D02*
X123257255Y-131441247D01*
X123665826Y-131869819D02*
X123665826Y-130869819D01*
X123665826Y-130869819D02*
X124042969Y-131869819D01*
X124042969Y-131869819D02*
X124042969Y-130869819D01*
X124357255Y-131869819D02*
X124357255Y-130869819D01*
X124357255Y-130869819D02*
X124514398Y-130869819D01*
X124514398Y-130869819D02*
X124608684Y-130917438D01*
X124608684Y-130917438D02*
X124671541Y-131012676D01*
X124671541Y-131012676D02*
X124702970Y-131107914D01*
X124702970Y-131107914D02*
X124734398Y-131298390D01*
X124734398Y-131298390D02*
X124734398Y-131441247D01*
X124734398Y-131441247D02*
X124702970Y-131631723D01*
X124702970Y-131631723D02*
X124671541Y-131726961D01*
X124671541Y-131726961D02*
X124608684Y-131822200D01*
X124608684Y-131822200D02*
X124514398Y-131869819D01*
X124514398Y-131869819D02*
X124357255Y-131869819D01*
X123634398Y-114369819D02*
X123824874Y-114369819D01*
X123824874Y-114369819D02*
X123920112Y-114322200D01*
X123920112Y-114322200D02*
X123967731Y-114274580D01*
X123967731Y-114274580D02*
X124062969Y-114131723D01*
X124062969Y-114131723D02*
X124110588Y-113941247D01*
X124110588Y-113941247D02*
X124110588Y-113560295D01*
X124110588Y-113560295D02*
X124062969Y-113465057D01*
X124062969Y-113465057D02*
X124015350Y-113417438D01*
X124015350Y-113417438D02*
X123920112Y-113369819D01*
X123920112Y-113369819D02*
X123729636Y-113369819D01*
X123729636Y-113369819D02*
X123634398Y-113417438D01*
X123634398Y-113417438D02*
X123586779Y-113465057D01*
X123586779Y-113465057D02*
X123539160Y-113560295D01*
X123539160Y-113560295D02*
X123539160Y-113798390D01*
X123539160Y-113798390D02*
X123586779Y-113893628D01*
X123586779Y-113893628D02*
X123634398Y-113941247D01*
X123634398Y-113941247D02*
X123729636Y-113988866D01*
X123729636Y-113988866D02*
X123920112Y-113988866D01*
X123920112Y-113988866D02*
X124015350Y-113941247D01*
X124015350Y-113941247D02*
X124062969Y-113893628D01*
X124062969Y-113893628D02*
X124110588Y-113798390D01*
X121110588Y-106869819D02*
X120539160Y-106869819D01*
X120824874Y-106869819D02*
X120824874Y-105869819D01*
X120824874Y-105869819D02*
X120729636Y-106012676D01*
X120729636Y-106012676D02*
X120634398Y-106107914D01*
X120634398Y-106107914D02*
X120539160Y-106155533D01*
X121586779Y-106869819D02*
X121777255Y-106869819D01*
X121777255Y-106869819D02*
X121872493Y-106822200D01*
X121872493Y-106822200D02*
X121920112Y-106774580D01*
X121920112Y-106774580D02*
X122015350Y-106631723D01*
X122015350Y-106631723D02*
X122062969Y-106441247D01*
X122062969Y-106441247D02*
X122062969Y-106060295D01*
X122062969Y-106060295D02*
X122015350Y-105965057D01*
X122015350Y-105965057D02*
X121967731Y-105917438D01*
X121967731Y-105917438D02*
X121872493Y-105869819D01*
X121872493Y-105869819D02*
X121682017Y-105869819D01*
X121682017Y-105869819D02*
X121586779Y-105917438D01*
X121586779Y-105917438D02*
X121539160Y-105965057D01*
X121539160Y-105965057D02*
X121491541Y-106060295D01*
X121491541Y-106060295D02*
X121491541Y-106298390D01*
X121491541Y-106298390D02*
X121539160Y-106393628D01*
X121539160Y-106393628D02*
X121586779Y-106441247D01*
X121586779Y-106441247D02*
X121682017Y-106488866D01*
X121682017Y-106488866D02*
X121872493Y-106488866D01*
X121872493Y-106488866D02*
X121967731Y-106441247D01*
X121967731Y-106441247D02*
X122015350Y-106393628D01*
X122015350Y-106393628D02*
X122062969Y-106298390D01*
X122911541Y-128369819D02*
X123131541Y-129369819D01*
X123131541Y-129369819D02*
X123351541Y-128369819D01*
X123948683Y-129369819D02*
X123728683Y-128893628D01*
X123571540Y-129369819D02*
X123571540Y-128369819D01*
X123571540Y-128369819D02*
X123822969Y-128369819D01*
X123822969Y-128369819D02*
X123885826Y-128417438D01*
X123885826Y-128417438D02*
X123917255Y-128465057D01*
X123917255Y-128465057D02*
X123948683Y-128560295D01*
X123948683Y-128560295D02*
X123948683Y-128703152D01*
X123948683Y-128703152D02*
X123917255Y-128798390D01*
X123917255Y-128798390D02*
X123885826Y-128846009D01*
X123885826Y-128846009D02*
X123822969Y-128893628D01*
X123822969Y-128893628D02*
X123571540Y-128893628D01*
X124451540Y-128846009D02*
X124231540Y-128846009D01*
X124231540Y-129369819D02*
X124231540Y-128369819D01*
X124231540Y-128369819D02*
X124545826Y-128369819D01*
X121110588Y-116869819D02*
X120539160Y-116869819D01*
X120824874Y-116869819D02*
X120824874Y-115869819D01*
X120824874Y-115869819D02*
X120729636Y-116012676D01*
X120729636Y-116012676D02*
X120634398Y-116107914D01*
X120634398Y-116107914D02*
X120539160Y-116155533D01*
X122015350Y-115869819D02*
X121539160Y-115869819D01*
X121539160Y-115869819D02*
X121491541Y-116346009D01*
X121491541Y-116346009D02*
X121539160Y-116298390D01*
X121539160Y-116298390D02*
X121634398Y-116250771D01*
X121634398Y-116250771D02*
X121872493Y-116250771D01*
X121872493Y-116250771D02*
X121967731Y-116298390D01*
X121967731Y-116298390D02*
X122015350Y-116346009D01*
X122015350Y-116346009D02*
X122062969Y-116441247D01*
X122062969Y-116441247D02*
X122062969Y-116679342D01*
X122062969Y-116679342D02*
X122015350Y-116774580D01*
X122015350Y-116774580D02*
X121967731Y-116822200D01*
X121967731Y-116822200D02*
X121872493Y-116869819D01*
X121872493Y-116869819D02*
X121634398Y-116869819D01*
X121634398Y-116869819D02*
X121539160Y-116822200D01*
X121539160Y-116822200D02*
X121491541Y-116774580D01*
X121086779Y-85096009D02*
X121420112Y-85096009D01*
X121562969Y-85619819D02*
X121086779Y-85619819D01*
X121086779Y-85619819D02*
X121086779Y-84619819D01*
X121086779Y-84619819D02*
X121562969Y-84619819D01*
X121896303Y-84619819D02*
X122562969Y-85619819D01*
X122562969Y-84619819D02*
X121896303Y-85619819D01*
X122801065Y-84619819D02*
X123372493Y-84619819D01*
X123086779Y-85619819D02*
X123086779Y-84619819D01*
X120539160Y-98465057D02*
X120586779Y-98417438D01*
X120586779Y-98417438D02*
X120682017Y-98369819D01*
X120682017Y-98369819D02*
X120920112Y-98369819D01*
X120920112Y-98369819D02*
X121015350Y-98417438D01*
X121015350Y-98417438D02*
X121062969Y-98465057D01*
X121062969Y-98465057D02*
X121110588Y-98560295D01*
X121110588Y-98560295D02*
X121110588Y-98655533D01*
X121110588Y-98655533D02*
X121062969Y-98798390D01*
X121062969Y-98798390D02*
X120491541Y-99369819D01*
X120491541Y-99369819D02*
X121110588Y-99369819D01*
X121491541Y-98465057D02*
X121539160Y-98417438D01*
X121539160Y-98417438D02*
X121634398Y-98369819D01*
X121634398Y-98369819D02*
X121872493Y-98369819D01*
X121872493Y-98369819D02*
X121967731Y-98417438D01*
X121967731Y-98417438D02*
X122015350Y-98465057D01*
X122015350Y-98465057D02*
X122062969Y-98560295D01*
X122062969Y-98560295D02*
X122062969Y-98655533D01*
X122062969Y-98655533D02*
X122015350Y-98798390D01*
X122015350Y-98798390D02*
X121443922Y-99369819D01*
X121443922Y-99369819D02*
X122062969Y-99369819D01*
X120991541Y-86369819D02*
X121610588Y-86369819D01*
X121610588Y-86369819D02*
X121277255Y-86750771D01*
X121277255Y-86750771D02*
X121420112Y-86750771D01*
X121420112Y-86750771D02*
X121515350Y-86798390D01*
X121515350Y-86798390D02*
X121562969Y-86846009D01*
X121562969Y-86846009D02*
X121610588Y-86941247D01*
X121610588Y-86941247D02*
X121610588Y-87179342D01*
X121610588Y-87179342D02*
X121562969Y-87274580D01*
X121562969Y-87274580D02*
X121515350Y-87322200D01*
X121515350Y-87322200D02*
X121420112Y-87369819D01*
X121420112Y-87369819D02*
X121134398Y-87369819D01*
X121134398Y-87369819D02*
X121039160Y-87322200D01*
X121039160Y-87322200D02*
X120991541Y-87274580D01*
X121943922Y-86703152D02*
X122182017Y-87369819D01*
X122182017Y-87369819D02*
X122420112Y-86703152D01*
X122705827Y-86369819D02*
X123324874Y-86369819D01*
X123324874Y-86369819D02*
X122991541Y-86750771D01*
X122991541Y-86750771D02*
X123134398Y-86750771D01*
X123134398Y-86750771D02*
X123229636Y-86798390D01*
X123229636Y-86798390D02*
X123277255Y-86846009D01*
X123277255Y-86846009D02*
X123324874Y-86941247D01*
X123324874Y-86941247D02*
X123324874Y-87179342D01*
X123324874Y-87179342D02*
X123277255Y-87274580D01*
X123277255Y-87274580D02*
X123229636Y-87322200D01*
X123229636Y-87322200D02*
X123134398Y-87369819D01*
X123134398Y-87369819D02*
X122848684Y-87369819D01*
X122848684Y-87369819D02*
X122753446Y-87322200D01*
X122753446Y-87322200D02*
X122705827Y-87274580D01*
X119158207Y-89119819D02*
X118824874Y-88643628D01*
X118586779Y-89119819D02*
X118586779Y-88119819D01*
X118586779Y-88119819D02*
X118967731Y-88119819D01*
X118967731Y-88119819D02*
X119062969Y-88167438D01*
X119062969Y-88167438D02*
X119110588Y-88215057D01*
X119110588Y-88215057D02*
X119158207Y-88310295D01*
X119158207Y-88310295D02*
X119158207Y-88453152D01*
X119158207Y-88453152D02*
X119110588Y-88548390D01*
X119110588Y-88548390D02*
X119062969Y-88596009D01*
X119062969Y-88596009D02*
X118967731Y-88643628D01*
X118967731Y-88643628D02*
X118586779Y-88643628D01*
X122942969Y-123369819D02*
X123351541Y-123369819D01*
X123351541Y-123369819D02*
X123131541Y-123750771D01*
X123131541Y-123750771D02*
X123225826Y-123750771D01*
X123225826Y-123750771D02*
X123288684Y-123798390D01*
X123288684Y-123798390D02*
X123320112Y-123846009D01*
X123320112Y-123846009D02*
X123351541Y-123941247D01*
X123351541Y-123941247D02*
X123351541Y-124179342D01*
X123351541Y-124179342D02*
X123320112Y-124274580D01*
X123320112Y-124274580D02*
X123288684Y-124322200D01*
X123288684Y-124322200D02*
X123225826Y-124369819D01*
X123225826Y-124369819D02*
X123037255Y-124369819D01*
X123037255Y-124369819D02*
X122974398Y-124322200D01*
X122974398Y-124322200D02*
X122942969Y-124274580D01*
X123540112Y-123369819D02*
X123760112Y-124369819D01*
X123760112Y-124369819D02*
X123980112Y-123369819D01*
X124137254Y-123369819D02*
X124545826Y-123369819D01*
X124545826Y-123369819D02*
X124325826Y-123750771D01*
X124325826Y-123750771D02*
X124420111Y-123750771D01*
X124420111Y-123750771D02*
X124482969Y-123798390D01*
X124482969Y-123798390D02*
X124514397Y-123846009D01*
X124514397Y-123846009D02*
X124545826Y-123941247D01*
X124545826Y-123941247D02*
X124545826Y-124179342D01*
X124545826Y-124179342D02*
X124514397Y-124274580D01*
X124514397Y-124274580D02*
X124482969Y-124322200D01*
X124482969Y-124322200D02*
X124420111Y-124369819D01*
X124420111Y-124369819D02*
X124231540Y-124369819D01*
X124231540Y-124369819D02*
X124168683Y-124322200D01*
X124168683Y-124322200D02*
X124137254Y-124274580D01*
X121110588Y-121869819D02*
X120539160Y-121869819D01*
X120824874Y-121869819D02*
X120824874Y-120869819D01*
X120824874Y-120869819D02*
X120729636Y-121012676D01*
X120729636Y-121012676D02*
X120634398Y-121107914D01*
X120634398Y-121107914D02*
X120539160Y-121155533D01*
X121443922Y-120869819D02*
X122062969Y-120869819D01*
X122062969Y-120869819D02*
X121729636Y-121250771D01*
X121729636Y-121250771D02*
X121872493Y-121250771D01*
X121872493Y-121250771D02*
X121967731Y-121298390D01*
X121967731Y-121298390D02*
X122015350Y-121346009D01*
X122015350Y-121346009D02*
X122062969Y-121441247D01*
X122062969Y-121441247D02*
X122062969Y-121679342D01*
X122062969Y-121679342D02*
X122015350Y-121774580D01*
X122015350Y-121774580D02*
X121967731Y-121822200D01*
X121967731Y-121822200D02*
X121872493Y-121869819D01*
X121872493Y-121869819D02*
X121586779Y-121869819D01*
X121586779Y-121869819D02*
X121491541Y-121822200D01*
X121491541Y-121822200D02*
X121443922Y-121774580D01*
X124015350Y-101203152D02*
X124015350Y-101869819D01*
X123777255Y-100822200D02*
X123539160Y-101536485D01*
X123539160Y-101536485D02*
X124158207Y-101536485D01*
X121110588Y-119369819D02*
X120539160Y-119369819D01*
X120824874Y-119369819D02*
X120824874Y-118369819D01*
X120824874Y-118369819D02*
X120729636Y-118512676D01*
X120729636Y-118512676D02*
X120634398Y-118607914D01*
X120634398Y-118607914D02*
X120539160Y-118655533D01*
X121967731Y-118703152D02*
X121967731Y-119369819D01*
X121729636Y-118322200D02*
X121491541Y-119036485D01*
X121491541Y-119036485D02*
X122110588Y-119036485D01*
X124062969Y-103369819D02*
X123586779Y-103369819D01*
X123586779Y-103369819D02*
X123539160Y-103846009D01*
X123539160Y-103846009D02*
X123586779Y-103798390D01*
X123586779Y-103798390D02*
X123682017Y-103750771D01*
X123682017Y-103750771D02*
X123920112Y-103750771D01*
X123920112Y-103750771D02*
X124015350Y-103798390D01*
X124015350Y-103798390D02*
X124062969Y-103846009D01*
X124062969Y-103846009D02*
X124110588Y-103941247D01*
X124110588Y-103941247D02*
X124110588Y-104179342D01*
X124110588Y-104179342D02*
X124062969Y-104274580D01*
X124062969Y-104274580D02*
X124015350Y-104322200D01*
X124015350Y-104322200D02*
X123920112Y-104369819D01*
X123920112Y-104369819D02*
X123682017Y-104369819D01*
X123682017Y-104369819D02*
X123586779Y-104322200D01*
X123586779Y-104322200D02*
X123539160Y-104274580D01*
X120820112Y-125869819D02*
X120505826Y-125869819D01*
X120505826Y-125869819D02*
X120474398Y-126346009D01*
X120474398Y-126346009D02*
X120505826Y-126298390D01*
X120505826Y-126298390D02*
X120568684Y-126250771D01*
X120568684Y-126250771D02*
X120725826Y-126250771D01*
X120725826Y-126250771D02*
X120788684Y-126298390D01*
X120788684Y-126298390D02*
X120820112Y-126346009D01*
X120820112Y-126346009D02*
X120851541Y-126441247D01*
X120851541Y-126441247D02*
X120851541Y-126679342D01*
X120851541Y-126679342D02*
X120820112Y-126774580D01*
X120820112Y-126774580D02*
X120788684Y-126822200D01*
X120788684Y-126822200D02*
X120725826Y-126869819D01*
X120725826Y-126869819D02*
X120568684Y-126869819D01*
X120568684Y-126869819D02*
X120505826Y-126822200D01*
X120505826Y-126822200D02*
X120474398Y-126774580D01*
X121040112Y-125869819D02*
X121260112Y-126869819D01*
X121260112Y-126869819D02*
X121480112Y-125869819D01*
X121825826Y-125869819D02*
X121888683Y-125869819D01*
X121888683Y-125869819D02*
X121951540Y-125917438D01*
X121951540Y-125917438D02*
X121982969Y-125965057D01*
X121982969Y-125965057D02*
X122014397Y-126060295D01*
X122014397Y-126060295D02*
X122045826Y-126250771D01*
X122045826Y-126250771D02*
X122045826Y-126488866D01*
X122045826Y-126488866D02*
X122014397Y-126679342D01*
X122014397Y-126679342D02*
X121982969Y-126774580D01*
X121982969Y-126774580D02*
X121951540Y-126822200D01*
X121951540Y-126822200D02*
X121888683Y-126869819D01*
X121888683Y-126869819D02*
X121825826Y-126869819D01*
X121825826Y-126869819D02*
X121762969Y-126822200D01*
X121762969Y-126822200D02*
X121731540Y-126774580D01*
X121731540Y-126774580D02*
X121700111Y-126679342D01*
X121700111Y-126679342D02*
X121668683Y-126488866D01*
X121668683Y-126488866D02*
X121668683Y-126250771D01*
X121668683Y-126250771D02*
X121700111Y-126060295D01*
X121700111Y-126060295D02*
X121731540Y-125965057D01*
X121731540Y-125965057D02*
X121762969Y-125917438D01*
X121762969Y-125917438D02*
X121825826Y-125869819D01*
X123320112Y-125869819D02*
X123005826Y-125869819D01*
X123005826Y-125869819D02*
X122974398Y-126346009D01*
X122974398Y-126346009D02*
X123005826Y-126298390D01*
X123005826Y-126298390D02*
X123068684Y-126250771D01*
X123068684Y-126250771D02*
X123225826Y-126250771D01*
X123225826Y-126250771D02*
X123288684Y-126298390D01*
X123288684Y-126298390D02*
X123320112Y-126346009D01*
X123320112Y-126346009D02*
X123351541Y-126441247D01*
X123351541Y-126441247D02*
X123351541Y-126679342D01*
X123351541Y-126679342D02*
X123320112Y-126774580D01*
X123320112Y-126774580D02*
X123288684Y-126822200D01*
X123288684Y-126822200D02*
X123225826Y-126869819D01*
X123225826Y-126869819D02*
X123068684Y-126869819D01*
X123068684Y-126869819D02*
X123005826Y-126822200D01*
X123005826Y-126822200D02*
X122974398Y-126774580D01*
X123540112Y-125869819D02*
X123760112Y-126869819D01*
X123760112Y-126869819D02*
X123980112Y-125869819D01*
X124325826Y-125869819D02*
X124388683Y-125869819D01*
X124388683Y-125869819D02*
X124451540Y-125917438D01*
X124451540Y-125917438D02*
X124482969Y-125965057D01*
X124482969Y-125965057D02*
X124514397Y-126060295D01*
X124514397Y-126060295D02*
X124545826Y-126250771D01*
X124545826Y-126250771D02*
X124545826Y-126488866D01*
X124545826Y-126488866D02*
X124514397Y-126679342D01*
X124514397Y-126679342D02*
X124482969Y-126774580D01*
X124482969Y-126774580D02*
X124451540Y-126822200D01*
X124451540Y-126822200D02*
X124388683Y-126869819D01*
X124388683Y-126869819D02*
X124325826Y-126869819D01*
X124325826Y-126869819D02*
X124262969Y-126822200D01*
X124262969Y-126822200D02*
X124231540Y-126774580D01*
X124231540Y-126774580D02*
X124200111Y-126679342D01*
X124200111Y-126679342D02*
X124168683Y-126488866D01*
X124168683Y-126488866D02*
X124168683Y-126250771D01*
X124168683Y-126250771D02*
X124200111Y-126060295D01*
X124200111Y-126060295D02*
X124231540Y-125965057D01*
X124231540Y-125965057D02*
X124262969Y-125917438D01*
X124262969Y-125917438D02*
X124325826Y-125869819D01*
D12*
X113077693Y-112226109D02*
X113077693Y-112583252D01*
X113077693Y-112583252D02*
X113053884Y-112654680D01*
X113053884Y-112654680D02*
X113006265Y-112702300D01*
X113006265Y-112702300D02*
X112934836Y-112726109D01*
X112934836Y-112726109D02*
X112887217Y-112726109D01*
X113291979Y-112273728D02*
X113315788Y-112249919D01*
X113315788Y-112249919D02*
X113363407Y-112226109D01*
X113363407Y-112226109D02*
X113482455Y-112226109D01*
X113482455Y-112226109D02*
X113530074Y-112249919D01*
X113530074Y-112249919D02*
X113553883Y-112273728D01*
X113553883Y-112273728D02*
X113577693Y-112321347D01*
X113577693Y-112321347D02*
X113577693Y-112368966D01*
X113577693Y-112368966D02*
X113553883Y-112440395D01*
X113553883Y-112440395D02*
X113268169Y-112726109D01*
X113268169Y-112726109D02*
X113577693Y-112726109D01*
X129303729Y-87486116D02*
X129303729Y-87890878D01*
X129303729Y-87890878D02*
X129327539Y-87938497D01*
X129327539Y-87938497D02*
X129351348Y-87962307D01*
X129351348Y-87962307D02*
X129398967Y-87986116D01*
X129398967Y-87986116D02*
X129494205Y-87986116D01*
X129494205Y-87986116D02*
X129541824Y-87962307D01*
X129541824Y-87962307D02*
X129565634Y-87938497D01*
X129565634Y-87938497D02*
X129589443Y-87890878D01*
X129589443Y-87890878D02*
X129589443Y-87486116D01*
X130089444Y-87986116D02*
X129803730Y-87986116D01*
X129946587Y-87986116D02*
X129946587Y-87486116D01*
X129946587Y-87486116D02*
X129898968Y-87557545D01*
X129898968Y-87557545D02*
X129851349Y-87605164D01*
X129851349Y-87605164D02*
X129803730Y-87628973D01*
D13*
X139019766Y-82073134D02*
X138853100Y-81835039D01*
X138734052Y-82073134D02*
X138734052Y-81573134D01*
X138734052Y-81573134D02*
X138924528Y-81573134D01*
X138924528Y-81573134D02*
X138972147Y-81596944D01*
X138972147Y-81596944D02*
X138995957Y-81620753D01*
X138995957Y-81620753D02*
X139019766Y-81668372D01*
X139019766Y-81668372D02*
X139019766Y-81739801D01*
X139019766Y-81739801D02*
X138995957Y-81787420D01*
X138995957Y-81787420D02*
X138972147Y-81811229D01*
X138972147Y-81811229D02*
X138924528Y-81835039D01*
X138924528Y-81835039D02*
X138734052Y-81835039D01*
X139210243Y-81620753D02*
X139234052Y-81596944D01*
X139234052Y-81596944D02*
X139281671Y-81573134D01*
X139281671Y-81573134D02*
X139400719Y-81573134D01*
X139400719Y-81573134D02*
X139448338Y-81596944D01*
X139448338Y-81596944D02*
X139472147Y-81620753D01*
X139472147Y-81620753D02*
X139495957Y-81668372D01*
X139495957Y-81668372D02*
X139495957Y-81715991D01*
X139495957Y-81715991D02*
X139472147Y-81787420D01*
X139472147Y-81787420D02*
X139186433Y-82073134D01*
X139186433Y-82073134D02*
X139495957Y-82073134D01*
D12*
X131888366Y-117336590D02*
X131864557Y-117360400D01*
X131864557Y-117360400D02*
X131793128Y-117384209D01*
X131793128Y-117384209D02*
X131745509Y-117384209D01*
X131745509Y-117384209D02*
X131674081Y-117360400D01*
X131674081Y-117360400D02*
X131626462Y-117312780D01*
X131626462Y-117312780D02*
X131602652Y-117265161D01*
X131602652Y-117265161D02*
X131578843Y-117169923D01*
X131578843Y-117169923D02*
X131578843Y-117098495D01*
X131578843Y-117098495D02*
X131602652Y-117003257D01*
X131602652Y-117003257D02*
X131626462Y-116955638D01*
X131626462Y-116955638D02*
X131674081Y-116908019D01*
X131674081Y-116908019D02*
X131745509Y-116884209D01*
X131745509Y-116884209D02*
X131793128Y-116884209D01*
X131793128Y-116884209D02*
X131864557Y-116908019D01*
X131864557Y-116908019D02*
X131888366Y-116931828D01*
X132126462Y-117384209D02*
X132221700Y-117384209D01*
X132221700Y-117384209D02*
X132269319Y-117360400D01*
X132269319Y-117360400D02*
X132293128Y-117336590D01*
X132293128Y-117336590D02*
X132340747Y-117265161D01*
X132340747Y-117265161D02*
X132364557Y-117169923D01*
X132364557Y-117169923D02*
X132364557Y-116979447D01*
X132364557Y-116979447D02*
X132340747Y-116931828D01*
X132340747Y-116931828D02*
X132316938Y-116908019D01*
X132316938Y-116908019D02*
X132269319Y-116884209D01*
X132269319Y-116884209D02*
X132174081Y-116884209D01*
X132174081Y-116884209D02*
X132126462Y-116908019D01*
X132126462Y-116908019D02*
X132102652Y-116931828D01*
X132102652Y-116931828D02*
X132078843Y-116979447D01*
X132078843Y-116979447D02*
X132078843Y-117098495D01*
X132078843Y-117098495D02*
X132102652Y-117146114D01*
X132102652Y-117146114D02*
X132126462Y-117169923D01*
X132126462Y-117169923D02*
X132174081Y-117193733D01*
X132174081Y-117193733D02*
X132269319Y-117193733D01*
X132269319Y-117193733D02*
X132316938Y-117169923D01*
X132316938Y-117169923D02*
X132340747Y-117146114D01*
X132340747Y-117146114D02*
X132364557Y-117098495D01*
X129525979Y-114022488D02*
X129525979Y-114427250D01*
X129525979Y-114427250D02*
X129549789Y-114474869D01*
X129549789Y-114474869D02*
X129573598Y-114498679D01*
X129573598Y-114498679D02*
X129621217Y-114522488D01*
X129621217Y-114522488D02*
X129716455Y-114522488D01*
X129716455Y-114522488D02*
X129764074Y-114498679D01*
X129764074Y-114498679D02*
X129787884Y-114474869D01*
X129787884Y-114474869D02*
X129811693Y-114427250D01*
X129811693Y-114427250D02*
X129811693Y-114022488D01*
X130287884Y-114022488D02*
X130049789Y-114022488D01*
X130049789Y-114022488D02*
X130025980Y-114260583D01*
X130025980Y-114260583D02*
X130049789Y-114236774D01*
X130049789Y-114236774D02*
X130097408Y-114212964D01*
X130097408Y-114212964D02*
X130216456Y-114212964D01*
X130216456Y-114212964D02*
X130264075Y-114236774D01*
X130264075Y-114236774D02*
X130287884Y-114260583D01*
X130287884Y-114260583D02*
X130311694Y-114308202D01*
X130311694Y-114308202D02*
X130311694Y-114427250D01*
X130311694Y-114427250D02*
X130287884Y-114474869D01*
X130287884Y-114474869D02*
X130264075Y-114498679D01*
X130264075Y-114498679D02*
X130216456Y-114522488D01*
X130216456Y-114522488D02*
X130097408Y-114522488D01*
X130097408Y-114522488D02*
X130049789Y-114498679D01*
X130049789Y-114498679D02*
X130025980Y-114474869D01*
X129408504Y-96222057D02*
X129408504Y-96626819D01*
X129408504Y-96626819D02*
X129432314Y-96674438D01*
X129432314Y-96674438D02*
X129456123Y-96698248D01*
X129456123Y-96698248D02*
X129503742Y-96722057D01*
X129503742Y-96722057D02*
X129598980Y-96722057D01*
X129598980Y-96722057D02*
X129646599Y-96698248D01*
X129646599Y-96698248D02*
X129670409Y-96674438D01*
X129670409Y-96674438D02*
X129694218Y-96626819D01*
X129694218Y-96626819D02*
X129694218Y-96222057D01*
X130146600Y-96388724D02*
X130146600Y-96722057D01*
X130027552Y-96198248D02*
X129908505Y-96555390D01*
X129908505Y-96555390D02*
X130218028Y-96555390D01*
X129367229Y-105138147D02*
X129367229Y-105542909D01*
X129367229Y-105542909D02*
X129391039Y-105590528D01*
X129391039Y-105590528D02*
X129414848Y-105614338D01*
X129414848Y-105614338D02*
X129462467Y-105638147D01*
X129462467Y-105638147D02*
X129557705Y-105638147D01*
X129557705Y-105638147D02*
X129605324Y-105614338D01*
X129605324Y-105614338D02*
X129629134Y-105590528D01*
X129629134Y-105590528D02*
X129652943Y-105542909D01*
X129652943Y-105542909D02*
X129652943Y-105138147D01*
X130105325Y-105138147D02*
X130010087Y-105138147D01*
X130010087Y-105138147D02*
X129962468Y-105161957D01*
X129962468Y-105161957D02*
X129938658Y-105185766D01*
X129938658Y-105185766D02*
X129891039Y-105257195D01*
X129891039Y-105257195D02*
X129867230Y-105352433D01*
X129867230Y-105352433D02*
X129867230Y-105542909D01*
X129867230Y-105542909D02*
X129891039Y-105590528D01*
X129891039Y-105590528D02*
X129914849Y-105614338D01*
X129914849Y-105614338D02*
X129962468Y-105638147D01*
X129962468Y-105638147D02*
X130057706Y-105638147D01*
X130057706Y-105638147D02*
X130105325Y-105614338D01*
X130105325Y-105614338D02*
X130129134Y-105590528D01*
X130129134Y-105590528D02*
X130152944Y-105542909D01*
X130152944Y-105542909D02*
X130152944Y-105423861D01*
X130152944Y-105423861D02*
X130129134Y-105376242D01*
X130129134Y-105376242D02*
X130105325Y-105352433D01*
X130105325Y-105352433D02*
X130057706Y-105328623D01*
X130057706Y-105328623D02*
X129962468Y-105328623D01*
X129962468Y-105328623D02*
X129914849Y-105352433D01*
X129914849Y-105352433D02*
X129891039Y-105376242D01*
X129891039Y-105376242D02*
X129867230Y-105423861D01*
D11*
X155641770Y-104782269D02*
X155641770Y-105591792D01*
X155641770Y-105591792D02*
X155689389Y-105687030D01*
X155689389Y-105687030D02*
X155737008Y-105734650D01*
X155737008Y-105734650D02*
X155832246Y-105782269D01*
X155832246Y-105782269D02*
X156022722Y-105782269D01*
X156022722Y-105782269D02*
X156117960Y-105734650D01*
X156117960Y-105734650D02*
X156165579Y-105687030D01*
X156165579Y-105687030D02*
X156213198Y-105591792D01*
X156213198Y-105591792D02*
X156213198Y-104782269D01*
X156594151Y-104782269D02*
X157260817Y-104782269D01*
X157260817Y-104782269D02*
X156832246Y-105782269D01*
X142247673Y-117148318D02*
X142166860Y-117175255D01*
X142166860Y-117175255D02*
X142086048Y-117256068D01*
X142086048Y-117256068D02*
X142032173Y-117363817D01*
X142032173Y-117363817D02*
X142032173Y-117471567D01*
X142032173Y-117471567D02*
X142059111Y-117552379D01*
X142059111Y-117552379D02*
X142139923Y-117687066D01*
X142139923Y-117687066D02*
X142220735Y-117767878D01*
X142220735Y-117767878D02*
X142355422Y-117848691D01*
X142355422Y-117848691D02*
X142436235Y-117875628D01*
X142436235Y-117875628D02*
X142543984Y-117875628D01*
X142543984Y-117875628D02*
X142651734Y-117821753D01*
X142651734Y-117821753D02*
X142705609Y-117767878D01*
X142705609Y-117767878D02*
X142759483Y-117660129D01*
X142759483Y-117660129D02*
X142759483Y-117606254D01*
X142759483Y-117606254D02*
X142570922Y-117417692D01*
X142570922Y-117417692D02*
X142463172Y-117525442D01*
X143055795Y-117417692D02*
X142490109Y-116852007D01*
X142490109Y-116852007D02*
X142705609Y-116636507D01*
X142705609Y-116636507D02*
X142786421Y-116609570D01*
X142786421Y-116609570D02*
X142840296Y-116609570D01*
X142840296Y-116609570D02*
X142921108Y-116636507D01*
X142921108Y-116636507D02*
X143001920Y-116717320D01*
X143001920Y-116717320D02*
X143028857Y-116798132D01*
X143028857Y-116798132D02*
X143028857Y-116852007D01*
X143028857Y-116852007D02*
X143001920Y-116932819D01*
X143001920Y-116932819D02*
X142786421Y-117148318D01*
X143917792Y-116555695D02*
X143594543Y-116878944D01*
X143756167Y-116717320D02*
X143190482Y-116151634D01*
X143190482Y-116151634D02*
X143217419Y-116286321D01*
X143217419Y-116286321D02*
X143217419Y-116394071D01*
X143217419Y-116394071D02*
X143190482Y-116474883D01*
X144456540Y-116016947D02*
X144133291Y-116340196D01*
X144294915Y-116178571D02*
X143729230Y-115612886D01*
X143729230Y-115612886D02*
X143756167Y-115747573D01*
X143756167Y-115747573D02*
X143756167Y-115855323D01*
X143756167Y-115855323D02*
X143729230Y-115936135D01*
X142890110Y-86425881D02*
X142809298Y-86452818D01*
X142809298Y-86452818D02*
X142728486Y-86533630D01*
X142728486Y-86533630D02*
X142674611Y-86641380D01*
X142674611Y-86641380D02*
X142674611Y-86749130D01*
X142674611Y-86749130D02*
X142701548Y-86829942D01*
X142701548Y-86829942D02*
X142782360Y-86964629D01*
X142782360Y-86964629D02*
X142863173Y-87045441D01*
X142863173Y-87045441D02*
X142997860Y-87126253D01*
X142997860Y-87126253D02*
X143078672Y-87153191D01*
X143078672Y-87153191D02*
X143186421Y-87153191D01*
X143186421Y-87153191D02*
X143294171Y-87099316D01*
X143294171Y-87099316D02*
X143348046Y-87045441D01*
X143348046Y-87045441D02*
X143401921Y-86937691D01*
X143401921Y-86937691D02*
X143401921Y-86883817D01*
X143401921Y-86883817D02*
X143213359Y-86695255D01*
X143213359Y-86695255D02*
X143105609Y-86803004D01*
X143698232Y-86695255D02*
X143132547Y-86129569D01*
X143132547Y-86129569D02*
X144021481Y-86372006D01*
X144021481Y-86372006D02*
X143455795Y-85806321D01*
X144290855Y-86102632D02*
X143725169Y-85536947D01*
X143725169Y-85536947D02*
X143859856Y-85402260D01*
X143859856Y-85402260D02*
X143967606Y-85348385D01*
X143967606Y-85348385D02*
X144075355Y-85348385D01*
X144075355Y-85348385D02*
X144156168Y-85375322D01*
X144156168Y-85375322D02*
X144290855Y-85456135D01*
X144290855Y-85456135D02*
X144371667Y-85536947D01*
X144371667Y-85536947D02*
X144452479Y-85671634D01*
X144452479Y-85671634D02*
X144479416Y-85752446D01*
X144479416Y-85752446D02*
X144479416Y-85860196D01*
X144479416Y-85860196D02*
X144425542Y-85967945D01*
X144425542Y-85967945D02*
X144290855Y-86102632D01*
X168490110Y-111825881D02*
X168409298Y-111852818D01*
X168409298Y-111852818D02*
X168328486Y-111933630D01*
X168328486Y-111933630D02*
X168274611Y-112041380D01*
X168274611Y-112041380D02*
X168274611Y-112149130D01*
X168274611Y-112149130D02*
X168301548Y-112229942D01*
X168301548Y-112229942D02*
X168382360Y-112364629D01*
X168382360Y-112364629D02*
X168463173Y-112445441D01*
X168463173Y-112445441D02*
X168597860Y-112526253D01*
X168597860Y-112526253D02*
X168678672Y-112553191D01*
X168678672Y-112553191D02*
X168786421Y-112553191D01*
X168786421Y-112553191D02*
X168894171Y-112499316D01*
X168894171Y-112499316D02*
X168948046Y-112445441D01*
X168948046Y-112445441D02*
X169001921Y-112337691D01*
X169001921Y-112337691D02*
X169001921Y-112283817D01*
X169001921Y-112283817D02*
X168813359Y-112095255D01*
X168813359Y-112095255D02*
X168705609Y-112203004D01*
X169298232Y-112095255D02*
X168732547Y-111529569D01*
X168732547Y-111529569D02*
X169621481Y-111772006D01*
X169621481Y-111772006D02*
X169055795Y-111206321D01*
X169890855Y-111502632D02*
X169325169Y-110936947D01*
X169325169Y-110936947D02*
X169459856Y-110802260D01*
X169459856Y-110802260D02*
X169567606Y-110748385D01*
X169567606Y-110748385D02*
X169675355Y-110748385D01*
X169675355Y-110748385D02*
X169756168Y-110775322D01*
X169756168Y-110775322D02*
X169890855Y-110856135D01*
X169890855Y-110856135D02*
X169971667Y-110936947D01*
X169971667Y-110936947D02*
X170052479Y-111071634D01*
X170052479Y-111071634D02*
X170079416Y-111152446D01*
X170079416Y-111152446D02*
X170079416Y-111260196D01*
X170079416Y-111260196D02*
X170025542Y-111367945D01*
X170025542Y-111367945D02*
X169890855Y-111502632D01*
X168501673Y-122228318D02*
X168420860Y-122255255D01*
X168420860Y-122255255D02*
X168340048Y-122336068D01*
X168340048Y-122336068D02*
X168286173Y-122443817D01*
X168286173Y-122443817D02*
X168286173Y-122551567D01*
X168286173Y-122551567D02*
X168313111Y-122632379D01*
X168313111Y-122632379D02*
X168393923Y-122767066D01*
X168393923Y-122767066D02*
X168474735Y-122847878D01*
X168474735Y-122847878D02*
X168609422Y-122928691D01*
X168609422Y-122928691D02*
X168690235Y-122955628D01*
X168690235Y-122955628D02*
X168797984Y-122955628D01*
X168797984Y-122955628D02*
X168905734Y-122901753D01*
X168905734Y-122901753D02*
X168959609Y-122847878D01*
X168959609Y-122847878D02*
X169013483Y-122740129D01*
X169013483Y-122740129D02*
X169013483Y-122686254D01*
X169013483Y-122686254D02*
X168824922Y-122497692D01*
X168824922Y-122497692D02*
X168717172Y-122605442D01*
X169309795Y-122497692D02*
X168744109Y-121932007D01*
X168744109Y-121932007D02*
X168959609Y-121716507D01*
X168959609Y-121716507D02*
X169040421Y-121689570D01*
X169040421Y-121689570D02*
X169094296Y-121689570D01*
X169094296Y-121689570D02*
X169175108Y-121716507D01*
X169175108Y-121716507D02*
X169255920Y-121797320D01*
X169255920Y-121797320D02*
X169282857Y-121878132D01*
X169282857Y-121878132D02*
X169282857Y-121932007D01*
X169282857Y-121932007D02*
X169255920Y-122012819D01*
X169255920Y-122012819D02*
X169040421Y-122228318D01*
X170171792Y-121635695D02*
X169848543Y-121958944D01*
X170010167Y-121797320D02*
X169444482Y-121231634D01*
X169444482Y-121231634D02*
X169471419Y-121366321D01*
X169471419Y-121366321D02*
X169471419Y-121474071D01*
X169471419Y-121474071D02*
X169444482Y-121554883D01*
X170171792Y-120989197D02*
X170090980Y-121016135D01*
X170090980Y-121016135D02*
X170037105Y-121016135D01*
X170037105Y-121016135D02*
X169956293Y-120989197D01*
X169956293Y-120989197D02*
X169929355Y-120962260D01*
X169929355Y-120962260D02*
X169902418Y-120881448D01*
X169902418Y-120881448D02*
X169902418Y-120827573D01*
X169902418Y-120827573D02*
X169929355Y-120746761D01*
X169929355Y-120746761D02*
X170037105Y-120639011D01*
X170037105Y-120639011D02*
X170117917Y-120612074D01*
X170117917Y-120612074D02*
X170171792Y-120612074D01*
X170171792Y-120612074D02*
X170252604Y-120639011D01*
X170252604Y-120639011D02*
X170279541Y-120665949D01*
X170279541Y-120665949D02*
X170306479Y-120746761D01*
X170306479Y-120746761D02*
X170306479Y-120800636D01*
X170306479Y-120800636D02*
X170279541Y-120881448D01*
X170279541Y-120881448D02*
X170171792Y-120989197D01*
X170171792Y-120989197D02*
X170144854Y-121070010D01*
X170144854Y-121070010D02*
X170144854Y-121123884D01*
X170144854Y-121123884D02*
X170171792Y-121204697D01*
X170171792Y-121204697D02*
X170279541Y-121312446D01*
X170279541Y-121312446D02*
X170360354Y-121339384D01*
X170360354Y-121339384D02*
X170414228Y-121339384D01*
X170414228Y-121339384D02*
X170495041Y-121312446D01*
X170495041Y-121312446D02*
X170602790Y-121204697D01*
X170602790Y-121204697D02*
X170629728Y-121123884D01*
X170629728Y-121123884D02*
X170629728Y-121070010D01*
X170629728Y-121070010D02*
X170602790Y-120989197D01*
X170602790Y-120989197D02*
X170495041Y-120881448D01*
X170495041Y-120881448D02*
X170414228Y-120854510D01*
X170414228Y-120854510D02*
X170360354Y-120854510D01*
X170360354Y-120854510D02*
X170279541Y-120881448D01*
X169242326Y-107271160D02*
X168784391Y-107190348D01*
X168919078Y-107594409D02*
X168353392Y-107028724D01*
X168353392Y-107028724D02*
X168568891Y-106813225D01*
X168568891Y-106813225D02*
X168649704Y-106786287D01*
X168649704Y-106786287D02*
X168703578Y-106786287D01*
X168703578Y-106786287D02*
X168784391Y-106813225D01*
X168784391Y-106813225D02*
X168865203Y-106894037D01*
X168865203Y-106894037D02*
X168892140Y-106974849D01*
X168892140Y-106974849D02*
X168892140Y-107028724D01*
X168892140Y-107028724D02*
X168865203Y-107109536D01*
X168865203Y-107109536D02*
X168649704Y-107325035D01*
X168919078Y-106463038D02*
X169377013Y-106920974D01*
X169377013Y-106920974D02*
X169457826Y-106947912D01*
X169457826Y-106947912D02*
X169511700Y-106947912D01*
X169511700Y-106947912D02*
X169592513Y-106920974D01*
X169592513Y-106920974D02*
X169700262Y-106813225D01*
X169700262Y-106813225D02*
X169727200Y-106732412D01*
X169727200Y-106732412D02*
X169727200Y-106678538D01*
X169727200Y-106678538D02*
X169700262Y-106597725D01*
X169700262Y-106597725D02*
X169242326Y-106139790D01*
X170077386Y-106436101D02*
X169511700Y-105870416D01*
X169511700Y-105870416D02*
X170400634Y-106112852D01*
X170400634Y-106112852D02*
X169834949Y-105547167D01*
X142347673Y-127308318D02*
X142266860Y-127335255D01*
X142266860Y-127335255D02*
X142186048Y-127416068D01*
X142186048Y-127416068D02*
X142132173Y-127523817D01*
X142132173Y-127523817D02*
X142132173Y-127631567D01*
X142132173Y-127631567D02*
X142159111Y-127712379D01*
X142159111Y-127712379D02*
X142239923Y-127847066D01*
X142239923Y-127847066D02*
X142320735Y-127927878D01*
X142320735Y-127927878D02*
X142455422Y-128008691D01*
X142455422Y-128008691D02*
X142536235Y-128035628D01*
X142536235Y-128035628D02*
X142643984Y-128035628D01*
X142643984Y-128035628D02*
X142751734Y-127981753D01*
X142751734Y-127981753D02*
X142805609Y-127927878D01*
X142805609Y-127927878D02*
X142859483Y-127820129D01*
X142859483Y-127820129D02*
X142859483Y-127766254D01*
X142859483Y-127766254D02*
X142670922Y-127577692D01*
X142670922Y-127577692D02*
X142563172Y-127685442D01*
X143155795Y-127577692D02*
X142590109Y-127012007D01*
X142590109Y-127012007D02*
X142805609Y-126796507D01*
X142805609Y-126796507D02*
X142886421Y-126769570D01*
X142886421Y-126769570D02*
X142940296Y-126769570D01*
X142940296Y-126769570D02*
X143021108Y-126796507D01*
X143021108Y-126796507D02*
X143101920Y-126877320D01*
X143101920Y-126877320D02*
X143128857Y-126958132D01*
X143128857Y-126958132D02*
X143128857Y-127012007D01*
X143128857Y-127012007D02*
X143101920Y-127092819D01*
X143101920Y-127092819D02*
X142886421Y-127308318D01*
X144017792Y-126715695D02*
X143694543Y-127038944D01*
X143856167Y-126877320D02*
X143290482Y-126311634D01*
X143290482Y-126311634D02*
X143317419Y-126446321D01*
X143317419Y-126446321D02*
X143317419Y-126554071D01*
X143317419Y-126554071D02*
X143290482Y-126634883D01*
X144125541Y-125853698D02*
X144502665Y-126230822D01*
X143775355Y-125772886D02*
X144044729Y-126311634D01*
X144044729Y-126311634D02*
X144394915Y-125961448D01*
X168357081Y-81855035D02*
X169111328Y-82232159D01*
X169111328Y-82232159D02*
X168734204Y-81477912D01*
X169380702Y-81370162D02*
X169488451Y-81316288D01*
X169488451Y-81316288D02*
X169542326Y-81316288D01*
X169542326Y-81316288D02*
X169623138Y-81343225D01*
X169623138Y-81343225D02*
X169703951Y-81424037D01*
X169703951Y-81424037D02*
X169730888Y-81504849D01*
X169730888Y-81504849D02*
X169730888Y-81558724D01*
X169730888Y-81558724D02*
X169703951Y-81639536D01*
X169703951Y-81639536D02*
X169488451Y-81855036D01*
X169488451Y-81855036D02*
X168922766Y-81289350D01*
X168922766Y-81289350D02*
X169111328Y-81100788D01*
X169111328Y-81100788D02*
X169192140Y-81073851D01*
X169192140Y-81073851D02*
X169246015Y-81073851D01*
X169246015Y-81073851D02*
X169326827Y-81100788D01*
X169326827Y-81100788D02*
X169380702Y-81154663D01*
X169380702Y-81154663D02*
X169407639Y-81235475D01*
X169407639Y-81235475D02*
X169407639Y-81289350D01*
X169407639Y-81289350D02*
X169380702Y-81370162D01*
X169380702Y-81370162D02*
X169192140Y-81558724D01*
X169488451Y-80723665D02*
X169946387Y-81181601D01*
X169946387Y-81181601D02*
X170027199Y-81208538D01*
X170027199Y-81208538D02*
X170081074Y-81208538D01*
X170081074Y-81208538D02*
X170161886Y-81181601D01*
X170161886Y-81181601D02*
X170269636Y-81073851D01*
X170269636Y-81073851D02*
X170296573Y-80993039D01*
X170296573Y-80993039D02*
X170296573Y-80939164D01*
X170296573Y-80939164D02*
X170269636Y-80858352D01*
X170269636Y-80858352D02*
X169811700Y-80400416D01*
X170592885Y-80696727D02*
X170700634Y-80642853D01*
X170700634Y-80642853D02*
X170835321Y-80508166D01*
X170835321Y-80508166D02*
X170862259Y-80427353D01*
X170862259Y-80427353D02*
X170862259Y-80373479D01*
X170862259Y-80373479D02*
X170835321Y-80292666D01*
X170835321Y-80292666D02*
X170781446Y-80238792D01*
X170781446Y-80238792D02*
X170700634Y-80211854D01*
X170700634Y-80211854D02*
X170646759Y-80211854D01*
X170646759Y-80211854D02*
X170565947Y-80238792D01*
X170565947Y-80238792D02*
X170431260Y-80319604D01*
X170431260Y-80319604D02*
X170350448Y-80346541D01*
X170350448Y-80346541D02*
X170296573Y-80346541D01*
X170296573Y-80346541D02*
X170215761Y-80319604D01*
X170215761Y-80319604D02*
X170161886Y-80265729D01*
X170161886Y-80265729D02*
X170134949Y-80184917D01*
X170134949Y-80184917D02*
X170134949Y-80131042D01*
X170134949Y-80131042D02*
X170161886Y-80050230D01*
X170161886Y-80050230D02*
X170296573Y-79915543D01*
X170296573Y-79915543D02*
X170404323Y-79861668D01*
X168501673Y-129848318D02*
X168420860Y-129875255D01*
X168420860Y-129875255D02*
X168340048Y-129956068D01*
X168340048Y-129956068D02*
X168286173Y-130063817D01*
X168286173Y-130063817D02*
X168286173Y-130171567D01*
X168286173Y-130171567D02*
X168313111Y-130252379D01*
X168313111Y-130252379D02*
X168393923Y-130387066D01*
X168393923Y-130387066D02*
X168474735Y-130467878D01*
X168474735Y-130467878D02*
X168609422Y-130548691D01*
X168609422Y-130548691D02*
X168690235Y-130575628D01*
X168690235Y-130575628D02*
X168797984Y-130575628D01*
X168797984Y-130575628D02*
X168905734Y-130521753D01*
X168905734Y-130521753D02*
X168959609Y-130467878D01*
X168959609Y-130467878D02*
X169013483Y-130360129D01*
X169013483Y-130360129D02*
X169013483Y-130306254D01*
X169013483Y-130306254D02*
X168824922Y-130117692D01*
X168824922Y-130117692D02*
X168717172Y-130225442D01*
X169309795Y-130117692D02*
X168744109Y-129552007D01*
X168744109Y-129552007D02*
X168959609Y-129336507D01*
X168959609Y-129336507D02*
X169040421Y-129309570D01*
X169040421Y-129309570D02*
X169094296Y-129309570D01*
X169094296Y-129309570D02*
X169175108Y-129336507D01*
X169175108Y-129336507D02*
X169255920Y-129417320D01*
X169255920Y-129417320D02*
X169282857Y-129498132D01*
X169282857Y-129498132D02*
X169282857Y-129552007D01*
X169282857Y-129552007D02*
X169255920Y-129632819D01*
X169255920Y-129632819D02*
X169040421Y-129848318D01*
X170171792Y-129255695D02*
X169848543Y-129578944D01*
X170010167Y-129417320D02*
X169444482Y-128851634D01*
X169444482Y-128851634D02*
X169471419Y-128986321D01*
X169471419Y-128986321D02*
X169471419Y-129094071D01*
X169471419Y-129094071D02*
X169444482Y-129174883D01*
X170090980Y-128205136D02*
X169983230Y-128312886D01*
X169983230Y-128312886D02*
X169956293Y-128393698D01*
X169956293Y-128393698D02*
X169956293Y-128447573D01*
X169956293Y-128447573D02*
X169983230Y-128582260D01*
X169983230Y-128582260D02*
X170064042Y-128716947D01*
X170064042Y-128716947D02*
X170279541Y-128932446D01*
X170279541Y-128932446D02*
X170360354Y-128959384D01*
X170360354Y-128959384D02*
X170414228Y-128959384D01*
X170414228Y-128959384D02*
X170495041Y-128932446D01*
X170495041Y-128932446D02*
X170602790Y-128824697D01*
X170602790Y-128824697D02*
X170629728Y-128743884D01*
X170629728Y-128743884D02*
X170629728Y-128690010D01*
X170629728Y-128690010D02*
X170602790Y-128609197D01*
X170602790Y-128609197D02*
X170468103Y-128474510D01*
X170468103Y-128474510D02*
X170387291Y-128447573D01*
X170387291Y-128447573D02*
X170333416Y-128447573D01*
X170333416Y-128447573D02*
X170252604Y-128474510D01*
X170252604Y-128474510D02*
X170144854Y-128582260D01*
X170144854Y-128582260D02*
X170117917Y-128663072D01*
X170117917Y-128663072D02*
X170117917Y-128716947D01*
X170117917Y-128716947D02*
X170144854Y-128797759D01*
X142393673Y-122228318D02*
X142312860Y-122255255D01*
X142312860Y-122255255D02*
X142232048Y-122336068D01*
X142232048Y-122336068D02*
X142178173Y-122443817D01*
X142178173Y-122443817D02*
X142178173Y-122551567D01*
X142178173Y-122551567D02*
X142205111Y-122632379D01*
X142205111Y-122632379D02*
X142285923Y-122767066D01*
X142285923Y-122767066D02*
X142366735Y-122847878D01*
X142366735Y-122847878D02*
X142501422Y-122928691D01*
X142501422Y-122928691D02*
X142582235Y-122955628D01*
X142582235Y-122955628D02*
X142689984Y-122955628D01*
X142689984Y-122955628D02*
X142797734Y-122901753D01*
X142797734Y-122901753D02*
X142851609Y-122847878D01*
X142851609Y-122847878D02*
X142905483Y-122740129D01*
X142905483Y-122740129D02*
X142905483Y-122686254D01*
X142905483Y-122686254D02*
X142716922Y-122497692D01*
X142716922Y-122497692D02*
X142609172Y-122605442D01*
X143201795Y-122497692D02*
X142636109Y-121932007D01*
X142636109Y-121932007D02*
X142851609Y-121716507D01*
X142851609Y-121716507D02*
X142932421Y-121689570D01*
X142932421Y-121689570D02*
X142986296Y-121689570D01*
X142986296Y-121689570D02*
X143067108Y-121716507D01*
X143067108Y-121716507D02*
X143147920Y-121797320D01*
X143147920Y-121797320D02*
X143174857Y-121878132D01*
X143174857Y-121878132D02*
X143174857Y-121932007D01*
X143174857Y-121932007D02*
X143147920Y-122012819D01*
X143147920Y-122012819D02*
X142932421Y-122228318D01*
X144063792Y-121635695D02*
X143740543Y-121958944D01*
X143902167Y-121797320D02*
X143336482Y-121231634D01*
X143336482Y-121231634D02*
X143363419Y-121366321D01*
X143363419Y-121366321D02*
X143363419Y-121474071D01*
X143363419Y-121474071D02*
X143336482Y-121554883D01*
X143686668Y-120881448D02*
X144036854Y-120531262D01*
X144036854Y-120531262D02*
X144063792Y-120935323D01*
X144063792Y-120935323D02*
X144144604Y-120854510D01*
X144144604Y-120854510D02*
X144225416Y-120827573D01*
X144225416Y-120827573D02*
X144279291Y-120827573D01*
X144279291Y-120827573D02*
X144360103Y-120854510D01*
X144360103Y-120854510D02*
X144494790Y-120989197D01*
X144494790Y-120989197D02*
X144521728Y-121070010D01*
X144521728Y-121070010D02*
X144521728Y-121123884D01*
X144521728Y-121123884D02*
X144494790Y-121204697D01*
X144494790Y-121204697D02*
X144333166Y-121366321D01*
X144333166Y-121366321D02*
X144252354Y-121393258D01*
X144252354Y-121393258D02*
X144198479Y-121393258D01*
X142247673Y-119688318D02*
X142166860Y-119715255D01*
X142166860Y-119715255D02*
X142086048Y-119796068D01*
X142086048Y-119796068D02*
X142032173Y-119903817D01*
X142032173Y-119903817D02*
X142032173Y-120011567D01*
X142032173Y-120011567D02*
X142059111Y-120092379D01*
X142059111Y-120092379D02*
X142139923Y-120227066D01*
X142139923Y-120227066D02*
X142220735Y-120307878D01*
X142220735Y-120307878D02*
X142355422Y-120388691D01*
X142355422Y-120388691D02*
X142436235Y-120415628D01*
X142436235Y-120415628D02*
X142543984Y-120415628D01*
X142543984Y-120415628D02*
X142651734Y-120361753D01*
X142651734Y-120361753D02*
X142705609Y-120307878D01*
X142705609Y-120307878D02*
X142759483Y-120200129D01*
X142759483Y-120200129D02*
X142759483Y-120146254D01*
X142759483Y-120146254D02*
X142570922Y-119957692D01*
X142570922Y-119957692D02*
X142463172Y-120065442D01*
X143055795Y-119957692D02*
X142490109Y-119392007D01*
X142490109Y-119392007D02*
X142705609Y-119176507D01*
X142705609Y-119176507D02*
X142786421Y-119149570D01*
X142786421Y-119149570D02*
X142840296Y-119149570D01*
X142840296Y-119149570D02*
X142921108Y-119176507D01*
X142921108Y-119176507D02*
X143001920Y-119257320D01*
X143001920Y-119257320D02*
X143028857Y-119338132D01*
X143028857Y-119338132D02*
X143028857Y-119392007D01*
X143028857Y-119392007D02*
X143001920Y-119472819D01*
X143001920Y-119472819D02*
X142786421Y-119688318D01*
X143917792Y-119095695D02*
X143594543Y-119418944D01*
X143756167Y-119257320D02*
X143190482Y-118691634D01*
X143190482Y-118691634D02*
X143217419Y-118826321D01*
X143217419Y-118826321D02*
X143217419Y-118934071D01*
X143217419Y-118934071D02*
X143190482Y-119014883D01*
X143621480Y-118368385D02*
X143621480Y-118314510D01*
X143621480Y-118314510D02*
X143648418Y-118233698D01*
X143648418Y-118233698D02*
X143783105Y-118099011D01*
X143783105Y-118099011D02*
X143863917Y-118072074D01*
X143863917Y-118072074D02*
X143917792Y-118072074D01*
X143917792Y-118072074D02*
X143998604Y-118099011D01*
X143998604Y-118099011D02*
X144052479Y-118152886D01*
X144052479Y-118152886D02*
X144106354Y-118260636D01*
X144106354Y-118260636D02*
X144106354Y-118907133D01*
X144106354Y-118907133D02*
X144456540Y-118556947D01*
X168490110Y-124525881D02*
X168409298Y-124552818D01*
X168409298Y-124552818D02*
X168328486Y-124633630D01*
X168328486Y-124633630D02*
X168274611Y-124741380D01*
X168274611Y-124741380D02*
X168274611Y-124849130D01*
X168274611Y-124849130D02*
X168301548Y-124929942D01*
X168301548Y-124929942D02*
X168382360Y-125064629D01*
X168382360Y-125064629D02*
X168463173Y-125145441D01*
X168463173Y-125145441D02*
X168597860Y-125226253D01*
X168597860Y-125226253D02*
X168678672Y-125253191D01*
X168678672Y-125253191D02*
X168786421Y-125253191D01*
X168786421Y-125253191D02*
X168894171Y-125199316D01*
X168894171Y-125199316D02*
X168948046Y-125145441D01*
X168948046Y-125145441D02*
X169001921Y-125037691D01*
X169001921Y-125037691D02*
X169001921Y-124983817D01*
X169001921Y-124983817D02*
X168813359Y-124795255D01*
X168813359Y-124795255D02*
X168705609Y-124903004D01*
X169298232Y-124795255D02*
X168732547Y-124229569D01*
X168732547Y-124229569D02*
X169621481Y-124472006D01*
X169621481Y-124472006D02*
X169055795Y-123906321D01*
X169890855Y-124202632D02*
X169325169Y-123636947D01*
X169325169Y-123636947D02*
X169459856Y-123502260D01*
X169459856Y-123502260D02*
X169567606Y-123448385D01*
X169567606Y-123448385D02*
X169675355Y-123448385D01*
X169675355Y-123448385D02*
X169756168Y-123475322D01*
X169756168Y-123475322D02*
X169890855Y-123556135D01*
X169890855Y-123556135D02*
X169971667Y-123636947D01*
X169971667Y-123636947D02*
X170052479Y-123771634D01*
X170052479Y-123771634D02*
X170079416Y-123852446D01*
X170079416Y-123852446D02*
X170079416Y-123960196D01*
X170079416Y-123960196D02*
X170025542Y-124067945D01*
X170025542Y-124067945D02*
X169890855Y-124202632D01*
X168558739Y-94861499D02*
X168828113Y-94592125D01*
X168666488Y-95076999D02*
X168289365Y-94322751D01*
X168289365Y-94322751D02*
X169043612Y-94699875D01*
X169232174Y-94511313D02*
X168666488Y-93945628D01*
X168666488Y-93945628D02*
X168801175Y-93810941D01*
X168801175Y-93810941D02*
X168908925Y-93757066D01*
X168908925Y-93757066D02*
X169016674Y-93757066D01*
X169016674Y-93757066D02*
X169097487Y-93784003D01*
X169097487Y-93784003D02*
X169232174Y-93864816D01*
X169232174Y-93864816D02*
X169312986Y-93945628D01*
X169312986Y-93945628D02*
X169393798Y-94080315D01*
X169393798Y-94080315D02*
X169420735Y-94161127D01*
X169420735Y-94161127D02*
X169420735Y-94268877D01*
X169420735Y-94268877D02*
X169366861Y-94376626D01*
X169366861Y-94376626D02*
X169232174Y-94511313D01*
X170067233Y-93568504D02*
X170067233Y-93622379D01*
X170067233Y-93622379D02*
X170013358Y-93730129D01*
X170013358Y-93730129D02*
X169959483Y-93784003D01*
X169959483Y-93784003D02*
X169851734Y-93837878D01*
X169851734Y-93837878D02*
X169743984Y-93837878D01*
X169743984Y-93837878D02*
X169663172Y-93810941D01*
X169663172Y-93810941D02*
X169528485Y-93730129D01*
X169528485Y-93730129D02*
X169447673Y-93649316D01*
X169447673Y-93649316D02*
X169366861Y-93514629D01*
X169366861Y-93514629D02*
X169339923Y-93433817D01*
X169339923Y-93433817D02*
X169339923Y-93326068D01*
X169339923Y-93326068D02*
X169393798Y-93218318D01*
X169393798Y-93218318D02*
X169447673Y-93164443D01*
X169447673Y-93164443D02*
X169555422Y-93110568D01*
X169555422Y-93110568D02*
X169609297Y-93110568D01*
X170282732Y-93568504D02*
X170713731Y-93137506D01*
X170148045Y-92464071D02*
X170902293Y-92841194D01*
X170902293Y-92841194D02*
X170525169Y-92086947D01*
X171602665Y-92140822D02*
X171144729Y-92060010D01*
X171279416Y-92464071D02*
X170713731Y-91898385D01*
X170713731Y-91898385D02*
X170929230Y-91682886D01*
X170929230Y-91682886D02*
X171010042Y-91655949D01*
X171010042Y-91655949D02*
X171063917Y-91655949D01*
X171063917Y-91655949D02*
X171144729Y-91682886D01*
X171144729Y-91682886D02*
X171225541Y-91763698D01*
X171225541Y-91763698D02*
X171252479Y-91844511D01*
X171252479Y-91844511D02*
X171252479Y-91898385D01*
X171252479Y-91898385D02*
X171225541Y-91979198D01*
X171225541Y-91979198D02*
X171010042Y-92194697D01*
X171548790Y-91602074D02*
X171737352Y-91413512D01*
X172114475Y-91629011D02*
X171845101Y-91898385D01*
X171845101Y-91898385D02*
X171279416Y-91332700D01*
X171279416Y-91332700D02*
X171548790Y-91063326D01*
X172249163Y-90901701D02*
X172060601Y-91090263D01*
X172356912Y-91386575D02*
X171791227Y-90820889D01*
X171791227Y-90820889D02*
X172060601Y-90551515D01*
X142917047Y-81318944D02*
X142836235Y-81345881D01*
X142836235Y-81345881D02*
X142755423Y-81426693D01*
X142755423Y-81426693D02*
X142701548Y-81534443D01*
X142701548Y-81534443D02*
X142701548Y-81642192D01*
X142701548Y-81642192D02*
X142728485Y-81723005D01*
X142728485Y-81723005D02*
X142809298Y-81857692D01*
X142809298Y-81857692D02*
X142890110Y-81938504D01*
X142890110Y-81938504D02*
X143024797Y-82019316D01*
X143024797Y-82019316D02*
X143105609Y-82046253D01*
X143105609Y-82046253D02*
X143213359Y-82046253D01*
X143213359Y-82046253D02*
X143321108Y-81992379D01*
X143321108Y-81992379D02*
X143374983Y-81938504D01*
X143374983Y-81938504D02*
X143428858Y-81830754D01*
X143428858Y-81830754D02*
X143428858Y-81776879D01*
X143428858Y-81776879D02*
X143240296Y-81588318D01*
X143240296Y-81588318D02*
X143132546Y-81696067D01*
X143725169Y-81588318D02*
X143159484Y-81022632D01*
X143159484Y-81022632D02*
X143374983Y-80807133D01*
X143374983Y-80807133D02*
X143455795Y-80780196D01*
X143455795Y-80780196D02*
X143509670Y-80780196D01*
X143509670Y-80780196D02*
X143590482Y-80807133D01*
X143590482Y-80807133D02*
X143671294Y-80887945D01*
X143671294Y-80887945D02*
X143698232Y-80968757D01*
X143698232Y-80968757D02*
X143698232Y-81022632D01*
X143698232Y-81022632D02*
X143671294Y-81103444D01*
X143671294Y-81103444D02*
X143455795Y-81318944D01*
X143832919Y-80349197D02*
X143886794Y-80295322D01*
X143886794Y-80295322D02*
X143967606Y-80268385D01*
X143967606Y-80268385D02*
X144021481Y-80268385D01*
X144021481Y-80268385D02*
X144102293Y-80295322D01*
X144102293Y-80295322D02*
X144236980Y-80376135D01*
X144236980Y-80376135D02*
X144371667Y-80510822D01*
X144371667Y-80510822D02*
X144452479Y-80645509D01*
X144452479Y-80645509D02*
X144479416Y-80726321D01*
X144479416Y-80726321D02*
X144479416Y-80780196D01*
X144479416Y-80780196D02*
X144452479Y-80861008D01*
X144452479Y-80861008D02*
X144398604Y-80914883D01*
X144398604Y-80914883D02*
X144317792Y-80941820D01*
X144317792Y-80941820D02*
X144263917Y-80941820D01*
X144263917Y-80941820D02*
X144183105Y-80914883D01*
X144183105Y-80914883D02*
X144048418Y-80834070D01*
X144048418Y-80834070D02*
X143913731Y-80699383D01*
X143913731Y-80699383D02*
X143832919Y-80564696D01*
X143832919Y-80564696D02*
X143805981Y-80483884D01*
X143805981Y-80483884D02*
X143805981Y-80430009D01*
X143805981Y-80430009D02*
X143832919Y-80349197D01*
X142917047Y-96558944D02*
X142836235Y-96585881D01*
X142836235Y-96585881D02*
X142755423Y-96666693D01*
X142755423Y-96666693D02*
X142701548Y-96774443D01*
X142701548Y-96774443D02*
X142701548Y-96882192D01*
X142701548Y-96882192D02*
X142728485Y-96963005D01*
X142728485Y-96963005D02*
X142809298Y-97097692D01*
X142809298Y-97097692D02*
X142890110Y-97178504D01*
X142890110Y-97178504D02*
X143024797Y-97259316D01*
X143024797Y-97259316D02*
X143105609Y-97286253D01*
X143105609Y-97286253D02*
X143213359Y-97286253D01*
X143213359Y-97286253D02*
X143321108Y-97232379D01*
X143321108Y-97232379D02*
X143374983Y-97178504D01*
X143374983Y-97178504D02*
X143428858Y-97070754D01*
X143428858Y-97070754D02*
X143428858Y-97016879D01*
X143428858Y-97016879D02*
X143240296Y-96828318D01*
X143240296Y-96828318D02*
X143132546Y-96936067D01*
X143725169Y-96828318D02*
X143159484Y-96262632D01*
X143159484Y-96262632D02*
X143374983Y-96047133D01*
X143374983Y-96047133D02*
X143455795Y-96020196D01*
X143455795Y-96020196D02*
X143509670Y-96020196D01*
X143509670Y-96020196D02*
X143590482Y-96047133D01*
X143590482Y-96047133D02*
X143671294Y-96127945D01*
X143671294Y-96127945D02*
X143698232Y-96208757D01*
X143698232Y-96208757D02*
X143698232Y-96262632D01*
X143698232Y-96262632D02*
X143671294Y-96343444D01*
X143671294Y-96343444D02*
X143455795Y-96558944D01*
X143994543Y-95427573D02*
X143725169Y-95696947D01*
X143725169Y-95696947D02*
X143967606Y-95993258D01*
X143967606Y-95993258D02*
X143967606Y-95939383D01*
X143967606Y-95939383D02*
X143994543Y-95858571D01*
X143994543Y-95858571D02*
X144129230Y-95723884D01*
X144129230Y-95723884D02*
X144210042Y-95696947D01*
X144210042Y-95696947D02*
X144263917Y-95696947D01*
X144263917Y-95696947D02*
X144344729Y-95723884D01*
X144344729Y-95723884D02*
X144479416Y-95858571D01*
X144479416Y-95858571D02*
X144506354Y-95939383D01*
X144506354Y-95939383D02*
X144506354Y-95993258D01*
X144506354Y-95993258D02*
X144479416Y-96074070D01*
X144479416Y-96074070D02*
X144344729Y-96208757D01*
X144344729Y-96208757D02*
X144263917Y-96235695D01*
X144263917Y-96235695D02*
X144210042Y-96235695D01*
X168555548Y-100068690D02*
X168824922Y-99799316D01*
X168663298Y-100284189D02*
X168286174Y-99529942D01*
X168286174Y-99529942D02*
X169040421Y-99907065D01*
X168986546Y-98883444D02*
X168905734Y-98910382D01*
X168905734Y-98910382D02*
X168824922Y-98991194D01*
X168824922Y-98991194D02*
X168771047Y-99098944D01*
X168771047Y-99098944D02*
X168771047Y-99206693D01*
X168771047Y-99206693D02*
X168797985Y-99287505D01*
X168797985Y-99287505D02*
X168878797Y-99422192D01*
X168878797Y-99422192D02*
X168959609Y-99503005D01*
X168959609Y-99503005D02*
X169094296Y-99583817D01*
X169094296Y-99583817D02*
X169175108Y-99610754D01*
X169175108Y-99610754D02*
X169282858Y-99610754D01*
X169282858Y-99610754D02*
X169390607Y-99556879D01*
X169390607Y-99556879D02*
X169444482Y-99503005D01*
X169444482Y-99503005D02*
X169498357Y-99395255D01*
X169498357Y-99395255D02*
X169498357Y-99341380D01*
X169498357Y-99341380D02*
X169309795Y-99152818D01*
X169309795Y-99152818D02*
X169202046Y-99260568D01*
X169794668Y-99152818D02*
X169228983Y-98587133D01*
X169228983Y-98587133D02*
X170117917Y-98829570D01*
X170117917Y-98829570D02*
X169552232Y-98263884D01*
X170387291Y-98560196D02*
X169821606Y-97994510D01*
X169821606Y-97994510D02*
X169956293Y-97859823D01*
X169956293Y-97859823D02*
X170064042Y-97805948D01*
X170064042Y-97805948D02*
X170171792Y-97805948D01*
X170171792Y-97805948D02*
X170252604Y-97832886D01*
X170252604Y-97832886D02*
X170387291Y-97913698D01*
X170387291Y-97913698D02*
X170468103Y-97994510D01*
X170468103Y-97994510D02*
X170548916Y-98129197D01*
X170548916Y-98129197D02*
X170575853Y-98210010D01*
X170575853Y-98210010D02*
X170575853Y-98317759D01*
X170575853Y-98317759D02*
X170521978Y-98425509D01*
X170521978Y-98425509D02*
X170387291Y-98560196D01*
X168501673Y-117148318D02*
X168420860Y-117175255D01*
X168420860Y-117175255D02*
X168340048Y-117256068D01*
X168340048Y-117256068D02*
X168286173Y-117363817D01*
X168286173Y-117363817D02*
X168286173Y-117471567D01*
X168286173Y-117471567D02*
X168313111Y-117552379D01*
X168313111Y-117552379D02*
X168393923Y-117687066D01*
X168393923Y-117687066D02*
X168474735Y-117767878D01*
X168474735Y-117767878D02*
X168609422Y-117848691D01*
X168609422Y-117848691D02*
X168690235Y-117875628D01*
X168690235Y-117875628D02*
X168797984Y-117875628D01*
X168797984Y-117875628D02*
X168905734Y-117821753D01*
X168905734Y-117821753D02*
X168959609Y-117767878D01*
X168959609Y-117767878D02*
X169013483Y-117660129D01*
X169013483Y-117660129D02*
X169013483Y-117606254D01*
X169013483Y-117606254D02*
X168824922Y-117417692D01*
X168824922Y-117417692D02*
X168717172Y-117525442D01*
X169309795Y-117417692D02*
X168744109Y-116852007D01*
X168744109Y-116852007D02*
X168959609Y-116636507D01*
X168959609Y-116636507D02*
X169040421Y-116609570D01*
X169040421Y-116609570D02*
X169094296Y-116609570D01*
X169094296Y-116609570D02*
X169175108Y-116636507D01*
X169175108Y-116636507D02*
X169255920Y-116717320D01*
X169255920Y-116717320D02*
X169282857Y-116798132D01*
X169282857Y-116798132D02*
X169282857Y-116852007D01*
X169282857Y-116852007D02*
X169255920Y-116932819D01*
X169255920Y-116932819D02*
X169040421Y-117148318D01*
X169336732Y-116367133D02*
X169336732Y-116313259D01*
X169336732Y-116313259D02*
X169363670Y-116232446D01*
X169363670Y-116232446D02*
X169498357Y-116097759D01*
X169498357Y-116097759D02*
X169579169Y-116070822D01*
X169579169Y-116070822D02*
X169633044Y-116070822D01*
X169633044Y-116070822D02*
X169713856Y-116097759D01*
X169713856Y-116097759D02*
X169767731Y-116151634D01*
X169767731Y-116151634D02*
X169821605Y-116259384D01*
X169821605Y-116259384D02*
X169821605Y-116905881D01*
X169821605Y-116905881D02*
X170171792Y-116555695D01*
X169956293Y-115639823D02*
X170010167Y-115585949D01*
X170010167Y-115585949D02*
X170090980Y-115559011D01*
X170090980Y-115559011D02*
X170144854Y-115559011D01*
X170144854Y-115559011D02*
X170225667Y-115585949D01*
X170225667Y-115585949D02*
X170360354Y-115666761D01*
X170360354Y-115666761D02*
X170495041Y-115801448D01*
X170495041Y-115801448D02*
X170575853Y-115936135D01*
X170575853Y-115936135D02*
X170602790Y-116016947D01*
X170602790Y-116016947D02*
X170602790Y-116070822D01*
X170602790Y-116070822D02*
X170575853Y-116151634D01*
X170575853Y-116151634D02*
X170521978Y-116205509D01*
X170521978Y-116205509D02*
X170441166Y-116232446D01*
X170441166Y-116232446D02*
X170387291Y-116232446D01*
X170387291Y-116232446D02*
X170306479Y-116205509D01*
X170306479Y-116205509D02*
X170171792Y-116124697D01*
X170171792Y-116124697D02*
X170037105Y-115990010D01*
X170037105Y-115990010D02*
X169956293Y-115855323D01*
X169956293Y-115855323D02*
X169929355Y-115774510D01*
X169929355Y-115774510D02*
X169929355Y-115720636D01*
X169929355Y-115720636D02*
X169956293Y-115639823D01*
X142917047Y-106718944D02*
X142836235Y-106745881D01*
X142836235Y-106745881D02*
X142755423Y-106826693D01*
X142755423Y-106826693D02*
X142701548Y-106934443D01*
X142701548Y-106934443D02*
X142701548Y-107042192D01*
X142701548Y-107042192D02*
X142728485Y-107123005D01*
X142728485Y-107123005D02*
X142809298Y-107257692D01*
X142809298Y-107257692D02*
X142890110Y-107338504D01*
X142890110Y-107338504D02*
X143024797Y-107419316D01*
X143024797Y-107419316D02*
X143105609Y-107446253D01*
X143105609Y-107446253D02*
X143213359Y-107446253D01*
X143213359Y-107446253D02*
X143321108Y-107392379D01*
X143321108Y-107392379D02*
X143374983Y-107338504D01*
X143374983Y-107338504D02*
X143428858Y-107230754D01*
X143428858Y-107230754D02*
X143428858Y-107176879D01*
X143428858Y-107176879D02*
X143240296Y-106988318D01*
X143240296Y-106988318D02*
X143132546Y-107096067D01*
X143725169Y-106988318D02*
X143159484Y-106422632D01*
X143159484Y-106422632D02*
X143374983Y-106207133D01*
X143374983Y-106207133D02*
X143455795Y-106180196D01*
X143455795Y-106180196D02*
X143509670Y-106180196D01*
X143509670Y-106180196D02*
X143590482Y-106207133D01*
X143590482Y-106207133D02*
X143671294Y-106287945D01*
X143671294Y-106287945D02*
X143698232Y-106368757D01*
X143698232Y-106368757D02*
X143698232Y-106422632D01*
X143698232Y-106422632D02*
X143671294Y-106503444D01*
X143671294Y-106503444D02*
X143455795Y-106718944D01*
X144048418Y-106018571D02*
X143967606Y-106045509D01*
X143967606Y-106045509D02*
X143913731Y-106045509D01*
X143913731Y-106045509D02*
X143832919Y-106018571D01*
X143832919Y-106018571D02*
X143805981Y-105991634D01*
X143805981Y-105991634D02*
X143779044Y-105910822D01*
X143779044Y-105910822D02*
X143779044Y-105856947D01*
X143779044Y-105856947D02*
X143805981Y-105776135D01*
X143805981Y-105776135D02*
X143913731Y-105668385D01*
X143913731Y-105668385D02*
X143994543Y-105641448D01*
X143994543Y-105641448D02*
X144048418Y-105641448D01*
X144048418Y-105641448D02*
X144129230Y-105668385D01*
X144129230Y-105668385D02*
X144156168Y-105695322D01*
X144156168Y-105695322D02*
X144183105Y-105776135D01*
X144183105Y-105776135D02*
X144183105Y-105830009D01*
X144183105Y-105830009D02*
X144156168Y-105910822D01*
X144156168Y-105910822D02*
X144048418Y-106018571D01*
X144048418Y-106018571D02*
X144021481Y-106099383D01*
X144021481Y-106099383D02*
X144021481Y-106153258D01*
X144021481Y-106153258D02*
X144048418Y-106234070D01*
X144048418Y-106234070D02*
X144156168Y-106341820D01*
X144156168Y-106341820D02*
X144236980Y-106368757D01*
X144236980Y-106368757D02*
X144290855Y-106368757D01*
X144290855Y-106368757D02*
X144371667Y-106341820D01*
X144371667Y-106341820D02*
X144479416Y-106234070D01*
X144479416Y-106234070D02*
X144506354Y-106153258D01*
X144506354Y-106153258D02*
X144506354Y-106099383D01*
X144506354Y-106099383D02*
X144479416Y-106018571D01*
X144479416Y-106018571D02*
X144371667Y-105910822D01*
X144371667Y-105910822D02*
X144290855Y-105883884D01*
X144290855Y-105883884D02*
X144236980Y-105883884D01*
X144236980Y-105883884D02*
X144156168Y-105910822D01*
X168501673Y-119688318D02*
X168420860Y-119715255D01*
X168420860Y-119715255D02*
X168340048Y-119796068D01*
X168340048Y-119796068D02*
X168286173Y-119903817D01*
X168286173Y-119903817D02*
X168286173Y-120011567D01*
X168286173Y-120011567D02*
X168313111Y-120092379D01*
X168313111Y-120092379D02*
X168393923Y-120227066D01*
X168393923Y-120227066D02*
X168474735Y-120307878D01*
X168474735Y-120307878D02*
X168609422Y-120388691D01*
X168609422Y-120388691D02*
X168690235Y-120415628D01*
X168690235Y-120415628D02*
X168797984Y-120415628D01*
X168797984Y-120415628D02*
X168905734Y-120361753D01*
X168905734Y-120361753D02*
X168959609Y-120307878D01*
X168959609Y-120307878D02*
X169013483Y-120200129D01*
X169013483Y-120200129D02*
X169013483Y-120146254D01*
X169013483Y-120146254D02*
X168824922Y-119957692D01*
X168824922Y-119957692D02*
X168717172Y-120065442D01*
X169309795Y-119957692D02*
X168744109Y-119392007D01*
X168744109Y-119392007D02*
X168959609Y-119176507D01*
X168959609Y-119176507D02*
X169040421Y-119149570D01*
X169040421Y-119149570D02*
X169094296Y-119149570D01*
X169094296Y-119149570D02*
X169175108Y-119176507D01*
X169175108Y-119176507D02*
X169255920Y-119257320D01*
X169255920Y-119257320D02*
X169282857Y-119338132D01*
X169282857Y-119338132D02*
X169282857Y-119392007D01*
X169282857Y-119392007D02*
X169255920Y-119472819D01*
X169255920Y-119472819D02*
X169040421Y-119688318D01*
X170171792Y-119095695D02*
X169848543Y-119418944D01*
X170010167Y-119257320D02*
X169444482Y-118691634D01*
X169444482Y-118691634D02*
X169471419Y-118826321D01*
X169471419Y-118826321D02*
X169471419Y-118934071D01*
X169471419Y-118934071D02*
X169444482Y-119014883D01*
X170441166Y-118826321D02*
X170548915Y-118718571D01*
X170548915Y-118718571D02*
X170575853Y-118637759D01*
X170575853Y-118637759D02*
X170575853Y-118583884D01*
X170575853Y-118583884D02*
X170548915Y-118449197D01*
X170548915Y-118449197D02*
X170468103Y-118314510D01*
X170468103Y-118314510D02*
X170252604Y-118099011D01*
X170252604Y-118099011D02*
X170171792Y-118072074D01*
X170171792Y-118072074D02*
X170117917Y-118072074D01*
X170117917Y-118072074D02*
X170037105Y-118099011D01*
X170037105Y-118099011D02*
X169929355Y-118206761D01*
X169929355Y-118206761D02*
X169902418Y-118287573D01*
X169902418Y-118287573D02*
X169902418Y-118341448D01*
X169902418Y-118341448D02*
X169929355Y-118422260D01*
X169929355Y-118422260D02*
X170064042Y-118556947D01*
X170064042Y-118556947D02*
X170144854Y-118583884D01*
X170144854Y-118583884D02*
X170198729Y-118583884D01*
X170198729Y-118583884D02*
X170279541Y-118556947D01*
X170279541Y-118556947D02*
X170387291Y-118449197D01*
X170387291Y-118449197D02*
X170414228Y-118368385D01*
X170414228Y-118368385D02*
X170414228Y-118314510D01*
X170414228Y-118314510D02*
X170387291Y-118233698D01*
X142917047Y-109258944D02*
X142836235Y-109285881D01*
X142836235Y-109285881D02*
X142755423Y-109366693D01*
X142755423Y-109366693D02*
X142701548Y-109474443D01*
X142701548Y-109474443D02*
X142701548Y-109582192D01*
X142701548Y-109582192D02*
X142728485Y-109663005D01*
X142728485Y-109663005D02*
X142809298Y-109797692D01*
X142809298Y-109797692D02*
X142890110Y-109878504D01*
X142890110Y-109878504D02*
X143024797Y-109959316D01*
X143024797Y-109959316D02*
X143105609Y-109986253D01*
X143105609Y-109986253D02*
X143213359Y-109986253D01*
X143213359Y-109986253D02*
X143321108Y-109932379D01*
X143321108Y-109932379D02*
X143374983Y-109878504D01*
X143374983Y-109878504D02*
X143428858Y-109770754D01*
X143428858Y-109770754D02*
X143428858Y-109716879D01*
X143428858Y-109716879D02*
X143240296Y-109528318D01*
X143240296Y-109528318D02*
X143132546Y-109636067D01*
X143725169Y-109528318D02*
X143159484Y-108962632D01*
X143159484Y-108962632D02*
X143374983Y-108747133D01*
X143374983Y-108747133D02*
X143455795Y-108720196D01*
X143455795Y-108720196D02*
X143509670Y-108720196D01*
X143509670Y-108720196D02*
X143590482Y-108747133D01*
X143590482Y-108747133D02*
X143671294Y-108827945D01*
X143671294Y-108827945D02*
X143698232Y-108908757D01*
X143698232Y-108908757D02*
X143698232Y-108962632D01*
X143698232Y-108962632D02*
X143671294Y-109043444D01*
X143671294Y-109043444D02*
X143455795Y-109258944D01*
X144317792Y-108935695D02*
X144425542Y-108827945D01*
X144425542Y-108827945D02*
X144452479Y-108747133D01*
X144452479Y-108747133D02*
X144452479Y-108693258D01*
X144452479Y-108693258D02*
X144425542Y-108558571D01*
X144425542Y-108558571D02*
X144344729Y-108423884D01*
X144344729Y-108423884D02*
X144129230Y-108208385D01*
X144129230Y-108208385D02*
X144048418Y-108181448D01*
X144048418Y-108181448D02*
X143994543Y-108181448D01*
X143994543Y-108181448D02*
X143913731Y-108208385D01*
X143913731Y-108208385D02*
X143805981Y-108316135D01*
X143805981Y-108316135D02*
X143779044Y-108396947D01*
X143779044Y-108396947D02*
X143779044Y-108450822D01*
X143779044Y-108450822D02*
X143805981Y-108531634D01*
X143805981Y-108531634D02*
X143940668Y-108666321D01*
X143940668Y-108666321D02*
X144021481Y-108693258D01*
X144021481Y-108693258D02*
X144075355Y-108693258D01*
X144075355Y-108693258D02*
X144156168Y-108666321D01*
X144156168Y-108666321D02*
X144263917Y-108558571D01*
X144263917Y-108558571D02*
X144290855Y-108477759D01*
X144290855Y-108477759D02*
X144290855Y-108423884D01*
X144290855Y-108423884D02*
X144263917Y-108343072D01*
X142917047Y-101638944D02*
X142836235Y-101665881D01*
X142836235Y-101665881D02*
X142755423Y-101746693D01*
X142755423Y-101746693D02*
X142701548Y-101854443D01*
X142701548Y-101854443D02*
X142701548Y-101962192D01*
X142701548Y-101962192D02*
X142728485Y-102043005D01*
X142728485Y-102043005D02*
X142809298Y-102177692D01*
X142809298Y-102177692D02*
X142890110Y-102258504D01*
X142890110Y-102258504D02*
X143024797Y-102339316D01*
X143024797Y-102339316D02*
X143105609Y-102366253D01*
X143105609Y-102366253D02*
X143213359Y-102366253D01*
X143213359Y-102366253D02*
X143321108Y-102312379D01*
X143321108Y-102312379D02*
X143374983Y-102258504D01*
X143374983Y-102258504D02*
X143428858Y-102150754D01*
X143428858Y-102150754D02*
X143428858Y-102096879D01*
X143428858Y-102096879D02*
X143240296Y-101908318D01*
X143240296Y-101908318D02*
X143132546Y-102016067D01*
X143725169Y-101908318D02*
X143159484Y-101342632D01*
X143159484Y-101342632D02*
X143374983Y-101127133D01*
X143374983Y-101127133D02*
X143455795Y-101100196D01*
X143455795Y-101100196D02*
X143509670Y-101100196D01*
X143509670Y-101100196D02*
X143590482Y-101127133D01*
X143590482Y-101127133D02*
X143671294Y-101207945D01*
X143671294Y-101207945D02*
X143698232Y-101288757D01*
X143698232Y-101288757D02*
X143698232Y-101342632D01*
X143698232Y-101342632D02*
X143671294Y-101423444D01*
X143671294Y-101423444D02*
X143455795Y-101638944D01*
X143967606Y-100534510D02*
X143859856Y-100642260D01*
X143859856Y-100642260D02*
X143832919Y-100723072D01*
X143832919Y-100723072D02*
X143832919Y-100776947D01*
X143832919Y-100776947D02*
X143859856Y-100911634D01*
X143859856Y-100911634D02*
X143940668Y-101046321D01*
X143940668Y-101046321D02*
X144156168Y-101261820D01*
X144156168Y-101261820D02*
X144236980Y-101288757D01*
X144236980Y-101288757D02*
X144290855Y-101288757D01*
X144290855Y-101288757D02*
X144371667Y-101261820D01*
X144371667Y-101261820D02*
X144479416Y-101154070D01*
X144479416Y-101154070D02*
X144506354Y-101073258D01*
X144506354Y-101073258D02*
X144506354Y-101019383D01*
X144506354Y-101019383D02*
X144479416Y-100938571D01*
X144479416Y-100938571D02*
X144344729Y-100803884D01*
X144344729Y-100803884D02*
X144263917Y-100776947D01*
X144263917Y-100776947D02*
X144210042Y-100776947D01*
X144210042Y-100776947D02*
X144129230Y-100803884D01*
X144129230Y-100803884D02*
X144021481Y-100911634D01*
X144021481Y-100911634D02*
X143994543Y-100992446D01*
X143994543Y-100992446D02*
X143994543Y-101046321D01*
X143994543Y-101046321D02*
X144021481Y-101127133D01*
X168324424Y-84397692D02*
X169078671Y-84774816D01*
X169078671Y-84774816D02*
X168701548Y-84020568D01*
X169401920Y-84397692D02*
X169509670Y-84343817D01*
X169509670Y-84343817D02*
X169644357Y-84209130D01*
X169644357Y-84209130D02*
X169671294Y-84128318D01*
X169671294Y-84128318D02*
X169671294Y-84074443D01*
X169671294Y-84074443D02*
X169644357Y-83993631D01*
X169644357Y-83993631D02*
X169590482Y-83939756D01*
X169590482Y-83939756D02*
X169509670Y-83912819D01*
X169509670Y-83912819D02*
X169455795Y-83912819D01*
X169455795Y-83912819D02*
X169374983Y-83939756D01*
X169374983Y-83939756D02*
X169240296Y-84020568D01*
X169240296Y-84020568D02*
X169159483Y-84047506D01*
X169159483Y-84047506D02*
X169105609Y-84047506D01*
X169105609Y-84047506D02*
X169024796Y-84020568D01*
X169024796Y-84020568D02*
X168970922Y-83966694D01*
X168970922Y-83966694D02*
X168943984Y-83885881D01*
X168943984Y-83885881D02*
X168943984Y-83832007D01*
X168943984Y-83832007D02*
X168970922Y-83751194D01*
X168970922Y-83751194D02*
X169105609Y-83616507D01*
X169105609Y-83616507D02*
X169213358Y-83562633D01*
X169832919Y-83481820D02*
X170102293Y-83751194D01*
X169348045Y-83374071D02*
X169832919Y-83481820D01*
X169832919Y-83481820D02*
X169725169Y-82996947D01*
X170425541Y-83374071D02*
X170533291Y-83320196D01*
X170533291Y-83320196D02*
X170667978Y-83185509D01*
X170667978Y-83185509D02*
X170694915Y-83104697D01*
X170694915Y-83104697D02*
X170694915Y-83050822D01*
X170694915Y-83050822D02*
X170667978Y-82970010D01*
X170667978Y-82970010D02*
X170614103Y-82916135D01*
X170614103Y-82916135D02*
X170533291Y-82889198D01*
X170533291Y-82889198D02*
X170479416Y-82889198D01*
X170479416Y-82889198D02*
X170398604Y-82916135D01*
X170398604Y-82916135D02*
X170263917Y-82996947D01*
X170263917Y-82996947D02*
X170183105Y-83023885D01*
X170183105Y-83023885D02*
X170129230Y-83023885D01*
X170129230Y-83023885D02*
X170048418Y-82996947D01*
X170048418Y-82996947D02*
X169994543Y-82943072D01*
X169994543Y-82943072D02*
X169967605Y-82862260D01*
X169967605Y-82862260D02*
X169967605Y-82808385D01*
X169967605Y-82808385D02*
X169994543Y-82727573D01*
X169994543Y-82727573D02*
X170129230Y-82592886D01*
X170129230Y-82592886D02*
X170236979Y-82539011D01*
X142917047Y-94018944D02*
X142836235Y-94045881D01*
X142836235Y-94045881D02*
X142755423Y-94126693D01*
X142755423Y-94126693D02*
X142701548Y-94234443D01*
X142701548Y-94234443D02*
X142701548Y-94342192D01*
X142701548Y-94342192D02*
X142728485Y-94423005D01*
X142728485Y-94423005D02*
X142809298Y-94557692D01*
X142809298Y-94557692D02*
X142890110Y-94638504D01*
X142890110Y-94638504D02*
X143024797Y-94719316D01*
X143024797Y-94719316D02*
X143105609Y-94746253D01*
X143105609Y-94746253D02*
X143213359Y-94746253D01*
X143213359Y-94746253D02*
X143321108Y-94692379D01*
X143321108Y-94692379D02*
X143374983Y-94638504D01*
X143374983Y-94638504D02*
X143428858Y-94530754D01*
X143428858Y-94530754D02*
X143428858Y-94476879D01*
X143428858Y-94476879D02*
X143240296Y-94288318D01*
X143240296Y-94288318D02*
X143132546Y-94396067D01*
X143725169Y-94288318D02*
X143159484Y-93722632D01*
X143159484Y-93722632D02*
X143374983Y-93507133D01*
X143374983Y-93507133D02*
X143455795Y-93480196D01*
X143455795Y-93480196D02*
X143509670Y-93480196D01*
X143509670Y-93480196D02*
X143590482Y-93507133D01*
X143590482Y-93507133D02*
X143671294Y-93587945D01*
X143671294Y-93587945D02*
X143698232Y-93668757D01*
X143698232Y-93668757D02*
X143698232Y-93722632D01*
X143698232Y-93722632D02*
X143671294Y-93803444D01*
X143671294Y-93803444D02*
X143455795Y-94018944D01*
X144156168Y-93103072D02*
X144533291Y-93480196D01*
X143805981Y-93022260D02*
X144075355Y-93561008D01*
X144075355Y-93561008D02*
X144425542Y-93210822D01*
X168501673Y-101918318D02*
X168420860Y-101945255D01*
X168420860Y-101945255D02*
X168340048Y-102026068D01*
X168340048Y-102026068D02*
X168286173Y-102133817D01*
X168286173Y-102133817D02*
X168286173Y-102241567D01*
X168286173Y-102241567D02*
X168313111Y-102322379D01*
X168313111Y-102322379D02*
X168393923Y-102457066D01*
X168393923Y-102457066D02*
X168474735Y-102537878D01*
X168474735Y-102537878D02*
X168609422Y-102618691D01*
X168609422Y-102618691D02*
X168690235Y-102645628D01*
X168690235Y-102645628D02*
X168797984Y-102645628D01*
X168797984Y-102645628D02*
X168905734Y-102591753D01*
X168905734Y-102591753D02*
X168959609Y-102537878D01*
X168959609Y-102537878D02*
X169013483Y-102430129D01*
X169013483Y-102430129D02*
X169013483Y-102376254D01*
X169013483Y-102376254D02*
X168824922Y-102187692D01*
X168824922Y-102187692D02*
X168717172Y-102295442D01*
X169309795Y-102187692D02*
X168744109Y-101622007D01*
X168744109Y-101622007D02*
X168959609Y-101406507D01*
X168959609Y-101406507D02*
X169040421Y-101379570D01*
X169040421Y-101379570D02*
X169094296Y-101379570D01*
X169094296Y-101379570D02*
X169175108Y-101406507D01*
X169175108Y-101406507D02*
X169255920Y-101487320D01*
X169255920Y-101487320D02*
X169282857Y-101568132D01*
X169282857Y-101568132D02*
X169282857Y-101622007D01*
X169282857Y-101622007D02*
X169255920Y-101702819D01*
X169255920Y-101702819D02*
X169040421Y-101918318D01*
X169336732Y-101137133D02*
X169336732Y-101083259D01*
X169336732Y-101083259D02*
X169363670Y-101002446D01*
X169363670Y-101002446D02*
X169498357Y-100867759D01*
X169498357Y-100867759D02*
X169579169Y-100840822D01*
X169579169Y-100840822D02*
X169633044Y-100840822D01*
X169633044Y-100840822D02*
X169713856Y-100867759D01*
X169713856Y-100867759D02*
X169767731Y-100921634D01*
X169767731Y-100921634D02*
X169821605Y-101029384D01*
X169821605Y-101029384D02*
X169821605Y-101675881D01*
X169821605Y-101675881D02*
X170171792Y-101325695D01*
X169794668Y-100571448D02*
X170171792Y-100194324D01*
X170171792Y-100194324D02*
X170495041Y-101002446D01*
X142393673Y-114608318D02*
X142312860Y-114635255D01*
X142312860Y-114635255D02*
X142232048Y-114716068D01*
X142232048Y-114716068D02*
X142178173Y-114823817D01*
X142178173Y-114823817D02*
X142178173Y-114931567D01*
X142178173Y-114931567D02*
X142205111Y-115012379D01*
X142205111Y-115012379D02*
X142285923Y-115147066D01*
X142285923Y-115147066D02*
X142366735Y-115227878D01*
X142366735Y-115227878D02*
X142501422Y-115308691D01*
X142501422Y-115308691D02*
X142582235Y-115335628D01*
X142582235Y-115335628D02*
X142689984Y-115335628D01*
X142689984Y-115335628D02*
X142797734Y-115281753D01*
X142797734Y-115281753D02*
X142851609Y-115227878D01*
X142851609Y-115227878D02*
X142905483Y-115120129D01*
X142905483Y-115120129D02*
X142905483Y-115066254D01*
X142905483Y-115066254D02*
X142716922Y-114877692D01*
X142716922Y-114877692D02*
X142609172Y-114985442D01*
X143201795Y-114877692D02*
X142636109Y-114312007D01*
X142636109Y-114312007D02*
X142851609Y-114096507D01*
X142851609Y-114096507D02*
X142932421Y-114069570D01*
X142932421Y-114069570D02*
X142986296Y-114069570D01*
X142986296Y-114069570D02*
X143067108Y-114096507D01*
X143067108Y-114096507D02*
X143147920Y-114177320D01*
X143147920Y-114177320D02*
X143174857Y-114258132D01*
X143174857Y-114258132D02*
X143174857Y-114312007D01*
X143174857Y-114312007D02*
X143147920Y-114392819D01*
X143147920Y-114392819D02*
X142932421Y-114608318D01*
X144063792Y-114015695D02*
X143740543Y-114338944D01*
X143902167Y-114177320D02*
X143336482Y-113611634D01*
X143336482Y-113611634D02*
X143363419Y-113746321D01*
X143363419Y-113746321D02*
X143363419Y-113854071D01*
X143363419Y-113854071D02*
X143336482Y-113934883D01*
X143848293Y-113099823D02*
X143902167Y-113045949D01*
X143902167Y-113045949D02*
X143982980Y-113019011D01*
X143982980Y-113019011D02*
X144036854Y-113019011D01*
X144036854Y-113019011D02*
X144117667Y-113045949D01*
X144117667Y-113045949D02*
X144252354Y-113126761D01*
X144252354Y-113126761D02*
X144387041Y-113261448D01*
X144387041Y-113261448D02*
X144467853Y-113396135D01*
X144467853Y-113396135D02*
X144494790Y-113476947D01*
X144494790Y-113476947D02*
X144494790Y-113530822D01*
X144494790Y-113530822D02*
X144467853Y-113611634D01*
X144467853Y-113611634D02*
X144413978Y-113665509D01*
X144413978Y-113665509D02*
X144333166Y-113692446D01*
X144333166Y-113692446D02*
X144279291Y-113692446D01*
X144279291Y-113692446D02*
X144198479Y-113665509D01*
X144198479Y-113665509D02*
X144063792Y-113584697D01*
X144063792Y-113584697D02*
X143929105Y-113450010D01*
X143929105Y-113450010D02*
X143848293Y-113315323D01*
X143848293Y-113315323D02*
X143821355Y-113234510D01*
X143821355Y-113234510D02*
X143821355Y-113180636D01*
X143821355Y-113180636D02*
X143848293Y-113099823D01*
X142890110Y-124525881D02*
X142809298Y-124552818D01*
X142809298Y-124552818D02*
X142728486Y-124633630D01*
X142728486Y-124633630D02*
X142674611Y-124741380D01*
X142674611Y-124741380D02*
X142674611Y-124849130D01*
X142674611Y-124849130D02*
X142701548Y-124929942D01*
X142701548Y-124929942D02*
X142782360Y-125064629D01*
X142782360Y-125064629D02*
X142863173Y-125145441D01*
X142863173Y-125145441D02*
X142997860Y-125226253D01*
X142997860Y-125226253D02*
X143078672Y-125253191D01*
X143078672Y-125253191D02*
X143186421Y-125253191D01*
X143186421Y-125253191D02*
X143294171Y-125199316D01*
X143294171Y-125199316D02*
X143348046Y-125145441D01*
X143348046Y-125145441D02*
X143401921Y-125037691D01*
X143401921Y-125037691D02*
X143401921Y-124983817D01*
X143401921Y-124983817D02*
X143213359Y-124795255D01*
X143213359Y-124795255D02*
X143105609Y-124903004D01*
X143698232Y-124795255D02*
X143132547Y-124229569D01*
X143132547Y-124229569D02*
X144021481Y-124472006D01*
X144021481Y-124472006D02*
X143455795Y-123906321D01*
X144290855Y-124202632D02*
X143725169Y-123636947D01*
X143725169Y-123636947D02*
X143859856Y-123502260D01*
X143859856Y-123502260D02*
X143967606Y-123448385D01*
X143967606Y-123448385D02*
X144075355Y-123448385D01*
X144075355Y-123448385D02*
X144156168Y-123475322D01*
X144156168Y-123475322D02*
X144290855Y-123556135D01*
X144290855Y-123556135D02*
X144371667Y-123636947D01*
X144371667Y-123636947D02*
X144452479Y-123771634D01*
X144452479Y-123771634D02*
X144479416Y-123852446D01*
X144479416Y-123852446D02*
X144479416Y-123960196D01*
X144479416Y-123960196D02*
X144425542Y-124067945D01*
X144425542Y-124067945D02*
X144290855Y-124202632D01*
X168501673Y-104448318D02*
X168420860Y-104475255D01*
X168420860Y-104475255D02*
X168340048Y-104556068D01*
X168340048Y-104556068D02*
X168286173Y-104663817D01*
X168286173Y-104663817D02*
X168286173Y-104771567D01*
X168286173Y-104771567D02*
X168313111Y-104852379D01*
X168313111Y-104852379D02*
X168393923Y-104987066D01*
X168393923Y-104987066D02*
X168474735Y-105067878D01*
X168474735Y-105067878D02*
X168609422Y-105148691D01*
X168609422Y-105148691D02*
X168690235Y-105175628D01*
X168690235Y-105175628D02*
X168797984Y-105175628D01*
X168797984Y-105175628D02*
X168905734Y-105121753D01*
X168905734Y-105121753D02*
X168959609Y-105067878D01*
X168959609Y-105067878D02*
X169013483Y-104960129D01*
X169013483Y-104960129D02*
X169013483Y-104906254D01*
X169013483Y-104906254D02*
X168824922Y-104717692D01*
X168824922Y-104717692D02*
X168717172Y-104825442D01*
X169309795Y-104717692D02*
X168744109Y-104152007D01*
X168744109Y-104152007D02*
X168959609Y-103936507D01*
X168959609Y-103936507D02*
X169040421Y-103909570D01*
X169040421Y-103909570D02*
X169094296Y-103909570D01*
X169094296Y-103909570D02*
X169175108Y-103936507D01*
X169175108Y-103936507D02*
X169255920Y-104017320D01*
X169255920Y-104017320D02*
X169282857Y-104098132D01*
X169282857Y-104098132D02*
X169282857Y-104152007D01*
X169282857Y-104152007D02*
X169255920Y-104232819D01*
X169255920Y-104232819D02*
X169040421Y-104448318D01*
X169336732Y-103667133D02*
X169336732Y-103613259D01*
X169336732Y-103613259D02*
X169363670Y-103532446D01*
X169363670Y-103532446D02*
X169498357Y-103397759D01*
X169498357Y-103397759D02*
X169579169Y-103370822D01*
X169579169Y-103370822D02*
X169633044Y-103370822D01*
X169633044Y-103370822D02*
X169713856Y-103397759D01*
X169713856Y-103397759D02*
X169767731Y-103451634D01*
X169767731Y-103451634D02*
X169821605Y-103559384D01*
X169821605Y-103559384D02*
X169821605Y-104205881D01*
X169821605Y-104205881D02*
X170171792Y-103855695D01*
X170090980Y-102805136D02*
X169983230Y-102912886D01*
X169983230Y-102912886D02*
X169956293Y-102993698D01*
X169956293Y-102993698D02*
X169956293Y-103047573D01*
X169956293Y-103047573D02*
X169983230Y-103182260D01*
X169983230Y-103182260D02*
X170064042Y-103316947D01*
X170064042Y-103316947D02*
X170279541Y-103532446D01*
X170279541Y-103532446D02*
X170360354Y-103559384D01*
X170360354Y-103559384D02*
X170414228Y-103559384D01*
X170414228Y-103559384D02*
X170495041Y-103532446D01*
X170495041Y-103532446D02*
X170602790Y-103424697D01*
X170602790Y-103424697D02*
X170629728Y-103343884D01*
X170629728Y-103343884D02*
X170629728Y-103290010D01*
X170629728Y-103290010D02*
X170602790Y-103209197D01*
X170602790Y-103209197D02*
X170468103Y-103074510D01*
X170468103Y-103074510D02*
X170387291Y-103047573D01*
X170387291Y-103047573D02*
X170333416Y-103047573D01*
X170333416Y-103047573D02*
X170252604Y-103074510D01*
X170252604Y-103074510D02*
X170144854Y-103182260D01*
X170144854Y-103182260D02*
X170117917Y-103263072D01*
X170117917Y-103263072D02*
X170117917Y-103316947D01*
X170117917Y-103316947D02*
X170144854Y-103397759D01*
X142817047Y-88938944D02*
X142736235Y-88965881D01*
X142736235Y-88965881D02*
X142655423Y-89046693D01*
X142655423Y-89046693D02*
X142601548Y-89154443D01*
X142601548Y-89154443D02*
X142601548Y-89262192D01*
X142601548Y-89262192D02*
X142628485Y-89343005D01*
X142628485Y-89343005D02*
X142709298Y-89477692D01*
X142709298Y-89477692D02*
X142790110Y-89558504D01*
X142790110Y-89558504D02*
X142924797Y-89639316D01*
X142924797Y-89639316D02*
X143005609Y-89666253D01*
X143005609Y-89666253D02*
X143113359Y-89666253D01*
X143113359Y-89666253D02*
X143221108Y-89612379D01*
X143221108Y-89612379D02*
X143274983Y-89558504D01*
X143274983Y-89558504D02*
X143328858Y-89450754D01*
X143328858Y-89450754D02*
X143328858Y-89396879D01*
X143328858Y-89396879D02*
X143140296Y-89208318D01*
X143140296Y-89208318D02*
X143032546Y-89316067D01*
X143625169Y-89208318D02*
X143059484Y-88642632D01*
X143059484Y-88642632D02*
X143274983Y-88427133D01*
X143274983Y-88427133D02*
X143355795Y-88400196D01*
X143355795Y-88400196D02*
X143409670Y-88400196D01*
X143409670Y-88400196D02*
X143490482Y-88427133D01*
X143490482Y-88427133D02*
X143571294Y-88507945D01*
X143571294Y-88507945D02*
X143598232Y-88588757D01*
X143598232Y-88588757D02*
X143598232Y-88642632D01*
X143598232Y-88642632D02*
X143571294Y-88723444D01*
X143571294Y-88723444D02*
X143355795Y-88938944D01*
X143652107Y-88157759D02*
X143652107Y-88103884D01*
X143652107Y-88103884D02*
X143679044Y-88023072D01*
X143679044Y-88023072D02*
X143813731Y-87888385D01*
X143813731Y-87888385D02*
X143894543Y-87861448D01*
X143894543Y-87861448D02*
X143948418Y-87861448D01*
X143948418Y-87861448D02*
X144029230Y-87888385D01*
X144029230Y-87888385D02*
X144083105Y-87942260D01*
X144083105Y-87942260D02*
X144136980Y-88050009D01*
X144136980Y-88050009D02*
X144136980Y-88696507D01*
X144136980Y-88696507D02*
X144487166Y-88346321D01*
X168501673Y-109528318D02*
X168420860Y-109555255D01*
X168420860Y-109555255D02*
X168340048Y-109636068D01*
X168340048Y-109636068D02*
X168286173Y-109743817D01*
X168286173Y-109743817D02*
X168286173Y-109851567D01*
X168286173Y-109851567D02*
X168313111Y-109932379D01*
X168313111Y-109932379D02*
X168393923Y-110067066D01*
X168393923Y-110067066D02*
X168474735Y-110147878D01*
X168474735Y-110147878D02*
X168609422Y-110228691D01*
X168609422Y-110228691D02*
X168690235Y-110255628D01*
X168690235Y-110255628D02*
X168797984Y-110255628D01*
X168797984Y-110255628D02*
X168905734Y-110201753D01*
X168905734Y-110201753D02*
X168959609Y-110147878D01*
X168959609Y-110147878D02*
X169013483Y-110040129D01*
X169013483Y-110040129D02*
X169013483Y-109986254D01*
X169013483Y-109986254D02*
X168824922Y-109797692D01*
X168824922Y-109797692D02*
X168717172Y-109905442D01*
X169309795Y-109797692D02*
X168744109Y-109232007D01*
X168744109Y-109232007D02*
X168959609Y-109016507D01*
X168959609Y-109016507D02*
X169040421Y-108989570D01*
X169040421Y-108989570D02*
X169094296Y-108989570D01*
X169094296Y-108989570D02*
X169175108Y-109016507D01*
X169175108Y-109016507D02*
X169255920Y-109097320D01*
X169255920Y-109097320D02*
X169282857Y-109178132D01*
X169282857Y-109178132D02*
X169282857Y-109232007D01*
X169282857Y-109232007D02*
X169255920Y-109312819D01*
X169255920Y-109312819D02*
X169040421Y-109528318D01*
X169336732Y-108747133D02*
X169336732Y-108693259D01*
X169336732Y-108693259D02*
X169363670Y-108612446D01*
X169363670Y-108612446D02*
X169498357Y-108477759D01*
X169498357Y-108477759D02*
X169579169Y-108450822D01*
X169579169Y-108450822D02*
X169633044Y-108450822D01*
X169633044Y-108450822D02*
X169713856Y-108477759D01*
X169713856Y-108477759D02*
X169767731Y-108531634D01*
X169767731Y-108531634D02*
X169821605Y-108639384D01*
X169821605Y-108639384D02*
X169821605Y-109285881D01*
X169821605Y-109285881D02*
X170171792Y-108935695D01*
X169875480Y-108208385D02*
X169875480Y-108154510D01*
X169875480Y-108154510D02*
X169902418Y-108073698D01*
X169902418Y-108073698D02*
X170037105Y-107939011D01*
X170037105Y-107939011D02*
X170117917Y-107912074D01*
X170117917Y-107912074D02*
X170171792Y-107912074D01*
X170171792Y-107912074D02*
X170252604Y-107939011D01*
X170252604Y-107939011D02*
X170306479Y-107992886D01*
X170306479Y-107992886D02*
X170360354Y-108100636D01*
X170360354Y-108100636D02*
X170360354Y-108747133D01*
X170360354Y-108747133D02*
X170710540Y-108396947D01*
X142890110Y-111825881D02*
X142809298Y-111852818D01*
X142809298Y-111852818D02*
X142728486Y-111933630D01*
X142728486Y-111933630D02*
X142674611Y-112041380D01*
X142674611Y-112041380D02*
X142674611Y-112149130D01*
X142674611Y-112149130D02*
X142701548Y-112229942D01*
X142701548Y-112229942D02*
X142782360Y-112364629D01*
X142782360Y-112364629D02*
X142863173Y-112445441D01*
X142863173Y-112445441D02*
X142997860Y-112526253D01*
X142997860Y-112526253D02*
X143078672Y-112553191D01*
X143078672Y-112553191D02*
X143186421Y-112553191D01*
X143186421Y-112553191D02*
X143294171Y-112499316D01*
X143294171Y-112499316D02*
X143348046Y-112445441D01*
X143348046Y-112445441D02*
X143401921Y-112337691D01*
X143401921Y-112337691D02*
X143401921Y-112283817D01*
X143401921Y-112283817D02*
X143213359Y-112095255D01*
X143213359Y-112095255D02*
X143105609Y-112203004D01*
X143698232Y-112095255D02*
X143132547Y-111529569D01*
X143132547Y-111529569D02*
X144021481Y-111772006D01*
X144021481Y-111772006D02*
X143455795Y-111206321D01*
X144290855Y-111502632D02*
X143725169Y-110936947D01*
X143725169Y-110936947D02*
X143859856Y-110802260D01*
X143859856Y-110802260D02*
X143967606Y-110748385D01*
X143967606Y-110748385D02*
X144075355Y-110748385D01*
X144075355Y-110748385D02*
X144156168Y-110775322D01*
X144156168Y-110775322D02*
X144290855Y-110856135D01*
X144290855Y-110856135D02*
X144371667Y-110936947D01*
X144371667Y-110936947D02*
X144452479Y-111071634D01*
X144452479Y-111071634D02*
X144479416Y-111152446D01*
X144479416Y-111152446D02*
X144479416Y-111260196D01*
X144479416Y-111260196D02*
X144425542Y-111367945D01*
X144425542Y-111367945D02*
X144290855Y-111502632D01*
X168501673Y-127308318D02*
X168420860Y-127335255D01*
X168420860Y-127335255D02*
X168340048Y-127416068D01*
X168340048Y-127416068D02*
X168286173Y-127523817D01*
X168286173Y-127523817D02*
X168286173Y-127631567D01*
X168286173Y-127631567D02*
X168313111Y-127712379D01*
X168313111Y-127712379D02*
X168393923Y-127847066D01*
X168393923Y-127847066D02*
X168474735Y-127927878D01*
X168474735Y-127927878D02*
X168609422Y-128008691D01*
X168609422Y-128008691D02*
X168690235Y-128035628D01*
X168690235Y-128035628D02*
X168797984Y-128035628D01*
X168797984Y-128035628D02*
X168905734Y-127981753D01*
X168905734Y-127981753D02*
X168959609Y-127927878D01*
X168959609Y-127927878D02*
X169013483Y-127820129D01*
X169013483Y-127820129D02*
X169013483Y-127766254D01*
X169013483Y-127766254D02*
X168824922Y-127577692D01*
X168824922Y-127577692D02*
X168717172Y-127685442D01*
X169309795Y-127577692D02*
X168744109Y-127012007D01*
X168744109Y-127012007D02*
X168959609Y-126796507D01*
X168959609Y-126796507D02*
X169040421Y-126769570D01*
X169040421Y-126769570D02*
X169094296Y-126769570D01*
X169094296Y-126769570D02*
X169175108Y-126796507D01*
X169175108Y-126796507D02*
X169255920Y-126877320D01*
X169255920Y-126877320D02*
X169282857Y-126958132D01*
X169282857Y-126958132D02*
X169282857Y-127012007D01*
X169282857Y-127012007D02*
X169255920Y-127092819D01*
X169255920Y-127092819D02*
X169040421Y-127308318D01*
X170171792Y-126715695D02*
X169848543Y-127038944D01*
X170010167Y-126877320D02*
X169444482Y-126311634D01*
X169444482Y-126311634D02*
X169471419Y-126446321D01*
X169471419Y-126446321D02*
X169471419Y-126554071D01*
X169471419Y-126554071D02*
X169444482Y-126634883D01*
X169794668Y-125961448D02*
X170171792Y-125584324D01*
X170171792Y-125584324D02*
X170495041Y-126392446D01*
X142817047Y-83848944D02*
X142736235Y-83875881D01*
X142736235Y-83875881D02*
X142655423Y-83956693D01*
X142655423Y-83956693D02*
X142601548Y-84064443D01*
X142601548Y-84064443D02*
X142601548Y-84172192D01*
X142601548Y-84172192D02*
X142628485Y-84253005D01*
X142628485Y-84253005D02*
X142709298Y-84387692D01*
X142709298Y-84387692D02*
X142790110Y-84468504D01*
X142790110Y-84468504D02*
X142924797Y-84549316D01*
X142924797Y-84549316D02*
X143005609Y-84576253D01*
X143005609Y-84576253D02*
X143113359Y-84576253D01*
X143113359Y-84576253D02*
X143221108Y-84522379D01*
X143221108Y-84522379D02*
X143274983Y-84468504D01*
X143274983Y-84468504D02*
X143328858Y-84360754D01*
X143328858Y-84360754D02*
X143328858Y-84306879D01*
X143328858Y-84306879D02*
X143140296Y-84118318D01*
X143140296Y-84118318D02*
X143032546Y-84226067D01*
X143625169Y-84118318D02*
X143059484Y-83552632D01*
X143059484Y-83552632D02*
X143274983Y-83337133D01*
X143274983Y-83337133D02*
X143355795Y-83310196D01*
X143355795Y-83310196D02*
X143409670Y-83310196D01*
X143409670Y-83310196D02*
X143490482Y-83337133D01*
X143490482Y-83337133D02*
X143571294Y-83417945D01*
X143571294Y-83417945D02*
X143598232Y-83498757D01*
X143598232Y-83498757D02*
X143598232Y-83552632D01*
X143598232Y-83552632D02*
X143571294Y-83633444D01*
X143571294Y-83633444D02*
X143355795Y-83848944D01*
X144487166Y-83256321D02*
X144163917Y-83579570D01*
X144325542Y-83417945D02*
X143759856Y-82852260D01*
X143759856Y-82852260D02*
X143786794Y-82986947D01*
X143786794Y-82986947D02*
X143786794Y-83094696D01*
X143786794Y-83094696D02*
X143759856Y-83175509D01*
X143017047Y-104148944D02*
X142936235Y-104175881D01*
X142936235Y-104175881D02*
X142855423Y-104256693D01*
X142855423Y-104256693D02*
X142801548Y-104364443D01*
X142801548Y-104364443D02*
X142801548Y-104472192D01*
X142801548Y-104472192D02*
X142828485Y-104553005D01*
X142828485Y-104553005D02*
X142909298Y-104687692D01*
X142909298Y-104687692D02*
X142990110Y-104768504D01*
X142990110Y-104768504D02*
X143124797Y-104849316D01*
X143124797Y-104849316D02*
X143205609Y-104876253D01*
X143205609Y-104876253D02*
X143313359Y-104876253D01*
X143313359Y-104876253D02*
X143421108Y-104822379D01*
X143421108Y-104822379D02*
X143474983Y-104768504D01*
X143474983Y-104768504D02*
X143528858Y-104660754D01*
X143528858Y-104660754D02*
X143528858Y-104606879D01*
X143528858Y-104606879D02*
X143340296Y-104418318D01*
X143340296Y-104418318D02*
X143232546Y-104526067D01*
X143825169Y-104418318D02*
X143259484Y-103852632D01*
X143259484Y-103852632D02*
X143474983Y-103637133D01*
X143474983Y-103637133D02*
X143555795Y-103610196D01*
X143555795Y-103610196D02*
X143609670Y-103610196D01*
X143609670Y-103610196D02*
X143690482Y-103637133D01*
X143690482Y-103637133D02*
X143771294Y-103717945D01*
X143771294Y-103717945D02*
X143798232Y-103798757D01*
X143798232Y-103798757D02*
X143798232Y-103852632D01*
X143798232Y-103852632D02*
X143771294Y-103933444D01*
X143771294Y-103933444D02*
X143555795Y-104148944D01*
X143771294Y-103340822D02*
X144148418Y-102963698D01*
X144148418Y-102963698D02*
X144471667Y-103771820D01*
X168501673Y-96574318D02*
X168420860Y-96601255D01*
X168420860Y-96601255D02*
X168340048Y-96682068D01*
X168340048Y-96682068D02*
X168286173Y-96789817D01*
X168286173Y-96789817D02*
X168286173Y-96897567D01*
X168286173Y-96897567D02*
X168313111Y-96978379D01*
X168313111Y-96978379D02*
X168393923Y-97113066D01*
X168393923Y-97113066D02*
X168474735Y-97193878D01*
X168474735Y-97193878D02*
X168609422Y-97274691D01*
X168609422Y-97274691D02*
X168690235Y-97301628D01*
X168690235Y-97301628D02*
X168797984Y-97301628D01*
X168797984Y-97301628D02*
X168905734Y-97247753D01*
X168905734Y-97247753D02*
X168959609Y-97193878D01*
X168959609Y-97193878D02*
X169013483Y-97086129D01*
X169013483Y-97086129D02*
X169013483Y-97032254D01*
X169013483Y-97032254D02*
X168824922Y-96843692D01*
X168824922Y-96843692D02*
X168717172Y-96951442D01*
X169309795Y-96843692D02*
X168744109Y-96278007D01*
X168744109Y-96278007D02*
X168959609Y-96062507D01*
X168959609Y-96062507D02*
X169040421Y-96035570D01*
X169040421Y-96035570D02*
X169094296Y-96035570D01*
X169094296Y-96035570D02*
X169175108Y-96062507D01*
X169175108Y-96062507D02*
X169255920Y-96143320D01*
X169255920Y-96143320D02*
X169282857Y-96224132D01*
X169282857Y-96224132D02*
X169282857Y-96278007D01*
X169282857Y-96278007D02*
X169255920Y-96358819D01*
X169255920Y-96358819D02*
X169040421Y-96574318D01*
X169336732Y-95793133D02*
X169336732Y-95739259D01*
X169336732Y-95739259D02*
X169363670Y-95658446D01*
X169363670Y-95658446D02*
X169498357Y-95523759D01*
X169498357Y-95523759D02*
X169579169Y-95496822D01*
X169579169Y-95496822D02*
X169633044Y-95496822D01*
X169633044Y-95496822D02*
X169713856Y-95523759D01*
X169713856Y-95523759D02*
X169767731Y-95577634D01*
X169767731Y-95577634D02*
X169821605Y-95685384D01*
X169821605Y-95685384D02*
X169821605Y-96331881D01*
X169821605Y-96331881D02*
X170171792Y-95981695D01*
X170171792Y-95335197D02*
X170090980Y-95362135D01*
X170090980Y-95362135D02*
X170037105Y-95362135D01*
X170037105Y-95362135D02*
X169956293Y-95335197D01*
X169956293Y-95335197D02*
X169929355Y-95308260D01*
X169929355Y-95308260D02*
X169902418Y-95227448D01*
X169902418Y-95227448D02*
X169902418Y-95173573D01*
X169902418Y-95173573D02*
X169929355Y-95092761D01*
X169929355Y-95092761D02*
X170037105Y-94985011D01*
X170037105Y-94985011D02*
X170117917Y-94958074D01*
X170117917Y-94958074D02*
X170171792Y-94958074D01*
X170171792Y-94958074D02*
X170252604Y-94985011D01*
X170252604Y-94985011D02*
X170279541Y-95011949D01*
X170279541Y-95011949D02*
X170306479Y-95092761D01*
X170306479Y-95092761D02*
X170306479Y-95146636D01*
X170306479Y-95146636D02*
X170279541Y-95227448D01*
X170279541Y-95227448D02*
X170171792Y-95335197D01*
X170171792Y-95335197D02*
X170144854Y-95416010D01*
X170144854Y-95416010D02*
X170144854Y-95469884D01*
X170144854Y-95469884D02*
X170171792Y-95550697D01*
X170171792Y-95550697D02*
X170279541Y-95658446D01*
X170279541Y-95658446D02*
X170360354Y-95685384D01*
X170360354Y-95685384D02*
X170414228Y-95685384D01*
X170414228Y-95685384D02*
X170495041Y-95658446D01*
X170495041Y-95658446D02*
X170602790Y-95550697D01*
X170602790Y-95550697D02*
X170629728Y-95469884D01*
X170629728Y-95469884D02*
X170629728Y-95416010D01*
X170629728Y-95416010D02*
X170602790Y-95335197D01*
X170602790Y-95335197D02*
X170495041Y-95227448D01*
X170495041Y-95227448D02*
X170414228Y-95200510D01*
X170414228Y-95200510D02*
X170360354Y-95200510D01*
X170360354Y-95200510D02*
X170279541Y-95227448D01*
X142393673Y-129848318D02*
X142312860Y-129875255D01*
X142312860Y-129875255D02*
X142232048Y-129956068D01*
X142232048Y-129956068D02*
X142178173Y-130063817D01*
X142178173Y-130063817D02*
X142178173Y-130171567D01*
X142178173Y-130171567D02*
X142205111Y-130252379D01*
X142205111Y-130252379D02*
X142285923Y-130387066D01*
X142285923Y-130387066D02*
X142366735Y-130467878D01*
X142366735Y-130467878D02*
X142501422Y-130548691D01*
X142501422Y-130548691D02*
X142582235Y-130575628D01*
X142582235Y-130575628D02*
X142689984Y-130575628D01*
X142689984Y-130575628D02*
X142797734Y-130521753D01*
X142797734Y-130521753D02*
X142851609Y-130467878D01*
X142851609Y-130467878D02*
X142905483Y-130360129D01*
X142905483Y-130360129D02*
X142905483Y-130306254D01*
X142905483Y-130306254D02*
X142716922Y-130117692D01*
X142716922Y-130117692D02*
X142609172Y-130225442D01*
X143201795Y-130117692D02*
X142636109Y-129552007D01*
X142636109Y-129552007D02*
X142851609Y-129336507D01*
X142851609Y-129336507D02*
X142932421Y-129309570D01*
X142932421Y-129309570D02*
X142986296Y-129309570D01*
X142986296Y-129309570D02*
X143067108Y-129336507D01*
X143067108Y-129336507D02*
X143147920Y-129417320D01*
X143147920Y-129417320D02*
X143174857Y-129498132D01*
X143174857Y-129498132D02*
X143174857Y-129552007D01*
X143174857Y-129552007D02*
X143147920Y-129632819D01*
X143147920Y-129632819D02*
X142932421Y-129848318D01*
X144063792Y-129255695D02*
X143740543Y-129578944D01*
X143902167Y-129417320D02*
X143336482Y-128851634D01*
X143336482Y-128851634D02*
X143363419Y-128986321D01*
X143363419Y-128986321D02*
X143363419Y-129094071D01*
X143363419Y-129094071D02*
X143336482Y-129174883D01*
X144009917Y-128178199D02*
X143740543Y-128447573D01*
X143740543Y-128447573D02*
X143982980Y-128743884D01*
X143982980Y-128743884D02*
X143982980Y-128690010D01*
X143982980Y-128690010D02*
X144009917Y-128609197D01*
X144009917Y-128609197D02*
X144144604Y-128474510D01*
X144144604Y-128474510D02*
X144225416Y-128447573D01*
X144225416Y-128447573D02*
X144279291Y-128447573D01*
X144279291Y-128447573D02*
X144360103Y-128474510D01*
X144360103Y-128474510D02*
X144494790Y-128609197D01*
X144494790Y-128609197D02*
X144521728Y-128690010D01*
X144521728Y-128690010D02*
X144521728Y-128743884D01*
X144521728Y-128743884D02*
X144494790Y-128824697D01*
X144494790Y-128824697D02*
X144360103Y-128959384D01*
X144360103Y-128959384D02*
X144279291Y-128986321D01*
X144279291Y-128986321D02*
X144225416Y-128986321D01*
X168490110Y-86425881D02*
X168409298Y-86452818D01*
X168409298Y-86452818D02*
X168328486Y-86533630D01*
X168328486Y-86533630D02*
X168274611Y-86641380D01*
X168274611Y-86641380D02*
X168274611Y-86749130D01*
X168274611Y-86749130D02*
X168301548Y-86829942D01*
X168301548Y-86829942D02*
X168382360Y-86964629D01*
X168382360Y-86964629D02*
X168463173Y-87045441D01*
X168463173Y-87045441D02*
X168597860Y-87126253D01*
X168597860Y-87126253D02*
X168678672Y-87153191D01*
X168678672Y-87153191D02*
X168786421Y-87153191D01*
X168786421Y-87153191D02*
X168894171Y-87099316D01*
X168894171Y-87099316D02*
X168948046Y-87045441D01*
X168948046Y-87045441D02*
X169001921Y-86937691D01*
X169001921Y-86937691D02*
X169001921Y-86883817D01*
X169001921Y-86883817D02*
X168813359Y-86695255D01*
X168813359Y-86695255D02*
X168705609Y-86803004D01*
X169298232Y-86695255D02*
X168732547Y-86129569D01*
X168732547Y-86129569D02*
X169621481Y-86372006D01*
X169621481Y-86372006D02*
X169055795Y-85806321D01*
X169890855Y-86102632D02*
X169325169Y-85536947D01*
X169325169Y-85536947D02*
X169459856Y-85402260D01*
X169459856Y-85402260D02*
X169567606Y-85348385D01*
X169567606Y-85348385D02*
X169675355Y-85348385D01*
X169675355Y-85348385D02*
X169756168Y-85375322D01*
X169756168Y-85375322D02*
X169890855Y-85456135D01*
X169890855Y-85456135D02*
X169971667Y-85536947D01*
X169971667Y-85536947D02*
X170052479Y-85671634D01*
X170052479Y-85671634D02*
X170079416Y-85752446D01*
X170079416Y-85752446D02*
X170079416Y-85860196D01*
X170079416Y-85860196D02*
X170025542Y-85967945D01*
X170025542Y-85967945D02*
X169890855Y-86102632D01*
X168293798Y-91818318D02*
X168643984Y-91468132D01*
X168643984Y-91468132D02*
X168670922Y-91872193D01*
X168670922Y-91872193D02*
X168751734Y-91791381D01*
X168751734Y-91791381D02*
X168832546Y-91764443D01*
X168832546Y-91764443D02*
X168886421Y-91764443D01*
X168886421Y-91764443D02*
X168967233Y-91791381D01*
X168967233Y-91791381D02*
X169101920Y-91926068D01*
X169101920Y-91926068D02*
X169128857Y-92006880D01*
X169128857Y-92006880D02*
X169128857Y-92060755D01*
X169128857Y-92060755D02*
X169101920Y-92141567D01*
X169101920Y-92141567D02*
X168940296Y-92303191D01*
X168940296Y-92303191D02*
X168859483Y-92330129D01*
X168859483Y-92330129D02*
X168805609Y-92330129D01*
X168805609Y-91306507D02*
X169559856Y-91683631D01*
X169559856Y-91683631D02*
X169182732Y-90929384D01*
X169317419Y-90794697D02*
X169667605Y-90444511D01*
X169667605Y-90444511D02*
X169694543Y-90848572D01*
X169694543Y-90848572D02*
X169775355Y-90767759D01*
X169775355Y-90767759D02*
X169856167Y-90740822D01*
X169856167Y-90740822D02*
X169910042Y-90740822D01*
X169910042Y-90740822D02*
X169990854Y-90767759D01*
X169990854Y-90767759D02*
X170125541Y-90902446D01*
X170125541Y-90902446D02*
X170152479Y-90983259D01*
X170152479Y-90983259D02*
X170152479Y-91037133D01*
X170152479Y-91037133D02*
X170125541Y-91117946D01*
X170125541Y-91117946D02*
X169963917Y-91279570D01*
X169963917Y-91279570D02*
X169883105Y-91306507D01*
X169883105Y-91306507D02*
X169829230Y-91306507D01*
X142917047Y-91478944D02*
X142836235Y-91505881D01*
X142836235Y-91505881D02*
X142755423Y-91586693D01*
X142755423Y-91586693D02*
X142701548Y-91694443D01*
X142701548Y-91694443D02*
X142701548Y-91802192D01*
X142701548Y-91802192D02*
X142728485Y-91883005D01*
X142728485Y-91883005D02*
X142809298Y-92017692D01*
X142809298Y-92017692D02*
X142890110Y-92098504D01*
X142890110Y-92098504D02*
X143024797Y-92179316D01*
X143024797Y-92179316D02*
X143105609Y-92206253D01*
X143105609Y-92206253D02*
X143213359Y-92206253D01*
X143213359Y-92206253D02*
X143321108Y-92152379D01*
X143321108Y-92152379D02*
X143374983Y-92098504D01*
X143374983Y-92098504D02*
X143428858Y-91990754D01*
X143428858Y-91990754D02*
X143428858Y-91936879D01*
X143428858Y-91936879D02*
X143240296Y-91748318D01*
X143240296Y-91748318D02*
X143132546Y-91856067D01*
X143725169Y-91748318D02*
X143159484Y-91182632D01*
X143159484Y-91182632D02*
X143374983Y-90967133D01*
X143374983Y-90967133D02*
X143455795Y-90940196D01*
X143455795Y-90940196D02*
X143509670Y-90940196D01*
X143509670Y-90940196D02*
X143590482Y-90967133D01*
X143590482Y-90967133D02*
X143671294Y-91047945D01*
X143671294Y-91047945D02*
X143698232Y-91128757D01*
X143698232Y-91128757D02*
X143698232Y-91182632D01*
X143698232Y-91182632D02*
X143671294Y-91263444D01*
X143671294Y-91263444D02*
X143455795Y-91478944D01*
X143671294Y-90670822D02*
X144021481Y-90320635D01*
X144021481Y-90320635D02*
X144048418Y-90724696D01*
X144048418Y-90724696D02*
X144129230Y-90643884D01*
X144129230Y-90643884D02*
X144210042Y-90616947D01*
X144210042Y-90616947D02*
X144263917Y-90616947D01*
X144263917Y-90616947D02*
X144344729Y-90643884D01*
X144344729Y-90643884D02*
X144479416Y-90778571D01*
X144479416Y-90778571D02*
X144506354Y-90859383D01*
X144506354Y-90859383D02*
X144506354Y-90913258D01*
X144506354Y-90913258D02*
X144479416Y-90994070D01*
X144479416Y-90994070D02*
X144317792Y-91155695D01*
X144317792Y-91155695D02*
X144236980Y-91182632D01*
X144236980Y-91182632D02*
X144183105Y-91182632D01*
X168501673Y-114618318D02*
X168420860Y-114645255D01*
X168420860Y-114645255D02*
X168340048Y-114726068D01*
X168340048Y-114726068D02*
X168286173Y-114833817D01*
X168286173Y-114833817D02*
X168286173Y-114941567D01*
X168286173Y-114941567D02*
X168313111Y-115022379D01*
X168313111Y-115022379D02*
X168393923Y-115157066D01*
X168393923Y-115157066D02*
X168474735Y-115237878D01*
X168474735Y-115237878D02*
X168609422Y-115318691D01*
X168609422Y-115318691D02*
X168690235Y-115345628D01*
X168690235Y-115345628D02*
X168797984Y-115345628D01*
X168797984Y-115345628D02*
X168905734Y-115291753D01*
X168905734Y-115291753D02*
X168959609Y-115237878D01*
X168959609Y-115237878D02*
X169013483Y-115130129D01*
X169013483Y-115130129D02*
X169013483Y-115076254D01*
X169013483Y-115076254D02*
X168824922Y-114887692D01*
X168824922Y-114887692D02*
X168717172Y-114995442D01*
X169309795Y-114887692D02*
X168744109Y-114322007D01*
X168744109Y-114322007D02*
X168959609Y-114106507D01*
X168959609Y-114106507D02*
X169040421Y-114079570D01*
X169040421Y-114079570D02*
X169094296Y-114079570D01*
X169094296Y-114079570D02*
X169175108Y-114106507D01*
X169175108Y-114106507D02*
X169255920Y-114187320D01*
X169255920Y-114187320D02*
X169282857Y-114268132D01*
X169282857Y-114268132D02*
X169282857Y-114322007D01*
X169282857Y-114322007D02*
X169255920Y-114402819D01*
X169255920Y-114402819D02*
X169040421Y-114618318D01*
X169336732Y-113837133D02*
X169336732Y-113783259D01*
X169336732Y-113783259D02*
X169363670Y-113702446D01*
X169363670Y-113702446D02*
X169498357Y-113567759D01*
X169498357Y-113567759D02*
X169579169Y-113540822D01*
X169579169Y-113540822D02*
X169633044Y-113540822D01*
X169633044Y-113540822D02*
X169713856Y-113567759D01*
X169713856Y-113567759D02*
X169767731Y-113621634D01*
X169767731Y-113621634D02*
X169821605Y-113729384D01*
X169821605Y-113729384D02*
X169821605Y-114375881D01*
X169821605Y-114375881D02*
X170171792Y-114025695D01*
X170710540Y-113486947D02*
X170387291Y-113810196D01*
X170548915Y-113648571D02*
X169983230Y-113082886D01*
X169983230Y-113082886D02*
X170010167Y-113217573D01*
X170010167Y-113217573D02*
X170010167Y-113325323D01*
X170010167Y-113325323D02*
X169983230Y-113406135D01*
X168326082Y-89286034D02*
X168676268Y-88935848D01*
X168676268Y-88935848D02*
X168703206Y-89339909D01*
X168703206Y-89339909D02*
X168784018Y-89259096D01*
X168784018Y-89259096D02*
X168864830Y-89232159D01*
X168864830Y-89232159D02*
X168918705Y-89232159D01*
X168918705Y-89232159D02*
X168999517Y-89259096D01*
X168999517Y-89259096D02*
X169134204Y-89393783D01*
X169134204Y-89393783D02*
X169161142Y-89474596D01*
X169161142Y-89474596D02*
X169161142Y-89528470D01*
X169161142Y-89528470D02*
X169134204Y-89609283D01*
X169134204Y-89609283D02*
X168972580Y-89770907D01*
X168972580Y-89770907D02*
X168891768Y-89797844D01*
X168891768Y-89797844D02*
X168837893Y-89797844D01*
X168837893Y-88774223D02*
X169592140Y-89151347D01*
X169592140Y-89151347D02*
X169215017Y-88397099D01*
X169349703Y-88262413D02*
X169699890Y-87912226D01*
X169699890Y-87912226D02*
X169726827Y-88316287D01*
X169726827Y-88316287D02*
X169807639Y-88235475D01*
X169807639Y-88235475D02*
X169888451Y-88208538D01*
X169888451Y-88208538D02*
X169942326Y-88208538D01*
X169942326Y-88208538D02*
X170023139Y-88235475D01*
X170023139Y-88235475D02*
X170157826Y-88370162D01*
X170157826Y-88370162D02*
X170184763Y-88450974D01*
X170184763Y-88450974D02*
X170184763Y-88504849D01*
X170184763Y-88504849D02*
X170157826Y-88585661D01*
X170157826Y-88585661D02*
X169996201Y-88747286D01*
X169996201Y-88747286D02*
X169915389Y-88774223D01*
X169915389Y-88774223D02*
X169861514Y-88774223D01*
X170427200Y-88424037D02*
X170858198Y-87993038D01*
X170642699Y-87508165D02*
X170831261Y-87319603D01*
X171208384Y-87535102D02*
X170939010Y-87804476D01*
X170939010Y-87804476D02*
X170373325Y-87238791D01*
X170373325Y-87238791D02*
X170642699Y-86969417D01*
X171450821Y-87292665D02*
X170885136Y-86726980D01*
X170885136Y-86726980D02*
X171774070Y-86969417D01*
X171774070Y-86969417D02*
X171208385Y-86403731D01*
X142890110Y-99125881D02*
X142809298Y-99152818D01*
X142809298Y-99152818D02*
X142728486Y-99233630D01*
X142728486Y-99233630D02*
X142674611Y-99341380D01*
X142674611Y-99341380D02*
X142674611Y-99449130D01*
X142674611Y-99449130D02*
X142701548Y-99529942D01*
X142701548Y-99529942D02*
X142782360Y-99664629D01*
X142782360Y-99664629D02*
X142863173Y-99745441D01*
X142863173Y-99745441D02*
X142997860Y-99826253D01*
X142997860Y-99826253D02*
X143078672Y-99853191D01*
X143078672Y-99853191D02*
X143186421Y-99853191D01*
X143186421Y-99853191D02*
X143294171Y-99799316D01*
X143294171Y-99799316D02*
X143348046Y-99745441D01*
X143348046Y-99745441D02*
X143401921Y-99637691D01*
X143401921Y-99637691D02*
X143401921Y-99583817D01*
X143401921Y-99583817D02*
X143213359Y-99395255D01*
X143213359Y-99395255D02*
X143105609Y-99503004D01*
X143698232Y-99395255D02*
X143132547Y-98829569D01*
X143132547Y-98829569D02*
X144021481Y-99072006D01*
X144021481Y-99072006D02*
X143455795Y-98506321D01*
X144290855Y-98802632D02*
X143725169Y-98236947D01*
X143725169Y-98236947D02*
X143859856Y-98102260D01*
X143859856Y-98102260D02*
X143967606Y-98048385D01*
X143967606Y-98048385D02*
X144075355Y-98048385D01*
X144075355Y-98048385D02*
X144156168Y-98075322D01*
X144156168Y-98075322D02*
X144290855Y-98156135D01*
X144290855Y-98156135D02*
X144371667Y-98236947D01*
X144371667Y-98236947D02*
X144452479Y-98371634D01*
X144452479Y-98371634D02*
X144479416Y-98452446D01*
X144479416Y-98452446D02*
X144479416Y-98560196D01*
X144479416Y-98560196D02*
X144425542Y-98667945D01*
X144425542Y-98667945D02*
X144290855Y-98802632D01*
D12*
X127739716Y-126037940D02*
X127715907Y-126061750D01*
X127715907Y-126061750D02*
X127644478Y-126085559D01*
X127644478Y-126085559D02*
X127596859Y-126085559D01*
X127596859Y-126085559D02*
X127525431Y-126061750D01*
X127525431Y-126061750D02*
X127477812Y-126014130D01*
X127477812Y-126014130D02*
X127454002Y-125966511D01*
X127454002Y-125966511D02*
X127430193Y-125871273D01*
X127430193Y-125871273D02*
X127430193Y-125799845D01*
X127430193Y-125799845D02*
X127454002Y-125704607D01*
X127454002Y-125704607D02*
X127477812Y-125656988D01*
X127477812Y-125656988D02*
X127525431Y-125609369D01*
X127525431Y-125609369D02*
X127596859Y-125585559D01*
X127596859Y-125585559D02*
X127644478Y-125585559D01*
X127644478Y-125585559D02*
X127715907Y-125609369D01*
X127715907Y-125609369D02*
X127739716Y-125633178D01*
X127930193Y-125633178D02*
X127954002Y-125609369D01*
X127954002Y-125609369D02*
X128001621Y-125585559D01*
X128001621Y-125585559D02*
X128120669Y-125585559D01*
X128120669Y-125585559D02*
X128168288Y-125609369D01*
X128168288Y-125609369D02*
X128192097Y-125633178D01*
X128192097Y-125633178D02*
X128215907Y-125680797D01*
X128215907Y-125680797D02*
X128215907Y-125728416D01*
X128215907Y-125728416D02*
X128192097Y-125799845D01*
X128192097Y-125799845D02*
X127906383Y-126085559D01*
X127906383Y-126085559D02*
X128215907Y-126085559D01*
X129589479Y-122691754D02*
X129589479Y-123096516D01*
X129589479Y-123096516D02*
X129613289Y-123144135D01*
X129613289Y-123144135D02*
X129637098Y-123167945D01*
X129637098Y-123167945D02*
X129684717Y-123191754D01*
X129684717Y-123191754D02*
X129779955Y-123191754D01*
X129779955Y-123191754D02*
X129827574Y-123167945D01*
X129827574Y-123167945D02*
X129851384Y-123144135D01*
X129851384Y-123144135D02*
X129875193Y-123096516D01*
X129875193Y-123096516D02*
X129875193Y-122691754D01*
X130065670Y-122691754D02*
X130375194Y-122691754D01*
X130375194Y-122691754D02*
X130208527Y-122882230D01*
X130208527Y-122882230D02*
X130279956Y-122882230D01*
X130279956Y-122882230D02*
X130327575Y-122906040D01*
X130327575Y-122906040D02*
X130351384Y-122929849D01*
X130351384Y-122929849D02*
X130375194Y-122977468D01*
X130375194Y-122977468D02*
X130375194Y-123096516D01*
X130375194Y-123096516D02*
X130351384Y-123144135D01*
X130351384Y-123144135D02*
X130327575Y-123167945D01*
X130327575Y-123167945D02*
X130279956Y-123191754D01*
X130279956Y-123191754D02*
X130137099Y-123191754D01*
X130137099Y-123191754D02*
X130089480Y-123167945D01*
X130089480Y-123167945D02*
X130065670Y-123144135D01*
X131266821Y-90961865D02*
X131243012Y-90985675D01*
X131243012Y-90985675D02*
X131171583Y-91009484D01*
X131171583Y-91009484D02*
X131123964Y-91009484D01*
X131123964Y-91009484D02*
X131052536Y-90985675D01*
X131052536Y-90985675D02*
X131004917Y-90938055D01*
X131004917Y-90938055D02*
X130981107Y-90890436D01*
X130981107Y-90890436D02*
X130957298Y-90795198D01*
X130957298Y-90795198D02*
X130957298Y-90723770D01*
X130957298Y-90723770D02*
X130981107Y-90628532D01*
X130981107Y-90628532D02*
X131004917Y-90580913D01*
X131004917Y-90580913D02*
X131052536Y-90533294D01*
X131052536Y-90533294D02*
X131123964Y-90509484D01*
X131123964Y-90509484D02*
X131171583Y-90509484D01*
X131171583Y-90509484D02*
X131243012Y-90533294D01*
X131243012Y-90533294D02*
X131266821Y-90557103D01*
X131743012Y-91009484D02*
X131457298Y-91009484D01*
X131600155Y-91009484D02*
X131600155Y-90509484D01*
X131600155Y-90509484D02*
X131552536Y-90580913D01*
X131552536Y-90580913D02*
X131504917Y-90628532D01*
X131504917Y-90628532D02*
X131457298Y-90652341D01*
X132052535Y-90509484D02*
X132100154Y-90509484D01*
X132100154Y-90509484D02*
X132147773Y-90533294D01*
X132147773Y-90533294D02*
X132171583Y-90557103D01*
X132171583Y-90557103D02*
X132195392Y-90604722D01*
X132195392Y-90604722D02*
X132219202Y-90699960D01*
X132219202Y-90699960D02*
X132219202Y-90819008D01*
X132219202Y-90819008D02*
X132195392Y-90914246D01*
X132195392Y-90914246D02*
X132171583Y-90961865D01*
X132171583Y-90961865D02*
X132147773Y-90985675D01*
X132147773Y-90985675D02*
X132100154Y-91009484D01*
X132100154Y-91009484D02*
X132052535Y-91009484D01*
X132052535Y-91009484D02*
X132004916Y-90985675D01*
X132004916Y-90985675D02*
X131981107Y-90961865D01*
X131981107Y-90961865D02*
X131957297Y-90914246D01*
X131957297Y-90914246D02*
X131933488Y-90819008D01*
X131933488Y-90819008D02*
X131933488Y-90699960D01*
X131933488Y-90699960D02*
X131957297Y-90604722D01*
X131957297Y-90604722D02*
X131981107Y-90557103D01*
X131981107Y-90557103D02*
X132004916Y-90533294D01*
X132004916Y-90533294D02*
X132052535Y-90509484D01*
X127440191Y-82049640D02*
X127416382Y-82073450D01*
X127416382Y-82073450D02*
X127344953Y-82097259D01*
X127344953Y-82097259D02*
X127297334Y-82097259D01*
X127297334Y-82097259D02*
X127225906Y-82073450D01*
X127225906Y-82073450D02*
X127178287Y-82025830D01*
X127178287Y-82025830D02*
X127154477Y-81978211D01*
X127154477Y-81978211D02*
X127130668Y-81882973D01*
X127130668Y-81882973D02*
X127130668Y-81811545D01*
X127130668Y-81811545D02*
X127154477Y-81716307D01*
X127154477Y-81716307D02*
X127178287Y-81668688D01*
X127178287Y-81668688D02*
X127225906Y-81621069D01*
X127225906Y-81621069D02*
X127297334Y-81597259D01*
X127297334Y-81597259D02*
X127344953Y-81597259D01*
X127344953Y-81597259D02*
X127416382Y-81621069D01*
X127416382Y-81621069D02*
X127440191Y-81644878D01*
X127916382Y-82097259D02*
X127630668Y-82097259D01*
X127773525Y-82097259D02*
X127773525Y-81597259D01*
X127773525Y-81597259D02*
X127725906Y-81668688D01*
X127725906Y-81668688D02*
X127678287Y-81716307D01*
X127678287Y-81716307D02*
X127630668Y-81740116D01*
X131571591Y-82068690D02*
X131547782Y-82092500D01*
X131547782Y-82092500D02*
X131476353Y-82116309D01*
X131476353Y-82116309D02*
X131428734Y-82116309D01*
X131428734Y-82116309D02*
X131357306Y-82092500D01*
X131357306Y-82092500D02*
X131309687Y-82044880D01*
X131309687Y-82044880D02*
X131285877Y-81997261D01*
X131285877Y-81997261D02*
X131262068Y-81902023D01*
X131262068Y-81902023D02*
X131262068Y-81830595D01*
X131262068Y-81830595D02*
X131285877Y-81735357D01*
X131285877Y-81735357D02*
X131309687Y-81687738D01*
X131309687Y-81687738D02*
X131357306Y-81640119D01*
X131357306Y-81640119D02*
X131428734Y-81616309D01*
X131428734Y-81616309D02*
X131476353Y-81616309D01*
X131476353Y-81616309D02*
X131547782Y-81640119D01*
X131547782Y-81640119D02*
X131571591Y-81663928D01*
X131738258Y-81616309D02*
X132071591Y-81616309D01*
X132071591Y-81616309D02*
X131857306Y-82116309D01*
X124517818Y-75916584D02*
X124517818Y-76273727D01*
X124517818Y-76273727D02*
X124494009Y-76345155D01*
X124494009Y-76345155D02*
X124446390Y-76392775D01*
X124446390Y-76392775D02*
X124374961Y-76416584D01*
X124374961Y-76416584D02*
X124327342Y-76416584D01*
X125017818Y-76416584D02*
X124732104Y-76416584D01*
X124874961Y-76416584D02*
X124874961Y-75916584D01*
X124874961Y-75916584D02*
X124827342Y-75988013D01*
X124827342Y-75988013D02*
X124779723Y-76035632D01*
X124779723Y-76035632D02*
X124732104Y-76059441D01*
X127357641Y-117314365D02*
X127333832Y-117338175D01*
X127333832Y-117338175D02*
X127262403Y-117361984D01*
X127262403Y-117361984D02*
X127214784Y-117361984D01*
X127214784Y-117361984D02*
X127143356Y-117338175D01*
X127143356Y-117338175D02*
X127095737Y-117290555D01*
X127095737Y-117290555D02*
X127071927Y-117242936D01*
X127071927Y-117242936D02*
X127048118Y-117147698D01*
X127048118Y-117147698D02*
X127048118Y-117076270D01*
X127048118Y-117076270D02*
X127071927Y-116981032D01*
X127071927Y-116981032D02*
X127095737Y-116933413D01*
X127095737Y-116933413D02*
X127143356Y-116885794D01*
X127143356Y-116885794D02*
X127214784Y-116861984D01*
X127214784Y-116861984D02*
X127262403Y-116861984D01*
X127262403Y-116861984D02*
X127333832Y-116885794D01*
X127333832Y-116885794D02*
X127357641Y-116909603D01*
X127524308Y-116861984D02*
X127833832Y-116861984D01*
X127833832Y-116861984D02*
X127667165Y-117052460D01*
X127667165Y-117052460D02*
X127738594Y-117052460D01*
X127738594Y-117052460D02*
X127786213Y-117076270D01*
X127786213Y-117076270D02*
X127810022Y-117100079D01*
X127810022Y-117100079D02*
X127833832Y-117147698D01*
X127833832Y-117147698D02*
X127833832Y-117266746D01*
X127833832Y-117266746D02*
X127810022Y-117314365D01*
X127810022Y-117314365D02*
X127786213Y-117338175D01*
X127786213Y-117338175D02*
X127738594Y-117361984D01*
X127738594Y-117361984D02*
X127595737Y-117361984D01*
X127595737Y-117361984D02*
X127548118Y-117338175D01*
X127548118Y-117338175D02*
X127524308Y-117314365D01*
X135675686Y-82566559D02*
X135675686Y-82066559D01*
X135675686Y-82066559D02*
X135794734Y-82066559D01*
X135794734Y-82066559D02*
X135866162Y-82090369D01*
X135866162Y-82090369D02*
X135913781Y-82137988D01*
X135913781Y-82137988D02*
X135937591Y-82185607D01*
X135937591Y-82185607D02*
X135961400Y-82280845D01*
X135961400Y-82280845D02*
X135961400Y-82352273D01*
X135961400Y-82352273D02*
X135937591Y-82447511D01*
X135937591Y-82447511D02*
X135913781Y-82495130D01*
X135913781Y-82495130D02*
X135866162Y-82542750D01*
X135866162Y-82542750D02*
X135794734Y-82566559D01*
X135794734Y-82566559D02*
X135675686Y-82566559D01*
X136437591Y-82566559D02*
X136151877Y-82566559D01*
X136294734Y-82566559D02*
X136294734Y-82066559D01*
X136294734Y-82066559D02*
X136247115Y-82137988D01*
X136247115Y-82137988D02*
X136199496Y-82185607D01*
X136199496Y-82185607D02*
X136151877Y-82209416D01*
X125491768Y-141121559D02*
X125491768Y-141478702D01*
X125491768Y-141478702D02*
X125467959Y-141550130D01*
X125467959Y-141550130D02*
X125420340Y-141597750D01*
X125420340Y-141597750D02*
X125348911Y-141621559D01*
X125348911Y-141621559D02*
X125301292Y-141621559D01*
X125682244Y-141121559D02*
X125991768Y-141121559D01*
X125991768Y-141121559D02*
X125825101Y-141312035D01*
X125825101Y-141312035D02*
X125896530Y-141312035D01*
X125896530Y-141312035D02*
X125944149Y-141335845D01*
X125944149Y-141335845D02*
X125967958Y-141359654D01*
X125967958Y-141359654D02*
X125991768Y-141407273D01*
X125991768Y-141407273D02*
X125991768Y-141526321D01*
X125991768Y-141526321D02*
X125967958Y-141573940D01*
X125967958Y-141573940D02*
X125944149Y-141597750D01*
X125944149Y-141597750D02*
X125896530Y-141621559D01*
X125896530Y-141621559D02*
X125753673Y-141621559D01*
X125753673Y-141621559D02*
X125706054Y-141597750D01*
X125706054Y-141597750D02*
X125682244Y-141573940D01*
X139143591Y-85503559D02*
X138976925Y-85265464D01*
X138857877Y-85503559D02*
X138857877Y-85003559D01*
X138857877Y-85003559D02*
X139048353Y-85003559D01*
X139048353Y-85003559D02*
X139095972Y-85027369D01*
X139095972Y-85027369D02*
X139119782Y-85051178D01*
X139119782Y-85051178D02*
X139143591Y-85098797D01*
X139143591Y-85098797D02*
X139143591Y-85170226D01*
X139143591Y-85170226D02*
X139119782Y-85217845D01*
X139119782Y-85217845D02*
X139095972Y-85241654D01*
X139095972Y-85241654D02*
X139048353Y-85265464D01*
X139048353Y-85265464D02*
X138857877Y-85265464D01*
X139619782Y-85503559D02*
X139334068Y-85503559D01*
X139476925Y-85503559D02*
X139476925Y-85003559D01*
X139476925Y-85003559D02*
X139429306Y-85074988D01*
X139429306Y-85074988D02*
X139381687Y-85122607D01*
X139381687Y-85122607D02*
X139334068Y-85146416D01*
X127068716Y-99785190D02*
X127044907Y-99809000D01*
X127044907Y-99809000D02*
X126973478Y-99832809D01*
X126973478Y-99832809D02*
X126925859Y-99832809D01*
X126925859Y-99832809D02*
X126854431Y-99809000D01*
X126854431Y-99809000D02*
X126806812Y-99761380D01*
X126806812Y-99761380D02*
X126783002Y-99713761D01*
X126783002Y-99713761D02*
X126759193Y-99618523D01*
X126759193Y-99618523D02*
X126759193Y-99547095D01*
X126759193Y-99547095D02*
X126783002Y-99451857D01*
X126783002Y-99451857D02*
X126806812Y-99404238D01*
X126806812Y-99404238D02*
X126854431Y-99356619D01*
X126854431Y-99356619D02*
X126925859Y-99332809D01*
X126925859Y-99332809D02*
X126973478Y-99332809D01*
X126973478Y-99332809D02*
X127044907Y-99356619D01*
X127044907Y-99356619D02*
X127068716Y-99380428D01*
X127497288Y-99332809D02*
X127402050Y-99332809D01*
X127402050Y-99332809D02*
X127354431Y-99356619D01*
X127354431Y-99356619D02*
X127330621Y-99380428D01*
X127330621Y-99380428D02*
X127283002Y-99451857D01*
X127283002Y-99451857D02*
X127259193Y-99547095D01*
X127259193Y-99547095D02*
X127259193Y-99737571D01*
X127259193Y-99737571D02*
X127283002Y-99785190D01*
X127283002Y-99785190D02*
X127306812Y-99809000D01*
X127306812Y-99809000D02*
X127354431Y-99832809D01*
X127354431Y-99832809D02*
X127449669Y-99832809D01*
X127449669Y-99832809D02*
X127497288Y-99809000D01*
X127497288Y-99809000D02*
X127521097Y-99785190D01*
X127521097Y-99785190D02*
X127544907Y-99737571D01*
X127544907Y-99737571D02*
X127544907Y-99618523D01*
X127544907Y-99618523D02*
X127521097Y-99570904D01*
X127521097Y-99570904D02*
X127497288Y-99547095D01*
X127497288Y-99547095D02*
X127449669Y-99523285D01*
X127449669Y-99523285D02*
X127354431Y-99523285D01*
X127354431Y-99523285D02*
X127306812Y-99547095D01*
X127306812Y-99547095D02*
X127283002Y-99570904D01*
X127283002Y-99570904D02*
X127259193Y-99618523D01*
X129683679Y-131526320D02*
X129683679Y-131931082D01*
X129683679Y-131931082D02*
X129707489Y-131978701D01*
X129707489Y-131978701D02*
X129731298Y-132002511D01*
X129731298Y-132002511D02*
X129778917Y-132026320D01*
X129778917Y-132026320D02*
X129874155Y-132026320D01*
X129874155Y-132026320D02*
X129921774Y-132002511D01*
X129921774Y-132002511D02*
X129945584Y-131978701D01*
X129945584Y-131978701D02*
X129969393Y-131931082D01*
X129969393Y-131931082D02*
X129969393Y-131526320D01*
X130183680Y-131573939D02*
X130207489Y-131550130D01*
X130207489Y-131550130D02*
X130255108Y-131526320D01*
X130255108Y-131526320D02*
X130374156Y-131526320D01*
X130374156Y-131526320D02*
X130421775Y-131550130D01*
X130421775Y-131550130D02*
X130445584Y-131573939D01*
X130445584Y-131573939D02*
X130469394Y-131621558D01*
X130469394Y-131621558D02*
X130469394Y-131669177D01*
X130469394Y-131669177D02*
X130445584Y-131740606D01*
X130445584Y-131740606D02*
X130159870Y-132026320D01*
X130159870Y-132026320D02*
X130469394Y-132026320D01*
X108519060Y-83481927D02*
X108590488Y-83505736D01*
X108590488Y-83505736D02*
X108709536Y-83505736D01*
X108709536Y-83505736D02*
X108757155Y-83481927D01*
X108757155Y-83481927D02*
X108780964Y-83458117D01*
X108780964Y-83458117D02*
X108804774Y-83410498D01*
X108804774Y-83410498D02*
X108804774Y-83362879D01*
X108804774Y-83362879D02*
X108780964Y-83315260D01*
X108780964Y-83315260D02*
X108757155Y-83291450D01*
X108757155Y-83291450D02*
X108709536Y-83267641D01*
X108709536Y-83267641D02*
X108614298Y-83243831D01*
X108614298Y-83243831D02*
X108566679Y-83220022D01*
X108566679Y-83220022D02*
X108542869Y-83196212D01*
X108542869Y-83196212D02*
X108519060Y-83148593D01*
X108519060Y-83148593D02*
X108519060Y-83100974D01*
X108519060Y-83100974D02*
X108542869Y-83053355D01*
X108542869Y-83053355D02*
X108566679Y-83029546D01*
X108566679Y-83029546D02*
X108614298Y-83005736D01*
X108614298Y-83005736D02*
X108733345Y-83005736D01*
X108733345Y-83005736D02*
X108804774Y-83029546D01*
X109280964Y-83505736D02*
X108995250Y-83505736D01*
X109138107Y-83505736D02*
X109138107Y-83005736D01*
X109138107Y-83005736D02*
X109090488Y-83077165D01*
X109090488Y-83077165D02*
X109042869Y-83124784D01*
X109042869Y-83124784D02*
X108995250Y-83148593D01*
X126979816Y-90920590D02*
X126956007Y-90944400D01*
X126956007Y-90944400D02*
X126884578Y-90968209D01*
X126884578Y-90968209D02*
X126836959Y-90968209D01*
X126836959Y-90968209D02*
X126765531Y-90944400D01*
X126765531Y-90944400D02*
X126717912Y-90896780D01*
X126717912Y-90896780D02*
X126694102Y-90849161D01*
X126694102Y-90849161D02*
X126670293Y-90753923D01*
X126670293Y-90753923D02*
X126670293Y-90682495D01*
X126670293Y-90682495D02*
X126694102Y-90587257D01*
X126694102Y-90587257D02*
X126717912Y-90539638D01*
X126717912Y-90539638D02*
X126765531Y-90492019D01*
X126765531Y-90492019D02*
X126836959Y-90468209D01*
X126836959Y-90468209D02*
X126884578Y-90468209D01*
X126884578Y-90468209D02*
X126956007Y-90492019D01*
X126956007Y-90492019D02*
X126979816Y-90515828D01*
X127408388Y-90634876D02*
X127408388Y-90968209D01*
X127289340Y-90444400D02*
X127170293Y-90801542D01*
X127170293Y-90801542D02*
X127479816Y-90801542D01*
X127451166Y-108637090D02*
X127427357Y-108660900D01*
X127427357Y-108660900D02*
X127355928Y-108684709D01*
X127355928Y-108684709D02*
X127308309Y-108684709D01*
X127308309Y-108684709D02*
X127236881Y-108660900D01*
X127236881Y-108660900D02*
X127189262Y-108613280D01*
X127189262Y-108613280D02*
X127165452Y-108565661D01*
X127165452Y-108565661D02*
X127141643Y-108470423D01*
X127141643Y-108470423D02*
X127141643Y-108398995D01*
X127141643Y-108398995D02*
X127165452Y-108303757D01*
X127165452Y-108303757D02*
X127189262Y-108256138D01*
X127189262Y-108256138D02*
X127236881Y-108208519D01*
X127236881Y-108208519D02*
X127308309Y-108184709D01*
X127308309Y-108184709D02*
X127355928Y-108184709D01*
X127355928Y-108184709D02*
X127427357Y-108208519D01*
X127427357Y-108208519D02*
X127451166Y-108232328D01*
X127903547Y-108184709D02*
X127665452Y-108184709D01*
X127665452Y-108184709D02*
X127641643Y-108422804D01*
X127641643Y-108422804D02*
X127665452Y-108398995D01*
X127665452Y-108398995D02*
X127713071Y-108375185D01*
X127713071Y-108375185D02*
X127832119Y-108375185D01*
X127832119Y-108375185D02*
X127879738Y-108398995D01*
X127879738Y-108398995D02*
X127903547Y-108422804D01*
X127903547Y-108422804D02*
X127927357Y-108470423D01*
X127927357Y-108470423D02*
X127927357Y-108589471D01*
X127927357Y-108589471D02*
X127903547Y-108637090D01*
X127903547Y-108637090D02*
X127879738Y-108660900D01*
X127879738Y-108660900D02*
X127832119Y-108684709D01*
X127832119Y-108684709D02*
X127713071Y-108684709D01*
X127713071Y-108684709D02*
X127665452Y-108660900D01*
X127665452Y-108660900D02*
X127641643Y-108637090D01*
X131514471Y-108545740D02*
X131490662Y-108569550D01*
X131490662Y-108569550D02*
X131419233Y-108593359D01*
X131419233Y-108593359D02*
X131371614Y-108593359D01*
X131371614Y-108593359D02*
X131300186Y-108569550D01*
X131300186Y-108569550D02*
X131252567Y-108521930D01*
X131252567Y-108521930D02*
X131228757Y-108474311D01*
X131228757Y-108474311D02*
X131204948Y-108379073D01*
X131204948Y-108379073D02*
X131204948Y-108307645D01*
X131204948Y-108307645D02*
X131228757Y-108212407D01*
X131228757Y-108212407D02*
X131252567Y-108164788D01*
X131252567Y-108164788D02*
X131300186Y-108117169D01*
X131300186Y-108117169D02*
X131371614Y-108093359D01*
X131371614Y-108093359D02*
X131419233Y-108093359D01*
X131419233Y-108093359D02*
X131490662Y-108117169D01*
X131490662Y-108117169D02*
X131514471Y-108140978D01*
X131990662Y-108593359D02*
X131704948Y-108593359D01*
X131847805Y-108593359D02*
X131847805Y-108093359D01*
X131847805Y-108093359D02*
X131800186Y-108164788D01*
X131800186Y-108164788D02*
X131752567Y-108212407D01*
X131752567Y-108212407D02*
X131704948Y-108236216D01*
X132466852Y-108593359D02*
X132181138Y-108593359D01*
X132323995Y-108593359D02*
X132323995Y-108093359D01*
X132323995Y-108093359D02*
X132276376Y-108164788D01*
X132276376Y-108164788D02*
X132228757Y-108212407D01*
X132228757Y-108212407D02*
X132181138Y-108236216D01*
X131460496Y-99740740D02*
X131436687Y-99764550D01*
X131436687Y-99764550D02*
X131365258Y-99788359D01*
X131365258Y-99788359D02*
X131317639Y-99788359D01*
X131317639Y-99788359D02*
X131246211Y-99764550D01*
X131246211Y-99764550D02*
X131198592Y-99716930D01*
X131198592Y-99716930D02*
X131174782Y-99669311D01*
X131174782Y-99669311D02*
X131150973Y-99574073D01*
X131150973Y-99574073D02*
X131150973Y-99502645D01*
X131150973Y-99502645D02*
X131174782Y-99407407D01*
X131174782Y-99407407D02*
X131198592Y-99359788D01*
X131198592Y-99359788D02*
X131246211Y-99312169D01*
X131246211Y-99312169D02*
X131317639Y-99288359D01*
X131317639Y-99288359D02*
X131365258Y-99288359D01*
X131365258Y-99288359D02*
X131436687Y-99312169D01*
X131436687Y-99312169D02*
X131460496Y-99335978D01*
X131936687Y-99788359D02*
X131650973Y-99788359D01*
X131793830Y-99788359D02*
X131793830Y-99288359D01*
X131793830Y-99288359D02*
X131746211Y-99359788D01*
X131746211Y-99359788D02*
X131698592Y-99407407D01*
X131698592Y-99407407D02*
X131650973Y-99431216D01*
X132127163Y-99335978D02*
X132150972Y-99312169D01*
X132150972Y-99312169D02*
X132198591Y-99288359D01*
X132198591Y-99288359D02*
X132317639Y-99288359D01*
X132317639Y-99288359D02*
X132365258Y-99312169D01*
X132365258Y-99312169D02*
X132389067Y-99335978D01*
X132389067Y-99335978D02*
X132412877Y-99383597D01*
X132412877Y-99383597D02*
X132412877Y-99431216D01*
X132412877Y-99431216D02*
X132389067Y-99502645D01*
X132389067Y-99502645D02*
X132103353Y-99788359D01*
X132103353Y-99788359D02*
X132412877Y-99788359D01*
X131852066Y-126029140D02*
X131828257Y-126052950D01*
X131828257Y-126052950D02*
X131756828Y-126076759D01*
X131756828Y-126076759D02*
X131709209Y-126076759D01*
X131709209Y-126076759D02*
X131637781Y-126052950D01*
X131637781Y-126052950D02*
X131590162Y-126005330D01*
X131590162Y-126005330D02*
X131566352Y-125957711D01*
X131566352Y-125957711D02*
X131542543Y-125862473D01*
X131542543Y-125862473D02*
X131542543Y-125791045D01*
X131542543Y-125791045D02*
X131566352Y-125695807D01*
X131566352Y-125695807D02*
X131590162Y-125648188D01*
X131590162Y-125648188D02*
X131637781Y-125600569D01*
X131637781Y-125600569D02*
X131709209Y-125576759D01*
X131709209Y-125576759D02*
X131756828Y-125576759D01*
X131756828Y-125576759D02*
X131828257Y-125600569D01*
X131828257Y-125600569D02*
X131852066Y-125624378D01*
X132137781Y-125791045D02*
X132090162Y-125767235D01*
X132090162Y-125767235D02*
X132066352Y-125743426D01*
X132066352Y-125743426D02*
X132042543Y-125695807D01*
X132042543Y-125695807D02*
X132042543Y-125671997D01*
X132042543Y-125671997D02*
X132066352Y-125624378D01*
X132066352Y-125624378D02*
X132090162Y-125600569D01*
X132090162Y-125600569D02*
X132137781Y-125576759D01*
X132137781Y-125576759D02*
X132233019Y-125576759D01*
X132233019Y-125576759D02*
X132280638Y-125600569D01*
X132280638Y-125600569D02*
X132304447Y-125624378D01*
X132304447Y-125624378D02*
X132328257Y-125671997D01*
X132328257Y-125671997D02*
X132328257Y-125695807D01*
X132328257Y-125695807D02*
X132304447Y-125743426D01*
X132304447Y-125743426D02*
X132280638Y-125767235D01*
X132280638Y-125767235D02*
X132233019Y-125791045D01*
X132233019Y-125791045D02*
X132137781Y-125791045D01*
X132137781Y-125791045D02*
X132090162Y-125814854D01*
X132090162Y-125814854D02*
X132066352Y-125838664D01*
X132066352Y-125838664D02*
X132042543Y-125886283D01*
X132042543Y-125886283D02*
X132042543Y-125981521D01*
X132042543Y-125981521D02*
X132066352Y-126029140D01*
X132066352Y-126029140D02*
X132090162Y-126052950D01*
X132090162Y-126052950D02*
X132137781Y-126076759D01*
X132137781Y-126076759D02*
X132233019Y-126076759D01*
X132233019Y-126076759D02*
X132280638Y-126052950D01*
X132280638Y-126052950D02*
X132304447Y-126029140D01*
X132304447Y-126029140D02*
X132328257Y-125981521D01*
X132328257Y-125981521D02*
X132328257Y-125886283D01*
X132328257Y-125886283D02*
X132304447Y-125838664D01*
X132304447Y-125838664D02*
X132280638Y-125814854D01*
X132280638Y-125814854D02*
X132233019Y-125791045D01*
D14*
X105768941Y-131396949D02*
X105768941Y-131408949D01*
X105768941Y-131609949D02*
X105768941Y-131408949D01*
X105768941Y-131609949D02*
X105768941Y-131838949D01*
X105768941Y-131838949D02*
X105998941Y-132068949D01*
X105785941Y-121277949D02*
X105785941Y-121289949D01*
X105785941Y-121490949D02*
X105785941Y-121289949D01*
X105785941Y-121490949D02*
X105785941Y-121719949D01*
X105785941Y-121719949D02*
X106015941Y-121949949D01*
X105785941Y-128778949D02*
X105785941Y-128789949D01*
X105785941Y-128990949D02*
X105785941Y-128789949D01*
X105785941Y-128990949D02*
X105785941Y-129219949D01*
X105785941Y-129219949D02*
X106015941Y-129449949D01*
X105802941Y-118658949D02*
X105802941Y-118670949D01*
X105802941Y-118871949D02*
X105802941Y-118670949D01*
X105802941Y-118871949D02*
X105802941Y-119100949D01*
X105802941Y-119100949D02*
X106032941Y-119330949D01*
X105820941Y-111056949D02*
X105820941Y-111068949D01*
X105820941Y-111269949D02*
X105820941Y-111068949D01*
X105820941Y-111269949D02*
X105820941Y-111498949D01*
X105820941Y-111498949D02*
X106050941Y-111728949D01*
X105820941Y-126256949D02*
X105820941Y-126268949D01*
X105820941Y-126469949D02*
X105820941Y-126268949D01*
X105820941Y-126469949D02*
X105820941Y-126698949D01*
X105820941Y-126698949D02*
X106050941Y-126928949D01*
X105837941Y-100937949D02*
X105837941Y-100949949D01*
X105837941Y-101150949D02*
X105837941Y-100949949D01*
X105837941Y-101150949D02*
X105837941Y-101379949D01*
X105837941Y-101379949D02*
X106068941Y-101609949D01*
X105837941Y-108437949D02*
X105837941Y-108449949D01*
X105837941Y-108650949D02*
X105837941Y-108449949D01*
X105837941Y-108650949D02*
X105837941Y-108879949D01*
X105837941Y-108879949D02*
X106068941Y-109109949D01*
X105837941Y-116137949D02*
X105837941Y-116149949D01*
X105837941Y-116350949D02*
X105837941Y-116149949D01*
X105837941Y-116350949D02*
X105837941Y-116579949D01*
X105837941Y-116579949D02*
X106068941Y-116809949D01*
X105837941Y-123637949D02*
X105837941Y-123649949D01*
X105837941Y-123850949D02*
X105837941Y-123649949D01*
X105837941Y-123850949D02*
X105837941Y-124079949D01*
X105837941Y-124079949D02*
X106068941Y-124309949D01*
X105855941Y-98318949D02*
X105855941Y-98330949D01*
X105855941Y-98531949D02*
X105855941Y-98330949D01*
X105855941Y-98531949D02*
X105855941Y-98760949D01*
X105855941Y-98760949D02*
X106085941Y-98990949D01*
X105855941Y-113518949D02*
X105855941Y-113530949D01*
X105855941Y-113731949D02*
X105855941Y-113530949D01*
X105855941Y-113731949D02*
X105855941Y-113960949D01*
X105855941Y-113960949D02*
X106085941Y-114190949D01*
X105873941Y-105916949D02*
X105873941Y-105928949D01*
X105873941Y-106129949D02*
X105873941Y-105928949D01*
X105873941Y-106129949D02*
X105873941Y-106358949D01*
X105873941Y-106358949D02*
X106103941Y-106588949D01*
X105890941Y-95797949D02*
X105890941Y-95809949D01*
X105890941Y-96010949D02*
X105890941Y-95809949D01*
X105890941Y-96010949D02*
X105890941Y-96239949D01*
X105890941Y-96239949D02*
X106120941Y-96469949D01*
X105890941Y-103297949D02*
X105890941Y-103309949D01*
X105890941Y-103510949D02*
X105890941Y-103309949D01*
X105890941Y-103510949D02*
X105890941Y-103739949D01*
X105890941Y-103739949D02*
X106120941Y-103969949D01*
X105907941Y-93178949D02*
X105907941Y-93190949D01*
X105907941Y-93391949D02*
X105907941Y-93190949D01*
X105907941Y-93391949D02*
X105907941Y-93620949D01*
X105907941Y-93620949D02*
X106137941Y-93850949D01*
X105998941Y-132068949D02*
X106090941Y-132161949D01*
X106015941Y-121949949D02*
X106107941Y-122042949D01*
X106015941Y-129449949D02*
X106107941Y-129542949D01*
X106032941Y-119330949D02*
X106124941Y-119423949D01*
X106050941Y-111728949D02*
X106143941Y-111820949D01*
X106050941Y-126928949D02*
X106143941Y-127021949D01*
X106068941Y-101609949D02*
X106160941Y-101702949D01*
X106068941Y-109109949D02*
X106160941Y-109202949D01*
X106068941Y-116809949D02*
X106160941Y-116902949D01*
X106068941Y-124309949D02*
X106160941Y-124402949D01*
X106085941Y-98990949D02*
X106177941Y-99083949D01*
X106085941Y-114190949D02*
X106177941Y-114283949D01*
X106090941Y-132161949D02*
X111768941Y-132161949D01*
X106103941Y-106588949D02*
X106196941Y-106680949D01*
X106107941Y-122042949D02*
X111785941Y-122042949D01*
X106107941Y-129542949D02*
X111785941Y-129542949D01*
X106115941Y-131049949D02*
X105768941Y-131396949D01*
X106115941Y-131049949D02*
X111769941Y-131049949D01*
X106120941Y-96469949D02*
X106213941Y-96561949D01*
X106120941Y-103969949D02*
X106213941Y-104061949D01*
X106124941Y-119423949D02*
X111802941Y-119423949D01*
X106132941Y-120930949D02*
X105785941Y-121277949D01*
X106132941Y-120930949D02*
X111786941Y-120930949D01*
X106132941Y-128430949D02*
X105785941Y-128778949D01*
X106132941Y-128430949D02*
X111786941Y-128430949D01*
X106137941Y-93850949D02*
X106230941Y-93942949D01*
X106143941Y-111820949D02*
X111820941Y-111820949D01*
X106143941Y-127021949D02*
X111820941Y-127021949D01*
X106149941Y-118311949D02*
X105802941Y-118658949D01*
X106149941Y-118311949D02*
X111803941Y-118311949D01*
X106160941Y-101702949D02*
X111837941Y-101702949D01*
X106160941Y-109202949D02*
X111837941Y-109202949D01*
X106160941Y-116902949D02*
X111837941Y-116902949D01*
X106160941Y-124402949D02*
X111837941Y-124402949D01*
X106167941Y-110709949D02*
X105820941Y-111056949D01*
X106167941Y-110709949D02*
X111822941Y-110709949D01*
X106167941Y-125909949D02*
X105820941Y-126256949D01*
X106167941Y-125909949D02*
X111822941Y-125909949D01*
X106177941Y-99083949D02*
X111855941Y-99083949D01*
X106177941Y-114283949D02*
X111855941Y-114283949D01*
X106185941Y-100590949D02*
X105837941Y-100937949D01*
X106185941Y-100590949D02*
X111839941Y-100590949D01*
X106185941Y-108090949D02*
X105837941Y-108437949D01*
X106185941Y-108090949D02*
X111839941Y-108090949D01*
X106185941Y-115790949D02*
X105837941Y-116137949D01*
X106185941Y-115790949D02*
X111839941Y-115790949D01*
X106185941Y-123290949D02*
X105837941Y-123637949D01*
X106185941Y-123290949D02*
X111839941Y-123290949D01*
X106196941Y-106680949D02*
X111873941Y-106680949D01*
X106202941Y-97971949D02*
X105855941Y-98318949D01*
X106202941Y-97971949D02*
X111856941Y-97971949D01*
X106202941Y-113171949D02*
X105855941Y-113518949D01*
X106202941Y-113171949D02*
X111856941Y-113171949D01*
X106213941Y-96561949D02*
X111890941Y-96561949D01*
X106213941Y-104061949D02*
X111890941Y-104061949D01*
X106220941Y-105569949D02*
X105873941Y-105916949D01*
X106220941Y-105569949D02*
X111874941Y-105569949D01*
X106230941Y-93942949D02*
X111907941Y-93942949D01*
X106237941Y-95450949D02*
X105890941Y-95797949D01*
X106237941Y-95450949D02*
X111891941Y-95450949D01*
X106237941Y-102950949D02*
X105890941Y-103297949D01*
X106237941Y-102950949D02*
X111891941Y-102950949D01*
X106254941Y-92831949D02*
X105907941Y-93178949D01*
X106254941Y-92831949D02*
X111909941Y-92831949D01*
X111907941Y-92130949D02*
X111907941Y-132770949D01*
X111907941Y-132770949D02*
X114447941Y-132770949D01*
X114447941Y-92130949D02*
X111907941Y-92130949D01*
X114447941Y-132770949D02*
X114447941Y-92130949D01*
X127277300Y-85300125D02*
X127277300Y-85185125D01*
X127277300Y-90185125D02*
X127277300Y-90069125D01*
X127926300Y-85170125D02*
X127277300Y-85170125D01*
X127926300Y-85170125D02*
X128841300Y-85170125D01*
X130212300Y-85170125D02*
X131127300Y-85170125D01*
X131127300Y-85170125D02*
X131777300Y-85170125D01*
X131777300Y-85185125D02*
X131777300Y-85300125D01*
X131777300Y-90069125D02*
X131777300Y-90185125D01*
X131777300Y-90185125D02*
X127277300Y-90185125D01*
D15*
X126727300Y-84935125D02*
G75*
G02*
X126327300Y-84935125I-200000J0D01*
G01*
X126327300Y-84935125D02*
G75*
G02*
X126727300Y-84935125I200000J0D01*
G01*
D14*
X130213300Y-85170125D02*
G75*
G02*
X128841300Y-85170125I-686000J0D01*
G01*
D10*
X138796725Y-78281286D02*
X138796725Y-78735414D01*
X140266725Y-78281286D02*
X140266725Y-78735414D01*
X131660373Y-117731200D02*
X132182877Y-117731200D01*
X131660373Y-119201200D02*
X132182877Y-119201200D01*
D14*
X127499550Y-111674850D02*
X127499550Y-111559850D01*
X127499550Y-116559850D02*
X127499550Y-116443850D01*
X128148550Y-111544850D02*
X127499550Y-111544850D01*
X128148550Y-111544850D02*
X129063550Y-111544850D01*
X130434550Y-111544850D02*
X131349550Y-111544850D01*
X131349550Y-111544850D02*
X131999550Y-111544850D01*
X131999550Y-111559850D02*
X131999550Y-111674850D01*
X131999550Y-116443850D02*
X131999550Y-116559850D01*
X131999550Y-116559850D02*
X127499550Y-116559850D01*
D15*
X126949550Y-111309850D02*
G75*
G02*
X126549550Y-111309850I-200000J0D01*
G01*
X126549550Y-111309850D02*
G75*
G02*
X126949550Y-111309850I200000J0D01*
G01*
D14*
X130435550Y-111544850D02*
G75*
G02*
X129063550Y-111544850I-686000J0D01*
G01*
X127382075Y-94148850D02*
X127382075Y-94033850D01*
X127382075Y-99033850D02*
X127382075Y-98917850D01*
X128031075Y-94018850D02*
X127382075Y-94018850D01*
X128031075Y-94018850D02*
X128946075Y-94018850D01*
X130317075Y-94018850D02*
X131232075Y-94018850D01*
X131232075Y-94018850D02*
X131882075Y-94018850D01*
X131882075Y-94033850D02*
X131882075Y-94148850D01*
X131882075Y-98917850D02*
X131882075Y-99033850D01*
X131882075Y-99033850D02*
X127382075Y-99033850D01*
D15*
X126832075Y-93783850D02*
G75*
G02*
X126432075Y-93783850I-200000J0D01*
G01*
X126432075Y-93783850D02*
G75*
G02*
X126832075Y-93783850I200000J0D01*
G01*
D14*
X130318075Y-94018850D02*
G75*
G02*
X128946075Y-94018850I-686000J0D01*
G01*
X127340800Y-102927725D02*
X127340800Y-102812725D01*
X127340800Y-107812725D02*
X127340800Y-107696725D01*
X127989800Y-102797725D02*
X127340800Y-102797725D01*
X127989800Y-102797725D02*
X128904800Y-102797725D01*
X130275800Y-102797725D02*
X131190800Y-102797725D01*
X131190800Y-102797725D02*
X131840800Y-102797725D01*
X131840800Y-102812725D02*
X131840800Y-102927725D01*
X131840800Y-107696725D02*
X131840800Y-107812725D01*
X131840800Y-107812725D02*
X127340800Y-107812725D01*
D15*
X126790800Y-102562725D02*
G75*
G02*
X126390800Y-102562725I-200000J0D01*
G01*
X126390800Y-102562725D02*
G75*
G02*
X126790800Y-102562725I200000J0D01*
G01*
D14*
X130276800Y-102797725D02*
G75*
G02*
X128904800Y-102797725I-686000J0D01*
G01*
D10*
X145903675Y-79827450D02*
X145903675Y-80127450D01*
X145903675Y-79827450D02*
X166903675Y-79827450D01*
X145903675Y-82227450D02*
X145903675Y-82627450D01*
X145903675Y-82494450D02*
X148910675Y-82494450D01*
X145903675Y-84827450D02*
X145903675Y-85227450D01*
X145903675Y-87327450D02*
X145903675Y-87727450D01*
X145903675Y-89927450D02*
X145903675Y-90327450D01*
X145903675Y-92427450D02*
X145903675Y-92827450D01*
X145903675Y-94927450D02*
X145903675Y-95327450D01*
X145903675Y-97527450D02*
X145903675Y-97927450D01*
X145903675Y-100027450D02*
X145903675Y-100427450D01*
X145903675Y-102627450D02*
X145903675Y-103027450D01*
X145903675Y-105127450D02*
X145903675Y-105527450D01*
X145903675Y-107627450D02*
X145903675Y-108027450D01*
X145903675Y-110227450D02*
X145903675Y-110627450D01*
X145903675Y-112727450D02*
X145903675Y-113127450D01*
X145903675Y-115327450D02*
X145903675Y-115727450D01*
X145903675Y-117827450D02*
X145903675Y-118227450D01*
X145903675Y-120427450D02*
X145903675Y-120827450D01*
X145903675Y-122927450D02*
X145903675Y-123327450D01*
X145903675Y-125427450D02*
X145903675Y-125827450D01*
X145903675Y-128027450D02*
X145903675Y-128427450D01*
X148910675Y-82494450D02*
X148910675Y-79827450D01*
X152703675Y-130827450D02*
X145903675Y-130827450D01*
X154903675Y-130827450D02*
X155303675Y-130827450D01*
X157503675Y-130827450D02*
X157903675Y-130827450D01*
X166903675Y-79827450D02*
X166903675Y-80127450D01*
X166903675Y-82227450D02*
X166903675Y-82627450D01*
X166903675Y-84827450D02*
X166903675Y-85227450D01*
X166903675Y-87327450D02*
X166903675Y-87727450D01*
X166903675Y-89927450D02*
X166903675Y-90327450D01*
X166903675Y-92427450D02*
X166903675Y-92827450D01*
X166903675Y-94927450D02*
X166903675Y-95327450D01*
X166903675Y-97527450D02*
X166903675Y-97927450D01*
X166903675Y-100027450D02*
X166903675Y-100427450D01*
X166903675Y-102627450D02*
X166903675Y-103027450D01*
X166903675Y-105127450D02*
X166903675Y-105527450D01*
X166903675Y-107627450D02*
X166903675Y-108027450D01*
X166903675Y-110227450D02*
X166903675Y-110627450D01*
X166903675Y-112727450D02*
X166903675Y-113127450D01*
X166903675Y-115327450D02*
X166903675Y-115727450D01*
X166903675Y-117827450D02*
X166903675Y-118227450D01*
X166903675Y-120427450D02*
X166903675Y-120827450D01*
X166903675Y-122927450D02*
X166903675Y-123327450D01*
X166903675Y-125427450D02*
X166903675Y-125827450D01*
X166903675Y-128027450D02*
X166903675Y-128427450D01*
X166903675Y-130827450D02*
X160103675Y-130827450D01*
X145940357Y-130667450D02*
G75*
G02*
X145723999Y-130367387I363328J490008D01*
G01*
X166883351Y-130367387D02*
G75*
G02*
X166667010Y-130667472I-579476J189737D01*
G01*
X128084302Y-126468200D02*
X127561798Y-126468200D01*
X128084302Y-127938200D02*
X127561798Y-127938200D01*
D14*
X127563050Y-120456900D02*
X127563050Y-120341900D01*
X127563050Y-125341900D02*
X127563050Y-125225900D01*
X128212050Y-120326900D02*
X127563050Y-120326900D01*
X128212050Y-120326900D02*
X129127050Y-120326900D01*
X130498050Y-120326900D02*
X131413050Y-120326900D01*
X131413050Y-120326900D02*
X132063050Y-120326900D01*
X132063050Y-120341900D02*
X132063050Y-120456900D01*
X132063050Y-125225900D02*
X132063050Y-125341900D01*
X132063050Y-125341900D02*
X127563050Y-125341900D01*
D15*
X127013050Y-120091900D02*
G75*
G02*
X126613050Y-120091900I-200000J0D01*
G01*
X126613050Y-120091900D02*
G75*
G02*
X127013050Y-120091900I200000J0D01*
G01*
D14*
X130499050Y-120326900D02*
G75*
G02*
X129127050Y-120326900I-686000J0D01*
G01*
D10*
X131457173Y-91378700D02*
X131979677Y-91378700D01*
X131457173Y-92848700D02*
X131979677Y-92848700D01*
X127664852Y-82488700D02*
X127142348Y-82488700D01*
X127664852Y-83958700D02*
X127142348Y-83958700D01*
X131412723Y-82488700D02*
X131935227Y-82488700D01*
X131412723Y-83958700D02*
X131935227Y-83958700D01*
D14*
X125501100Y-77681325D02*
X125501100Y-69181325D01*
X126911100Y-78000325D02*
X126911100Y-77681325D01*
X129451100Y-78000325D02*
X129451100Y-77681325D01*
X131991100Y-77681325D02*
X131991100Y-78000325D01*
X133401100Y-69181325D02*
X125501100Y-69181325D01*
X133401100Y-77681325D02*
X125501100Y-77681325D01*
X133401100Y-77681325D02*
X133401100Y-69181325D01*
D10*
X127931552Y-117731200D02*
X127409048Y-117731200D01*
X127931552Y-119201200D02*
X127409048Y-119201200D01*
D14*
X135540850Y-79822775D02*
X135540850Y-78022775D01*
D16*
X135756850Y-79150775D02*
X136874850Y-79150775D01*
X135858850Y-78566775D02*
X136823850Y-78566775D01*
X136340850Y-79049775D02*
X135858850Y-78566775D01*
X136340850Y-79531775D02*
X136340850Y-78236775D01*
X136823850Y-78566775D02*
X136366850Y-79023775D01*
D14*
X137140850Y-79800775D02*
X137140850Y-78044775D01*
D17*
X125695075Y-137997450D02*
X133315075Y-137997450D01*
X125695075Y-140537450D02*
X125695075Y-137997450D01*
D14*
X126965075Y-140537450D02*
X126965075Y-146887450D01*
X129505075Y-140537450D02*
X129505075Y-146887450D01*
X132045075Y-140537450D02*
X132045075Y-146887450D01*
D17*
X133315075Y-137997450D02*
X133315075Y-140537450D01*
X133315075Y-140537450D02*
X125695075Y-140537450D01*
D10*
X138558600Y-82551536D02*
X138558600Y-83005664D01*
X140028600Y-82551536D02*
X140028600Y-83005664D01*
X127791852Y-100160750D02*
X127269348Y-100160750D01*
X127791852Y-101630750D02*
X127269348Y-101630750D01*
D14*
X127757250Y-129404250D02*
X127757250Y-129289250D01*
X127757250Y-134289250D02*
X127757250Y-134173250D01*
X128406250Y-129274250D02*
X127757250Y-129274250D01*
X128406250Y-129274250D02*
X129321250Y-129274250D01*
X130692250Y-129274250D02*
X131607250Y-129274250D01*
X131607250Y-129274250D02*
X132257250Y-129274250D01*
X132257250Y-129289250D02*
X132257250Y-129404250D01*
X132257250Y-134173250D02*
X132257250Y-134289250D01*
X132257250Y-134289250D02*
X127757250Y-134289250D01*
D15*
X127207250Y-129039250D02*
G75*
G02*
X126807250Y-129039250I-200000J0D01*
G01*
X126807250Y-129039250D02*
G75*
G02*
X127207250Y-129039250I200000J0D01*
G01*
D14*
X130693250Y-129274250D02*
G75*
G02*
X129321250Y-129274250I-686000J0D01*
G01*
X109335033Y-80379627D02*
X109335033Y-82379627D01*
X109335033Y-80379627D02*
X112335033Y-80379627D01*
X109335033Y-82379627D02*
X112335033Y-82379627D01*
X112349033Y-76802627D02*
X113414033Y-76802627D01*
X112349033Y-89756627D02*
X112349033Y-76802627D01*
X113414033Y-89756627D02*
X112349033Y-89756627D01*
X115857033Y-76802627D02*
X116921033Y-76802627D01*
X116921033Y-76802627D02*
X116921033Y-89756627D01*
X116921033Y-89756627D02*
X115857033Y-89756627D01*
D10*
X127683902Y-91334250D02*
X127161398Y-91334250D01*
X127683902Y-92804250D02*
X127161398Y-92804250D01*
X127887102Y-108990425D02*
X127364598Y-108990425D01*
X127887102Y-110460425D02*
X127364598Y-110460425D01*
X131660373Y-108949150D02*
X132182877Y-108949150D01*
X131660373Y-110419150D02*
X132182877Y-110419150D01*
X131520673Y-100182975D02*
X132043177Y-100182975D01*
X131520673Y-101652975D02*
X132043177Y-101652975D01*
X131682948Y-126468200D02*
X132205452Y-126468200D01*
X131682948Y-127938200D02*
X132205452Y-127938200D01*
%LPC*%
D18*
X118507941Y-131500949D03*
D19*
X115967941Y-131500949D03*
X118507941Y-128960949D03*
X115967941Y-128960949D03*
X118507941Y-126420949D03*
X115967941Y-126420949D03*
X118507941Y-123880949D03*
X115967941Y-123880949D03*
X118507941Y-121340949D03*
X115967941Y-121340949D03*
X118507941Y-118800949D03*
X115967941Y-118800949D03*
X118507941Y-116260949D03*
X115967941Y-116260949D03*
X118507941Y-113720949D03*
X115967941Y-113720949D03*
X118507941Y-111180949D03*
X115967941Y-111180949D03*
X118507941Y-108640949D03*
X115967941Y-108640949D03*
X118507941Y-106100949D03*
X115967941Y-106100949D03*
X118507941Y-103560949D03*
X115967941Y-103560949D03*
X118507941Y-101020949D03*
X115967941Y-101020949D03*
X118507941Y-98480949D03*
X115967941Y-98480949D03*
X118507941Y-95940949D03*
X115967941Y-95940949D03*
X118507941Y-93400949D03*
X115967941Y-93400949D03*
D20*
X126727300Y-85735125D03*
X126727300Y-86385125D03*
X126727300Y-87035125D03*
X126727300Y-87685125D03*
X126727300Y-88335125D03*
X126727300Y-88985125D03*
X126727300Y-89635125D03*
X132327300Y-89635125D03*
X132327300Y-88985125D03*
X132327300Y-88335125D03*
X132327300Y-87685125D03*
X132327300Y-87035125D03*
X132327300Y-86385125D03*
X132327300Y-85735125D03*
D21*
X139531725Y-77508350D03*
X139531725Y-79508350D03*
D22*
X130884125Y-118466200D03*
X132959125Y-118466200D03*
D20*
X126949550Y-112109850D03*
X126949550Y-112759850D03*
X126949550Y-113409850D03*
X126949550Y-114059850D03*
X126949550Y-114709850D03*
X126949550Y-115359850D03*
X126949550Y-116009850D03*
X132549550Y-116009850D03*
X132549550Y-115359850D03*
X132549550Y-114709850D03*
X132549550Y-114059850D03*
X132549550Y-113409850D03*
X132549550Y-112759850D03*
X132549550Y-112109850D03*
D23*
X163500000Y-136500000D03*
D20*
X126832075Y-94583850D03*
X126832075Y-95233850D03*
X126832075Y-95883850D03*
X126832075Y-96533850D03*
X126832075Y-97183850D03*
X126832075Y-97833850D03*
X126832075Y-98483850D03*
X132432075Y-98483850D03*
X132432075Y-97833850D03*
X132432075Y-97183850D03*
X132432075Y-96533850D03*
X132432075Y-95883850D03*
X132432075Y-95233850D03*
X132432075Y-94583850D03*
X126790800Y-103362725D03*
X126790800Y-104012725D03*
X126790800Y-104662725D03*
X126790800Y-105312725D03*
X126790800Y-105962725D03*
X126790800Y-106612725D03*
X126790800Y-107262725D03*
X132390800Y-107262725D03*
X132390800Y-106612725D03*
X132390800Y-105962725D03*
X132390800Y-105312725D03*
X132390800Y-104662725D03*
X132390800Y-104012725D03*
X132390800Y-103362725D03*
D24*
X147513675Y-81197450D03*
D25*
X146613675Y-81197450D03*
D24*
X147513675Y-83737450D03*
D25*
X146613675Y-83737450D03*
D26*
X147513675Y-86277450D03*
D25*
X146613675Y-86277450D03*
D24*
X147513675Y-88817450D03*
D25*
X146613675Y-88817450D03*
D24*
X147513675Y-91357450D03*
D25*
X146613675Y-91357450D03*
D24*
X147513675Y-93897450D03*
D25*
X146613675Y-93897450D03*
D24*
X147513675Y-96437450D03*
D25*
X146613675Y-96437450D03*
D26*
X147513675Y-98977450D03*
D25*
X146613675Y-98977450D03*
D24*
X147513675Y-101517450D03*
D25*
X146613675Y-101517450D03*
D24*
X147513675Y-104057450D03*
D25*
X146613675Y-104057450D03*
D24*
X147513675Y-106597450D03*
D25*
X146613675Y-106597450D03*
D24*
X147513675Y-109137450D03*
D25*
X146613675Y-109137450D03*
D26*
X147513675Y-111677450D03*
D25*
X146613675Y-111677450D03*
D24*
X147513675Y-114217450D03*
D25*
X146613675Y-114217450D03*
D24*
X147513675Y-116757450D03*
D25*
X146613675Y-116757450D03*
D24*
X147513675Y-119297450D03*
D25*
X146613675Y-119297450D03*
D24*
X147513675Y-121837450D03*
D25*
X146613675Y-121837450D03*
D26*
X147513675Y-124377450D03*
D25*
X146613675Y-124377450D03*
D24*
X147513675Y-126917450D03*
D25*
X146613675Y-126917450D03*
D24*
X147513675Y-129457450D03*
D25*
X146613675Y-129457450D03*
D24*
X165293675Y-129457450D03*
D25*
X166193675Y-129457450D03*
D24*
X165293675Y-126917450D03*
D25*
X166193675Y-126917450D03*
D26*
X165293675Y-124377450D03*
D25*
X166193675Y-124377450D03*
D24*
X165293675Y-121837450D03*
D25*
X166193675Y-121837450D03*
D24*
X165293675Y-119297450D03*
D25*
X166193675Y-119297450D03*
D24*
X165293675Y-116757450D03*
D25*
X166193675Y-116757450D03*
D24*
X165293675Y-114217450D03*
D25*
X166193675Y-114217450D03*
D26*
X165293675Y-111677450D03*
D25*
X166193675Y-111677450D03*
D24*
X165293675Y-109137450D03*
D25*
X166193675Y-109137450D03*
D24*
X165293675Y-106597450D03*
D25*
X166193675Y-106597450D03*
D24*
X165293675Y-104057450D03*
D25*
X166193675Y-104057450D03*
D24*
X165293675Y-101517450D03*
D25*
X166193675Y-101517450D03*
D26*
X165293675Y-98977450D03*
D25*
X166193675Y-98977450D03*
D24*
X165293675Y-96437450D03*
D25*
X166193675Y-96437450D03*
D24*
X165293675Y-93897450D03*
D25*
X166193675Y-93897450D03*
D24*
X165293675Y-91357450D03*
D25*
X166193675Y-91357450D03*
D24*
X165293675Y-88817450D03*
D25*
X166193675Y-88817450D03*
D26*
X165293675Y-86277450D03*
D25*
X166193675Y-86277450D03*
D24*
X165293675Y-83737450D03*
D25*
X166193675Y-83737450D03*
D24*
X165293675Y-81197450D03*
D25*
X166193675Y-81197450D03*
D27*
X156887775Y-110877450D03*
D28*
X156887775Y-111677450D03*
D27*
X159427775Y-110877450D03*
D28*
X159427775Y-111677450D03*
D27*
X161967775Y-110877450D03*
D28*
X161967775Y-111677450D03*
D27*
X156428675Y-83827450D03*
X157428675Y-80527450D03*
X155428675Y-80527450D03*
D29*
X153128675Y-88827450D03*
D27*
X153928675Y-88827450D03*
D29*
X153128675Y-91327450D03*
D27*
X153928675Y-91327450D03*
D29*
X153128675Y-93827450D03*
D27*
X153928675Y-93827450D03*
D30*
X128860550Y-127203200D03*
X126785550Y-127203200D03*
D20*
X127013050Y-120891900D03*
X127013050Y-121541900D03*
X127013050Y-122191900D03*
X127013050Y-122841900D03*
X127013050Y-123491900D03*
X127013050Y-124141900D03*
X127013050Y-124791900D03*
X132613050Y-124791900D03*
X132613050Y-124141900D03*
X132613050Y-123491900D03*
X132613050Y-122841900D03*
X132613050Y-122191900D03*
X132613050Y-121541900D03*
X132613050Y-120891900D03*
D22*
X130680925Y-92113700D03*
X132755925Y-92113700D03*
D30*
X128441100Y-83223700D03*
X126366100Y-83223700D03*
D22*
X130636475Y-83223700D03*
X132711475Y-83223700D03*
D31*
X131991100Y-79181325D03*
X129451100Y-79181325D03*
X126911100Y-79181325D03*
D32*
X116500000Y-136500000D03*
D30*
X128707800Y-118466200D03*
X126632800Y-118466200D03*
D33*
X136340850Y-80622775D03*
X136340850Y-77222775D03*
D34*
X132045075Y-136727450D03*
D35*
X129505075Y-136727450D03*
X126965075Y-136727450D03*
D32*
X121000000Y-80000000D03*
D21*
X139293600Y-81778600D03*
X139293600Y-83778600D03*
D30*
X128568100Y-100895750D03*
X126493100Y-100895750D03*
D20*
X127207250Y-129839250D03*
X127207250Y-130489250D03*
X127207250Y-131139250D03*
X127207250Y-131789250D03*
X127207250Y-132439250D03*
X127207250Y-133089250D03*
X127207250Y-133739250D03*
X132807250Y-133739250D03*
X132807250Y-133089250D03*
X132807250Y-132439250D03*
X132807250Y-131789250D03*
X132807250Y-131139250D03*
X132807250Y-130489250D03*
X132807250Y-129839250D03*
D36*
X114635033Y-79279627D03*
X114635033Y-83279627D03*
X114635033Y-85279627D03*
X114635033Y-87279627D03*
D37*
X114635033Y-89629627D03*
X114635033Y-76929627D03*
D30*
X128460150Y-92069250D03*
X126385150Y-92069250D03*
X128663350Y-109725425D03*
X126588350Y-109725425D03*
D22*
X130884125Y-109684150D03*
X132959125Y-109684150D03*
X130744425Y-100917975D03*
X132819425Y-100917975D03*
X130906700Y-127203200D03*
X132981700Y-127203200D03*
%LPD*%
M02*
