G04 #@! TF.GenerationSoftware,KiCad,Pcbnew,9.0.5*
G04 #@! TF.CreationDate,2025-12-02T14:35:45+00:00*
G04 #@! TF.ProjectId,jitx-design,6a697478-2d64-4657-9369-676e2e6b6963,1.0*
G04 #@! TF.SameCoordinates,Original*
G04 #@! TF.FileFunction,AssemblyDrawing,Top*
%FSLAX46Y46*%
G04 Gerber Fmt 4.6, Leading zero omitted, Abs format (unit mm)*
G04 Created by KiCad (PCBNEW 9.0.5) date 2025-12-02 14:35:45*
%MOMM*%
%LPD*%
G01*
G04 APERTURE LIST*
%ADD10C,0.100000*%
%ADD11C,0.080000*%
%ADD12C,0.150000*%
%ADD13C,0.060000*%
%ADD14C,0.300000*%
%ADD15C,0.120000*%
%ADD16C,0.000000*%
G04 APERTURE END LIST*
D10*
X120443031Y-114242926D02*
X120466841Y-114266735D01*
X120466841Y-114266735D02*
X120490650Y-114338164D01*
X120490650Y-114338164D02*
X120490650Y-114385783D01*
X120490650Y-114385783D02*
X120466841Y-114457211D01*
X120466841Y-114457211D02*
X120419221Y-114504830D01*
X120419221Y-114504830D02*
X120371602Y-114528640D01*
X120371602Y-114528640D02*
X120276364Y-114552449D01*
X120276364Y-114552449D02*
X120204936Y-114552449D01*
X120204936Y-114552449D02*
X120109698Y-114528640D01*
X120109698Y-114528640D02*
X120062079Y-114504830D01*
X120062079Y-114504830D02*
X120014460Y-114457211D01*
X120014460Y-114457211D02*
X119990650Y-114385783D01*
X119990650Y-114385783D02*
X119990650Y-114338164D01*
X119990650Y-114338164D02*
X120014460Y-114266735D01*
X120014460Y-114266735D02*
X120038269Y-114242926D01*
X120490650Y-114004830D02*
X120490650Y-113909592D01*
X120490650Y-113909592D02*
X120466841Y-113861973D01*
X120466841Y-113861973D02*
X120443031Y-113838164D01*
X120443031Y-113838164D02*
X120371602Y-113790545D01*
X120371602Y-113790545D02*
X120276364Y-113766735D01*
X120276364Y-113766735D02*
X120085888Y-113766735D01*
X120085888Y-113766735D02*
X120038269Y-113790545D01*
X120038269Y-113790545D02*
X120014460Y-113814354D01*
X120014460Y-113814354D02*
X119990650Y-113861973D01*
X119990650Y-113861973D02*
X119990650Y-113957211D01*
X119990650Y-113957211D02*
X120014460Y-114004830D01*
X120014460Y-114004830D02*
X120038269Y-114028640D01*
X120038269Y-114028640D02*
X120085888Y-114052449D01*
X120085888Y-114052449D02*
X120204936Y-114052449D01*
X120204936Y-114052449D02*
X120252555Y-114028640D01*
X120252555Y-114028640D02*
X120276364Y-114004830D01*
X120276364Y-114004830D02*
X120300174Y-113957211D01*
X120300174Y-113957211D02*
X120300174Y-113861973D01*
X120300174Y-113861973D02*
X120276364Y-113814354D01*
X120276364Y-113814354D02*
X120252555Y-113790545D01*
X120252555Y-113790545D02*
X120204936Y-113766735D01*
X119990650Y-113600069D02*
X119990650Y-113266736D01*
X119990650Y-113266736D02*
X120490650Y-113481021D01*
X119990650Y-112981022D02*
X119990650Y-112933403D01*
X119990650Y-112933403D02*
X120014460Y-112885784D01*
X120014460Y-112885784D02*
X120038269Y-112861974D01*
X120038269Y-112861974D02*
X120085888Y-112838165D01*
X120085888Y-112838165D02*
X120181126Y-112814355D01*
X120181126Y-112814355D02*
X120300174Y-112814355D01*
X120300174Y-112814355D02*
X120395412Y-112838165D01*
X120395412Y-112838165D02*
X120443031Y-112861974D01*
X120443031Y-112861974D02*
X120466841Y-112885784D01*
X120466841Y-112885784D02*
X120490650Y-112933403D01*
X120490650Y-112933403D02*
X120490650Y-112981022D01*
X120490650Y-112981022D02*
X120466841Y-113028641D01*
X120466841Y-113028641D02*
X120443031Y-113052450D01*
X120443031Y-113052450D02*
X120395412Y-113076260D01*
X120395412Y-113076260D02*
X120300174Y-113100069D01*
X120300174Y-113100069D02*
X120181126Y-113100069D01*
X120181126Y-113100069D02*
X120085888Y-113076260D01*
X120085888Y-113076260D02*
X120038269Y-113052450D01*
X120038269Y-113052450D02*
X120014460Y-113028641D01*
X120014460Y-113028641D02*
X119990650Y-112981022D01*
X120490650Y-112576260D02*
X120490650Y-112481022D01*
X120490650Y-112481022D02*
X120466841Y-112433403D01*
X120466841Y-112433403D02*
X120443031Y-112409594D01*
X120443031Y-112409594D02*
X120371602Y-112361975D01*
X120371602Y-112361975D02*
X120276364Y-112338165D01*
X120276364Y-112338165D02*
X120085888Y-112338165D01*
X120085888Y-112338165D02*
X120038269Y-112361975D01*
X120038269Y-112361975D02*
X120014460Y-112385784D01*
X120014460Y-112385784D02*
X119990650Y-112433403D01*
X119990650Y-112433403D02*
X119990650Y-112528641D01*
X119990650Y-112528641D02*
X120014460Y-112576260D01*
X120014460Y-112576260D02*
X120038269Y-112600070D01*
X120038269Y-112600070D02*
X120085888Y-112623879D01*
X120085888Y-112623879D02*
X120204936Y-112623879D01*
X120204936Y-112623879D02*
X120252555Y-112600070D01*
X120252555Y-112600070D02*
X120276364Y-112576260D01*
X120276364Y-112576260D02*
X120300174Y-112528641D01*
X120300174Y-112528641D02*
X120300174Y-112433403D01*
X120300174Y-112433403D02*
X120276364Y-112385784D01*
X120276364Y-112385784D02*
X120252555Y-112361975D01*
X120252555Y-112361975D02*
X120204936Y-112338165D01*
X119990650Y-111885785D02*
X119990650Y-112123880D01*
X119990650Y-112123880D02*
X120228745Y-112147689D01*
X120228745Y-112147689D02*
X120204936Y-112123880D01*
X120204936Y-112123880D02*
X120181126Y-112076261D01*
X120181126Y-112076261D02*
X120181126Y-111957213D01*
X120181126Y-111957213D02*
X120204936Y-111909594D01*
X120204936Y-111909594D02*
X120228745Y-111885785D01*
X120228745Y-111885785D02*
X120276364Y-111861975D01*
X120276364Y-111861975D02*
X120395412Y-111861975D01*
X120395412Y-111861975D02*
X120443031Y-111885785D01*
X120443031Y-111885785D02*
X120466841Y-111909594D01*
X120466841Y-111909594D02*
X120490650Y-111957213D01*
X120490650Y-111957213D02*
X120490650Y-112076261D01*
X120490650Y-112076261D02*
X120466841Y-112123880D01*
X120466841Y-112123880D02*
X120443031Y-112147689D01*
X133660009Y-91802935D02*
X133660009Y-91517221D01*
X134160009Y-91660078D02*
X133660009Y-91660078D01*
X133660009Y-91398174D02*
X134160009Y-91064841D01*
X133660009Y-91064841D02*
X134160009Y-91398174D01*
X133660009Y-90874365D02*
X134064771Y-90874365D01*
X134064771Y-90874365D02*
X134112390Y-90850555D01*
X134112390Y-90850555D02*
X134136200Y-90826746D01*
X134136200Y-90826746D02*
X134160009Y-90779127D01*
X134160009Y-90779127D02*
X134160009Y-90683889D01*
X134160009Y-90683889D02*
X134136200Y-90636270D01*
X134136200Y-90636270D02*
X134112390Y-90612460D01*
X134112390Y-90612460D02*
X134064771Y-90588651D01*
X134064771Y-90588651D02*
X133660009Y-90588651D01*
X133660009Y-90255317D02*
X133660009Y-90207698D01*
X133660009Y-90207698D02*
X133683819Y-90160079D01*
X133683819Y-90160079D02*
X133707628Y-90136269D01*
X133707628Y-90136269D02*
X133755247Y-90112460D01*
X133755247Y-90112460D02*
X133850485Y-90088650D01*
X133850485Y-90088650D02*
X133969533Y-90088650D01*
X133969533Y-90088650D02*
X134064771Y-90112460D01*
X134064771Y-90112460D02*
X134112390Y-90136269D01*
X134112390Y-90136269D02*
X134136200Y-90160079D01*
X134136200Y-90160079D02*
X134160009Y-90207698D01*
X134160009Y-90207698D02*
X134160009Y-90255317D01*
X134160009Y-90255317D02*
X134136200Y-90302936D01*
X134136200Y-90302936D02*
X134112390Y-90326745D01*
X134112390Y-90326745D02*
X134064771Y-90350555D01*
X134064771Y-90350555D02*
X133969533Y-90374364D01*
X133969533Y-90374364D02*
X133850485Y-90374364D01*
X133850485Y-90374364D02*
X133755247Y-90350555D01*
X133755247Y-90350555D02*
X133707628Y-90326745D01*
X133707628Y-90326745D02*
X133683819Y-90302936D01*
X133683819Y-90302936D02*
X133660009Y-90255317D01*
X134160009Y-89612460D02*
X134160009Y-89898174D01*
X134160009Y-89755317D02*
X133660009Y-89755317D01*
X133660009Y-89755317D02*
X133731438Y-89802936D01*
X133731438Y-89802936D02*
X133779057Y-89850555D01*
X133779057Y-89850555D02*
X133802866Y-89898174D01*
X133660009Y-89302937D02*
X133660009Y-89255318D01*
X133660009Y-89255318D02*
X133683819Y-89207699D01*
X133683819Y-89207699D02*
X133707628Y-89183889D01*
X133707628Y-89183889D02*
X133755247Y-89160080D01*
X133755247Y-89160080D02*
X133850485Y-89136270D01*
X133850485Y-89136270D02*
X133969533Y-89136270D01*
X133969533Y-89136270D02*
X134064771Y-89160080D01*
X134064771Y-89160080D02*
X134112390Y-89183889D01*
X134112390Y-89183889D02*
X134136200Y-89207699D01*
X134136200Y-89207699D02*
X134160009Y-89255318D01*
X134160009Y-89255318D02*
X134160009Y-89302937D01*
X134160009Y-89302937D02*
X134136200Y-89350556D01*
X134136200Y-89350556D02*
X134112390Y-89374365D01*
X134112390Y-89374365D02*
X134064771Y-89398175D01*
X134064771Y-89398175D02*
X133969533Y-89421984D01*
X133969533Y-89421984D02*
X133850485Y-89421984D01*
X133850485Y-89421984D02*
X133755247Y-89398175D01*
X133755247Y-89398175D02*
X133707628Y-89374365D01*
X133707628Y-89374365D02*
X133683819Y-89350556D01*
X133683819Y-89350556D02*
X133660009Y-89302937D01*
X133826676Y-88707699D02*
X134160009Y-88707699D01*
X133636200Y-88826747D02*
X133993342Y-88945794D01*
X133993342Y-88945794D02*
X133993342Y-88636271D01*
X134160009Y-88445795D02*
X133660009Y-88445795D01*
X133660009Y-88445795D02*
X133660009Y-88255319D01*
X133660009Y-88255319D02*
X133683819Y-88207700D01*
X133683819Y-88207700D02*
X133707628Y-88183890D01*
X133707628Y-88183890D02*
X133755247Y-88160081D01*
X133755247Y-88160081D02*
X133826676Y-88160081D01*
X133826676Y-88160081D02*
X133874295Y-88183890D01*
X133874295Y-88183890D02*
X133898104Y-88207700D01*
X133898104Y-88207700D02*
X133921914Y-88255319D01*
X133921914Y-88255319D02*
X133921914Y-88445795D01*
X133660009Y-87993414D02*
X134160009Y-87874366D01*
X134160009Y-87874366D02*
X133802866Y-87779128D01*
X133802866Y-87779128D02*
X134160009Y-87683890D01*
X134160009Y-87683890D02*
X133660009Y-87564843D01*
X134160009Y-87088652D02*
X133921914Y-87255318D01*
X134160009Y-87374366D02*
X133660009Y-87374366D01*
X133660009Y-87374366D02*
X133660009Y-87183890D01*
X133660009Y-87183890D02*
X133683819Y-87136271D01*
X133683819Y-87136271D02*
X133707628Y-87112461D01*
X133707628Y-87112461D02*
X133755247Y-87088652D01*
X133755247Y-87088652D02*
X133826676Y-87088652D01*
X133826676Y-87088652D02*
X133874295Y-87112461D01*
X133874295Y-87112461D02*
X133898104Y-87136271D01*
X133898104Y-87136271D02*
X133921914Y-87183890D01*
X133921914Y-87183890D02*
X133921914Y-87374366D01*
X137822120Y-79044063D02*
X137798310Y-79091682D01*
X137798310Y-79091682D02*
X137774501Y-79115492D01*
X137774501Y-79115492D02*
X137726882Y-79139301D01*
X137726882Y-79139301D02*
X137703072Y-79139301D01*
X137703072Y-79139301D02*
X137655453Y-79115492D01*
X137655453Y-79115492D02*
X137631644Y-79091682D01*
X137631644Y-79091682D02*
X137607834Y-79044063D01*
X137607834Y-79044063D02*
X137607834Y-78948825D01*
X137607834Y-78948825D02*
X137631644Y-78901206D01*
X137631644Y-78901206D02*
X137655453Y-78877397D01*
X137655453Y-78877397D02*
X137703072Y-78853587D01*
X137703072Y-78853587D02*
X137726882Y-78853587D01*
X137726882Y-78853587D02*
X137774501Y-78877397D01*
X137774501Y-78877397D02*
X137798310Y-78901206D01*
X137798310Y-78901206D02*
X137822120Y-78948825D01*
X137822120Y-78948825D02*
X137822120Y-79044063D01*
X137822120Y-79044063D02*
X137845929Y-79091682D01*
X137845929Y-79091682D02*
X137869739Y-79115492D01*
X137869739Y-79115492D02*
X137917358Y-79139301D01*
X137917358Y-79139301D02*
X138012596Y-79139301D01*
X138012596Y-79139301D02*
X138060215Y-79115492D01*
X138060215Y-79115492D02*
X138084025Y-79091682D01*
X138084025Y-79091682D02*
X138107834Y-79044063D01*
X138107834Y-79044063D02*
X138107834Y-78948825D01*
X138107834Y-78948825D02*
X138084025Y-78901206D01*
X138084025Y-78901206D02*
X138060215Y-78877397D01*
X138060215Y-78877397D02*
X138012596Y-78853587D01*
X138012596Y-78853587D02*
X137917358Y-78853587D01*
X137917358Y-78853587D02*
X137869739Y-78877397D01*
X137869739Y-78877397D02*
X137845929Y-78901206D01*
X137845929Y-78901206D02*
X137822120Y-78948825D01*
X138107834Y-78639302D02*
X137607834Y-78639302D01*
X138107834Y-78353588D02*
X137822120Y-78567873D01*
X137607834Y-78353588D02*
X137893548Y-78639302D01*
X137655453Y-78163111D02*
X137631644Y-78139302D01*
X137631644Y-78139302D02*
X137607834Y-78091683D01*
X137607834Y-78091683D02*
X137607834Y-77972635D01*
X137607834Y-77972635D02*
X137631644Y-77925016D01*
X137631644Y-77925016D02*
X137655453Y-77901207D01*
X137655453Y-77901207D02*
X137703072Y-77877397D01*
X137703072Y-77877397D02*
X137750691Y-77877397D01*
X137750691Y-77877397D02*
X137822120Y-77901207D01*
X137822120Y-77901207D02*
X138107834Y-78186921D01*
X138107834Y-78186921D02*
X138107834Y-77877397D01*
D11*
X139758874Y-78591683D02*
X139520779Y-78758349D01*
X139758874Y-78877397D02*
X139258874Y-78877397D01*
X139258874Y-78877397D02*
X139258874Y-78686921D01*
X139258874Y-78686921D02*
X139282684Y-78639302D01*
X139282684Y-78639302D02*
X139306493Y-78615492D01*
X139306493Y-78615492D02*
X139354112Y-78591683D01*
X139354112Y-78591683D02*
X139425541Y-78591683D01*
X139425541Y-78591683D02*
X139473160Y-78615492D01*
X139473160Y-78615492D02*
X139496969Y-78639302D01*
X139496969Y-78639302D02*
X139520779Y-78686921D01*
X139520779Y-78686921D02*
X139520779Y-78877397D01*
X139306493Y-78401206D02*
X139282684Y-78377397D01*
X139282684Y-78377397D02*
X139258874Y-78329778D01*
X139258874Y-78329778D02*
X139258874Y-78210730D01*
X139258874Y-78210730D02*
X139282684Y-78163111D01*
X139282684Y-78163111D02*
X139306493Y-78139302D01*
X139306493Y-78139302D02*
X139354112Y-78115492D01*
X139354112Y-78115492D02*
X139401731Y-78115492D01*
X139401731Y-78115492D02*
X139473160Y-78139302D01*
X139473160Y-78139302D02*
X139758874Y-78425016D01*
X139758874Y-78425016D02*
X139758874Y-78115492D01*
D10*
X131539177Y-120108359D02*
X131253463Y-120108359D01*
X131396320Y-120108359D02*
X131396320Y-119608359D01*
X131396320Y-119608359D02*
X131348701Y-119679788D01*
X131348701Y-119679788D02*
X131301082Y-119727407D01*
X131301082Y-119727407D02*
X131253463Y-119751216D01*
X131848700Y-119608359D02*
X131896319Y-119608359D01*
X131896319Y-119608359D02*
X131943938Y-119632169D01*
X131943938Y-119632169D02*
X131967748Y-119655978D01*
X131967748Y-119655978D02*
X131991557Y-119703597D01*
X131991557Y-119703597D02*
X132015367Y-119798835D01*
X132015367Y-119798835D02*
X132015367Y-119917883D01*
X132015367Y-119917883D02*
X131991557Y-120013121D01*
X131991557Y-120013121D02*
X131967748Y-120060740D01*
X131967748Y-120060740D02*
X131943938Y-120084550D01*
X131943938Y-120084550D02*
X131896319Y-120108359D01*
X131896319Y-120108359D02*
X131848700Y-120108359D01*
X131848700Y-120108359D02*
X131801081Y-120084550D01*
X131801081Y-120084550D02*
X131777272Y-120060740D01*
X131777272Y-120060740D02*
X131753462Y-120013121D01*
X131753462Y-120013121D02*
X131729653Y-119917883D01*
X131729653Y-119917883D02*
X131729653Y-119798835D01*
X131729653Y-119798835D02*
X131753462Y-119703597D01*
X131753462Y-119703597D02*
X131777272Y-119655978D01*
X131777272Y-119655978D02*
X131801081Y-119632169D01*
X131801081Y-119632169D02*
X131848700Y-119608359D01*
X132324890Y-119608359D02*
X132372509Y-119608359D01*
X132372509Y-119608359D02*
X132420128Y-119632169D01*
X132420128Y-119632169D02*
X132443938Y-119655978D01*
X132443938Y-119655978D02*
X132467747Y-119703597D01*
X132467747Y-119703597D02*
X132491557Y-119798835D01*
X132491557Y-119798835D02*
X132491557Y-119917883D01*
X132491557Y-119917883D02*
X132467747Y-120013121D01*
X132467747Y-120013121D02*
X132443938Y-120060740D01*
X132443938Y-120060740D02*
X132420128Y-120084550D01*
X132420128Y-120084550D02*
X132372509Y-120108359D01*
X132372509Y-120108359D02*
X132324890Y-120108359D01*
X132324890Y-120108359D02*
X132277271Y-120084550D01*
X132277271Y-120084550D02*
X132253462Y-120060740D01*
X132253462Y-120060740D02*
X132229652Y-120013121D01*
X132229652Y-120013121D02*
X132205843Y-119917883D01*
X132205843Y-119917883D02*
X132205843Y-119798835D01*
X132205843Y-119798835D02*
X132229652Y-119703597D01*
X132229652Y-119703597D02*
X132253462Y-119655978D01*
X132253462Y-119655978D02*
X132277271Y-119632169D01*
X132277271Y-119632169D02*
X132324890Y-119608359D01*
X132705842Y-119775026D02*
X132705842Y-120108359D01*
X132705842Y-119822645D02*
X132729652Y-119798835D01*
X132729652Y-119798835D02*
X132777271Y-119775026D01*
X132777271Y-119775026D02*
X132848699Y-119775026D01*
X132848699Y-119775026D02*
X132896318Y-119798835D01*
X132896318Y-119798835D02*
X132920128Y-119846454D01*
X132920128Y-119846454D02*
X132920128Y-120108359D01*
D11*
X131838291Y-118645730D02*
X131814482Y-118669540D01*
X131814482Y-118669540D02*
X131743053Y-118693349D01*
X131743053Y-118693349D02*
X131695434Y-118693349D01*
X131695434Y-118693349D02*
X131624006Y-118669540D01*
X131624006Y-118669540D02*
X131576387Y-118621920D01*
X131576387Y-118621920D02*
X131552577Y-118574301D01*
X131552577Y-118574301D02*
X131528768Y-118479063D01*
X131528768Y-118479063D02*
X131528768Y-118407635D01*
X131528768Y-118407635D02*
X131552577Y-118312397D01*
X131552577Y-118312397D02*
X131576387Y-118264778D01*
X131576387Y-118264778D02*
X131624006Y-118217159D01*
X131624006Y-118217159D02*
X131695434Y-118193349D01*
X131695434Y-118193349D02*
X131743053Y-118193349D01*
X131743053Y-118193349D02*
X131814482Y-118217159D01*
X131814482Y-118217159D02*
X131838291Y-118240968D01*
X132076387Y-118693349D02*
X132171625Y-118693349D01*
X132171625Y-118693349D02*
X132219244Y-118669540D01*
X132219244Y-118669540D02*
X132243053Y-118645730D01*
X132243053Y-118645730D02*
X132290672Y-118574301D01*
X132290672Y-118574301D02*
X132314482Y-118479063D01*
X132314482Y-118479063D02*
X132314482Y-118288587D01*
X132314482Y-118288587D02*
X132290672Y-118240968D01*
X132290672Y-118240968D02*
X132266863Y-118217159D01*
X132266863Y-118217159D02*
X132219244Y-118193349D01*
X132219244Y-118193349D02*
X132124006Y-118193349D01*
X132124006Y-118193349D02*
X132076387Y-118217159D01*
X132076387Y-118217159D02*
X132052577Y-118240968D01*
X132052577Y-118240968D02*
X132028768Y-118288587D01*
X132028768Y-118288587D02*
X132028768Y-118407635D01*
X132028768Y-118407635D02*
X132052577Y-118455254D01*
X132052577Y-118455254D02*
X132076387Y-118479063D01*
X132076387Y-118479063D02*
X132124006Y-118502873D01*
X132124006Y-118502873D02*
X132219244Y-118502873D01*
X132219244Y-118502873D02*
X132266863Y-118479063D01*
X132266863Y-118479063D02*
X132290672Y-118455254D01*
X132290672Y-118455254D02*
X132314482Y-118407635D01*
D10*
X133882259Y-118177660D02*
X133882259Y-117891946D01*
X134382259Y-118034803D02*
X133882259Y-118034803D01*
X133882259Y-117772899D02*
X134382259Y-117439566D01*
X133882259Y-117439566D02*
X134382259Y-117772899D01*
X133882259Y-117249090D02*
X134287021Y-117249090D01*
X134287021Y-117249090D02*
X134334640Y-117225280D01*
X134334640Y-117225280D02*
X134358450Y-117201471D01*
X134358450Y-117201471D02*
X134382259Y-117153852D01*
X134382259Y-117153852D02*
X134382259Y-117058614D01*
X134382259Y-117058614D02*
X134358450Y-117010995D01*
X134358450Y-117010995D02*
X134334640Y-116987185D01*
X134334640Y-116987185D02*
X134287021Y-116963376D01*
X134287021Y-116963376D02*
X133882259Y-116963376D01*
X133882259Y-116630042D02*
X133882259Y-116582423D01*
X133882259Y-116582423D02*
X133906069Y-116534804D01*
X133906069Y-116534804D02*
X133929878Y-116510994D01*
X133929878Y-116510994D02*
X133977497Y-116487185D01*
X133977497Y-116487185D02*
X134072735Y-116463375D01*
X134072735Y-116463375D02*
X134191783Y-116463375D01*
X134191783Y-116463375D02*
X134287021Y-116487185D01*
X134287021Y-116487185D02*
X134334640Y-116510994D01*
X134334640Y-116510994D02*
X134358450Y-116534804D01*
X134358450Y-116534804D02*
X134382259Y-116582423D01*
X134382259Y-116582423D02*
X134382259Y-116630042D01*
X134382259Y-116630042D02*
X134358450Y-116677661D01*
X134358450Y-116677661D02*
X134334640Y-116701470D01*
X134334640Y-116701470D02*
X134287021Y-116725280D01*
X134287021Y-116725280D02*
X134191783Y-116749089D01*
X134191783Y-116749089D02*
X134072735Y-116749089D01*
X134072735Y-116749089D02*
X133977497Y-116725280D01*
X133977497Y-116725280D02*
X133929878Y-116701470D01*
X133929878Y-116701470D02*
X133906069Y-116677661D01*
X133906069Y-116677661D02*
X133882259Y-116630042D01*
X134382259Y-115987185D02*
X134382259Y-116272899D01*
X134382259Y-116130042D02*
X133882259Y-116130042D01*
X133882259Y-116130042D02*
X133953688Y-116177661D01*
X133953688Y-116177661D02*
X134001307Y-116225280D01*
X134001307Y-116225280D02*
X134025116Y-116272899D01*
X133882259Y-115677662D02*
X133882259Y-115630043D01*
X133882259Y-115630043D02*
X133906069Y-115582424D01*
X133906069Y-115582424D02*
X133929878Y-115558614D01*
X133929878Y-115558614D02*
X133977497Y-115534805D01*
X133977497Y-115534805D02*
X134072735Y-115510995D01*
X134072735Y-115510995D02*
X134191783Y-115510995D01*
X134191783Y-115510995D02*
X134287021Y-115534805D01*
X134287021Y-115534805D02*
X134334640Y-115558614D01*
X134334640Y-115558614D02*
X134358450Y-115582424D01*
X134358450Y-115582424D02*
X134382259Y-115630043D01*
X134382259Y-115630043D02*
X134382259Y-115677662D01*
X134382259Y-115677662D02*
X134358450Y-115725281D01*
X134358450Y-115725281D02*
X134334640Y-115749090D01*
X134334640Y-115749090D02*
X134287021Y-115772900D01*
X134287021Y-115772900D02*
X134191783Y-115796709D01*
X134191783Y-115796709D02*
X134072735Y-115796709D01*
X134072735Y-115796709D02*
X133977497Y-115772900D01*
X133977497Y-115772900D02*
X133929878Y-115749090D01*
X133929878Y-115749090D02*
X133906069Y-115725281D01*
X133906069Y-115725281D02*
X133882259Y-115677662D01*
X134048926Y-115082424D02*
X134382259Y-115082424D01*
X133858450Y-115201472D02*
X134215592Y-115320519D01*
X134215592Y-115320519D02*
X134215592Y-115010996D01*
X134382259Y-114820520D02*
X133882259Y-114820520D01*
X133882259Y-114820520D02*
X133882259Y-114630044D01*
X133882259Y-114630044D02*
X133906069Y-114582425D01*
X133906069Y-114582425D02*
X133929878Y-114558615D01*
X133929878Y-114558615D02*
X133977497Y-114534806D01*
X133977497Y-114534806D02*
X134048926Y-114534806D01*
X134048926Y-114534806D02*
X134096545Y-114558615D01*
X134096545Y-114558615D02*
X134120354Y-114582425D01*
X134120354Y-114582425D02*
X134144164Y-114630044D01*
X134144164Y-114630044D02*
X134144164Y-114820520D01*
X133882259Y-114368139D02*
X134382259Y-114249091D01*
X134382259Y-114249091D02*
X134025116Y-114153853D01*
X134025116Y-114153853D02*
X134382259Y-114058615D01*
X134382259Y-114058615D02*
X133882259Y-113939568D01*
X134382259Y-113463377D02*
X134144164Y-113630043D01*
X134382259Y-113749091D02*
X133882259Y-113749091D01*
X133882259Y-113749091D02*
X133882259Y-113558615D01*
X133882259Y-113558615D02*
X133906069Y-113510996D01*
X133906069Y-113510996D02*
X133929878Y-113487186D01*
X133929878Y-113487186D02*
X133977497Y-113463377D01*
X133977497Y-113463377D02*
X134048926Y-113463377D01*
X134048926Y-113463377D02*
X134096545Y-113487186D01*
X134096545Y-113487186D02*
X134120354Y-113510996D01*
X134120354Y-113510996D02*
X134144164Y-113558615D01*
X134144164Y-113558615D02*
X134144164Y-113749091D01*
D12*
X156928571Y-140254819D02*
X156928571Y-139254819D01*
X156928571Y-139254819D02*
X157261904Y-139969104D01*
X157261904Y-139969104D02*
X157595237Y-139254819D01*
X157595237Y-139254819D02*
X157595237Y-140254819D01*
X158214285Y-140254819D02*
X158119047Y-140207200D01*
X158119047Y-140207200D02*
X158071428Y-140159580D01*
X158071428Y-140159580D02*
X158023809Y-140064342D01*
X158023809Y-140064342D02*
X158023809Y-139778628D01*
X158023809Y-139778628D02*
X158071428Y-139683390D01*
X158071428Y-139683390D02*
X158119047Y-139635771D01*
X158119047Y-139635771D02*
X158214285Y-139588152D01*
X158214285Y-139588152D02*
X158357142Y-139588152D01*
X158357142Y-139588152D02*
X158452380Y-139635771D01*
X158452380Y-139635771D02*
X158499999Y-139683390D01*
X158499999Y-139683390D02*
X158547618Y-139778628D01*
X158547618Y-139778628D02*
X158547618Y-140064342D01*
X158547618Y-140064342D02*
X158499999Y-140159580D01*
X158499999Y-140159580D02*
X158452380Y-140207200D01*
X158452380Y-140207200D02*
X158357142Y-140254819D01*
X158357142Y-140254819D02*
X158214285Y-140254819D01*
X159404761Y-139588152D02*
X159404761Y-140254819D01*
X158976190Y-139588152D02*
X158976190Y-140111961D01*
X158976190Y-140111961D02*
X159023809Y-140207200D01*
X159023809Y-140207200D02*
X159119047Y-140254819D01*
X159119047Y-140254819D02*
X159261904Y-140254819D01*
X159261904Y-140254819D02*
X159357142Y-140207200D01*
X159357142Y-140207200D02*
X159404761Y-140159580D01*
X159880952Y-139588152D02*
X159880952Y-140254819D01*
X159880952Y-139683390D02*
X159928571Y-139635771D01*
X159928571Y-139635771D02*
X160023809Y-139588152D01*
X160023809Y-139588152D02*
X160166666Y-139588152D01*
X160166666Y-139588152D02*
X160261904Y-139635771D01*
X160261904Y-139635771D02*
X160309523Y-139731009D01*
X160309523Y-139731009D02*
X160309523Y-140254819D01*
X160642857Y-139588152D02*
X161023809Y-139588152D01*
X160785714Y-139254819D02*
X160785714Y-140111961D01*
X160785714Y-140111961D02*
X160833333Y-140207200D01*
X160833333Y-140207200D02*
X160928571Y-140254819D01*
X160928571Y-140254819D02*
X161023809Y-140254819D01*
X161357143Y-140254819D02*
X161357143Y-139588152D01*
X161357143Y-139254819D02*
X161309524Y-139302438D01*
X161309524Y-139302438D02*
X161357143Y-139350057D01*
X161357143Y-139350057D02*
X161404762Y-139302438D01*
X161404762Y-139302438D02*
X161357143Y-139254819D01*
X161357143Y-139254819D02*
X161357143Y-139350057D01*
X161833333Y-139588152D02*
X161833333Y-140254819D01*
X161833333Y-139683390D02*
X161880952Y-139635771D01*
X161880952Y-139635771D02*
X161976190Y-139588152D01*
X161976190Y-139588152D02*
X162119047Y-139588152D01*
X162119047Y-139588152D02*
X162214285Y-139635771D01*
X162214285Y-139635771D02*
X162261904Y-139731009D01*
X162261904Y-139731009D02*
X162261904Y-140254819D01*
X163166666Y-139588152D02*
X163166666Y-140397676D01*
X163166666Y-140397676D02*
X163119047Y-140492914D01*
X163119047Y-140492914D02*
X163071428Y-140540533D01*
X163071428Y-140540533D02*
X162976190Y-140588152D01*
X162976190Y-140588152D02*
X162833333Y-140588152D01*
X162833333Y-140588152D02*
X162738095Y-140540533D01*
X163166666Y-140207200D02*
X163071428Y-140254819D01*
X163071428Y-140254819D02*
X162880952Y-140254819D01*
X162880952Y-140254819D02*
X162785714Y-140207200D01*
X162785714Y-140207200D02*
X162738095Y-140159580D01*
X162738095Y-140159580D02*
X162690476Y-140064342D01*
X162690476Y-140064342D02*
X162690476Y-139778628D01*
X162690476Y-139778628D02*
X162738095Y-139683390D01*
X162738095Y-139683390D02*
X162785714Y-139635771D01*
X162785714Y-139635771D02*
X162880952Y-139588152D01*
X162880952Y-139588152D02*
X163071428Y-139588152D01*
X163071428Y-139588152D02*
X163166666Y-139635771D01*
X163642857Y-140254819D02*
X163642857Y-139254819D01*
X163642857Y-139731009D02*
X164214285Y-139731009D01*
X164214285Y-140254819D02*
X164214285Y-139254819D01*
X164833333Y-140254819D02*
X164738095Y-140207200D01*
X164738095Y-140207200D02*
X164690476Y-140159580D01*
X164690476Y-140159580D02*
X164642857Y-140064342D01*
X164642857Y-140064342D02*
X164642857Y-139778628D01*
X164642857Y-139778628D02*
X164690476Y-139683390D01*
X164690476Y-139683390D02*
X164738095Y-139635771D01*
X164738095Y-139635771D02*
X164833333Y-139588152D01*
X164833333Y-139588152D02*
X164976190Y-139588152D01*
X164976190Y-139588152D02*
X165071428Y-139635771D01*
X165071428Y-139635771D02*
X165119047Y-139683390D01*
X165119047Y-139683390D02*
X165166666Y-139778628D01*
X165166666Y-139778628D02*
X165166666Y-140064342D01*
X165166666Y-140064342D02*
X165119047Y-140159580D01*
X165119047Y-140159580D02*
X165071428Y-140207200D01*
X165071428Y-140207200D02*
X164976190Y-140254819D01*
X164976190Y-140254819D02*
X164833333Y-140254819D01*
X165738095Y-140254819D02*
X165642857Y-140207200D01*
X165642857Y-140207200D02*
X165595238Y-140111961D01*
X165595238Y-140111961D02*
X165595238Y-139254819D01*
X166500000Y-140207200D02*
X166404762Y-140254819D01*
X166404762Y-140254819D02*
X166214286Y-140254819D01*
X166214286Y-140254819D02*
X166119048Y-140207200D01*
X166119048Y-140207200D02*
X166071429Y-140111961D01*
X166071429Y-140111961D02*
X166071429Y-139731009D01*
X166071429Y-139731009D02*
X166119048Y-139635771D01*
X166119048Y-139635771D02*
X166214286Y-139588152D01*
X166214286Y-139588152D02*
X166404762Y-139588152D01*
X166404762Y-139588152D02*
X166500000Y-139635771D01*
X166500000Y-139635771D02*
X166547619Y-139731009D01*
X166547619Y-139731009D02*
X166547619Y-139826247D01*
X166547619Y-139826247D02*
X166071429Y-139921485D01*
X166738096Y-140350057D02*
X167500000Y-140350057D01*
X167738096Y-140254819D02*
X167738096Y-139254819D01*
X167738096Y-139254819D02*
X168119048Y-139254819D01*
X168119048Y-139254819D02*
X168214286Y-139302438D01*
X168214286Y-139302438D02*
X168261905Y-139350057D01*
X168261905Y-139350057D02*
X168309524Y-139445295D01*
X168309524Y-139445295D02*
X168309524Y-139588152D01*
X168309524Y-139588152D02*
X168261905Y-139683390D01*
X168261905Y-139683390D02*
X168214286Y-139731009D01*
X168214286Y-139731009D02*
X168119048Y-139778628D01*
X168119048Y-139778628D02*
X167738096Y-139778628D01*
X169166667Y-140254819D02*
X169166667Y-139731009D01*
X169166667Y-139731009D02*
X169119048Y-139635771D01*
X169119048Y-139635771D02*
X169023810Y-139588152D01*
X169023810Y-139588152D02*
X168833334Y-139588152D01*
X168833334Y-139588152D02*
X168738096Y-139635771D01*
X169166667Y-140207200D02*
X169071429Y-140254819D01*
X169071429Y-140254819D02*
X168833334Y-140254819D01*
X168833334Y-140254819D02*
X168738096Y-140207200D01*
X168738096Y-140207200D02*
X168690477Y-140111961D01*
X168690477Y-140111961D02*
X168690477Y-140016723D01*
X168690477Y-140016723D02*
X168738096Y-139921485D01*
X168738096Y-139921485D02*
X168833334Y-139873866D01*
X168833334Y-139873866D02*
X169071429Y-139873866D01*
X169071429Y-139873866D02*
X169166667Y-139826247D01*
X170071429Y-140254819D02*
X170071429Y-139254819D01*
X170071429Y-140207200D02*
X169976191Y-140254819D01*
X169976191Y-140254819D02*
X169785715Y-140254819D01*
X169785715Y-140254819D02*
X169690477Y-140207200D01*
X169690477Y-140207200D02*
X169642858Y-140159580D01*
X169642858Y-140159580D02*
X169595239Y-140064342D01*
X169595239Y-140064342D02*
X169595239Y-139778628D01*
X169595239Y-139778628D02*
X169642858Y-139683390D01*
X169642858Y-139683390D02*
X169690477Y-139635771D01*
X169690477Y-139635771D02*
X169785715Y-139588152D01*
X169785715Y-139588152D02*
X169976191Y-139588152D01*
X169976191Y-139588152D02*
X170071429Y-139635771D01*
X162452380Y-136954819D02*
X162119047Y-136478628D01*
X161880952Y-136954819D02*
X161880952Y-135954819D01*
X161880952Y-135954819D02*
X162261904Y-135954819D01*
X162261904Y-135954819D02*
X162357142Y-136002438D01*
X162357142Y-136002438D02*
X162404761Y-136050057D01*
X162404761Y-136050057D02*
X162452380Y-136145295D01*
X162452380Y-136145295D02*
X162452380Y-136288152D01*
X162452380Y-136288152D02*
X162404761Y-136383390D01*
X162404761Y-136383390D02*
X162357142Y-136431009D01*
X162357142Y-136431009D02*
X162261904Y-136478628D01*
X162261904Y-136478628D02*
X161880952Y-136478628D01*
X162880952Y-136431009D02*
X163214285Y-136431009D01*
X163357142Y-136954819D02*
X162880952Y-136954819D01*
X162880952Y-136954819D02*
X162880952Y-135954819D01*
X162880952Y-135954819D02*
X163357142Y-135954819D01*
X164119047Y-136431009D02*
X163785714Y-136431009D01*
X163785714Y-136954819D02*
X163785714Y-135954819D01*
X163785714Y-135954819D02*
X164261904Y-135954819D01*
X165166666Y-136954819D02*
X164595238Y-136954819D01*
X164880952Y-136954819D02*
X164880952Y-135954819D01*
X164880952Y-135954819D02*
X164785714Y-136097676D01*
X164785714Y-136097676D02*
X164690476Y-136192914D01*
X164690476Y-136192914D02*
X164595238Y-136240533D01*
D10*
X133764784Y-100651660D02*
X133764784Y-100365946D01*
X134264784Y-100508803D02*
X133764784Y-100508803D01*
X133764784Y-100246899D02*
X134264784Y-99913566D01*
X133764784Y-99913566D02*
X134264784Y-100246899D01*
X133764784Y-99723090D02*
X134169546Y-99723090D01*
X134169546Y-99723090D02*
X134217165Y-99699280D01*
X134217165Y-99699280D02*
X134240975Y-99675471D01*
X134240975Y-99675471D02*
X134264784Y-99627852D01*
X134264784Y-99627852D02*
X134264784Y-99532614D01*
X134264784Y-99532614D02*
X134240975Y-99484995D01*
X134240975Y-99484995D02*
X134217165Y-99461185D01*
X134217165Y-99461185D02*
X134169546Y-99437376D01*
X134169546Y-99437376D02*
X133764784Y-99437376D01*
X133764784Y-99104042D02*
X133764784Y-99056423D01*
X133764784Y-99056423D02*
X133788594Y-99008804D01*
X133788594Y-99008804D02*
X133812403Y-98984994D01*
X133812403Y-98984994D02*
X133860022Y-98961185D01*
X133860022Y-98961185D02*
X133955260Y-98937375D01*
X133955260Y-98937375D02*
X134074308Y-98937375D01*
X134074308Y-98937375D02*
X134169546Y-98961185D01*
X134169546Y-98961185D02*
X134217165Y-98984994D01*
X134217165Y-98984994D02*
X134240975Y-99008804D01*
X134240975Y-99008804D02*
X134264784Y-99056423D01*
X134264784Y-99056423D02*
X134264784Y-99104042D01*
X134264784Y-99104042D02*
X134240975Y-99151661D01*
X134240975Y-99151661D02*
X134217165Y-99175470D01*
X134217165Y-99175470D02*
X134169546Y-99199280D01*
X134169546Y-99199280D02*
X134074308Y-99223089D01*
X134074308Y-99223089D02*
X133955260Y-99223089D01*
X133955260Y-99223089D02*
X133860022Y-99199280D01*
X133860022Y-99199280D02*
X133812403Y-99175470D01*
X133812403Y-99175470D02*
X133788594Y-99151661D01*
X133788594Y-99151661D02*
X133764784Y-99104042D01*
X134264784Y-98461185D02*
X134264784Y-98746899D01*
X134264784Y-98604042D02*
X133764784Y-98604042D01*
X133764784Y-98604042D02*
X133836213Y-98651661D01*
X133836213Y-98651661D02*
X133883832Y-98699280D01*
X133883832Y-98699280D02*
X133907641Y-98746899D01*
X133764784Y-98151662D02*
X133764784Y-98104043D01*
X133764784Y-98104043D02*
X133788594Y-98056424D01*
X133788594Y-98056424D02*
X133812403Y-98032614D01*
X133812403Y-98032614D02*
X133860022Y-98008805D01*
X133860022Y-98008805D02*
X133955260Y-97984995D01*
X133955260Y-97984995D02*
X134074308Y-97984995D01*
X134074308Y-97984995D02*
X134169546Y-98008805D01*
X134169546Y-98008805D02*
X134217165Y-98032614D01*
X134217165Y-98032614D02*
X134240975Y-98056424D01*
X134240975Y-98056424D02*
X134264784Y-98104043D01*
X134264784Y-98104043D02*
X134264784Y-98151662D01*
X134264784Y-98151662D02*
X134240975Y-98199281D01*
X134240975Y-98199281D02*
X134217165Y-98223090D01*
X134217165Y-98223090D02*
X134169546Y-98246900D01*
X134169546Y-98246900D02*
X134074308Y-98270709D01*
X134074308Y-98270709D02*
X133955260Y-98270709D01*
X133955260Y-98270709D02*
X133860022Y-98246900D01*
X133860022Y-98246900D02*
X133812403Y-98223090D01*
X133812403Y-98223090D02*
X133788594Y-98199281D01*
X133788594Y-98199281D02*
X133764784Y-98151662D01*
X133931451Y-97556424D02*
X134264784Y-97556424D01*
X133740975Y-97675472D02*
X134098117Y-97794519D01*
X134098117Y-97794519D02*
X134098117Y-97484996D01*
X134264784Y-97294520D02*
X133764784Y-97294520D01*
X133764784Y-97294520D02*
X133764784Y-97104044D01*
X133764784Y-97104044D02*
X133788594Y-97056425D01*
X133788594Y-97056425D02*
X133812403Y-97032615D01*
X133812403Y-97032615D02*
X133860022Y-97008806D01*
X133860022Y-97008806D02*
X133931451Y-97008806D01*
X133931451Y-97008806D02*
X133979070Y-97032615D01*
X133979070Y-97032615D02*
X134002879Y-97056425D01*
X134002879Y-97056425D02*
X134026689Y-97104044D01*
X134026689Y-97104044D02*
X134026689Y-97294520D01*
X133764784Y-96842139D02*
X134264784Y-96723091D01*
X134264784Y-96723091D02*
X133907641Y-96627853D01*
X133907641Y-96627853D02*
X134264784Y-96532615D01*
X134264784Y-96532615D02*
X133764784Y-96413568D01*
X134264784Y-95937377D02*
X134026689Y-96104043D01*
X134264784Y-96223091D02*
X133764784Y-96223091D01*
X133764784Y-96223091D02*
X133764784Y-96032615D01*
X133764784Y-96032615D02*
X133788594Y-95984996D01*
X133788594Y-95984996D02*
X133812403Y-95961186D01*
X133812403Y-95961186D02*
X133860022Y-95937377D01*
X133860022Y-95937377D02*
X133931451Y-95937377D01*
X133931451Y-95937377D02*
X133979070Y-95961186D01*
X133979070Y-95961186D02*
X134002879Y-95984996D01*
X134002879Y-95984996D02*
X134026689Y-96032615D01*
X134026689Y-96032615D02*
X134026689Y-96223091D01*
X133723509Y-109430535D02*
X133723509Y-109144821D01*
X134223509Y-109287678D02*
X133723509Y-109287678D01*
X133723509Y-109025774D02*
X134223509Y-108692441D01*
X133723509Y-108692441D02*
X134223509Y-109025774D01*
X133723509Y-108501965D02*
X134128271Y-108501965D01*
X134128271Y-108501965D02*
X134175890Y-108478155D01*
X134175890Y-108478155D02*
X134199700Y-108454346D01*
X134199700Y-108454346D02*
X134223509Y-108406727D01*
X134223509Y-108406727D02*
X134223509Y-108311489D01*
X134223509Y-108311489D02*
X134199700Y-108263870D01*
X134199700Y-108263870D02*
X134175890Y-108240060D01*
X134175890Y-108240060D02*
X134128271Y-108216251D01*
X134128271Y-108216251D02*
X133723509Y-108216251D01*
X133723509Y-107882917D02*
X133723509Y-107835298D01*
X133723509Y-107835298D02*
X133747319Y-107787679D01*
X133747319Y-107787679D02*
X133771128Y-107763869D01*
X133771128Y-107763869D02*
X133818747Y-107740060D01*
X133818747Y-107740060D02*
X133913985Y-107716250D01*
X133913985Y-107716250D02*
X134033033Y-107716250D01*
X134033033Y-107716250D02*
X134128271Y-107740060D01*
X134128271Y-107740060D02*
X134175890Y-107763869D01*
X134175890Y-107763869D02*
X134199700Y-107787679D01*
X134199700Y-107787679D02*
X134223509Y-107835298D01*
X134223509Y-107835298D02*
X134223509Y-107882917D01*
X134223509Y-107882917D02*
X134199700Y-107930536D01*
X134199700Y-107930536D02*
X134175890Y-107954345D01*
X134175890Y-107954345D02*
X134128271Y-107978155D01*
X134128271Y-107978155D02*
X134033033Y-108001964D01*
X134033033Y-108001964D02*
X133913985Y-108001964D01*
X133913985Y-108001964D02*
X133818747Y-107978155D01*
X133818747Y-107978155D02*
X133771128Y-107954345D01*
X133771128Y-107954345D02*
X133747319Y-107930536D01*
X133747319Y-107930536D02*
X133723509Y-107882917D01*
X134223509Y-107240060D02*
X134223509Y-107525774D01*
X134223509Y-107382917D02*
X133723509Y-107382917D01*
X133723509Y-107382917D02*
X133794938Y-107430536D01*
X133794938Y-107430536D02*
X133842557Y-107478155D01*
X133842557Y-107478155D02*
X133866366Y-107525774D01*
X133723509Y-106930537D02*
X133723509Y-106882918D01*
X133723509Y-106882918D02*
X133747319Y-106835299D01*
X133747319Y-106835299D02*
X133771128Y-106811489D01*
X133771128Y-106811489D02*
X133818747Y-106787680D01*
X133818747Y-106787680D02*
X133913985Y-106763870D01*
X133913985Y-106763870D02*
X134033033Y-106763870D01*
X134033033Y-106763870D02*
X134128271Y-106787680D01*
X134128271Y-106787680D02*
X134175890Y-106811489D01*
X134175890Y-106811489D02*
X134199700Y-106835299D01*
X134199700Y-106835299D02*
X134223509Y-106882918D01*
X134223509Y-106882918D02*
X134223509Y-106930537D01*
X134223509Y-106930537D02*
X134199700Y-106978156D01*
X134199700Y-106978156D02*
X134175890Y-107001965D01*
X134175890Y-107001965D02*
X134128271Y-107025775D01*
X134128271Y-107025775D02*
X134033033Y-107049584D01*
X134033033Y-107049584D02*
X133913985Y-107049584D01*
X133913985Y-107049584D02*
X133818747Y-107025775D01*
X133818747Y-107025775D02*
X133771128Y-107001965D01*
X133771128Y-107001965D02*
X133747319Y-106978156D01*
X133747319Y-106978156D02*
X133723509Y-106930537D01*
X133890176Y-106335299D02*
X134223509Y-106335299D01*
X133699700Y-106454347D02*
X134056842Y-106573394D01*
X134056842Y-106573394D02*
X134056842Y-106263871D01*
X134223509Y-106073395D02*
X133723509Y-106073395D01*
X133723509Y-106073395D02*
X133723509Y-105882919D01*
X133723509Y-105882919D02*
X133747319Y-105835300D01*
X133747319Y-105835300D02*
X133771128Y-105811490D01*
X133771128Y-105811490D02*
X133818747Y-105787681D01*
X133818747Y-105787681D02*
X133890176Y-105787681D01*
X133890176Y-105787681D02*
X133937795Y-105811490D01*
X133937795Y-105811490D02*
X133961604Y-105835300D01*
X133961604Y-105835300D02*
X133985414Y-105882919D01*
X133985414Y-105882919D02*
X133985414Y-106073395D01*
X133723509Y-105621014D02*
X134223509Y-105501966D01*
X134223509Y-105501966D02*
X133866366Y-105406728D01*
X133866366Y-105406728D02*
X134223509Y-105311490D01*
X134223509Y-105311490D02*
X133723509Y-105192443D01*
X134223509Y-104716252D02*
X133985414Y-104882918D01*
X134223509Y-105001966D02*
X133723509Y-105001966D01*
X133723509Y-105001966D02*
X133723509Y-104811490D01*
X133723509Y-104811490D02*
X133747319Y-104763871D01*
X133747319Y-104763871D02*
X133771128Y-104740061D01*
X133771128Y-104740061D02*
X133818747Y-104716252D01*
X133818747Y-104716252D02*
X133890176Y-104716252D01*
X133890176Y-104716252D02*
X133937795Y-104740061D01*
X133937795Y-104740061D02*
X133961604Y-104763871D01*
X133961604Y-104763871D02*
X133985414Y-104811490D01*
X133985414Y-104811490D02*
X133985414Y-105001966D01*
D12*
X153351294Y-104107269D02*
X153351294Y-103107269D01*
X153351294Y-103107269D02*
X153732246Y-103107269D01*
X153732246Y-103107269D02*
X153827484Y-103154888D01*
X153827484Y-103154888D02*
X153875103Y-103202507D01*
X153875103Y-103202507D02*
X153922722Y-103297745D01*
X153922722Y-103297745D02*
X153922722Y-103440602D01*
X153922722Y-103440602D02*
X153875103Y-103535840D01*
X153875103Y-103535840D02*
X153827484Y-103583459D01*
X153827484Y-103583459D02*
X153732246Y-103631078D01*
X153732246Y-103631078D02*
X153351294Y-103631078D01*
X154351294Y-104107269D02*
X154351294Y-103107269D01*
X155398912Y-104012030D02*
X155351293Y-104059650D01*
X155351293Y-104059650D02*
X155208436Y-104107269D01*
X155208436Y-104107269D02*
X155113198Y-104107269D01*
X155113198Y-104107269D02*
X154970341Y-104059650D01*
X154970341Y-104059650D02*
X154875103Y-103964411D01*
X154875103Y-103964411D02*
X154827484Y-103869173D01*
X154827484Y-103869173D02*
X154779865Y-103678697D01*
X154779865Y-103678697D02*
X154779865Y-103535840D01*
X154779865Y-103535840D02*
X154827484Y-103345364D01*
X154827484Y-103345364D02*
X154875103Y-103250126D01*
X154875103Y-103250126D02*
X154970341Y-103154888D01*
X154970341Y-103154888D02*
X155113198Y-103107269D01*
X155113198Y-103107269D02*
X155208436Y-103107269D01*
X155208436Y-103107269D02*
X155351293Y-103154888D01*
X155351293Y-103154888D02*
X155398912Y-103202507D01*
X156017960Y-103107269D02*
X156208436Y-103107269D01*
X156208436Y-103107269D02*
X156303674Y-103154888D01*
X156303674Y-103154888D02*
X156398912Y-103250126D01*
X156398912Y-103250126D02*
X156446531Y-103440602D01*
X156446531Y-103440602D02*
X156446531Y-103773935D01*
X156446531Y-103773935D02*
X156398912Y-103964411D01*
X156398912Y-103964411D02*
X156303674Y-104059650D01*
X156303674Y-104059650D02*
X156208436Y-104107269D01*
X156208436Y-104107269D02*
X156017960Y-104107269D01*
X156017960Y-104107269D02*
X155922722Y-104059650D01*
X155922722Y-104059650D02*
X155827484Y-103964411D01*
X155827484Y-103964411D02*
X155779865Y-103773935D01*
X155779865Y-103773935D02*
X155779865Y-103440602D01*
X155779865Y-103440602D02*
X155827484Y-103250126D01*
X155827484Y-103250126D02*
X155922722Y-103154888D01*
X155922722Y-103154888D02*
X156017960Y-103107269D01*
X157589389Y-103202507D02*
X157637008Y-103154888D01*
X157637008Y-103154888D02*
X157732246Y-103107269D01*
X157732246Y-103107269D02*
X157970341Y-103107269D01*
X157970341Y-103107269D02*
X158065579Y-103154888D01*
X158065579Y-103154888D02*
X158113198Y-103202507D01*
X158113198Y-103202507D02*
X158160817Y-103297745D01*
X158160817Y-103297745D02*
X158160817Y-103392983D01*
X158160817Y-103392983D02*
X158113198Y-103535840D01*
X158113198Y-103535840D02*
X157541770Y-104107269D01*
X157541770Y-104107269D02*
X158160817Y-104107269D01*
X158494151Y-103107269D02*
X158732246Y-104107269D01*
X158732246Y-104107269D02*
X158922722Y-103392983D01*
X158922722Y-103392983D02*
X159113198Y-104107269D01*
X159113198Y-104107269D02*
X159351294Y-103107269D01*
X155641770Y-104782269D02*
X155641770Y-105591792D01*
X155641770Y-105591792D02*
X155689389Y-105687030D01*
X155689389Y-105687030D02*
X155737008Y-105734650D01*
X155737008Y-105734650D02*
X155832246Y-105782269D01*
X155832246Y-105782269D02*
X156022722Y-105782269D01*
X156022722Y-105782269D02*
X156117960Y-105734650D01*
X156117960Y-105734650D02*
X156165579Y-105687030D01*
X156165579Y-105687030D02*
X156213198Y-105591792D01*
X156213198Y-105591792D02*
X156213198Y-104782269D01*
X156594151Y-104782269D02*
X157260817Y-104782269D01*
X157260817Y-104782269D02*
X156832246Y-105782269D01*
D10*
X127542927Y-128768434D02*
X127257213Y-128768434D01*
X127400070Y-128768434D02*
X127400070Y-128268434D01*
X127400070Y-128268434D02*
X127352451Y-128339863D01*
X127352451Y-128339863D02*
X127304832Y-128387482D01*
X127304832Y-128387482D02*
X127257213Y-128411291D01*
X127852450Y-128268434D02*
X127900069Y-128268434D01*
X127900069Y-128268434D02*
X127947688Y-128292244D01*
X127947688Y-128292244D02*
X127971498Y-128316053D01*
X127971498Y-128316053D02*
X127995307Y-128363672D01*
X127995307Y-128363672D02*
X128019117Y-128458910D01*
X128019117Y-128458910D02*
X128019117Y-128577958D01*
X128019117Y-128577958D02*
X127995307Y-128673196D01*
X127995307Y-128673196D02*
X127971498Y-128720815D01*
X127971498Y-128720815D02*
X127947688Y-128744625D01*
X127947688Y-128744625D02*
X127900069Y-128768434D01*
X127900069Y-128768434D02*
X127852450Y-128768434D01*
X127852450Y-128768434D02*
X127804831Y-128744625D01*
X127804831Y-128744625D02*
X127781022Y-128720815D01*
X127781022Y-128720815D02*
X127757212Y-128673196D01*
X127757212Y-128673196D02*
X127733403Y-128577958D01*
X127733403Y-128577958D02*
X127733403Y-128458910D01*
X127733403Y-128458910D02*
X127757212Y-128363672D01*
X127757212Y-128363672D02*
X127781022Y-128316053D01*
X127781022Y-128316053D02*
X127804831Y-128292244D01*
X127804831Y-128292244D02*
X127852450Y-128268434D01*
X128328640Y-128268434D02*
X128376259Y-128268434D01*
X128376259Y-128268434D02*
X128423878Y-128292244D01*
X128423878Y-128292244D02*
X128447688Y-128316053D01*
X128447688Y-128316053D02*
X128471497Y-128363672D01*
X128471497Y-128363672D02*
X128495307Y-128458910D01*
X128495307Y-128458910D02*
X128495307Y-128577958D01*
X128495307Y-128577958D02*
X128471497Y-128673196D01*
X128471497Y-128673196D02*
X128447688Y-128720815D01*
X128447688Y-128720815D02*
X128423878Y-128744625D01*
X128423878Y-128744625D02*
X128376259Y-128768434D01*
X128376259Y-128768434D02*
X128328640Y-128768434D01*
X128328640Y-128768434D02*
X128281021Y-128744625D01*
X128281021Y-128744625D02*
X128257212Y-128720815D01*
X128257212Y-128720815D02*
X128233402Y-128673196D01*
X128233402Y-128673196D02*
X128209593Y-128577958D01*
X128209593Y-128577958D02*
X128209593Y-128458910D01*
X128209593Y-128458910D02*
X128233402Y-128363672D01*
X128233402Y-128363672D02*
X128257212Y-128316053D01*
X128257212Y-128316053D02*
X128281021Y-128292244D01*
X128281021Y-128292244D02*
X128328640Y-128268434D01*
X128709592Y-128435101D02*
X128709592Y-128768434D01*
X128709592Y-128482720D02*
X128733402Y-128458910D01*
X128733402Y-128458910D02*
X128781021Y-128435101D01*
X128781021Y-128435101D02*
X128852449Y-128435101D01*
X128852449Y-128435101D02*
X128900068Y-128458910D01*
X128900068Y-128458910D02*
X128923878Y-128506529D01*
X128923878Y-128506529D02*
X128923878Y-128768434D01*
D11*
X127739716Y-127382730D02*
X127715907Y-127406540D01*
X127715907Y-127406540D02*
X127644478Y-127430349D01*
X127644478Y-127430349D02*
X127596859Y-127430349D01*
X127596859Y-127430349D02*
X127525431Y-127406540D01*
X127525431Y-127406540D02*
X127477812Y-127358920D01*
X127477812Y-127358920D02*
X127454002Y-127311301D01*
X127454002Y-127311301D02*
X127430193Y-127216063D01*
X127430193Y-127216063D02*
X127430193Y-127144635D01*
X127430193Y-127144635D02*
X127454002Y-127049397D01*
X127454002Y-127049397D02*
X127477812Y-127001778D01*
X127477812Y-127001778D02*
X127525431Y-126954159D01*
X127525431Y-126954159D02*
X127596859Y-126930349D01*
X127596859Y-126930349D02*
X127644478Y-126930349D01*
X127644478Y-126930349D02*
X127715907Y-126954159D01*
X127715907Y-126954159D02*
X127739716Y-126977968D01*
X127930193Y-126977968D02*
X127954002Y-126954159D01*
X127954002Y-126954159D02*
X128001621Y-126930349D01*
X128001621Y-126930349D02*
X128120669Y-126930349D01*
X128120669Y-126930349D02*
X128168288Y-126954159D01*
X128168288Y-126954159D02*
X128192097Y-126977968D01*
X128192097Y-126977968D02*
X128215907Y-127025587D01*
X128215907Y-127025587D02*
X128215907Y-127073206D01*
X128215907Y-127073206D02*
X128192097Y-127144635D01*
X128192097Y-127144635D02*
X127906383Y-127430349D01*
X127906383Y-127430349D02*
X128215907Y-127430349D01*
D10*
X133945759Y-126959710D02*
X133945759Y-126673996D01*
X134445759Y-126816853D02*
X133945759Y-126816853D01*
X133945759Y-126554949D02*
X134445759Y-126221616D01*
X133945759Y-126221616D02*
X134445759Y-126554949D01*
X133945759Y-126031140D02*
X134350521Y-126031140D01*
X134350521Y-126031140D02*
X134398140Y-126007330D01*
X134398140Y-126007330D02*
X134421950Y-125983521D01*
X134421950Y-125983521D02*
X134445759Y-125935902D01*
X134445759Y-125935902D02*
X134445759Y-125840664D01*
X134445759Y-125840664D02*
X134421950Y-125793045D01*
X134421950Y-125793045D02*
X134398140Y-125769235D01*
X134398140Y-125769235D02*
X134350521Y-125745426D01*
X134350521Y-125745426D02*
X133945759Y-125745426D01*
X133945759Y-125412092D02*
X133945759Y-125364473D01*
X133945759Y-125364473D02*
X133969569Y-125316854D01*
X133969569Y-125316854D02*
X133993378Y-125293044D01*
X133993378Y-125293044D02*
X134040997Y-125269235D01*
X134040997Y-125269235D02*
X134136235Y-125245425D01*
X134136235Y-125245425D02*
X134255283Y-125245425D01*
X134255283Y-125245425D02*
X134350521Y-125269235D01*
X134350521Y-125269235D02*
X134398140Y-125293044D01*
X134398140Y-125293044D02*
X134421950Y-125316854D01*
X134421950Y-125316854D02*
X134445759Y-125364473D01*
X134445759Y-125364473D02*
X134445759Y-125412092D01*
X134445759Y-125412092D02*
X134421950Y-125459711D01*
X134421950Y-125459711D02*
X134398140Y-125483520D01*
X134398140Y-125483520D02*
X134350521Y-125507330D01*
X134350521Y-125507330D02*
X134255283Y-125531139D01*
X134255283Y-125531139D02*
X134136235Y-125531139D01*
X134136235Y-125531139D02*
X134040997Y-125507330D01*
X134040997Y-125507330D02*
X133993378Y-125483520D01*
X133993378Y-125483520D02*
X133969569Y-125459711D01*
X133969569Y-125459711D02*
X133945759Y-125412092D01*
X134445759Y-124769235D02*
X134445759Y-125054949D01*
X134445759Y-124912092D02*
X133945759Y-124912092D01*
X133945759Y-124912092D02*
X134017188Y-124959711D01*
X134017188Y-124959711D02*
X134064807Y-125007330D01*
X134064807Y-125007330D02*
X134088616Y-125054949D01*
X133945759Y-124459712D02*
X133945759Y-124412093D01*
X133945759Y-124412093D02*
X133969569Y-124364474D01*
X133969569Y-124364474D02*
X133993378Y-124340664D01*
X133993378Y-124340664D02*
X134040997Y-124316855D01*
X134040997Y-124316855D02*
X134136235Y-124293045D01*
X134136235Y-124293045D02*
X134255283Y-124293045D01*
X134255283Y-124293045D02*
X134350521Y-124316855D01*
X134350521Y-124316855D02*
X134398140Y-124340664D01*
X134398140Y-124340664D02*
X134421950Y-124364474D01*
X134421950Y-124364474D02*
X134445759Y-124412093D01*
X134445759Y-124412093D02*
X134445759Y-124459712D01*
X134445759Y-124459712D02*
X134421950Y-124507331D01*
X134421950Y-124507331D02*
X134398140Y-124531140D01*
X134398140Y-124531140D02*
X134350521Y-124554950D01*
X134350521Y-124554950D02*
X134255283Y-124578759D01*
X134255283Y-124578759D02*
X134136235Y-124578759D01*
X134136235Y-124578759D02*
X134040997Y-124554950D01*
X134040997Y-124554950D02*
X133993378Y-124531140D01*
X133993378Y-124531140D02*
X133969569Y-124507331D01*
X133969569Y-124507331D02*
X133945759Y-124459712D01*
X134112426Y-123864474D02*
X134445759Y-123864474D01*
X133921950Y-123983522D02*
X134279092Y-124102569D01*
X134279092Y-124102569D02*
X134279092Y-123793046D01*
X134445759Y-123602570D02*
X133945759Y-123602570D01*
X133945759Y-123602570D02*
X133945759Y-123412094D01*
X133945759Y-123412094D02*
X133969569Y-123364475D01*
X133969569Y-123364475D02*
X133993378Y-123340665D01*
X133993378Y-123340665D02*
X134040997Y-123316856D01*
X134040997Y-123316856D02*
X134112426Y-123316856D01*
X134112426Y-123316856D02*
X134160045Y-123340665D01*
X134160045Y-123340665D02*
X134183854Y-123364475D01*
X134183854Y-123364475D02*
X134207664Y-123412094D01*
X134207664Y-123412094D02*
X134207664Y-123602570D01*
X133945759Y-123150189D02*
X134445759Y-123031141D01*
X134445759Y-123031141D02*
X134088616Y-122935903D01*
X134088616Y-122935903D02*
X134445759Y-122840665D01*
X134445759Y-122840665D02*
X133945759Y-122721618D01*
X134445759Y-122245427D02*
X134207664Y-122412093D01*
X134445759Y-122531141D02*
X133945759Y-122531141D01*
X133945759Y-122531141D02*
X133945759Y-122340665D01*
X133945759Y-122340665D02*
X133969569Y-122293046D01*
X133969569Y-122293046D02*
X133993378Y-122269236D01*
X133993378Y-122269236D02*
X134040997Y-122245427D01*
X134040997Y-122245427D02*
X134112426Y-122245427D01*
X134112426Y-122245427D02*
X134160045Y-122269236D01*
X134160045Y-122269236D02*
X134183854Y-122293046D01*
X134183854Y-122293046D02*
X134207664Y-122340665D01*
X134207664Y-122340665D02*
X134207664Y-122531141D01*
X131145477Y-93714584D02*
X130859763Y-93714584D01*
X131002620Y-93714584D02*
X131002620Y-93214584D01*
X131002620Y-93214584D02*
X130955001Y-93286013D01*
X130955001Y-93286013D02*
X130907382Y-93333632D01*
X130907382Y-93333632D02*
X130859763Y-93357441D01*
X131455000Y-93214584D02*
X131502619Y-93214584D01*
X131502619Y-93214584D02*
X131550238Y-93238394D01*
X131550238Y-93238394D02*
X131574048Y-93262203D01*
X131574048Y-93262203D02*
X131597857Y-93309822D01*
X131597857Y-93309822D02*
X131621667Y-93405060D01*
X131621667Y-93405060D02*
X131621667Y-93524108D01*
X131621667Y-93524108D02*
X131597857Y-93619346D01*
X131597857Y-93619346D02*
X131574048Y-93666965D01*
X131574048Y-93666965D02*
X131550238Y-93690775D01*
X131550238Y-93690775D02*
X131502619Y-93714584D01*
X131502619Y-93714584D02*
X131455000Y-93714584D01*
X131455000Y-93714584D02*
X131407381Y-93690775D01*
X131407381Y-93690775D02*
X131383572Y-93666965D01*
X131383572Y-93666965D02*
X131359762Y-93619346D01*
X131359762Y-93619346D02*
X131335953Y-93524108D01*
X131335953Y-93524108D02*
X131335953Y-93405060D01*
X131335953Y-93405060D02*
X131359762Y-93309822D01*
X131359762Y-93309822D02*
X131383572Y-93262203D01*
X131383572Y-93262203D02*
X131407381Y-93238394D01*
X131407381Y-93238394D02*
X131455000Y-93214584D01*
X131931190Y-93214584D02*
X131978809Y-93214584D01*
X131978809Y-93214584D02*
X132026428Y-93238394D01*
X132026428Y-93238394D02*
X132050238Y-93262203D01*
X132050238Y-93262203D02*
X132074047Y-93309822D01*
X132074047Y-93309822D02*
X132097857Y-93405060D01*
X132097857Y-93405060D02*
X132097857Y-93524108D01*
X132097857Y-93524108D02*
X132074047Y-93619346D01*
X132074047Y-93619346D02*
X132050238Y-93666965D01*
X132050238Y-93666965D02*
X132026428Y-93690775D01*
X132026428Y-93690775D02*
X131978809Y-93714584D01*
X131978809Y-93714584D02*
X131931190Y-93714584D01*
X131931190Y-93714584D02*
X131883571Y-93690775D01*
X131883571Y-93690775D02*
X131859762Y-93666965D01*
X131859762Y-93666965D02*
X131835952Y-93619346D01*
X131835952Y-93619346D02*
X131812143Y-93524108D01*
X131812143Y-93524108D02*
X131812143Y-93405060D01*
X131812143Y-93405060D02*
X131835952Y-93309822D01*
X131835952Y-93309822D02*
X131859762Y-93262203D01*
X131859762Y-93262203D02*
X131883571Y-93238394D01*
X131883571Y-93238394D02*
X131931190Y-93214584D01*
X132312142Y-93381251D02*
X132312142Y-93714584D01*
X132312142Y-93428870D02*
X132335952Y-93405060D01*
X132335952Y-93405060D02*
X132383571Y-93381251D01*
X132383571Y-93381251D02*
X132454999Y-93381251D01*
X132454999Y-93381251D02*
X132502618Y-93405060D01*
X132502618Y-93405060D02*
X132526428Y-93452679D01*
X132526428Y-93452679D02*
X132526428Y-93714584D01*
D11*
X131396996Y-92293230D02*
X131373187Y-92317040D01*
X131373187Y-92317040D02*
X131301758Y-92340849D01*
X131301758Y-92340849D02*
X131254139Y-92340849D01*
X131254139Y-92340849D02*
X131182711Y-92317040D01*
X131182711Y-92317040D02*
X131135092Y-92269420D01*
X131135092Y-92269420D02*
X131111282Y-92221801D01*
X131111282Y-92221801D02*
X131087473Y-92126563D01*
X131087473Y-92126563D02*
X131087473Y-92055135D01*
X131087473Y-92055135D02*
X131111282Y-91959897D01*
X131111282Y-91959897D02*
X131135092Y-91912278D01*
X131135092Y-91912278D02*
X131182711Y-91864659D01*
X131182711Y-91864659D02*
X131254139Y-91840849D01*
X131254139Y-91840849D02*
X131301758Y-91840849D01*
X131301758Y-91840849D02*
X131373187Y-91864659D01*
X131373187Y-91864659D02*
X131396996Y-91888468D01*
X131873187Y-92340849D02*
X131587473Y-92340849D01*
X131730330Y-92340849D02*
X131730330Y-91840849D01*
X131730330Y-91840849D02*
X131682711Y-91912278D01*
X131682711Y-91912278D02*
X131635092Y-91959897D01*
X131635092Y-91959897D02*
X131587473Y-91983706D01*
X132182710Y-91840849D02*
X132230329Y-91840849D01*
X132230329Y-91840849D02*
X132277948Y-91864659D01*
X132277948Y-91864659D02*
X132301758Y-91888468D01*
X132301758Y-91888468D02*
X132325567Y-91936087D01*
X132325567Y-91936087D02*
X132349377Y-92031325D01*
X132349377Y-92031325D02*
X132349377Y-92150373D01*
X132349377Y-92150373D02*
X132325567Y-92245611D01*
X132325567Y-92245611D02*
X132301758Y-92293230D01*
X132301758Y-92293230D02*
X132277948Y-92317040D01*
X132277948Y-92317040D02*
X132230329Y-92340849D01*
X132230329Y-92340849D02*
X132182710Y-92340849D01*
X132182710Y-92340849D02*
X132135091Y-92317040D01*
X132135091Y-92317040D02*
X132111282Y-92293230D01*
X132111282Y-92293230D02*
X132087472Y-92245611D01*
X132087472Y-92245611D02*
X132063663Y-92150373D01*
X132063663Y-92150373D02*
X132063663Y-92031325D01*
X132063663Y-92031325D02*
X132087472Y-91936087D01*
X132087472Y-91936087D02*
X132111282Y-91888468D01*
X132111282Y-91888468D02*
X132135091Y-91864659D01*
X132135091Y-91864659D02*
X132182710Y-91840849D01*
D10*
X127494227Y-84824584D02*
X127208513Y-84824584D01*
X127351370Y-84824584D02*
X127351370Y-84324584D01*
X127351370Y-84324584D02*
X127303751Y-84396013D01*
X127303751Y-84396013D02*
X127256132Y-84443632D01*
X127256132Y-84443632D02*
X127208513Y-84467441D01*
X127803750Y-84324584D02*
X127851369Y-84324584D01*
X127851369Y-84324584D02*
X127898988Y-84348394D01*
X127898988Y-84348394D02*
X127922798Y-84372203D01*
X127922798Y-84372203D02*
X127946607Y-84419822D01*
X127946607Y-84419822D02*
X127970417Y-84515060D01*
X127970417Y-84515060D02*
X127970417Y-84634108D01*
X127970417Y-84634108D02*
X127946607Y-84729346D01*
X127946607Y-84729346D02*
X127922798Y-84776965D01*
X127922798Y-84776965D02*
X127898988Y-84800775D01*
X127898988Y-84800775D02*
X127851369Y-84824584D01*
X127851369Y-84824584D02*
X127803750Y-84824584D01*
X127803750Y-84824584D02*
X127756131Y-84800775D01*
X127756131Y-84800775D02*
X127732322Y-84776965D01*
X127732322Y-84776965D02*
X127708512Y-84729346D01*
X127708512Y-84729346D02*
X127684703Y-84634108D01*
X127684703Y-84634108D02*
X127684703Y-84515060D01*
X127684703Y-84515060D02*
X127708512Y-84419822D01*
X127708512Y-84419822D02*
X127732322Y-84372203D01*
X127732322Y-84372203D02*
X127756131Y-84348394D01*
X127756131Y-84348394D02*
X127803750Y-84324584D01*
X128279940Y-84324584D02*
X128327559Y-84324584D01*
X128327559Y-84324584D02*
X128375178Y-84348394D01*
X128375178Y-84348394D02*
X128398988Y-84372203D01*
X128398988Y-84372203D02*
X128422797Y-84419822D01*
X128422797Y-84419822D02*
X128446607Y-84515060D01*
X128446607Y-84515060D02*
X128446607Y-84634108D01*
X128446607Y-84634108D02*
X128422797Y-84729346D01*
X128422797Y-84729346D02*
X128398988Y-84776965D01*
X128398988Y-84776965D02*
X128375178Y-84800775D01*
X128375178Y-84800775D02*
X128327559Y-84824584D01*
X128327559Y-84824584D02*
X128279940Y-84824584D01*
X128279940Y-84824584D02*
X128232321Y-84800775D01*
X128232321Y-84800775D02*
X128208512Y-84776965D01*
X128208512Y-84776965D02*
X128184702Y-84729346D01*
X128184702Y-84729346D02*
X128160893Y-84634108D01*
X128160893Y-84634108D02*
X128160893Y-84515060D01*
X128160893Y-84515060D02*
X128184702Y-84419822D01*
X128184702Y-84419822D02*
X128208512Y-84372203D01*
X128208512Y-84372203D02*
X128232321Y-84348394D01*
X128232321Y-84348394D02*
X128279940Y-84324584D01*
X128660892Y-84491251D02*
X128660892Y-84824584D01*
X128660892Y-84538870D02*
X128684702Y-84515060D01*
X128684702Y-84515060D02*
X128732321Y-84491251D01*
X128732321Y-84491251D02*
X128803749Y-84491251D01*
X128803749Y-84491251D02*
X128851368Y-84515060D01*
X128851368Y-84515060D02*
X128875178Y-84562679D01*
X128875178Y-84562679D02*
X128875178Y-84824584D01*
D11*
X127320266Y-83403230D02*
X127296457Y-83427040D01*
X127296457Y-83427040D02*
X127225028Y-83450849D01*
X127225028Y-83450849D02*
X127177409Y-83450849D01*
X127177409Y-83450849D02*
X127105981Y-83427040D01*
X127105981Y-83427040D02*
X127058362Y-83379420D01*
X127058362Y-83379420D02*
X127034552Y-83331801D01*
X127034552Y-83331801D02*
X127010743Y-83236563D01*
X127010743Y-83236563D02*
X127010743Y-83165135D01*
X127010743Y-83165135D02*
X127034552Y-83069897D01*
X127034552Y-83069897D02*
X127058362Y-83022278D01*
X127058362Y-83022278D02*
X127105981Y-82974659D01*
X127105981Y-82974659D02*
X127177409Y-82950849D01*
X127177409Y-82950849D02*
X127225028Y-82950849D01*
X127225028Y-82950849D02*
X127296457Y-82974659D01*
X127296457Y-82974659D02*
X127320266Y-82998468D01*
X127796457Y-83450849D02*
X127510743Y-83450849D01*
X127653600Y-83450849D02*
X127653600Y-82950849D01*
X127653600Y-82950849D02*
X127605981Y-83022278D01*
X127605981Y-83022278D02*
X127558362Y-83069897D01*
X127558362Y-83069897D02*
X127510743Y-83093706D01*
D10*
X131145477Y-84869034D02*
X130859763Y-84869034D01*
X131002620Y-84869034D02*
X131002620Y-84369034D01*
X131002620Y-84369034D02*
X130955001Y-84440463D01*
X130955001Y-84440463D02*
X130907382Y-84488082D01*
X130907382Y-84488082D02*
X130859763Y-84511891D01*
X131455000Y-84369034D02*
X131502619Y-84369034D01*
X131502619Y-84369034D02*
X131550238Y-84392844D01*
X131550238Y-84392844D02*
X131574048Y-84416653D01*
X131574048Y-84416653D02*
X131597857Y-84464272D01*
X131597857Y-84464272D02*
X131621667Y-84559510D01*
X131621667Y-84559510D02*
X131621667Y-84678558D01*
X131621667Y-84678558D02*
X131597857Y-84773796D01*
X131597857Y-84773796D02*
X131574048Y-84821415D01*
X131574048Y-84821415D02*
X131550238Y-84845225D01*
X131550238Y-84845225D02*
X131502619Y-84869034D01*
X131502619Y-84869034D02*
X131455000Y-84869034D01*
X131455000Y-84869034D02*
X131407381Y-84845225D01*
X131407381Y-84845225D02*
X131383572Y-84821415D01*
X131383572Y-84821415D02*
X131359762Y-84773796D01*
X131359762Y-84773796D02*
X131335953Y-84678558D01*
X131335953Y-84678558D02*
X131335953Y-84559510D01*
X131335953Y-84559510D02*
X131359762Y-84464272D01*
X131359762Y-84464272D02*
X131383572Y-84416653D01*
X131383572Y-84416653D02*
X131407381Y-84392844D01*
X131407381Y-84392844D02*
X131455000Y-84369034D01*
X131931190Y-84369034D02*
X131978809Y-84369034D01*
X131978809Y-84369034D02*
X132026428Y-84392844D01*
X132026428Y-84392844D02*
X132050238Y-84416653D01*
X132050238Y-84416653D02*
X132074047Y-84464272D01*
X132074047Y-84464272D02*
X132097857Y-84559510D01*
X132097857Y-84559510D02*
X132097857Y-84678558D01*
X132097857Y-84678558D02*
X132074047Y-84773796D01*
X132074047Y-84773796D02*
X132050238Y-84821415D01*
X132050238Y-84821415D02*
X132026428Y-84845225D01*
X132026428Y-84845225D02*
X131978809Y-84869034D01*
X131978809Y-84869034D02*
X131931190Y-84869034D01*
X131931190Y-84869034D02*
X131883571Y-84845225D01*
X131883571Y-84845225D02*
X131859762Y-84821415D01*
X131859762Y-84821415D02*
X131835952Y-84773796D01*
X131835952Y-84773796D02*
X131812143Y-84678558D01*
X131812143Y-84678558D02*
X131812143Y-84559510D01*
X131812143Y-84559510D02*
X131835952Y-84464272D01*
X131835952Y-84464272D02*
X131859762Y-84416653D01*
X131859762Y-84416653D02*
X131883571Y-84392844D01*
X131883571Y-84392844D02*
X131931190Y-84369034D01*
X132312142Y-84535701D02*
X132312142Y-84869034D01*
X132312142Y-84583320D02*
X132335952Y-84559510D01*
X132335952Y-84559510D02*
X132383571Y-84535701D01*
X132383571Y-84535701D02*
X132454999Y-84535701D01*
X132454999Y-84535701D02*
X132502618Y-84559510D01*
X132502618Y-84559510D02*
X132526428Y-84607129D01*
X132526428Y-84607129D02*
X132526428Y-84869034D01*
D11*
X131590641Y-83403230D02*
X131566832Y-83427040D01*
X131566832Y-83427040D02*
X131495403Y-83450849D01*
X131495403Y-83450849D02*
X131447784Y-83450849D01*
X131447784Y-83450849D02*
X131376356Y-83427040D01*
X131376356Y-83427040D02*
X131328737Y-83379420D01*
X131328737Y-83379420D02*
X131304927Y-83331801D01*
X131304927Y-83331801D02*
X131281118Y-83236563D01*
X131281118Y-83236563D02*
X131281118Y-83165135D01*
X131281118Y-83165135D02*
X131304927Y-83069897D01*
X131304927Y-83069897D02*
X131328737Y-83022278D01*
X131328737Y-83022278D02*
X131376356Y-82974659D01*
X131376356Y-82974659D02*
X131447784Y-82950849D01*
X131447784Y-82950849D02*
X131495403Y-82950849D01*
X131495403Y-82950849D02*
X131566832Y-82974659D01*
X131566832Y-82974659D02*
X131590641Y-82998468D01*
X131757308Y-82950849D02*
X132090641Y-82950849D01*
X132090641Y-82950849D02*
X131876356Y-83450849D01*
D10*
X122087693Y-81113034D02*
X122087693Y-80613034D01*
X122087693Y-80613034D02*
X122278169Y-80613034D01*
X122278169Y-80613034D02*
X122325788Y-80636844D01*
X122325788Y-80636844D02*
X122349598Y-80660653D01*
X122349598Y-80660653D02*
X122373407Y-80708272D01*
X122373407Y-80708272D02*
X122373407Y-80779701D01*
X122373407Y-80779701D02*
X122349598Y-80827320D01*
X122349598Y-80827320D02*
X122325788Y-80851129D01*
X122325788Y-80851129D02*
X122278169Y-80874939D01*
X122278169Y-80874939D02*
X122087693Y-80874939D01*
X122587693Y-81113034D02*
X122587693Y-80613034D01*
X122587693Y-80613034D02*
X122754360Y-80970177D01*
X122754360Y-80970177D02*
X122921026Y-80613034D01*
X122921026Y-80613034D02*
X122921026Y-81113034D01*
X123135313Y-80660653D02*
X123159122Y-80636844D01*
X123159122Y-80636844D02*
X123206741Y-80613034D01*
X123206741Y-80613034D02*
X123325789Y-80613034D01*
X123325789Y-80613034D02*
X123373408Y-80636844D01*
X123373408Y-80636844D02*
X123397217Y-80660653D01*
X123397217Y-80660653D02*
X123421027Y-80708272D01*
X123421027Y-80708272D02*
X123421027Y-80755891D01*
X123421027Y-80755891D02*
X123397217Y-80827320D01*
X123397217Y-80827320D02*
X123111503Y-81113034D01*
X123111503Y-81113034D02*
X123421027Y-81113034D01*
X123873407Y-80613034D02*
X123635312Y-80613034D01*
X123635312Y-80613034D02*
X123611503Y-80851129D01*
X123611503Y-80851129D02*
X123635312Y-80827320D01*
X123635312Y-80827320D02*
X123682931Y-80803510D01*
X123682931Y-80803510D02*
X123801979Y-80803510D01*
X123801979Y-80803510D02*
X123849598Y-80827320D01*
X123849598Y-80827320D02*
X123873407Y-80851129D01*
X123873407Y-80851129D02*
X123897217Y-80898748D01*
X123897217Y-80898748D02*
X123897217Y-81017796D01*
X123897217Y-81017796D02*
X123873407Y-81065415D01*
X123873407Y-81065415D02*
X123849598Y-81089225D01*
X123849598Y-81089225D02*
X123801979Y-81113034D01*
X123801979Y-81113034D02*
X123682931Y-81113034D01*
X123682931Y-81113034D02*
X123635312Y-81089225D01*
X123635312Y-81089225D02*
X123611503Y-81065415D01*
X124325788Y-80779701D02*
X124325788Y-81113034D01*
X124206740Y-80589225D02*
X124087693Y-80946367D01*
X124087693Y-80946367D02*
X124397216Y-80946367D01*
X124587692Y-80922558D02*
X124968645Y-80922558D01*
X125468645Y-81113034D02*
X125182931Y-81113034D01*
X125325788Y-81113034D02*
X125325788Y-80613034D01*
X125325788Y-80613034D02*
X125278169Y-80684463D01*
X125278169Y-80684463D02*
X125230550Y-80732082D01*
X125230550Y-80732082D02*
X125182931Y-80755891D01*
X125682930Y-80922558D02*
X126063883Y-80922558D01*
X126397216Y-80613034D02*
X126444835Y-80613034D01*
X126444835Y-80613034D02*
X126492454Y-80636844D01*
X126492454Y-80636844D02*
X126516264Y-80660653D01*
X126516264Y-80660653D02*
X126540073Y-80708272D01*
X126540073Y-80708272D02*
X126563883Y-80803510D01*
X126563883Y-80803510D02*
X126563883Y-80922558D01*
X126563883Y-80922558D02*
X126540073Y-81017796D01*
X126540073Y-81017796D02*
X126516264Y-81065415D01*
X126516264Y-81065415D02*
X126492454Y-81089225D01*
X126492454Y-81089225D02*
X126444835Y-81113034D01*
X126444835Y-81113034D02*
X126397216Y-81113034D01*
X126397216Y-81113034D02*
X126349597Y-81089225D01*
X126349597Y-81089225D02*
X126325788Y-81065415D01*
X126325788Y-81065415D02*
X126301978Y-81017796D01*
X126301978Y-81017796D02*
X126278169Y-80922558D01*
X126278169Y-80922558D02*
X126278169Y-80803510D01*
X126278169Y-80803510D02*
X126301978Y-80708272D01*
X126301978Y-80708272D02*
X126325788Y-80660653D01*
X126325788Y-80660653D02*
X126349597Y-80636844D01*
X126349597Y-80636844D02*
X126397216Y-80613034D01*
X126730549Y-80613034D02*
X127040073Y-80613034D01*
X127040073Y-80613034D02*
X126873406Y-80803510D01*
X126873406Y-80803510D02*
X126944835Y-80803510D01*
X126944835Y-80803510D02*
X126992454Y-80827320D01*
X126992454Y-80827320D02*
X127016263Y-80851129D01*
X127016263Y-80851129D02*
X127040073Y-80898748D01*
X127040073Y-80898748D02*
X127040073Y-81017796D01*
X127040073Y-81017796D02*
X127016263Y-81065415D01*
X127016263Y-81065415D02*
X126992454Y-81089225D01*
X126992454Y-81089225D02*
X126944835Y-81113034D01*
X126944835Y-81113034D02*
X126801978Y-81113034D01*
X126801978Y-81113034D02*
X126754359Y-81089225D01*
X126754359Y-81089225D02*
X126730549Y-81065415D01*
X127254358Y-80922558D02*
X127635311Y-80922558D01*
X127825787Y-80613034D02*
X127944835Y-81113034D01*
X127944835Y-81113034D02*
X128040073Y-80755891D01*
X128040073Y-80755891D02*
X128135311Y-81113034D01*
X128135311Y-81113034D02*
X128254359Y-80613034D01*
X128444835Y-80922558D02*
X128825788Y-80922558D01*
X129135312Y-80827320D02*
X129087693Y-80803510D01*
X129087693Y-80803510D02*
X129063883Y-80779701D01*
X129063883Y-80779701D02*
X129040074Y-80732082D01*
X129040074Y-80732082D02*
X129040074Y-80708272D01*
X129040074Y-80708272D02*
X129063883Y-80660653D01*
X129063883Y-80660653D02*
X129087693Y-80636844D01*
X129087693Y-80636844D02*
X129135312Y-80613034D01*
X129135312Y-80613034D02*
X129230550Y-80613034D01*
X129230550Y-80613034D02*
X129278169Y-80636844D01*
X129278169Y-80636844D02*
X129301978Y-80660653D01*
X129301978Y-80660653D02*
X129325788Y-80708272D01*
X129325788Y-80708272D02*
X129325788Y-80732082D01*
X129325788Y-80732082D02*
X129301978Y-80779701D01*
X129301978Y-80779701D02*
X129278169Y-80803510D01*
X129278169Y-80803510D02*
X129230550Y-80827320D01*
X129230550Y-80827320D02*
X129135312Y-80827320D01*
X129135312Y-80827320D02*
X129087693Y-80851129D01*
X129087693Y-80851129D02*
X129063883Y-80874939D01*
X129063883Y-80874939D02*
X129040074Y-80922558D01*
X129040074Y-80922558D02*
X129040074Y-81017796D01*
X129040074Y-81017796D02*
X129063883Y-81065415D01*
X129063883Y-81065415D02*
X129087693Y-81089225D01*
X129087693Y-81089225D02*
X129135312Y-81113034D01*
X129135312Y-81113034D02*
X129230550Y-81113034D01*
X129230550Y-81113034D02*
X129278169Y-81089225D01*
X129278169Y-81089225D02*
X129301978Y-81065415D01*
X129301978Y-81065415D02*
X129325788Y-81017796D01*
X129325788Y-81017796D02*
X129325788Y-80922558D01*
X129325788Y-80922558D02*
X129301978Y-80874939D01*
X129301978Y-80874939D02*
X129278169Y-80851129D01*
X129278169Y-80851129D02*
X129230550Y-80827320D01*
X129540073Y-81065415D02*
X129563883Y-81089225D01*
X129563883Y-81089225D02*
X129540073Y-81113034D01*
X129540073Y-81113034D02*
X129516264Y-81089225D01*
X129516264Y-81089225D02*
X129540073Y-81065415D01*
X129540073Y-81065415D02*
X129540073Y-81113034D01*
X130016263Y-80613034D02*
X129778168Y-80613034D01*
X129778168Y-80613034D02*
X129754359Y-80851129D01*
X129754359Y-80851129D02*
X129778168Y-80827320D01*
X129778168Y-80827320D02*
X129825787Y-80803510D01*
X129825787Y-80803510D02*
X129944835Y-80803510D01*
X129944835Y-80803510D02*
X129992454Y-80827320D01*
X129992454Y-80827320D02*
X130016263Y-80851129D01*
X130016263Y-80851129D02*
X130040073Y-80898748D01*
X130040073Y-80898748D02*
X130040073Y-81017796D01*
X130040073Y-81017796D02*
X130016263Y-81065415D01*
X130016263Y-81065415D02*
X129992454Y-81089225D01*
X129992454Y-81089225D02*
X129944835Y-81113034D01*
X129944835Y-81113034D02*
X129825787Y-81113034D01*
X129825787Y-81113034D02*
X129778168Y-81089225D01*
X129778168Y-81089225D02*
X129754359Y-81065415D01*
D12*
X115452380Y-136954819D02*
X115119047Y-136478628D01*
X114880952Y-136954819D02*
X114880952Y-135954819D01*
X114880952Y-135954819D02*
X115261904Y-135954819D01*
X115261904Y-135954819D02*
X115357142Y-136002438D01*
X115357142Y-136002438D02*
X115404761Y-136050057D01*
X115404761Y-136050057D02*
X115452380Y-136145295D01*
X115452380Y-136145295D02*
X115452380Y-136288152D01*
X115452380Y-136288152D02*
X115404761Y-136383390D01*
X115404761Y-136383390D02*
X115357142Y-136431009D01*
X115357142Y-136431009D02*
X115261904Y-136478628D01*
X115261904Y-136478628D02*
X114880952Y-136478628D01*
X115880952Y-136431009D02*
X116214285Y-136431009D01*
X116357142Y-136954819D02*
X115880952Y-136954819D01*
X115880952Y-136954819D02*
X115880952Y-135954819D01*
X115880952Y-135954819D02*
X116357142Y-135954819D01*
X117119047Y-136431009D02*
X116785714Y-136431009D01*
X116785714Y-136954819D02*
X116785714Y-135954819D01*
X116785714Y-135954819D02*
X117261904Y-135954819D01*
X117595238Y-136050057D02*
X117642857Y-136002438D01*
X117642857Y-136002438D02*
X117738095Y-135954819D01*
X117738095Y-135954819D02*
X117976190Y-135954819D01*
X117976190Y-135954819D02*
X118071428Y-136002438D01*
X118071428Y-136002438D02*
X118119047Y-136050057D01*
X118119047Y-136050057D02*
X118166666Y-136145295D01*
X118166666Y-136145295D02*
X118166666Y-136240533D01*
X118166666Y-136240533D02*
X118119047Y-136383390D01*
X118119047Y-136383390D02*
X117547619Y-136954819D01*
X117547619Y-136954819D02*
X118166666Y-136954819D01*
D10*
X127935552Y-120067084D02*
X127649838Y-120067084D01*
X127792695Y-120067084D02*
X127792695Y-119567084D01*
X127792695Y-119567084D02*
X127745076Y-119638513D01*
X127745076Y-119638513D02*
X127697457Y-119686132D01*
X127697457Y-119686132D02*
X127649838Y-119709941D01*
X128245075Y-119567084D02*
X128292694Y-119567084D01*
X128292694Y-119567084D02*
X128340313Y-119590894D01*
X128340313Y-119590894D02*
X128364123Y-119614703D01*
X128364123Y-119614703D02*
X128387932Y-119662322D01*
X128387932Y-119662322D02*
X128411742Y-119757560D01*
X128411742Y-119757560D02*
X128411742Y-119876608D01*
X128411742Y-119876608D02*
X128387932Y-119971846D01*
X128387932Y-119971846D02*
X128364123Y-120019465D01*
X128364123Y-120019465D02*
X128340313Y-120043275D01*
X128340313Y-120043275D02*
X128292694Y-120067084D01*
X128292694Y-120067084D02*
X128245075Y-120067084D01*
X128245075Y-120067084D02*
X128197456Y-120043275D01*
X128197456Y-120043275D02*
X128173647Y-120019465D01*
X128173647Y-120019465D02*
X128149837Y-119971846D01*
X128149837Y-119971846D02*
X128126028Y-119876608D01*
X128126028Y-119876608D02*
X128126028Y-119757560D01*
X128126028Y-119757560D02*
X128149837Y-119662322D01*
X128149837Y-119662322D02*
X128173647Y-119614703D01*
X128173647Y-119614703D02*
X128197456Y-119590894D01*
X128197456Y-119590894D02*
X128245075Y-119567084D01*
X128721265Y-119567084D02*
X128768884Y-119567084D01*
X128768884Y-119567084D02*
X128816503Y-119590894D01*
X128816503Y-119590894D02*
X128840313Y-119614703D01*
X128840313Y-119614703D02*
X128864122Y-119662322D01*
X128864122Y-119662322D02*
X128887932Y-119757560D01*
X128887932Y-119757560D02*
X128887932Y-119876608D01*
X128887932Y-119876608D02*
X128864122Y-119971846D01*
X128864122Y-119971846D02*
X128840313Y-120019465D01*
X128840313Y-120019465D02*
X128816503Y-120043275D01*
X128816503Y-120043275D02*
X128768884Y-120067084D01*
X128768884Y-120067084D02*
X128721265Y-120067084D01*
X128721265Y-120067084D02*
X128673646Y-120043275D01*
X128673646Y-120043275D02*
X128649837Y-120019465D01*
X128649837Y-120019465D02*
X128626027Y-119971846D01*
X128626027Y-119971846D02*
X128602218Y-119876608D01*
X128602218Y-119876608D02*
X128602218Y-119757560D01*
X128602218Y-119757560D02*
X128626027Y-119662322D01*
X128626027Y-119662322D02*
X128649837Y-119614703D01*
X128649837Y-119614703D02*
X128673646Y-119590894D01*
X128673646Y-119590894D02*
X128721265Y-119567084D01*
X129102217Y-119733751D02*
X129102217Y-120067084D01*
X129102217Y-119781370D02*
X129126027Y-119757560D01*
X129126027Y-119757560D02*
X129173646Y-119733751D01*
X129173646Y-119733751D02*
X129245074Y-119733751D01*
X129245074Y-119733751D02*
X129292693Y-119757560D01*
X129292693Y-119757560D02*
X129316503Y-119805179D01*
X129316503Y-119805179D02*
X129316503Y-120067084D01*
D11*
X127586966Y-118645730D02*
X127563157Y-118669540D01*
X127563157Y-118669540D02*
X127491728Y-118693349D01*
X127491728Y-118693349D02*
X127444109Y-118693349D01*
X127444109Y-118693349D02*
X127372681Y-118669540D01*
X127372681Y-118669540D02*
X127325062Y-118621920D01*
X127325062Y-118621920D02*
X127301252Y-118574301D01*
X127301252Y-118574301D02*
X127277443Y-118479063D01*
X127277443Y-118479063D02*
X127277443Y-118407635D01*
X127277443Y-118407635D02*
X127301252Y-118312397D01*
X127301252Y-118312397D02*
X127325062Y-118264778D01*
X127325062Y-118264778D02*
X127372681Y-118217159D01*
X127372681Y-118217159D02*
X127444109Y-118193349D01*
X127444109Y-118193349D02*
X127491728Y-118193349D01*
X127491728Y-118193349D02*
X127563157Y-118217159D01*
X127563157Y-118217159D02*
X127586966Y-118240968D01*
X127753633Y-118193349D02*
X128063157Y-118193349D01*
X128063157Y-118193349D02*
X127896490Y-118383825D01*
X127896490Y-118383825D02*
X127967919Y-118383825D01*
X127967919Y-118383825D02*
X128015538Y-118407635D01*
X128015538Y-118407635D02*
X128039347Y-118431444D01*
X128039347Y-118431444D02*
X128063157Y-118479063D01*
X128063157Y-118479063D02*
X128063157Y-118598111D01*
X128063157Y-118598111D02*
X128039347Y-118645730D01*
X128039347Y-118645730D02*
X128015538Y-118669540D01*
X128015538Y-118669540D02*
X127967919Y-118693349D01*
X127967919Y-118693349D02*
X127825062Y-118693349D01*
X127825062Y-118693349D02*
X127777443Y-118669540D01*
X127777443Y-118669540D02*
X127753633Y-118645730D01*
D10*
X134934359Y-79249843D02*
X134934359Y-79487938D01*
X134934359Y-79487938D02*
X134434359Y-79487938D01*
X134934359Y-78845081D02*
X134934359Y-79083176D01*
X134934359Y-79083176D02*
X134434359Y-79083176D01*
X134601026Y-78464128D02*
X134934359Y-78464128D01*
X134410550Y-78583176D02*
X134767692Y-78702223D01*
X134767692Y-78702223D02*
X134767692Y-78392700D01*
X134934359Y-77940319D02*
X134934359Y-78226033D01*
X134934359Y-78083176D02*
X134434359Y-78083176D01*
X134434359Y-78083176D02*
X134505788Y-78130795D01*
X134505788Y-78130795D02*
X134553407Y-78178414D01*
X134553407Y-78178414D02*
X134577216Y-78226033D01*
X134601026Y-77511748D02*
X134934359Y-77511748D01*
X134410550Y-77630796D02*
X134767692Y-77749843D01*
X134767692Y-77749843D02*
X134767692Y-77440320D01*
X134648645Y-77178415D02*
X134624835Y-77226034D01*
X134624835Y-77226034D02*
X134601026Y-77249844D01*
X134601026Y-77249844D02*
X134553407Y-77273653D01*
X134553407Y-77273653D02*
X134529597Y-77273653D01*
X134529597Y-77273653D02*
X134481978Y-77249844D01*
X134481978Y-77249844D02*
X134458169Y-77226034D01*
X134458169Y-77226034D02*
X134434359Y-77178415D01*
X134434359Y-77178415D02*
X134434359Y-77083177D01*
X134434359Y-77083177D02*
X134458169Y-77035558D01*
X134458169Y-77035558D02*
X134481978Y-77011749D01*
X134481978Y-77011749D02*
X134529597Y-76987939D01*
X134529597Y-76987939D02*
X134553407Y-76987939D01*
X134553407Y-76987939D02*
X134601026Y-77011749D01*
X134601026Y-77011749D02*
X134624835Y-77035558D01*
X134624835Y-77035558D02*
X134648645Y-77083177D01*
X134648645Y-77083177D02*
X134648645Y-77178415D01*
X134648645Y-77178415D02*
X134672454Y-77226034D01*
X134672454Y-77226034D02*
X134696264Y-77249844D01*
X134696264Y-77249844D02*
X134743883Y-77273653D01*
X134743883Y-77273653D02*
X134839121Y-77273653D01*
X134839121Y-77273653D02*
X134886740Y-77249844D01*
X134886740Y-77249844D02*
X134910550Y-77226034D01*
X134910550Y-77226034D02*
X134934359Y-77178415D01*
X134934359Y-77178415D02*
X134934359Y-77083177D01*
X134934359Y-77083177D02*
X134910550Y-77035558D01*
X134910550Y-77035558D02*
X134886740Y-77011749D01*
X134886740Y-77011749D02*
X134839121Y-76987939D01*
X134839121Y-76987939D02*
X134743883Y-76987939D01*
X134743883Y-76987939D02*
X134696264Y-77011749D01*
X134696264Y-77011749D02*
X134672454Y-77035558D01*
X134672454Y-77035558D02*
X134648645Y-77083177D01*
X122617860Y-147946159D02*
X122617860Y-147446159D01*
X122617860Y-147446159D02*
X122736908Y-147446159D01*
X122736908Y-147446159D02*
X122808336Y-147469969D01*
X122808336Y-147469969D02*
X122855955Y-147517588D01*
X122855955Y-147517588D02*
X122879765Y-147565207D01*
X122879765Y-147565207D02*
X122903574Y-147660445D01*
X122903574Y-147660445D02*
X122903574Y-147731873D01*
X122903574Y-147731873D02*
X122879765Y-147827111D01*
X122879765Y-147827111D02*
X122855955Y-147874730D01*
X122855955Y-147874730D02*
X122808336Y-147922350D01*
X122808336Y-147922350D02*
X122736908Y-147946159D01*
X122736908Y-147946159D02*
X122617860Y-147946159D01*
X123070241Y-147446159D02*
X123403574Y-147446159D01*
X123403574Y-147446159D02*
X123070241Y-147946159D01*
X123070241Y-147946159D02*
X123403574Y-147946159D01*
X123570241Y-147493778D02*
X123594050Y-147469969D01*
X123594050Y-147469969D02*
X123641669Y-147446159D01*
X123641669Y-147446159D02*
X123760717Y-147446159D01*
X123760717Y-147446159D02*
X123808336Y-147469969D01*
X123808336Y-147469969D02*
X123832145Y-147493778D01*
X123832145Y-147493778D02*
X123855955Y-147541397D01*
X123855955Y-147541397D02*
X123855955Y-147589016D01*
X123855955Y-147589016D02*
X123832145Y-147660445D01*
X123832145Y-147660445D02*
X123546431Y-147946159D01*
X123546431Y-147946159D02*
X123855955Y-147946159D01*
X124308335Y-147446159D02*
X124070240Y-147446159D01*
X124070240Y-147446159D02*
X124046431Y-147684254D01*
X124046431Y-147684254D02*
X124070240Y-147660445D01*
X124070240Y-147660445D02*
X124117859Y-147636635D01*
X124117859Y-147636635D02*
X124236907Y-147636635D01*
X124236907Y-147636635D02*
X124284526Y-147660445D01*
X124284526Y-147660445D02*
X124308335Y-147684254D01*
X124308335Y-147684254D02*
X124332145Y-147731873D01*
X124332145Y-147731873D02*
X124332145Y-147850921D01*
X124332145Y-147850921D02*
X124308335Y-147898540D01*
X124308335Y-147898540D02*
X124284526Y-147922350D01*
X124284526Y-147922350D02*
X124236907Y-147946159D01*
X124236907Y-147946159D02*
X124117859Y-147946159D01*
X124117859Y-147946159D02*
X124070240Y-147922350D01*
X124070240Y-147922350D02*
X124046431Y-147898540D01*
X124760716Y-147612826D02*
X124760716Y-147946159D01*
X124641668Y-147422350D02*
X124522621Y-147779492D01*
X124522621Y-147779492D02*
X124832144Y-147779492D01*
X124975001Y-147446159D02*
X125094049Y-147946159D01*
X125094049Y-147946159D02*
X125189287Y-147589016D01*
X125189287Y-147589016D02*
X125284525Y-147946159D01*
X125284525Y-147946159D02*
X125403573Y-147446159D01*
X125594049Y-147755683D02*
X125975002Y-147755683D01*
X126475002Y-147946159D02*
X126189288Y-147946159D01*
X126332145Y-147946159D02*
X126332145Y-147446159D01*
X126332145Y-147446159D02*
X126284526Y-147517588D01*
X126284526Y-147517588D02*
X126236907Y-147565207D01*
X126236907Y-147565207D02*
X126189288Y-147589016D01*
X126951192Y-147946159D02*
X126665478Y-147946159D01*
X126808335Y-147946159D02*
X126808335Y-147446159D01*
X126808335Y-147446159D02*
X126760716Y-147517588D01*
X126760716Y-147517588D02*
X126713097Y-147565207D01*
X126713097Y-147565207D02*
X126665478Y-147589016D01*
X127165477Y-147755683D02*
X127546430Y-147755683D01*
X127879763Y-147446159D02*
X127927382Y-147446159D01*
X127927382Y-147446159D02*
X127975001Y-147469969D01*
X127975001Y-147469969D02*
X127998811Y-147493778D01*
X127998811Y-147493778D02*
X128022620Y-147541397D01*
X128022620Y-147541397D02*
X128046430Y-147636635D01*
X128046430Y-147636635D02*
X128046430Y-147755683D01*
X128046430Y-147755683D02*
X128022620Y-147850921D01*
X128022620Y-147850921D02*
X127998811Y-147898540D01*
X127998811Y-147898540D02*
X127975001Y-147922350D01*
X127975001Y-147922350D02*
X127927382Y-147946159D01*
X127927382Y-147946159D02*
X127879763Y-147946159D01*
X127879763Y-147946159D02*
X127832144Y-147922350D01*
X127832144Y-147922350D02*
X127808335Y-147898540D01*
X127808335Y-147898540D02*
X127784525Y-147850921D01*
X127784525Y-147850921D02*
X127760716Y-147755683D01*
X127760716Y-147755683D02*
X127760716Y-147636635D01*
X127760716Y-147636635D02*
X127784525Y-147541397D01*
X127784525Y-147541397D02*
X127808335Y-147493778D01*
X127808335Y-147493778D02*
X127832144Y-147469969D01*
X127832144Y-147469969D02*
X127879763Y-147446159D01*
X128213096Y-147446159D02*
X128522620Y-147446159D01*
X128522620Y-147446159D02*
X128355953Y-147636635D01*
X128355953Y-147636635D02*
X128427382Y-147636635D01*
X128427382Y-147636635D02*
X128475001Y-147660445D01*
X128475001Y-147660445D02*
X128498810Y-147684254D01*
X128498810Y-147684254D02*
X128522620Y-147731873D01*
X128522620Y-147731873D02*
X128522620Y-147850921D01*
X128522620Y-147850921D02*
X128498810Y-147898540D01*
X128498810Y-147898540D02*
X128475001Y-147922350D01*
X128475001Y-147922350D02*
X128427382Y-147946159D01*
X128427382Y-147946159D02*
X128284525Y-147946159D01*
X128284525Y-147946159D02*
X128236906Y-147922350D01*
X128236906Y-147922350D02*
X128213096Y-147898540D01*
X128736905Y-147755683D02*
X129117858Y-147755683D01*
X129570239Y-147446159D02*
X129475001Y-147446159D01*
X129475001Y-147446159D02*
X129427382Y-147469969D01*
X129427382Y-147469969D02*
X129403572Y-147493778D01*
X129403572Y-147493778D02*
X129355953Y-147565207D01*
X129355953Y-147565207D02*
X129332144Y-147660445D01*
X129332144Y-147660445D02*
X129332144Y-147850921D01*
X129332144Y-147850921D02*
X129355953Y-147898540D01*
X129355953Y-147898540D02*
X129379763Y-147922350D01*
X129379763Y-147922350D02*
X129427382Y-147946159D01*
X129427382Y-147946159D02*
X129522620Y-147946159D01*
X129522620Y-147946159D02*
X129570239Y-147922350D01*
X129570239Y-147922350D02*
X129594048Y-147898540D01*
X129594048Y-147898540D02*
X129617858Y-147850921D01*
X129617858Y-147850921D02*
X129617858Y-147731873D01*
X129617858Y-147731873D02*
X129594048Y-147684254D01*
X129594048Y-147684254D02*
X129570239Y-147660445D01*
X129570239Y-147660445D02*
X129522620Y-147636635D01*
X129522620Y-147636635D02*
X129427382Y-147636635D01*
X129427382Y-147636635D02*
X129379763Y-147660445D01*
X129379763Y-147660445D02*
X129355953Y-147684254D01*
X129355953Y-147684254D02*
X129332144Y-147731873D01*
X130070238Y-147446159D02*
X129832143Y-147446159D01*
X129832143Y-147446159D02*
X129808334Y-147684254D01*
X129808334Y-147684254D02*
X129832143Y-147660445D01*
X129832143Y-147660445D02*
X129879762Y-147636635D01*
X129879762Y-147636635D02*
X129998810Y-147636635D01*
X129998810Y-147636635D02*
X130046429Y-147660445D01*
X130046429Y-147660445D02*
X130070238Y-147684254D01*
X130070238Y-147684254D02*
X130094048Y-147731873D01*
X130094048Y-147731873D02*
X130094048Y-147850921D01*
X130094048Y-147850921D02*
X130070238Y-147898540D01*
X130070238Y-147898540D02*
X130046429Y-147922350D01*
X130046429Y-147922350D02*
X129998810Y-147946159D01*
X129998810Y-147946159D02*
X129879762Y-147946159D01*
X129879762Y-147946159D02*
X129832143Y-147922350D01*
X129832143Y-147922350D02*
X129808334Y-147898540D01*
D12*
X119952380Y-80454819D02*
X119619047Y-79978628D01*
X119380952Y-80454819D02*
X119380952Y-79454819D01*
X119380952Y-79454819D02*
X119761904Y-79454819D01*
X119761904Y-79454819D02*
X119857142Y-79502438D01*
X119857142Y-79502438D02*
X119904761Y-79550057D01*
X119904761Y-79550057D02*
X119952380Y-79645295D01*
X119952380Y-79645295D02*
X119952380Y-79788152D01*
X119952380Y-79788152D02*
X119904761Y-79883390D01*
X119904761Y-79883390D02*
X119857142Y-79931009D01*
X119857142Y-79931009D02*
X119761904Y-79978628D01*
X119761904Y-79978628D02*
X119380952Y-79978628D01*
X120380952Y-79931009D02*
X120714285Y-79931009D01*
X120857142Y-80454819D02*
X120380952Y-80454819D01*
X120380952Y-80454819D02*
X120380952Y-79454819D01*
X120380952Y-79454819D02*
X120857142Y-79454819D01*
X121619047Y-79931009D02*
X121285714Y-79931009D01*
X121285714Y-80454819D02*
X121285714Y-79454819D01*
X121285714Y-79454819D02*
X121761904Y-79454819D01*
X122047619Y-79454819D02*
X122666666Y-79454819D01*
X122666666Y-79454819D02*
X122333333Y-79835771D01*
X122333333Y-79835771D02*
X122476190Y-79835771D01*
X122476190Y-79835771D02*
X122571428Y-79883390D01*
X122571428Y-79883390D02*
X122619047Y-79931009D01*
X122619047Y-79931009D02*
X122666666Y-80026247D01*
X122666666Y-80026247D02*
X122666666Y-80264342D01*
X122666666Y-80264342D02*
X122619047Y-80359580D01*
X122619047Y-80359580D02*
X122571428Y-80407200D01*
X122571428Y-80407200D02*
X122476190Y-80454819D01*
X122476190Y-80454819D02*
X122190476Y-80454819D01*
X122190476Y-80454819D02*
X122095238Y-80407200D01*
X122095238Y-80407200D02*
X122047619Y-80359580D01*
D10*
X137869709Y-83361932D02*
X137869709Y-83647646D01*
X137869709Y-83504789D02*
X137369709Y-83504789D01*
X137369709Y-83504789D02*
X137441138Y-83552408D01*
X137441138Y-83552408D02*
X137488757Y-83600027D01*
X137488757Y-83600027D02*
X137512566Y-83647646D01*
X137369709Y-83052409D02*
X137369709Y-83004790D01*
X137369709Y-83004790D02*
X137393519Y-82957171D01*
X137393519Y-82957171D02*
X137417328Y-82933361D01*
X137417328Y-82933361D02*
X137464947Y-82909552D01*
X137464947Y-82909552D02*
X137560185Y-82885742D01*
X137560185Y-82885742D02*
X137679233Y-82885742D01*
X137679233Y-82885742D02*
X137774471Y-82909552D01*
X137774471Y-82909552D02*
X137822090Y-82933361D01*
X137822090Y-82933361D02*
X137845900Y-82957171D01*
X137845900Y-82957171D02*
X137869709Y-83004790D01*
X137869709Y-83004790D02*
X137869709Y-83052409D01*
X137869709Y-83052409D02*
X137845900Y-83100028D01*
X137845900Y-83100028D02*
X137822090Y-83123837D01*
X137822090Y-83123837D02*
X137774471Y-83147647D01*
X137774471Y-83147647D02*
X137679233Y-83171456D01*
X137679233Y-83171456D02*
X137560185Y-83171456D01*
X137560185Y-83171456D02*
X137464947Y-83147647D01*
X137464947Y-83147647D02*
X137417328Y-83123837D01*
X137417328Y-83123837D02*
X137393519Y-83100028D01*
X137393519Y-83100028D02*
X137369709Y-83052409D01*
X137369709Y-82576219D02*
X137369709Y-82528600D01*
X137369709Y-82528600D02*
X137393519Y-82480981D01*
X137393519Y-82480981D02*
X137417328Y-82457171D01*
X137417328Y-82457171D02*
X137464947Y-82433362D01*
X137464947Y-82433362D02*
X137560185Y-82409552D01*
X137560185Y-82409552D02*
X137679233Y-82409552D01*
X137679233Y-82409552D02*
X137774471Y-82433362D01*
X137774471Y-82433362D02*
X137822090Y-82457171D01*
X137822090Y-82457171D02*
X137845900Y-82480981D01*
X137845900Y-82480981D02*
X137869709Y-82528600D01*
X137869709Y-82528600D02*
X137869709Y-82576219D01*
X137869709Y-82576219D02*
X137845900Y-82623838D01*
X137845900Y-82623838D02*
X137822090Y-82647647D01*
X137822090Y-82647647D02*
X137774471Y-82671457D01*
X137774471Y-82671457D02*
X137679233Y-82695266D01*
X137679233Y-82695266D02*
X137560185Y-82695266D01*
X137560185Y-82695266D02*
X137464947Y-82671457D01*
X137464947Y-82671457D02*
X137417328Y-82647647D01*
X137417328Y-82647647D02*
X137393519Y-82623838D01*
X137393519Y-82623838D02*
X137369709Y-82576219D01*
X137869709Y-82195267D02*
X137369709Y-82195267D01*
X137869709Y-81909553D02*
X137583995Y-82123838D01*
X137369709Y-81909553D02*
X137655423Y-82195267D01*
D11*
X139520749Y-82861933D02*
X139282654Y-83028599D01*
X139520749Y-83147647D02*
X139020749Y-83147647D01*
X139020749Y-83147647D02*
X139020749Y-82957171D01*
X139020749Y-82957171D02*
X139044559Y-82909552D01*
X139044559Y-82909552D02*
X139068368Y-82885742D01*
X139068368Y-82885742D02*
X139115987Y-82861933D01*
X139115987Y-82861933D02*
X139187416Y-82861933D01*
X139187416Y-82861933D02*
X139235035Y-82885742D01*
X139235035Y-82885742D02*
X139258844Y-82909552D01*
X139258844Y-82909552D02*
X139282654Y-82957171D01*
X139282654Y-82957171D02*
X139282654Y-83147647D01*
X139520749Y-82385742D02*
X139520749Y-82671456D01*
X139520749Y-82528599D02*
X139020749Y-82528599D01*
X139020749Y-82528599D02*
X139092178Y-82576218D01*
X139092178Y-82576218D02*
X139139797Y-82623837D01*
X139139797Y-82623837D02*
X139163606Y-82671456D01*
D10*
X127687902Y-102474409D02*
X127402188Y-102474409D01*
X127545045Y-102474409D02*
X127545045Y-101974409D01*
X127545045Y-101974409D02*
X127497426Y-102045838D01*
X127497426Y-102045838D02*
X127449807Y-102093457D01*
X127449807Y-102093457D02*
X127402188Y-102117266D01*
X127997425Y-101974409D02*
X128045044Y-101974409D01*
X128045044Y-101974409D02*
X128092663Y-101998219D01*
X128092663Y-101998219D02*
X128116473Y-102022028D01*
X128116473Y-102022028D02*
X128140282Y-102069647D01*
X128140282Y-102069647D02*
X128164092Y-102164885D01*
X128164092Y-102164885D02*
X128164092Y-102283933D01*
X128164092Y-102283933D02*
X128140282Y-102379171D01*
X128140282Y-102379171D02*
X128116473Y-102426790D01*
X128116473Y-102426790D02*
X128092663Y-102450600D01*
X128092663Y-102450600D02*
X128045044Y-102474409D01*
X128045044Y-102474409D02*
X127997425Y-102474409D01*
X127997425Y-102474409D02*
X127949806Y-102450600D01*
X127949806Y-102450600D02*
X127925997Y-102426790D01*
X127925997Y-102426790D02*
X127902187Y-102379171D01*
X127902187Y-102379171D02*
X127878378Y-102283933D01*
X127878378Y-102283933D02*
X127878378Y-102164885D01*
X127878378Y-102164885D02*
X127902187Y-102069647D01*
X127902187Y-102069647D02*
X127925997Y-102022028D01*
X127925997Y-102022028D02*
X127949806Y-101998219D01*
X127949806Y-101998219D02*
X127997425Y-101974409D01*
X128473615Y-101974409D02*
X128521234Y-101974409D01*
X128521234Y-101974409D02*
X128568853Y-101998219D01*
X128568853Y-101998219D02*
X128592663Y-102022028D01*
X128592663Y-102022028D02*
X128616472Y-102069647D01*
X128616472Y-102069647D02*
X128640282Y-102164885D01*
X128640282Y-102164885D02*
X128640282Y-102283933D01*
X128640282Y-102283933D02*
X128616472Y-102379171D01*
X128616472Y-102379171D02*
X128592663Y-102426790D01*
X128592663Y-102426790D02*
X128568853Y-102450600D01*
X128568853Y-102450600D02*
X128521234Y-102474409D01*
X128521234Y-102474409D02*
X128473615Y-102474409D01*
X128473615Y-102474409D02*
X128425996Y-102450600D01*
X128425996Y-102450600D02*
X128402187Y-102426790D01*
X128402187Y-102426790D02*
X128378377Y-102379171D01*
X128378377Y-102379171D02*
X128354568Y-102283933D01*
X128354568Y-102283933D02*
X128354568Y-102164885D01*
X128354568Y-102164885D02*
X128378377Y-102069647D01*
X128378377Y-102069647D02*
X128402187Y-102022028D01*
X128402187Y-102022028D02*
X128425996Y-101998219D01*
X128425996Y-101998219D02*
X128473615Y-101974409D01*
X128854567Y-102141076D02*
X128854567Y-102474409D01*
X128854567Y-102188695D02*
X128878377Y-102164885D01*
X128878377Y-102164885D02*
X128925996Y-102141076D01*
X128925996Y-102141076D02*
X128997424Y-102141076D01*
X128997424Y-102141076D02*
X129045043Y-102164885D01*
X129045043Y-102164885D02*
X129068853Y-102212504D01*
X129068853Y-102212504D02*
X129068853Y-102474409D01*
D11*
X127447266Y-101075280D02*
X127423457Y-101099090D01*
X127423457Y-101099090D02*
X127352028Y-101122899D01*
X127352028Y-101122899D02*
X127304409Y-101122899D01*
X127304409Y-101122899D02*
X127232981Y-101099090D01*
X127232981Y-101099090D02*
X127185362Y-101051470D01*
X127185362Y-101051470D02*
X127161552Y-101003851D01*
X127161552Y-101003851D02*
X127137743Y-100908613D01*
X127137743Y-100908613D02*
X127137743Y-100837185D01*
X127137743Y-100837185D02*
X127161552Y-100741947D01*
X127161552Y-100741947D02*
X127185362Y-100694328D01*
X127185362Y-100694328D02*
X127232981Y-100646709D01*
X127232981Y-100646709D02*
X127304409Y-100622899D01*
X127304409Y-100622899D02*
X127352028Y-100622899D01*
X127352028Y-100622899D02*
X127423457Y-100646709D01*
X127423457Y-100646709D02*
X127447266Y-100670518D01*
X127875838Y-100622899D02*
X127780600Y-100622899D01*
X127780600Y-100622899D02*
X127732981Y-100646709D01*
X127732981Y-100646709D02*
X127709171Y-100670518D01*
X127709171Y-100670518D02*
X127661552Y-100741947D01*
X127661552Y-100741947D02*
X127637743Y-100837185D01*
X127637743Y-100837185D02*
X127637743Y-101027661D01*
X127637743Y-101027661D02*
X127661552Y-101075280D01*
X127661552Y-101075280D02*
X127685362Y-101099090D01*
X127685362Y-101099090D02*
X127732981Y-101122899D01*
X127732981Y-101122899D02*
X127828219Y-101122899D01*
X127828219Y-101122899D02*
X127875838Y-101099090D01*
X127875838Y-101099090D02*
X127899647Y-101075280D01*
X127899647Y-101075280D02*
X127923457Y-101027661D01*
X127923457Y-101027661D02*
X127923457Y-100908613D01*
X127923457Y-100908613D02*
X127899647Y-100860994D01*
X127899647Y-100860994D02*
X127875838Y-100837185D01*
X127875838Y-100837185D02*
X127828219Y-100813375D01*
X127828219Y-100813375D02*
X127732981Y-100813375D01*
X127732981Y-100813375D02*
X127685362Y-100837185D01*
X127685362Y-100837185D02*
X127661552Y-100860994D01*
X127661552Y-100860994D02*
X127637743Y-100908613D01*
D10*
X134139959Y-135907060D02*
X134139959Y-135621346D01*
X134639959Y-135764203D02*
X134139959Y-135764203D01*
X134139959Y-135502299D02*
X134639959Y-135168966D01*
X134139959Y-135168966D02*
X134639959Y-135502299D01*
X134139959Y-134978490D02*
X134544721Y-134978490D01*
X134544721Y-134978490D02*
X134592340Y-134954680D01*
X134592340Y-134954680D02*
X134616150Y-134930871D01*
X134616150Y-134930871D02*
X134639959Y-134883252D01*
X134639959Y-134883252D02*
X134639959Y-134788014D01*
X134639959Y-134788014D02*
X134616150Y-134740395D01*
X134616150Y-134740395D02*
X134592340Y-134716585D01*
X134592340Y-134716585D02*
X134544721Y-134692776D01*
X134544721Y-134692776D02*
X134139959Y-134692776D01*
X134139959Y-134359442D02*
X134139959Y-134311823D01*
X134139959Y-134311823D02*
X134163769Y-134264204D01*
X134163769Y-134264204D02*
X134187578Y-134240394D01*
X134187578Y-134240394D02*
X134235197Y-134216585D01*
X134235197Y-134216585D02*
X134330435Y-134192775D01*
X134330435Y-134192775D02*
X134449483Y-134192775D01*
X134449483Y-134192775D02*
X134544721Y-134216585D01*
X134544721Y-134216585D02*
X134592340Y-134240394D01*
X134592340Y-134240394D02*
X134616150Y-134264204D01*
X134616150Y-134264204D02*
X134639959Y-134311823D01*
X134639959Y-134311823D02*
X134639959Y-134359442D01*
X134639959Y-134359442D02*
X134616150Y-134407061D01*
X134616150Y-134407061D02*
X134592340Y-134430870D01*
X134592340Y-134430870D02*
X134544721Y-134454680D01*
X134544721Y-134454680D02*
X134449483Y-134478489D01*
X134449483Y-134478489D02*
X134330435Y-134478489D01*
X134330435Y-134478489D02*
X134235197Y-134454680D01*
X134235197Y-134454680D02*
X134187578Y-134430870D01*
X134187578Y-134430870D02*
X134163769Y-134407061D01*
X134163769Y-134407061D02*
X134139959Y-134359442D01*
X134639959Y-133716585D02*
X134639959Y-134002299D01*
X134639959Y-133859442D02*
X134139959Y-133859442D01*
X134139959Y-133859442D02*
X134211388Y-133907061D01*
X134211388Y-133907061D02*
X134259007Y-133954680D01*
X134259007Y-133954680D02*
X134282816Y-134002299D01*
X134139959Y-133407062D02*
X134139959Y-133359443D01*
X134139959Y-133359443D02*
X134163769Y-133311824D01*
X134163769Y-133311824D02*
X134187578Y-133288014D01*
X134187578Y-133288014D02*
X134235197Y-133264205D01*
X134235197Y-133264205D02*
X134330435Y-133240395D01*
X134330435Y-133240395D02*
X134449483Y-133240395D01*
X134449483Y-133240395D02*
X134544721Y-133264205D01*
X134544721Y-133264205D02*
X134592340Y-133288014D01*
X134592340Y-133288014D02*
X134616150Y-133311824D01*
X134616150Y-133311824D02*
X134639959Y-133359443D01*
X134639959Y-133359443D02*
X134639959Y-133407062D01*
X134639959Y-133407062D02*
X134616150Y-133454681D01*
X134616150Y-133454681D02*
X134592340Y-133478490D01*
X134592340Y-133478490D02*
X134544721Y-133502300D01*
X134544721Y-133502300D02*
X134449483Y-133526109D01*
X134449483Y-133526109D02*
X134330435Y-133526109D01*
X134330435Y-133526109D02*
X134235197Y-133502300D01*
X134235197Y-133502300D02*
X134187578Y-133478490D01*
X134187578Y-133478490D02*
X134163769Y-133454681D01*
X134163769Y-133454681D02*
X134139959Y-133407062D01*
X134306626Y-132811824D02*
X134639959Y-132811824D01*
X134116150Y-132930872D02*
X134473292Y-133049919D01*
X134473292Y-133049919D02*
X134473292Y-132740396D01*
X134639959Y-132549920D02*
X134139959Y-132549920D01*
X134139959Y-132549920D02*
X134139959Y-132359444D01*
X134139959Y-132359444D02*
X134163769Y-132311825D01*
X134163769Y-132311825D02*
X134187578Y-132288015D01*
X134187578Y-132288015D02*
X134235197Y-132264206D01*
X134235197Y-132264206D02*
X134306626Y-132264206D01*
X134306626Y-132264206D02*
X134354245Y-132288015D01*
X134354245Y-132288015D02*
X134378054Y-132311825D01*
X134378054Y-132311825D02*
X134401864Y-132359444D01*
X134401864Y-132359444D02*
X134401864Y-132549920D01*
X134139959Y-132097539D02*
X134639959Y-131978491D01*
X134639959Y-131978491D02*
X134282816Y-131883253D01*
X134282816Y-131883253D02*
X134639959Y-131788015D01*
X134639959Y-131788015D02*
X134139959Y-131668968D01*
X134639959Y-131192777D02*
X134401864Y-131359443D01*
X134639959Y-131478491D02*
X134139959Y-131478491D01*
X134139959Y-131478491D02*
X134139959Y-131288015D01*
X134139959Y-131288015D02*
X134163769Y-131240396D01*
X134163769Y-131240396D02*
X134187578Y-131216586D01*
X134187578Y-131216586D02*
X134235197Y-131192777D01*
X134235197Y-131192777D02*
X134306626Y-131192777D01*
X134306626Y-131192777D02*
X134354245Y-131216586D01*
X134354245Y-131216586D02*
X134378054Y-131240396D01*
X134378054Y-131240396D02*
X134401864Y-131288015D01*
X134401864Y-131288015D02*
X134401864Y-131478491D01*
X117955933Y-89047793D02*
X117979742Y-88976365D01*
X117979742Y-88976365D02*
X117979742Y-88857317D01*
X117979742Y-88857317D02*
X117955933Y-88809698D01*
X117955933Y-88809698D02*
X117932123Y-88785889D01*
X117932123Y-88785889D02*
X117884504Y-88762079D01*
X117884504Y-88762079D02*
X117836885Y-88762079D01*
X117836885Y-88762079D02*
X117789266Y-88785889D01*
X117789266Y-88785889D02*
X117765456Y-88809698D01*
X117765456Y-88809698D02*
X117741647Y-88857317D01*
X117741647Y-88857317D02*
X117717837Y-88952555D01*
X117717837Y-88952555D02*
X117694028Y-89000174D01*
X117694028Y-89000174D02*
X117670218Y-89023984D01*
X117670218Y-89023984D02*
X117622599Y-89047793D01*
X117622599Y-89047793D02*
X117574980Y-89047793D01*
X117574980Y-89047793D02*
X117527361Y-89023984D01*
X117527361Y-89023984D02*
X117503552Y-89000174D01*
X117503552Y-89000174D02*
X117479742Y-88952555D01*
X117479742Y-88952555D02*
X117479742Y-88833508D01*
X117479742Y-88833508D02*
X117503552Y-88762079D01*
X117979742Y-88547794D02*
X117479742Y-88547794D01*
X117979742Y-88262080D02*
X117694028Y-88476365D01*
X117479742Y-88262080D02*
X117765456Y-88547794D01*
X117789266Y-88047794D02*
X117789266Y-87666842D01*
X117979742Y-87166841D02*
X117979742Y-87452555D01*
X117979742Y-87309698D02*
X117479742Y-87309698D01*
X117479742Y-87309698D02*
X117551171Y-87357317D01*
X117551171Y-87357317D02*
X117598790Y-87404936D01*
X117598790Y-87404936D02*
X117622599Y-87452555D01*
X117479742Y-87000175D02*
X117479742Y-86690651D01*
X117479742Y-86690651D02*
X117670218Y-86857318D01*
X117670218Y-86857318D02*
X117670218Y-86785889D01*
X117670218Y-86785889D02*
X117694028Y-86738270D01*
X117694028Y-86738270D02*
X117717837Y-86714461D01*
X117717837Y-86714461D02*
X117765456Y-86690651D01*
X117765456Y-86690651D02*
X117884504Y-86690651D01*
X117884504Y-86690651D02*
X117932123Y-86714461D01*
X117932123Y-86714461D02*
X117955933Y-86738270D01*
X117955933Y-86738270D02*
X117979742Y-86785889D01*
X117979742Y-86785889D02*
X117979742Y-86928746D01*
X117979742Y-86928746D02*
X117955933Y-86976365D01*
X117955933Y-86976365D02*
X117932123Y-87000175D01*
X117979742Y-86476366D02*
X117479742Y-86476366D01*
X117479742Y-86476366D02*
X117479742Y-86357318D01*
X117479742Y-86357318D02*
X117503552Y-86285890D01*
X117503552Y-86285890D02*
X117551171Y-86238271D01*
X117551171Y-86238271D02*
X117598790Y-86214461D01*
X117598790Y-86214461D02*
X117694028Y-86190652D01*
X117694028Y-86190652D02*
X117765456Y-86190652D01*
X117765456Y-86190652D02*
X117860694Y-86214461D01*
X117860694Y-86214461D02*
X117908313Y-86238271D01*
X117908313Y-86238271D02*
X117955933Y-86285890D01*
X117955933Y-86285890D02*
X117979742Y-86357318D01*
X117979742Y-86357318D02*
X117979742Y-86476366D01*
X117479742Y-85881128D02*
X117479742Y-85833509D01*
X117479742Y-85833509D02*
X117503552Y-85785890D01*
X117503552Y-85785890D02*
X117527361Y-85762080D01*
X117527361Y-85762080D02*
X117574980Y-85738271D01*
X117574980Y-85738271D02*
X117670218Y-85714461D01*
X117670218Y-85714461D02*
X117789266Y-85714461D01*
X117789266Y-85714461D02*
X117884504Y-85738271D01*
X117884504Y-85738271D02*
X117932123Y-85762080D01*
X117932123Y-85762080D02*
X117955933Y-85785890D01*
X117955933Y-85785890D02*
X117979742Y-85833509D01*
X117979742Y-85833509D02*
X117979742Y-85881128D01*
X117979742Y-85881128D02*
X117955933Y-85928747D01*
X117955933Y-85928747D02*
X117932123Y-85952556D01*
X117932123Y-85952556D02*
X117884504Y-85976366D01*
X117884504Y-85976366D02*
X117789266Y-86000175D01*
X117789266Y-86000175D02*
X117670218Y-86000175D01*
X117670218Y-86000175D02*
X117574980Y-85976366D01*
X117574980Y-85976366D02*
X117527361Y-85952556D01*
X117527361Y-85952556D02*
X117503552Y-85928747D01*
X117503552Y-85928747D02*
X117479742Y-85881128D01*
X117979742Y-85238271D02*
X117979742Y-85523985D01*
X117979742Y-85381128D02*
X117479742Y-85381128D01*
X117479742Y-85381128D02*
X117551171Y-85428747D01*
X117551171Y-85428747D02*
X117598790Y-85476366D01*
X117598790Y-85476366D02*
X117622599Y-85523985D01*
X117789266Y-85023986D02*
X117789266Y-84643034D01*
X117503552Y-84143033D02*
X117479742Y-84190652D01*
X117479742Y-84190652D02*
X117479742Y-84262081D01*
X117479742Y-84262081D02*
X117503552Y-84333509D01*
X117503552Y-84333509D02*
X117551171Y-84381128D01*
X117551171Y-84381128D02*
X117598790Y-84404938D01*
X117598790Y-84404938D02*
X117694028Y-84428747D01*
X117694028Y-84428747D02*
X117765456Y-84428747D01*
X117765456Y-84428747D02*
X117860694Y-84404938D01*
X117860694Y-84404938D02*
X117908313Y-84381128D01*
X117908313Y-84381128D02*
X117955933Y-84333509D01*
X117955933Y-84333509D02*
X117979742Y-84262081D01*
X117979742Y-84262081D02*
X117979742Y-84214462D01*
X117979742Y-84214462D02*
X117955933Y-84143033D01*
X117955933Y-84143033D02*
X117932123Y-84119224D01*
X117932123Y-84119224D02*
X117765456Y-84119224D01*
X117765456Y-84119224D02*
X117765456Y-84214462D01*
X117479742Y-83809700D02*
X117479742Y-83762081D01*
X117479742Y-83762081D02*
X117503552Y-83714462D01*
X117503552Y-83714462D02*
X117527361Y-83690652D01*
X117527361Y-83690652D02*
X117574980Y-83666843D01*
X117574980Y-83666843D02*
X117670218Y-83643033D01*
X117670218Y-83643033D02*
X117789266Y-83643033D01*
X117789266Y-83643033D02*
X117884504Y-83666843D01*
X117884504Y-83666843D02*
X117932123Y-83690652D01*
X117932123Y-83690652D02*
X117955933Y-83714462D01*
X117955933Y-83714462D02*
X117979742Y-83762081D01*
X117979742Y-83762081D02*
X117979742Y-83809700D01*
X117979742Y-83809700D02*
X117955933Y-83857319D01*
X117955933Y-83857319D02*
X117932123Y-83881128D01*
X117932123Y-83881128D02*
X117884504Y-83904938D01*
X117884504Y-83904938D02*
X117789266Y-83928747D01*
X117789266Y-83928747D02*
X117670218Y-83928747D01*
X117670218Y-83928747D02*
X117574980Y-83904938D01*
X117574980Y-83904938D02*
X117527361Y-83881128D01*
X117527361Y-83881128D02*
X117503552Y-83857319D01*
X117503552Y-83857319D02*
X117479742Y-83809700D01*
X117479742Y-83476367D02*
X117479742Y-83166843D01*
X117479742Y-83166843D02*
X117670218Y-83333510D01*
X117670218Y-83333510D02*
X117670218Y-83262081D01*
X117670218Y-83262081D02*
X117694028Y-83214462D01*
X117694028Y-83214462D02*
X117717837Y-83190653D01*
X117717837Y-83190653D02*
X117765456Y-83166843D01*
X117765456Y-83166843D02*
X117884504Y-83166843D01*
X117884504Y-83166843D02*
X117932123Y-83190653D01*
X117932123Y-83190653D02*
X117955933Y-83214462D01*
X117955933Y-83214462D02*
X117979742Y-83262081D01*
X117979742Y-83262081D02*
X117979742Y-83404938D01*
X117979742Y-83404938D02*
X117955933Y-83452557D01*
X117955933Y-83452557D02*
X117932123Y-83476367D01*
X117479742Y-82857320D02*
X117479742Y-82809701D01*
X117479742Y-82809701D02*
X117503552Y-82762082D01*
X117503552Y-82762082D02*
X117527361Y-82738272D01*
X117527361Y-82738272D02*
X117574980Y-82714463D01*
X117574980Y-82714463D02*
X117670218Y-82690653D01*
X117670218Y-82690653D02*
X117789266Y-82690653D01*
X117789266Y-82690653D02*
X117884504Y-82714463D01*
X117884504Y-82714463D02*
X117932123Y-82738272D01*
X117932123Y-82738272D02*
X117955933Y-82762082D01*
X117955933Y-82762082D02*
X117979742Y-82809701D01*
X117979742Y-82809701D02*
X117979742Y-82857320D01*
X117979742Y-82857320D02*
X117955933Y-82904939D01*
X117955933Y-82904939D02*
X117932123Y-82928748D01*
X117932123Y-82928748D02*
X117884504Y-82952558D01*
X117884504Y-82952558D02*
X117789266Y-82976367D01*
X117789266Y-82976367D02*
X117670218Y-82976367D01*
X117670218Y-82976367D02*
X117574980Y-82952558D01*
X117574980Y-82952558D02*
X117527361Y-82928748D01*
X117527361Y-82928748D02*
X117503552Y-82904939D01*
X117503552Y-82904939D02*
X117479742Y-82857320D01*
X127687902Y-93714584D02*
X127402188Y-93714584D01*
X127545045Y-93714584D02*
X127545045Y-93214584D01*
X127545045Y-93214584D02*
X127497426Y-93286013D01*
X127497426Y-93286013D02*
X127449807Y-93333632D01*
X127449807Y-93333632D02*
X127402188Y-93357441D01*
X127997425Y-93214584D02*
X128045044Y-93214584D01*
X128045044Y-93214584D02*
X128092663Y-93238394D01*
X128092663Y-93238394D02*
X128116473Y-93262203D01*
X128116473Y-93262203D02*
X128140282Y-93309822D01*
X128140282Y-93309822D02*
X128164092Y-93405060D01*
X128164092Y-93405060D02*
X128164092Y-93524108D01*
X128164092Y-93524108D02*
X128140282Y-93619346D01*
X128140282Y-93619346D02*
X128116473Y-93666965D01*
X128116473Y-93666965D02*
X128092663Y-93690775D01*
X128092663Y-93690775D02*
X128045044Y-93714584D01*
X128045044Y-93714584D02*
X127997425Y-93714584D01*
X127997425Y-93714584D02*
X127949806Y-93690775D01*
X127949806Y-93690775D02*
X127925997Y-93666965D01*
X127925997Y-93666965D02*
X127902187Y-93619346D01*
X127902187Y-93619346D02*
X127878378Y-93524108D01*
X127878378Y-93524108D02*
X127878378Y-93405060D01*
X127878378Y-93405060D02*
X127902187Y-93309822D01*
X127902187Y-93309822D02*
X127925997Y-93262203D01*
X127925997Y-93262203D02*
X127949806Y-93238394D01*
X127949806Y-93238394D02*
X127997425Y-93214584D01*
X128473615Y-93214584D02*
X128521234Y-93214584D01*
X128521234Y-93214584D02*
X128568853Y-93238394D01*
X128568853Y-93238394D02*
X128592663Y-93262203D01*
X128592663Y-93262203D02*
X128616472Y-93309822D01*
X128616472Y-93309822D02*
X128640282Y-93405060D01*
X128640282Y-93405060D02*
X128640282Y-93524108D01*
X128640282Y-93524108D02*
X128616472Y-93619346D01*
X128616472Y-93619346D02*
X128592663Y-93666965D01*
X128592663Y-93666965D02*
X128568853Y-93690775D01*
X128568853Y-93690775D02*
X128521234Y-93714584D01*
X128521234Y-93714584D02*
X128473615Y-93714584D01*
X128473615Y-93714584D02*
X128425996Y-93690775D01*
X128425996Y-93690775D02*
X128402187Y-93666965D01*
X128402187Y-93666965D02*
X128378377Y-93619346D01*
X128378377Y-93619346D02*
X128354568Y-93524108D01*
X128354568Y-93524108D02*
X128354568Y-93405060D01*
X128354568Y-93405060D02*
X128378377Y-93309822D01*
X128378377Y-93309822D02*
X128402187Y-93262203D01*
X128402187Y-93262203D02*
X128425996Y-93238394D01*
X128425996Y-93238394D02*
X128473615Y-93214584D01*
X128854567Y-93381251D02*
X128854567Y-93714584D01*
X128854567Y-93428870D02*
X128878377Y-93405060D01*
X128878377Y-93405060D02*
X128925996Y-93381251D01*
X128925996Y-93381251D02*
X128997424Y-93381251D01*
X128997424Y-93381251D02*
X129045043Y-93405060D01*
X129045043Y-93405060D02*
X129068853Y-93452679D01*
X129068853Y-93452679D02*
X129068853Y-93714584D01*
D11*
X127339316Y-92248780D02*
X127315507Y-92272590D01*
X127315507Y-92272590D02*
X127244078Y-92296399D01*
X127244078Y-92296399D02*
X127196459Y-92296399D01*
X127196459Y-92296399D02*
X127125031Y-92272590D01*
X127125031Y-92272590D02*
X127077412Y-92224970D01*
X127077412Y-92224970D02*
X127053602Y-92177351D01*
X127053602Y-92177351D02*
X127029793Y-92082113D01*
X127029793Y-92082113D02*
X127029793Y-92010685D01*
X127029793Y-92010685D02*
X127053602Y-91915447D01*
X127053602Y-91915447D02*
X127077412Y-91867828D01*
X127077412Y-91867828D02*
X127125031Y-91820209D01*
X127125031Y-91820209D02*
X127196459Y-91796399D01*
X127196459Y-91796399D02*
X127244078Y-91796399D01*
X127244078Y-91796399D02*
X127315507Y-91820209D01*
X127315507Y-91820209D02*
X127339316Y-91844018D01*
X127767888Y-91963066D02*
X127767888Y-92296399D01*
X127648840Y-91772590D02*
X127529793Y-92129732D01*
X127529793Y-92129732D02*
X127839316Y-92129732D01*
D10*
X127876677Y-111345359D02*
X127590963Y-111345359D01*
X127733820Y-111345359D02*
X127733820Y-110845359D01*
X127733820Y-110845359D02*
X127686201Y-110916788D01*
X127686201Y-110916788D02*
X127638582Y-110964407D01*
X127638582Y-110964407D02*
X127590963Y-110988216D01*
X128186200Y-110845359D02*
X128233819Y-110845359D01*
X128233819Y-110845359D02*
X128281438Y-110869169D01*
X128281438Y-110869169D02*
X128305248Y-110892978D01*
X128305248Y-110892978D02*
X128329057Y-110940597D01*
X128329057Y-110940597D02*
X128352867Y-111035835D01*
X128352867Y-111035835D02*
X128352867Y-111154883D01*
X128352867Y-111154883D02*
X128329057Y-111250121D01*
X128329057Y-111250121D02*
X128305248Y-111297740D01*
X128305248Y-111297740D02*
X128281438Y-111321550D01*
X128281438Y-111321550D02*
X128233819Y-111345359D01*
X128233819Y-111345359D02*
X128186200Y-111345359D01*
X128186200Y-111345359D02*
X128138581Y-111321550D01*
X128138581Y-111321550D02*
X128114772Y-111297740D01*
X128114772Y-111297740D02*
X128090962Y-111250121D01*
X128090962Y-111250121D02*
X128067153Y-111154883D01*
X128067153Y-111154883D02*
X128067153Y-111035835D01*
X128067153Y-111035835D02*
X128090962Y-110940597D01*
X128090962Y-110940597D02*
X128114772Y-110892978D01*
X128114772Y-110892978D02*
X128138581Y-110869169D01*
X128138581Y-110869169D02*
X128186200Y-110845359D01*
X128662390Y-110845359D02*
X128710009Y-110845359D01*
X128710009Y-110845359D02*
X128757628Y-110869169D01*
X128757628Y-110869169D02*
X128781438Y-110892978D01*
X128781438Y-110892978D02*
X128805247Y-110940597D01*
X128805247Y-110940597D02*
X128829057Y-111035835D01*
X128829057Y-111035835D02*
X128829057Y-111154883D01*
X128829057Y-111154883D02*
X128805247Y-111250121D01*
X128805247Y-111250121D02*
X128781438Y-111297740D01*
X128781438Y-111297740D02*
X128757628Y-111321550D01*
X128757628Y-111321550D02*
X128710009Y-111345359D01*
X128710009Y-111345359D02*
X128662390Y-111345359D01*
X128662390Y-111345359D02*
X128614771Y-111321550D01*
X128614771Y-111321550D02*
X128590962Y-111297740D01*
X128590962Y-111297740D02*
X128567152Y-111250121D01*
X128567152Y-111250121D02*
X128543343Y-111154883D01*
X128543343Y-111154883D02*
X128543343Y-111035835D01*
X128543343Y-111035835D02*
X128567152Y-110940597D01*
X128567152Y-110940597D02*
X128590962Y-110892978D01*
X128590962Y-110892978D02*
X128614771Y-110869169D01*
X128614771Y-110869169D02*
X128662390Y-110845359D01*
X129043342Y-111012026D02*
X129043342Y-111345359D01*
X129043342Y-111059645D02*
X129067152Y-111035835D01*
X129067152Y-111035835D02*
X129114771Y-111012026D01*
X129114771Y-111012026D02*
X129186199Y-111012026D01*
X129186199Y-111012026D02*
X129233818Y-111035835D01*
X129233818Y-111035835D02*
X129257628Y-111083454D01*
X129257628Y-111083454D02*
X129257628Y-111345359D01*
D11*
X127542516Y-109904955D02*
X127518707Y-109928765D01*
X127518707Y-109928765D02*
X127447278Y-109952574D01*
X127447278Y-109952574D02*
X127399659Y-109952574D01*
X127399659Y-109952574D02*
X127328231Y-109928765D01*
X127328231Y-109928765D02*
X127280612Y-109881145D01*
X127280612Y-109881145D02*
X127256802Y-109833526D01*
X127256802Y-109833526D02*
X127232993Y-109738288D01*
X127232993Y-109738288D02*
X127232993Y-109666860D01*
X127232993Y-109666860D02*
X127256802Y-109571622D01*
X127256802Y-109571622D02*
X127280612Y-109524003D01*
X127280612Y-109524003D02*
X127328231Y-109476384D01*
X127328231Y-109476384D02*
X127399659Y-109452574D01*
X127399659Y-109452574D02*
X127447278Y-109452574D01*
X127447278Y-109452574D02*
X127518707Y-109476384D01*
X127518707Y-109476384D02*
X127542516Y-109500193D01*
X127994897Y-109452574D02*
X127756802Y-109452574D01*
X127756802Y-109452574D02*
X127732993Y-109690669D01*
X127732993Y-109690669D02*
X127756802Y-109666860D01*
X127756802Y-109666860D02*
X127804421Y-109643050D01*
X127804421Y-109643050D02*
X127923469Y-109643050D01*
X127923469Y-109643050D02*
X127971088Y-109666860D01*
X127971088Y-109666860D02*
X127994897Y-109690669D01*
X127994897Y-109690669D02*
X128018707Y-109738288D01*
X128018707Y-109738288D02*
X128018707Y-109857336D01*
X128018707Y-109857336D02*
X127994897Y-109904955D01*
X127994897Y-109904955D02*
X127971088Y-109928765D01*
X127971088Y-109928765D02*
X127923469Y-109952574D01*
X127923469Y-109952574D02*
X127804421Y-109952574D01*
X127804421Y-109952574D02*
X127756802Y-109928765D01*
X127756802Y-109928765D02*
X127732993Y-109904955D01*
D10*
X131320827Y-111320684D02*
X131035113Y-111320684D01*
X131177970Y-111320684D02*
X131177970Y-110820684D01*
X131177970Y-110820684D02*
X131130351Y-110892113D01*
X131130351Y-110892113D02*
X131082732Y-110939732D01*
X131082732Y-110939732D02*
X131035113Y-110963541D01*
X131630350Y-110820684D02*
X131677969Y-110820684D01*
X131677969Y-110820684D02*
X131725588Y-110844494D01*
X131725588Y-110844494D02*
X131749398Y-110868303D01*
X131749398Y-110868303D02*
X131773207Y-110915922D01*
X131773207Y-110915922D02*
X131797017Y-111011160D01*
X131797017Y-111011160D02*
X131797017Y-111130208D01*
X131797017Y-111130208D02*
X131773207Y-111225446D01*
X131773207Y-111225446D02*
X131749398Y-111273065D01*
X131749398Y-111273065D02*
X131725588Y-111296875D01*
X131725588Y-111296875D02*
X131677969Y-111320684D01*
X131677969Y-111320684D02*
X131630350Y-111320684D01*
X131630350Y-111320684D02*
X131582731Y-111296875D01*
X131582731Y-111296875D02*
X131558922Y-111273065D01*
X131558922Y-111273065D02*
X131535112Y-111225446D01*
X131535112Y-111225446D02*
X131511303Y-111130208D01*
X131511303Y-111130208D02*
X131511303Y-111011160D01*
X131511303Y-111011160D02*
X131535112Y-110915922D01*
X131535112Y-110915922D02*
X131558922Y-110868303D01*
X131558922Y-110868303D02*
X131582731Y-110844494D01*
X131582731Y-110844494D02*
X131630350Y-110820684D01*
X132106540Y-110820684D02*
X132154159Y-110820684D01*
X132154159Y-110820684D02*
X132201778Y-110844494D01*
X132201778Y-110844494D02*
X132225588Y-110868303D01*
X132225588Y-110868303D02*
X132249397Y-110915922D01*
X132249397Y-110915922D02*
X132273207Y-111011160D01*
X132273207Y-111011160D02*
X132273207Y-111130208D01*
X132273207Y-111130208D02*
X132249397Y-111225446D01*
X132249397Y-111225446D02*
X132225588Y-111273065D01*
X132225588Y-111273065D02*
X132201778Y-111296875D01*
X132201778Y-111296875D02*
X132154159Y-111320684D01*
X132154159Y-111320684D02*
X132106540Y-111320684D01*
X132106540Y-111320684D02*
X132058921Y-111296875D01*
X132058921Y-111296875D02*
X132035112Y-111273065D01*
X132035112Y-111273065D02*
X132011302Y-111225446D01*
X132011302Y-111225446D02*
X131987493Y-111130208D01*
X131987493Y-111130208D02*
X131987493Y-111011160D01*
X131987493Y-111011160D02*
X132011302Y-110915922D01*
X132011302Y-110915922D02*
X132035112Y-110868303D01*
X132035112Y-110868303D02*
X132058921Y-110844494D01*
X132058921Y-110844494D02*
X132106540Y-110820684D01*
X132487492Y-110987351D02*
X132487492Y-111320684D01*
X132487492Y-111034970D02*
X132511302Y-111011160D01*
X132511302Y-111011160D02*
X132558921Y-110987351D01*
X132558921Y-110987351D02*
X132630349Y-110987351D01*
X132630349Y-110987351D02*
X132677968Y-111011160D01*
X132677968Y-111011160D02*
X132701778Y-111058779D01*
X132701778Y-111058779D02*
X132701778Y-111320684D01*
D11*
X131600196Y-109863680D02*
X131576387Y-109887490D01*
X131576387Y-109887490D02*
X131504958Y-109911299D01*
X131504958Y-109911299D02*
X131457339Y-109911299D01*
X131457339Y-109911299D02*
X131385911Y-109887490D01*
X131385911Y-109887490D02*
X131338292Y-109839870D01*
X131338292Y-109839870D02*
X131314482Y-109792251D01*
X131314482Y-109792251D02*
X131290673Y-109697013D01*
X131290673Y-109697013D02*
X131290673Y-109625585D01*
X131290673Y-109625585D02*
X131314482Y-109530347D01*
X131314482Y-109530347D02*
X131338292Y-109482728D01*
X131338292Y-109482728D02*
X131385911Y-109435109D01*
X131385911Y-109435109D02*
X131457339Y-109411299D01*
X131457339Y-109411299D02*
X131504958Y-109411299D01*
X131504958Y-109411299D02*
X131576387Y-109435109D01*
X131576387Y-109435109D02*
X131600196Y-109458918D01*
X132076387Y-109911299D02*
X131790673Y-109911299D01*
X131933530Y-109911299D02*
X131933530Y-109411299D01*
X131933530Y-109411299D02*
X131885911Y-109482728D01*
X131885911Y-109482728D02*
X131838292Y-109530347D01*
X131838292Y-109530347D02*
X131790673Y-109554156D01*
X132552577Y-109911299D02*
X132266863Y-109911299D01*
X132409720Y-109911299D02*
X132409720Y-109411299D01*
X132409720Y-109411299D02*
X132362101Y-109482728D01*
X132362101Y-109482728D02*
X132314482Y-109530347D01*
X132314482Y-109530347D02*
X132266863Y-109554156D01*
D10*
X131285902Y-102537909D02*
X131000188Y-102537909D01*
X131143045Y-102537909D02*
X131143045Y-102037909D01*
X131143045Y-102037909D02*
X131095426Y-102109338D01*
X131095426Y-102109338D02*
X131047807Y-102156957D01*
X131047807Y-102156957D02*
X131000188Y-102180766D01*
X131595425Y-102037909D02*
X131643044Y-102037909D01*
X131643044Y-102037909D02*
X131690663Y-102061719D01*
X131690663Y-102061719D02*
X131714473Y-102085528D01*
X131714473Y-102085528D02*
X131738282Y-102133147D01*
X131738282Y-102133147D02*
X131762092Y-102228385D01*
X131762092Y-102228385D02*
X131762092Y-102347433D01*
X131762092Y-102347433D02*
X131738282Y-102442671D01*
X131738282Y-102442671D02*
X131714473Y-102490290D01*
X131714473Y-102490290D02*
X131690663Y-102514100D01*
X131690663Y-102514100D02*
X131643044Y-102537909D01*
X131643044Y-102537909D02*
X131595425Y-102537909D01*
X131595425Y-102537909D02*
X131547806Y-102514100D01*
X131547806Y-102514100D02*
X131523997Y-102490290D01*
X131523997Y-102490290D02*
X131500187Y-102442671D01*
X131500187Y-102442671D02*
X131476378Y-102347433D01*
X131476378Y-102347433D02*
X131476378Y-102228385D01*
X131476378Y-102228385D02*
X131500187Y-102133147D01*
X131500187Y-102133147D02*
X131523997Y-102085528D01*
X131523997Y-102085528D02*
X131547806Y-102061719D01*
X131547806Y-102061719D02*
X131595425Y-102037909D01*
X132071615Y-102037909D02*
X132119234Y-102037909D01*
X132119234Y-102037909D02*
X132166853Y-102061719D01*
X132166853Y-102061719D02*
X132190663Y-102085528D01*
X132190663Y-102085528D02*
X132214472Y-102133147D01*
X132214472Y-102133147D02*
X132238282Y-102228385D01*
X132238282Y-102228385D02*
X132238282Y-102347433D01*
X132238282Y-102347433D02*
X132214472Y-102442671D01*
X132214472Y-102442671D02*
X132190663Y-102490290D01*
X132190663Y-102490290D02*
X132166853Y-102514100D01*
X132166853Y-102514100D02*
X132119234Y-102537909D01*
X132119234Y-102537909D02*
X132071615Y-102537909D01*
X132071615Y-102537909D02*
X132023996Y-102514100D01*
X132023996Y-102514100D02*
X132000187Y-102490290D01*
X132000187Y-102490290D02*
X131976377Y-102442671D01*
X131976377Y-102442671D02*
X131952568Y-102347433D01*
X131952568Y-102347433D02*
X131952568Y-102228385D01*
X131952568Y-102228385D02*
X131976377Y-102133147D01*
X131976377Y-102133147D02*
X132000187Y-102085528D01*
X132000187Y-102085528D02*
X132023996Y-102061719D01*
X132023996Y-102061719D02*
X132071615Y-102037909D01*
X132452567Y-102204576D02*
X132452567Y-102537909D01*
X132452567Y-102252195D02*
X132476377Y-102228385D01*
X132476377Y-102228385D02*
X132523996Y-102204576D01*
X132523996Y-102204576D02*
X132595424Y-102204576D01*
X132595424Y-102204576D02*
X132643043Y-102228385D01*
X132643043Y-102228385D02*
X132666853Y-102276004D01*
X132666853Y-102276004D02*
X132666853Y-102537909D01*
D11*
X131460496Y-101097505D02*
X131436687Y-101121315D01*
X131436687Y-101121315D02*
X131365258Y-101145124D01*
X131365258Y-101145124D02*
X131317639Y-101145124D01*
X131317639Y-101145124D02*
X131246211Y-101121315D01*
X131246211Y-101121315D02*
X131198592Y-101073695D01*
X131198592Y-101073695D02*
X131174782Y-101026076D01*
X131174782Y-101026076D02*
X131150973Y-100930838D01*
X131150973Y-100930838D02*
X131150973Y-100859410D01*
X131150973Y-100859410D02*
X131174782Y-100764172D01*
X131174782Y-100764172D02*
X131198592Y-100716553D01*
X131198592Y-100716553D02*
X131246211Y-100668934D01*
X131246211Y-100668934D02*
X131317639Y-100645124D01*
X131317639Y-100645124D02*
X131365258Y-100645124D01*
X131365258Y-100645124D02*
X131436687Y-100668934D01*
X131436687Y-100668934D02*
X131460496Y-100692743D01*
X131936687Y-101145124D02*
X131650973Y-101145124D01*
X131793830Y-101145124D02*
X131793830Y-100645124D01*
X131793830Y-100645124D02*
X131746211Y-100716553D01*
X131746211Y-100716553D02*
X131698592Y-100764172D01*
X131698592Y-100764172D02*
X131650973Y-100787981D01*
X132127163Y-100692743D02*
X132150972Y-100668934D01*
X132150972Y-100668934D02*
X132198591Y-100645124D01*
X132198591Y-100645124D02*
X132317639Y-100645124D01*
X132317639Y-100645124D02*
X132365258Y-100668934D01*
X132365258Y-100668934D02*
X132389067Y-100692743D01*
X132389067Y-100692743D02*
X132412877Y-100740362D01*
X132412877Y-100740362D02*
X132412877Y-100787981D01*
X132412877Y-100787981D02*
X132389067Y-100859410D01*
X132389067Y-100859410D02*
X132103353Y-101145124D01*
X132103353Y-101145124D02*
X132412877Y-101145124D01*
D10*
X131461602Y-128781859D02*
X131175888Y-128781859D01*
X131318745Y-128781859D02*
X131318745Y-128281859D01*
X131318745Y-128281859D02*
X131271126Y-128353288D01*
X131271126Y-128353288D02*
X131223507Y-128400907D01*
X131223507Y-128400907D02*
X131175888Y-128424716D01*
X131771125Y-128281859D02*
X131818744Y-128281859D01*
X131818744Y-128281859D02*
X131866363Y-128305669D01*
X131866363Y-128305669D02*
X131890173Y-128329478D01*
X131890173Y-128329478D02*
X131913982Y-128377097D01*
X131913982Y-128377097D02*
X131937792Y-128472335D01*
X131937792Y-128472335D02*
X131937792Y-128591383D01*
X131937792Y-128591383D02*
X131913982Y-128686621D01*
X131913982Y-128686621D02*
X131890173Y-128734240D01*
X131890173Y-128734240D02*
X131866363Y-128758050D01*
X131866363Y-128758050D02*
X131818744Y-128781859D01*
X131818744Y-128781859D02*
X131771125Y-128781859D01*
X131771125Y-128781859D02*
X131723506Y-128758050D01*
X131723506Y-128758050D02*
X131699697Y-128734240D01*
X131699697Y-128734240D02*
X131675887Y-128686621D01*
X131675887Y-128686621D02*
X131652078Y-128591383D01*
X131652078Y-128591383D02*
X131652078Y-128472335D01*
X131652078Y-128472335D02*
X131675887Y-128377097D01*
X131675887Y-128377097D02*
X131699697Y-128329478D01*
X131699697Y-128329478D02*
X131723506Y-128305669D01*
X131723506Y-128305669D02*
X131771125Y-128281859D01*
X132247315Y-128281859D02*
X132294934Y-128281859D01*
X132294934Y-128281859D02*
X132342553Y-128305669D01*
X132342553Y-128305669D02*
X132366363Y-128329478D01*
X132366363Y-128329478D02*
X132390172Y-128377097D01*
X132390172Y-128377097D02*
X132413982Y-128472335D01*
X132413982Y-128472335D02*
X132413982Y-128591383D01*
X132413982Y-128591383D02*
X132390172Y-128686621D01*
X132390172Y-128686621D02*
X132366363Y-128734240D01*
X132366363Y-128734240D02*
X132342553Y-128758050D01*
X132342553Y-128758050D02*
X132294934Y-128781859D01*
X132294934Y-128781859D02*
X132247315Y-128781859D01*
X132247315Y-128781859D02*
X132199696Y-128758050D01*
X132199696Y-128758050D02*
X132175887Y-128734240D01*
X132175887Y-128734240D02*
X132152077Y-128686621D01*
X132152077Y-128686621D02*
X132128268Y-128591383D01*
X132128268Y-128591383D02*
X132128268Y-128472335D01*
X132128268Y-128472335D02*
X132152077Y-128377097D01*
X132152077Y-128377097D02*
X132175887Y-128329478D01*
X132175887Y-128329478D02*
X132199696Y-128305669D01*
X132199696Y-128305669D02*
X132247315Y-128281859D01*
X132628267Y-128448526D02*
X132628267Y-128781859D01*
X132628267Y-128496145D02*
X132652077Y-128472335D01*
X132652077Y-128472335D02*
X132699696Y-128448526D01*
X132699696Y-128448526D02*
X132771124Y-128448526D01*
X132771124Y-128448526D02*
X132818743Y-128472335D01*
X132818743Y-128472335D02*
X132842553Y-128519954D01*
X132842553Y-128519954D02*
X132842553Y-128781859D01*
D11*
X131860866Y-127382730D02*
X131837057Y-127406540D01*
X131837057Y-127406540D02*
X131765628Y-127430349D01*
X131765628Y-127430349D02*
X131718009Y-127430349D01*
X131718009Y-127430349D02*
X131646581Y-127406540D01*
X131646581Y-127406540D02*
X131598962Y-127358920D01*
X131598962Y-127358920D02*
X131575152Y-127311301D01*
X131575152Y-127311301D02*
X131551343Y-127216063D01*
X131551343Y-127216063D02*
X131551343Y-127144635D01*
X131551343Y-127144635D02*
X131575152Y-127049397D01*
X131575152Y-127049397D02*
X131598962Y-127001778D01*
X131598962Y-127001778D02*
X131646581Y-126954159D01*
X131646581Y-126954159D02*
X131718009Y-126930349D01*
X131718009Y-126930349D02*
X131765628Y-126930349D01*
X131765628Y-126930349D02*
X131837057Y-126954159D01*
X131837057Y-126954159D02*
X131860866Y-126977968D01*
X132146581Y-127144635D02*
X132098962Y-127120825D01*
X132098962Y-127120825D02*
X132075152Y-127097016D01*
X132075152Y-127097016D02*
X132051343Y-127049397D01*
X132051343Y-127049397D02*
X132051343Y-127025587D01*
X132051343Y-127025587D02*
X132075152Y-126977968D01*
X132075152Y-126977968D02*
X132098962Y-126954159D01*
X132098962Y-126954159D02*
X132146581Y-126930349D01*
X132146581Y-126930349D02*
X132241819Y-126930349D01*
X132241819Y-126930349D02*
X132289438Y-126954159D01*
X132289438Y-126954159D02*
X132313247Y-126977968D01*
X132313247Y-126977968D02*
X132337057Y-127025587D01*
X132337057Y-127025587D02*
X132337057Y-127049397D01*
X132337057Y-127049397D02*
X132313247Y-127097016D01*
X132313247Y-127097016D02*
X132289438Y-127120825D01*
X132289438Y-127120825D02*
X132241819Y-127144635D01*
X132241819Y-127144635D02*
X132146581Y-127144635D01*
X132146581Y-127144635D02*
X132098962Y-127168444D01*
X132098962Y-127168444D02*
X132075152Y-127192254D01*
X132075152Y-127192254D02*
X132051343Y-127239873D01*
X132051343Y-127239873D02*
X132051343Y-127335111D01*
X132051343Y-127335111D02*
X132075152Y-127382730D01*
X132075152Y-127382730D02*
X132098962Y-127406540D01*
X132098962Y-127406540D02*
X132146581Y-127430349D01*
X132146581Y-127430349D02*
X132241819Y-127430349D01*
X132241819Y-127430349D02*
X132289438Y-127406540D01*
X132289438Y-127406540D02*
X132313247Y-127382730D01*
X132313247Y-127382730D02*
X132337057Y-127335111D01*
X132337057Y-127335111D02*
X132337057Y-127239873D01*
X132337057Y-127239873D02*
X132313247Y-127192254D01*
X132313247Y-127192254D02*
X132289438Y-127168444D01*
X132289438Y-127168444D02*
X132241819Y-127144635D01*
D13*
X119537941Y-132897949D02*
G75*
G02*
X119477941Y-132897949I-30000J0D01*
G01*
X119477941Y-132897949D02*
G75*
G02*
X119537941Y-132897949I30000J0D01*
G01*
D14*
X126015300Y-85721125D02*
G75*
G02*
X125715300Y-85721125I-150000J0D01*
G01*
X125715300Y-85721125D02*
G75*
G02*
X126015300Y-85721125I150000J0D01*
G01*
D13*
X126357300Y-85185125D02*
G75*
G02*
X126297300Y-85185125I-30000J0D01*
G01*
X126297300Y-85185125D02*
G75*
G02*
X126357300Y-85185125I30000J0D01*
G01*
D10*
X138906725Y-77508350D02*
X140156725Y-77508350D01*
X138906725Y-79508350D02*
X138906725Y-77508350D01*
X140156725Y-77508350D02*
X140156725Y-79508350D01*
X140156725Y-79508350D02*
X138906725Y-79508350D01*
X130921625Y-117841200D02*
X132921625Y-117841200D01*
X130921625Y-119091200D02*
X130921625Y-117841200D01*
X132921625Y-117841200D02*
X132921625Y-119091200D01*
X132921625Y-119091200D02*
X130921625Y-119091200D01*
D14*
X126237550Y-112095850D02*
G75*
G02*
X125937550Y-112095850I-150000J0D01*
G01*
X125937550Y-112095850D02*
G75*
G02*
X126237550Y-112095850I150000J0D01*
G01*
D13*
X126579550Y-111559850D02*
G75*
G02*
X126519550Y-111559850I-30000J0D01*
G01*
X126519550Y-111559850D02*
G75*
G02*
X126579550Y-111559850I30000J0D01*
G01*
D14*
X126120075Y-94569850D02*
G75*
G02*
X125820075Y-94569850I-150000J0D01*
G01*
X125820075Y-94569850D02*
G75*
G02*
X126120075Y-94569850I150000J0D01*
G01*
D13*
X126462075Y-94033850D02*
G75*
G02*
X126402075Y-94033850I-30000J0D01*
G01*
X126402075Y-94033850D02*
G75*
G02*
X126462075Y-94033850I30000J0D01*
G01*
D14*
X126078800Y-103348725D02*
G75*
G02*
X125778800Y-103348725I-150000J0D01*
G01*
X125778800Y-103348725D02*
G75*
G02*
X126078800Y-103348725I150000J0D01*
G01*
D13*
X126420800Y-102812725D02*
G75*
G02*
X126360800Y-102812725I-30000J0D01*
G01*
X126360800Y-102812725D02*
G75*
G02*
X126420800Y-102812725I30000J0D01*
G01*
D15*
X145903675Y-79827450D02*
X166903675Y-79827450D01*
X145903675Y-81127450D02*
X147203675Y-79827450D01*
X145903675Y-130827450D02*
X145903675Y-79827450D01*
X166903675Y-79827450D02*
X166903675Y-130827450D01*
X166903675Y-130827450D02*
X145903675Y-130827450D01*
D10*
X126823050Y-126578200D02*
X128823050Y-126578200D01*
X126823050Y-127828200D02*
X126823050Y-126578200D01*
X128823050Y-126578200D02*
X128823050Y-127828200D01*
X128823050Y-127828200D02*
X126823050Y-127828200D01*
D14*
X126301050Y-120877900D02*
G75*
G02*
X126001050Y-120877900I-150000J0D01*
G01*
X126001050Y-120877900D02*
G75*
G02*
X126301050Y-120877900I150000J0D01*
G01*
D13*
X126643050Y-120341900D02*
G75*
G02*
X126583050Y-120341900I-30000J0D01*
G01*
X126583050Y-120341900D02*
G75*
G02*
X126643050Y-120341900I30000J0D01*
G01*
D10*
X130718425Y-91488700D02*
X132718425Y-91488700D01*
X130718425Y-92738700D02*
X130718425Y-91488700D01*
X132718425Y-91488700D02*
X132718425Y-92738700D01*
X132718425Y-92738700D02*
X130718425Y-92738700D01*
X126403600Y-82598700D02*
X128403600Y-82598700D01*
X126403600Y-83848700D02*
X126403600Y-82598700D01*
X128403600Y-82598700D02*
X128403600Y-83848700D01*
X128403600Y-83848700D02*
X126403600Y-83848700D01*
X130673975Y-82598700D02*
X132673975Y-82598700D01*
X130673975Y-83848700D02*
X130673975Y-82598700D01*
X132673975Y-82598700D02*
X132673975Y-83848700D01*
X132673975Y-83848700D02*
X130673975Y-83848700D01*
D13*
X133481100Y-69181325D02*
G75*
G02*
X133421100Y-69181325I-30000J0D01*
G01*
X133421100Y-69181325D02*
G75*
G02*
X133481100Y-69181325I30000J0D01*
G01*
D16*
G36*
X133441100Y-70151325D02*
G01*
X133441100Y-70741325D01*
X125451100Y-70741325D01*
X125451100Y-69191325D01*
X133441100Y-69191325D01*
X133441100Y-70151325D01*
G37*
D10*
X126670300Y-117841200D02*
X128670300Y-117841200D01*
X126670300Y-119091200D02*
X126670300Y-117841200D01*
X128670300Y-117841200D02*
X128670300Y-119091200D01*
X128670300Y-119091200D02*
X126670300Y-119091200D01*
D13*
X137120850Y-80668775D02*
G75*
G02*
X137060850Y-80668775I-30000J0D01*
G01*
X137060850Y-80668775D02*
G75*
G02*
X137120850Y-80668775I30000J0D01*
G01*
D16*
G36*
X136436850Y-77547775D02*
G01*
X136259850Y-77547775D01*
X136259850Y-76887775D01*
X136436850Y-76887775D01*
X136436850Y-77547775D01*
G37*
G36*
X136436850Y-80947775D02*
G01*
X136259850Y-80947775D01*
X136259850Y-80287775D01*
X136436850Y-80287775D01*
X136436850Y-80947775D01*
G37*
G36*
X136675850Y-77318775D02*
G01*
X136015850Y-77318775D01*
X136015850Y-77140775D01*
X136675850Y-77140775D01*
X136675850Y-77318775D01*
G37*
D13*
X133345075Y-136407450D02*
G75*
G02*
X133285075Y-136407450I-30000J0D01*
G01*
X133285075Y-136407450D02*
G75*
G02*
X133345075Y-136407450I30000J0D01*
G01*
D16*
G36*
X127325075Y-142227450D02*
G01*
X127325075Y-146727450D01*
X126625075Y-146727450D01*
X126625075Y-140827450D01*
X127325075Y-140827450D01*
X127325075Y-142227450D01*
G37*
G36*
X129865075Y-142227450D02*
G01*
X129865075Y-146727450D01*
X129165075Y-146727450D01*
X129165075Y-140827450D01*
X129865075Y-140827450D01*
X129865075Y-142227450D01*
G37*
G36*
X132405075Y-142227450D02*
G01*
X132405075Y-146727450D01*
X131705075Y-146727450D01*
X131705075Y-140827450D01*
X132405075Y-140827450D01*
X132405075Y-142227450D01*
G37*
D10*
X138668600Y-81778600D02*
X139918600Y-81778600D01*
X138668600Y-83778600D02*
X138668600Y-81778600D01*
X139918600Y-81778600D02*
X139918600Y-83778600D01*
X139918600Y-83778600D02*
X138668600Y-83778600D01*
X126530600Y-100270750D02*
X128530600Y-100270750D01*
X126530600Y-101520750D02*
X126530600Y-100270750D01*
X128530600Y-100270750D02*
X128530600Y-101520750D01*
X128530600Y-101520750D02*
X126530600Y-101520750D01*
D14*
X126495250Y-129825250D02*
G75*
G02*
X126195250Y-129825250I-150000J0D01*
G01*
X126195250Y-129825250D02*
G75*
G02*
X126495250Y-129825250I150000J0D01*
G01*
D13*
X126837250Y-129289250D02*
G75*
G02*
X126777250Y-129289250I-30000J0D01*
G01*
X126777250Y-129289250D02*
G75*
G02*
X126837250Y-129289250I30000J0D01*
G01*
X109445033Y-76729627D02*
G75*
G02*
X109385033Y-76729627I-30000J0D01*
G01*
X109385033Y-76729627D02*
G75*
G02*
X109445033Y-76729627I30000J0D01*
G01*
D16*
G36*
X112335033Y-82279627D02*
G01*
X109335033Y-82279627D01*
X109335033Y-80479627D01*
X112335033Y-80479627D01*
X112335033Y-82279627D01*
G37*
D10*
X126422650Y-91444250D02*
X128422650Y-91444250D01*
X126422650Y-92694250D02*
X126422650Y-91444250D01*
X128422650Y-91444250D02*
X128422650Y-92694250D01*
X128422650Y-92694250D02*
X126422650Y-92694250D01*
X126625850Y-109100425D02*
X128625850Y-109100425D01*
X126625850Y-110350425D02*
X126625850Y-109100425D01*
X128625850Y-109100425D02*
X128625850Y-110350425D01*
X128625850Y-110350425D02*
X126625850Y-110350425D01*
X130921625Y-109059150D02*
X132921625Y-109059150D01*
X130921625Y-110309150D02*
X130921625Y-109059150D01*
X132921625Y-109059150D02*
X132921625Y-110309150D01*
X132921625Y-110309150D02*
X130921625Y-110309150D01*
X130781925Y-100292975D02*
X132781925Y-100292975D01*
X130781925Y-101542975D02*
X130781925Y-100292975D01*
X132781925Y-100292975D02*
X132781925Y-101542975D01*
X132781925Y-101542975D02*
X130781925Y-101542975D01*
X130944200Y-126578200D02*
X132944200Y-126578200D01*
X130944200Y-127828200D02*
X130944200Y-126578200D01*
X132944200Y-126578200D02*
X132944200Y-127828200D01*
X132944200Y-127828200D02*
X130944200Y-127828200D01*
M02*
