G04 #@! TF.GenerationSoftware,KiCad,Pcbnew,9.0.5*
G04 #@! TF.CreationDate,2025-12-02T14:35:45+00:00*
G04 #@! TF.ProjectId,jitx-design,6a697478-2d64-4657-9369-676e2e6b6963,1.0*
G04 #@! TF.SameCoordinates,Original*
G04 #@! TF.FileFunction,Other,Comment*
%FSLAX46Y46*%
G04 Gerber Fmt 4.6, Leading zero omitted, Abs format (unit mm)*
G04 Created by KiCad (PCBNEW 9.0.5) date 2025-12-02 14:35:45*
%MOMM*%
%LPD*%
G01*
G04 APERTURE LIST*
%ADD10C,0.075000*%
%ADD11C,0.150000*%
G04 APERTURE END LIST*
D10*
X143863201Y-139377359D02*
X143863201Y-138877359D01*
X144148915Y-139377359D02*
X143934630Y-139091645D01*
X144148915Y-138877359D02*
X143863201Y-139163073D01*
X144553677Y-139353550D02*
X144506058Y-139377359D01*
X144506058Y-139377359D02*
X144410820Y-139377359D01*
X144410820Y-139377359D02*
X144363201Y-139353550D01*
X144363201Y-139353550D02*
X144339392Y-139305930D01*
X144339392Y-139305930D02*
X144339392Y-139115454D01*
X144339392Y-139115454D02*
X144363201Y-139067835D01*
X144363201Y-139067835D02*
X144410820Y-139044026D01*
X144410820Y-139044026D02*
X144506058Y-139044026D01*
X144506058Y-139044026D02*
X144553677Y-139067835D01*
X144553677Y-139067835D02*
X144577487Y-139115454D01*
X144577487Y-139115454D02*
X144577487Y-139163073D01*
X144577487Y-139163073D02*
X144339392Y-139210692D01*
X144982248Y-139353550D02*
X144934629Y-139377359D01*
X144934629Y-139377359D02*
X144839391Y-139377359D01*
X144839391Y-139377359D02*
X144791772Y-139353550D01*
X144791772Y-139353550D02*
X144767963Y-139305930D01*
X144767963Y-139305930D02*
X144767963Y-139115454D01*
X144767963Y-139115454D02*
X144791772Y-139067835D01*
X144791772Y-139067835D02*
X144839391Y-139044026D01*
X144839391Y-139044026D02*
X144934629Y-139044026D01*
X144934629Y-139044026D02*
X144982248Y-139067835D01*
X144982248Y-139067835D02*
X145006058Y-139115454D01*
X145006058Y-139115454D02*
X145006058Y-139163073D01*
X145006058Y-139163073D02*
X144767963Y-139210692D01*
X145220343Y-139044026D02*
X145220343Y-139544026D01*
X145220343Y-139067835D02*
X145267962Y-139044026D01*
X145267962Y-139044026D02*
X145363200Y-139044026D01*
X145363200Y-139044026D02*
X145410819Y-139067835D01*
X145410819Y-139067835D02*
X145434629Y-139091645D01*
X145434629Y-139091645D02*
X145458438Y-139139264D01*
X145458438Y-139139264D02*
X145458438Y-139282121D01*
X145458438Y-139282121D02*
X145434629Y-139329740D01*
X145434629Y-139329740D02*
X145410819Y-139353550D01*
X145410819Y-139353550D02*
X145363200Y-139377359D01*
X145363200Y-139377359D02*
X145267962Y-139377359D01*
X145267962Y-139377359D02*
X145220343Y-139353550D01*
X146267962Y-139044026D02*
X146267962Y-139377359D01*
X146053676Y-139044026D02*
X146053676Y-139305930D01*
X146053676Y-139305930D02*
X146077486Y-139353550D01*
X146077486Y-139353550D02*
X146125105Y-139377359D01*
X146125105Y-139377359D02*
X146196533Y-139377359D01*
X146196533Y-139377359D02*
X146244152Y-139353550D01*
X146244152Y-139353550D02*
X146267962Y-139329740D01*
X146506057Y-139044026D02*
X146506057Y-139377359D01*
X146506057Y-139091645D02*
X146529867Y-139067835D01*
X146529867Y-139067835D02*
X146577486Y-139044026D01*
X146577486Y-139044026D02*
X146648914Y-139044026D01*
X146648914Y-139044026D02*
X146696533Y-139067835D01*
X146696533Y-139067835D02*
X146720343Y-139115454D01*
X146720343Y-139115454D02*
X146720343Y-139377359D01*
X147029867Y-139377359D02*
X146982248Y-139353550D01*
X146982248Y-139353550D02*
X146958438Y-139329740D01*
X146958438Y-139329740D02*
X146934629Y-139282121D01*
X146934629Y-139282121D02*
X146934629Y-139139264D01*
X146934629Y-139139264D02*
X146958438Y-139091645D01*
X146958438Y-139091645D02*
X146982248Y-139067835D01*
X146982248Y-139067835D02*
X147029867Y-139044026D01*
X147029867Y-139044026D02*
X147101295Y-139044026D01*
X147101295Y-139044026D02*
X147148914Y-139067835D01*
X147148914Y-139067835D02*
X147172724Y-139091645D01*
X147172724Y-139091645D02*
X147196533Y-139139264D01*
X147196533Y-139139264D02*
X147196533Y-139282121D01*
X147196533Y-139282121D02*
X147172724Y-139329740D01*
X147172724Y-139329740D02*
X147148914Y-139353550D01*
X147148914Y-139353550D02*
X147101295Y-139377359D01*
X147101295Y-139377359D02*
X147029867Y-139377359D01*
X147410819Y-139377359D02*
X147410819Y-138877359D01*
X147410819Y-139067835D02*
X147458438Y-139044026D01*
X147458438Y-139044026D02*
X147553676Y-139044026D01*
X147553676Y-139044026D02*
X147601295Y-139067835D01*
X147601295Y-139067835D02*
X147625105Y-139091645D01*
X147625105Y-139091645D02*
X147648914Y-139139264D01*
X147648914Y-139139264D02*
X147648914Y-139282121D01*
X147648914Y-139282121D02*
X147625105Y-139329740D01*
X147625105Y-139329740D02*
X147601295Y-139353550D01*
X147601295Y-139353550D02*
X147553676Y-139377359D01*
X147553676Y-139377359D02*
X147458438Y-139377359D01*
X147458438Y-139377359D02*
X147410819Y-139353550D01*
X147839391Y-139353550D02*
X147887010Y-139377359D01*
X147887010Y-139377359D02*
X147982248Y-139377359D01*
X147982248Y-139377359D02*
X148029867Y-139353550D01*
X148029867Y-139353550D02*
X148053676Y-139305930D01*
X148053676Y-139305930D02*
X148053676Y-139282121D01*
X148053676Y-139282121D02*
X148029867Y-139234502D01*
X148029867Y-139234502D02*
X147982248Y-139210692D01*
X147982248Y-139210692D02*
X147910819Y-139210692D01*
X147910819Y-139210692D02*
X147863200Y-139186883D01*
X147863200Y-139186883D02*
X147839391Y-139139264D01*
X147839391Y-139139264D02*
X147839391Y-139115454D01*
X147839391Y-139115454D02*
X147863200Y-139067835D01*
X147863200Y-139067835D02*
X147910819Y-139044026D01*
X147910819Y-139044026D02*
X147982248Y-139044026D01*
X147982248Y-139044026D02*
X148029867Y-139067835D01*
X148196534Y-139044026D02*
X148387010Y-139044026D01*
X148267962Y-138877359D02*
X148267962Y-139305930D01*
X148267962Y-139305930D02*
X148291772Y-139353550D01*
X148291772Y-139353550D02*
X148339391Y-139377359D01*
X148339391Y-139377359D02*
X148387010Y-139377359D01*
X148553676Y-139377359D02*
X148553676Y-139044026D01*
X148553676Y-139139264D02*
X148577486Y-139091645D01*
X148577486Y-139091645D02*
X148601295Y-139067835D01*
X148601295Y-139067835D02*
X148648914Y-139044026D01*
X148648914Y-139044026D02*
X148696533Y-139044026D01*
X149077486Y-139044026D02*
X149077486Y-139377359D01*
X148863200Y-139044026D02*
X148863200Y-139305930D01*
X148863200Y-139305930D02*
X148887010Y-139353550D01*
X148887010Y-139353550D02*
X148934629Y-139377359D01*
X148934629Y-139377359D02*
X149006057Y-139377359D01*
X149006057Y-139377359D02*
X149053676Y-139353550D01*
X149053676Y-139353550D02*
X149077486Y-139329740D01*
X149529867Y-139353550D02*
X149482248Y-139377359D01*
X149482248Y-139377359D02*
X149387010Y-139377359D01*
X149387010Y-139377359D02*
X149339391Y-139353550D01*
X149339391Y-139353550D02*
X149315581Y-139329740D01*
X149315581Y-139329740D02*
X149291772Y-139282121D01*
X149291772Y-139282121D02*
X149291772Y-139139264D01*
X149291772Y-139139264D02*
X149315581Y-139091645D01*
X149315581Y-139091645D02*
X149339391Y-139067835D01*
X149339391Y-139067835D02*
X149387010Y-139044026D01*
X149387010Y-139044026D02*
X149482248Y-139044026D01*
X149482248Y-139044026D02*
X149529867Y-139067835D01*
X149672724Y-139044026D02*
X149863200Y-139044026D01*
X149744152Y-138877359D02*
X149744152Y-139305930D01*
X149744152Y-139305930D02*
X149767962Y-139353550D01*
X149767962Y-139353550D02*
X149815581Y-139377359D01*
X149815581Y-139377359D02*
X149863200Y-139377359D01*
X150220342Y-139353550D02*
X150172723Y-139377359D01*
X150172723Y-139377359D02*
X150077485Y-139377359D01*
X150077485Y-139377359D02*
X150029866Y-139353550D01*
X150029866Y-139353550D02*
X150006057Y-139305930D01*
X150006057Y-139305930D02*
X150006057Y-139115454D01*
X150006057Y-139115454D02*
X150029866Y-139067835D01*
X150029866Y-139067835D02*
X150077485Y-139044026D01*
X150077485Y-139044026D02*
X150172723Y-139044026D01*
X150172723Y-139044026D02*
X150220342Y-139067835D01*
X150220342Y-139067835D02*
X150244152Y-139115454D01*
X150244152Y-139115454D02*
X150244152Y-139163073D01*
X150244152Y-139163073D02*
X150006057Y-139210692D01*
X150672723Y-139377359D02*
X150672723Y-138877359D01*
X150672723Y-139353550D02*
X150625104Y-139377359D01*
X150625104Y-139377359D02*
X150529866Y-139377359D01*
X150529866Y-139377359D02*
X150482247Y-139353550D01*
X150482247Y-139353550D02*
X150458437Y-139329740D01*
X150458437Y-139329740D02*
X150434628Y-139282121D01*
X150434628Y-139282121D02*
X150434628Y-139139264D01*
X150434628Y-139139264D02*
X150458437Y-139091645D01*
X150458437Y-139091645D02*
X150482247Y-139067835D01*
X150482247Y-139067835D02*
X150529866Y-139044026D01*
X150529866Y-139044026D02*
X150625104Y-139044026D01*
X150625104Y-139044026D02*
X150672723Y-139067835D01*
X151291770Y-139377359D02*
X151291770Y-138877359D01*
X151291770Y-139067835D02*
X151339389Y-139044026D01*
X151339389Y-139044026D02*
X151434627Y-139044026D01*
X151434627Y-139044026D02*
X151482246Y-139067835D01*
X151482246Y-139067835D02*
X151506056Y-139091645D01*
X151506056Y-139091645D02*
X151529865Y-139139264D01*
X151529865Y-139139264D02*
X151529865Y-139282121D01*
X151529865Y-139282121D02*
X151506056Y-139329740D01*
X151506056Y-139329740D02*
X151482246Y-139353550D01*
X151482246Y-139353550D02*
X151434627Y-139377359D01*
X151434627Y-139377359D02*
X151339389Y-139377359D01*
X151339389Y-139377359D02*
X151291770Y-139353550D01*
X151696532Y-139044026D02*
X151815580Y-139377359D01*
X151934627Y-139044026D02*
X151815580Y-139377359D01*
X151815580Y-139377359D02*
X151767961Y-139496407D01*
X151767961Y-139496407D02*
X151744151Y-139520216D01*
X151744151Y-139520216D02*
X151696532Y-139544026D01*
X152506055Y-139377359D02*
X152506055Y-139044026D01*
X152506055Y-139091645D02*
X152529865Y-139067835D01*
X152529865Y-139067835D02*
X152577484Y-139044026D01*
X152577484Y-139044026D02*
X152648912Y-139044026D01*
X152648912Y-139044026D02*
X152696531Y-139067835D01*
X152696531Y-139067835D02*
X152720341Y-139115454D01*
X152720341Y-139115454D02*
X152720341Y-139377359D01*
X152720341Y-139115454D02*
X152744150Y-139067835D01*
X152744150Y-139067835D02*
X152791769Y-139044026D01*
X152791769Y-139044026D02*
X152863198Y-139044026D01*
X152863198Y-139044026D02*
X152910817Y-139067835D01*
X152910817Y-139067835D02*
X152934627Y-139115454D01*
X152934627Y-139115454D02*
X152934627Y-139377359D01*
X153363198Y-139353550D02*
X153315579Y-139377359D01*
X153315579Y-139377359D02*
X153220341Y-139377359D01*
X153220341Y-139377359D02*
X153172722Y-139353550D01*
X153172722Y-139353550D02*
X153148913Y-139305930D01*
X153148913Y-139305930D02*
X153148913Y-139115454D01*
X153148913Y-139115454D02*
X153172722Y-139067835D01*
X153172722Y-139067835D02*
X153220341Y-139044026D01*
X153220341Y-139044026D02*
X153315579Y-139044026D01*
X153315579Y-139044026D02*
X153363198Y-139067835D01*
X153363198Y-139067835D02*
X153387008Y-139115454D01*
X153387008Y-139115454D02*
X153387008Y-139163073D01*
X153387008Y-139163073D02*
X153148913Y-139210692D01*
X153529865Y-139044026D02*
X153720341Y-139044026D01*
X153601293Y-138877359D02*
X153601293Y-139305930D01*
X153601293Y-139305930D02*
X153625103Y-139353550D01*
X153625103Y-139353550D02*
X153672722Y-139377359D01*
X153672722Y-139377359D02*
X153720341Y-139377359D01*
X154101293Y-139377359D02*
X154101293Y-139115454D01*
X154101293Y-139115454D02*
X154077483Y-139067835D01*
X154077483Y-139067835D02*
X154029864Y-139044026D01*
X154029864Y-139044026D02*
X153934626Y-139044026D01*
X153934626Y-139044026D02*
X153887007Y-139067835D01*
X154101293Y-139353550D02*
X154053674Y-139377359D01*
X154053674Y-139377359D02*
X153934626Y-139377359D01*
X153934626Y-139377359D02*
X153887007Y-139353550D01*
X153887007Y-139353550D02*
X153863198Y-139305930D01*
X153863198Y-139305930D02*
X153863198Y-139258311D01*
X153863198Y-139258311D02*
X153887007Y-139210692D01*
X153887007Y-139210692D02*
X153934626Y-139186883D01*
X153934626Y-139186883D02*
X154053674Y-139186883D01*
X154053674Y-139186883D02*
X154101293Y-139163073D01*
X154410817Y-139377359D02*
X154363198Y-139353550D01*
X154363198Y-139353550D02*
X154339388Y-139305930D01*
X154339388Y-139305930D02*
X154339388Y-138877359D01*
X155196531Y-139377359D02*
X155196531Y-139115454D01*
X155196531Y-139115454D02*
X155172721Y-139067835D01*
X155172721Y-139067835D02*
X155125102Y-139044026D01*
X155125102Y-139044026D02*
X155029864Y-139044026D01*
X155029864Y-139044026D02*
X154982245Y-139067835D01*
X155196531Y-139353550D02*
X155148912Y-139377359D01*
X155148912Y-139377359D02*
X155029864Y-139377359D01*
X155029864Y-139377359D02*
X154982245Y-139353550D01*
X154982245Y-139353550D02*
X154958436Y-139305930D01*
X154958436Y-139305930D02*
X154958436Y-139258311D01*
X154958436Y-139258311D02*
X154982245Y-139210692D01*
X154982245Y-139210692D02*
X155029864Y-139186883D01*
X155029864Y-139186883D02*
X155148912Y-139186883D01*
X155148912Y-139186883D02*
X155196531Y-139163073D01*
X155410817Y-139353550D02*
X155458436Y-139377359D01*
X155458436Y-139377359D02*
X155553674Y-139377359D01*
X155553674Y-139377359D02*
X155601293Y-139353550D01*
X155601293Y-139353550D02*
X155625102Y-139305930D01*
X155625102Y-139305930D02*
X155625102Y-139282121D01*
X155625102Y-139282121D02*
X155601293Y-139234502D01*
X155601293Y-139234502D02*
X155553674Y-139210692D01*
X155553674Y-139210692D02*
X155482245Y-139210692D01*
X155482245Y-139210692D02*
X155434626Y-139186883D01*
X155434626Y-139186883D02*
X155410817Y-139139264D01*
X155410817Y-139139264D02*
X155410817Y-139115454D01*
X155410817Y-139115454D02*
X155434626Y-139067835D01*
X155434626Y-139067835D02*
X155482245Y-139044026D01*
X155482245Y-139044026D02*
X155553674Y-139044026D01*
X155553674Y-139044026D02*
X155601293Y-139067835D01*
X156148912Y-139044026D02*
X156339388Y-139044026D01*
X156220340Y-139377359D02*
X156220340Y-138948788D01*
X156220340Y-138948788D02*
X156244150Y-138901169D01*
X156244150Y-138901169D02*
X156291769Y-138877359D01*
X156291769Y-138877359D02*
X156339388Y-138877359D01*
X156720340Y-139377359D02*
X156720340Y-139115454D01*
X156720340Y-139115454D02*
X156696530Y-139067835D01*
X156696530Y-139067835D02*
X156648911Y-139044026D01*
X156648911Y-139044026D02*
X156553673Y-139044026D01*
X156553673Y-139044026D02*
X156506054Y-139067835D01*
X156720340Y-139353550D02*
X156672721Y-139377359D01*
X156672721Y-139377359D02*
X156553673Y-139377359D01*
X156553673Y-139377359D02*
X156506054Y-139353550D01*
X156506054Y-139353550D02*
X156482245Y-139305930D01*
X156482245Y-139305930D02*
X156482245Y-139258311D01*
X156482245Y-139258311D02*
X156506054Y-139210692D01*
X156506054Y-139210692D02*
X156553673Y-139186883D01*
X156553673Y-139186883D02*
X156672721Y-139186883D01*
X156672721Y-139186883D02*
X156720340Y-139163073D01*
X156958435Y-139377359D02*
X156958435Y-139044026D01*
X156958435Y-139139264D02*
X156982245Y-139091645D01*
X156982245Y-139091645D02*
X157006054Y-139067835D01*
X157006054Y-139067835D02*
X157053673Y-139044026D01*
X157053673Y-139044026D02*
X157101292Y-139044026D01*
X157863197Y-139377359D02*
X157863197Y-139115454D01*
X157863197Y-139115454D02*
X157839387Y-139067835D01*
X157839387Y-139067835D02*
X157791768Y-139044026D01*
X157791768Y-139044026D02*
X157696530Y-139044026D01*
X157696530Y-139044026D02*
X157648911Y-139067835D01*
X157863197Y-139353550D02*
X157815578Y-139377359D01*
X157815578Y-139377359D02*
X157696530Y-139377359D01*
X157696530Y-139377359D02*
X157648911Y-139353550D01*
X157648911Y-139353550D02*
X157625102Y-139305930D01*
X157625102Y-139305930D02*
X157625102Y-139258311D01*
X157625102Y-139258311D02*
X157648911Y-139210692D01*
X157648911Y-139210692D02*
X157696530Y-139186883D01*
X157696530Y-139186883D02*
X157815578Y-139186883D01*
X157815578Y-139186883D02*
X157863197Y-139163073D01*
X158077483Y-139353550D02*
X158125102Y-139377359D01*
X158125102Y-139377359D02*
X158220340Y-139377359D01*
X158220340Y-139377359D02*
X158267959Y-139353550D01*
X158267959Y-139353550D02*
X158291768Y-139305930D01*
X158291768Y-139305930D02*
X158291768Y-139282121D01*
X158291768Y-139282121D02*
X158267959Y-139234502D01*
X158267959Y-139234502D02*
X158220340Y-139210692D01*
X158220340Y-139210692D02*
X158148911Y-139210692D01*
X158148911Y-139210692D02*
X158101292Y-139186883D01*
X158101292Y-139186883D02*
X158077483Y-139139264D01*
X158077483Y-139139264D02*
X158077483Y-139115454D01*
X158077483Y-139115454D02*
X158101292Y-139067835D01*
X158101292Y-139067835D02*
X158148911Y-139044026D01*
X158148911Y-139044026D02*
X158220340Y-139044026D01*
X158220340Y-139044026D02*
X158267959Y-139067835D01*
X158887006Y-139044026D02*
X158887006Y-139544026D01*
X158887006Y-139067835D02*
X158934625Y-139044026D01*
X158934625Y-139044026D02*
X159029863Y-139044026D01*
X159029863Y-139044026D02*
X159077482Y-139067835D01*
X159077482Y-139067835D02*
X159101292Y-139091645D01*
X159101292Y-139091645D02*
X159125101Y-139139264D01*
X159125101Y-139139264D02*
X159125101Y-139282121D01*
X159125101Y-139282121D02*
X159101292Y-139329740D01*
X159101292Y-139329740D02*
X159077482Y-139353550D01*
X159077482Y-139353550D02*
X159029863Y-139377359D01*
X159029863Y-139377359D02*
X158934625Y-139377359D01*
X158934625Y-139377359D02*
X158887006Y-139353550D01*
X159410816Y-139377359D02*
X159363197Y-139353550D01*
X159363197Y-139353550D02*
X159339387Y-139329740D01*
X159339387Y-139329740D02*
X159315578Y-139282121D01*
X159315578Y-139282121D02*
X159315578Y-139139264D01*
X159315578Y-139139264D02*
X159339387Y-139091645D01*
X159339387Y-139091645D02*
X159363197Y-139067835D01*
X159363197Y-139067835D02*
X159410816Y-139044026D01*
X159410816Y-139044026D02*
X159482244Y-139044026D01*
X159482244Y-139044026D02*
X159529863Y-139067835D01*
X159529863Y-139067835D02*
X159553673Y-139091645D01*
X159553673Y-139091645D02*
X159577482Y-139139264D01*
X159577482Y-139139264D02*
X159577482Y-139282121D01*
X159577482Y-139282121D02*
X159553673Y-139329740D01*
X159553673Y-139329740D02*
X159529863Y-139353550D01*
X159529863Y-139353550D02*
X159482244Y-139377359D01*
X159482244Y-139377359D02*
X159410816Y-139377359D01*
X159767959Y-139353550D02*
X159815578Y-139377359D01*
X159815578Y-139377359D02*
X159910816Y-139377359D01*
X159910816Y-139377359D02*
X159958435Y-139353550D01*
X159958435Y-139353550D02*
X159982244Y-139305930D01*
X159982244Y-139305930D02*
X159982244Y-139282121D01*
X159982244Y-139282121D02*
X159958435Y-139234502D01*
X159958435Y-139234502D02*
X159910816Y-139210692D01*
X159910816Y-139210692D02*
X159839387Y-139210692D01*
X159839387Y-139210692D02*
X159791768Y-139186883D01*
X159791768Y-139186883D02*
X159767959Y-139139264D01*
X159767959Y-139139264D02*
X159767959Y-139115454D01*
X159767959Y-139115454D02*
X159791768Y-139067835D01*
X159791768Y-139067835D02*
X159839387Y-139044026D01*
X159839387Y-139044026D02*
X159910816Y-139044026D01*
X159910816Y-139044026D02*
X159958435Y-139067835D01*
X160172721Y-139353550D02*
X160220340Y-139377359D01*
X160220340Y-139377359D02*
X160315578Y-139377359D01*
X160315578Y-139377359D02*
X160363197Y-139353550D01*
X160363197Y-139353550D02*
X160387006Y-139305930D01*
X160387006Y-139305930D02*
X160387006Y-139282121D01*
X160387006Y-139282121D02*
X160363197Y-139234502D01*
X160363197Y-139234502D02*
X160315578Y-139210692D01*
X160315578Y-139210692D02*
X160244149Y-139210692D01*
X160244149Y-139210692D02*
X160196530Y-139186883D01*
X160196530Y-139186883D02*
X160172721Y-139139264D01*
X160172721Y-139139264D02*
X160172721Y-139115454D01*
X160172721Y-139115454D02*
X160196530Y-139067835D01*
X160196530Y-139067835D02*
X160244149Y-139044026D01*
X160244149Y-139044026D02*
X160315578Y-139044026D01*
X160315578Y-139044026D02*
X160363197Y-139067835D01*
X160601292Y-139377359D02*
X160601292Y-139044026D01*
X160601292Y-138877359D02*
X160577483Y-138901169D01*
X160577483Y-138901169D02*
X160601292Y-138924978D01*
X160601292Y-138924978D02*
X160625102Y-138901169D01*
X160625102Y-138901169D02*
X160601292Y-138877359D01*
X160601292Y-138877359D02*
X160601292Y-138924978D01*
X160839387Y-139377359D02*
X160839387Y-138877359D01*
X160839387Y-139067835D02*
X160887006Y-139044026D01*
X160887006Y-139044026D02*
X160982244Y-139044026D01*
X160982244Y-139044026D02*
X161029863Y-139067835D01*
X161029863Y-139067835D02*
X161053673Y-139091645D01*
X161053673Y-139091645D02*
X161077482Y-139139264D01*
X161077482Y-139139264D02*
X161077482Y-139282121D01*
X161077482Y-139282121D02*
X161053673Y-139329740D01*
X161053673Y-139329740D02*
X161029863Y-139353550D01*
X161029863Y-139353550D02*
X160982244Y-139377359D01*
X160982244Y-139377359D02*
X160887006Y-139377359D01*
X160887006Y-139377359D02*
X160839387Y-139353550D01*
X161363197Y-139377359D02*
X161315578Y-139353550D01*
X161315578Y-139353550D02*
X161291768Y-139305930D01*
X161291768Y-139305930D02*
X161291768Y-138877359D01*
X161744149Y-139353550D02*
X161696530Y-139377359D01*
X161696530Y-139377359D02*
X161601292Y-139377359D01*
X161601292Y-139377359D02*
X161553673Y-139353550D01*
X161553673Y-139353550D02*
X161529864Y-139305930D01*
X161529864Y-139305930D02*
X161529864Y-139115454D01*
X161529864Y-139115454D02*
X161553673Y-139067835D01*
X161553673Y-139067835D02*
X161601292Y-139044026D01*
X161601292Y-139044026D02*
X161696530Y-139044026D01*
X161696530Y-139044026D02*
X161744149Y-139067835D01*
X161744149Y-139067835D02*
X161767959Y-139115454D01*
X161767959Y-139115454D02*
X161767959Y-139163073D01*
X161767959Y-139163073D02*
X161529864Y-139210692D01*
X162363196Y-139377359D02*
X162363196Y-139044026D01*
X162363196Y-138877359D02*
X162339387Y-138901169D01*
X162339387Y-138901169D02*
X162363196Y-138924978D01*
X162363196Y-138924978D02*
X162387006Y-138901169D01*
X162387006Y-138901169D02*
X162363196Y-138877359D01*
X162363196Y-138877359D02*
X162363196Y-138924978D01*
X162601291Y-139044026D02*
X162601291Y-139377359D01*
X162601291Y-139091645D02*
X162625101Y-139067835D01*
X162625101Y-139067835D02*
X162672720Y-139044026D01*
X162672720Y-139044026D02*
X162744148Y-139044026D01*
X162744148Y-139044026D02*
X162791767Y-139067835D01*
X162791767Y-139067835D02*
X162815577Y-139115454D01*
X162815577Y-139115454D02*
X162815577Y-139377359D01*
X163648910Y-139377359D02*
X163648910Y-139115454D01*
X163648910Y-139115454D02*
X163625100Y-139067835D01*
X163625100Y-139067835D02*
X163577481Y-139044026D01*
X163577481Y-139044026D02*
X163482243Y-139044026D01*
X163482243Y-139044026D02*
X163434624Y-139067835D01*
X163648910Y-139353550D02*
X163601291Y-139377359D01*
X163601291Y-139377359D02*
X163482243Y-139377359D01*
X163482243Y-139377359D02*
X163434624Y-139353550D01*
X163434624Y-139353550D02*
X163410815Y-139305930D01*
X163410815Y-139305930D02*
X163410815Y-139258311D01*
X163410815Y-139258311D02*
X163434624Y-139210692D01*
X163434624Y-139210692D02*
X163482243Y-139186883D01*
X163482243Y-139186883D02*
X163601291Y-139186883D01*
X163601291Y-139186883D02*
X163648910Y-139163073D01*
X163958434Y-139377359D02*
X163910815Y-139353550D01*
X163910815Y-139353550D02*
X163887005Y-139305930D01*
X163887005Y-139305930D02*
X163887005Y-138877359D01*
X164220339Y-139377359D02*
X164172720Y-139353550D01*
X164172720Y-139353550D02*
X164148910Y-139305930D01*
X164148910Y-139305930D02*
X164148910Y-138877359D01*
X165006053Y-139377359D02*
X165006053Y-138877359D01*
X165006053Y-139353550D02*
X164958434Y-139377359D01*
X164958434Y-139377359D02*
X164863196Y-139377359D01*
X164863196Y-139377359D02*
X164815577Y-139353550D01*
X164815577Y-139353550D02*
X164791767Y-139329740D01*
X164791767Y-139329740D02*
X164767958Y-139282121D01*
X164767958Y-139282121D02*
X164767958Y-139139264D01*
X164767958Y-139139264D02*
X164791767Y-139091645D01*
X164791767Y-139091645D02*
X164815577Y-139067835D01*
X164815577Y-139067835D02*
X164863196Y-139044026D01*
X164863196Y-139044026D02*
X164958434Y-139044026D01*
X164958434Y-139044026D02*
X165006053Y-139067835D01*
X165244148Y-139377359D02*
X165244148Y-139044026D01*
X165244148Y-138877359D02*
X165220339Y-138901169D01*
X165220339Y-138901169D02*
X165244148Y-138924978D01*
X165244148Y-138924978D02*
X165267958Y-138901169D01*
X165267958Y-138901169D02*
X165244148Y-138877359D01*
X165244148Y-138877359D02*
X165244148Y-138924978D01*
X165482243Y-139377359D02*
X165482243Y-139044026D01*
X165482243Y-139091645D02*
X165506053Y-139067835D01*
X165506053Y-139067835D02*
X165553672Y-139044026D01*
X165553672Y-139044026D02*
X165625100Y-139044026D01*
X165625100Y-139044026D02*
X165672719Y-139067835D01*
X165672719Y-139067835D02*
X165696529Y-139115454D01*
X165696529Y-139115454D02*
X165696529Y-139377359D01*
X165696529Y-139115454D02*
X165720338Y-139067835D01*
X165720338Y-139067835D02*
X165767957Y-139044026D01*
X165767957Y-139044026D02*
X165839386Y-139044026D01*
X165839386Y-139044026D02*
X165887005Y-139067835D01*
X165887005Y-139067835D02*
X165910815Y-139115454D01*
X165910815Y-139115454D02*
X165910815Y-139377359D01*
X166339386Y-139353550D02*
X166291767Y-139377359D01*
X166291767Y-139377359D02*
X166196529Y-139377359D01*
X166196529Y-139377359D02*
X166148910Y-139353550D01*
X166148910Y-139353550D02*
X166125101Y-139305930D01*
X166125101Y-139305930D02*
X166125101Y-139115454D01*
X166125101Y-139115454D02*
X166148910Y-139067835D01*
X166148910Y-139067835D02*
X166196529Y-139044026D01*
X166196529Y-139044026D02*
X166291767Y-139044026D01*
X166291767Y-139044026D02*
X166339386Y-139067835D01*
X166339386Y-139067835D02*
X166363196Y-139115454D01*
X166363196Y-139115454D02*
X166363196Y-139163073D01*
X166363196Y-139163073D02*
X166125101Y-139210692D01*
X166577481Y-139044026D02*
X166577481Y-139377359D01*
X166577481Y-139091645D02*
X166601291Y-139067835D01*
X166601291Y-139067835D02*
X166648910Y-139044026D01*
X166648910Y-139044026D02*
X166720338Y-139044026D01*
X166720338Y-139044026D02*
X166767957Y-139067835D01*
X166767957Y-139067835D02*
X166791767Y-139115454D01*
X166791767Y-139115454D02*
X166791767Y-139377359D01*
X167006053Y-139353550D02*
X167053672Y-139377359D01*
X167053672Y-139377359D02*
X167148910Y-139377359D01*
X167148910Y-139377359D02*
X167196529Y-139353550D01*
X167196529Y-139353550D02*
X167220338Y-139305930D01*
X167220338Y-139305930D02*
X167220338Y-139282121D01*
X167220338Y-139282121D02*
X167196529Y-139234502D01*
X167196529Y-139234502D02*
X167148910Y-139210692D01*
X167148910Y-139210692D02*
X167077481Y-139210692D01*
X167077481Y-139210692D02*
X167029862Y-139186883D01*
X167029862Y-139186883D02*
X167006053Y-139139264D01*
X167006053Y-139139264D02*
X167006053Y-139115454D01*
X167006053Y-139115454D02*
X167029862Y-139067835D01*
X167029862Y-139067835D02*
X167077481Y-139044026D01*
X167077481Y-139044026D02*
X167148910Y-139044026D01*
X167148910Y-139044026D02*
X167196529Y-139067835D01*
X167434624Y-139377359D02*
X167434624Y-139044026D01*
X167434624Y-138877359D02*
X167410815Y-138901169D01*
X167410815Y-138901169D02*
X167434624Y-138924978D01*
X167434624Y-138924978D02*
X167458434Y-138901169D01*
X167458434Y-138901169D02*
X167434624Y-138877359D01*
X167434624Y-138877359D02*
X167434624Y-138924978D01*
X167744148Y-139377359D02*
X167696529Y-139353550D01*
X167696529Y-139353550D02*
X167672719Y-139329740D01*
X167672719Y-139329740D02*
X167648910Y-139282121D01*
X167648910Y-139282121D02*
X167648910Y-139139264D01*
X167648910Y-139139264D02*
X167672719Y-139091645D01*
X167672719Y-139091645D02*
X167696529Y-139067835D01*
X167696529Y-139067835D02*
X167744148Y-139044026D01*
X167744148Y-139044026D02*
X167815576Y-139044026D01*
X167815576Y-139044026D02*
X167863195Y-139067835D01*
X167863195Y-139067835D02*
X167887005Y-139091645D01*
X167887005Y-139091645D02*
X167910814Y-139139264D01*
X167910814Y-139139264D02*
X167910814Y-139282121D01*
X167910814Y-139282121D02*
X167887005Y-139329740D01*
X167887005Y-139329740D02*
X167863195Y-139353550D01*
X167863195Y-139353550D02*
X167815576Y-139377359D01*
X167815576Y-139377359D02*
X167744148Y-139377359D01*
X168125100Y-139044026D02*
X168125100Y-139377359D01*
X168125100Y-139091645D02*
X168148910Y-139067835D01*
X168148910Y-139067835D02*
X168196529Y-139044026D01*
X168196529Y-139044026D02*
X168267957Y-139044026D01*
X168267957Y-139044026D02*
X168315576Y-139067835D01*
X168315576Y-139067835D02*
X168339386Y-139115454D01*
X168339386Y-139115454D02*
X168339386Y-139377359D01*
X168553672Y-139353550D02*
X168601291Y-139377359D01*
X168601291Y-139377359D02*
X168696529Y-139377359D01*
X168696529Y-139377359D02*
X168744148Y-139353550D01*
X168744148Y-139353550D02*
X168767957Y-139305930D01*
X168767957Y-139305930D02*
X168767957Y-139282121D01*
X168767957Y-139282121D02*
X168744148Y-139234502D01*
X168744148Y-139234502D02*
X168696529Y-139210692D01*
X168696529Y-139210692D02*
X168625100Y-139210692D01*
X168625100Y-139210692D02*
X168577481Y-139186883D01*
X168577481Y-139186883D02*
X168553672Y-139139264D01*
X168553672Y-139139264D02*
X168553672Y-139115454D01*
X168553672Y-139115454D02*
X168577481Y-139067835D01*
X168577481Y-139067835D02*
X168625100Y-139044026D01*
X168625100Y-139044026D02*
X168696529Y-139044026D01*
X168696529Y-139044026D02*
X168744148Y-139067835D01*
X164127487Y-131622478D02*
X164222725Y-131551050D01*
X164222725Y-131551050D02*
X164317963Y-131622478D01*
X164841772Y-132051050D02*
X164913200Y-132074859D01*
X164913200Y-132074859D02*
X165032248Y-132074859D01*
X165032248Y-132074859D02*
X165079867Y-132051050D01*
X165079867Y-132051050D02*
X165103676Y-132027240D01*
X165103676Y-132027240D02*
X165127486Y-131979621D01*
X165127486Y-131979621D02*
X165127486Y-131932002D01*
X165127486Y-131932002D02*
X165103676Y-131884383D01*
X165103676Y-131884383D02*
X165079867Y-131860573D01*
X165079867Y-131860573D02*
X165032248Y-131836764D01*
X165032248Y-131836764D02*
X164937010Y-131812954D01*
X164937010Y-131812954D02*
X164889391Y-131789145D01*
X164889391Y-131789145D02*
X164865581Y-131765335D01*
X164865581Y-131765335D02*
X164841772Y-131717716D01*
X164841772Y-131717716D02*
X164841772Y-131670097D01*
X164841772Y-131670097D02*
X164865581Y-131622478D01*
X164865581Y-131622478D02*
X164889391Y-131598669D01*
X164889391Y-131598669D02*
X164937010Y-131574859D01*
X164937010Y-131574859D02*
X165056057Y-131574859D01*
X165056057Y-131574859D02*
X165127486Y-131598669D01*
X165556057Y-131741526D02*
X165556057Y-132074859D01*
X165341771Y-131741526D02*
X165341771Y-132003430D01*
X165341771Y-132003430D02*
X165365581Y-132051050D01*
X165365581Y-132051050D02*
X165413200Y-132074859D01*
X165413200Y-132074859D02*
X165484628Y-132074859D01*
X165484628Y-132074859D02*
X165532247Y-132051050D01*
X165532247Y-132051050D02*
X165556057Y-132027240D01*
X166008438Y-131741526D02*
X166008438Y-132146288D01*
X166008438Y-132146288D02*
X165984628Y-132193907D01*
X165984628Y-132193907D02*
X165960819Y-132217716D01*
X165960819Y-132217716D02*
X165913200Y-132241526D01*
X165913200Y-132241526D02*
X165841771Y-132241526D01*
X165841771Y-132241526D02*
X165794152Y-132217716D01*
X166008438Y-132051050D02*
X165960819Y-132074859D01*
X165960819Y-132074859D02*
X165865581Y-132074859D01*
X165865581Y-132074859D02*
X165817962Y-132051050D01*
X165817962Y-132051050D02*
X165794152Y-132027240D01*
X165794152Y-132027240D02*
X165770343Y-131979621D01*
X165770343Y-131979621D02*
X165770343Y-131836764D01*
X165770343Y-131836764D02*
X165794152Y-131789145D01*
X165794152Y-131789145D02*
X165817962Y-131765335D01*
X165817962Y-131765335D02*
X165865581Y-131741526D01*
X165865581Y-131741526D02*
X165960819Y-131741526D01*
X165960819Y-131741526D02*
X166008438Y-131765335D01*
X166460819Y-131741526D02*
X166460819Y-132146288D01*
X166460819Y-132146288D02*
X166437009Y-132193907D01*
X166437009Y-132193907D02*
X166413200Y-132217716D01*
X166413200Y-132217716D02*
X166365581Y-132241526D01*
X166365581Y-132241526D02*
X166294152Y-132241526D01*
X166294152Y-132241526D02*
X166246533Y-132217716D01*
X166460819Y-132051050D02*
X166413200Y-132074859D01*
X166413200Y-132074859D02*
X166317962Y-132074859D01*
X166317962Y-132074859D02*
X166270343Y-132051050D01*
X166270343Y-132051050D02*
X166246533Y-132027240D01*
X166246533Y-132027240D02*
X166222724Y-131979621D01*
X166222724Y-131979621D02*
X166222724Y-131836764D01*
X166222724Y-131836764D02*
X166246533Y-131789145D01*
X166246533Y-131789145D02*
X166270343Y-131765335D01*
X166270343Y-131765335D02*
X166317962Y-131741526D01*
X166317962Y-131741526D02*
X166413200Y-131741526D01*
X166413200Y-131741526D02*
X166460819Y-131765335D01*
X166889390Y-132051050D02*
X166841771Y-132074859D01*
X166841771Y-132074859D02*
X166746533Y-132074859D01*
X166746533Y-132074859D02*
X166698914Y-132051050D01*
X166698914Y-132051050D02*
X166675105Y-132003430D01*
X166675105Y-132003430D02*
X166675105Y-131812954D01*
X166675105Y-131812954D02*
X166698914Y-131765335D01*
X166698914Y-131765335D02*
X166746533Y-131741526D01*
X166746533Y-131741526D02*
X166841771Y-131741526D01*
X166841771Y-131741526D02*
X166889390Y-131765335D01*
X166889390Y-131765335D02*
X166913200Y-131812954D01*
X166913200Y-131812954D02*
X166913200Y-131860573D01*
X166913200Y-131860573D02*
X166675105Y-131908192D01*
X167103676Y-132051050D02*
X167151295Y-132074859D01*
X167151295Y-132074859D02*
X167246533Y-132074859D01*
X167246533Y-132074859D02*
X167294152Y-132051050D01*
X167294152Y-132051050D02*
X167317961Y-132003430D01*
X167317961Y-132003430D02*
X167317961Y-131979621D01*
X167317961Y-131979621D02*
X167294152Y-131932002D01*
X167294152Y-131932002D02*
X167246533Y-131908192D01*
X167246533Y-131908192D02*
X167175104Y-131908192D01*
X167175104Y-131908192D02*
X167127485Y-131884383D01*
X167127485Y-131884383D02*
X167103676Y-131836764D01*
X167103676Y-131836764D02*
X167103676Y-131812954D01*
X167103676Y-131812954D02*
X167127485Y-131765335D01*
X167127485Y-131765335D02*
X167175104Y-131741526D01*
X167175104Y-131741526D02*
X167246533Y-131741526D01*
X167246533Y-131741526D02*
X167294152Y-131765335D01*
X167460819Y-131741526D02*
X167651295Y-131741526D01*
X167532247Y-131574859D02*
X167532247Y-132003430D01*
X167532247Y-132003430D02*
X167556057Y-132051050D01*
X167556057Y-132051050D02*
X167603676Y-132074859D01*
X167603676Y-132074859D02*
X167651295Y-132074859D01*
X168008437Y-132051050D02*
X167960818Y-132074859D01*
X167960818Y-132074859D02*
X167865580Y-132074859D01*
X167865580Y-132074859D02*
X167817961Y-132051050D01*
X167817961Y-132051050D02*
X167794152Y-132003430D01*
X167794152Y-132003430D02*
X167794152Y-131812954D01*
X167794152Y-131812954D02*
X167817961Y-131765335D01*
X167817961Y-131765335D02*
X167865580Y-131741526D01*
X167865580Y-131741526D02*
X167960818Y-131741526D01*
X167960818Y-131741526D02*
X168008437Y-131765335D01*
X168008437Y-131765335D02*
X168032247Y-131812954D01*
X168032247Y-131812954D02*
X168032247Y-131860573D01*
X168032247Y-131860573D02*
X167794152Y-131908192D01*
X168460818Y-132074859D02*
X168460818Y-131574859D01*
X168460818Y-132051050D02*
X168413199Y-132074859D01*
X168413199Y-132074859D02*
X168317961Y-132074859D01*
X168317961Y-132074859D02*
X168270342Y-132051050D01*
X168270342Y-132051050D02*
X168246532Y-132027240D01*
X168246532Y-132027240D02*
X168222723Y-131979621D01*
X168222723Y-131979621D02*
X168222723Y-131836764D01*
X168222723Y-131836764D02*
X168246532Y-131789145D01*
X168246532Y-131789145D02*
X168270342Y-131765335D01*
X168270342Y-131765335D02*
X168317961Y-131741526D01*
X168317961Y-131741526D02*
X168413199Y-131741526D01*
X168413199Y-131741526D02*
X168460818Y-131765335D01*
X169079865Y-132074859D02*
X169079865Y-131574859D01*
X169079865Y-131765335D02*
X169127484Y-131741526D01*
X169127484Y-131741526D02*
X169222722Y-131741526D01*
X169222722Y-131741526D02*
X169270341Y-131765335D01*
X169270341Y-131765335D02*
X169294151Y-131789145D01*
X169294151Y-131789145D02*
X169317960Y-131836764D01*
X169317960Y-131836764D02*
X169317960Y-131979621D01*
X169317960Y-131979621D02*
X169294151Y-132027240D01*
X169294151Y-132027240D02*
X169270341Y-132051050D01*
X169270341Y-132051050D02*
X169222722Y-132074859D01*
X169222722Y-132074859D02*
X169127484Y-132074859D01*
X169127484Y-132074859D02*
X169079865Y-132051050D01*
X169603675Y-132074859D02*
X169556056Y-132051050D01*
X169556056Y-132051050D02*
X169532246Y-132027240D01*
X169532246Y-132027240D02*
X169508437Y-131979621D01*
X169508437Y-131979621D02*
X169508437Y-131836764D01*
X169508437Y-131836764D02*
X169532246Y-131789145D01*
X169532246Y-131789145D02*
X169556056Y-131765335D01*
X169556056Y-131765335D02*
X169603675Y-131741526D01*
X169603675Y-131741526D02*
X169675103Y-131741526D01*
X169675103Y-131741526D02*
X169722722Y-131765335D01*
X169722722Y-131765335D02*
X169746532Y-131789145D01*
X169746532Y-131789145D02*
X169770341Y-131836764D01*
X169770341Y-131836764D02*
X169770341Y-131979621D01*
X169770341Y-131979621D02*
X169746532Y-132027240D01*
X169746532Y-132027240D02*
X169722722Y-132051050D01*
X169722722Y-132051050D02*
X169675103Y-132074859D01*
X169675103Y-132074859D02*
X169603675Y-132074859D01*
X170198913Y-132074859D02*
X170198913Y-131812954D01*
X170198913Y-131812954D02*
X170175103Y-131765335D01*
X170175103Y-131765335D02*
X170127484Y-131741526D01*
X170127484Y-131741526D02*
X170032246Y-131741526D01*
X170032246Y-131741526D02*
X169984627Y-131765335D01*
X170198913Y-132051050D02*
X170151294Y-132074859D01*
X170151294Y-132074859D02*
X170032246Y-132074859D01*
X170032246Y-132074859D02*
X169984627Y-132051050D01*
X169984627Y-132051050D02*
X169960818Y-132003430D01*
X169960818Y-132003430D02*
X169960818Y-131955811D01*
X169960818Y-131955811D02*
X169984627Y-131908192D01*
X169984627Y-131908192D02*
X170032246Y-131884383D01*
X170032246Y-131884383D02*
X170151294Y-131884383D01*
X170151294Y-131884383D02*
X170198913Y-131860573D01*
X170437008Y-132074859D02*
X170437008Y-131741526D01*
X170437008Y-131836764D02*
X170460818Y-131789145D01*
X170460818Y-131789145D02*
X170484627Y-131765335D01*
X170484627Y-131765335D02*
X170532246Y-131741526D01*
X170532246Y-131741526D02*
X170579865Y-131741526D01*
X170960818Y-132074859D02*
X170960818Y-131574859D01*
X170960818Y-132051050D02*
X170913199Y-132074859D01*
X170913199Y-132074859D02*
X170817961Y-132074859D01*
X170817961Y-132074859D02*
X170770342Y-132051050D01*
X170770342Y-132051050D02*
X170746532Y-132027240D01*
X170746532Y-132027240D02*
X170722723Y-131979621D01*
X170722723Y-131979621D02*
X170722723Y-131836764D01*
X170722723Y-131836764D02*
X170746532Y-131789145D01*
X170746532Y-131789145D02*
X170770342Y-131765335D01*
X170770342Y-131765335D02*
X170817961Y-131741526D01*
X170817961Y-131741526D02*
X170913199Y-131741526D01*
X170913199Y-131741526D02*
X170960818Y-131765335D01*
X171770341Y-132051050D02*
X171722722Y-132074859D01*
X171722722Y-132074859D02*
X171627484Y-132074859D01*
X171627484Y-132074859D02*
X171579865Y-132051050D01*
X171579865Y-132051050D02*
X171556056Y-132003430D01*
X171556056Y-132003430D02*
X171556056Y-131812954D01*
X171556056Y-131812954D02*
X171579865Y-131765335D01*
X171579865Y-131765335D02*
X171627484Y-131741526D01*
X171627484Y-131741526D02*
X171722722Y-131741526D01*
X171722722Y-131741526D02*
X171770341Y-131765335D01*
X171770341Y-131765335D02*
X171794151Y-131812954D01*
X171794151Y-131812954D02*
X171794151Y-131860573D01*
X171794151Y-131860573D02*
X171556056Y-131908192D01*
X172222722Y-132074859D02*
X172222722Y-131574859D01*
X172222722Y-132051050D02*
X172175103Y-132074859D01*
X172175103Y-132074859D02*
X172079865Y-132074859D01*
X172079865Y-132074859D02*
X172032246Y-132051050D01*
X172032246Y-132051050D02*
X172008436Y-132027240D01*
X172008436Y-132027240D02*
X171984627Y-131979621D01*
X171984627Y-131979621D02*
X171984627Y-131836764D01*
X171984627Y-131836764D02*
X172008436Y-131789145D01*
X172008436Y-131789145D02*
X172032246Y-131765335D01*
X172032246Y-131765335D02*
X172079865Y-131741526D01*
X172079865Y-131741526D02*
X172175103Y-131741526D01*
X172175103Y-131741526D02*
X172222722Y-131765335D01*
X172675103Y-131741526D02*
X172675103Y-132146288D01*
X172675103Y-132146288D02*
X172651293Y-132193907D01*
X172651293Y-132193907D02*
X172627484Y-132217716D01*
X172627484Y-132217716D02*
X172579865Y-132241526D01*
X172579865Y-132241526D02*
X172508436Y-132241526D01*
X172508436Y-132241526D02*
X172460817Y-132217716D01*
X172675103Y-132051050D02*
X172627484Y-132074859D01*
X172627484Y-132074859D02*
X172532246Y-132074859D01*
X172532246Y-132074859D02*
X172484627Y-132051050D01*
X172484627Y-132051050D02*
X172460817Y-132027240D01*
X172460817Y-132027240D02*
X172437008Y-131979621D01*
X172437008Y-131979621D02*
X172437008Y-131836764D01*
X172437008Y-131836764D02*
X172460817Y-131789145D01*
X172460817Y-131789145D02*
X172484627Y-131765335D01*
X172484627Y-131765335D02*
X172532246Y-131741526D01*
X172532246Y-131741526D02*
X172627484Y-131741526D01*
X172627484Y-131741526D02*
X172675103Y-131765335D01*
X173103674Y-132051050D02*
X173056055Y-132074859D01*
X173056055Y-132074859D02*
X172960817Y-132074859D01*
X172960817Y-132074859D02*
X172913198Y-132051050D01*
X172913198Y-132051050D02*
X172889389Y-132003430D01*
X172889389Y-132003430D02*
X172889389Y-131812954D01*
X172889389Y-131812954D02*
X172913198Y-131765335D01*
X172913198Y-131765335D02*
X172960817Y-131741526D01*
X172960817Y-131741526D02*
X173056055Y-131741526D01*
X173056055Y-131741526D02*
X173103674Y-131765335D01*
X173103674Y-131765335D02*
X173127484Y-131812954D01*
X173127484Y-131812954D02*
X173127484Y-131860573D01*
X173127484Y-131860573D02*
X172889389Y-131908192D01*
X173651293Y-131741526D02*
X173841769Y-131741526D01*
X173722721Y-132074859D02*
X173722721Y-131646288D01*
X173722721Y-131646288D02*
X173746531Y-131598669D01*
X173746531Y-131598669D02*
X173794150Y-131574859D01*
X173794150Y-131574859D02*
X173841769Y-131574859D01*
X174079864Y-132074859D02*
X174032245Y-132051050D01*
X174032245Y-132051050D02*
X174008435Y-132027240D01*
X174008435Y-132027240D02*
X173984626Y-131979621D01*
X173984626Y-131979621D02*
X173984626Y-131836764D01*
X173984626Y-131836764D02*
X174008435Y-131789145D01*
X174008435Y-131789145D02*
X174032245Y-131765335D01*
X174032245Y-131765335D02*
X174079864Y-131741526D01*
X174079864Y-131741526D02*
X174151292Y-131741526D01*
X174151292Y-131741526D02*
X174198911Y-131765335D01*
X174198911Y-131765335D02*
X174222721Y-131789145D01*
X174222721Y-131789145D02*
X174246530Y-131836764D01*
X174246530Y-131836764D02*
X174246530Y-131979621D01*
X174246530Y-131979621D02*
X174222721Y-132027240D01*
X174222721Y-132027240D02*
X174198911Y-132051050D01*
X174198911Y-132051050D02*
X174151292Y-132074859D01*
X174151292Y-132074859D02*
X174079864Y-132074859D01*
X174460816Y-132074859D02*
X174460816Y-131741526D01*
X174460816Y-131836764D02*
X174484626Y-131789145D01*
X174484626Y-131789145D02*
X174508435Y-131765335D01*
X174508435Y-131765335D02*
X174556054Y-131741526D01*
X174556054Y-131741526D02*
X174603673Y-131741526D01*
X175437006Y-132074859D02*
X175270340Y-131836764D01*
X175151292Y-132074859D02*
X175151292Y-131574859D01*
X175151292Y-131574859D02*
X175341768Y-131574859D01*
X175341768Y-131574859D02*
X175389387Y-131598669D01*
X175389387Y-131598669D02*
X175413197Y-131622478D01*
X175413197Y-131622478D02*
X175437006Y-131670097D01*
X175437006Y-131670097D02*
X175437006Y-131741526D01*
X175437006Y-131741526D02*
X175413197Y-131789145D01*
X175413197Y-131789145D02*
X175389387Y-131812954D01*
X175389387Y-131812954D02*
X175341768Y-131836764D01*
X175341768Y-131836764D02*
X175151292Y-131836764D01*
X175817959Y-131812954D02*
X175651292Y-131812954D01*
X175651292Y-132074859D02*
X175651292Y-131574859D01*
X175651292Y-131574859D02*
X175889387Y-131574859D01*
X176389387Y-131622478D02*
X176484625Y-131551050D01*
X176484625Y-131551050D02*
X176579863Y-131622478D01*
D11*
X148351293Y-136477507D02*
X148398912Y-136429888D01*
X148398912Y-136429888D02*
X148494150Y-136382269D01*
X148494150Y-136382269D02*
X148732245Y-136382269D01*
X148732245Y-136382269D02*
X148827483Y-136429888D01*
X148827483Y-136429888D02*
X148875102Y-136477507D01*
X148875102Y-136477507D02*
X148922721Y-136572745D01*
X148922721Y-136572745D02*
X148922721Y-136667983D01*
X148922721Y-136667983D02*
X148875102Y-136810840D01*
X148875102Y-136810840D02*
X148303674Y-137382269D01*
X148303674Y-137382269D02*
X148922721Y-137382269D01*
X149351293Y-137287030D02*
X149398912Y-137334650D01*
X149398912Y-137334650D02*
X149351293Y-137382269D01*
X149351293Y-137382269D02*
X149303674Y-137334650D01*
X149303674Y-137334650D02*
X149351293Y-137287030D01*
X149351293Y-137287030D02*
X149351293Y-137382269D01*
X150256054Y-136715602D02*
X150256054Y-137382269D01*
X150017959Y-136334650D02*
X149779864Y-137048935D01*
X149779864Y-137048935D02*
X150398911Y-137048935D01*
X152065578Y-136429888D02*
X151970340Y-136382269D01*
X151970340Y-136382269D02*
X151827483Y-136382269D01*
X151827483Y-136382269D02*
X151684626Y-136429888D01*
X151684626Y-136429888D02*
X151589388Y-136525126D01*
X151589388Y-136525126D02*
X151541769Y-136620364D01*
X151541769Y-136620364D02*
X151494150Y-136810840D01*
X151494150Y-136810840D02*
X151494150Y-136953697D01*
X151494150Y-136953697D02*
X151541769Y-137144173D01*
X151541769Y-137144173D02*
X151589388Y-137239411D01*
X151589388Y-137239411D02*
X151684626Y-137334650D01*
X151684626Y-137334650D02*
X151827483Y-137382269D01*
X151827483Y-137382269D02*
X151922721Y-137382269D01*
X151922721Y-137382269D02*
X152065578Y-137334650D01*
X152065578Y-137334650D02*
X152113197Y-137287030D01*
X152113197Y-137287030D02*
X152113197Y-136953697D01*
X152113197Y-136953697D02*
X151922721Y-136953697D01*
X152541769Y-137382269D02*
X152541769Y-136382269D01*
X152541769Y-136858459D02*
X153113197Y-136858459D01*
X153113197Y-137382269D02*
X153113197Y-136382269D01*
X153494150Y-136715602D02*
X154017959Y-136715602D01*
X154017959Y-136715602D02*
X153494150Y-137382269D01*
X153494150Y-137382269D02*
X154017959Y-137382269D01*
X155732245Y-137382269D02*
X155398912Y-136906078D01*
X155160817Y-137382269D02*
X155160817Y-136382269D01*
X155160817Y-136382269D02*
X155541769Y-136382269D01*
X155541769Y-136382269D02*
X155637007Y-136429888D01*
X155637007Y-136429888D02*
X155684626Y-136477507D01*
X155684626Y-136477507D02*
X155732245Y-136572745D01*
X155732245Y-136572745D02*
X155732245Y-136715602D01*
X155732245Y-136715602D02*
X155684626Y-136810840D01*
X155684626Y-136810840D02*
X155637007Y-136858459D01*
X155637007Y-136858459D02*
X155541769Y-136906078D01*
X155541769Y-136906078D02*
X155160817Y-136906078D01*
X156494150Y-136858459D02*
X156160817Y-136858459D01*
X156160817Y-137382269D02*
X156160817Y-136382269D01*
X156160817Y-136382269D02*
X156637007Y-136382269D01*
X157779865Y-137382269D02*
X157779865Y-136382269D01*
X158351293Y-137382269D02*
X157922722Y-136810840D01*
X158351293Y-136382269D02*
X157779865Y-136953697D01*
X159160817Y-137334650D02*
X159065579Y-137382269D01*
X159065579Y-137382269D02*
X158875103Y-137382269D01*
X158875103Y-137382269D02*
X158779865Y-137334650D01*
X158779865Y-137334650D02*
X158732246Y-137239411D01*
X158732246Y-137239411D02*
X158732246Y-136858459D01*
X158732246Y-136858459D02*
X158779865Y-136763221D01*
X158779865Y-136763221D02*
X158875103Y-136715602D01*
X158875103Y-136715602D02*
X159065579Y-136715602D01*
X159065579Y-136715602D02*
X159160817Y-136763221D01*
X159160817Y-136763221D02*
X159208436Y-136858459D01*
X159208436Y-136858459D02*
X159208436Y-136953697D01*
X159208436Y-136953697D02*
X158732246Y-137048935D01*
X160017960Y-137334650D02*
X159922722Y-137382269D01*
X159922722Y-137382269D02*
X159732246Y-137382269D01*
X159732246Y-137382269D02*
X159637008Y-137334650D01*
X159637008Y-137334650D02*
X159589389Y-137239411D01*
X159589389Y-137239411D02*
X159589389Y-136858459D01*
X159589389Y-136858459D02*
X159637008Y-136763221D01*
X159637008Y-136763221D02*
X159732246Y-136715602D01*
X159732246Y-136715602D02*
X159922722Y-136715602D01*
X159922722Y-136715602D02*
X160017960Y-136763221D01*
X160017960Y-136763221D02*
X160065579Y-136858459D01*
X160065579Y-136858459D02*
X160065579Y-136953697D01*
X160065579Y-136953697D02*
X159589389Y-137048935D01*
X160494151Y-136715602D02*
X160494151Y-137715602D01*
X160494151Y-136763221D02*
X160589389Y-136715602D01*
X160589389Y-136715602D02*
X160779865Y-136715602D01*
X160779865Y-136715602D02*
X160875103Y-136763221D01*
X160875103Y-136763221D02*
X160922722Y-136810840D01*
X160922722Y-136810840D02*
X160970341Y-136906078D01*
X160970341Y-136906078D02*
X160970341Y-137191792D01*
X160970341Y-137191792D02*
X160922722Y-137287030D01*
X160922722Y-137287030D02*
X160875103Y-137334650D01*
X160875103Y-137334650D02*
X160779865Y-137382269D01*
X160779865Y-137382269D02*
X160589389Y-137382269D01*
X160589389Y-137382269D02*
X160494151Y-137334650D01*
X162351294Y-136382269D02*
X162541770Y-136382269D01*
X162541770Y-136382269D02*
X162637008Y-136429888D01*
X162637008Y-136429888D02*
X162732246Y-136525126D01*
X162732246Y-136525126D02*
X162779865Y-136715602D01*
X162779865Y-136715602D02*
X162779865Y-137048935D01*
X162779865Y-137048935D02*
X162732246Y-137239411D01*
X162732246Y-137239411D02*
X162637008Y-137334650D01*
X162637008Y-137334650D02*
X162541770Y-137382269D01*
X162541770Y-137382269D02*
X162351294Y-137382269D01*
X162351294Y-137382269D02*
X162256056Y-137334650D01*
X162256056Y-137334650D02*
X162160818Y-137239411D01*
X162160818Y-137239411D02*
X162113199Y-137048935D01*
X162113199Y-137048935D02*
X162113199Y-136715602D01*
X162113199Y-136715602D02*
X162160818Y-136525126D01*
X162160818Y-136525126D02*
X162256056Y-136429888D01*
X162256056Y-136429888D02*
X162351294Y-136382269D01*
X163637008Y-136715602D02*
X163637008Y-137382269D01*
X163208437Y-136715602D02*
X163208437Y-137239411D01*
X163208437Y-137239411D02*
X163256056Y-137334650D01*
X163256056Y-137334650D02*
X163351294Y-137382269D01*
X163351294Y-137382269D02*
X163494151Y-137382269D01*
X163494151Y-137382269D02*
X163589389Y-137334650D01*
X163589389Y-137334650D02*
X163637008Y-137287030D01*
X163970342Y-136715602D02*
X164351294Y-136715602D01*
X164113199Y-136382269D02*
X164113199Y-137239411D01*
X164113199Y-137239411D02*
X164160818Y-137334650D01*
X164160818Y-137334650D02*
X164256056Y-137382269D01*
X164256056Y-137382269D02*
X164351294Y-137382269D01*
X142581472Y-74883180D02*
X142533853Y-74930800D01*
X142533853Y-74930800D02*
X142390996Y-74978419D01*
X142390996Y-74978419D02*
X142295758Y-74978419D01*
X142295758Y-74978419D02*
X142152901Y-74930800D01*
X142152901Y-74930800D02*
X142057663Y-74835561D01*
X142057663Y-74835561D02*
X142010044Y-74740323D01*
X142010044Y-74740323D02*
X141962425Y-74549847D01*
X141962425Y-74549847D02*
X141962425Y-74406990D01*
X141962425Y-74406990D02*
X142010044Y-74216514D01*
X142010044Y-74216514D02*
X142057663Y-74121276D01*
X142057663Y-74121276D02*
X142152901Y-74026038D01*
X142152901Y-74026038D02*
X142295758Y-73978419D01*
X142295758Y-73978419D02*
X142390996Y-73978419D01*
X142390996Y-73978419D02*
X142533853Y-74026038D01*
X142533853Y-74026038D02*
X142581472Y-74073657D01*
X143152901Y-74978419D02*
X143057663Y-74930800D01*
X143057663Y-74930800D02*
X143010044Y-74883180D01*
X143010044Y-74883180D02*
X142962425Y-74787942D01*
X142962425Y-74787942D02*
X142962425Y-74502228D01*
X142962425Y-74502228D02*
X143010044Y-74406990D01*
X143010044Y-74406990D02*
X143057663Y-74359371D01*
X143057663Y-74359371D02*
X143152901Y-74311752D01*
X143152901Y-74311752D02*
X143295758Y-74311752D01*
X143295758Y-74311752D02*
X143390996Y-74359371D01*
X143390996Y-74359371D02*
X143438615Y-74406990D01*
X143438615Y-74406990D02*
X143486234Y-74502228D01*
X143486234Y-74502228D02*
X143486234Y-74787942D01*
X143486234Y-74787942D02*
X143438615Y-74883180D01*
X143438615Y-74883180D02*
X143390996Y-74930800D01*
X143390996Y-74930800D02*
X143295758Y-74978419D01*
X143295758Y-74978419D02*
X143152901Y-74978419D01*
X143914806Y-74311752D02*
X143914806Y-75311752D01*
X143914806Y-74359371D02*
X144010044Y-74311752D01*
X144010044Y-74311752D02*
X144200520Y-74311752D01*
X144200520Y-74311752D02*
X144295758Y-74359371D01*
X144295758Y-74359371D02*
X144343377Y-74406990D01*
X144343377Y-74406990D02*
X144390996Y-74502228D01*
X144390996Y-74502228D02*
X144390996Y-74787942D01*
X144390996Y-74787942D02*
X144343377Y-74883180D01*
X144343377Y-74883180D02*
X144295758Y-74930800D01*
X144295758Y-74930800D02*
X144200520Y-74978419D01*
X144200520Y-74978419D02*
X144010044Y-74978419D01*
X144010044Y-74978419D02*
X143914806Y-74930800D01*
X144819568Y-74311752D02*
X144819568Y-75311752D01*
X144819568Y-74359371D02*
X144914806Y-74311752D01*
X144914806Y-74311752D02*
X145105282Y-74311752D01*
X145105282Y-74311752D02*
X145200520Y-74359371D01*
X145200520Y-74359371D02*
X145248139Y-74406990D01*
X145248139Y-74406990D02*
X145295758Y-74502228D01*
X145295758Y-74502228D02*
X145295758Y-74787942D01*
X145295758Y-74787942D02*
X145248139Y-74883180D01*
X145248139Y-74883180D02*
X145200520Y-74930800D01*
X145200520Y-74930800D02*
X145105282Y-74978419D01*
X145105282Y-74978419D02*
X144914806Y-74978419D01*
X144914806Y-74978419D02*
X144819568Y-74930800D01*
X146105282Y-74930800D02*
X146010044Y-74978419D01*
X146010044Y-74978419D02*
X145819568Y-74978419D01*
X145819568Y-74978419D02*
X145724330Y-74930800D01*
X145724330Y-74930800D02*
X145676711Y-74835561D01*
X145676711Y-74835561D02*
X145676711Y-74454609D01*
X145676711Y-74454609D02*
X145724330Y-74359371D01*
X145724330Y-74359371D02*
X145819568Y-74311752D01*
X145819568Y-74311752D02*
X146010044Y-74311752D01*
X146010044Y-74311752D02*
X146105282Y-74359371D01*
X146105282Y-74359371D02*
X146152901Y-74454609D01*
X146152901Y-74454609D02*
X146152901Y-74549847D01*
X146152901Y-74549847D02*
X145676711Y-74645085D01*
X146581473Y-74978419D02*
X146581473Y-74311752D01*
X146581473Y-74502228D02*
X146629092Y-74406990D01*
X146629092Y-74406990D02*
X146676711Y-74359371D01*
X146676711Y-74359371D02*
X146771949Y-74311752D01*
X146771949Y-74311752D02*
X146867187Y-74311752D01*
X147962426Y-74978419D02*
X147962426Y-73978419D01*
X148533854Y-74978419D02*
X148105283Y-74406990D01*
X148533854Y-73978419D02*
X147962426Y-74549847D01*
X149343378Y-74930800D02*
X149248140Y-74978419D01*
X149248140Y-74978419D02*
X149057664Y-74978419D01*
X149057664Y-74978419D02*
X148962426Y-74930800D01*
X148962426Y-74930800D02*
X148914807Y-74835561D01*
X148914807Y-74835561D02*
X148914807Y-74454609D01*
X148914807Y-74454609D02*
X148962426Y-74359371D01*
X148962426Y-74359371D02*
X149057664Y-74311752D01*
X149057664Y-74311752D02*
X149248140Y-74311752D01*
X149248140Y-74311752D02*
X149343378Y-74359371D01*
X149343378Y-74359371D02*
X149390997Y-74454609D01*
X149390997Y-74454609D02*
X149390997Y-74549847D01*
X149390997Y-74549847D02*
X148914807Y-74645085D01*
X150200521Y-74930800D02*
X150105283Y-74978419D01*
X150105283Y-74978419D02*
X149914807Y-74978419D01*
X149914807Y-74978419D02*
X149819569Y-74930800D01*
X149819569Y-74930800D02*
X149771950Y-74835561D01*
X149771950Y-74835561D02*
X149771950Y-74454609D01*
X149771950Y-74454609D02*
X149819569Y-74359371D01*
X149819569Y-74359371D02*
X149914807Y-74311752D01*
X149914807Y-74311752D02*
X150105283Y-74311752D01*
X150105283Y-74311752D02*
X150200521Y-74359371D01*
X150200521Y-74359371D02*
X150248140Y-74454609D01*
X150248140Y-74454609D02*
X150248140Y-74549847D01*
X150248140Y-74549847D02*
X149771950Y-74645085D01*
X150676712Y-74311752D02*
X150676712Y-75311752D01*
X150676712Y-74359371D02*
X150771950Y-74311752D01*
X150771950Y-74311752D02*
X150962426Y-74311752D01*
X150962426Y-74311752D02*
X151057664Y-74359371D01*
X151057664Y-74359371D02*
X151105283Y-74406990D01*
X151105283Y-74406990D02*
X151152902Y-74502228D01*
X151152902Y-74502228D02*
X151152902Y-74787942D01*
X151152902Y-74787942D02*
X151105283Y-74883180D01*
X151105283Y-74883180D02*
X151057664Y-74930800D01*
X151057664Y-74930800D02*
X150962426Y-74978419D01*
X150962426Y-74978419D02*
X150771950Y-74978419D01*
X150771950Y-74978419D02*
X150676712Y-74930800D01*
X151724331Y-74978419D02*
X151629093Y-74930800D01*
X151629093Y-74930800D02*
X151581474Y-74883180D01*
X151581474Y-74883180D02*
X151533855Y-74787942D01*
X151533855Y-74787942D02*
X151533855Y-74502228D01*
X151533855Y-74502228D02*
X151581474Y-74406990D01*
X151581474Y-74406990D02*
X151629093Y-74359371D01*
X151629093Y-74359371D02*
X151724331Y-74311752D01*
X151724331Y-74311752D02*
X151867188Y-74311752D01*
X151867188Y-74311752D02*
X151962426Y-74359371D01*
X151962426Y-74359371D02*
X152010045Y-74406990D01*
X152010045Y-74406990D02*
X152057664Y-74502228D01*
X152057664Y-74502228D02*
X152057664Y-74787942D01*
X152057664Y-74787942D02*
X152010045Y-74883180D01*
X152010045Y-74883180D02*
X151962426Y-74930800D01*
X151962426Y-74930800D02*
X151867188Y-74978419D01*
X151867188Y-74978419D02*
X151724331Y-74978419D01*
X152914807Y-74311752D02*
X152914807Y-74978419D01*
X152486236Y-74311752D02*
X152486236Y-74835561D01*
X152486236Y-74835561D02*
X152533855Y-74930800D01*
X152533855Y-74930800D02*
X152629093Y-74978419D01*
X152629093Y-74978419D02*
X152771950Y-74978419D01*
X152771950Y-74978419D02*
X152867188Y-74930800D01*
X152867188Y-74930800D02*
X152914807Y-74883180D01*
X153248141Y-74311752D02*
X153629093Y-74311752D01*
X153390998Y-73978419D02*
X153390998Y-74835561D01*
X153390998Y-74835561D02*
X153438617Y-74930800D01*
X153438617Y-74930800D02*
X153533855Y-74978419D01*
X153533855Y-74978419D02*
X153629093Y-74978419D01*
X153914808Y-74930800D02*
X154010046Y-74978419D01*
X154010046Y-74978419D02*
X154200522Y-74978419D01*
X154200522Y-74978419D02*
X154295760Y-74930800D01*
X154295760Y-74930800D02*
X154343379Y-74835561D01*
X154343379Y-74835561D02*
X154343379Y-74787942D01*
X154343379Y-74787942D02*
X154295760Y-74692704D01*
X154295760Y-74692704D02*
X154200522Y-74645085D01*
X154200522Y-74645085D02*
X154057665Y-74645085D01*
X154057665Y-74645085D02*
X153962427Y-74597466D01*
X153962427Y-74597466D02*
X153914808Y-74502228D01*
X153914808Y-74502228D02*
X153914808Y-74454609D01*
X153914808Y-74454609D02*
X153962427Y-74359371D01*
X153962427Y-74359371D02*
X154057665Y-74311752D01*
X154057665Y-74311752D02*
X154200522Y-74311752D01*
X154200522Y-74311752D02*
X154295760Y-74359371D01*
X155486237Y-74930800D02*
X155581475Y-74978419D01*
X155581475Y-74978419D02*
X155771951Y-74978419D01*
X155771951Y-74978419D02*
X155867189Y-74930800D01*
X155867189Y-74930800D02*
X155914808Y-74835561D01*
X155914808Y-74835561D02*
X155914808Y-74787942D01*
X155914808Y-74787942D02*
X155867189Y-74692704D01*
X155867189Y-74692704D02*
X155771951Y-74645085D01*
X155771951Y-74645085D02*
X155629094Y-74645085D01*
X155629094Y-74645085D02*
X155533856Y-74597466D01*
X155533856Y-74597466D02*
X155486237Y-74502228D01*
X155486237Y-74502228D02*
X155486237Y-74454609D01*
X155486237Y-74454609D02*
X155533856Y-74359371D01*
X155533856Y-74359371D02*
X155629094Y-74311752D01*
X155629094Y-74311752D02*
X155771951Y-74311752D01*
X155771951Y-74311752D02*
X155867189Y-74359371D01*
X156343380Y-74978419D02*
X156343380Y-73978419D01*
X156771951Y-74978419D02*
X156771951Y-74454609D01*
X156771951Y-74454609D02*
X156724332Y-74359371D01*
X156724332Y-74359371D02*
X156629094Y-74311752D01*
X156629094Y-74311752D02*
X156486237Y-74311752D01*
X156486237Y-74311752D02*
X156390999Y-74359371D01*
X156390999Y-74359371D02*
X156343380Y-74406990D01*
X157390999Y-74978419D02*
X157295761Y-74930800D01*
X157295761Y-74930800D02*
X157248142Y-74883180D01*
X157248142Y-74883180D02*
X157200523Y-74787942D01*
X157200523Y-74787942D02*
X157200523Y-74502228D01*
X157200523Y-74502228D02*
X157248142Y-74406990D01*
X157248142Y-74406990D02*
X157295761Y-74359371D01*
X157295761Y-74359371D02*
X157390999Y-74311752D01*
X157390999Y-74311752D02*
X157533856Y-74311752D01*
X157533856Y-74311752D02*
X157629094Y-74359371D01*
X157629094Y-74359371D02*
X157676713Y-74406990D01*
X157676713Y-74406990D02*
X157724332Y-74502228D01*
X157724332Y-74502228D02*
X157724332Y-74787942D01*
X157724332Y-74787942D02*
X157676713Y-74883180D01*
X157676713Y-74883180D02*
X157629094Y-74930800D01*
X157629094Y-74930800D02*
X157533856Y-74978419D01*
X157533856Y-74978419D02*
X157390999Y-74978419D01*
X158057666Y-74311752D02*
X158248142Y-74978419D01*
X158248142Y-74978419D02*
X158438618Y-74502228D01*
X158438618Y-74502228D02*
X158629094Y-74978419D01*
X158629094Y-74978419D02*
X158819570Y-74311752D01*
X159200523Y-74311752D02*
X159200523Y-74978419D01*
X159200523Y-74406990D02*
X159248142Y-74359371D01*
X159248142Y-74359371D02*
X159343380Y-74311752D01*
X159343380Y-74311752D02*
X159486237Y-74311752D01*
X159486237Y-74311752D02*
X159581475Y-74359371D01*
X159581475Y-74359371D02*
X159629094Y-74454609D01*
X159629094Y-74454609D02*
X159629094Y-74978419D01*
X161010047Y-74978419D02*
X160914809Y-74930800D01*
X160914809Y-74930800D02*
X160867190Y-74883180D01*
X160867190Y-74883180D02*
X160819571Y-74787942D01*
X160819571Y-74787942D02*
X160819571Y-74502228D01*
X160819571Y-74502228D02*
X160867190Y-74406990D01*
X160867190Y-74406990D02*
X160914809Y-74359371D01*
X160914809Y-74359371D02*
X161010047Y-74311752D01*
X161010047Y-74311752D02*
X161152904Y-74311752D01*
X161152904Y-74311752D02*
X161248142Y-74359371D01*
X161248142Y-74359371D02*
X161295761Y-74406990D01*
X161295761Y-74406990D02*
X161343380Y-74502228D01*
X161343380Y-74502228D02*
X161343380Y-74787942D01*
X161343380Y-74787942D02*
X161295761Y-74883180D01*
X161295761Y-74883180D02*
X161248142Y-74930800D01*
X161248142Y-74930800D02*
X161152904Y-74978419D01*
X161152904Y-74978419D02*
X161010047Y-74978419D01*
X161771952Y-74311752D02*
X161771952Y-74978419D01*
X161771952Y-74406990D02*
X161819571Y-74359371D01*
X161819571Y-74359371D02*
X161914809Y-74311752D01*
X161914809Y-74311752D02*
X162057666Y-74311752D01*
X162057666Y-74311752D02*
X162152904Y-74359371D01*
X162152904Y-74359371D02*
X162200523Y-74454609D01*
X162200523Y-74454609D02*
X162200523Y-74978419D01*
X163438619Y-74978419D02*
X163438619Y-73978419D01*
X163438619Y-73978419D02*
X163676714Y-73978419D01*
X163676714Y-73978419D02*
X163819571Y-74026038D01*
X163819571Y-74026038D02*
X163914809Y-74121276D01*
X163914809Y-74121276D02*
X163962428Y-74216514D01*
X163962428Y-74216514D02*
X164010047Y-74406990D01*
X164010047Y-74406990D02*
X164010047Y-74549847D01*
X164010047Y-74549847D02*
X163962428Y-74740323D01*
X163962428Y-74740323D02*
X163914809Y-74835561D01*
X163914809Y-74835561D02*
X163819571Y-74930800D01*
X163819571Y-74930800D02*
X163676714Y-74978419D01*
X163676714Y-74978419D02*
X163438619Y-74978419D01*
X164343381Y-74311752D02*
X164533857Y-74978419D01*
X164533857Y-74978419D02*
X164724333Y-74502228D01*
X164724333Y-74502228D02*
X164914809Y-74978419D01*
X164914809Y-74978419D02*
X165105285Y-74311752D01*
X165914809Y-74311752D02*
X165914809Y-75121276D01*
X165914809Y-75121276D02*
X165867190Y-75216514D01*
X165867190Y-75216514D02*
X165819571Y-75264133D01*
X165819571Y-75264133D02*
X165724333Y-75311752D01*
X165724333Y-75311752D02*
X165581476Y-75311752D01*
X165581476Y-75311752D02*
X165486238Y-75264133D01*
X165914809Y-74930800D02*
X165819571Y-74978419D01*
X165819571Y-74978419D02*
X165629095Y-74978419D01*
X165629095Y-74978419D02*
X165533857Y-74930800D01*
X165533857Y-74930800D02*
X165486238Y-74883180D01*
X165486238Y-74883180D02*
X165438619Y-74787942D01*
X165438619Y-74787942D02*
X165438619Y-74502228D01*
X165438619Y-74502228D02*
X165486238Y-74406990D01*
X165486238Y-74406990D02*
X165533857Y-74359371D01*
X165533857Y-74359371D02*
X165629095Y-74311752D01*
X165629095Y-74311752D02*
X165819571Y-74311752D01*
X165819571Y-74311752D02*
X165914809Y-74359371D01*
X166343381Y-74930800D02*
X166438619Y-74978419D01*
X166438619Y-74978419D02*
X166629095Y-74978419D01*
X166629095Y-74978419D02*
X166724333Y-74930800D01*
X166724333Y-74930800D02*
X166771952Y-74835561D01*
X166771952Y-74835561D02*
X166771952Y-74787942D01*
X166771952Y-74787942D02*
X166724333Y-74692704D01*
X166724333Y-74692704D02*
X166629095Y-74645085D01*
X166629095Y-74645085D02*
X166486238Y-74645085D01*
X166486238Y-74645085D02*
X166391000Y-74597466D01*
X166391000Y-74597466D02*
X166343381Y-74502228D01*
X166343381Y-74502228D02*
X166343381Y-74454609D01*
X166343381Y-74454609D02*
X166391000Y-74359371D01*
X166391000Y-74359371D02*
X166486238Y-74311752D01*
X166486238Y-74311752D02*
X166629095Y-74311752D01*
X166629095Y-74311752D02*
X166724333Y-74359371D01*
X168105286Y-74978419D02*
X168010048Y-74930800D01*
X168010048Y-74930800D02*
X167962429Y-74835561D01*
X167962429Y-74835561D02*
X167962429Y-73978419D01*
X168914810Y-74978419D02*
X168914810Y-74454609D01*
X168914810Y-74454609D02*
X168867191Y-74359371D01*
X168867191Y-74359371D02*
X168771953Y-74311752D01*
X168771953Y-74311752D02*
X168581477Y-74311752D01*
X168581477Y-74311752D02*
X168486239Y-74359371D01*
X168914810Y-74930800D02*
X168819572Y-74978419D01*
X168819572Y-74978419D02*
X168581477Y-74978419D01*
X168581477Y-74978419D02*
X168486239Y-74930800D01*
X168486239Y-74930800D02*
X168438620Y-74835561D01*
X168438620Y-74835561D02*
X168438620Y-74740323D01*
X168438620Y-74740323D02*
X168486239Y-74645085D01*
X168486239Y-74645085D02*
X168581477Y-74597466D01*
X168581477Y-74597466D02*
X168819572Y-74597466D01*
X168819572Y-74597466D02*
X168914810Y-74549847D01*
X169295763Y-74311752D02*
X169533858Y-74978419D01*
X169771953Y-74311752D02*
X169533858Y-74978419D01*
X169533858Y-74978419D02*
X169438620Y-75216514D01*
X169438620Y-75216514D02*
X169391001Y-75264133D01*
X169391001Y-75264133D02*
X169295763Y-75311752D01*
X170533858Y-74930800D02*
X170438620Y-74978419D01*
X170438620Y-74978419D02*
X170248144Y-74978419D01*
X170248144Y-74978419D02*
X170152906Y-74930800D01*
X170152906Y-74930800D02*
X170105287Y-74835561D01*
X170105287Y-74835561D02*
X170105287Y-74454609D01*
X170105287Y-74454609D02*
X170152906Y-74359371D01*
X170152906Y-74359371D02*
X170248144Y-74311752D01*
X170248144Y-74311752D02*
X170438620Y-74311752D01*
X170438620Y-74311752D02*
X170533858Y-74359371D01*
X170533858Y-74359371D02*
X170581477Y-74454609D01*
X170581477Y-74454609D02*
X170581477Y-74549847D01*
X170581477Y-74549847D02*
X170105287Y-74645085D01*
X171010049Y-74978419D02*
X171010049Y-74311752D01*
X171010049Y-74502228D02*
X171057668Y-74406990D01*
X171057668Y-74406990D02*
X171105287Y-74359371D01*
X171105287Y-74359371D02*
X171200525Y-74311752D01*
X171200525Y-74311752D02*
X171295763Y-74311752D01*
X153541770Y-125031554D02*
X154017960Y-125031554D01*
X153446532Y-125317269D02*
X153779865Y-124317269D01*
X153779865Y-124317269D02*
X154113198Y-125317269D01*
X154446532Y-124650602D02*
X154446532Y-125317269D01*
X154446532Y-124745840D02*
X154494151Y-124698221D01*
X154494151Y-124698221D02*
X154589389Y-124650602D01*
X154589389Y-124650602D02*
X154732246Y-124650602D01*
X154732246Y-124650602D02*
X154827484Y-124698221D01*
X154827484Y-124698221D02*
X154875103Y-124793459D01*
X154875103Y-124793459D02*
X154875103Y-125317269D01*
X155208437Y-124650602D02*
X155589389Y-124650602D01*
X155351294Y-124317269D02*
X155351294Y-125174411D01*
X155351294Y-125174411D02*
X155398913Y-125269650D01*
X155398913Y-125269650D02*
X155494151Y-125317269D01*
X155494151Y-125317269D02*
X155589389Y-125317269D01*
X156303675Y-125269650D02*
X156208437Y-125317269D01*
X156208437Y-125317269D02*
X156017961Y-125317269D01*
X156017961Y-125317269D02*
X155922723Y-125269650D01*
X155922723Y-125269650D02*
X155875104Y-125174411D01*
X155875104Y-125174411D02*
X155875104Y-124793459D01*
X155875104Y-124793459D02*
X155922723Y-124698221D01*
X155922723Y-124698221D02*
X156017961Y-124650602D01*
X156017961Y-124650602D02*
X156208437Y-124650602D01*
X156208437Y-124650602D02*
X156303675Y-124698221D01*
X156303675Y-124698221D02*
X156351294Y-124793459D01*
X156351294Y-124793459D02*
X156351294Y-124888697D01*
X156351294Y-124888697D02*
X155875104Y-124983935D01*
X156779866Y-124650602D02*
X156779866Y-125317269D01*
X156779866Y-124745840D02*
X156827485Y-124698221D01*
X156827485Y-124698221D02*
X156922723Y-124650602D01*
X156922723Y-124650602D02*
X157065580Y-124650602D01*
X157065580Y-124650602D02*
X157160818Y-124698221D01*
X157160818Y-124698221D02*
X157208437Y-124793459D01*
X157208437Y-124793459D02*
X157208437Y-125317269D01*
X157684628Y-124650602D02*
X157684628Y-125317269D01*
X157684628Y-124745840D02*
X157732247Y-124698221D01*
X157732247Y-124698221D02*
X157827485Y-124650602D01*
X157827485Y-124650602D02*
X157970342Y-124650602D01*
X157970342Y-124650602D02*
X158065580Y-124698221D01*
X158065580Y-124698221D02*
X158113199Y-124793459D01*
X158113199Y-124793459D02*
X158113199Y-125317269D01*
X159017961Y-125317269D02*
X159017961Y-124793459D01*
X159017961Y-124793459D02*
X158970342Y-124698221D01*
X158970342Y-124698221D02*
X158875104Y-124650602D01*
X158875104Y-124650602D02*
X158684628Y-124650602D01*
X158684628Y-124650602D02*
X158589390Y-124698221D01*
X159017961Y-125269650D02*
X158922723Y-125317269D01*
X158922723Y-125317269D02*
X158684628Y-125317269D01*
X158684628Y-125317269D02*
X158589390Y-125269650D01*
X158589390Y-125269650D02*
X158541771Y-125174411D01*
X158541771Y-125174411D02*
X158541771Y-125079173D01*
X158541771Y-125079173D02*
X158589390Y-124983935D01*
X158589390Y-124983935D02*
X158684628Y-124936316D01*
X158684628Y-124936316D02*
X158922723Y-124936316D01*
X158922723Y-124936316D02*
X159017961Y-124888697D01*
D10*
X133449933Y-77114859D02*
X133449933Y-76614859D01*
X133688028Y-76781526D02*
X133688028Y-77114859D01*
X133688028Y-76829145D02*
X133711838Y-76805335D01*
X133711838Y-76805335D02*
X133759457Y-76781526D01*
X133759457Y-76781526D02*
X133830885Y-76781526D01*
X133830885Y-76781526D02*
X133878504Y-76805335D01*
X133878504Y-76805335D02*
X133902314Y-76852954D01*
X133902314Y-76852954D02*
X133902314Y-77114859D01*
X134354695Y-77091050D02*
X134307076Y-77114859D01*
X134307076Y-77114859D02*
X134211838Y-77114859D01*
X134211838Y-77114859D02*
X134164219Y-77091050D01*
X134164219Y-77091050D02*
X134140409Y-77067240D01*
X134140409Y-77067240D02*
X134116600Y-77019621D01*
X134116600Y-77019621D02*
X134116600Y-76876764D01*
X134116600Y-76876764D02*
X134140409Y-76829145D01*
X134140409Y-76829145D02*
X134164219Y-76805335D01*
X134164219Y-76805335D02*
X134211838Y-76781526D01*
X134211838Y-76781526D02*
X134307076Y-76781526D01*
X134307076Y-76781526D02*
X134354695Y-76805335D01*
X134640409Y-77114859D02*
X134592790Y-77091050D01*
X134592790Y-77091050D02*
X134568980Y-77067240D01*
X134568980Y-77067240D02*
X134545171Y-77019621D01*
X134545171Y-77019621D02*
X134545171Y-76876764D01*
X134545171Y-76876764D02*
X134568980Y-76829145D01*
X134568980Y-76829145D02*
X134592790Y-76805335D01*
X134592790Y-76805335D02*
X134640409Y-76781526D01*
X134640409Y-76781526D02*
X134711837Y-76781526D01*
X134711837Y-76781526D02*
X134759456Y-76805335D01*
X134759456Y-76805335D02*
X134783266Y-76829145D01*
X134783266Y-76829145D02*
X134807075Y-76876764D01*
X134807075Y-76876764D02*
X134807075Y-77019621D01*
X134807075Y-77019621D02*
X134783266Y-77067240D01*
X134783266Y-77067240D02*
X134759456Y-77091050D01*
X134759456Y-77091050D02*
X134711837Y-77114859D01*
X134711837Y-77114859D02*
X134640409Y-77114859D01*
X135021361Y-77114859D02*
X135021361Y-76781526D01*
X135021361Y-76829145D02*
X135045171Y-76805335D01*
X135045171Y-76805335D02*
X135092790Y-76781526D01*
X135092790Y-76781526D02*
X135164218Y-76781526D01*
X135164218Y-76781526D02*
X135211837Y-76805335D01*
X135211837Y-76805335D02*
X135235647Y-76852954D01*
X135235647Y-76852954D02*
X135235647Y-77114859D01*
X135235647Y-76852954D02*
X135259456Y-76805335D01*
X135259456Y-76805335D02*
X135307075Y-76781526D01*
X135307075Y-76781526D02*
X135378504Y-76781526D01*
X135378504Y-76781526D02*
X135426123Y-76805335D01*
X135426123Y-76805335D02*
X135449933Y-76852954D01*
X135449933Y-76852954D02*
X135449933Y-77114859D01*
X135688028Y-76781526D02*
X135688028Y-77281526D01*
X135688028Y-76805335D02*
X135735647Y-76781526D01*
X135735647Y-76781526D02*
X135830885Y-76781526D01*
X135830885Y-76781526D02*
X135878504Y-76805335D01*
X135878504Y-76805335D02*
X135902314Y-76829145D01*
X135902314Y-76829145D02*
X135926123Y-76876764D01*
X135926123Y-76876764D02*
X135926123Y-77019621D01*
X135926123Y-77019621D02*
X135902314Y-77067240D01*
X135902314Y-77067240D02*
X135878504Y-77091050D01*
X135878504Y-77091050D02*
X135830885Y-77114859D01*
X135830885Y-77114859D02*
X135735647Y-77114859D01*
X135735647Y-77114859D02*
X135688028Y-77091050D01*
X136211838Y-77114859D02*
X136164219Y-77091050D01*
X136164219Y-77091050D02*
X136140409Y-77043430D01*
X136140409Y-77043430D02*
X136140409Y-76614859D01*
X136592790Y-77091050D02*
X136545171Y-77114859D01*
X136545171Y-77114859D02*
X136449933Y-77114859D01*
X136449933Y-77114859D02*
X136402314Y-77091050D01*
X136402314Y-77091050D02*
X136378505Y-77043430D01*
X136378505Y-77043430D02*
X136378505Y-76852954D01*
X136378505Y-76852954D02*
X136402314Y-76805335D01*
X136402314Y-76805335D02*
X136449933Y-76781526D01*
X136449933Y-76781526D02*
X136545171Y-76781526D01*
X136545171Y-76781526D02*
X136592790Y-76805335D01*
X136592790Y-76805335D02*
X136616600Y-76852954D01*
X136616600Y-76852954D02*
X136616600Y-76900573D01*
X136616600Y-76900573D02*
X136378505Y-76948192D01*
X136759457Y-76781526D02*
X136949933Y-76781526D01*
X136830885Y-76614859D02*
X136830885Y-77043430D01*
X136830885Y-77043430D02*
X136854695Y-77091050D01*
X136854695Y-77091050D02*
X136902314Y-77114859D01*
X136902314Y-77114859D02*
X136949933Y-77114859D01*
X137307075Y-77091050D02*
X137259456Y-77114859D01*
X137259456Y-77114859D02*
X137164218Y-77114859D01*
X137164218Y-77114859D02*
X137116599Y-77091050D01*
X137116599Y-77091050D02*
X137092790Y-77043430D01*
X137092790Y-77043430D02*
X137092790Y-76852954D01*
X137092790Y-76852954D02*
X137116599Y-76805335D01*
X137116599Y-76805335D02*
X137164218Y-76781526D01*
X137164218Y-76781526D02*
X137259456Y-76781526D01*
X137259456Y-76781526D02*
X137307075Y-76805335D01*
X137307075Y-76805335D02*
X137330885Y-76852954D01*
X137330885Y-76852954D02*
X137330885Y-76900573D01*
X137330885Y-76900573D02*
X137092790Y-76948192D01*
X137926122Y-77114859D02*
X137926122Y-76614859D01*
X137926122Y-76805335D02*
X137973741Y-76781526D01*
X137973741Y-76781526D02*
X138068979Y-76781526D01*
X138068979Y-76781526D02*
X138116598Y-76805335D01*
X138116598Y-76805335D02*
X138140408Y-76829145D01*
X138140408Y-76829145D02*
X138164217Y-76876764D01*
X138164217Y-76876764D02*
X138164217Y-77019621D01*
X138164217Y-77019621D02*
X138140408Y-77067240D01*
X138140408Y-77067240D02*
X138116598Y-77091050D01*
X138116598Y-77091050D02*
X138068979Y-77114859D01*
X138068979Y-77114859D02*
X137973741Y-77114859D01*
X137973741Y-77114859D02*
X137926122Y-77091050D01*
X138449932Y-77114859D02*
X138402313Y-77091050D01*
X138402313Y-77091050D02*
X138378503Y-77067240D01*
X138378503Y-77067240D02*
X138354694Y-77019621D01*
X138354694Y-77019621D02*
X138354694Y-76876764D01*
X138354694Y-76876764D02*
X138378503Y-76829145D01*
X138378503Y-76829145D02*
X138402313Y-76805335D01*
X138402313Y-76805335D02*
X138449932Y-76781526D01*
X138449932Y-76781526D02*
X138521360Y-76781526D01*
X138521360Y-76781526D02*
X138568979Y-76805335D01*
X138568979Y-76805335D02*
X138592789Y-76829145D01*
X138592789Y-76829145D02*
X138616598Y-76876764D01*
X138616598Y-76876764D02*
X138616598Y-77019621D01*
X138616598Y-77019621D02*
X138592789Y-77067240D01*
X138592789Y-77067240D02*
X138568979Y-77091050D01*
X138568979Y-77091050D02*
X138521360Y-77114859D01*
X138521360Y-77114859D02*
X138449932Y-77114859D01*
X139045170Y-77114859D02*
X139045170Y-76852954D01*
X139045170Y-76852954D02*
X139021360Y-76805335D01*
X139021360Y-76805335D02*
X138973741Y-76781526D01*
X138973741Y-76781526D02*
X138878503Y-76781526D01*
X138878503Y-76781526D02*
X138830884Y-76805335D01*
X139045170Y-77091050D02*
X138997551Y-77114859D01*
X138997551Y-77114859D02*
X138878503Y-77114859D01*
X138878503Y-77114859D02*
X138830884Y-77091050D01*
X138830884Y-77091050D02*
X138807075Y-77043430D01*
X138807075Y-77043430D02*
X138807075Y-76995811D01*
X138807075Y-76995811D02*
X138830884Y-76948192D01*
X138830884Y-76948192D02*
X138878503Y-76924383D01*
X138878503Y-76924383D02*
X138997551Y-76924383D01*
X138997551Y-76924383D02*
X139045170Y-76900573D01*
X139283265Y-77114859D02*
X139283265Y-76781526D01*
X139283265Y-76876764D02*
X139307075Y-76829145D01*
X139307075Y-76829145D02*
X139330884Y-76805335D01*
X139330884Y-76805335D02*
X139378503Y-76781526D01*
X139378503Y-76781526D02*
X139426122Y-76781526D01*
X139807075Y-77114859D02*
X139807075Y-76614859D01*
X139807075Y-77091050D02*
X139759456Y-77114859D01*
X139759456Y-77114859D02*
X139664218Y-77114859D01*
X139664218Y-77114859D02*
X139616599Y-77091050D01*
X139616599Y-77091050D02*
X139592789Y-77067240D01*
X139592789Y-77067240D02*
X139568980Y-77019621D01*
X139568980Y-77019621D02*
X139568980Y-76876764D01*
X139568980Y-76876764D02*
X139592789Y-76829145D01*
X139592789Y-76829145D02*
X139616599Y-76805335D01*
X139616599Y-76805335D02*
X139664218Y-76781526D01*
X139664218Y-76781526D02*
X139759456Y-76781526D01*
X139759456Y-76781526D02*
X139807075Y-76805335D01*
X140616598Y-77091050D02*
X140568979Y-77114859D01*
X140568979Y-77114859D02*
X140473741Y-77114859D01*
X140473741Y-77114859D02*
X140426122Y-77091050D01*
X140426122Y-77091050D02*
X140402313Y-77043430D01*
X140402313Y-77043430D02*
X140402313Y-76852954D01*
X140402313Y-76852954D02*
X140426122Y-76805335D01*
X140426122Y-76805335D02*
X140473741Y-76781526D01*
X140473741Y-76781526D02*
X140568979Y-76781526D01*
X140568979Y-76781526D02*
X140616598Y-76805335D01*
X140616598Y-76805335D02*
X140640408Y-76852954D01*
X140640408Y-76852954D02*
X140640408Y-76900573D01*
X140640408Y-76900573D02*
X140402313Y-76948192D01*
X141068979Y-77114859D02*
X141068979Y-76614859D01*
X141068979Y-77091050D02*
X141021360Y-77114859D01*
X141021360Y-77114859D02*
X140926122Y-77114859D01*
X140926122Y-77114859D02*
X140878503Y-77091050D01*
X140878503Y-77091050D02*
X140854693Y-77067240D01*
X140854693Y-77067240D02*
X140830884Y-77019621D01*
X140830884Y-77019621D02*
X140830884Y-76876764D01*
X140830884Y-76876764D02*
X140854693Y-76829145D01*
X140854693Y-76829145D02*
X140878503Y-76805335D01*
X140878503Y-76805335D02*
X140926122Y-76781526D01*
X140926122Y-76781526D02*
X141021360Y-76781526D01*
X141021360Y-76781526D02*
X141068979Y-76805335D01*
X141521360Y-76781526D02*
X141521360Y-77186288D01*
X141521360Y-77186288D02*
X141497550Y-77233907D01*
X141497550Y-77233907D02*
X141473741Y-77257716D01*
X141473741Y-77257716D02*
X141426122Y-77281526D01*
X141426122Y-77281526D02*
X141354693Y-77281526D01*
X141354693Y-77281526D02*
X141307074Y-77257716D01*
X141521360Y-77091050D02*
X141473741Y-77114859D01*
X141473741Y-77114859D02*
X141378503Y-77114859D01*
X141378503Y-77114859D02*
X141330884Y-77091050D01*
X141330884Y-77091050D02*
X141307074Y-77067240D01*
X141307074Y-77067240D02*
X141283265Y-77019621D01*
X141283265Y-77019621D02*
X141283265Y-76876764D01*
X141283265Y-76876764D02*
X141307074Y-76829145D01*
X141307074Y-76829145D02*
X141330884Y-76805335D01*
X141330884Y-76805335D02*
X141378503Y-76781526D01*
X141378503Y-76781526D02*
X141473741Y-76781526D01*
X141473741Y-76781526D02*
X141521360Y-76805335D01*
X141949931Y-77091050D02*
X141902312Y-77114859D01*
X141902312Y-77114859D02*
X141807074Y-77114859D01*
X141807074Y-77114859D02*
X141759455Y-77091050D01*
X141759455Y-77091050D02*
X141735646Y-77043430D01*
X141735646Y-77043430D02*
X141735646Y-76852954D01*
X141735646Y-76852954D02*
X141759455Y-76805335D01*
X141759455Y-76805335D02*
X141807074Y-76781526D01*
X141807074Y-76781526D02*
X141902312Y-76781526D01*
X141902312Y-76781526D02*
X141949931Y-76805335D01*
X141949931Y-76805335D02*
X141973741Y-76852954D01*
X141973741Y-76852954D02*
X141973741Y-76900573D01*
X141973741Y-76900573D02*
X141735646Y-76948192D01*
X142568978Y-77114859D02*
X142568978Y-76781526D01*
X142568978Y-76829145D02*
X142592788Y-76805335D01*
X142592788Y-76805335D02*
X142640407Y-76781526D01*
X142640407Y-76781526D02*
X142711835Y-76781526D01*
X142711835Y-76781526D02*
X142759454Y-76805335D01*
X142759454Y-76805335D02*
X142783264Y-76852954D01*
X142783264Y-76852954D02*
X142783264Y-77114859D01*
X142783264Y-76852954D02*
X142807073Y-76805335D01*
X142807073Y-76805335D02*
X142854692Y-76781526D01*
X142854692Y-76781526D02*
X142926121Y-76781526D01*
X142926121Y-76781526D02*
X142973740Y-76805335D01*
X142973740Y-76805335D02*
X142997550Y-76852954D01*
X142997550Y-76852954D02*
X142997550Y-77114859D01*
X143449931Y-76781526D02*
X143449931Y-77114859D01*
X143235645Y-76781526D02*
X143235645Y-77043430D01*
X143235645Y-77043430D02*
X143259455Y-77091050D01*
X143259455Y-77091050D02*
X143307074Y-77114859D01*
X143307074Y-77114859D02*
X143378502Y-77114859D01*
X143378502Y-77114859D02*
X143426121Y-77091050D01*
X143426121Y-77091050D02*
X143449931Y-77067240D01*
X143664217Y-77091050D02*
X143711836Y-77114859D01*
X143711836Y-77114859D02*
X143807074Y-77114859D01*
X143807074Y-77114859D02*
X143854693Y-77091050D01*
X143854693Y-77091050D02*
X143878502Y-77043430D01*
X143878502Y-77043430D02*
X143878502Y-77019621D01*
X143878502Y-77019621D02*
X143854693Y-76972002D01*
X143854693Y-76972002D02*
X143807074Y-76948192D01*
X143807074Y-76948192D02*
X143735645Y-76948192D01*
X143735645Y-76948192D02*
X143688026Y-76924383D01*
X143688026Y-76924383D02*
X143664217Y-76876764D01*
X143664217Y-76876764D02*
X143664217Y-76852954D01*
X143664217Y-76852954D02*
X143688026Y-76805335D01*
X143688026Y-76805335D02*
X143735645Y-76781526D01*
X143735645Y-76781526D02*
X143807074Y-76781526D01*
X143807074Y-76781526D02*
X143854693Y-76805335D01*
X144021360Y-76781526D02*
X144211836Y-76781526D01*
X144092788Y-76614859D02*
X144092788Y-77043430D01*
X144092788Y-77043430D02*
X144116598Y-77091050D01*
X144116598Y-77091050D02*
X144164217Y-77114859D01*
X144164217Y-77114859D02*
X144211836Y-77114859D01*
X144759454Y-77114859D02*
X144759454Y-76614859D01*
X144759454Y-76805335D02*
X144807073Y-76781526D01*
X144807073Y-76781526D02*
X144902311Y-76781526D01*
X144902311Y-76781526D02*
X144949930Y-76805335D01*
X144949930Y-76805335D02*
X144973740Y-76829145D01*
X144973740Y-76829145D02*
X144997549Y-76876764D01*
X144997549Y-76876764D02*
X144997549Y-77019621D01*
X144997549Y-77019621D02*
X144973740Y-77067240D01*
X144973740Y-77067240D02*
X144949930Y-77091050D01*
X144949930Y-77091050D02*
X144902311Y-77114859D01*
X144902311Y-77114859D02*
X144807073Y-77114859D01*
X144807073Y-77114859D02*
X144759454Y-77091050D01*
X145402311Y-77091050D02*
X145354692Y-77114859D01*
X145354692Y-77114859D02*
X145259454Y-77114859D01*
X145259454Y-77114859D02*
X145211835Y-77091050D01*
X145211835Y-77091050D02*
X145188026Y-77043430D01*
X145188026Y-77043430D02*
X145188026Y-76852954D01*
X145188026Y-76852954D02*
X145211835Y-76805335D01*
X145211835Y-76805335D02*
X145259454Y-76781526D01*
X145259454Y-76781526D02*
X145354692Y-76781526D01*
X145354692Y-76781526D02*
X145402311Y-76805335D01*
X145402311Y-76805335D02*
X145426121Y-76852954D01*
X145426121Y-76852954D02*
X145426121Y-76900573D01*
X145426121Y-76900573D02*
X145188026Y-76948192D01*
X146235644Y-77091050D02*
X146188025Y-77114859D01*
X146188025Y-77114859D02*
X146092787Y-77114859D01*
X146092787Y-77114859D02*
X146045168Y-77091050D01*
X146045168Y-77091050D02*
X146021358Y-77067240D01*
X146021358Y-77067240D02*
X145997549Y-77019621D01*
X145997549Y-77019621D02*
X145997549Y-76876764D01*
X145997549Y-76876764D02*
X146021358Y-76829145D01*
X146021358Y-76829145D02*
X146045168Y-76805335D01*
X146045168Y-76805335D02*
X146092787Y-76781526D01*
X146092787Y-76781526D02*
X146188025Y-76781526D01*
X146188025Y-76781526D02*
X146235644Y-76805335D01*
X146521358Y-77114859D02*
X146473739Y-77091050D01*
X146473739Y-77091050D02*
X146449929Y-77067240D01*
X146449929Y-77067240D02*
X146426120Y-77019621D01*
X146426120Y-77019621D02*
X146426120Y-76876764D01*
X146426120Y-76876764D02*
X146449929Y-76829145D01*
X146449929Y-76829145D02*
X146473739Y-76805335D01*
X146473739Y-76805335D02*
X146521358Y-76781526D01*
X146521358Y-76781526D02*
X146592786Y-76781526D01*
X146592786Y-76781526D02*
X146640405Y-76805335D01*
X146640405Y-76805335D02*
X146664215Y-76829145D01*
X146664215Y-76829145D02*
X146688024Y-76876764D01*
X146688024Y-76876764D02*
X146688024Y-77019621D01*
X146688024Y-77019621D02*
X146664215Y-77067240D01*
X146664215Y-77067240D02*
X146640405Y-77091050D01*
X146640405Y-77091050D02*
X146592786Y-77114859D01*
X146592786Y-77114859D02*
X146521358Y-77114859D01*
X146902310Y-76781526D02*
X146902310Y-77114859D01*
X146902310Y-76829145D02*
X146926120Y-76805335D01*
X146926120Y-76805335D02*
X146973739Y-76781526D01*
X146973739Y-76781526D02*
X147045167Y-76781526D01*
X147045167Y-76781526D02*
X147092786Y-76805335D01*
X147092786Y-76805335D02*
X147116596Y-76852954D01*
X147116596Y-76852954D02*
X147116596Y-77114859D01*
X147354691Y-76781526D02*
X147354691Y-77114859D01*
X147354691Y-76829145D02*
X147378501Y-76805335D01*
X147378501Y-76805335D02*
X147426120Y-76781526D01*
X147426120Y-76781526D02*
X147497548Y-76781526D01*
X147497548Y-76781526D02*
X147545167Y-76805335D01*
X147545167Y-76805335D02*
X147568977Y-76852954D01*
X147568977Y-76852954D02*
X147568977Y-77114859D01*
X147997548Y-77091050D02*
X147949929Y-77114859D01*
X147949929Y-77114859D02*
X147854691Y-77114859D01*
X147854691Y-77114859D02*
X147807072Y-77091050D01*
X147807072Y-77091050D02*
X147783263Y-77043430D01*
X147783263Y-77043430D02*
X147783263Y-76852954D01*
X147783263Y-76852954D02*
X147807072Y-76805335D01*
X147807072Y-76805335D02*
X147854691Y-76781526D01*
X147854691Y-76781526D02*
X147949929Y-76781526D01*
X147949929Y-76781526D02*
X147997548Y-76805335D01*
X147997548Y-76805335D02*
X148021358Y-76852954D01*
X148021358Y-76852954D02*
X148021358Y-76900573D01*
X148021358Y-76900573D02*
X147783263Y-76948192D01*
X148449929Y-77091050D02*
X148402310Y-77114859D01*
X148402310Y-77114859D02*
X148307072Y-77114859D01*
X148307072Y-77114859D02*
X148259453Y-77091050D01*
X148259453Y-77091050D02*
X148235643Y-77067240D01*
X148235643Y-77067240D02*
X148211834Y-77019621D01*
X148211834Y-77019621D02*
X148211834Y-76876764D01*
X148211834Y-76876764D02*
X148235643Y-76829145D01*
X148235643Y-76829145D02*
X148259453Y-76805335D01*
X148259453Y-76805335D02*
X148307072Y-76781526D01*
X148307072Y-76781526D02*
X148402310Y-76781526D01*
X148402310Y-76781526D02*
X148449929Y-76805335D01*
X148592786Y-76781526D02*
X148783262Y-76781526D01*
X148664214Y-76614859D02*
X148664214Y-77043430D01*
X148664214Y-77043430D02*
X148688024Y-77091050D01*
X148688024Y-77091050D02*
X148735643Y-77114859D01*
X148735643Y-77114859D02*
X148783262Y-77114859D01*
X149140404Y-77091050D02*
X149092785Y-77114859D01*
X149092785Y-77114859D02*
X148997547Y-77114859D01*
X148997547Y-77114859D02*
X148949928Y-77091050D01*
X148949928Y-77091050D02*
X148926119Y-77043430D01*
X148926119Y-77043430D02*
X148926119Y-76852954D01*
X148926119Y-76852954D02*
X148949928Y-76805335D01*
X148949928Y-76805335D02*
X148997547Y-76781526D01*
X148997547Y-76781526D02*
X149092785Y-76781526D01*
X149092785Y-76781526D02*
X149140404Y-76805335D01*
X149140404Y-76805335D02*
X149164214Y-76852954D01*
X149164214Y-76852954D02*
X149164214Y-76900573D01*
X149164214Y-76900573D02*
X148926119Y-76948192D01*
X149592785Y-77114859D02*
X149592785Y-76614859D01*
X149592785Y-77091050D02*
X149545166Y-77114859D01*
X149545166Y-77114859D02*
X149449928Y-77114859D01*
X149449928Y-77114859D02*
X149402309Y-77091050D01*
X149402309Y-77091050D02*
X149378499Y-77067240D01*
X149378499Y-77067240D02*
X149354690Y-77019621D01*
X149354690Y-77019621D02*
X149354690Y-76876764D01*
X149354690Y-76876764D02*
X149378499Y-76829145D01*
X149378499Y-76829145D02*
X149402309Y-76805335D01*
X149402309Y-76805335D02*
X149449928Y-76781526D01*
X149449928Y-76781526D02*
X149545166Y-76781526D01*
X149545166Y-76781526D02*
X149592785Y-76805335D01*
D11*
X153089389Y-127222269D02*
X153089389Y-126222269D01*
X153660817Y-127222269D02*
X153232246Y-126650840D01*
X153660817Y-126222269D02*
X153089389Y-126793697D01*
X154470341Y-127174650D02*
X154375103Y-127222269D01*
X154375103Y-127222269D02*
X154184627Y-127222269D01*
X154184627Y-127222269D02*
X154089389Y-127174650D01*
X154089389Y-127174650D02*
X154041770Y-127079411D01*
X154041770Y-127079411D02*
X154041770Y-126698459D01*
X154041770Y-126698459D02*
X154089389Y-126603221D01*
X154089389Y-126603221D02*
X154184627Y-126555602D01*
X154184627Y-126555602D02*
X154375103Y-126555602D01*
X154375103Y-126555602D02*
X154470341Y-126603221D01*
X154470341Y-126603221D02*
X154517960Y-126698459D01*
X154517960Y-126698459D02*
X154517960Y-126793697D01*
X154517960Y-126793697D02*
X154041770Y-126888935D01*
X155327484Y-127174650D02*
X155232246Y-127222269D01*
X155232246Y-127222269D02*
X155041770Y-127222269D01*
X155041770Y-127222269D02*
X154946532Y-127174650D01*
X154946532Y-127174650D02*
X154898913Y-127079411D01*
X154898913Y-127079411D02*
X154898913Y-126698459D01*
X154898913Y-126698459D02*
X154946532Y-126603221D01*
X154946532Y-126603221D02*
X155041770Y-126555602D01*
X155041770Y-126555602D02*
X155232246Y-126555602D01*
X155232246Y-126555602D02*
X155327484Y-126603221D01*
X155327484Y-126603221D02*
X155375103Y-126698459D01*
X155375103Y-126698459D02*
X155375103Y-126793697D01*
X155375103Y-126793697D02*
X154898913Y-126888935D01*
X155803675Y-126555602D02*
X155803675Y-127555602D01*
X155803675Y-126603221D02*
X155898913Y-126555602D01*
X155898913Y-126555602D02*
X156089389Y-126555602D01*
X156089389Y-126555602D02*
X156184627Y-126603221D01*
X156184627Y-126603221D02*
X156232246Y-126650840D01*
X156232246Y-126650840D02*
X156279865Y-126746078D01*
X156279865Y-126746078D02*
X156279865Y-127031792D01*
X156279865Y-127031792D02*
X156232246Y-127127030D01*
X156232246Y-127127030D02*
X156184627Y-127174650D01*
X156184627Y-127174650D02*
X156089389Y-127222269D01*
X156089389Y-127222269D02*
X155898913Y-127222269D01*
X155898913Y-127222269D02*
X155803675Y-127174650D01*
X157660818Y-126222269D02*
X157851294Y-126222269D01*
X157851294Y-126222269D02*
X157946532Y-126269888D01*
X157946532Y-126269888D02*
X158041770Y-126365126D01*
X158041770Y-126365126D02*
X158089389Y-126555602D01*
X158089389Y-126555602D02*
X158089389Y-126888935D01*
X158089389Y-126888935D02*
X158041770Y-127079411D01*
X158041770Y-127079411D02*
X157946532Y-127174650D01*
X157946532Y-127174650D02*
X157851294Y-127222269D01*
X157851294Y-127222269D02*
X157660818Y-127222269D01*
X157660818Y-127222269D02*
X157565580Y-127174650D01*
X157565580Y-127174650D02*
X157470342Y-127079411D01*
X157470342Y-127079411D02*
X157422723Y-126888935D01*
X157422723Y-126888935D02*
X157422723Y-126555602D01*
X157422723Y-126555602D02*
X157470342Y-126365126D01*
X157470342Y-126365126D02*
X157565580Y-126269888D01*
X157565580Y-126269888D02*
X157660818Y-126222269D01*
X158946532Y-126555602D02*
X158946532Y-127222269D01*
X158517961Y-126555602D02*
X158517961Y-127079411D01*
X158517961Y-127079411D02*
X158565580Y-127174650D01*
X158565580Y-127174650D02*
X158660818Y-127222269D01*
X158660818Y-127222269D02*
X158803675Y-127222269D01*
X158803675Y-127222269D02*
X158898913Y-127174650D01*
X158898913Y-127174650D02*
X158946532Y-127127030D01*
X159279866Y-126555602D02*
X159660818Y-126555602D01*
X159422723Y-126222269D02*
X159422723Y-127079411D01*
X159422723Y-127079411D02*
X159470342Y-127174650D01*
X159470342Y-127174650D02*
X159565580Y-127222269D01*
X159565580Y-127222269D02*
X159660818Y-127222269D01*
D10*
X150077487Y-122732478D02*
X150172725Y-122661050D01*
X150172725Y-122661050D02*
X150267963Y-122732478D01*
X150791772Y-123161050D02*
X150863200Y-123184859D01*
X150863200Y-123184859D02*
X150982248Y-123184859D01*
X150982248Y-123184859D02*
X151029867Y-123161050D01*
X151029867Y-123161050D02*
X151053676Y-123137240D01*
X151053676Y-123137240D02*
X151077486Y-123089621D01*
X151077486Y-123089621D02*
X151077486Y-123042002D01*
X151077486Y-123042002D02*
X151053676Y-122994383D01*
X151053676Y-122994383D02*
X151029867Y-122970573D01*
X151029867Y-122970573D02*
X150982248Y-122946764D01*
X150982248Y-122946764D02*
X150887010Y-122922954D01*
X150887010Y-122922954D02*
X150839391Y-122899145D01*
X150839391Y-122899145D02*
X150815581Y-122875335D01*
X150815581Y-122875335D02*
X150791772Y-122827716D01*
X150791772Y-122827716D02*
X150791772Y-122780097D01*
X150791772Y-122780097D02*
X150815581Y-122732478D01*
X150815581Y-122732478D02*
X150839391Y-122708669D01*
X150839391Y-122708669D02*
X150887010Y-122684859D01*
X150887010Y-122684859D02*
X151006057Y-122684859D01*
X151006057Y-122684859D02*
X151077486Y-122708669D01*
X151506057Y-122851526D02*
X151506057Y-123184859D01*
X151291771Y-122851526D02*
X151291771Y-123113430D01*
X151291771Y-123113430D02*
X151315581Y-123161050D01*
X151315581Y-123161050D02*
X151363200Y-123184859D01*
X151363200Y-123184859D02*
X151434628Y-123184859D01*
X151434628Y-123184859D02*
X151482247Y-123161050D01*
X151482247Y-123161050D02*
X151506057Y-123137240D01*
X151958438Y-122851526D02*
X151958438Y-123256288D01*
X151958438Y-123256288D02*
X151934628Y-123303907D01*
X151934628Y-123303907D02*
X151910819Y-123327716D01*
X151910819Y-123327716D02*
X151863200Y-123351526D01*
X151863200Y-123351526D02*
X151791771Y-123351526D01*
X151791771Y-123351526D02*
X151744152Y-123327716D01*
X151958438Y-123161050D02*
X151910819Y-123184859D01*
X151910819Y-123184859D02*
X151815581Y-123184859D01*
X151815581Y-123184859D02*
X151767962Y-123161050D01*
X151767962Y-123161050D02*
X151744152Y-123137240D01*
X151744152Y-123137240D02*
X151720343Y-123089621D01*
X151720343Y-123089621D02*
X151720343Y-122946764D01*
X151720343Y-122946764D02*
X151744152Y-122899145D01*
X151744152Y-122899145D02*
X151767962Y-122875335D01*
X151767962Y-122875335D02*
X151815581Y-122851526D01*
X151815581Y-122851526D02*
X151910819Y-122851526D01*
X151910819Y-122851526D02*
X151958438Y-122875335D01*
X152410819Y-122851526D02*
X152410819Y-123256288D01*
X152410819Y-123256288D02*
X152387009Y-123303907D01*
X152387009Y-123303907D02*
X152363200Y-123327716D01*
X152363200Y-123327716D02*
X152315581Y-123351526D01*
X152315581Y-123351526D02*
X152244152Y-123351526D01*
X152244152Y-123351526D02*
X152196533Y-123327716D01*
X152410819Y-123161050D02*
X152363200Y-123184859D01*
X152363200Y-123184859D02*
X152267962Y-123184859D01*
X152267962Y-123184859D02*
X152220343Y-123161050D01*
X152220343Y-123161050D02*
X152196533Y-123137240D01*
X152196533Y-123137240D02*
X152172724Y-123089621D01*
X152172724Y-123089621D02*
X152172724Y-122946764D01*
X152172724Y-122946764D02*
X152196533Y-122899145D01*
X152196533Y-122899145D02*
X152220343Y-122875335D01*
X152220343Y-122875335D02*
X152267962Y-122851526D01*
X152267962Y-122851526D02*
X152363200Y-122851526D01*
X152363200Y-122851526D02*
X152410819Y-122875335D01*
X152839390Y-123161050D02*
X152791771Y-123184859D01*
X152791771Y-123184859D02*
X152696533Y-123184859D01*
X152696533Y-123184859D02*
X152648914Y-123161050D01*
X152648914Y-123161050D02*
X152625105Y-123113430D01*
X152625105Y-123113430D02*
X152625105Y-122922954D01*
X152625105Y-122922954D02*
X152648914Y-122875335D01*
X152648914Y-122875335D02*
X152696533Y-122851526D01*
X152696533Y-122851526D02*
X152791771Y-122851526D01*
X152791771Y-122851526D02*
X152839390Y-122875335D01*
X152839390Y-122875335D02*
X152863200Y-122922954D01*
X152863200Y-122922954D02*
X152863200Y-122970573D01*
X152863200Y-122970573D02*
X152625105Y-123018192D01*
X153053676Y-123161050D02*
X153101295Y-123184859D01*
X153101295Y-123184859D02*
X153196533Y-123184859D01*
X153196533Y-123184859D02*
X153244152Y-123161050D01*
X153244152Y-123161050D02*
X153267961Y-123113430D01*
X153267961Y-123113430D02*
X153267961Y-123089621D01*
X153267961Y-123089621D02*
X153244152Y-123042002D01*
X153244152Y-123042002D02*
X153196533Y-123018192D01*
X153196533Y-123018192D02*
X153125104Y-123018192D01*
X153125104Y-123018192D02*
X153077485Y-122994383D01*
X153077485Y-122994383D02*
X153053676Y-122946764D01*
X153053676Y-122946764D02*
X153053676Y-122922954D01*
X153053676Y-122922954D02*
X153077485Y-122875335D01*
X153077485Y-122875335D02*
X153125104Y-122851526D01*
X153125104Y-122851526D02*
X153196533Y-122851526D01*
X153196533Y-122851526D02*
X153244152Y-122875335D01*
X153410819Y-122851526D02*
X153601295Y-122851526D01*
X153482247Y-122684859D02*
X153482247Y-123113430D01*
X153482247Y-123113430D02*
X153506057Y-123161050D01*
X153506057Y-123161050D02*
X153553676Y-123184859D01*
X153553676Y-123184859D02*
X153601295Y-123184859D01*
X153958437Y-123161050D02*
X153910818Y-123184859D01*
X153910818Y-123184859D02*
X153815580Y-123184859D01*
X153815580Y-123184859D02*
X153767961Y-123161050D01*
X153767961Y-123161050D02*
X153744152Y-123113430D01*
X153744152Y-123113430D02*
X153744152Y-122922954D01*
X153744152Y-122922954D02*
X153767961Y-122875335D01*
X153767961Y-122875335D02*
X153815580Y-122851526D01*
X153815580Y-122851526D02*
X153910818Y-122851526D01*
X153910818Y-122851526D02*
X153958437Y-122875335D01*
X153958437Y-122875335D02*
X153982247Y-122922954D01*
X153982247Y-122922954D02*
X153982247Y-122970573D01*
X153982247Y-122970573D02*
X153744152Y-123018192D01*
X154410818Y-123184859D02*
X154410818Y-122684859D01*
X154410818Y-123161050D02*
X154363199Y-123184859D01*
X154363199Y-123184859D02*
X154267961Y-123184859D01*
X154267961Y-123184859D02*
X154220342Y-123161050D01*
X154220342Y-123161050D02*
X154196532Y-123137240D01*
X154196532Y-123137240D02*
X154172723Y-123089621D01*
X154172723Y-123089621D02*
X154172723Y-122946764D01*
X154172723Y-122946764D02*
X154196532Y-122899145D01*
X154196532Y-122899145D02*
X154220342Y-122875335D01*
X154220342Y-122875335D02*
X154267961Y-122851526D01*
X154267961Y-122851526D02*
X154363199Y-122851526D01*
X154363199Y-122851526D02*
X154410818Y-122875335D01*
X155029865Y-123184859D02*
X155029865Y-122684859D01*
X155029865Y-122875335D02*
X155077484Y-122851526D01*
X155077484Y-122851526D02*
X155172722Y-122851526D01*
X155172722Y-122851526D02*
X155220341Y-122875335D01*
X155220341Y-122875335D02*
X155244151Y-122899145D01*
X155244151Y-122899145D02*
X155267960Y-122946764D01*
X155267960Y-122946764D02*
X155267960Y-123089621D01*
X155267960Y-123089621D02*
X155244151Y-123137240D01*
X155244151Y-123137240D02*
X155220341Y-123161050D01*
X155220341Y-123161050D02*
X155172722Y-123184859D01*
X155172722Y-123184859D02*
X155077484Y-123184859D01*
X155077484Y-123184859D02*
X155029865Y-123161050D01*
X155553675Y-123184859D02*
X155506056Y-123161050D01*
X155506056Y-123161050D02*
X155482246Y-123137240D01*
X155482246Y-123137240D02*
X155458437Y-123089621D01*
X155458437Y-123089621D02*
X155458437Y-122946764D01*
X155458437Y-122946764D02*
X155482246Y-122899145D01*
X155482246Y-122899145D02*
X155506056Y-122875335D01*
X155506056Y-122875335D02*
X155553675Y-122851526D01*
X155553675Y-122851526D02*
X155625103Y-122851526D01*
X155625103Y-122851526D02*
X155672722Y-122875335D01*
X155672722Y-122875335D02*
X155696532Y-122899145D01*
X155696532Y-122899145D02*
X155720341Y-122946764D01*
X155720341Y-122946764D02*
X155720341Y-123089621D01*
X155720341Y-123089621D02*
X155696532Y-123137240D01*
X155696532Y-123137240D02*
X155672722Y-123161050D01*
X155672722Y-123161050D02*
X155625103Y-123184859D01*
X155625103Y-123184859D02*
X155553675Y-123184859D01*
X156148913Y-123184859D02*
X156148913Y-122922954D01*
X156148913Y-122922954D02*
X156125103Y-122875335D01*
X156125103Y-122875335D02*
X156077484Y-122851526D01*
X156077484Y-122851526D02*
X155982246Y-122851526D01*
X155982246Y-122851526D02*
X155934627Y-122875335D01*
X156148913Y-123161050D02*
X156101294Y-123184859D01*
X156101294Y-123184859D02*
X155982246Y-123184859D01*
X155982246Y-123184859D02*
X155934627Y-123161050D01*
X155934627Y-123161050D02*
X155910818Y-123113430D01*
X155910818Y-123113430D02*
X155910818Y-123065811D01*
X155910818Y-123065811D02*
X155934627Y-123018192D01*
X155934627Y-123018192D02*
X155982246Y-122994383D01*
X155982246Y-122994383D02*
X156101294Y-122994383D01*
X156101294Y-122994383D02*
X156148913Y-122970573D01*
X156387008Y-123184859D02*
X156387008Y-122851526D01*
X156387008Y-122946764D02*
X156410818Y-122899145D01*
X156410818Y-122899145D02*
X156434627Y-122875335D01*
X156434627Y-122875335D02*
X156482246Y-122851526D01*
X156482246Y-122851526D02*
X156529865Y-122851526D01*
X156910818Y-123184859D02*
X156910818Y-122684859D01*
X156910818Y-123161050D02*
X156863199Y-123184859D01*
X156863199Y-123184859D02*
X156767961Y-123184859D01*
X156767961Y-123184859D02*
X156720342Y-123161050D01*
X156720342Y-123161050D02*
X156696532Y-123137240D01*
X156696532Y-123137240D02*
X156672723Y-123089621D01*
X156672723Y-123089621D02*
X156672723Y-122946764D01*
X156672723Y-122946764D02*
X156696532Y-122899145D01*
X156696532Y-122899145D02*
X156720342Y-122875335D01*
X156720342Y-122875335D02*
X156767961Y-122851526D01*
X156767961Y-122851526D02*
X156863199Y-122851526D01*
X156863199Y-122851526D02*
X156910818Y-122875335D01*
X157720341Y-123161050D02*
X157672722Y-123184859D01*
X157672722Y-123184859D02*
X157577484Y-123184859D01*
X157577484Y-123184859D02*
X157529865Y-123161050D01*
X157529865Y-123161050D02*
X157506056Y-123113430D01*
X157506056Y-123113430D02*
X157506056Y-122922954D01*
X157506056Y-122922954D02*
X157529865Y-122875335D01*
X157529865Y-122875335D02*
X157577484Y-122851526D01*
X157577484Y-122851526D02*
X157672722Y-122851526D01*
X157672722Y-122851526D02*
X157720341Y-122875335D01*
X157720341Y-122875335D02*
X157744151Y-122922954D01*
X157744151Y-122922954D02*
X157744151Y-122970573D01*
X157744151Y-122970573D02*
X157506056Y-123018192D01*
X158172722Y-123184859D02*
X158172722Y-122684859D01*
X158172722Y-123161050D02*
X158125103Y-123184859D01*
X158125103Y-123184859D02*
X158029865Y-123184859D01*
X158029865Y-123184859D02*
X157982246Y-123161050D01*
X157982246Y-123161050D02*
X157958436Y-123137240D01*
X157958436Y-123137240D02*
X157934627Y-123089621D01*
X157934627Y-123089621D02*
X157934627Y-122946764D01*
X157934627Y-122946764D02*
X157958436Y-122899145D01*
X157958436Y-122899145D02*
X157982246Y-122875335D01*
X157982246Y-122875335D02*
X158029865Y-122851526D01*
X158029865Y-122851526D02*
X158125103Y-122851526D01*
X158125103Y-122851526D02*
X158172722Y-122875335D01*
X158625103Y-122851526D02*
X158625103Y-123256288D01*
X158625103Y-123256288D02*
X158601293Y-123303907D01*
X158601293Y-123303907D02*
X158577484Y-123327716D01*
X158577484Y-123327716D02*
X158529865Y-123351526D01*
X158529865Y-123351526D02*
X158458436Y-123351526D01*
X158458436Y-123351526D02*
X158410817Y-123327716D01*
X158625103Y-123161050D02*
X158577484Y-123184859D01*
X158577484Y-123184859D02*
X158482246Y-123184859D01*
X158482246Y-123184859D02*
X158434627Y-123161050D01*
X158434627Y-123161050D02*
X158410817Y-123137240D01*
X158410817Y-123137240D02*
X158387008Y-123089621D01*
X158387008Y-123089621D02*
X158387008Y-122946764D01*
X158387008Y-122946764D02*
X158410817Y-122899145D01*
X158410817Y-122899145D02*
X158434627Y-122875335D01*
X158434627Y-122875335D02*
X158482246Y-122851526D01*
X158482246Y-122851526D02*
X158577484Y-122851526D01*
X158577484Y-122851526D02*
X158625103Y-122875335D01*
X159053674Y-123161050D02*
X159006055Y-123184859D01*
X159006055Y-123184859D02*
X158910817Y-123184859D01*
X158910817Y-123184859D02*
X158863198Y-123161050D01*
X158863198Y-123161050D02*
X158839389Y-123113430D01*
X158839389Y-123113430D02*
X158839389Y-122922954D01*
X158839389Y-122922954D02*
X158863198Y-122875335D01*
X158863198Y-122875335D02*
X158910817Y-122851526D01*
X158910817Y-122851526D02*
X159006055Y-122851526D01*
X159006055Y-122851526D02*
X159053674Y-122875335D01*
X159053674Y-122875335D02*
X159077484Y-122922954D01*
X159077484Y-122922954D02*
X159077484Y-122970573D01*
X159077484Y-122970573D02*
X158839389Y-123018192D01*
X159601293Y-122851526D02*
X159791769Y-122851526D01*
X159672721Y-123184859D02*
X159672721Y-122756288D01*
X159672721Y-122756288D02*
X159696531Y-122708669D01*
X159696531Y-122708669D02*
X159744150Y-122684859D01*
X159744150Y-122684859D02*
X159791769Y-122684859D01*
X160029864Y-123184859D02*
X159982245Y-123161050D01*
X159982245Y-123161050D02*
X159958435Y-123137240D01*
X159958435Y-123137240D02*
X159934626Y-123089621D01*
X159934626Y-123089621D02*
X159934626Y-122946764D01*
X159934626Y-122946764D02*
X159958435Y-122899145D01*
X159958435Y-122899145D02*
X159982245Y-122875335D01*
X159982245Y-122875335D02*
X160029864Y-122851526D01*
X160029864Y-122851526D02*
X160101292Y-122851526D01*
X160101292Y-122851526D02*
X160148911Y-122875335D01*
X160148911Y-122875335D02*
X160172721Y-122899145D01*
X160172721Y-122899145D02*
X160196530Y-122946764D01*
X160196530Y-122946764D02*
X160196530Y-123089621D01*
X160196530Y-123089621D02*
X160172721Y-123137240D01*
X160172721Y-123137240D02*
X160148911Y-123161050D01*
X160148911Y-123161050D02*
X160101292Y-123184859D01*
X160101292Y-123184859D02*
X160029864Y-123184859D01*
X160410816Y-123184859D02*
X160410816Y-122851526D01*
X160410816Y-122946764D02*
X160434626Y-122899145D01*
X160434626Y-122899145D02*
X160458435Y-122875335D01*
X160458435Y-122875335D02*
X160506054Y-122851526D01*
X160506054Y-122851526D02*
X160553673Y-122851526D01*
X161387006Y-123184859D02*
X161220340Y-122946764D01*
X161101292Y-123184859D02*
X161101292Y-122684859D01*
X161101292Y-122684859D02*
X161291768Y-122684859D01*
X161291768Y-122684859D02*
X161339387Y-122708669D01*
X161339387Y-122708669D02*
X161363197Y-122732478D01*
X161363197Y-122732478D02*
X161387006Y-122780097D01*
X161387006Y-122780097D02*
X161387006Y-122851526D01*
X161387006Y-122851526D02*
X161363197Y-122899145D01*
X161363197Y-122899145D02*
X161339387Y-122922954D01*
X161339387Y-122922954D02*
X161291768Y-122946764D01*
X161291768Y-122946764D02*
X161101292Y-122946764D01*
X161767959Y-122922954D02*
X161601292Y-122922954D01*
X161601292Y-123184859D02*
X161601292Y-122684859D01*
X161601292Y-122684859D02*
X161839387Y-122684859D01*
X162339387Y-122732478D02*
X162434625Y-122661050D01*
X162434625Y-122661050D02*
X162529863Y-122732478D01*
X136027487Y-131622478D02*
X136122725Y-131551050D01*
X136122725Y-131551050D02*
X136217963Y-131622478D01*
X136741772Y-132051050D02*
X136813200Y-132074859D01*
X136813200Y-132074859D02*
X136932248Y-132074859D01*
X136932248Y-132074859D02*
X136979867Y-132051050D01*
X136979867Y-132051050D02*
X137003676Y-132027240D01*
X137003676Y-132027240D02*
X137027486Y-131979621D01*
X137027486Y-131979621D02*
X137027486Y-131932002D01*
X137027486Y-131932002D02*
X137003676Y-131884383D01*
X137003676Y-131884383D02*
X136979867Y-131860573D01*
X136979867Y-131860573D02*
X136932248Y-131836764D01*
X136932248Y-131836764D02*
X136837010Y-131812954D01*
X136837010Y-131812954D02*
X136789391Y-131789145D01*
X136789391Y-131789145D02*
X136765581Y-131765335D01*
X136765581Y-131765335D02*
X136741772Y-131717716D01*
X136741772Y-131717716D02*
X136741772Y-131670097D01*
X136741772Y-131670097D02*
X136765581Y-131622478D01*
X136765581Y-131622478D02*
X136789391Y-131598669D01*
X136789391Y-131598669D02*
X136837010Y-131574859D01*
X136837010Y-131574859D02*
X136956057Y-131574859D01*
X136956057Y-131574859D02*
X137027486Y-131598669D01*
X137456057Y-131741526D02*
X137456057Y-132074859D01*
X137241771Y-131741526D02*
X137241771Y-132003430D01*
X137241771Y-132003430D02*
X137265581Y-132051050D01*
X137265581Y-132051050D02*
X137313200Y-132074859D01*
X137313200Y-132074859D02*
X137384628Y-132074859D01*
X137384628Y-132074859D02*
X137432247Y-132051050D01*
X137432247Y-132051050D02*
X137456057Y-132027240D01*
X137908438Y-131741526D02*
X137908438Y-132146288D01*
X137908438Y-132146288D02*
X137884628Y-132193907D01*
X137884628Y-132193907D02*
X137860819Y-132217716D01*
X137860819Y-132217716D02*
X137813200Y-132241526D01*
X137813200Y-132241526D02*
X137741771Y-132241526D01*
X137741771Y-132241526D02*
X137694152Y-132217716D01*
X137908438Y-132051050D02*
X137860819Y-132074859D01*
X137860819Y-132074859D02*
X137765581Y-132074859D01*
X137765581Y-132074859D02*
X137717962Y-132051050D01*
X137717962Y-132051050D02*
X137694152Y-132027240D01*
X137694152Y-132027240D02*
X137670343Y-131979621D01*
X137670343Y-131979621D02*
X137670343Y-131836764D01*
X137670343Y-131836764D02*
X137694152Y-131789145D01*
X137694152Y-131789145D02*
X137717962Y-131765335D01*
X137717962Y-131765335D02*
X137765581Y-131741526D01*
X137765581Y-131741526D02*
X137860819Y-131741526D01*
X137860819Y-131741526D02*
X137908438Y-131765335D01*
X138360819Y-131741526D02*
X138360819Y-132146288D01*
X138360819Y-132146288D02*
X138337009Y-132193907D01*
X138337009Y-132193907D02*
X138313200Y-132217716D01*
X138313200Y-132217716D02*
X138265581Y-132241526D01*
X138265581Y-132241526D02*
X138194152Y-132241526D01*
X138194152Y-132241526D02*
X138146533Y-132217716D01*
X138360819Y-132051050D02*
X138313200Y-132074859D01*
X138313200Y-132074859D02*
X138217962Y-132074859D01*
X138217962Y-132074859D02*
X138170343Y-132051050D01*
X138170343Y-132051050D02*
X138146533Y-132027240D01*
X138146533Y-132027240D02*
X138122724Y-131979621D01*
X138122724Y-131979621D02*
X138122724Y-131836764D01*
X138122724Y-131836764D02*
X138146533Y-131789145D01*
X138146533Y-131789145D02*
X138170343Y-131765335D01*
X138170343Y-131765335D02*
X138217962Y-131741526D01*
X138217962Y-131741526D02*
X138313200Y-131741526D01*
X138313200Y-131741526D02*
X138360819Y-131765335D01*
X138789390Y-132051050D02*
X138741771Y-132074859D01*
X138741771Y-132074859D02*
X138646533Y-132074859D01*
X138646533Y-132074859D02*
X138598914Y-132051050D01*
X138598914Y-132051050D02*
X138575105Y-132003430D01*
X138575105Y-132003430D02*
X138575105Y-131812954D01*
X138575105Y-131812954D02*
X138598914Y-131765335D01*
X138598914Y-131765335D02*
X138646533Y-131741526D01*
X138646533Y-131741526D02*
X138741771Y-131741526D01*
X138741771Y-131741526D02*
X138789390Y-131765335D01*
X138789390Y-131765335D02*
X138813200Y-131812954D01*
X138813200Y-131812954D02*
X138813200Y-131860573D01*
X138813200Y-131860573D02*
X138575105Y-131908192D01*
X139003676Y-132051050D02*
X139051295Y-132074859D01*
X139051295Y-132074859D02*
X139146533Y-132074859D01*
X139146533Y-132074859D02*
X139194152Y-132051050D01*
X139194152Y-132051050D02*
X139217961Y-132003430D01*
X139217961Y-132003430D02*
X139217961Y-131979621D01*
X139217961Y-131979621D02*
X139194152Y-131932002D01*
X139194152Y-131932002D02*
X139146533Y-131908192D01*
X139146533Y-131908192D02*
X139075104Y-131908192D01*
X139075104Y-131908192D02*
X139027485Y-131884383D01*
X139027485Y-131884383D02*
X139003676Y-131836764D01*
X139003676Y-131836764D02*
X139003676Y-131812954D01*
X139003676Y-131812954D02*
X139027485Y-131765335D01*
X139027485Y-131765335D02*
X139075104Y-131741526D01*
X139075104Y-131741526D02*
X139146533Y-131741526D01*
X139146533Y-131741526D02*
X139194152Y-131765335D01*
X139360819Y-131741526D02*
X139551295Y-131741526D01*
X139432247Y-131574859D02*
X139432247Y-132003430D01*
X139432247Y-132003430D02*
X139456057Y-132051050D01*
X139456057Y-132051050D02*
X139503676Y-132074859D01*
X139503676Y-132074859D02*
X139551295Y-132074859D01*
X139908437Y-132051050D02*
X139860818Y-132074859D01*
X139860818Y-132074859D02*
X139765580Y-132074859D01*
X139765580Y-132074859D02*
X139717961Y-132051050D01*
X139717961Y-132051050D02*
X139694152Y-132003430D01*
X139694152Y-132003430D02*
X139694152Y-131812954D01*
X139694152Y-131812954D02*
X139717961Y-131765335D01*
X139717961Y-131765335D02*
X139765580Y-131741526D01*
X139765580Y-131741526D02*
X139860818Y-131741526D01*
X139860818Y-131741526D02*
X139908437Y-131765335D01*
X139908437Y-131765335D02*
X139932247Y-131812954D01*
X139932247Y-131812954D02*
X139932247Y-131860573D01*
X139932247Y-131860573D02*
X139694152Y-131908192D01*
X140360818Y-132074859D02*
X140360818Y-131574859D01*
X140360818Y-132051050D02*
X140313199Y-132074859D01*
X140313199Y-132074859D02*
X140217961Y-132074859D01*
X140217961Y-132074859D02*
X140170342Y-132051050D01*
X140170342Y-132051050D02*
X140146532Y-132027240D01*
X140146532Y-132027240D02*
X140122723Y-131979621D01*
X140122723Y-131979621D02*
X140122723Y-131836764D01*
X140122723Y-131836764D02*
X140146532Y-131789145D01*
X140146532Y-131789145D02*
X140170342Y-131765335D01*
X140170342Y-131765335D02*
X140217961Y-131741526D01*
X140217961Y-131741526D02*
X140313199Y-131741526D01*
X140313199Y-131741526D02*
X140360818Y-131765335D01*
X140979865Y-132074859D02*
X140979865Y-131574859D01*
X140979865Y-131765335D02*
X141027484Y-131741526D01*
X141027484Y-131741526D02*
X141122722Y-131741526D01*
X141122722Y-131741526D02*
X141170341Y-131765335D01*
X141170341Y-131765335D02*
X141194151Y-131789145D01*
X141194151Y-131789145D02*
X141217960Y-131836764D01*
X141217960Y-131836764D02*
X141217960Y-131979621D01*
X141217960Y-131979621D02*
X141194151Y-132027240D01*
X141194151Y-132027240D02*
X141170341Y-132051050D01*
X141170341Y-132051050D02*
X141122722Y-132074859D01*
X141122722Y-132074859D02*
X141027484Y-132074859D01*
X141027484Y-132074859D02*
X140979865Y-132051050D01*
X141503675Y-132074859D02*
X141456056Y-132051050D01*
X141456056Y-132051050D02*
X141432246Y-132027240D01*
X141432246Y-132027240D02*
X141408437Y-131979621D01*
X141408437Y-131979621D02*
X141408437Y-131836764D01*
X141408437Y-131836764D02*
X141432246Y-131789145D01*
X141432246Y-131789145D02*
X141456056Y-131765335D01*
X141456056Y-131765335D02*
X141503675Y-131741526D01*
X141503675Y-131741526D02*
X141575103Y-131741526D01*
X141575103Y-131741526D02*
X141622722Y-131765335D01*
X141622722Y-131765335D02*
X141646532Y-131789145D01*
X141646532Y-131789145D02*
X141670341Y-131836764D01*
X141670341Y-131836764D02*
X141670341Y-131979621D01*
X141670341Y-131979621D02*
X141646532Y-132027240D01*
X141646532Y-132027240D02*
X141622722Y-132051050D01*
X141622722Y-132051050D02*
X141575103Y-132074859D01*
X141575103Y-132074859D02*
X141503675Y-132074859D01*
X142098913Y-132074859D02*
X142098913Y-131812954D01*
X142098913Y-131812954D02*
X142075103Y-131765335D01*
X142075103Y-131765335D02*
X142027484Y-131741526D01*
X142027484Y-131741526D02*
X141932246Y-131741526D01*
X141932246Y-131741526D02*
X141884627Y-131765335D01*
X142098913Y-132051050D02*
X142051294Y-132074859D01*
X142051294Y-132074859D02*
X141932246Y-132074859D01*
X141932246Y-132074859D02*
X141884627Y-132051050D01*
X141884627Y-132051050D02*
X141860818Y-132003430D01*
X141860818Y-132003430D02*
X141860818Y-131955811D01*
X141860818Y-131955811D02*
X141884627Y-131908192D01*
X141884627Y-131908192D02*
X141932246Y-131884383D01*
X141932246Y-131884383D02*
X142051294Y-131884383D01*
X142051294Y-131884383D02*
X142098913Y-131860573D01*
X142337008Y-132074859D02*
X142337008Y-131741526D01*
X142337008Y-131836764D02*
X142360818Y-131789145D01*
X142360818Y-131789145D02*
X142384627Y-131765335D01*
X142384627Y-131765335D02*
X142432246Y-131741526D01*
X142432246Y-131741526D02*
X142479865Y-131741526D01*
X142860818Y-132074859D02*
X142860818Y-131574859D01*
X142860818Y-132051050D02*
X142813199Y-132074859D01*
X142813199Y-132074859D02*
X142717961Y-132074859D01*
X142717961Y-132074859D02*
X142670342Y-132051050D01*
X142670342Y-132051050D02*
X142646532Y-132027240D01*
X142646532Y-132027240D02*
X142622723Y-131979621D01*
X142622723Y-131979621D02*
X142622723Y-131836764D01*
X142622723Y-131836764D02*
X142646532Y-131789145D01*
X142646532Y-131789145D02*
X142670342Y-131765335D01*
X142670342Y-131765335D02*
X142717961Y-131741526D01*
X142717961Y-131741526D02*
X142813199Y-131741526D01*
X142813199Y-131741526D02*
X142860818Y-131765335D01*
X143670341Y-132051050D02*
X143622722Y-132074859D01*
X143622722Y-132074859D02*
X143527484Y-132074859D01*
X143527484Y-132074859D02*
X143479865Y-132051050D01*
X143479865Y-132051050D02*
X143456056Y-132003430D01*
X143456056Y-132003430D02*
X143456056Y-131812954D01*
X143456056Y-131812954D02*
X143479865Y-131765335D01*
X143479865Y-131765335D02*
X143527484Y-131741526D01*
X143527484Y-131741526D02*
X143622722Y-131741526D01*
X143622722Y-131741526D02*
X143670341Y-131765335D01*
X143670341Y-131765335D02*
X143694151Y-131812954D01*
X143694151Y-131812954D02*
X143694151Y-131860573D01*
X143694151Y-131860573D02*
X143456056Y-131908192D01*
X144122722Y-132074859D02*
X144122722Y-131574859D01*
X144122722Y-132051050D02*
X144075103Y-132074859D01*
X144075103Y-132074859D02*
X143979865Y-132074859D01*
X143979865Y-132074859D02*
X143932246Y-132051050D01*
X143932246Y-132051050D02*
X143908436Y-132027240D01*
X143908436Y-132027240D02*
X143884627Y-131979621D01*
X143884627Y-131979621D02*
X143884627Y-131836764D01*
X143884627Y-131836764D02*
X143908436Y-131789145D01*
X143908436Y-131789145D02*
X143932246Y-131765335D01*
X143932246Y-131765335D02*
X143979865Y-131741526D01*
X143979865Y-131741526D02*
X144075103Y-131741526D01*
X144075103Y-131741526D02*
X144122722Y-131765335D01*
X144575103Y-131741526D02*
X144575103Y-132146288D01*
X144575103Y-132146288D02*
X144551293Y-132193907D01*
X144551293Y-132193907D02*
X144527484Y-132217716D01*
X144527484Y-132217716D02*
X144479865Y-132241526D01*
X144479865Y-132241526D02*
X144408436Y-132241526D01*
X144408436Y-132241526D02*
X144360817Y-132217716D01*
X144575103Y-132051050D02*
X144527484Y-132074859D01*
X144527484Y-132074859D02*
X144432246Y-132074859D01*
X144432246Y-132074859D02*
X144384627Y-132051050D01*
X144384627Y-132051050D02*
X144360817Y-132027240D01*
X144360817Y-132027240D02*
X144337008Y-131979621D01*
X144337008Y-131979621D02*
X144337008Y-131836764D01*
X144337008Y-131836764D02*
X144360817Y-131789145D01*
X144360817Y-131789145D02*
X144384627Y-131765335D01*
X144384627Y-131765335D02*
X144432246Y-131741526D01*
X144432246Y-131741526D02*
X144527484Y-131741526D01*
X144527484Y-131741526D02*
X144575103Y-131765335D01*
X145003674Y-132051050D02*
X144956055Y-132074859D01*
X144956055Y-132074859D02*
X144860817Y-132074859D01*
X144860817Y-132074859D02*
X144813198Y-132051050D01*
X144813198Y-132051050D02*
X144789389Y-132003430D01*
X144789389Y-132003430D02*
X144789389Y-131812954D01*
X144789389Y-131812954D02*
X144813198Y-131765335D01*
X144813198Y-131765335D02*
X144860817Y-131741526D01*
X144860817Y-131741526D02*
X144956055Y-131741526D01*
X144956055Y-131741526D02*
X145003674Y-131765335D01*
X145003674Y-131765335D02*
X145027484Y-131812954D01*
X145027484Y-131812954D02*
X145027484Y-131860573D01*
X145027484Y-131860573D02*
X144789389Y-131908192D01*
X145551293Y-131741526D02*
X145741769Y-131741526D01*
X145622721Y-132074859D02*
X145622721Y-131646288D01*
X145622721Y-131646288D02*
X145646531Y-131598669D01*
X145646531Y-131598669D02*
X145694150Y-131574859D01*
X145694150Y-131574859D02*
X145741769Y-131574859D01*
X145979864Y-132074859D02*
X145932245Y-132051050D01*
X145932245Y-132051050D02*
X145908435Y-132027240D01*
X145908435Y-132027240D02*
X145884626Y-131979621D01*
X145884626Y-131979621D02*
X145884626Y-131836764D01*
X145884626Y-131836764D02*
X145908435Y-131789145D01*
X145908435Y-131789145D02*
X145932245Y-131765335D01*
X145932245Y-131765335D02*
X145979864Y-131741526D01*
X145979864Y-131741526D02*
X146051292Y-131741526D01*
X146051292Y-131741526D02*
X146098911Y-131765335D01*
X146098911Y-131765335D02*
X146122721Y-131789145D01*
X146122721Y-131789145D02*
X146146530Y-131836764D01*
X146146530Y-131836764D02*
X146146530Y-131979621D01*
X146146530Y-131979621D02*
X146122721Y-132027240D01*
X146122721Y-132027240D02*
X146098911Y-132051050D01*
X146098911Y-132051050D02*
X146051292Y-132074859D01*
X146051292Y-132074859D02*
X145979864Y-132074859D01*
X146360816Y-132074859D02*
X146360816Y-131741526D01*
X146360816Y-131836764D02*
X146384626Y-131789145D01*
X146384626Y-131789145D02*
X146408435Y-131765335D01*
X146408435Y-131765335D02*
X146456054Y-131741526D01*
X146456054Y-131741526D02*
X146503673Y-131741526D01*
X147337006Y-132074859D02*
X147170340Y-131836764D01*
X147051292Y-132074859D02*
X147051292Y-131574859D01*
X147051292Y-131574859D02*
X147241768Y-131574859D01*
X147241768Y-131574859D02*
X147289387Y-131598669D01*
X147289387Y-131598669D02*
X147313197Y-131622478D01*
X147313197Y-131622478D02*
X147337006Y-131670097D01*
X147337006Y-131670097D02*
X147337006Y-131741526D01*
X147337006Y-131741526D02*
X147313197Y-131789145D01*
X147313197Y-131789145D02*
X147289387Y-131812954D01*
X147289387Y-131812954D02*
X147241768Y-131836764D01*
X147241768Y-131836764D02*
X147051292Y-131836764D01*
X147717959Y-131812954D02*
X147551292Y-131812954D01*
X147551292Y-132074859D02*
X147551292Y-131574859D01*
X147551292Y-131574859D02*
X147789387Y-131574859D01*
X148289387Y-131622478D02*
X148384625Y-131551050D01*
X148384625Y-131551050D02*
X148479863Y-131622478D01*
D11*
X165850000Y-136500000D02*
G75*
G02*
X161150000Y-136500000I-2350000J0D01*
G01*
X161150000Y-136500000D02*
G75*
G02*
X165850000Y-136500000I2350000J0D01*
G01*
X118850000Y-136500000D02*
G75*
G02*
X114150000Y-136500000I-2350000J0D01*
G01*
X114150000Y-136500000D02*
G75*
G02*
X118850000Y-136500000I2350000J0D01*
G01*
X123350000Y-80000000D02*
G75*
G02*
X118650000Y-80000000I-2350000J0D01*
G01*
X118650000Y-80000000D02*
G75*
G02*
X123350000Y-80000000I2350000J0D01*
G01*
M02*
