G04 #@! TF.GenerationSoftware,KiCad,Pcbnew,9.0.5*
G04 #@! TF.CreationDate,2025-12-02T14:35:45+00:00*
G04 #@! TF.ProjectId,jitx-design,6a697478-2d64-4657-9369-676e2e6b6963,1.0*
G04 #@! TF.SameCoordinates,Original*
G04 #@! TF.FileFunction,Legend,Bot*
G04 #@! TF.FilePolarity,Positive*
%FSLAX46Y46*%
G04 Gerber Fmt 4.6, Leading zero omitted, Abs format (unit mm)*
G04 Created by KiCad (PCBNEW 9.0.5) date 2025-12-02 14:35:45*
%MOMM*%
%LPD*%
G01*
G04 APERTURE LIST*
G04 Aperture macros list*
%AMRoundRect*
0 Rectangle with rounded corners*
0 $1 Rounding radius*
0 $2 $3 $4 $5 $6 $7 $8 $9 X,Y pos of 4 corners*
0 Add a 4 corners polygon primitive as box body*
4,1,4,$2,$3,$4,$5,$6,$7,$8,$9,$2,$3,0*
0 Add four circle primitives for the rounded corners*
1,1,$1+$1,$2,$3*
1,1,$1+$1,$4,$5*
1,1,$1+$1,$6,$7*
1,1,$1+$1,$8,$9*
0 Add four rect primitives between the rounded corners*
20,1,$1+$1,$2,$3,$4,$5,0*
20,1,$1+$1,$4,$5,$6,$7,0*
20,1,$1+$1,$6,$7,$8,$9,0*
20,1,$1+$1,$8,$9,$2,$3,0*%
G04 Aperture macros list end*
%ADD10C,0.150000*%
%ADD11RoundRect,0.051000X1.000000X-1.000000X1.000000X1.000000X-1.000000X1.000000X-1.000000X-1.000000X0*%
%ADD12C,2.102000*%
%ADD13C,2.700000*%
%ADD14O,1.700000X1.700000*%
%ADD15R,1.700000X1.700000*%
%ADD16C,1.600000*%
%ADD17RoundRect,0.800000X-0.000010X-0.800000X0.000010X-0.800000X0.000010X0.800000X-0.000010X0.800000X0*%
%ADD18RoundRect,0.800000X-0.800000X-0.000010X0.800000X-0.000010X0.800000X0.000010X-0.800000X0.000010X0*%
%ADD19C,2.000000*%
%ADD20C,4.700000*%
%ADD21RoundRect,0.051000X0.900000X0.900000X-0.900000X0.900000X-0.900000X-0.900000X0.900000X-0.900000X0*%
%ADD22C,1.902000*%
%ADD23C,1.700000*%
%ADD24O,2.100000X1.300000*%
G04 APERTURE END LIST*
D10*
X150579887Y-129096009D02*
X150437030Y-129143628D01*
X150437030Y-129143628D02*
X150389411Y-129191247D01*
X150389411Y-129191247D02*
X150341792Y-129286485D01*
X150341792Y-129286485D02*
X150341792Y-129429342D01*
X150341792Y-129429342D02*
X150389411Y-129524580D01*
X150389411Y-129524580D02*
X150437030Y-129572200D01*
X150437030Y-129572200D02*
X150532268Y-129619819D01*
X150532268Y-129619819D02*
X150913220Y-129619819D01*
X150913220Y-129619819D02*
X150913220Y-128619819D01*
X150913220Y-128619819D02*
X150579887Y-128619819D01*
X150579887Y-128619819D02*
X150484649Y-128667438D01*
X150484649Y-128667438D02*
X150437030Y-128715057D01*
X150437030Y-128715057D02*
X150389411Y-128810295D01*
X150389411Y-128810295D02*
X150389411Y-128905533D01*
X150389411Y-128905533D02*
X150437030Y-129000771D01*
X150437030Y-129000771D02*
X150484649Y-129048390D01*
X150484649Y-129048390D02*
X150579887Y-129096009D01*
X150579887Y-129096009D02*
X150913220Y-129096009D01*
X150008458Y-128953152D02*
X149770363Y-129619819D01*
X149532268Y-128953152D02*
X149770363Y-129619819D01*
X149770363Y-129619819D02*
X149865601Y-129857914D01*
X149865601Y-129857914D02*
X149913220Y-129905533D01*
X149913220Y-129905533D02*
X150008458Y-129953152D01*
X148389410Y-129096009D02*
X148056077Y-129096009D01*
X147913220Y-129619819D02*
X148389410Y-129619819D01*
X148389410Y-129619819D02*
X148389410Y-128619819D01*
X148389410Y-128619819D02*
X147913220Y-128619819D01*
X147341791Y-129619819D02*
X147437029Y-129572200D01*
X147437029Y-129572200D02*
X147484648Y-129476961D01*
X147484648Y-129476961D02*
X147484648Y-128619819D01*
X146198933Y-129619819D02*
X146198933Y-128619819D01*
X146198933Y-128619819D02*
X145960838Y-128619819D01*
X145960838Y-128619819D02*
X145817981Y-128667438D01*
X145817981Y-128667438D02*
X145722743Y-128762676D01*
X145722743Y-128762676D02*
X145675124Y-128857914D01*
X145675124Y-128857914D02*
X145627505Y-129048390D01*
X145627505Y-129048390D02*
X145627505Y-129191247D01*
X145627505Y-129191247D02*
X145675124Y-129381723D01*
X145675124Y-129381723D02*
X145722743Y-129476961D01*
X145722743Y-129476961D02*
X145817981Y-129572200D01*
X145817981Y-129572200D02*
X145960838Y-129619819D01*
X145960838Y-129619819D02*
X146198933Y-129619819D01*
X145198933Y-129619819D02*
X145198933Y-128953152D01*
X145198933Y-129143628D02*
X145151314Y-129048390D01*
X145151314Y-129048390D02*
X145103695Y-129000771D01*
X145103695Y-129000771D02*
X145008457Y-128953152D01*
X145008457Y-128953152D02*
X144913219Y-128953152D01*
X144579885Y-129524580D02*
X144532266Y-129572200D01*
X144532266Y-129572200D02*
X144579885Y-129619819D01*
X144579885Y-129619819D02*
X144627504Y-129572200D01*
X144627504Y-129572200D02*
X144579885Y-129524580D01*
X144579885Y-129524580D02*
X144579885Y-129619819D01*
X142817981Y-128667438D02*
X142913219Y-128619819D01*
X142913219Y-128619819D02*
X143056076Y-128619819D01*
X143056076Y-128619819D02*
X143198933Y-128667438D01*
X143198933Y-128667438D02*
X143294171Y-128762676D01*
X143294171Y-128762676D02*
X143341790Y-128857914D01*
X143341790Y-128857914D02*
X143389409Y-129048390D01*
X143389409Y-129048390D02*
X143389409Y-129191247D01*
X143389409Y-129191247D02*
X143341790Y-129381723D01*
X143341790Y-129381723D02*
X143294171Y-129476961D01*
X143294171Y-129476961D02*
X143198933Y-129572200D01*
X143198933Y-129572200D02*
X143056076Y-129619819D01*
X143056076Y-129619819D02*
X142960838Y-129619819D01*
X142960838Y-129619819D02*
X142817981Y-129572200D01*
X142817981Y-129572200D02*
X142770362Y-129524580D01*
X142770362Y-129524580D02*
X142770362Y-129191247D01*
X142770362Y-129191247D02*
X142960838Y-129191247D01*
X141913219Y-128953152D02*
X141913219Y-129619819D01*
X142341790Y-128953152D02*
X142341790Y-129476961D01*
X142341790Y-129476961D02*
X142294171Y-129572200D01*
X142294171Y-129572200D02*
X142198933Y-129619819D01*
X142198933Y-129619819D02*
X142056076Y-129619819D01*
X142056076Y-129619819D02*
X141960838Y-129572200D01*
X141960838Y-129572200D02*
X141913219Y-129524580D01*
X141484647Y-129572200D02*
X141389409Y-129619819D01*
X141389409Y-129619819D02*
X141198933Y-129619819D01*
X141198933Y-129619819D02*
X141103695Y-129572200D01*
X141103695Y-129572200D02*
X141056076Y-129476961D01*
X141056076Y-129476961D02*
X141056076Y-129429342D01*
X141056076Y-129429342D02*
X141103695Y-129334104D01*
X141103695Y-129334104D02*
X141198933Y-129286485D01*
X141198933Y-129286485D02*
X141341790Y-129286485D01*
X141341790Y-129286485D02*
X141437028Y-129238866D01*
X141437028Y-129238866D02*
X141484647Y-129143628D01*
X141484647Y-129143628D02*
X141484647Y-129096009D01*
X141484647Y-129096009D02*
X141437028Y-129000771D01*
X141437028Y-129000771D02*
X141341790Y-128953152D01*
X141341790Y-128953152D02*
X141198933Y-128953152D01*
X141198933Y-128953152D02*
X141103695Y-129000771D01*
X140627504Y-129619819D02*
X140627504Y-128953152D01*
X140627504Y-129048390D02*
X140579885Y-129000771D01*
X140579885Y-129000771D02*
X140484647Y-128953152D01*
X140484647Y-128953152D02*
X140341790Y-128953152D01*
X140341790Y-128953152D02*
X140246552Y-129000771D01*
X140246552Y-129000771D02*
X140198933Y-129096009D01*
X140198933Y-129096009D02*
X140198933Y-129619819D01*
X140198933Y-129096009D02*
X140151314Y-129000771D01*
X140151314Y-129000771D02*
X140056076Y-128953152D01*
X140056076Y-128953152D02*
X139913219Y-128953152D01*
X139913219Y-128953152D02*
X139817980Y-129000771D01*
X139817980Y-129000771D02*
X139770361Y-129096009D01*
X139770361Y-129096009D02*
X139770361Y-129619819D01*
X138865600Y-129619819D02*
X138865600Y-129096009D01*
X138865600Y-129096009D02*
X138913219Y-129000771D01*
X138913219Y-129000771D02*
X139008457Y-128953152D01*
X139008457Y-128953152D02*
X139198933Y-128953152D01*
X139198933Y-128953152D02*
X139294171Y-129000771D01*
X138865600Y-129572200D02*
X138960838Y-129619819D01*
X138960838Y-129619819D02*
X139198933Y-129619819D01*
X139198933Y-129619819D02*
X139294171Y-129572200D01*
X139294171Y-129572200D02*
X139341790Y-129476961D01*
X139341790Y-129476961D02*
X139341790Y-129381723D01*
X139341790Y-129381723D02*
X139294171Y-129286485D01*
X139294171Y-129286485D02*
X139198933Y-129238866D01*
X139198933Y-129238866D02*
X138960838Y-129238866D01*
X138960838Y-129238866D02*
X138865600Y-129191247D01*
X138389409Y-128953152D02*
X138389409Y-129619819D01*
X138389409Y-129048390D02*
X138341790Y-129000771D01*
X138341790Y-129000771D02*
X138246552Y-128953152D01*
X138246552Y-128953152D02*
X138103695Y-128953152D01*
X138103695Y-128953152D02*
X138008457Y-129000771D01*
X138008457Y-129000771D02*
X137960838Y-129096009D01*
X137960838Y-129096009D02*
X137960838Y-129619819D01*
X136722742Y-129238866D02*
X135960838Y-129238866D01*
X134770361Y-128715057D02*
X134722742Y-128667438D01*
X134722742Y-128667438D02*
X134627504Y-128619819D01*
X134627504Y-128619819D02*
X134389409Y-128619819D01*
X134389409Y-128619819D02*
X134294171Y-128667438D01*
X134294171Y-128667438D02*
X134246552Y-128715057D01*
X134246552Y-128715057D02*
X134198933Y-128810295D01*
X134198933Y-128810295D02*
X134198933Y-128905533D01*
X134198933Y-128905533D02*
X134246552Y-129048390D01*
X134246552Y-129048390D02*
X134817980Y-129619819D01*
X134817980Y-129619819D02*
X134198933Y-129619819D01*
X133579885Y-128619819D02*
X133484647Y-128619819D01*
X133484647Y-128619819D02*
X133389409Y-128667438D01*
X133389409Y-128667438D02*
X133341790Y-128715057D01*
X133341790Y-128715057D02*
X133294171Y-128810295D01*
X133294171Y-128810295D02*
X133246552Y-129000771D01*
X133246552Y-129000771D02*
X133246552Y-129238866D01*
X133246552Y-129238866D02*
X133294171Y-129429342D01*
X133294171Y-129429342D02*
X133341790Y-129524580D01*
X133341790Y-129524580D02*
X133389409Y-129572200D01*
X133389409Y-129572200D02*
X133484647Y-129619819D01*
X133484647Y-129619819D02*
X133579885Y-129619819D01*
X133579885Y-129619819D02*
X133675123Y-129572200D01*
X133675123Y-129572200D02*
X133722742Y-129524580D01*
X133722742Y-129524580D02*
X133770361Y-129429342D01*
X133770361Y-129429342D02*
X133817980Y-129238866D01*
X133817980Y-129238866D02*
X133817980Y-129000771D01*
X133817980Y-129000771D02*
X133770361Y-128810295D01*
X133770361Y-128810295D02*
X133722742Y-128715057D01*
X133722742Y-128715057D02*
X133675123Y-128667438D01*
X133675123Y-128667438D02*
X133579885Y-128619819D01*
X132865599Y-128715057D02*
X132817980Y-128667438D01*
X132817980Y-128667438D02*
X132722742Y-128619819D01*
X132722742Y-128619819D02*
X132484647Y-128619819D01*
X132484647Y-128619819D02*
X132389409Y-128667438D01*
X132389409Y-128667438D02*
X132341790Y-128715057D01*
X132341790Y-128715057D02*
X132294171Y-128810295D01*
X132294171Y-128810295D02*
X132294171Y-128905533D01*
X132294171Y-128905533D02*
X132341790Y-129048390D01*
X132341790Y-129048390D02*
X132913218Y-129619819D01*
X132913218Y-129619819D02*
X132294171Y-129619819D01*
X131437028Y-128953152D02*
X131437028Y-129619819D01*
X131675123Y-128572200D02*
X131913218Y-129286485D01*
X131913218Y-129286485D02*
X131294171Y-129286485D01*
G36*
X158340160Y-91320000D02*
G01*
X158340160Y-87302693D01*
X157809909Y-87302693D01*
X157809909Y-90854961D01*
X155837159Y-90854961D01*
X155837159Y-91320000D01*
X158340160Y-91320000D01*
G37*
G36*
X154357696Y-88371145D02*
G01*
X154595053Y-88432384D01*
X154809678Y-88532382D01*
X155005268Y-88672407D01*
X155159474Y-88834984D01*
X155282216Y-89029619D01*
X155373944Y-89261482D01*
X155432539Y-89537552D01*
X155453454Y-89866266D01*
X155426618Y-90234544D01*
X155351877Y-90537540D01*
X155235040Y-90786964D01*
X155077808Y-90991981D01*
X154878083Y-91161013D01*
X154651230Y-91281887D01*
X154391927Y-91356481D01*
X154092777Y-91382526D01*
X153844196Y-91362479D01*
X153611768Y-91303339D01*
X153392044Y-91204961D01*
X153193998Y-91069868D01*
X153032005Y-90904660D01*
X152902826Y-90706461D01*
X152815112Y-90485472D01*
X152756520Y-90197160D01*
X152736157Y-89848681D01*
X153240125Y-89848681D01*
X153258329Y-90137976D01*
X153308127Y-90368547D01*
X153384074Y-90551184D01*
X153483391Y-90694738D01*
X153614483Y-90817475D01*
X153757683Y-90902975D01*
X153915730Y-90954510D01*
X154092777Y-90972198D01*
X154271335Y-90954536D01*
X154430297Y-90903155D01*
X154573871Y-90818078D01*
X154704849Y-90696203D01*
X154804583Y-90553104D01*
X154880495Y-90372664D01*
X154930058Y-90146606D01*
X154948115Y-89864801D01*
X154930038Y-89583074D01*
X154880448Y-89357385D01*
X154804538Y-89177511D01*
X154704849Y-89035108D01*
X154573947Y-88913829D01*
X154430396Y-88829117D01*
X154271406Y-88777932D01*
X154092777Y-88760334D01*
X153917089Y-88777892D01*
X153759673Y-88829125D01*
X153616487Y-88914248D01*
X153484856Y-89036573D01*
X153383804Y-89179836D01*
X153307494Y-89357723D01*
X153258039Y-89577630D01*
X153240125Y-89848681D01*
X152736157Y-89848681D01*
X152734787Y-89825233D01*
X152761227Y-89481311D01*
X152835677Y-89192208D01*
X152953639Y-88948249D01*
X153114584Y-88742016D01*
X153316487Y-88571637D01*
X153543205Y-88450361D01*
X153799670Y-88375893D01*
X154092777Y-88350006D01*
X154357696Y-88371145D01*
G37*
G36*
X151342342Y-88372241D02*
G01*
X151564131Y-88436466D01*
X151762212Y-88541493D01*
X151935203Y-88684543D01*
X152080172Y-88863804D01*
X152198185Y-89084445D01*
X152280811Y-89322701D01*
X152331191Y-89577388D01*
X152348394Y-89851367D01*
X152326787Y-90150414D01*
X152264190Y-90419854D01*
X152162308Y-90664427D01*
X152020621Y-90887934D01*
X151840859Y-91076022D01*
X151631055Y-91209139D01*
X151385262Y-91291180D01*
X151094207Y-91320000D01*
X150862716Y-91295878D01*
X150654979Y-91225323D01*
X150465466Y-91107557D01*
X150290648Y-90937271D01*
X150300870Y-91375253D01*
X150326308Y-91565464D01*
X150384767Y-91719344D01*
X150468258Y-91844721D01*
X150577634Y-91945994D01*
X150708623Y-92017587D01*
X150880649Y-92064641D01*
X151104954Y-92082037D01*
X151312444Y-92065023D01*
X151476175Y-92018327D01*
X151605163Y-91945994D01*
X151681556Y-91869449D01*
X151737506Y-91765029D01*
X151771737Y-91625059D01*
X152249965Y-91554473D01*
X152232962Y-91785049D01*
X152174641Y-91973881D01*
X152078111Y-92129812D01*
X151941242Y-92258625D01*
X151777328Y-92356852D01*
X151586224Y-92429779D01*
X151363127Y-92475995D01*
X151102267Y-92492365D01*
X150814563Y-92472469D01*
X150571575Y-92416498D01*
X150365875Y-92328234D01*
X150181557Y-92203460D01*
X150037316Y-92055234D01*
X149928681Y-91881514D01*
X149860426Y-91685000D01*
X149810491Y-91377873D01*
X149790683Y-90921151D01*
X149790683Y-89832316D01*
X150249860Y-89832316D01*
X150267298Y-90116529D01*
X150314700Y-90340145D01*
X150386422Y-90514599D01*
X150479448Y-90649309D01*
X150646441Y-90795216D01*
X150833345Y-90880591D01*
X151047557Y-90909672D01*
X151263509Y-90880317D01*
X151450483Y-90794386D01*
X151616154Y-90647843D01*
X151707486Y-90512885D01*
X151778345Y-90336327D01*
X151825426Y-90108075D01*
X151842812Y-89815952D01*
X151825856Y-89550367D01*
X151779199Y-89336066D01*
X151707550Y-89163885D01*
X151613224Y-89026315D01*
X151445916Y-88876304D01*
X151262453Y-88789584D01*
X151055861Y-88760334D01*
X150845596Y-88789993D01*
X150658065Y-88878046D01*
X150486287Y-89030467D01*
X150389042Y-89170290D01*
X150315281Y-89345178D01*
X150267293Y-89562743D01*
X150249860Y-89832316D01*
X149790683Y-89832316D01*
X149790683Y-88412533D01*
X150244242Y-88412533D01*
X150244242Y-88768639D01*
X150426173Y-88582210D01*
X150624999Y-88453530D01*
X150844597Y-88376423D01*
X151091277Y-88350006D01*
X151342342Y-88372241D01*
G37*
G36*
X149046231Y-87865429D02*
G01*
X149046231Y-87302693D01*
X148554570Y-87302693D01*
X148554570Y-87865429D01*
X149046231Y-87865429D01*
G37*
G36*
X149046231Y-91320000D02*
G01*
X149046231Y-88412533D01*
X148554570Y-88412533D01*
X148554570Y-91320000D01*
X149046231Y-91320000D01*
G37*
G36*
X145912840Y-90257055D02*
G01*
X145429239Y-90319825D01*
X145486952Y-90564025D01*
X145574332Y-90772237D01*
X145690068Y-90949816D01*
X145834926Y-91100669D01*
X146005586Y-91222867D01*
X146193713Y-91310308D01*
X146402656Y-91363969D01*
X146636775Y-91382526D01*
X146928815Y-91356574D01*
X147181190Y-91282291D01*
X147401382Y-91161871D01*
X147594696Y-90993203D01*
X147745936Y-90789719D01*
X147858594Y-90542305D01*
X147930750Y-90241946D01*
X147956664Y-89877257D01*
X147938145Y-89566985D01*
X147885306Y-89294640D01*
X147801081Y-89054891D01*
X147677252Y-88836878D01*
X147520101Y-88662434D01*
X147327006Y-88526350D01*
X147108978Y-88428561D01*
X146879126Y-88369871D01*
X146634089Y-88350006D01*
X146398619Y-88366518D01*
X146194440Y-88413534D01*
X146016584Y-88488636D01*
X145861060Y-88591318D01*
X145727012Y-88721357D01*
X145618326Y-88876346D01*
X145534189Y-89059812D01*
X145475645Y-89276664D01*
X145953872Y-89350425D01*
X146014607Y-89162470D01*
X146095690Y-89017864D01*
X146195673Y-88908590D01*
X146318276Y-88826760D01*
X146456569Y-88777383D01*
X146615038Y-88760334D01*
X146795743Y-88777626D01*
X146953812Y-88827504D01*
X147093808Y-88909280D01*
X147218806Y-89025338D01*
X147312615Y-89162053D01*
X147385202Y-89340307D01*
X147433332Y-89570110D01*
X147451081Y-89863579D01*
X147433772Y-90162342D01*
X147387029Y-90394625D01*
X147316963Y-90573186D01*
X147227110Y-90708660D01*
X147106102Y-90824321D01*
X146970564Y-90905581D01*
X146817505Y-90955056D01*
X146642393Y-90972198D01*
X146456059Y-90951827D01*
X146296847Y-90893285D01*
X146158792Y-90796831D01*
X146050568Y-90667555D01*
X145967491Y-90491794D01*
X145912840Y-90257055D01*
G37*
G36*
X145385519Y-91320000D02*
G01*
X144822540Y-91320000D01*
X144382658Y-90100739D01*
X142707641Y-90100739D01*
X142240404Y-91320000D01*
X141636392Y-91320000D01*
X142312648Y-89663056D01*
X142871528Y-89663056D01*
X144229518Y-89663056D01*
X143789637Y-88488492D01*
X143665541Y-88105981D01*
X143573726Y-87723524D01*
X143464387Y-88069960D01*
X143289672Y-88553949D01*
X142871528Y-89663056D01*
X142312648Y-89663056D01*
X143275994Y-87302693D01*
X143847034Y-87302693D01*
X145385519Y-91320000D01*
G37*
G36*
X141276378Y-91320000D02*
G01*
X141276378Y-88412533D01*
X140833565Y-88412533D01*
X140833565Y-88823838D01*
X140693101Y-88652035D01*
X140533691Y-88521470D01*
X140353062Y-88427930D01*
X140147078Y-88370167D01*
X139910083Y-88350006D01*
X139655677Y-88374172D01*
X139427948Y-88444528D01*
X139230568Y-88557342D01*
X139098709Y-88691946D01*
X139006980Y-88856442D01*
X138945568Y-89055624D01*
X138926636Y-89217979D01*
X138918213Y-89534096D01*
X138918213Y-91320000D01*
X139410118Y-91320000D01*
X139410118Y-89550216D01*
X139426965Y-89268304D01*
X139467515Y-89099588D01*
X139546092Y-88966269D01*
X139670969Y-88861207D01*
X139826902Y-88795119D01*
X140013886Y-88772058D01*
X140215918Y-88794766D01*
X140394896Y-88861070D01*
X140556350Y-88972093D01*
X140646406Y-89078611D01*
X140717534Y-89230810D01*
X140766073Y-89442478D01*
X140784473Y-89730956D01*
X140784473Y-91320000D01*
X141276378Y-91320000D01*
G37*
G36*
X137299426Y-88377383D02*
G01*
X137597348Y-88453810D01*
X137778111Y-88536165D01*
X137921027Y-88634808D01*
X138031856Y-88749344D01*
X138118982Y-88883922D01*
X138191440Y-89050124D01*
X138247522Y-89253705D01*
X137766608Y-89319162D01*
X137698193Y-89118047D01*
X137615952Y-88977441D01*
X137522121Y-88883433D01*
X137404843Y-88819985D01*
X137239138Y-88776780D01*
X137009699Y-88760334D01*
X136767170Y-88781587D01*
X136585160Y-88838814D01*
X136449651Y-88926175D01*
X136377150Y-89018002D01*
X136328701Y-89153193D01*
X136310188Y-89347739D01*
X136313119Y-89475478D01*
X136635052Y-89558933D01*
X137190195Y-89643761D01*
X137627390Y-89717522D01*
X137815701Y-89785936D01*
X137981297Y-89878967D01*
X138122408Y-90001901D01*
X138235310Y-90161800D01*
X138307687Y-90345978D01*
X138332274Y-90551367D01*
X138315584Y-90728386D01*
X138267320Y-90884368D01*
X138188067Y-91023537D01*
X138075575Y-91148785D01*
X137941610Y-91246302D01*
X137778636Y-91319084D01*
X137580716Y-91365756D01*
X137340404Y-91382526D01*
X137057671Y-91358185D01*
X136797941Y-91286782D01*
X136549733Y-91162885D01*
X136272086Y-90958764D01*
X136235307Y-91156806D01*
X136173656Y-91320000D01*
X135660013Y-91320000D01*
X135737758Y-91148732D01*
X135784333Y-90971465D01*
X135805152Y-90728013D01*
X135815596Y-90102937D01*
X135815596Y-90039434D01*
X136313119Y-90039434D01*
X136336005Y-90344604D01*
X136392254Y-90533293D01*
X136473946Y-90666785D01*
X136581331Y-90780017D01*
X136717341Y-90874745D01*
X136869255Y-90943182D01*
X137036709Y-90985097D01*
X137222923Y-90999553D01*
X137409995Y-90982824D01*
X137551882Y-90937527D01*
X137658897Y-90867906D01*
X137742051Y-90772036D01*
X137790928Y-90663831D01*
X137807641Y-90538911D01*
X137790501Y-90415640D01*
X137739497Y-90304682D01*
X137657812Y-90212741D01*
X137545324Y-90144459D01*
X137396487Y-90097293D01*
X137116434Y-90045540D01*
X136615951Y-89952729D01*
X136313119Y-89858450D01*
X136313119Y-90039434D01*
X135815596Y-90039434D01*
X135815596Y-89446657D01*
X135823260Y-89143635D01*
X135840265Y-88992609D01*
X135902199Y-88803894D01*
X135993405Y-88657752D01*
X136125217Y-88541742D01*
X136334856Y-88437690D01*
X136585929Y-88374329D01*
X136938625Y-88350006D01*
X137299426Y-88377383D01*
G37*
G36*
X135065771Y-91320000D02*
G01*
X135065771Y-87302693D01*
X134574110Y-87302693D01*
X134574110Y-91320000D01*
X135065771Y-91320000D01*
G37*
G36*
X133834054Y-92433991D02*
G01*
X133888764Y-91983607D01*
X133731710Y-92017329D01*
X133607397Y-92027327D01*
X133453367Y-92012008D01*
X133345080Y-91971639D01*
X133256019Y-91905217D01*
X133183879Y-91815568D01*
X133134084Y-91711987D01*
X133033426Y-91442609D01*
X132989706Y-91320000D01*
X134090997Y-88412533D01*
X133560746Y-88412533D01*
X132956978Y-90093168D01*
X132846571Y-90418168D01*
X132746685Y-90765324D01*
X132653547Y-90429923D01*
X132544452Y-90103914D01*
X131924075Y-88412533D01*
X131432170Y-88412533D01*
X132536147Y-91363719D01*
X132708861Y-91802826D01*
X132812142Y-92022442D01*
X132958792Y-92239972D01*
X133112805Y-92378792D01*
X133230329Y-92440846D01*
X133363854Y-92479055D01*
X133517027Y-92492365D01*
X133662018Y-92478740D01*
X133834054Y-92433991D01*
G37*
G36*
X131273656Y-91320000D02*
G01*
X131273656Y-90922616D01*
X129426692Y-88806496D01*
X129981367Y-88822861D01*
X131164480Y-88822861D01*
X131164480Y-88412533D01*
X128792637Y-88412533D01*
X128792637Y-88737620D01*
X130363852Y-90585317D01*
X130667201Y-90922616D01*
X130046824Y-90897948D01*
X128705198Y-90897948D01*
X128705198Y-91320000D01*
X131273656Y-91320000D01*
G37*
G36*
X127318643Y-88376658D02*
G01*
X127575199Y-88453330D01*
X127801643Y-88578357D01*
X128003000Y-88754473D01*
X128161478Y-88966024D01*
X128278774Y-89219920D01*
X128353434Y-89524627D01*
X128380111Y-89890935D01*
X128353841Y-90244286D01*
X128280215Y-90538807D01*
X128164273Y-90784863D01*
X128007152Y-90990516D01*
X127808830Y-91158894D01*
X127578946Y-91280314D01*
X127311318Y-91355920D01*
X126997452Y-91382526D01*
X126744962Y-91365649D01*
X126525586Y-91317603D01*
X126334244Y-91240982D01*
X126166782Y-91136573D01*
X125975711Y-90953935D01*
X125827460Y-90726150D01*
X125721284Y-90444877D01*
X126229553Y-90382107D01*
X126318578Y-90579044D01*
X126419988Y-90725773D01*
X126532903Y-90831514D01*
X126666568Y-90908524D01*
X126818991Y-90955752D01*
X126994766Y-90972198D01*
X127226331Y-90943448D01*
X127425959Y-90859941D01*
X127601465Y-90719651D01*
X127704595Y-90587233D01*
X127785079Y-90425642D01*
X127841869Y-90229330D01*
X127871842Y-89991318D01*
X125707850Y-89991318D01*
X125704919Y-89860160D01*
X125725217Y-89580990D01*
X126224180Y-89580990D01*
X127844487Y-89580990D01*
X127803152Y-89341662D01*
X127717659Y-89145501D01*
X127589009Y-88983817D01*
X127423774Y-88860014D01*
X127236221Y-88785895D01*
X127019434Y-88760334D01*
X126838082Y-88778422D01*
X126678904Y-88830757D01*
X126537237Y-88917010D01*
X126410048Y-89040237D01*
X126326746Y-89169167D01*
X126263270Y-89345097D01*
X126224180Y-89580990D01*
X125725217Y-89580990D01*
X125731042Y-89500873D01*
X125804132Y-89202138D01*
X125918926Y-88953346D01*
X126073970Y-88746168D01*
X126270978Y-88573356D01*
X126491594Y-88450928D01*
X126740592Y-88376006D01*
X127024808Y-88350006D01*
X127318643Y-88376658D01*
G37*
G36*
X125110921Y-91320000D02*
G01*
X125110921Y-88412533D01*
X124668353Y-88412533D01*
X124668353Y-88851437D01*
X124490852Y-88578995D01*
X124355478Y-88447704D01*
X124204581Y-88374369D01*
X124039916Y-88350006D01*
X123878021Y-88366503D01*
X123710509Y-88417600D01*
X123534333Y-88507543D01*
X123703593Y-88960858D01*
X123887443Y-88879806D01*
X124064340Y-88854124D01*
X124217369Y-88878430D01*
X124354012Y-88951332D01*
X124462689Y-89065424D01*
X124537194Y-89221221D01*
X124597918Y-89492126D01*
X124619016Y-89796657D01*
X124619016Y-91320000D01*
X125110921Y-91320000D01*
G37*
X157413220Y-131619819D02*
X157413220Y-130619819D01*
X156984649Y-131619819D02*
X156984649Y-131096009D01*
X156984649Y-131096009D02*
X157032268Y-131000771D01*
X157032268Y-131000771D02*
X157127506Y-130953152D01*
X157127506Y-130953152D02*
X157270363Y-130953152D01*
X157270363Y-130953152D02*
X157365601Y-131000771D01*
X157365601Y-131000771D02*
X157413220Y-131048390D01*
X156651315Y-130953152D02*
X156270363Y-130953152D01*
X156508458Y-130619819D02*
X156508458Y-131476961D01*
X156508458Y-131476961D02*
X156460839Y-131572200D01*
X156460839Y-131572200D02*
X156365601Y-131619819D01*
X156365601Y-131619819D02*
X156270363Y-131619819D01*
X156079886Y-130953152D02*
X155698934Y-130953152D01*
X155937029Y-130619819D02*
X155937029Y-131476961D01*
X155937029Y-131476961D02*
X155889410Y-131572200D01*
X155889410Y-131572200D02*
X155794172Y-131619819D01*
X155794172Y-131619819D02*
X155698934Y-131619819D01*
X155365600Y-130953152D02*
X155365600Y-131953152D01*
X155365600Y-131000771D02*
X155270362Y-130953152D01*
X155270362Y-130953152D02*
X155079886Y-130953152D01*
X155079886Y-130953152D02*
X154984648Y-131000771D01*
X154984648Y-131000771D02*
X154937029Y-131048390D01*
X154937029Y-131048390D02*
X154889410Y-131143628D01*
X154889410Y-131143628D02*
X154889410Y-131429342D01*
X154889410Y-131429342D02*
X154937029Y-131524580D01*
X154937029Y-131524580D02*
X154984648Y-131572200D01*
X154984648Y-131572200D02*
X155079886Y-131619819D01*
X155079886Y-131619819D02*
X155270362Y-131619819D01*
X155270362Y-131619819D02*
X155365600Y-131572200D01*
X154508457Y-131572200D02*
X154413219Y-131619819D01*
X154413219Y-131619819D02*
X154222743Y-131619819D01*
X154222743Y-131619819D02*
X154127505Y-131572200D01*
X154127505Y-131572200D02*
X154079886Y-131476961D01*
X154079886Y-131476961D02*
X154079886Y-131429342D01*
X154079886Y-131429342D02*
X154127505Y-131334104D01*
X154127505Y-131334104D02*
X154222743Y-131286485D01*
X154222743Y-131286485D02*
X154365600Y-131286485D01*
X154365600Y-131286485D02*
X154460838Y-131238866D01*
X154460838Y-131238866D02*
X154508457Y-131143628D01*
X154508457Y-131143628D02*
X154508457Y-131096009D01*
X154508457Y-131096009D02*
X154460838Y-131000771D01*
X154460838Y-131000771D02*
X154365600Y-130953152D01*
X154365600Y-130953152D02*
X154222743Y-130953152D01*
X154222743Y-130953152D02*
X154127505Y-131000771D01*
X153651314Y-131524580D02*
X153603695Y-131572200D01*
X153603695Y-131572200D02*
X153651314Y-131619819D01*
X153651314Y-131619819D02*
X153698933Y-131572200D01*
X153698933Y-131572200D02*
X153651314Y-131524580D01*
X153651314Y-131524580D02*
X153651314Y-131619819D01*
X153651314Y-131000771D02*
X153603695Y-131048390D01*
X153603695Y-131048390D02*
X153651314Y-131096009D01*
X153651314Y-131096009D02*
X153698933Y-131048390D01*
X153698933Y-131048390D02*
X153651314Y-131000771D01*
X153651314Y-131000771D02*
X153651314Y-131096009D01*
X152460839Y-130572200D02*
X153317981Y-131857914D01*
X151413220Y-130572200D02*
X152270362Y-131857914D01*
X150651315Y-130953152D02*
X150651315Y-131762676D01*
X150651315Y-131762676D02*
X150698934Y-131857914D01*
X150698934Y-131857914D02*
X150746553Y-131905533D01*
X150746553Y-131905533D02*
X150841791Y-131953152D01*
X150841791Y-131953152D02*
X150984648Y-131953152D01*
X150984648Y-131953152D02*
X151079886Y-131905533D01*
X150651315Y-131572200D02*
X150746553Y-131619819D01*
X150746553Y-131619819D02*
X150937029Y-131619819D01*
X150937029Y-131619819D02*
X151032267Y-131572200D01*
X151032267Y-131572200D02*
X151079886Y-131524580D01*
X151079886Y-131524580D02*
X151127505Y-131429342D01*
X151127505Y-131429342D02*
X151127505Y-131143628D01*
X151127505Y-131143628D02*
X151079886Y-131048390D01*
X151079886Y-131048390D02*
X151032267Y-131000771D01*
X151032267Y-131000771D02*
X150937029Y-130953152D01*
X150937029Y-130953152D02*
X150746553Y-130953152D01*
X150746553Y-130953152D02*
X150651315Y-131000771D01*
X150175124Y-131619819D02*
X150175124Y-130953152D01*
X150175124Y-130619819D02*
X150222743Y-130667438D01*
X150222743Y-130667438D02*
X150175124Y-130715057D01*
X150175124Y-130715057D02*
X150127505Y-130667438D01*
X150127505Y-130667438D02*
X150175124Y-130619819D01*
X150175124Y-130619819D02*
X150175124Y-130715057D01*
X149841791Y-130953152D02*
X149460839Y-130953152D01*
X149698934Y-130619819D02*
X149698934Y-131476961D01*
X149698934Y-131476961D02*
X149651315Y-131572200D01*
X149651315Y-131572200D02*
X149556077Y-131619819D01*
X149556077Y-131619819D02*
X149460839Y-131619819D01*
X149127505Y-131619819D02*
X149127505Y-130619819D01*
X148698934Y-131619819D02*
X148698934Y-131096009D01*
X148698934Y-131096009D02*
X148746553Y-131000771D01*
X148746553Y-131000771D02*
X148841791Y-130953152D01*
X148841791Y-130953152D02*
X148984648Y-130953152D01*
X148984648Y-130953152D02*
X149079886Y-131000771D01*
X149079886Y-131000771D02*
X149127505Y-131048390D01*
X147794172Y-130953152D02*
X147794172Y-131619819D01*
X148222743Y-130953152D02*
X148222743Y-131476961D01*
X148222743Y-131476961D02*
X148175124Y-131572200D01*
X148175124Y-131572200D02*
X148079886Y-131619819D01*
X148079886Y-131619819D02*
X147937029Y-131619819D01*
X147937029Y-131619819D02*
X147841791Y-131572200D01*
X147841791Y-131572200D02*
X147794172Y-131524580D01*
X147317981Y-131619819D02*
X147317981Y-130619819D01*
X147317981Y-131000771D02*
X147222743Y-130953152D01*
X147222743Y-130953152D02*
X147032267Y-130953152D01*
X147032267Y-130953152D02*
X146937029Y-131000771D01*
X146937029Y-131000771D02*
X146889410Y-131048390D01*
X146889410Y-131048390D02*
X146841791Y-131143628D01*
X146841791Y-131143628D02*
X146841791Y-131429342D01*
X146841791Y-131429342D02*
X146889410Y-131524580D01*
X146889410Y-131524580D02*
X146937029Y-131572200D01*
X146937029Y-131572200D02*
X147032267Y-131619819D01*
X147032267Y-131619819D02*
X147222743Y-131619819D01*
X147222743Y-131619819D02*
X147317981Y-131572200D01*
X146413219Y-131524580D02*
X146365600Y-131572200D01*
X146365600Y-131572200D02*
X146413219Y-131619819D01*
X146413219Y-131619819D02*
X146460838Y-131572200D01*
X146460838Y-131572200D02*
X146413219Y-131524580D01*
X146413219Y-131524580D02*
X146413219Y-131619819D01*
X145508458Y-131572200D02*
X145603696Y-131619819D01*
X145603696Y-131619819D02*
X145794172Y-131619819D01*
X145794172Y-131619819D02*
X145889410Y-131572200D01*
X145889410Y-131572200D02*
X145937029Y-131524580D01*
X145937029Y-131524580D02*
X145984648Y-131429342D01*
X145984648Y-131429342D02*
X145984648Y-131143628D01*
X145984648Y-131143628D02*
X145937029Y-131048390D01*
X145937029Y-131048390D02*
X145889410Y-131000771D01*
X145889410Y-131000771D02*
X145794172Y-130953152D01*
X145794172Y-130953152D02*
X145603696Y-130953152D01*
X145603696Y-130953152D02*
X145508458Y-131000771D01*
X144937029Y-131619819D02*
X145032267Y-131572200D01*
X145032267Y-131572200D02*
X145079886Y-131524580D01*
X145079886Y-131524580D02*
X145127505Y-131429342D01*
X145127505Y-131429342D02*
X145127505Y-131143628D01*
X145127505Y-131143628D02*
X145079886Y-131048390D01*
X145079886Y-131048390D02*
X145032267Y-131000771D01*
X145032267Y-131000771D02*
X144937029Y-130953152D01*
X144937029Y-130953152D02*
X144794172Y-130953152D01*
X144794172Y-130953152D02*
X144698934Y-131000771D01*
X144698934Y-131000771D02*
X144651315Y-131048390D01*
X144651315Y-131048390D02*
X144603696Y-131143628D01*
X144603696Y-131143628D02*
X144603696Y-131429342D01*
X144603696Y-131429342D02*
X144651315Y-131524580D01*
X144651315Y-131524580D02*
X144698934Y-131572200D01*
X144698934Y-131572200D02*
X144794172Y-131619819D01*
X144794172Y-131619819D02*
X144937029Y-131619819D01*
X144175124Y-131619819D02*
X144175124Y-130953152D01*
X144175124Y-131048390D02*
X144127505Y-131000771D01*
X144127505Y-131000771D02*
X144032267Y-130953152D01*
X144032267Y-130953152D02*
X143889410Y-130953152D01*
X143889410Y-130953152D02*
X143794172Y-131000771D01*
X143794172Y-131000771D02*
X143746553Y-131096009D01*
X143746553Y-131096009D02*
X143746553Y-131619819D01*
X143746553Y-131096009D02*
X143698934Y-131000771D01*
X143698934Y-131000771D02*
X143603696Y-130953152D01*
X143603696Y-130953152D02*
X143460839Y-130953152D01*
X143460839Y-130953152D02*
X143365600Y-131000771D01*
X143365600Y-131000771D02*
X143317981Y-131096009D01*
X143317981Y-131096009D02*
X143317981Y-131619819D01*
X142127506Y-130572200D02*
X142984648Y-131857914D01*
X141365601Y-130953152D02*
X141365601Y-131762676D01*
X141365601Y-131762676D02*
X141413220Y-131857914D01*
X141413220Y-131857914D02*
X141460839Y-131905533D01*
X141460839Y-131905533D02*
X141556077Y-131953152D01*
X141556077Y-131953152D02*
X141698934Y-131953152D01*
X141698934Y-131953152D02*
X141794172Y-131905533D01*
X141365601Y-131572200D02*
X141460839Y-131619819D01*
X141460839Y-131619819D02*
X141651315Y-131619819D01*
X141651315Y-131619819D02*
X141746553Y-131572200D01*
X141746553Y-131572200D02*
X141794172Y-131524580D01*
X141794172Y-131524580D02*
X141841791Y-131429342D01*
X141841791Y-131429342D02*
X141841791Y-131143628D01*
X141841791Y-131143628D02*
X141794172Y-131048390D01*
X141794172Y-131048390D02*
X141746553Y-131000771D01*
X141746553Y-131000771D02*
X141651315Y-130953152D01*
X141651315Y-130953152D02*
X141460839Y-130953152D01*
X141460839Y-130953152D02*
X141365601Y-131000771D01*
X140460839Y-130953152D02*
X140460839Y-131619819D01*
X140889410Y-130953152D02*
X140889410Y-131476961D01*
X140889410Y-131476961D02*
X140841791Y-131572200D01*
X140841791Y-131572200D02*
X140746553Y-131619819D01*
X140746553Y-131619819D02*
X140603696Y-131619819D01*
X140603696Y-131619819D02*
X140508458Y-131572200D01*
X140508458Y-131572200D02*
X140460839Y-131524580D01*
X140032267Y-131572200D02*
X139937029Y-131619819D01*
X139937029Y-131619819D02*
X139746553Y-131619819D01*
X139746553Y-131619819D02*
X139651315Y-131572200D01*
X139651315Y-131572200D02*
X139603696Y-131476961D01*
X139603696Y-131476961D02*
X139603696Y-131429342D01*
X139603696Y-131429342D02*
X139651315Y-131334104D01*
X139651315Y-131334104D02*
X139746553Y-131286485D01*
X139746553Y-131286485D02*
X139889410Y-131286485D01*
X139889410Y-131286485D02*
X139984648Y-131238866D01*
X139984648Y-131238866D02*
X140032267Y-131143628D01*
X140032267Y-131143628D02*
X140032267Y-131096009D01*
X140032267Y-131096009D02*
X139984648Y-131000771D01*
X139984648Y-131000771D02*
X139889410Y-130953152D01*
X139889410Y-130953152D02*
X139746553Y-130953152D01*
X139746553Y-130953152D02*
X139651315Y-131000771D01*
X139175124Y-131619819D02*
X139175124Y-130953152D01*
X139175124Y-131048390D02*
X139127505Y-131000771D01*
X139127505Y-131000771D02*
X139032267Y-130953152D01*
X139032267Y-130953152D02*
X138889410Y-130953152D01*
X138889410Y-130953152D02*
X138794172Y-131000771D01*
X138794172Y-131000771D02*
X138746553Y-131096009D01*
X138746553Y-131096009D02*
X138746553Y-131619819D01*
X138746553Y-131096009D02*
X138698934Y-131000771D01*
X138698934Y-131000771D02*
X138603696Y-130953152D01*
X138603696Y-130953152D02*
X138460839Y-130953152D01*
X138460839Y-130953152D02*
X138365600Y-131000771D01*
X138365600Y-131000771D02*
X138317981Y-131096009D01*
X138317981Y-131096009D02*
X138317981Y-131619819D01*
X137413220Y-131619819D02*
X137413220Y-131096009D01*
X137413220Y-131096009D02*
X137460839Y-131000771D01*
X137460839Y-131000771D02*
X137556077Y-130953152D01*
X137556077Y-130953152D02*
X137746553Y-130953152D01*
X137746553Y-130953152D02*
X137841791Y-131000771D01*
X137413220Y-131572200D02*
X137508458Y-131619819D01*
X137508458Y-131619819D02*
X137746553Y-131619819D01*
X137746553Y-131619819D02*
X137841791Y-131572200D01*
X137841791Y-131572200D02*
X137889410Y-131476961D01*
X137889410Y-131476961D02*
X137889410Y-131381723D01*
X137889410Y-131381723D02*
X137841791Y-131286485D01*
X137841791Y-131286485D02*
X137746553Y-131238866D01*
X137746553Y-131238866D02*
X137508458Y-131238866D01*
X137508458Y-131238866D02*
X137413220Y-131191247D01*
X136937029Y-130953152D02*
X136937029Y-131619819D01*
X136937029Y-131048390D02*
X136889410Y-131000771D01*
X136889410Y-131000771D02*
X136794172Y-130953152D01*
X136794172Y-130953152D02*
X136651315Y-130953152D01*
X136651315Y-130953152D02*
X136556077Y-131000771D01*
X136556077Y-131000771D02*
X136508458Y-131096009D01*
X136508458Y-131096009D02*
X136508458Y-131619819D01*
X136032267Y-131619819D02*
X136032267Y-130619819D01*
X136032267Y-131000771D02*
X135937029Y-130953152D01*
X135937029Y-130953152D02*
X135746553Y-130953152D01*
X135746553Y-130953152D02*
X135651315Y-131000771D01*
X135651315Y-131000771D02*
X135603696Y-131048390D01*
X135603696Y-131048390D02*
X135556077Y-131143628D01*
X135556077Y-131143628D02*
X135556077Y-131429342D01*
X135556077Y-131429342D02*
X135603696Y-131524580D01*
X135603696Y-131524580D02*
X135651315Y-131572200D01*
X135651315Y-131572200D02*
X135746553Y-131619819D01*
X135746553Y-131619819D02*
X135937029Y-131619819D01*
X135937029Y-131619819D02*
X136032267Y-131572200D01*
X134413220Y-130572200D02*
X135270362Y-131857914D01*
X133937029Y-131619819D02*
X134032267Y-131572200D01*
X134032267Y-131572200D02*
X134079886Y-131476961D01*
X134079886Y-131476961D02*
X134079886Y-130619819D01*
X133413219Y-131619819D02*
X133508457Y-131572200D01*
X133508457Y-131572200D02*
X133556076Y-131524580D01*
X133556076Y-131524580D02*
X133603695Y-131429342D01*
X133603695Y-131429342D02*
X133603695Y-131143628D01*
X133603695Y-131143628D02*
X133556076Y-131048390D01*
X133556076Y-131048390D02*
X133508457Y-131000771D01*
X133508457Y-131000771D02*
X133413219Y-130953152D01*
X133413219Y-130953152D02*
X133270362Y-130953152D01*
X133270362Y-130953152D02*
X133175124Y-131000771D01*
X133175124Y-131000771D02*
X133127505Y-131048390D01*
X133127505Y-131048390D02*
X133079886Y-131143628D01*
X133079886Y-131143628D02*
X133079886Y-131429342D01*
X133079886Y-131429342D02*
X133127505Y-131524580D01*
X133127505Y-131524580D02*
X133175124Y-131572200D01*
X133175124Y-131572200D02*
X133270362Y-131619819D01*
X133270362Y-131619819D02*
X133413219Y-131619819D01*
X132222743Y-130953152D02*
X132222743Y-131762676D01*
X132222743Y-131762676D02*
X132270362Y-131857914D01*
X132270362Y-131857914D02*
X132317981Y-131905533D01*
X132317981Y-131905533D02*
X132413219Y-131953152D01*
X132413219Y-131953152D02*
X132556076Y-131953152D01*
X132556076Y-131953152D02*
X132651314Y-131905533D01*
X132222743Y-131572200D02*
X132317981Y-131619819D01*
X132317981Y-131619819D02*
X132508457Y-131619819D01*
X132508457Y-131619819D02*
X132603695Y-131572200D01*
X132603695Y-131572200D02*
X132651314Y-131524580D01*
X132651314Y-131524580D02*
X132698933Y-131429342D01*
X132698933Y-131429342D02*
X132698933Y-131143628D01*
X132698933Y-131143628D02*
X132651314Y-131048390D01*
X132651314Y-131048390D02*
X132603695Y-131000771D01*
X132603695Y-131000771D02*
X132508457Y-130953152D01*
X132508457Y-130953152D02*
X132317981Y-130953152D01*
X132317981Y-130953152D02*
X132222743Y-131000771D01*
X131746552Y-131619819D02*
X131746552Y-130953152D01*
X131746552Y-130619819D02*
X131794171Y-130667438D01*
X131794171Y-130667438D02*
X131746552Y-130715057D01*
X131746552Y-130715057D02*
X131698933Y-130667438D01*
X131698933Y-130667438D02*
X131746552Y-130619819D01*
X131746552Y-130619819D02*
X131746552Y-130715057D01*
X130841791Y-131572200D02*
X130937029Y-131619819D01*
X130937029Y-131619819D02*
X131127505Y-131619819D01*
X131127505Y-131619819D02*
X131222743Y-131572200D01*
X131222743Y-131572200D02*
X131270362Y-131524580D01*
X131270362Y-131524580D02*
X131317981Y-131429342D01*
X131317981Y-131429342D02*
X131317981Y-131143628D01*
X131317981Y-131143628D02*
X131270362Y-131048390D01*
X131270362Y-131048390D02*
X131222743Y-131000771D01*
X131222743Y-131000771D02*
X131127505Y-130953152D01*
X131127505Y-130953152D02*
X130937029Y-130953152D01*
X130937029Y-130953152D02*
X130841791Y-131000771D01*
X129984648Y-131619819D02*
X129984648Y-131096009D01*
X129984648Y-131096009D02*
X130032267Y-131000771D01*
X130032267Y-131000771D02*
X130127505Y-130953152D01*
X130127505Y-130953152D02*
X130317981Y-130953152D01*
X130317981Y-130953152D02*
X130413219Y-131000771D01*
X129984648Y-131572200D02*
X130079886Y-131619819D01*
X130079886Y-131619819D02*
X130317981Y-131619819D01*
X130317981Y-131619819D02*
X130413219Y-131572200D01*
X130413219Y-131572200D02*
X130460838Y-131476961D01*
X130460838Y-131476961D02*
X130460838Y-131381723D01*
X130460838Y-131381723D02*
X130413219Y-131286485D01*
X130413219Y-131286485D02*
X130317981Y-131238866D01*
X130317981Y-131238866D02*
X130079886Y-131238866D01*
X130079886Y-131238866D02*
X129984648Y-131191247D01*
X129508457Y-130953152D02*
X129508457Y-131619819D01*
X129508457Y-131048390D02*
X129460838Y-131000771D01*
X129460838Y-131000771D02*
X129365600Y-130953152D01*
X129365600Y-130953152D02*
X129222743Y-130953152D01*
X129222743Y-130953152D02*
X129127505Y-131000771D01*
X129127505Y-131000771D02*
X129079886Y-131096009D01*
X129079886Y-131096009D02*
X129079886Y-131619819D01*
X128175124Y-131619819D02*
X128175124Y-131096009D01*
X128175124Y-131096009D02*
X128222743Y-131000771D01*
X128222743Y-131000771D02*
X128317981Y-130953152D01*
X128317981Y-130953152D02*
X128508457Y-130953152D01*
X128508457Y-130953152D02*
X128603695Y-131000771D01*
X128175124Y-131572200D02*
X128270362Y-131619819D01*
X128270362Y-131619819D02*
X128508457Y-131619819D01*
X128508457Y-131619819D02*
X128603695Y-131572200D01*
X128603695Y-131572200D02*
X128651314Y-131476961D01*
X128651314Y-131476961D02*
X128651314Y-131381723D01*
X128651314Y-131381723D02*
X128603695Y-131286485D01*
X128603695Y-131286485D02*
X128508457Y-131238866D01*
X128508457Y-131238866D02*
X128270362Y-131238866D01*
X128270362Y-131238866D02*
X128175124Y-131191247D01*
X127556076Y-131619819D02*
X127651314Y-131572200D01*
X127651314Y-131572200D02*
X127698933Y-131476961D01*
X127698933Y-131476961D02*
X127698933Y-130619819D01*
X127270361Y-130953152D02*
X127032266Y-131619819D01*
X126794171Y-130953152D02*
X127032266Y-131619819D01*
X127032266Y-131619819D02*
X127127504Y-131857914D01*
X127127504Y-131857914D02*
X127175123Y-131905533D01*
X127175123Y-131905533D02*
X127270361Y-131953152D01*
X126508456Y-130953152D02*
X125984647Y-130953152D01*
X125984647Y-130953152D02*
X126508456Y-131619819D01*
X126508456Y-131619819D02*
X125984647Y-131619819D01*
X125222742Y-131572200D02*
X125317980Y-131619819D01*
X125317980Y-131619819D02*
X125508456Y-131619819D01*
X125508456Y-131619819D02*
X125603694Y-131572200D01*
X125603694Y-131572200D02*
X125651313Y-131476961D01*
X125651313Y-131476961D02*
X125651313Y-131096009D01*
X125651313Y-131096009D02*
X125603694Y-131000771D01*
X125603694Y-131000771D02*
X125508456Y-130953152D01*
X125508456Y-130953152D02*
X125317980Y-130953152D01*
X125317980Y-130953152D02*
X125222742Y-131000771D01*
X125222742Y-131000771D02*
X125175123Y-131096009D01*
X125175123Y-131096009D02*
X125175123Y-131191247D01*
X125175123Y-131191247D02*
X125651313Y-131286485D01*
X124746551Y-131619819D02*
X124746551Y-130953152D01*
X124746551Y-131143628D02*
X124698932Y-131048390D01*
X124698932Y-131048390D02*
X124651313Y-131000771D01*
X124651313Y-131000771D02*
X124556075Y-130953152D01*
X124556075Y-130953152D02*
X124460837Y-130953152D01*
%LPC*%
D11*
X118507941Y-131500949D03*
D12*
X115967941Y-131500949D03*
X118507941Y-128960949D03*
X115967941Y-128960949D03*
X118507941Y-126420949D03*
X115967941Y-126420949D03*
X118507941Y-123880949D03*
X115967941Y-123880949D03*
X118507941Y-121340949D03*
X115967941Y-121340949D03*
X118507941Y-118800949D03*
X115967941Y-118800949D03*
X118507941Y-116260949D03*
X115967941Y-116260949D03*
X118507941Y-113720949D03*
X115967941Y-113720949D03*
X118507941Y-111180949D03*
X115967941Y-111180949D03*
X118507941Y-108640949D03*
X115967941Y-108640949D03*
X118507941Y-106100949D03*
X115967941Y-106100949D03*
X118507941Y-103560949D03*
X115967941Y-103560949D03*
X118507941Y-101020949D03*
X115967941Y-101020949D03*
X118507941Y-98480949D03*
X115967941Y-98480949D03*
X118507941Y-95940949D03*
X115967941Y-95940949D03*
X118507941Y-93400949D03*
X115967941Y-93400949D03*
D13*
X163500000Y-136500000D03*
D14*
X147513675Y-81197450D03*
X147513675Y-83737450D03*
D15*
X147513675Y-86277450D03*
D14*
X147513675Y-88817450D03*
X147513675Y-91357450D03*
X147513675Y-93897450D03*
X147513675Y-96437450D03*
D15*
X147513675Y-98977450D03*
D14*
X147513675Y-101517450D03*
X147513675Y-104057450D03*
X147513675Y-106597450D03*
X147513675Y-109137450D03*
D15*
X147513675Y-111677450D03*
D14*
X147513675Y-114217450D03*
X147513675Y-116757450D03*
X147513675Y-119297450D03*
X147513675Y-121837450D03*
D15*
X147513675Y-124377450D03*
D14*
X147513675Y-126917450D03*
X147513675Y-129457450D03*
X165293675Y-129457450D03*
X165293675Y-126917450D03*
D15*
X165293675Y-124377450D03*
D14*
X165293675Y-121837450D03*
X165293675Y-119297450D03*
X165293675Y-116757450D03*
X165293675Y-114217450D03*
D15*
X165293675Y-111677450D03*
D14*
X165293675Y-109137450D03*
X165293675Y-106597450D03*
X165293675Y-104057450D03*
X165293675Y-101517450D03*
D15*
X165293675Y-98977450D03*
D14*
X165293675Y-96437450D03*
X165293675Y-93897450D03*
X165293675Y-91357450D03*
X165293675Y-88817450D03*
D15*
X165293675Y-86277450D03*
D14*
X165293675Y-83737450D03*
X165293675Y-81197450D03*
D16*
X156887775Y-110877450D03*
D17*
X156887775Y-111677450D03*
D16*
X159427775Y-110877450D03*
D17*
X159427775Y-111677450D03*
D16*
X161967775Y-110877450D03*
D17*
X161967775Y-111677450D03*
D16*
X156428675Y-83827450D03*
X157428675Y-80527450D03*
X155428675Y-80527450D03*
D18*
X153128675Y-88827450D03*
D16*
X153928675Y-88827450D03*
D18*
X153128675Y-91327450D03*
D16*
X153928675Y-91327450D03*
D18*
X153128675Y-93827450D03*
D16*
X153928675Y-93827450D03*
D19*
X131991100Y-79181325D03*
X129451100Y-79181325D03*
X126911100Y-79181325D03*
D20*
X116500000Y-136500000D03*
D21*
X132045075Y-136727450D03*
D22*
X129505075Y-136727450D03*
X126965075Y-136727450D03*
D20*
X121000000Y-80000000D03*
D23*
X114635033Y-79279627D03*
X114635033Y-83279627D03*
X114635033Y-85279627D03*
X114635033Y-87279627D03*
D24*
X114635033Y-89629627D03*
X114635033Y-76929627D03*
%LPD*%
M02*
