M48
METRIC
T1C0.254
T2C0.300
T3C0.600
T4C0.800
T5C1.000
T6C1.020
T7C1.100
T8C1.200
T9C2.700
%
G90
G05
T1
X131.442Y-114.094
T2
X120.694Y-107.067
X121.983Y-90.103
X122.892Y-129.572
X123.311Y-127.899
X123.485Y-113.001
X123.66Y-136.9
X124.033Y-98.484
X124.498Y-134.458
X124.616Y-116.332
X124.816Y-90.341
X124.851Y-108.163
X124.93Y-126.108
X125.193Y-123.746
X125.622Y-96.534
X125.676Y-95.263
X125.746Y-131.759
X125.781Y-112.76
X125.781Y-114.033
X125.781Y-130.502
X128.241Y-95.884
X128.254Y-114.71
X128.262Y-113.41
X128.362Y-97.184
X128.502Y-131.166
X128.534Y-132.439
X128.534Y-133.69
X129.226Y-90.202
X129.626Y-139.027
X129.8Y-122.072
X131.306Y-112.744
X131.323Y-96.564
X131.337Y-95.301
X131.502Y-131.201
X131.556Y-129.889
X132.039Y-82.007
X132.982Y-125.381
X133.393Y-82.542
X133.979Y-97.184
X133.998Y-95.904
X134.014Y-113.37
X134.026Y-130.489
X134.048Y-114.732
X134.271Y-133.561
X134.442Y-136.865
X136.43Y-125.457
X136.731Y-115.808
X137.027Y-99.282
X137.849Y-107.086
X137.96Y-97.777
X138.313Y-92.45
X139.614Y-99.317
X140.214Y-96.803
X149.549Y-115.862
X149.758Y-120.78
X149.927Y-108.474
X150.308Y-84.696
X153.206Y-120.799
X155.34Y-119.212
X157.153Y-120.885
X161.211Y-116.799
X161.211Y-119.288
X161.62Y-121.129
X161.988Y-93.77
X162.782Y-84.69
X163.319Y-99.311
X163.614Y-113.125
T4
X114.635Y-79.28
X114.635Y-83.28
X114.635Y-85.28
X114.635Y-87.28
T5
X152.329Y-88.827
X152.329Y-91.327
X152.329Y-93.827
X153.929Y-88.827
X153.929Y-91.327
X153.929Y-93.827
X155.429Y-80.527
X156.429Y-83.827
X156.888Y-110.877
X156.888Y-112.477
X157.429Y-80.527
X159.428Y-110.877
X159.428Y-112.477
X161.968Y-110.877
X161.968Y-112.477
T6
X147.514Y-81.197
X147.514Y-83.737
X147.514Y-86.277
X147.514Y-88.817
X147.514Y-91.357
X147.514Y-93.897
X147.514Y-96.437
X147.514Y-98.977
X147.514Y-101.517
X147.514Y-104.057
X147.514Y-106.597
X147.514Y-109.137
X147.514Y-111.677
X147.514Y-114.217
X147.514Y-116.757
X147.514Y-119.297
X147.514Y-121.837
X147.514Y-124.377
X147.514Y-126.917
X147.514Y-129.457
X165.294Y-81.197
X165.294Y-83.737
X165.294Y-86.277
X165.294Y-88.817
X165.294Y-91.357
X165.294Y-93.897
X165.294Y-96.437
X165.294Y-98.977
X165.294Y-101.517
X165.294Y-104.057
X165.294Y-106.597
X165.294Y-109.137
X165.294Y-111.677
X165.294Y-114.217
X165.294Y-116.757
X165.294Y-119.297
X165.294Y-121.837
X165.294Y-124.377
X165.294Y-126.917
X165.294Y-129.457
T7
X126.911Y-79.181
X126.965Y-136.727
X129.451Y-79.181
X129.505Y-136.727
X131.991Y-79.181
X132.045Y-136.727
T8
X115.968Y-93.401
X115.968Y-95.941
X115.968Y-98.481
X115.968Y-101.021
X115.968Y-103.561
X115.968Y-106.101
X115.968Y-108.641
X115.968Y-111.181
X115.968Y-113.721
X115.968Y-116.261
X115.968Y-118.801
X115.968Y-121.341
X115.968Y-123.881
X115.968Y-126.421
X115.968Y-128.961
X115.968Y-131.501
X118.508Y-93.401
X118.508Y-95.941
X118.508Y-98.481
X118.508Y-101.021
X118.508Y-103.561
X118.508Y-106.101
X118.508Y-108.641
X118.508Y-111.181
X118.508Y-113.721
X118.508Y-116.261
X118.508Y-118.801
X118.508Y-121.341
X118.508Y-123.881
X118.508Y-126.421
X118.508Y-128.961
X118.508Y-131.501
T9
X116.5Y-136.5
X121.0Y-80.0
T3
X115.085Y-76.93G85X114.185Y-76.93
G05
X115.085Y-89.63G85X114.185Y-89.63
G05
M30
