G04 #@! TF.GenerationSoftware,KiCad,Pcbnew,9.0.5*
G04 #@! TF.CreationDate,2025-12-02T14:35:45+00:00*
G04 #@! TF.ProjectId,jitx-design,6a697478-2d64-4657-9369-676e2e6b6963,1.0*
G04 #@! TF.SameCoordinates,Original*
G04 #@! TF.FileFunction,Other,User*
%FSLAX46Y46*%
G04 Gerber Fmt 4.6, Leading zero omitted, Abs format (unit mm)*
G04 Created by KiCad (PCBNEW 9.0.5) date 2025-12-02 14:35:45*
%MOMM*%
%LPD*%
G01*
G04 APERTURE LIST*
%ADD10C,0.050000*%
%ADD11C,0.120000*%
G04 APERTURE END LIST*
D10*
X105641941Y-92003949D02*
X105641941Y-132897949D01*
X105641941Y-132897949D02*
X119558941Y-132897949D01*
X119558941Y-92003949D02*
X105641941Y-92003949D01*
X119558941Y-132897949D02*
X119558941Y-92003949D01*
X125826300Y-85043125D02*
X125826300Y-90312125D01*
X125826300Y-90312125D02*
X133228300Y-90312125D01*
X133228300Y-85043125D02*
X125826300Y-85043125D01*
X133228300Y-90312125D02*
X133228300Y-85043125D01*
X138581725Y-76658350D02*
X140481725Y-76658350D01*
X138581725Y-80358350D02*
X138581725Y-76658350D01*
X140481725Y-76658350D02*
X140481725Y-80358350D01*
X140481725Y-80358350D02*
X138581725Y-80358350D01*
X130041625Y-117486200D02*
X133801625Y-117486200D01*
X130041625Y-119446200D02*
X130041625Y-117486200D01*
X133801625Y-117486200D02*
X133801625Y-119446200D01*
X133801625Y-119446200D02*
X130041625Y-119446200D01*
X126048550Y-111417850D02*
X126048550Y-116686850D01*
X126048550Y-116686850D02*
X133450550Y-116686850D01*
X133450550Y-111417850D02*
X126048550Y-111417850D01*
X133450550Y-116686850D02*
X133450550Y-111417850D01*
X166100000Y-136500000D02*
G75*
G02*
X160900000Y-136500000I-2600000J0D01*
G01*
X160900000Y-136500000D02*
G75*
G02*
X166100000Y-136500000I2600000J0D01*
G01*
X125931075Y-93891850D02*
X125931075Y-99160850D01*
X125931075Y-99160850D02*
X133333075Y-99160850D01*
X133333075Y-93891850D02*
X125931075Y-93891850D01*
X133333075Y-99160850D02*
X133333075Y-93891850D01*
X125889800Y-102670725D02*
X125889800Y-107939725D01*
X125889800Y-107939725D02*
X133291800Y-107939725D01*
X133291800Y-102670725D02*
X125889800Y-102670725D01*
X133291800Y-107939725D02*
X133291800Y-102670725D01*
D11*
X145403675Y-79327450D02*
X167403675Y-79327450D01*
X145403675Y-131327450D02*
X145403675Y-79327450D01*
X167403675Y-79327450D02*
X167403675Y-131327450D01*
X167403675Y-131327450D02*
X145403675Y-131327450D01*
D10*
X125943050Y-126223200D02*
X129703050Y-126223200D01*
X125943050Y-128183200D02*
X125943050Y-126223200D01*
X129703050Y-126223200D02*
X129703050Y-128183200D01*
X129703050Y-128183200D02*
X125943050Y-128183200D01*
X126112050Y-120199900D02*
X126112050Y-125468900D01*
X126112050Y-125468900D02*
X133514050Y-125468900D01*
X133514050Y-120199900D02*
X126112050Y-120199900D01*
X133514050Y-125468900D02*
X133514050Y-120199900D01*
X129838425Y-91133700D02*
X133598425Y-91133700D01*
X129838425Y-93093700D02*
X129838425Y-91133700D01*
X133598425Y-91133700D02*
X133598425Y-93093700D01*
X133598425Y-93093700D02*
X129838425Y-93093700D01*
X125523600Y-82243700D02*
X129283600Y-82243700D01*
X125523600Y-84203700D02*
X125523600Y-82243700D01*
X129283600Y-82243700D02*
X129283600Y-84203700D01*
X129283600Y-84203700D02*
X125523600Y-84203700D01*
X129793975Y-82243700D02*
X133553975Y-82243700D01*
X129793975Y-84203700D02*
X129793975Y-82243700D01*
X133553975Y-82243700D02*
X133553975Y-84203700D01*
X133553975Y-84203700D02*
X129793975Y-84203700D01*
X125374100Y-69054325D02*
X125374100Y-80181325D01*
X125374100Y-80181325D02*
X133528100Y-80181325D01*
X133528100Y-69054325D02*
X125374100Y-69054325D01*
X133528100Y-80181325D02*
X133528100Y-69054325D01*
X119100000Y-136500000D02*
G75*
G02*
X113900000Y-136500000I-2600000J0D01*
G01*
X113900000Y-136500000D02*
G75*
G02*
X119100000Y-136500000I2600000J0D01*
G01*
X125790300Y-117486200D02*
X129550300Y-117486200D01*
X125790300Y-119446200D02*
X125790300Y-117486200D01*
X129550300Y-117486200D02*
X129550300Y-119446200D01*
X129550300Y-119446200D02*
X125790300Y-119446200D01*
X135413850Y-76621775D02*
X135413850Y-81223775D01*
X135413850Y-81223775D02*
X137267850Y-81223775D01*
X137267850Y-76621775D02*
X135413850Y-76621775D01*
X137267850Y-81223775D02*
X137267850Y-76621775D01*
X126014075Y-135776450D02*
X126014075Y-147014450D01*
X126014075Y-147014450D02*
X132996075Y-147014450D01*
X132996075Y-135776450D02*
X126014075Y-135776450D01*
X132996075Y-147014450D02*
X132996075Y-135776450D01*
X123600000Y-80000000D02*
G75*
G02*
X118400000Y-80000000I-2600000J0D01*
G01*
X118400000Y-80000000D02*
G75*
G02*
X123600000Y-80000000I2600000J0D01*
G01*
X138343600Y-80928600D02*
X140243600Y-80928600D01*
X138343600Y-84628600D02*
X138343600Y-80928600D01*
X140243600Y-80928600D02*
X140243600Y-84628600D01*
X140243600Y-84628600D02*
X138343600Y-84628600D01*
X125650600Y-99915750D02*
X129410600Y-99915750D01*
X125650600Y-101875750D02*
X125650600Y-99915750D01*
X129410600Y-99915750D02*
X129410600Y-101875750D01*
X129410600Y-101875750D02*
X125650600Y-101875750D01*
X126306250Y-129147250D02*
X126306250Y-134416250D01*
X126306250Y-134416250D02*
X133708250Y-134416250D01*
X133708250Y-129147250D02*
X126306250Y-129147250D01*
X133708250Y-134416250D02*
X133708250Y-129147250D01*
X109208033Y-76279627D02*
X109208033Y-90279627D01*
X109208033Y-90279627D02*
X117048033Y-90279627D01*
X117048033Y-76279627D02*
X109208033Y-76279627D01*
X117048033Y-90279627D02*
X117048033Y-76279627D01*
X125542650Y-91089250D02*
X129302650Y-91089250D01*
X125542650Y-93049250D02*
X125542650Y-91089250D01*
X129302650Y-91089250D02*
X129302650Y-93049250D01*
X129302650Y-93049250D02*
X125542650Y-93049250D01*
X125745850Y-108745425D02*
X129505850Y-108745425D01*
X125745850Y-110705425D02*
X125745850Y-108745425D01*
X129505850Y-108745425D02*
X129505850Y-110705425D01*
X129505850Y-110705425D02*
X125745850Y-110705425D01*
X130041625Y-108704150D02*
X133801625Y-108704150D01*
X130041625Y-110664150D02*
X130041625Y-108704150D01*
X133801625Y-108704150D02*
X133801625Y-110664150D01*
X133801625Y-110664150D02*
X130041625Y-110664150D01*
X129901925Y-99937975D02*
X133661925Y-99937975D01*
X129901925Y-101897975D02*
X129901925Y-99937975D01*
X133661925Y-99937975D02*
X133661925Y-101897975D01*
X133661925Y-101897975D02*
X129901925Y-101897975D01*
X130064200Y-126223200D02*
X133824200Y-126223200D01*
X130064200Y-128183200D02*
X130064200Y-126223200D01*
X133824200Y-126223200D02*
X133824200Y-128183200D01*
X133824200Y-128183200D02*
X130064200Y-128183200D01*
M02*
