G04 #@! TF.GenerationSoftware,KiCad,Pcbnew,9.0.5*
G04 #@! TF.CreationDate,2025-12-02T14:35:45+00:00*
G04 #@! TF.ProjectId,jitx-design,6a697478-2d64-4657-9369-676e2e6b6963,1.0*
G04 #@! TF.SameCoordinates,Original*
G04 #@! TF.FileFunction,Soldermask,Bot*
G04 #@! TF.FilePolarity,Negative*
%FSLAX46Y46*%
G04 Gerber Fmt 4.6, Leading zero omitted, Abs format (unit mm)*
G04 Created by KiCad (PCBNEW 9.0.5) date 2025-12-02 14:35:45*
%MOMM*%
%LPD*%
G01*
G04 APERTURE LIST*
G04 Aperture macros list*
%AMRoundRect*
0 Rectangle with rounded corners*
0 $1 Rounding radius*
0 $2 $3 $4 $5 $6 $7 $8 $9 X,Y pos of 4 corners*
0 Add a 4 corners polygon primitive as box body*
4,1,4,$2,$3,$4,$5,$6,$7,$8,$9,$2,$3,0*
0 Add four circle primitives for the rounded corners*
1,1,$1+$1,$2,$3*
1,1,$1+$1,$4,$5*
1,1,$1+$1,$6,$7*
1,1,$1+$1,$8,$9*
0 Add four rect primitives between the rounded corners*
20,1,$1+$1,$2,$3,$4,$5,0*
20,1,$1+$1,$4,$5,$6,$7,0*
20,1,$1+$1,$6,$7,$8,$9,0*
20,1,$1+$1,$8,$9,$2,$3,0*%
G04 Aperture macros list end*
%ADD10RoundRect,0.051000X1.000000X-1.000000X1.000000X1.000000X-1.000000X1.000000X-1.000000X-1.000000X0*%
%ADD11C,2.102000*%
%ADD12C,2.700000*%
%ADD13O,1.700000X1.700000*%
%ADD14R,1.700000X1.700000*%
%ADD15C,1.600000*%
%ADD16RoundRect,0.800000X-0.000010X-0.800000X0.000010X-0.800000X0.000010X0.800000X-0.000010X0.800000X0*%
%ADD17RoundRect,0.800000X-0.800000X-0.000010X0.800000X-0.000010X0.800000X0.000010X-0.800000X0.000010X0*%
%ADD18C,2.000000*%
%ADD19C,4.700000*%
%ADD20RoundRect,0.051000X0.900000X0.900000X-0.900000X0.900000X-0.900000X-0.900000X0.900000X-0.900000X0*%
%ADD21C,1.902000*%
%ADD22C,1.700000*%
%ADD23O,2.100000X1.300000*%
G04 APERTURE END LIST*
D10*
X118507941Y-131500949D03*
D11*
X115967941Y-131500949D03*
X118507941Y-128960949D03*
X115967941Y-128960949D03*
X118507941Y-126420949D03*
X115967941Y-126420949D03*
X118507941Y-123880949D03*
X115967941Y-123880949D03*
X118507941Y-121340949D03*
X115967941Y-121340949D03*
X118507941Y-118800949D03*
X115967941Y-118800949D03*
X118507941Y-116260949D03*
X115967941Y-116260949D03*
X118507941Y-113720949D03*
X115967941Y-113720949D03*
X118507941Y-111180949D03*
X115967941Y-111180949D03*
X118507941Y-108640949D03*
X115967941Y-108640949D03*
X118507941Y-106100949D03*
X115967941Y-106100949D03*
X118507941Y-103560949D03*
X115967941Y-103560949D03*
X118507941Y-101020949D03*
X115967941Y-101020949D03*
X118507941Y-98480949D03*
X115967941Y-98480949D03*
X118507941Y-95940949D03*
X115967941Y-95940949D03*
X118507941Y-93400949D03*
X115967941Y-93400949D03*
D12*
X163500000Y-136500000D03*
D13*
X147513675Y-81197450D03*
X147513675Y-83737450D03*
D14*
X147513675Y-86277450D03*
D13*
X147513675Y-88817450D03*
X147513675Y-91357450D03*
X147513675Y-93897450D03*
X147513675Y-96437450D03*
D14*
X147513675Y-98977450D03*
D13*
X147513675Y-101517450D03*
X147513675Y-104057450D03*
X147513675Y-106597450D03*
X147513675Y-109137450D03*
D14*
X147513675Y-111677450D03*
D13*
X147513675Y-114217450D03*
X147513675Y-116757450D03*
X147513675Y-119297450D03*
X147513675Y-121837450D03*
D14*
X147513675Y-124377450D03*
D13*
X147513675Y-126917450D03*
X147513675Y-129457450D03*
X165293675Y-129457450D03*
X165293675Y-126917450D03*
D14*
X165293675Y-124377450D03*
D13*
X165293675Y-121837450D03*
X165293675Y-119297450D03*
X165293675Y-116757450D03*
X165293675Y-114217450D03*
D14*
X165293675Y-111677450D03*
D13*
X165293675Y-109137450D03*
X165293675Y-106597450D03*
X165293675Y-104057450D03*
X165293675Y-101517450D03*
D14*
X165293675Y-98977450D03*
D13*
X165293675Y-96437450D03*
X165293675Y-93897450D03*
X165293675Y-91357450D03*
X165293675Y-88817450D03*
D14*
X165293675Y-86277450D03*
D13*
X165293675Y-83737450D03*
X165293675Y-81197450D03*
D15*
X156887775Y-110877450D03*
D16*
X156887775Y-111677450D03*
D15*
X159427775Y-110877450D03*
D16*
X159427775Y-111677450D03*
D15*
X161967775Y-110877450D03*
D16*
X161967775Y-111677450D03*
D15*
X156428675Y-83827450D03*
X157428675Y-80527450D03*
X155428675Y-80527450D03*
D17*
X153128675Y-88827450D03*
D15*
X153928675Y-88827450D03*
D17*
X153128675Y-91327450D03*
D15*
X153928675Y-91327450D03*
D17*
X153128675Y-93827450D03*
D15*
X153928675Y-93827450D03*
D18*
X131991100Y-79181325D03*
X129451100Y-79181325D03*
X126911100Y-79181325D03*
D19*
X116500000Y-136500000D03*
D20*
X132045075Y-136727450D03*
D21*
X129505075Y-136727450D03*
X126965075Y-136727450D03*
D19*
X121000000Y-80000000D03*
D22*
X114635033Y-79279627D03*
X114635033Y-83279627D03*
X114635033Y-85279627D03*
X114635033Y-87279627D03*
D23*
X114635033Y-89629627D03*
X114635033Y-76929627D03*
M02*
