G04 #@! TF.GenerationSoftware,KiCad,Pcbnew,9.0.5*
G04 #@! TF.CreationDate,2025-12-02T14:35:45+00:00*
G04 #@! TF.ProjectId,jitx-design,6a697478-2d64-4657-9369-676e2e6b6963,1.0*
G04 #@! TF.SameCoordinates,Original*
G04 #@! TF.FileFunction,Soldermask,Top*
G04 #@! TF.FilePolarity,Negative*
%FSLAX46Y46*%
G04 Gerber Fmt 4.6, Leading zero omitted, Abs format (unit mm)*
G04 Created by KiCad (PCBNEW 9.0.5) date 2025-12-02 14:35:45*
%MOMM*%
%LPD*%
G01*
G04 APERTURE LIST*
G04 Aperture macros list*
%AMRoundRect*
0 Rectangle with rounded corners*
0 $1 Rounding radius*
0 $2 $3 $4 $5 $6 $7 $8 $9 X,Y pos of 4 corners*
0 Add a 4 corners polygon primitive as box body*
4,1,4,$2,$3,$4,$5,$6,$7,$8,$9,$2,$3,0*
0 Add four circle primitives for the rounded corners*
1,1,$1+$1,$2,$3*
1,1,$1+$1,$4,$5*
1,1,$1+$1,$6,$7*
1,1,$1+$1,$8,$9*
0 Add four rect primitives between the rounded corners*
20,1,$1+$1,$2,$3,$4,$5,0*
20,1,$1+$1,$4,$5,$6,$7,0*
20,1,$1+$1,$6,$7,$8,$9,0*
20,1,$1+$1,$8,$9,$2,$3,0*%
G04 Aperture macros list end*
%ADD10RoundRect,0.051000X1.000000X-1.000000X1.000000X1.000000X-1.000000X1.000000X-1.000000X-1.000000X0*%
%ADD11C,2.102000*%
%ADD12RoundRect,0.051000X-0.850000X0.200000X-0.850000X-0.200000X0.850000X-0.200000X0.850000X0.200000X0*%
%ADD13RoundRect,0.250000X-0.450000X0.350000X-0.450000X-0.350000X0.450000X-0.350000X0.450000X0.350000X0*%
%ADD14RoundRect,0.250000X-0.337500X-0.475000X0.337500X-0.475000X0.337500X0.475000X-0.337500X0.475000X0*%
%ADD15C,2.700000*%
%ADD16O,1.700000X1.700000*%
%ADD17R,3.500000X1.700000*%
%ADD18R,1.700000X1.700000*%
%ADD19C,1.600000*%
%ADD20RoundRect,0.800000X-0.000010X-0.800000X0.000010X-0.800000X0.000010X0.800000X-0.000010X0.800000X0*%
%ADD21RoundRect,0.800000X-0.800000X-0.000010X0.800000X-0.000010X0.800000X0.000010X-0.800000X0.000010X0*%
%ADD22RoundRect,0.250000X0.337500X0.475000X-0.337500X0.475000X-0.337500X-0.475000X0.337500X-0.475000X0*%
%ADD23C,2.000000*%
%ADD24C,4.700000*%
%ADD25RoundRect,0.051000X-0.850000X0.550000X-0.850000X-0.550000X0.850000X-0.550000X0.850000X0.550000X0*%
%ADD26RoundRect,0.051000X0.900000X0.900000X-0.900000X0.900000X-0.900000X-0.900000X0.900000X-0.900000X0*%
%ADD27C,1.902000*%
%ADD28C,1.700000*%
%ADD29O,2.100000X1.300000*%
G04 APERTURE END LIST*
D10*
X118507941Y-131500949D03*
D11*
X115967941Y-131500949D03*
X118507941Y-128960949D03*
X115967941Y-128960949D03*
X118507941Y-126420949D03*
X115967941Y-126420949D03*
X118507941Y-123880949D03*
X115967941Y-123880949D03*
X118507941Y-121340949D03*
X115967941Y-121340949D03*
X118507941Y-118800949D03*
X115967941Y-118800949D03*
X118507941Y-116260949D03*
X115967941Y-116260949D03*
X118507941Y-113720949D03*
X115967941Y-113720949D03*
X118507941Y-111180949D03*
X115967941Y-111180949D03*
X118507941Y-108640949D03*
X115967941Y-108640949D03*
X118507941Y-106100949D03*
X115967941Y-106100949D03*
X118507941Y-103560949D03*
X115967941Y-103560949D03*
X118507941Y-101020949D03*
X115967941Y-101020949D03*
X118507941Y-98480949D03*
X115967941Y-98480949D03*
X118507941Y-95940949D03*
X115967941Y-95940949D03*
X118507941Y-93400949D03*
X115967941Y-93400949D03*
D12*
X126727300Y-85735125D03*
X126727300Y-86385125D03*
X126727300Y-87035125D03*
X126727300Y-87685125D03*
X126727300Y-88335125D03*
X126727300Y-88985125D03*
X126727300Y-89635125D03*
X132327300Y-89635125D03*
X132327300Y-88985125D03*
X132327300Y-88335125D03*
X132327300Y-87685125D03*
X132327300Y-87035125D03*
X132327300Y-86385125D03*
X132327300Y-85735125D03*
D13*
X139531725Y-77508350D03*
X139531725Y-79508350D03*
D14*
X130884125Y-118466200D03*
X132959125Y-118466200D03*
D12*
X126949550Y-112109850D03*
X126949550Y-112759850D03*
X126949550Y-113409850D03*
X126949550Y-114059850D03*
X126949550Y-114709850D03*
X126949550Y-115359850D03*
X126949550Y-116009850D03*
X132549550Y-116009850D03*
X132549550Y-115359850D03*
X132549550Y-114709850D03*
X132549550Y-114059850D03*
X132549550Y-113409850D03*
X132549550Y-112759850D03*
X132549550Y-112109850D03*
D15*
X163500000Y-136500000D03*
D12*
X126832075Y-94583850D03*
X126832075Y-95233850D03*
X126832075Y-95883850D03*
X126832075Y-96533850D03*
X126832075Y-97183850D03*
X126832075Y-97833850D03*
X126832075Y-98483850D03*
X132432075Y-98483850D03*
X132432075Y-97833850D03*
X132432075Y-97183850D03*
X132432075Y-96533850D03*
X132432075Y-95883850D03*
X132432075Y-95233850D03*
X132432075Y-94583850D03*
X126790800Y-103362725D03*
X126790800Y-104012725D03*
X126790800Y-104662725D03*
X126790800Y-105312725D03*
X126790800Y-105962725D03*
X126790800Y-106612725D03*
X126790800Y-107262725D03*
X132390800Y-107262725D03*
X132390800Y-106612725D03*
X132390800Y-105962725D03*
X132390800Y-105312725D03*
X132390800Y-104662725D03*
X132390800Y-104012725D03*
X132390800Y-103362725D03*
D16*
X147513675Y-81197450D03*
D17*
X146613675Y-81197450D03*
D16*
X147513675Y-83737450D03*
D17*
X146613675Y-83737450D03*
D18*
X147513675Y-86277450D03*
D17*
X146613675Y-86277450D03*
D16*
X147513675Y-88817450D03*
D17*
X146613675Y-88817450D03*
D16*
X147513675Y-91357450D03*
D17*
X146613675Y-91357450D03*
D16*
X147513675Y-93897450D03*
D17*
X146613675Y-93897450D03*
D16*
X147513675Y-96437450D03*
D17*
X146613675Y-96437450D03*
D18*
X147513675Y-98977450D03*
D17*
X146613675Y-98977450D03*
D16*
X147513675Y-101517450D03*
D17*
X146613675Y-101517450D03*
D16*
X147513675Y-104057450D03*
D17*
X146613675Y-104057450D03*
D16*
X147513675Y-106597450D03*
D17*
X146613675Y-106597450D03*
D16*
X147513675Y-109137450D03*
D17*
X146613675Y-109137450D03*
D18*
X147513675Y-111677450D03*
D17*
X146613675Y-111677450D03*
D16*
X147513675Y-114217450D03*
D17*
X146613675Y-114217450D03*
D16*
X147513675Y-116757450D03*
D17*
X146613675Y-116757450D03*
D16*
X147513675Y-119297450D03*
D17*
X146613675Y-119297450D03*
D16*
X147513675Y-121837450D03*
D17*
X146613675Y-121837450D03*
D18*
X147513675Y-124377450D03*
D17*
X146613675Y-124377450D03*
D16*
X147513675Y-126917450D03*
D17*
X146613675Y-126917450D03*
D16*
X147513675Y-129457450D03*
D17*
X146613675Y-129457450D03*
D16*
X165293675Y-129457450D03*
D17*
X166193675Y-129457450D03*
D16*
X165293675Y-126917450D03*
D17*
X166193675Y-126917450D03*
D18*
X165293675Y-124377450D03*
D17*
X166193675Y-124377450D03*
D16*
X165293675Y-121837450D03*
D17*
X166193675Y-121837450D03*
D16*
X165293675Y-119297450D03*
D17*
X166193675Y-119297450D03*
D16*
X165293675Y-116757450D03*
D17*
X166193675Y-116757450D03*
D16*
X165293675Y-114217450D03*
D17*
X166193675Y-114217450D03*
D18*
X165293675Y-111677450D03*
D17*
X166193675Y-111677450D03*
D16*
X165293675Y-109137450D03*
D17*
X166193675Y-109137450D03*
D16*
X165293675Y-106597450D03*
D17*
X166193675Y-106597450D03*
D16*
X165293675Y-104057450D03*
D17*
X166193675Y-104057450D03*
D16*
X165293675Y-101517450D03*
D17*
X166193675Y-101517450D03*
D18*
X165293675Y-98977450D03*
D17*
X166193675Y-98977450D03*
D16*
X165293675Y-96437450D03*
D17*
X166193675Y-96437450D03*
D16*
X165293675Y-93897450D03*
D17*
X166193675Y-93897450D03*
D16*
X165293675Y-91357450D03*
D17*
X166193675Y-91357450D03*
D16*
X165293675Y-88817450D03*
D17*
X166193675Y-88817450D03*
D18*
X165293675Y-86277450D03*
D17*
X166193675Y-86277450D03*
D16*
X165293675Y-83737450D03*
D17*
X166193675Y-83737450D03*
D16*
X165293675Y-81197450D03*
D17*
X166193675Y-81197450D03*
D19*
X156887775Y-110877450D03*
D20*
X156887775Y-111677450D03*
D19*
X159427775Y-110877450D03*
D20*
X159427775Y-111677450D03*
D19*
X161967775Y-110877450D03*
D20*
X161967775Y-111677450D03*
D19*
X156428675Y-83827450D03*
X157428675Y-80527450D03*
X155428675Y-80527450D03*
D21*
X153128675Y-88827450D03*
D19*
X153928675Y-88827450D03*
D21*
X153128675Y-91327450D03*
D19*
X153928675Y-91327450D03*
D21*
X153128675Y-93827450D03*
D19*
X153928675Y-93827450D03*
D22*
X128860550Y-127203200D03*
X126785550Y-127203200D03*
D12*
X127013050Y-120891900D03*
X127013050Y-121541900D03*
X127013050Y-122191900D03*
X127013050Y-122841900D03*
X127013050Y-123491900D03*
X127013050Y-124141900D03*
X127013050Y-124791900D03*
X132613050Y-124791900D03*
X132613050Y-124141900D03*
X132613050Y-123491900D03*
X132613050Y-122841900D03*
X132613050Y-122191900D03*
X132613050Y-121541900D03*
X132613050Y-120891900D03*
D14*
X130680925Y-92113700D03*
X132755925Y-92113700D03*
D22*
X128441100Y-83223700D03*
X126366100Y-83223700D03*
D14*
X130636475Y-83223700D03*
X132711475Y-83223700D03*
D23*
X131991100Y-79181325D03*
X129451100Y-79181325D03*
X126911100Y-79181325D03*
D24*
X116500000Y-136500000D03*
D22*
X128707800Y-118466200D03*
X126632800Y-118466200D03*
D25*
X136340850Y-80622775D03*
X136340850Y-77222775D03*
D26*
X132045075Y-136727450D03*
D27*
X129505075Y-136727450D03*
X126965075Y-136727450D03*
D24*
X121000000Y-80000000D03*
D13*
X139293600Y-81778600D03*
X139293600Y-83778600D03*
D22*
X128568100Y-100895750D03*
X126493100Y-100895750D03*
D12*
X127207250Y-129839250D03*
X127207250Y-130489250D03*
X127207250Y-131139250D03*
X127207250Y-131789250D03*
X127207250Y-132439250D03*
X127207250Y-133089250D03*
X127207250Y-133739250D03*
X132807250Y-133739250D03*
X132807250Y-133089250D03*
X132807250Y-132439250D03*
X132807250Y-131789250D03*
X132807250Y-131139250D03*
X132807250Y-130489250D03*
X132807250Y-129839250D03*
D28*
X114635033Y-79279627D03*
X114635033Y-83279627D03*
X114635033Y-85279627D03*
X114635033Y-87279627D03*
D29*
X114635033Y-89629627D03*
X114635033Y-76929627D03*
D22*
X128460150Y-92069250D03*
X126385150Y-92069250D03*
X128663350Y-109725425D03*
X126588350Y-109725425D03*
D14*
X130884125Y-109684150D03*
X132959125Y-109684150D03*
X130744425Y-100917975D03*
X132819425Y-100917975D03*
X130906700Y-127203200D03*
X132981700Y-127203200D03*
M02*
