#VRML V2.0 utf8
DEF TXFM_1 Transform {
  center 0 0 0
  rotation 0 0 1 0
  scale 1 1 1
  scaleOrientation 0 0 1 0
  translation 0 0 0
 children [
DEF TXFM_2 Transform {
  center 0 0 0
  rotation 0 0 1 0
  scale 1 1 1
  scaleOrientation 0 0 1 0
  translation 0 0 0
 children [
DEF TXFM_3 Transform {
  center 0 0 0
  rotation 0 0 1 0
  scale 1 1 1
  scaleOrientation 0 0 1 0
  translation 0 0 0
 children [
DEF TXFM_4 Transform {
  center 0 0 0
  rotation 0 0 1 0
  scale 1 1 1
  scaleOrientation 0 0 1 0
  translation 0 0 0
 children [
DEF SHAPE_1 Shape {
 appearance DEF APP_1 Appearance {
  material Material {
   ambientIntensity 0.14492753
   diffuseColor 0.69 0.69 0.69
   emissiveColor 0 0 0
   shininess 0.1
   specularColor 0.12 0.12 0.12
   transparency 0
} }
 geometry DEF FACE_1 IndexedFaceSet {
  coord DEF COORD_1 Coordinate { point [
  1.6 0 -0.475,1.4 0 -0.475,
  1.6 3.35 -0.475,-1.6 3.35 -0.475,
  -1.6 0 -0.475,-1.4 0 -0.475,
  -1.4 0.2 -0.475,-0.6 0.2 -0.475,
  -0.6 0 -0.475,-0.4 0 -0.475,
  -0.4 0.2 -0.475,0.4 0.2 -0.475,
  0.4 0 -0.475,0.6 0 -0.475,
  0.6 0.2 -0.475,1.4 0.2 -0.475] }
 coordIndex [
  6,5,4,-1,9,8,7,-1,10,9,7,-1,13,12,11,-1,14,13,11,-1,0,1,15,-1,3,7,6,-1,3,11,10,-1,
  3,6,4,-1,3,10,7,-1,2,15,14,-1,2,11,3,-1,2,14,11,-1,2,0,15,-1]
  normalPerVertex TRUE
  normal DEF NORM_1 Normal { vector [
  0 0 -1,0 0 -1,
  0 0 -1,0 0 -1,
  0 0 -1,0 0 -1,
  0 0 -1,0 0 -1,
  0 0 -1,0 0 -1,
  0 0 -1,0 0 -1,
  0 0 -1,0 0 -1,
  0 0 -1,0 0 -1] }
}
}
DEF SHAPE_2 Shape {
 appearance USE APP_1
 geometry DEF FACE_2 IndexedFaceSet {
  coord DEF COORD_2 Coordinate { point [
  1.4 0.2 0.475,0.6 0.2 0.475,
  0.6 0 0.475,0.4 0 0.475,
  0.4 0.2 0.475,-0.4 0.2 0.475,
  -0.4 0 0.475,-0.6 0 0.475,
  -0.6 0.2 0.475,-1.4 0.2 0.475,
  -1.4 0 0.475,-1.6 0 0.475,
  -1.6 3.35 0.475,1.6 3.35 0.475,
  1.6 0 0.475,1.4 0 0.475] }
 coordIndex [
  0,15,14,-1,3,2,1,-1,4,3,1,-1,7,6,5,-1,8,7,5,-1,11,10,9,-1,13,1,0,-1,13,5,4,-1,
  13,0,14,-1,13,4,1,-1,12,9,8,-1,12,5,13,-1,12,8,5,-1,12,11,9,-1]
  normalPerVertex TRUE
  normal DEF NORM_2 Normal { vector [
  0 0 1,0 0 1,
  0 0 1,0 0 1,
  0 0 1,0 0 1,
  0 0 1,0 0 1,
  0 0 1,0 0 1,
  0 0 1,0 0 1,
  0 0 1,0 0 1,
  0 0 1,0 0 1] }
}
}
DEF SHAPE_3 Shape {
 appearance USE APP_1
 geometry DEF FACE_3 IndexedFaceSet {
  coord DEF COORD_3 Coordinate { point [
  0.845 3.35 -0.155,0.845 0.2 -0.155,
  1.155 0.2 -0.155,1.155 3.35 -0.155] }
 coordIndex [
  3,0,1,-1,3,1,2,-1]
  normalPerVertex TRUE
  normal DEF NORM_3 Normal { vector [
  0 0 1,0 0 1,
  0 0 1,0 0 1] }
}
}
DEF SHAPE_4 Shape {
 appearance USE APP_1
 geometry DEF FACE_4 IndexedFaceSet {
  coord DEF COORD_4 Coordinate { point [
  1.155 3.35 -0.155,1.155 0.2 -0.155,
  1.155 0.2 0.155,1.155 3.35 0.155] }
 coordIndex [
  3,0,1,-1,3,1,2,-1]
  normalPerVertex TRUE
  normal DEF NORM_4 Normal { vector [
  -1 0 0,-1 0 0,
  -1 0 0,-1 0 0] }
}
}
DEF SHAPE_5 Shape {
 appearance USE APP_1
 geometry DEF FACE_5 IndexedFaceSet {
  coord DEF COORD_5 Coordinate { point [
  1.155 3.35 0.155,1.155 0.2 0.155,
  0.845 0.2 0.155,0.845 3.35 0.155] }
 coordIndex [
  3,0,1,-1,3,1,2,-1]
  normalPerVertex TRUE
  normal DEF NORM_5 Normal { vector [
  0 0 -1,0 0 -1,
  0 0 -1,0 0 -1] }
}
}
DEF SHAPE_6 Shape {
 appearance USE APP_1
 geometry DEF FACE_6 IndexedFaceSet {
  coord DEF COORD_6 Coordinate { point [
  -0.155 3.35 -0.155,-0.155 0.2 -0.155,
  0.155 0.2 -0.155,0.155 3.35 -0.155] }
 coordIndex [
  3,0,1,-1,3,1,2,-1]
  normalPerVertex TRUE
  normal DEF NORM_6 Normal { vector [
  0 0 1,0 0 1,
  0 0 1,0 0 1] }
}
}
DEF SHAPE_7 Shape {
 appearance USE APP_1
 geometry DEF FACE_7 IndexedFaceSet {
  coord DEF COORD_7 Coordinate { point [
  0.155 3.35 -0.155,0.155 0.2 -0.155,
  0.155 0.2 0.155,0.155 3.35 0.155] }
 coordIndex [
  3,0,1,-1,3,1,2,-1]
  normalPerVertex TRUE
  normal DEF NORM_7 Normal { vector [
  -1 0 0,-1 0 0,
  -1 0 0,-1 0 0] }
}
}
DEF SHAPE_8 Shape {
 appearance USE APP_1
 geometry DEF FACE_8 IndexedFaceSet {
  coord DEF COORD_8 Coordinate { point [
  0.155 3.35 0.155,0.155 0.2 0.155,
  -0.155 0.2 0.155,-0.155 3.35 0.155] }
 coordIndex [
  3,0,1,-1,3,1,2,-1]
  normalPerVertex TRUE
  normal DEF NORM_8 Normal { vector [
  0 0 -1,0 0 -1,
  0 0 -1,0 0 -1] }
}
}
DEF SHAPE_9 Shape {
 appearance USE APP_1
 geometry DEF FACE_9 IndexedFaceSet {
  coord DEF COORD_9 Coordinate { point [
  -1.155 3.35 -0.155,-1.155 0.2 -0.155,
  -0.845 0.2 -0.155,-0.845 3.35 -0.155] }
 coordIndex [
  3,0,1,-1,3,1,2,-1]
  normalPerVertex TRUE
  normal DEF NORM_9 Normal { vector [
  0 0 1,0 0 1,
  0 0 1,0 0 1] }
}
}
DEF SHAPE_10 Shape {
 appearance USE APP_1
 geometry DEF FACE_10 IndexedFaceSet {
  coord DEF COORD_10 Coordinate { point [
  -0.845 3.35 -0.155,-0.845 0.2 -0.155,
  -0.845 0.2 0.155,-0.845 3.35 0.155] }
 coordIndex [
  3,0,1,-1,3,1,2,-1]
  normalPerVertex TRUE
  normal DEF NORM_10 Normal { vector [
  -1 0 0,-1 0 0,
  -1 0 0,-1 0 0] }
}
}
DEF SHAPE_11 Shape {
 appearance USE APP_1
 geometry DEF FACE_11 IndexedFaceSet {
  coord DEF COORD_11 Coordinate { point [
  -0.845 3.35 0.155,-0.845 0.2 0.155,
  -1.155 0.2 0.155,-1.155 3.35 0.155] }
 coordIndex [
  3,0,1,-1,3,1,2,-1]
  normalPerVertex TRUE
  normal DEF NORM_11 Normal { vector [
  0 0 -1,0 0 -1,
  0 0 -1,0 0 -1] }
}
}
DEF SHAPE_12 Shape {
 appearance USE APP_1
 geometry DEF FACE_12 IndexedFaceSet {
  coord DEF COORD_12 Coordinate { point [
  0.845 3.35 0.155,0.845 0.2 0.155,
  0.845 0.2 -0.155,0.845 3.35 -0.155] }
 coordIndex [
  3,0,1,-1,3,1,2,-1]
  normalPerVertex TRUE
  normal DEF NORM_12 Normal { vector [
  1 0 0,1 0 0,
  1 0 0,1 0 0] }
}
}
DEF SHAPE_13 Shape {
 appearance USE APP_1
 geometry DEF FACE_13 IndexedFaceSet {
  coord DEF COORD_13 Coordinate { point [
  -0.155 3.35 0.155,-0.155 0.2 0.155,
  -0.155 0.2 -0.155,-0.155 3.35 -0.155] }
 coordIndex [
  3,0,1,-1,3,1,2,-1]
  normalPerVertex TRUE
  normal DEF NORM_13 Normal { vector [
  1 0 0,1 0 0,
  1 0 0,1 0 0] }
}
}
DEF SHAPE_14 Shape {
 appearance USE APP_1
 geometry DEF FACE_14 IndexedFaceSet {
  coord DEF COORD_14 Coordinate { point [
  -1.155 3.35 0.155,-1.155 0.2 0.155,
  -1.155 0.2 -0.155,-1.155 3.35 -0.155] }
 coordIndex [
  3,0,1,-1,3,1,2,-1]
  normalPerVertex TRUE
  normal DEF NORM_14 Normal { vector [
  1 0 0,1 0 0,
  1 0 0,1 0 0] }
}
}
DEF SHAPE_15 Shape {
 appearance USE APP_1
 geometry DEF FACE_15 IndexedFaceSet {
  coord DEF COORD_15 Coordinate { point [
  -1.4 0 -0.475,-1.6 0 -0.475,
  -1.6 0 0.475,-1.4 0 0.475] }
 coordIndex [
  3,1,0,-1,3,2,1,-1]
  normalPerVertex TRUE
  normal DEF NORM_15 Normal { vector [
  0 -1 0,0 -1 0,
  0 -1 0,0 -1 0] }
}
}
DEF SHAPE_16 Shape {
 appearance USE APP_1
 geometry DEF FACE_16 IndexedFaceSet {
  coord DEF COORD_16 Coordinate { point [
  1.4 0 0.475,1.6 0 0.475,
  1.6 0 -0.475,1.4 0 -0.475] }
 coordIndex [
  1,3,2,-1,1,0,3,-1]
  normalPerVertex TRUE
  normal DEF NORM_16 Normal { vector [
  0 -1 0,0 -1 0,
  0 -1 0,0 -1 0] }
}
}
DEF SHAPE_17 Shape {
 appearance USE APP_1
 geometry DEF FACE_17 IndexedFaceSet {
  coord DEF COORD_17 Coordinate { point [
  0.6 0 -0.475,0.4 0 -0.475,
  0.4 0 0.475,0.6 0 0.475] }
 coordIndex [
  3,1,0,-1,3,2,1,-1]
  normalPerVertex TRUE
  normal DEF NORM_17 Normal { vector [
  0 -1 0,0 -1 0,
  0 -1 0,0 -1 0] }
}
}
DEF SHAPE_18 Shape {
 appearance USE APP_1
 geometry DEF FACE_18 IndexedFaceSet {
  coord DEF COORD_18 Coordinate { point [
  -0.4 0 -0.475,-0.6 0 -0.475,
  -0.6 0 0.475,-0.4 0 0.475] }
 coordIndex [
  3,1,0,-1,3,2,1,-1]
  normalPerVertex TRUE
  normal DEF NORM_18 Normal { vector [
  0 -1 0,0 -1 0,
  0 -1 0,0 -1 0] }
}
}
DEF SHAPE_19 Shape {
 appearance USE APP_1
 geometry DEF FACE_19 IndexedFaceSet {
  coord DEF COORD_19 Coordinate { point [
  -1.6 3.35 -0.475,-1.6 0 -0.475,
  -1.6 3.35 0.475,-1.6 0 0.475] }
 coordIndex [
  0,3,2,-1,0,1,3,-1]
  normalPerVertex TRUE
  normal DEF NORM_19 Normal { vector [
  -1 0 0,-1 0 0,
  -1 0 0,-1 0 0] }
}
}
DEF SHAPE_20 Shape {
 appearance USE APP_1
 geometry DEF FACE_20 IndexedFaceSet {
  coord DEF COORD_20 Coordinate { point [
  1.6 3.35 0.475,1.6 0 0.475,
  1.6 3.35 -0.475,1.6 0 -0.475] }
 coordIndex [
  0,3,2,-1,0,1,3,-1]
  normalPerVertex TRUE
  normal DEF NORM_20 Normal { vector [
  1 0 0,1 0 0,
  1 0 0,1 0 0] }
}
}
DEF SHAPE_21 Shape {
 appearance USE APP_1
 geometry DEF FACE_21 IndexedFaceSet {
  coord DEF COORD_21 Coordinate { point [
  1.6 3.35 -0.475,-1.6 3.35 -0.475,
  -1.6 3.35 0.475,1.6 3.35 0.475,
  -0.845 3.35 -0.155,-1.155 3.35 -0.155,
  -0.845 3.35 0.155,-1.155 3.35 0.155,
  0.155 3.35 -0.155,-0.155 3.35 -0.155,
  0.155 3.35 0.155,-0.155 3.35 0.155,
  1.155 3.35 -0.155,0.845 3.35 -0.155,
  1.155 3.35 0.155,0.845 3.35 0.155] }
 coordIndex [
  7,1,2,-1,7,5,1,-1,4,1,5,-1,6,7,2,-1,9,1,4,-1,11,4,6,-1,11,9,4,-1,11,6,2,-1,
  15,8,10,-1,15,13,8,-1,0,13,12,-1,0,8,13,-1,3,12,14,-1,3,14,15,-1,3,15,10,-1,3,0,12,-1,
  0,1,9,-1,0,9,8,-1,2,3,10,-1,2,10,11,-1]
  normalPerVertex TRUE
  normal DEF NORM_21 Normal { vector [
  0 1 0,0 1 0,
  0 1 0,0 1 0,
  0 1 0,0 1 0,
  0 1 0,0 1 0,
  0 1 0,0 1 0,
  0 1 0,0 1 0,
  0 1 0,0 1 0,
  0 1 0,0 1 0] }
}
}
DEF SHAPE_22 Shape {
 appearance USE APP_1
 geometry DEF FACE_22 IndexedFaceSet {
  coord DEF COORD_22 Coordinate { point [
  -0.6 0.2 -0.475,-0.6 0 -0.475,
  -0.6 0 0.475,-0.6 0.2 0.475] }
 coordIndex [
  3,0,1,-1,3,1,2,-1]
  normalPerVertex TRUE
  normal DEF NORM_22 Normal { vector [
  -1 0 0,-1 0 0,
  -1 0 0,-1 0 0] }
}
}
DEF SHAPE_23 Shape {
 appearance USE APP_1
 geometry DEF FACE_23 IndexedFaceSet {
  coord DEF COORD_23 Coordinate { point [
  -1.4 0 -0.475,-1.4 0.2 -0.475,
  -1.4 0.2 0.475,-1.4 0 0.475] }
 coordIndex [
  1,2,3,-1,1,3,0,-1]
  normalPerVertex TRUE
  normal DEF NORM_23 Normal { vector [
  1 0 0,1 0 0,
  1 0 0,1 0 0] }
}
}
DEF SHAPE_24 Shape {
 appearance USE APP_1
 geometry DEF FACE_24 IndexedFaceSet {
  coord DEF COORD_24 Coordinate { point [
  -1.4 0.2 -0.475,-0.6 0.2 -0.475,
  -0.6 0.2 0.475,-1.4 0.2 0.475,
  -1.155 0.2 0.155,-1.155 0.2 -0.155,
  -0.845 0.2 0.155,-0.845 0.2 -0.155] }
 coordIndex [
  6,2,3,-1,6,3,4,-1,0,5,4,-1,0,4,3,-1,1,6,7,-1,1,7,5,-1,1,2,6,-1,1,5,0,-1]
  normalPerVertex TRUE
  normal DEF NORM_24 Normal { vector [
  0 -1 0,0 -1 0,
  0 -1 0,0 -1 0,
  0 -1 0,0 -1 0,
  0 -1 0,0 -1 0] }
}
}
DEF SHAPE_25 Shape {
 appearance USE APP_1
 geometry DEF FACE_25 IndexedFaceSet {
  coord DEF COORD_25 Coordinate { point [
  0.4 0.2 -0.475,0.4 0 -0.475,
  0.4 0 0.475,0.4 0.2 0.475] }
 coordIndex [
  3,0,1,-1,3,1,2,-1]
  normalPerVertex TRUE
  normal DEF NORM_25 Normal { vector [
  -1 0 0,-1 0 0,
  -1 0 0,-1 0 0] }
}
}
DEF SHAPE_26 Shape {
 appearance USE APP_1
 geometry DEF FACE_26 IndexedFaceSet {
  coord DEF COORD_26 Coordinate { point [
  -0.4 0 -0.475,-0.4 0.2 -0.475,
  -0.4 0.2 0.475,-0.4 0 0.475] }
 coordIndex [
  1,2,3,-1,1,3,0,-1]
  normalPerVertex TRUE
  normal DEF NORM_26 Normal { vector [
  1 0 0,1 0 0,
  1 0 0,1 0 0] }
}
}
DEF SHAPE_27 Shape {
 appearance USE APP_1
 geometry DEF FACE_27 IndexedFaceSet {
  coord DEF COORD_27 Coordinate { point [
  -0.4 0.2 -0.475,0.4 0.2 -0.475,
  0.4 0.2 0.475,-0.4 0.2 0.475,
  -0.155 0.2 0.155,-0.155 0.2 -0.155,
  0.155 0.2 0.155,0.155 0.2 -0.155] }
 coordIndex [
  6,2,3,-1,6,3,4,-1,0,5,4,-1,0,4,3,-1,7,2,6,-1,1,7,5,-1,1,2,7,-1,1,5,0,-1]
  normalPerVertex TRUE
  normal DEF NORM_27 Normal { vector [
  0 -1 0,0 -1 0,
  0 -1 0,0 -1 0,
  0 -1 0,0 -1 0,
  0 -1 0,0 -1 0] }
}
}
DEF SHAPE_28 Shape {
 appearance USE APP_1
 geometry DEF FACE_28 IndexedFaceSet {
  coord DEF COORD_28 Coordinate { point [
  0.6 0.2 -0.475,1.4 0.2 -0.475,
  1.4 0.2 0.475,0.6 0.2 0.475,
  0.845 0.2 0.155,0.845 0.2 -0.155,
  1.155 0.2 0.155,1.155 0.2 -0.155] }
 coordIndex [
  7,0,1,-1,7,5,0,-1,3,5,4,-1,3,0,5,-1,2,4,6,-1,2,6,7,-1,2,7,1,-1,2,3,4,-1]
  normalPerVertex TRUE
  normal DEF NORM_28 Normal { vector [
  0 -1 0,0 -1 0,
  0 -1 0,0 -1 0,
  0 -1 0,0 -1 0,
  0 -1 0,0 -1 0] }
}
}
DEF SHAPE_29 Shape {
 appearance USE APP_1
 geometry DEF FACE_29 IndexedFaceSet {
  coord DEF COORD_29 Coordinate { point [
  1.4 0.2 -0.475,1.4 0 -0.475,
  1.4 0 0.475,1.4 0.2 0.475] }
 coordIndex [
  3,0,1,-1,3,1,2,-1]
  normalPerVertex TRUE
  normal DEF NORM_29 Normal { vector [
  -1 0 0,-1 0 0,
  -1 0 0,-1 0 0] }
}
}
DEF SHAPE_30 Shape {
 appearance USE APP_1
 geometry DEF FACE_30 IndexedFaceSet {
  coord DEF COORD_30 Coordinate { point [
  0.6 0 -0.475,0.6 0.2 -0.475,
  0.6 0.2 0.475,0.6 0 0.475] }
 coordIndex [
  1,2,3,-1,1,3,0,-1]
  normalPerVertex TRUE
  normal DEF NORM_30 Normal { vector [
  1 0 0,1 0 0,
  1 0 0,1 0 0] }
}
}
] }
] }
DEF TXFM_5 Transform {
  center 0 0 0
  rotation 0 0 1 0
  scale 1 1 1
  scaleOrientation 0 0 1 0
  translation 0 -1.04 0
 children [
DEF TXFM_6 Transform {
  center 0 0 0
  rotation 0 0 1 0
  scale 1 1 1
  scaleOrientation 0 0 1 0
  translation 0 0 0
 children [
DEF SHAPE_31 Shape {
 appearance DEF APP_2 Appearance {
  material Material {
   ambientIntensity 0.10777825
   diffuseColor 1 1 0
   emissiveColor 0 0 0
   shininess 0.1
   specularColor 0.12 0.12 0.12
   transparency 0
} }
 geometry DEF FACE_31 IndexedFaceSet {
  coord DEF COORD_31 Coordinate { point [
  1.1200019 0.11258661 0.125,0.87999809 0.11258661 0.125,
  0.875 0.12124356 0.125,0.875 1.39 0.125,
  1.125 1.39 0.125,1.125 0.12124356 0.125] }
 coordIndex [
  2,1,0,-1,2,0,5,-1,4,2,5,-1,3,2,4,-1]
  normalPerVertex TRUE
  normal DEF NORM_31 Normal { vector [
  0 0 1,0 0 1,
  0 0 1,0 0 1,
  0 0 1,0 0 1] }
}
}
DEF SHAPE_32 Shape {
 appearance USE APP_2
 geometry DEF FACE_32 IndexedFaceSet {
  coord DEF COORD_32 Coordinate { point [
  0.12000191 0.11258661 0.125,-0.12000191 0.11258661 0.125,
  -0.125 0.12124356 0.125,-0.125 1.39 0.125,
  0.125 1.39 0.125,0.125 0.12124356 0.125] }
 coordIndex [
  2,1,0,-1,2,0,5,-1,3,5,4,-1,3,2,5,-1]
  normalPerVertex TRUE
  normal DEF NORM_32 Normal { vector [
  0 0 1,0 0 1,
  0 0 1,0 0 1,
  0 0 1,0 0 1] }
}
}
DEF SHAPE_33 Shape {
 appearance USE APP_2
 geometry DEF FACE_33 IndexedFaceSet {
  coord DEF COORD_33 Coordinate { point [
  -1.125 0.12124356 0.125,-1.125 1.39 0.125,
  -0.875 1.39 0.125,-0.875 0.12124356 0.125,
  -0.87999809 0.11258661 0.125,-1.1200019 0.11258661 0.125] }
 coordIndex [
  0,4,3,-1,0,5,4,-1,1,3,2,-1,1,0,3,-1]
  normalPerVertex TRUE
  normal DEF NORM_33 Normal { vector [
  0 0 1,0 0 1,
  0 0 1,0 0 1,
  0 0 1,0 0 1] }
}
}
DEF SHAPE_34 Shape {
 appearance USE APP_2
 geometry DEF FACE_34 IndexedFaceSet {
  coord DEF COORD_34 Coordinate { point [
  1.125 0.12124356 -0.125,1.125 1.39 -0.125,
  0.875 1.39 -0.125,0.875 0.12124356 -0.125,
  0.87999809 0.11258661 -0.125,1.1200019 0.11258661 -0.125] }
 coordIndex [
  0,4,3,-1,0,5,4,-1,2,0,3,-1,1,0,2,-1]
  normalPerVertex TRUE
  normal DEF NORM_34 Normal { vector [
  0 0 -1,0 0 -1,
  0 0 -1,0 0 -1,
  0 0 -1,0 0 -1] }
}
}
DEF SHAPE_35 Shape {
 appearance USE APP_2
 geometry DEF FACE_35 IndexedFaceSet {
  coord DEF COORD_35 Coordinate { point [
  0.125 0.12124356 -0.125,0.125 1.39 -0.125,
  -0.125 1.39 -0.125,-0.125 0.12124356 -0.125,
  -0.12000191 0.11258661 -0.125,0.12000191 0.11258661 -0.125] }
 coordIndex [
  0,4,3,-1,0,5,4,-1,1,3,2,-1,1,0,3,-1]
  normalPerVertex TRUE
  normal DEF NORM_35 Normal { vector [
  0 0 -1,0 0 -1,
  0 0 -1,0 0 -1,
  0 0 -1,0 0 -1] }
}
}
DEF SHAPE_36 Shape {
 appearance USE APP_2
 geometry DEF FACE_36 IndexedFaceSet {
  coord DEF COORD_36 Coordinate { point [
  -0.87999809 0.11258661 -0.125,-1.1200019 0.11258661 -0.125,
  -0.875 0.12124356 -0.125,-0.875 1.39 -0.125,
  -1.125 1.39 -0.125,-1.125 0.12124356 -0.125] }
 coordIndex [
  0,1,5,-1,2,0,5,-1,3,5,4,-1,3,2,5,-1]
  normalPerVertex TRUE
  normal DEF NORM_36 Normal { vector [
  0 0 -1,0 0 -1,
  0 0 -1,0 0 -1,
  0 0 -1,0 0 -1] }
}
}
DEF SHAPE_37 Shape {
 appearance USE APP_2
 geometry DEF FACE_37 IndexedFaceSet {
  coord DEF COORD_37 Coordinate { point [
  1.055 0 -0.0725,0.945 0 -0.0725,
  0.945 0 0.0725,1.055 0 0.0725] }
 coordIndex [
  3,1,0,-1,3,2,1,-1]
  normalPerVertex TRUE
  normal DEF NORM_37 Normal { vector [
  0 -1 0,0 -1 0,
  0 -1 0,0 -1 0] }
}
}
DEF SHAPE_38 Shape {
 appearance USE APP_2
 geometry DEF FACE_38 IndexedFaceSet {
  coord DEF COORD_38 Coordinate { point [
  0.055 0 -0.0725,-0.055 0 -0.0725,
  -0.055 0 0.0725,0.055 0 0.0725] }
 coordIndex [
  2,1,0,-1,3,2,0,-1]
  normalPerVertex TRUE
  normal DEF NORM_38 Normal { vector [
  0 -1 0,0 -1 0,
  0 -1 0,0 -1 0] }
}
}
DEF SHAPE_39 Shape {
 appearance USE APP_2
 geometry DEF FACE_39 IndexedFaceSet {
  coord DEF COORD_39 Coordinate { point [
  -0.945 0 0.0725,-1.055 0 0.0725,
  -0.945 0 -0.0725,-1.055 0 -0.0725] }
 coordIndex [
  0,3,2,-1,0,1,3,-1]
  normalPerVertex TRUE
  normal DEF NORM_39 Normal { vector [
  0 -1 0,0 -1 0,
  0 -1 0,0 -1 0] }
}
}
DEF SHAPE_40 Shape {
 appearance USE APP_2
 geometry DEF FACE_40 IndexedFaceSet {
  coord DEF COORD_40 Coordinate { point [
  -1.125 1.39 -0.125,-1.125 0.12124356 -0.125,
  -1.125 0.12124356 0.125,-1.125 1.39 0.125] }
 coordIndex [
  0,1,2,-1,3,0,2,-1]
  normalPerVertex TRUE
  normal DEF NORM_40 Normal { vector [
  -1 0 0,-1 0 0,
  -1 0 0,-1 0 0] }
}
}
DEF SHAPE_41 Shape {
 appearance USE APP_2
 geometry DEF FACE_41 IndexedFaceSet {
  coord DEF COORD_41 Coordinate { point [
  -0.875 1.39 0.125,-0.875 0.12124356 0.125,
  -0.875 0.12124356 -0.125,-0.875 1.39 -0.125] }
 coordIndex [
  3,0,1,-1,3,1,2,-1]
  normalPerVertex TRUE
  normal DEF NORM_41 Normal { vector [
  1 0 0,1 0 0,
  1 0 0,1 0 0] }
}
}
DEF SHAPE_42 Shape {
 appearance USE APP_2
 geometry DEF FACE_42 IndexedFaceSet {
  coord DEF COORD_42 Coordinate { point [
  -0.125 1.39 -0.125,-0.125 0.12124356 -0.125,
  -0.125 0.12124356 0.125,-0.125 1.39 0.125] }
 coordIndex [
  3,0,1,-1,3,1,2,-1]
  normalPerVertex TRUE
  normal DEF NORM_42 Normal { vector [
  -1 0 0,-1 0 0,
  -1 0 0,-1 0 0] }
}
}
DEF SHAPE_43 Shape {
 appearance USE APP_2
 geometry DEF FACE_43 IndexedFaceSet {
  coord DEF COORD_43 Coordinate { point [
  0.125 1.39 0.125,0.125 0.12124356 0.125,
  0.125 0.12124356 -0.125,0.125 1.39 -0.125] }
 coordIndex [
  3,0,1,-1,3,1,2,-1]
  normalPerVertex TRUE
  normal DEF NORM_43 Normal { vector [
  1 0 0,1 0 0,
  1 0 0,1 0 0] }
}
}
DEF SHAPE_44 Shape {
 appearance USE APP_2
 geometry DEF FACE_44 IndexedFaceSet {
  coord DEF COORD_44 Coordinate { point [
  0.875 1.39 -0.125,0.875 0.12124356 -0.125,
  0.875 0.12124356 0.125,0.875 1.39 0.125] }
 coordIndex [
  0,1,2,-1,3,0,2,-1]
  normalPerVertex TRUE
  normal DEF NORM_44 Normal { vector [
  -1 0 0,-1 0 0,
  -1 0 0,-1 0 0] }
}
}
DEF SHAPE_45 Shape {
 appearance USE APP_2
 geometry DEF FACE_45 IndexedFaceSet {
  coord DEF COORD_45 Coordinate { point [
  1.125 1.39 0.125,1.125 0.12124356 0.125,
  1.125 0.12124356 -0.125,1.125 1.39 -0.125] }
 coordIndex [
  3,0,1,-1,3,1,2,-1]
  normalPerVertex TRUE
  normal DEF NORM_45 Normal { vector [
  1 0 0,1 0 0,
  1 0 0,1 0 0] }
}
}
DEF SHAPE_46 Shape {
 appearance USE APP_2
 geometry DEF FACE_46 IndexedFaceSet {
  coord DEF COORD_46 Coordinate { point [
  1.1200019 0.11258661 -0.125,0.87999809 0.11258661 -0.125,
  1.055 0 -0.0725,0.945 0 -0.0725] }
 coordIndex [
  2,3,1,-1,0,2,1,-1]
  normalPerVertex TRUE
  normal DEF NORM_46 Normal { vector [
  0 -0.42261826 -0.90630779,0 -0.42261826 -0.90630779,
  0 -0.42261826 -0.90630779,0 -0.42261826 -0.90630779] }
}
}
DEF SHAPE_47 Shape {
 appearance USE APP_2
 geometry DEF FACE_47 IndexedFaceSet {
  coord DEF COORD_47 Coordinate { point [
  1.055 0 0.0725,0.945 0 0.0725,
  1.1200019 0.11258661 0.125,0.87999809 0.11258661 0.125] }
 coordIndex [
  0,2,3,-1,0,3,1,-1]
  normalPerVertex TRUE
  normal DEF NORM_47 Normal { vector [
  0 -0.42261826 0.90630779,0 -0.42261826 0.90630779,
  0 -0.42261826 0.90630779,0 -0.42261826 0.90630779] }
}
}
DEF SHAPE_48 Shape {
 appearance USE APP_2
 geometry DEF FACE_48 IndexedFaceSet {
  coord DEF COORD_48 Coordinate { point [
  0.12000191 0.11258661 -0.125,-0.12000191 0.11258661 -0.125,
  0.055 0 -0.0725,-0.055 0 -0.0725] }
 coordIndex [
  0,2,3,-1,0,3,1,-1]
  normalPerVertex TRUE
  normal DEF NORM_48 Normal { vector [
  0 -0.42261826 -0.90630779,0 -0.42261826 -0.90630779,
  0 -0.42261826 -0.90630779,0 -0.42261826 -0.90630779] }
}
}
DEF SHAPE_49 Shape {
 appearance USE APP_2
 geometry DEF FACE_49 IndexedFaceSet {
  coord DEF COORD_49 Coordinate { point [
  0.055 0 0.0725,-0.055 0 0.0725,
  0.12000191 0.11258661 0.125,-0.12000191 0.11258661 0.125] }
 coordIndex [
  0,2,3,-1,0,3,1,-1]
  normalPerVertex TRUE
  normal DEF NORM_49 Normal { vector [
  0 -0.42261826 0.90630779,0 -0.42261826 0.90630779,
  0 -0.42261826 0.90630779,0 -0.42261826 0.90630779] }
}
}
DEF SHAPE_50 Shape {
 appearance USE APP_2
 geometry DEF FACE_50 IndexedFaceSet {
  coord DEF COORD_50 Coordinate { point [
  -0.945 0 -0.0725,-1.055 0 -0.0725,
  -1.1200019 0.11258661 -0.125,-0.87999809 0.11258661 -0.125] }
 coordIndex [
  3,0,1,-1,3,1,2,-1]
  normalPerVertex TRUE
  normal DEF NORM_50 Normal { vector [
  0 -0.42261826 -0.90630779,0 -0.42261826 -0.90630779,
  0 -0.42261826 -0.90630779,0 -0.42261826 -0.90630779] }
}
}
DEF SHAPE_51 Shape {
 appearance USE APP_2
 geometry DEF FACE_51 IndexedFaceSet {
  coord DEF COORD_51 Coordinate { point [
  -0.87999809 0.11258661 0.125,-1.1200019 0.11258661 0.125,
  -1.055 0 0.0725,-0.945 0 0.0725] }
 coordIndex [
  0,1,2,-1,3,0,2,-1]
  normalPerVertex TRUE
  normal DEF NORM_51 Normal { vector [
  0 -0.42261826 0.90630779,0 -0.42261826 0.90630779,
  0 -0.42261826 0.90630779,0 -0.42261826 0.90630779] }
}
}
DEF SHAPE_52 Shape {
 appearance USE APP_2
 geometry DEF FACE_52 IndexedFaceSet {
  coord DEF COORD_52 Coordinate { point [
  1.205 1.44 -0.24,1.205 1.39 -0.24,
  -1.205 1.44 -0.24,-1.205 1.39 -0.24] }
 coordIndex [
  0,3,2,-1,0,1,3,-1]
  normalPerVertex TRUE
  normal DEF NORM_52 Normal { vector [
  0 0 -1,0 0 -1,
  0 0 -1,0 0 -1] }
}
}
DEF SHAPE_53 Shape {
 appearance USE APP_2
 geometry DEF FACE_53 IndexedFaceSet {
  coord DEF COORD_53 Coordinate { point [
  -1.205 1.44 -0.24,-1.205 1.39 -0.24,
  -1.205 1.44 0.24,-1.205 1.39 0.24] }
 coordIndex [
  0,3,2,-1,0,1,3,-1]
  normalPerVertex TRUE
  normal DEF NORM_53 Normal { vector [
  -1 0 0,-1 0 0,
  -1 0 0,-1 0 0] }
}
}
DEF SHAPE_54 Shape {
 appearance USE APP_2
 geometry DEF FACE_54 IndexedFaceSet {
  coord DEF COORD_54 Coordinate { point [
  -1.205 1.44 0.24,-1.205 1.39 0.24,
  1.205 1.44 0.24,1.205 1.39 0.24] }
 coordIndex [
  0,3,2,-1,0,1,3,-1]
  normalPerVertex TRUE
  normal DEF NORM_54 Normal { vector [
  0 0 1,0 0 1,
  0 0 1,0 0 1] }
}
}
DEF SHAPE_55 Shape {
 appearance USE APP_2
 geometry DEF FACE_55 IndexedFaceSet {
  coord DEF COORD_55 Coordinate { point [
  1.205 1.44 0.24,1.205 1.39 0.24,
  1.205 1.44 -0.24,1.205 1.39 -0.24] }
 coordIndex [
  0,3,2,-1,0,1,3,-1]
  normalPerVertex TRUE
  normal DEF NORM_55 Normal { vector [
  1 0 0,1 0 0,
  1 0 0,1 0 0] }
}
}
DEF SHAPE_56 Shape {
 appearance USE APP_2
 geometry DEF FACE_56 IndexedFaceSet {
  coord DEF COORD_56 Coordinate { point [
  -1.205 1.39 0.24,1.205 1.39 0.24,
  1.205 1.39 -0.24,-1.205 1.39 -0.24,
  1.125 1.39 -0.125,0.875 1.39 -0.125,
  1.125 1.39 0.125,0.875 1.39 0.125,
  0.125 1.39 -0.125,-0.125 1.39 -0.125,
  0.125 1.39 0.125,-0.125 1.39 0.125,
  -0.875 1.39 -0.125,-1.125 1.39 -0.125,
  -0.875 1.39 0.125,-1.125 1.39 0.125] }
 coordIndex [
  12,13,3,-1,0,13,15,-1,0,3,13,-1,14,0,15,-1,9,12,3,-1,11,14,12,-1,11,12,9,-1,11,0,14,-1,
  2,5,8,-1,7,10,8,-1,7,8,5,-1,4,5,2,-1,1,6,4,-1,1,7,6,-1,1,10,7,-1,1,4,2,-1,
  0,10,1,-1,0,11,10,-1,2,9,3,-1,2,8,9,-1]
  normalPerVertex TRUE
  normal DEF NORM_56 Normal { vector [
  0 -1 0,0 -1 0,
  0 -1 0,0 -1 0,
  0 -1 0,0 -1 0,
  0 -1 0,0 -1 0,
  0 -1 0,0 -1 0,
  0 -1 0,0 -1 0,
  0 -1 0,0 -1 0,
  0 -1 0,0 -1 0] }
}
}
DEF SHAPE_57 Shape {
 appearance USE APP_2
 geometry DEF FACE_57 IndexedFaceSet {
  coord DEF COORD_57 Coordinate { point [
  1.205 1.44 0.24,1.205 1.44 -0.24,
  -1.205 1.44 0.24,-1.205 1.44 -0.24] }
 coordIndex [
  1,2,0,-1,1,3,2,-1]
  normalPerVertex TRUE
  normal DEF NORM_57 Normal { vector [
  0 1 0,0 1 0,
  0 1 0,0 1 0] }
}
}
DEF SHAPE_58 Shape {
 appearance USE APP_2
 geometry DEF FACE_58 IndexedFaceSet {
  coord DEF COORD_58 Coordinate { point [
  -0.87999809 0.11258661 -0.125,-0.875 0.12124356 -0.125,
  -0.875 0.12124356 0.125,-0.87999809 0.11258661 0.125,
  -0.945 0 0.0725,-0.945 0 -0.0725] }
 coordIndex [
  4,5,0,-1,3,4,0,-1,2,0,1,-1,2,3,0,-1]
  normalPerVertex TRUE
  normal DEF NORM_58 Normal { vector [
  0.8660254 -0.5 0,0.8660254 -0.5 0,
  0.8660254 -0.5 0,0.8660254 -0.5 0,
  0.8660254 -0.5 0,0.8660254 -0.5 0] }
}
}
DEF SHAPE_59 Shape {
 appearance USE APP_2
 geometry DEF FACE_59 IndexedFaceSet {
  coord DEF COORD_59 Coordinate { point [
  -1.055 0 0.0725,-1.055 0 -0.0725,
  -1.1200019 0.11258661 0.125,-1.125 0.12124356 0.125,
  -1.125 0.12124356 -0.125,-1.1200019 0.11258661 -0.125] }
 coordIndex [
  3,4,5,-1,2,5,1,-1,2,3,5,-1,0,2,1,-1]
  normalPerVertex TRUE
  normal DEF NORM_59 Normal { vector [
  -0.8660254 -0.5 0,-0.8660254 -0.5 0,
  -0.8660254 -0.5 0,-0.8660254 -0.5 0,
  -0.8660254 -0.5 0,-0.8660254 -0.5 0] }
}
}
DEF SHAPE_60 Shape {
 appearance USE APP_2
 geometry DEF FACE_60 IndexedFaceSet {
  coord DEF COORD_60 Coordinate { point [
  -0.055 0 0.0725,-0.055 0 -0.0725,
  -0.12000191 0.11258661 0.125,-0.125 0.12124356 0.125,
  -0.125 0.12124356 -0.125,-0.12000191 0.11258661 -0.125] }
 coordIndex [
  2,3,4,-1,2,4,5,-1,0,5,1,-1,0,2,5,-1]
  normalPerVertex TRUE
  normal DEF NORM_60 Normal { vector [
  -0.8660254 -0.5 0,-0.8660254 -0.5 0,
  -0.8660254 -0.5 0,-0.8660254 -0.5 0,
  -0.8660254 -0.5 0,-0.8660254 -0.5 0] }
}
}
DEF SHAPE_61 Shape {
 appearance USE APP_2
 geometry DEF FACE_61 IndexedFaceSet {
  coord DEF COORD_61 Coordinate { point [
  0.12000191 0.11258661 -0.125,0.125 0.12124356 -0.125,
  0.125 0.12124356 0.125,0.12000191 0.11258661 0.125,
  0.055 0 0.0725,0.055 0 -0.0725] }
 coordIndex [
  3,4,5,-1,3,5,0,-1,2,0,1,-1,2,3,0,-1]
  normalPerVertex TRUE
  normal DEF NORM_61 Normal { vector [
  0.8660254 -0.5 0,0.8660254 -0.5 0,
  0.8660254 -0.5 0,0.8660254 -0.5 0,
  0.8660254 -0.5 0,0.8660254 -0.5 0] }
}
}
DEF SHAPE_62 Shape {
 appearance USE APP_2
 geometry DEF FACE_62 IndexedFaceSet {
  coord DEF COORD_62 Coordinate { point [
  0.945 0 0.0725,0.945 0 -0.0725,
  0.87999809 0.11258661 0.125,0.875 0.12124356 0.125,
  0.875 0.12124356 -0.125,0.87999809 0.11258661 -0.125] }
 coordIndex [
  3,4,5,-1,2,5,1,-1,2,3,5,-1,0,2,1,-1]
  normalPerVertex TRUE
  normal DEF NORM_62 Normal { vector [
  -0.8660254 -0.5 0,-0.8660254 -0.5 0,
  -0.8660254 -0.5 0,-0.8660254 -0.5 0,
  -0.8660254 -0.5 0,-0.8660254 -0.5 0] }
}
}
DEF SHAPE_63 Shape {
 appearance USE APP_2
 geometry DEF FACE_63 IndexedFaceSet {
  coord DEF COORD_63 Coordinate { point [
  1.1200019 0.11258661 -0.125,1.125 0.12124356 -0.125,
  1.125 0.12124356 0.125,1.1200019 0.11258661 0.125,
  1.055 0 0.0725,1.055 0 -0.0725] }
 coordIndex [
  4,5,0,-1,3,4,0,-1,2,0,1,-1,2,3,0,-1]
  normalPerVertex TRUE
  normal DEF NORM_63 Normal { vector [
  0.8660254 -0.5 0,0.8660254 -0.5 0,
  0.8660254 -0.5 0,0.8660254 -0.5 0,
  0.8660254 -0.5 0,0.8660254 -0.5 0] }
}
}
] }
] }
] }
] }
