ISO-10303-21;
HEADER;
/* Generated by software containing ST-Developer
 * from STEP Tools, Inc. (www.steptools.com) 
 */
/* OPTION: using custom renumber hook */

FILE_DESCRIPTION(
/* description */ ('STEP AP214'),
/* implementation_level */ '2;1');

FILE_NAME(
/* name */ 'SSQ-103-01-T-S',
/* time_stamp */ '2025-06-26T15:35:52+02:00',
/* author */ ('License CC BY-ND 4.0'),
/* organization */ ('CADENAS'),
/* preprocessor_version */ 'ST-DEVELOPER v19.3',
/* originating_system */ 'PARTsolutions',
/* authorisation */ '  ');

FILE_SCHEMA (('AUTOMOTIVE_DESIGN {1 0 10303 214 3 1 1}'));
ENDSEC;

DATA;
#10=PROPERTY_DEFINITION_REPRESENTATION(#14,#12);
#11=PROPERTY_DEFINITION_REPRESENTATION(#15,#13);
#12=REPRESENTATION('',(#16),#1991);
#13=REPRESENTATION('',(#17),#1991);
#14=PROPERTY_DEFINITION('pmi validation property','',#2003);
#15=PROPERTY_DEFINITION('pmi validation property','',#2003);
#16=VALUE_REPRESENTATION_ITEM('number of annotations',COUNT_MEASURE(0.));
#17=VALUE_REPRESENTATION_ITEM('number of views',COUNT_MEASURE(0.));
#18=DRAUGHTING_PRE_DEFINED_COLOUR('yellow');
#19=CONTEXT_DEPENDENT_SHAPE_REPRESENTATION(#23,#2005);
#20=CONTEXT_DEPENDENT_SHAPE_REPRESENTATION(#24,#2007);
#21=NEXT_ASSEMBLY_USAGE_OCCURRENCE('NAUO1','T1SSQ-103-01-T-S',
'T1SSQ-103-01-T-S',#2008,#2009,'');
#22=NEXT_ASSEMBLY_USAGE_OCCURRENCE('NAUO2','P2SSQ-103-01-T-S',
'P2SSQ-103-01-T-S',#2008,#2010,'');
#23=(
REPRESENTATION_RELATIONSHIP(' ',' ',#1276,#1275)
REPRESENTATION_RELATIONSHIP_WITH_TRANSFORMATION(#25)
SHAPE_REPRESENTATION_RELATIONSHIP()
);
#24=(
REPRESENTATION_RELATIONSHIP(' ',' ',#1277,#1275)
REPRESENTATION_RELATIONSHIP_WITH_TRANSFORMATION(#26)
SHAPE_REPRESENTATION_RELATIONSHIP()
);
#25=ITEM_DEFINED_TRANSFORMATION(' ',' ',#1278,#1309);
#26=ITEM_DEFINED_TRANSFORMATION(' ',' ',#1278,#1343);
#27=SHAPE_REPRESENTATION_RELATIONSHIP('','',#1276,#29);
#28=SHAPE_REPRESENTATION_RELATIONSHIP('','',#1277,#30);
#29=ADVANCED_BREP_SHAPE_REPRESENTATION('',(#1270),#1992);
#30=ADVANCED_BREP_SHAPE_REPRESENTATION('',(#1271),#1993);
#31=ORIENTED_EDGE('',*,*,#367,.F.);
#32=ORIENTED_EDGE('',*,*,#368,.F.);
#33=ORIENTED_EDGE('',*,*,#369,.F.);
#34=ORIENTED_EDGE('',*,*,#370,.T.);
#35=ORIENTED_EDGE('',*,*,#371,.F.);
#36=ORIENTED_EDGE('',*,*,#372,.F.);
#37=ORIENTED_EDGE('',*,*,#373,.F.);
#38=ORIENTED_EDGE('',*,*,#374,.T.);
#39=ORIENTED_EDGE('',*,*,#375,.F.);
#40=ORIENTED_EDGE('',*,*,#376,.F.);
#41=ORIENTED_EDGE('',*,*,#377,.F.);
#42=ORIENTED_EDGE('',*,*,#378,.T.);
#43=ORIENTED_EDGE('',*,*,#379,.F.);
#44=ORIENTED_EDGE('',*,*,#380,.F.);
#45=ORIENTED_EDGE('',*,*,#381,.T.);
#46=ORIENTED_EDGE('',*,*,#382,.T.);
#47=ORIENTED_EDGE('',*,*,#383,.F.);
#48=ORIENTED_EDGE('',*,*,#384,.T.);
#49=ORIENTED_EDGE('',*,*,#385,.F.);
#50=ORIENTED_EDGE('',*,*,#386,.F.);
#51=ORIENTED_EDGE('',*,*,#387,.T.);
#52=ORIENTED_EDGE('',*,*,#388,.T.);
#53=ORIENTED_EDGE('',*,*,#389,.F.);
#54=ORIENTED_EDGE('',*,*,#390,.F.);
#55=ORIENTED_EDGE('',*,*,#391,.F.);
#56=ORIENTED_EDGE('',*,*,#392,.T.);
#57=ORIENTED_EDGE('',*,*,#393,.F.);
#58=ORIENTED_EDGE('',*,*,#394,.F.);
#59=ORIENTED_EDGE('',*,*,#395,.F.);
#60=ORIENTED_EDGE('',*,*,#396,.T.);
#61=ORIENTED_EDGE('',*,*,#397,.F.);
#62=ORIENTED_EDGE('',*,*,#398,.F.);
#63=ORIENTED_EDGE('',*,*,#399,.T.);
#64=ORIENTED_EDGE('',*,*,#400,.T.);
#65=ORIENTED_EDGE('',*,*,#401,.F.);
#66=ORIENTED_EDGE('',*,*,#402,.T.);
#67=ORIENTED_EDGE('',*,*,#401,.T.);
#68=ORIENTED_EDGE('',*,*,#403,.T.);
#69=ORIENTED_EDGE('',*,*,#404,.F.);
#70=ORIENTED_EDGE('',*,*,#405,.T.);
#71=ORIENTED_EDGE('',*,*,#404,.T.);
#72=ORIENTED_EDGE('',*,*,#406,.T.);
#73=ORIENTED_EDGE('',*,*,#407,.F.);
#74=ORIENTED_EDGE('',*,*,#408,.T.);
#75=ORIENTED_EDGE('',*,*,#409,.T.);
#76=ORIENTED_EDGE('',*,*,#410,.T.);
#77=ORIENTED_EDGE('',*,*,#411,.F.);
#78=ORIENTED_EDGE('',*,*,#412,.T.);
#79=ORIENTED_EDGE('',*,*,#411,.T.);
#80=ORIENTED_EDGE('',*,*,#413,.T.);
#81=ORIENTED_EDGE('',*,*,#414,.F.);
#82=ORIENTED_EDGE('',*,*,#415,.T.);
#83=ORIENTED_EDGE('',*,*,#414,.T.);
#84=ORIENTED_EDGE('',*,*,#416,.T.);
#85=ORIENTED_EDGE('',*,*,#417,.F.);
#86=ORIENTED_EDGE('',*,*,#418,.T.);
#87=ORIENTED_EDGE('',*,*,#419,.T.);
#88=ORIENTED_EDGE('',*,*,#420,.T.);
#89=ORIENTED_EDGE('',*,*,#421,.F.);
#90=ORIENTED_EDGE('',*,*,#422,.T.);
#91=ORIENTED_EDGE('',*,*,#421,.T.);
#92=ORIENTED_EDGE('',*,*,#423,.T.);
#93=ORIENTED_EDGE('',*,*,#424,.F.);
#94=ORIENTED_EDGE('',*,*,#425,.T.);
#95=ORIENTED_EDGE('',*,*,#424,.T.);
#96=ORIENTED_EDGE('',*,*,#426,.T.);
#97=ORIENTED_EDGE('',*,*,#427,.F.);
#98=ORIENTED_EDGE('',*,*,#428,.T.);
#99=ORIENTED_EDGE('',*,*,#407,.T.);
#100=ORIENTED_EDGE('',*,*,#429,.T.);
#101=ORIENTED_EDGE('',*,*,#399,.F.);
#102=ORIENTED_EDGE('',*,*,#430,.T.);
#103=ORIENTED_EDGE('',*,*,#417,.T.);
#104=ORIENTED_EDGE('',*,*,#431,.T.);
#105=ORIENTED_EDGE('',*,*,#409,.F.);
#106=ORIENTED_EDGE('',*,*,#432,.T.);
#107=ORIENTED_EDGE('',*,*,#427,.T.);
#108=ORIENTED_EDGE('',*,*,#433,.T.);
#109=ORIENTED_EDGE('',*,*,#419,.F.);
#110=ORIENTED_EDGE('',*,*,#434,.T.);
#111=ORIENTED_EDGE('',*,*,#435,.F.);
#112=ORIENTED_EDGE('',*,*,#388,.F.);
#113=ORIENTED_EDGE('',*,*,#436,.F.);
#114=ORIENTED_EDGE('',*,*,#378,.F.);
#115=ORIENTED_EDGE('',*,*,#437,.F.);
#116=ORIENTED_EDGE('',*,*,#382,.F.);
#117=ORIENTED_EDGE('',*,*,#438,.F.);
#118=ORIENTED_EDGE('',*,*,#384,.F.);
#119=ORIENTED_EDGE('',*,*,#439,.F.);
#120=ORIENTED_EDGE('',*,*,#396,.F.);
#121=ORIENTED_EDGE('',*,*,#440,.F.);
#122=ORIENTED_EDGE('',*,*,#370,.F.);
#123=ORIENTED_EDGE('',*,*,#441,.F.);
#124=ORIENTED_EDGE('',*,*,#392,.F.);
#125=ORIENTED_EDGE('',*,*,#442,.F.);
#126=ORIENTED_EDGE('',*,*,#374,.F.);
#127=ORIENTED_EDGE('',*,*,#436,.T.);
#128=ORIENTED_EDGE('',*,*,#387,.F.);
#129=ORIENTED_EDGE('',*,*,#443,.F.);
#130=ORIENTED_EDGE('',*,*,#379,.T.);
#131=ORIENTED_EDGE('',*,*,#438,.T.);
#132=ORIENTED_EDGE('',*,*,#381,.F.);
#133=ORIENTED_EDGE('',*,*,#444,.F.);
#134=ORIENTED_EDGE('',*,*,#385,.T.);
#135=ORIENTED_EDGE('',*,*,#422,.F.);
#136=ORIENTED_EDGE('',*,*,#425,.F.);
#137=ORIENTED_EDGE('',*,*,#428,.F.);
#138=ORIENTED_EDGE('',*,*,#434,.F.);
#139=ORIENTED_EDGE('',*,*,#412,.F.);
#140=ORIENTED_EDGE('',*,*,#415,.F.);
#141=ORIENTED_EDGE('',*,*,#418,.F.);
#142=ORIENTED_EDGE('',*,*,#432,.F.);
#143=ORIENTED_EDGE('',*,*,#402,.F.);
#144=ORIENTED_EDGE('',*,*,#405,.F.);
#145=ORIENTED_EDGE('',*,*,#408,.F.);
#146=ORIENTED_EDGE('',*,*,#430,.F.);
#147=ORIENTED_EDGE('',*,*,#380,.T.);
#148=ORIENTED_EDGE('',*,*,#443,.T.);
#149=ORIENTED_EDGE('',*,*,#386,.T.);
#150=ORIENTED_EDGE('',*,*,#444,.T.);
#151=ORIENTED_EDGE('',*,*,#375,.T.);
#152=ORIENTED_EDGE('',*,*,#442,.T.);
#153=ORIENTED_EDGE('',*,*,#391,.T.);
#154=ORIENTED_EDGE('',*,*,#445,.T.);
#155=ORIENTED_EDGE('',*,*,#377,.T.);
#156=ORIENTED_EDGE('',*,*,#446,.F.);
#157=ORIENTED_EDGE('',*,*,#389,.T.);
#158=ORIENTED_EDGE('',*,*,#435,.T.);
#159=ORIENTED_EDGE('',*,*,#433,.F.);
#160=ORIENTED_EDGE('',*,*,#426,.F.);
#161=ORIENTED_EDGE('',*,*,#423,.F.);
#162=ORIENTED_EDGE('',*,*,#420,.F.);
#163=ORIENTED_EDGE('',*,*,#376,.T.);
#164=ORIENTED_EDGE('',*,*,#445,.F.);
#165=ORIENTED_EDGE('',*,*,#390,.T.);
#166=ORIENTED_EDGE('',*,*,#446,.T.);
#167=ORIENTED_EDGE('',*,*,#371,.T.);
#168=ORIENTED_EDGE('',*,*,#440,.T.);
#169=ORIENTED_EDGE('',*,*,#395,.T.);
#170=ORIENTED_EDGE('',*,*,#447,.T.);
#171=ORIENTED_EDGE('',*,*,#373,.T.);
#172=ORIENTED_EDGE('',*,*,#448,.F.);
#173=ORIENTED_EDGE('',*,*,#393,.T.);
#174=ORIENTED_EDGE('',*,*,#441,.T.);
#175=ORIENTED_EDGE('',*,*,#431,.F.);
#176=ORIENTED_EDGE('',*,*,#416,.F.);
#177=ORIENTED_EDGE('',*,*,#413,.F.);
#178=ORIENTED_EDGE('',*,*,#410,.F.);
#179=ORIENTED_EDGE('',*,*,#372,.T.);
#180=ORIENTED_EDGE('',*,*,#447,.F.);
#181=ORIENTED_EDGE('',*,*,#394,.T.);
#182=ORIENTED_EDGE('',*,*,#448,.T.);
#183=ORIENTED_EDGE('',*,*,#429,.F.);
#184=ORIENTED_EDGE('',*,*,#406,.F.);
#185=ORIENTED_EDGE('',*,*,#403,.F.);
#186=ORIENTED_EDGE('',*,*,#400,.F.);
#187=ORIENTED_EDGE('',*,*,#368,.T.);
#188=ORIENTED_EDGE('',*,*,#449,.F.);
#189=ORIENTED_EDGE('',*,*,#398,.T.);
#190=ORIENTED_EDGE('',*,*,#450,.T.);
#191=ORIENTED_EDGE('',*,*,#367,.T.);
#192=ORIENTED_EDGE('',*,*,#437,.T.);
#193=ORIENTED_EDGE('',*,*,#383,.T.);
#194=ORIENTED_EDGE('',*,*,#449,.T.);
#195=ORIENTED_EDGE('',*,*,#369,.T.);
#196=ORIENTED_EDGE('',*,*,#450,.F.);
#197=ORIENTED_EDGE('',*,*,#397,.T.);
#198=ORIENTED_EDGE('',*,*,#439,.T.);
#199=ORIENTED_EDGE('',*,*,#451,.F.);
#200=ORIENTED_EDGE('',*,*,#452,.F.);
#201=ORIENTED_EDGE('',*,*,#453,.F.);
#202=ORIENTED_EDGE('',*,*,#454,.F.);
#203=ORIENTED_EDGE('',*,*,#455,.F.);
#204=ORIENTED_EDGE('',*,*,#456,.F.);
#205=ORIENTED_EDGE('',*,*,#457,.F.);
#206=ORIENTED_EDGE('',*,*,#458,.F.);
#207=ORIENTED_EDGE('',*,*,#459,.F.);
#208=ORIENTED_EDGE('',*,*,#460,.F.);
#209=ORIENTED_EDGE('',*,*,#461,.F.);
#210=ORIENTED_EDGE('',*,*,#462,.F.);
#211=ORIENTED_EDGE('',*,*,#463,.F.);
#212=ORIENTED_EDGE('',*,*,#464,.F.);
#213=ORIENTED_EDGE('',*,*,#465,.F.);
#214=ORIENTED_EDGE('',*,*,#466,.F.);
#215=ORIENTED_EDGE('',*,*,#467,.F.);
#216=ORIENTED_EDGE('',*,*,#468,.F.);
#217=ORIENTED_EDGE('',*,*,#469,.F.);
#218=ORIENTED_EDGE('',*,*,#470,.T.);
#219=ORIENTED_EDGE('',*,*,#471,.F.);
#220=ORIENTED_EDGE('',*,*,#472,.F.);
#221=ORIENTED_EDGE('',*,*,#473,.F.);
#222=ORIENTED_EDGE('',*,*,#474,.F.);
#223=ORIENTED_EDGE('',*,*,#475,.F.);
#224=ORIENTED_EDGE('',*,*,#476,.T.);
#225=ORIENTED_EDGE('',*,*,#477,.F.);
#226=ORIENTED_EDGE('',*,*,#478,.F.);
#227=ORIENTED_EDGE('',*,*,#479,.F.);
#228=ORIENTED_EDGE('',*,*,#480,.F.);
#229=ORIENTED_EDGE('',*,*,#481,.F.);
#230=ORIENTED_EDGE('',*,*,#482,.F.);
#231=ORIENTED_EDGE('',*,*,#483,.F.);
#232=ORIENTED_EDGE('',*,*,#484,.F.);
#233=ORIENTED_EDGE('',*,*,#485,.F.);
#234=ORIENTED_EDGE('',*,*,#486,.T.);
#235=ORIENTED_EDGE('',*,*,#487,.F.);
#236=ORIENTED_EDGE('',*,*,#488,.T.);
#237=ORIENTED_EDGE('',*,*,#489,.T.);
#238=ORIENTED_EDGE('',*,*,#490,.F.);
#239=ORIENTED_EDGE('',*,*,#491,.F.);
#240=ORIENTED_EDGE('',*,*,#492,.T.);
#241=ORIENTED_EDGE('',*,*,#493,.T.);
#242=ORIENTED_EDGE('',*,*,#494,.F.);
#243=ORIENTED_EDGE('',*,*,#495,.T.);
#244=ORIENTED_EDGE('',*,*,#496,.F.);
#245=ORIENTED_EDGE('',*,*,#497,.F.);
#246=ORIENTED_EDGE('',*,*,#498,.T.);
#247=ORIENTED_EDGE('',*,*,#482,.T.);
#248=ORIENTED_EDGE('',*,*,#499,.T.);
#249=ORIENTED_EDGE('',*,*,#468,.T.);
#250=ORIENTED_EDGE('',*,*,#500,.T.);
#251=ORIENTED_EDGE('',*,*,#466,.T.);
#252=ORIENTED_EDGE('',*,*,#501,.T.);
#253=ORIENTED_EDGE('',*,*,#484,.T.);
#254=ORIENTED_EDGE('',*,*,#502,.F.);
#255=ORIENTED_EDGE('',*,*,#478,.T.);
#256=ORIENTED_EDGE('',*,*,#503,.T.);
#257=ORIENTED_EDGE('',*,*,#460,.T.);
#258=ORIENTED_EDGE('',*,*,#504,.T.);
#259=ORIENTED_EDGE('',*,*,#458,.T.);
#260=ORIENTED_EDGE('',*,*,#505,.T.);
#261=ORIENTED_EDGE('',*,*,#480,.T.);
#262=ORIENTED_EDGE('',*,*,#506,.F.);
#263=ORIENTED_EDGE('',*,*,#472,.T.);
#264=ORIENTED_EDGE('',*,*,#507,.T.);
#265=ORIENTED_EDGE('',*,*,#454,.T.);
#266=ORIENTED_EDGE('',*,*,#508,.T.);
#267=ORIENTED_EDGE('',*,*,#452,.T.);
#268=ORIENTED_EDGE('',*,*,#509,.T.);
#269=ORIENTED_EDGE('',*,*,#474,.T.);
#270=ORIENTED_EDGE('',*,*,#510,.F.);
#271=ORIENTED_EDGE('',*,*,#470,.F.);
#272=ORIENTED_EDGE('',*,*,#511,.T.);
#273=ORIENTED_EDGE('',*,*,#490,.T.);
#274=ORIENTED_EDGE('',*,*,#512,.T.);
#275=ORIENTED_EDGE('',*,*,#488,.F.);
#276=ORIENTED_EDGE('',*,*,#513,.T.);
#277=ORIENTED_EDGE('',*,*,#456,.T.);
#278=ORIENTED_EDGE('',*,*,#514,.T.);
#279=ORIENTED_EDGE('',*,*,#476,.F.);
#280=ORIENTED_EDGE('',*,*,#515,.T.);
#281=ORIENTED_EDGE('',*,*,#494,.T.);
#282=ORIENTED_EDGE('',*,*,#516,.T.);
#283=ORIENTED_EDGE('',*,*,#492,.F.);
#284=ORIENTED_EDGE('',*,*,#517,.T.);
#285=ORIENTED_EDGE('',*,*,#462,.T.);
#286=ORIENTED_EDGE('',*,*,#518,.T.);
#287=ORIENTED_EDGE('',*,*,#496,.T.);
#288=ORIENTED_EDGE('',*,*,#519,.T.);
#289=ORIENTED_EDGE('',*,*,#486,.F.);
#290=ORIENTED_EDGE('',*,*,#520,.T.);
#291=ORIENTED_EDGE('',*,*,#464,.T.);
#292=ORIENTED_EDGE('',*,*,#521,.T.);
#293=ORIENTED_EDGE('',*,*,#498,.F.);
#294=ORIENTED_EDGE('',*,*,#522,.T.);
#295=ORIENTED_EDGE('',*,*,#523,.T.);
#296=ORIENTED_EDGE('',*,*,#524,.F.);
#297=ORIENTED_EDGE('',*,*,#525,.F.);
#298=ORIENTED_EDGE('',*,*,#526,.T.);
#299=ORIENTED_EDGE('',*,*,#527,.T.);
#300=ORIENTED_EDGE('',*,*,#528,.F.);
#301=ORIENTED_EDGE('',*,*,#529,.F.);
#302=ORIENTED_EDGE('',*,*,#524,.T.);
#303=ORIENTED_EDGE('',*,*,#530,.T.);
#304=ORIENTED_EDGE('',*,*,#531,.F.);
#305=ORIENTED_EDGE('',*,*,#532,.F.);
#306=ORIENTED_EDGE('',*,*,#528,.T.);
#307=ORIENTED_EDGE('',*,*,#533,.T.);
#308=ORIENTED_EDGE('',*,*,#526,.F.);
#309=ORIENTED_EDGE('',*,*,#534,.F.);
#310=ORIENTED_EDGE('',*,*,#531,.T.);
#311=ORIENTED_EDGE('',*,*,#508,.F.);
#312=ORIENTED_EDGE('',*,*,#453,.T.);
#313=ORIENTED_EDGE('',*,*,#510,.T.);
#314=ORIENTED_EDGE('',*,*,#473,.T.);
#315=ORIENTED_EDGE('',*,*,#504,.F.);
#316=ORIENTED_EDGE('',*,*,#459,.T.);
#317=ORIENTED_EDGE('',*,*,#506,.T.);
#318=ORIENTED_EDGE('',*,*,#479,.T.);
#319=ORIENTED_EDGE('',*,*,#500,.F.);
#320=ORIENTED_EDGE('',*,*,#467,.T.);
#321=ORIENTED_EDGE('',*,*,#502,.T.);
#322=ORIENTED_EDGE('',*,*,#483,.T.);
#323=ORIENTED_EDGE('',*,*,#527,.F.);
#324=ORIENTED_EDGE('',*,*,#523,.F.);
#325=ORIENTED_EDGE('',*,*,#533,.F.);
#326=ORIENTED_EDGE('',*,*,#530,.F.);
#327=ORIENTED_EDGE('',*,*,#525,.T.);
#328=ORIENTED_EDGE('',*,*,#529,.T.);
#329=ORIENTED_EDGE('',*,*,#532,.T.);
#330=ORIENTED_EDGE('',*,*,#534,.T.);
#331=ORIENTED_EDGE('',*,*,#485,.T.);
#332=ORIENTED_EDGE('',*,*,#501,.F.);
#333=ORIENTED_EDGE('',*,*,#465,.T.);
#334=ORIENTED_EDGE('',*,*,#522,.F.);
#335=ORIENTED_EDGE('',*,*,#497,.T.);
#336=ORIENTED_EDGE('',*,*,#520,.F.);
#337=ORIENTED_EDGE('',*,*,#495,.F.);
#338=ORIENTED_EDGE('',*,*,#521,.F.);
#339=ORIENTED_EDGE('',*,*,#463,.T.);
#340=ORIENTED_EDGE('',*,*,#499,.F.);
#341=ORIENTED_EDGE('',*,*,#481,.T.);
#342=ORIENTED_EDGE('',*,*,#519,.F.);
#343=ORIENTED_EDGE('',*,*,#493,.F.);
#344=ORIENTED_EDGE('',*,*,#518,.F.);
#345=ORIENTED_EDGE('',*,*,#461,.T.);
#346=ORIENTED_EDGE('',*,*,#503,.F.);
#347=ORIENTED_EDGE('',*,*,#477,.T.);
#348=ORIENTED_EDGE('',*,*,#516,.F.);
#349=ORIENTED_EDGE('',*,*,#475,.T.);
#350=ORIENTED_EDGE('',*,*,#505,.F.);
#351=ORIENTED_EDGE('',*,*,#457,.T.);
#352=ORIENTED_EDGE('',*,*,#517,.F.);
#353=ORIENTED_EDGE('',*,*,#491,.T.);
#354=ORIENTED_EDGE('',*,*,#515,.F.);
#355=ORIENTED_EDGE('',*,*,#489,.F.);
#356=ORIENTED_EDGE('',*,*,#514,.F.);
#357=ORIENTED_EDGE('',*,*,#455,.T.);
#358=ORIENTED_EDGE('',*,*,#507,.F.);
#359=ORIENTED_EDGE('',*,*,#471,.T.);
#360=ORIENTED_EDGE('',*,*,#512,.F.);
#361=ORIENTED_EDGE('',*,*,#469,.T.);
#362=ORIENTED_EDGE('',*,*,#509,.F.);
#363=ORIENTED_EDGE('',*,*,#451,.T.);
#364=ORIENTED_EDGE('',*,*,#513,.F.);
#365=ORIENTED_EDGE('',*,*,#487,.T.);
#366=ORIENTED_EDGE('',*,*,#511,.F.);
#367=EDGE_CURVE('',#535,#536,#647,.T.);
#368=EDGE_CURVE('',#537,#535,#648,.T.);
#369=EDGE_CURVE('',#538,#537,#649,.T.);
#370=EDGE_CURVE('',#538,#539,#650,.T.);
#371=EDGE_CURVE('',#540,#539,#651,.T.);
#372=EDGE_CURVE('',#541,#540,#652,.T.);
#373=EDGE_CURVE('',#542,#541,#653,.T.);
#374=EDGE_CURVE('',#542,#543,#654,.T.);
#375=EDGE_CURVE('',#544,#543,#655,.T.);
#376=EDGE_CURVE('',#545,#544,#656,.T.);
#377=EDGE_CURVE('',#546,#545,#657,.T.);
#378=EDGE_CURVE('',#546,#547,#658,.T.);
#379=EDGE_CURVE('',#548,#547,#659,.T.);
#380=EDGE_CURVE('',#549,#548,#660,.T.);
#381=EDGE_CURVE('',#549,#550,#661,.T.);
#382=EDGE_CURVE('',#550,#536,#662,.T.);
#383=EDGE_CURVE('',#551,#552,#663,.T.);
#384=EDGE_CURVE('',#551,#553,#664,.T.);
#385=EDGE_CURVE('',#554,#553,#665,.T.);
#386=EDGE_CURVE('',#555,#554,#666,.T.);
#387=EDGE_CURVE('',#555,#556,#667,.T.);
#388=EDGE_CURVE('',#556,#557,#668,.T.);
#389=EDGE_CURVE('',#558,#557,#669,.T.);
#390=EDGE_CURVE('',#559,#558,#670,.T.);
#391=EDGE_CURVE('',#560,#559,#671,.T.);
#392=EDGE_CURVE('',#560,#561,#672,.T.);
#393=EDGE_CURVE('',#562,#561,#673,.T.);
#394=EDGE_CURVE('',#563,#562,#674,.T.);
#395=EDGE_CURVE('',#564,#563,#675,.T.);
#396=EDGE_CURVE('',#564,#565,#676,.T.);
#397=EDGE_CURVE('',#566,#565,#677,.T.);
#398=EDGE_CURVE('',#552,#566,#678,.T.);
#399=EDGE_CURVE('',#567,#568,#679,.T.);
#400=EDGE_CURVE('',#568,#569,#680,.T.);
#401=EDGE_CURVE('',#570,#569,#681,.T.);
#402=EDGE_CURVE('',#570,#567,#682,.T.);
#403=EDGE_CURVE('',#569,#571,#683,.T.);
#404=EDGE_CURVE('',#572,#571,#684,.T.);
#405=EDGE_CURVE('',#572,#570,#685,.T.);
#406=EDGE_CURVE('',#571,#573,#686,.T.);
#407=EDGE_CURVE('',#574,#573,#687,.T.);
#408=EDGE_CURVE('',#574,#572,#688,.T.);
#409=EDGE_CURVE('',#575,#576,#689,.T.);
#410=EDGE_CURVE('',#576,#577,#690,.T.);
#411=EDGE_CURVE('',#578,#577,#691,.T.);
#412=EDGE_CURVE('',#578,#575,#692,.T.);
#413=EDGE_CURVE('',#577,#579,#693,.T.);
#414=EDGE_CURVE('',#580,#579,#694,.T.);
#415=EDGE_CURVE('',#580,#578,#695,.T.);
#416=EDGE_CURVE('',#579,#581,#696,.T.);
#417=EDGE_CURVE('',#582,#581,#697,.T.);
#418=EDGE_CURVE('',#582,#580,#698,.T.);
#419=EDGE_CURVE('',#583,#584,#699,.T.);
#420=EDGE_CURVE('',#584,#585,#700,.T.);
#421=EDGE_CURVE('',#586,#585,#701,.T.);
#422=EDGE_CURVE('',#586,#583,#702,.T.);
#423=EDGE_CURVE('',#585,#587,#703,.T.);
#424=EDGE_CURVE('',#588,#587,#704,.T.);
#425=EDGE_CURVE('',#588,#586,#705,.T.);
#426=EDGE_CURVE('',#587,#589,#706,.T.);
#427=EDGE_CURVE('',#590,#589,#707,.T.);
#428=EDGE_CURVE('',#590,#588,#708,.T.);
#429=EDGE_CURVE('',#573,#568,#709,.T.);
#430=EDGE_CURVE('',#567,#574,#710,.T.);
#431=EDGE_CURVE('',#581,#576,#711,.T.);
#432=EDGE_CURVE('',#575,#582,#712,.T.);
#433=EDGE_CURVE('',#589,#584,#713,.T.);
#434=EDGE_CURVE('',#583,#590,#714,.T.);
#435=EDGE_CURVE('',#557,#546,#715,.T.);
#436=EDGE_CURVE('',#547,#556,#716,.T.);
#437=EDGE_CURVE('',#536,#551,#717,.T.);
#438=EDGE_CURVE('',#553,#550,#718,.T.);
#439=EDGE_CURVE('',#565,#538,#719,.T.);
#440=EDGE_CURVE('',#539,#564,#720,.T.);
#441=EDGE_CURVE('',#561,#542,#721,.T.);
#442=EDGE_CURVE('',#543,#560,#722,.T.);
#443=EDGE_CURVE('',#548,#555,#723,.T.);
#444=EDGE_CURVE('',#554,#549,#724,.T.);
#445=EDGE_CURVE('',#559,#544,#725,.T.);
#446=EDGE_CURVE('',#558,#545,#726,.T.);
#447=EDGE_CURVE('',#563,#540,#727,.T.);
#448=EDGE_CURVE('',#562,#541,#728,.T.);
#449=EDGE_CURVE('',#552,#535,#729,.T.);
#450=EDGE_CURVE('',#566,#537,#730,.T.);
#451=EDGE_CURVE('',#591,#592,#731,.T.);
#452=EDGE_CURVE('',#593,#591,#732,.T.);
#453=EDGE_CURVE('',#594,#593,#733,.T.);
#454=EDGE_CURVE('',#595,#594,#734,.T.);
#455=EDGE_CURVE('',#596,#595,#735,.T.);
#456=EDGE_CURVE('',#592,#596,#736,.T.);
#457=EDGE_CURVE('',#597,#598,#737,.T.);
#458=EDGE_CURVE('',#599,#597,#738,.T.);
#459=EDGE_CURVE('',#600,#599,#739,.T.);
#460=EDGE_CURVE('',#601,#600,#740,.T.);
#461=EDGE_CURVE('',#602,#601,#741,.T.);
#462=EDGE_CURVE('',#598,#602,#742,.T.);
#463=EDGE_CURVE('',#603,#604,#743,.T.);
#464=EDGE_CURVE('',#605,#603,#744,.T.);
#465=EDGE_CURVE('',#606,#605,#745,.T.);
#466=EDGE_CURVE('',#607,#606,#746,.T.);
#467=EDGE_CURVE('',#608,#607,#747,.T.);
#468=EDGE_CURVE('',#604,#608,#748,.T.);
#469=EDGE_CURVE('',#609,#610,#749,.T.);
#470=EDGE_CURVE('',#609,#611,#750,.T.);
#471=EDGE_CURVE('',#612,#611,#751,.T.);
#472=EDGE_CURVE('',#613,#612,#752,.T.);
#473=EDGE_CURVE('',#614,#613,#753,.T.);
#474=EDGE_CURVE('',#610,#614,#754,.T.);
#475=EDGE_CURVE('',#615,#616,#755,.T.);
#476=EDGE_CURVE('',#615,#617,#756,.T.);
#477=EDGE_CURVE('',#618,#617,#757,.T.);
#478=EDGE_CURVE('',#619,#618,#758,.T.);
#479=EDGE_CURVE('',#620,#619,#759,.T.);
#480=EDGE_CURVE('',#616,#620,#760,.T.);
#481=EDGE_CURVE('',#621,#622,#761,.T.);
#482=EDGE_CURVE('',#623,#621,#762,.T.);
#483=EDGE_CURVE('',#624,#623,#763,.T.);
#484=EDGE_CURVE('',#625,#624,#764,.T.);
#485=EDGE_CURVE('',#626,#625,#765,.T.);
#486=EDGE_CURVE('',#626,#622,#766,.T.);
#487=EDGE_CURVE('',#627,#628,#767,.T.);
#488=EDGE_CURVE('',#627,#629,#768,.T.);
#489=EDGE_CURVE('',#629,#630,#769,.T.);
#490=EDGE_CURVE('',#628,#630,#770,.T.);
#491=EDGE_CURVE('',#631,#632,#771,.T.);
#492=EDGE_CURVE('',#631,#633,#772,.T.);
#493=EDGE_CURVE('',#633,#634,#773,.T.);
#494=EDGE_CURVE('',#632,#634,#774,.T.);
#495=EDGE_CURVE('',#635,#636,#775,.T.);
#496=EDGE_CURVE('',#637,#636,#776,.T.);
#497=EDGE_CURVE('',#638,#637,#777,.T.);
#498=EDGE_CURVE('',#638,#635,#778,.T.);
#499=EDGE_CURVE('',#621,#604,#779,.T.);
#500=EDGE_CURVE('',#608,#623,#780,.T.);
#501=EDGE_CURVE('',#606,#625,#781,.T.);
#502=EDGE_CURVE('',#607,#624,#782,.T.);
#503=EDGE_CURVE('',#618,#601,#783,.T.);
#504=EDGE_CURVE('',#600,#619,#784,.T.);
#505=EDGE_CURVE('',#597,#616,#785,.T.);
#506=EDGE_CURVE('',#599,#620,#786,.T.);
#507=EDGE_CURVE('',#612,#595,#787,.T.);
#508=EDGE_CURVE('',#594,#613,#788,.T.);
#509=EDGE_CURVE('',#591,#610,#789,.T.);
#510=EDGE_CURVE('',#593,#614,#790,.T.);
#511=EDGE_CURVE('',#609,#628,#791,.T.);
#512=EDGE_CURVE('',#630,#611,#792,.T.);
#513=EDGE_CURVE('',#627,#592,#793,.T.);
#514=EDGE_CURVE('',#596,#629,#794,.T.);
#515=EDGE_CURVE('',#615,#632,#795,.T.);
#516=EDGE_CURVE('',#634,#617,#796,.T.);
#517=EDGE_CURVE('',#631,#598,#797,.T.);
#518=EDGE_CURVE('',#602,#633,#798,.T.);
#519=EDGE_CURVE('',#636,#622,#799,.T.);
#520=EDGE_CURVE('',#626,#637,#800,.T.);
#521=EDGE_CURVE('',#603,#635,#801,.T.);
#522=EDGE_CURVE('',#638,#605,#802,.T.);
#523=EDGE_CURVE('',#639,#640,#803,.T.);
#524=EDGE_CURVE('',#641,#640,#804,.T.);
#525=EDGE_CURVE('',#642,#641,#805,.T.);
#526=EDGE_CURVE('',#642,#639,#806,.T.);
#527=EDGE_CURVE('',#640,#643,#807,.T.);
#528=EDGE_CURVE('',#644,#643,#808,.T.);
#529=EDGE_CURVE('',#641,#644,#809,.T.);
#530=EDGE_CURVE('',#643,#645,#810,.T.);
#531=EDGE_CURVE('',#646,#645,#811,.T.);
#532=EDGE_CURVE('',#644,#646,#812,.T.);
#533=EDGE_CURVE('',#645,#639,#813,.T.);
#534=EDGE_CURVE('',#646,#642,#814,.T.);
#535=VERTEX_POINT('',#1647);
#536=VERTEX_POINT('',#1648);
#537=VERTEX_POINT('',#1650);
#538=VERTEX_POINT('',#1652);
#539=VERTEX_POINT('',#1654);
#540=VERTEX_POINT('',#1656);
#541=VERTEX_POINT('',#1658);
#542=VERTEX_POINT('',#1660);
#543=VERTEX_POINT('',#1662);
#544=VERTEX_POINT('',#1664);
#545=VERTEX_POINT('',#1666);
#546=VERTEX_POINT('',#1668);
#547=VERTEX_POINT('',#1670);
#548=VERTEX_POINT('',#1672);
#549=VERTEX_POINT('',#1674);
#550=VERTEX_POINT('',#1676);
#551=VERTEX_POINT('',#1680);
#552=VERTEX_POINT('',#1681);
#553=VERTEX_POINT('',#1683);
#554=VERTEX_POINT('',#1685);
#555=VERTEX_POINT('',#1687);
#556=VERTEX_POINT('',#1689);
#557=VERTEX_POINT('',#1691);
#558=VERTEX_POINT('',#1693);
#559=VERTEX_POINT('',#1695);
#560=VERTEX_POINT('',#1697);
#561=VERTEX_POINT('',#1699);
#562=VERTEX_POINT('',#1701);
#563=VERTEX_POINT('',#1703);
#564=VERTEX_POINT('',#1705);
#565=VERTEX_POINT('',#1707);
#566=VERTEX_POINT('',#1709);
#567=VERTEX_POINT('',#1713);
#568=VERTEX_POINT('',#1714);
#569=VERTEX_POINT('',#1716);
#570=VERTEX_POINT('',#1718);
#571=VERTEX_POINT('',#1722);
#572=VERTEX_POINT('',#1724);
#573=VERTEX_POINT('',#1728);
#574=VERTEX_POINT('',#1730);
#575=VERTEX_POINT('',#1734);
#576=VERTEX_POINT('',#1735);
#577=VERTEX_POINT('',#1737);
#578=VERTEX_POINT('',#1739);
#579=VERTEX_POINT('',#1743);
#580=VERTEX_POINT('',#1745);
#581=VERTEX_POINT('',#1749);
#582=VERTEX_POINT('',#1751);
#583=VERTEX_POINT('',#1755);
#584=VERTEX_POINT('',#1756);
#585=VERTEX_POINT('',#1758);
#586=VERTEX_POINT('',#1760);
#587=VERTEX_POINT('',#1764);
#588=VERTEX_POINT('',#1766);
#589=VERTEX_POINT('',#1770);
#590=VERTEX_POINT('',#1772);
#591=VERTEX_POINT('',#1818);
#592=VERTEX_POINT('',#1819);
#593=VERTEX_POINT('',#1821);
#594=VERTEX_POINT('',#1823);
#595=VERTEX_POINT('',#1825);
#596=VERTEX_POINT('',#1827);
#597=VERTEX_POINT('',#1831);
#598=VERTEX_POINT('',#1832);
#599=VERTEX_POINT('',#1834);
#600=VERTEX_POINT('',#1836);
#601=VERTEX_POINT('',#1838);
#602=VERTEX_POINT('',#1840);
#603=VERTEX_POINT('',#1844);
#604=VERTEX_POINT('',#1845);
#605=VERTEX_POINT('',#1847);
#606=VERTEX_POINT('',#1849);
#607=VERTEX_POINT('',#1851);
#608=VERTEX_POINT('',#1853);
#609=VERTEX_POINT('',#1857);
#610=VERTEX_POINT('',#1858);
#611=VERTEX_POINT('',#1860);
#612=VERTEX_POINT('',#1862);
#613=VERTEX_POINT('',#1864);
#614=VERTEX_POINT('',#1866);
#615=VERTEX_POINT('',#1870);
#616=VERTEX_POINT('',#1871);
#617=VERTEX_POINT('',#1873);
#618=VERTEX_POINT('',#1875);
#619=VERTEX_POINT('',#1877);
#620=VERTEX_POINT('',#1879);
#621=VERTEX_POINT('',#1883);
#622=VERTEX_POINT('',#1884);
#623=VERTEX_POINT('',#1886);
#624=VERTEX_POINT('',#1888);
#625=VERTEX_POINT('',#1890);
#626=VERTEX_POINT('',#1892);
#627=VERTEX_POINT('',#1896);
#628=VERTEX_POINT('',#1897);
#629=VERTEX_POINT('',#1899);
#630=VERTEX_POINT('',#1901);
#631=VERTEX_POINT('',#1905);
#632=VERTEX_POINT('',#1906);
#633=VERTEX_POINT('',#1908);
#634=VERTEX_POINT('',#1910);
#635=VERTEX_POINT('',#1914);
#636=VERTEX_POINT('',#1915);
#637=VERTEX_POINT('',#1917);
#638=VERTEX_POINT('',#1919);
#639=VERTEX_POINT('',#1959);
#640=VERTEX_POINT('',#1960);
#641=VERTEX_POINT('',#1962);
#642=VERTEX_POINT('',#1964);
#643=VERTEX_POINT('',#1968);
#644=VERTEX_POINT('',#1970);
#645=VERTEX_POINT('',#1974);
#646=VERTEX_POINT('',#1976);
#647=LINE('',#1646,#815);
#648=LINE('',#1649,#816);
#649=LINE('',#1651,#817);
#650=LINE('',#1653,#818);
#651=LINE('',#1655,#819);
#652=LINE('',#1657,#820);
#653=LINE('',#1659,#821);
#654=LINE('',#1661,#822);
#655=LINE('',#1663,#823);
#656=LINE('',#1665,#824);
#657=LINE('',#1667,#825);
#658=LINE('',#1669,#826);
#659=LINE('',#1671,#827);
#660=LINE('',#1673,#828);
#661=LINE('',#1675,#829);
#662=LINE('',#1677,#830);
#663=LINE('',#1679,#831);
#664=LINE('',#1682,#832);
#665=LINE('',#1684,#833);
#666=LINE('',#1686,#834);
#667=LINE('',#1688,#835);
#668=LINE('',#1690,#836);
#669=LINE('',#1692,#837);
#670=LINE('',#1694,#838);
#671=LINE('',#1696,#839);
#672=LINE('',#1698,#840);
#673=LINE('',#1700,#841);
#674=LINE('',#1702,#842);
#675=LINE('',#1704,#843);
#676=LINE('',#1706,#844);
#677=LINE('',#1708,#845);
#678=LINE('',#1710,#846);
#679=LINE('',#1712,#847);
#680=LINE('',#1715,#848);
#681=LINE('',#1717,#849);
#682=LINE('',#1719,#850);
#683=LINE('',#1721,#851);
#684=LINE('',#1723,#852);
#685=LINE('',#1725,#853);
#686=LINE('',#1727,#854);
#687=LINE('',#1729,#855);
#688=LINE('',#1731,#856);
#689=LINE('',#1733,#857);
#690=LINE('',#1736,#858);
#691=LINE('',#1738,#859);
#692=LINE('',#1740,#860);
#693=LINE('',#1742,#861);
#694=LINE('',#1744,#862);
#695=LINE('',#1746,#863);
#696=LINE('',#1748,#864);
#697=LINE('',#1750,#865);
#698=LINE('',#1752,#866);
#699=LINE('',#1754,#867);
#700=LINE('',#1757,#868);
#701=LINE('',#1759,#869);
#702=LINE('',#1761,#870);
#703=LINE('',#1763,#871);
#704=LINE('',#1765,#872);
#705=LINE('',#1767,#873);
#706=LINE('',#1769,#874);
#707=LINE('',#1771,#875);
#708=LINE('',#1773,#876);
#709=LINE('',#1775,#877);
#710=LINE('',#1776,#878);
#711=LINE('',#1778,#879);
#712=LINE('',#1779,#880);
#713=LINE('',#1781,#881);
#714=LINE('',#1782,#882);
#715=LINE('',#1784,#883);
#716=LINE('',#1785,#884);
#717=LINE('',#1787,#885);
#718=LINE('',#1788,#886);
#719=LINE('',#1790,#887);
#720=LINE('',#1791,#888);
#721=LINE('',#1793,#889);
#722=LINE('',#1794,#890);
#723=LINE('',#1796,#891);
#724=LINE('',#1798,#892);
#725=LINE('',#1801,#893);
#726=LINE('',#1803,#894);
#727=LINE('',#1806,#895);
#728=LINE('',#1808,#896);
#729=LINE('',#1811,#897);
#730=LINE('',#1812,#898);
#731=LINE('',#1817,#899);
#732=LINE('',#1820,#900);
#733=LINE('',#1822,#901);
#734=LINE('',#1824,#902);
#735=LINE('',#1826,#903);
#736=LINE('',#1828,#904);
#737=LINE('',#1830,#905);
#738=LINE('',#1833,#906);
#739=LINE('',#1835,#907);
#740=LINE('',#1837,#908);
#741=LINE('',#1839,#909);
#742=LINE('',#1841,#910);
#743=LINE('',#1843,#911);
#744=LINE('',#1846,#912);
#745=LINE('',#1848,#913);
#746=LINE('',#1850,#914);
#747=LINE('',#1852,#915);
#748=LINE('',#1854,#916);
#749=LINE('',#1856,#917);
#750=LINE('',#1859,#918);
#751=LINE('',#1861,#919);
#752=LINE('',#1863,#920);
#753=LINE('',#1865,#921);
#754=LINE('',#1867,#922);
#755=LINE('',#1869,#923);
#756=LINE('',#1872,#924);
#757=LINE('',#1874,#925);
#758=LINE('',#1876,#926);
#759=LINE('',#1878,#927);
#760=LINE('',#1880,#928);
#761=LINE('',#1882,#929);
#762=LINE('',#1885,#930);
#763=LINE('',#1887,#931);
#764=LINE('',#1889,#932);
#765=LINE('',#1891,#933);
#766=LINE('',#1893,#934);
#767=LINE('',#1895,#935);
#768=LINE('',#1898,#936);
#769=LINE('',#1900,#937);
#770=LINE('',#1902,#938);
#771=LINE('',#1904,#939);
#772=LINE('',#1907,#940);
#773=LINE('',#1909,#941);
#774=LINE('',#1911,#942);
#775=LINE('',#1913,#943);
#776=LINE('',#1916,#944);
#777=LINE('',#1918,#945);
#778=LINE('',#1920,#946);
#779=LINE('',#1922,#947);
#780=LINE('',#1923,#948);
#781=LINE('',#1925,#949);
#782=LINE('',#1926,#950);
#783=LINE('',#1928,#951);
#784=LINE('',#1929,#952);
#785=LINE('',#1931,#953);
#786=LINE('',#1932,#954);
#787=LINE('',#1934,#955);
#788=LINE('',#1935,#956);
#789=LINE('',#1937,#957);
#790=LINE('',#1938,#958);
#791=LINE('',#1940,#959);
#792=LINE('',#1941,#960);
#793=LINE('',#1943,#961);
#794=LINE('',#1944,#962);
#795=LINE('',#1946,#963);
#796=LINE('',#1947,#964);
#797=LINE('',#1949,#965);
#798=LINE('',#1950,#966);
#799=LINE('',#1952,#967);
#800=LINE('',#1953,#968);
#801=LINE('',#1955,#969);
#802=LINE('',#1956,#970);
#803=LINE('',#1958,#971);
#804=LINE('',#1961,#972);
#805=LINE('',#1963,#973);
#806=LINE('',#1965,#974);
#807=LINE('',#1967,#975);
#808=LINE('',#1969,#976);
#809=LINE('',#1971,#977);
#810=LINE('',#1973,#978);
#811=LINE('',#1975,#979);
#812=LINE('',#1977,#980);
#813=LINE('',#1979,#981);
#814=LINE('',#1980,#982);
#815=VECTOR('',#1348,39.3700787401575);
#816=VECTOR('',#1349,39.3700787401575);
#817=VECTOR('',#1350,39.3700787401575);
#818=VECTOR('',#1351,39.3700787401575);
#819=VECTOR('',#1352,39.3700787401575);
#820=VECTOR('',#1353,39.3700787401575);
#821=VECTOR('',#1354,39.3700787401575);
#822=VECTOR('',#1355,39.3700787401575);
#823=VECTOR('',#1356,39.3700787401575);
#824=VECTOR('',#1357,39.3700787401575);
#825=VECTOR('',#1358,39.3700787401575);
#826=VECTOR('',#1359,39.3700787401575);
#827=VECTOR('',#1360,39.3700787401575);
#828=VECTOR('',#1361,39.3700787401575);
#829=VECTOR('',#1362,39.3700787401575);
#830=VECTOR('',#1363,39.3700787401575);
#831=VECTOR('',#1366,39.3700787401575);
#832=VECTOR('',#1367,39.3700787401575);
#833=VECTOR('',#1368,39.3700787401575);
#834=VECTOR('',#1369,39.3700787401575);
#835=VECTOR('',#1370,39.3700787401575);
#836=VECTOR('',#1371,39.3700787401575);
#837=VECTOR('',#1372,39.3700787401575);
#838=VECTOR('',#1373,39.3700787401575);
#839=VECTOR('',#1374,39.3700787401575);
#840=VECTOR('',#1375,39.3700787401575);
#841=VECTOR('',#1376,39.3700787401575);
#842=VECTOR('',#1377,39.3700787401575);
#843=VECTOR('',#1378,39.3700787401575);
#844=VECTOR('',#1379,39.3700787401575);
#845=VECTOR('',#1380,39.3700787401575);
#846=VECTOR('',#1381,39.3700787401575);
#847=VECTOR('',#1384,39.3700787401575);
#848=VECTOR('',#1385,39.3700787401575);
#849=VECTOR('',#1386,39.3700787401575);
#850=VECTOR('',#1387,39.3700787401575);
#851=VECTOR('',#1390,39.3700787401575);
#852=VECTOR('',#1391,39.3700787401575);
#853=VECTOR('',#1392,39.3700787401575);
#854=VECTOR('',#1395,39.3700787401575);
#855=VECTOR('',#1396,39.3700787401575);
#856=VECTOR('',#1397,39.3700787401575);
#857=VECTOR('',#1400,39.3700787401575);
#858=VECTOR('',#1401,39.3700787401575);
#859=VECTOR('',#1402,39.3700787401575);
#860=VECTOR('',#1403,39.3700787401575);
#861=VECTOR('',#1406,39.3700787401575);
#862=VECTOR('',#1407,39.3700787401575);
#863=VECTOR('',#1408,39.3700787401575);
#864=VECTOR('',#1411,39.3700787401575);
#865=VECTOR('',#1412,39.3700787401575);
#866=VECTOR('',#1413,39.3700787401575);
#867=VECTOR('',#1416,39.3700787401575);
#868=VECTOR('',#1417,39.3700787401575);
#869=VECTOR('',#1418,39.3700787401575);
#870=VECTOR('',#1419,39.3700787401575);
#871=VECTOR('',#1422,39.3700787401575);
#872=VECTOR('',#1423,39.3700787401575);
#873=VECTOR('',#1424,39.3700787401575);
#874=VECTOR('',#1427,39.3700787401575);
#875=VECTOR('',#1428,39.3700787401575);
#876=VECTOR('',#1429,39.3700787401575);
#877=VECTOR('',#1432,39.3700787401575);
#878=VECTOR('',#1433,39.3700787401575);
#879=VECTOR('',#1436,39.3700787401575);
#880=VECTOR('',#1437,39.3700787401575);
#881=VECTOR('',#1440,39.3700787401575);
#882=VECTOR('',#1441,39.3700787401575);
#883=VECTOR('',#1444,39.3700787401575);
#884=VECTOR('',#1445,39.3700787401575);
#885=VECTOR('',#1448,39.3700787401575);
#886=VECTOR('',#1449,39.3700787401575);
#887=VECTOR('',#1452,39.3700787401575);
#888=VECTOR('',#1453,39.3700787401575);
#889=VECTOR('',#1456,39.3700787401575);
#890=VECTOR('',#1457,39.3700787401575);
#891=VECTOR('',#1460,39.3700787401575);
#892=VECTOR('',#1463,39.3700787401575);
#893=VECTOR('',#1468,39.3700787401575);
#894=VECTOR('',#1471,39.3700787401575);
#895=VECTOR('',#1476,39.3700787401575);
#896=VECTOR('',#1479,39.3700787401575);
#897=VECTOR('',#1484,39.3700787401575);
#898=VECTOR('',#1485,39.3700787401575);
#899=VECTOR('',#1494,39.3700787401575);
#900=VECTOR('',#1495,39.3700787401575);
#901=VECTOR('',#1496,39.3700787401575);
#902=VECTOR('',#1497,39.3700787401575);
#903=VECTOR('',#1498,39.3700787401575);
#904=VECTOR('',#1499,39.3700787401575);
#905=VECTOR('',#1502,39.3700787401575);
#906=VECTOR('',#1503,39.3700787401575);
#907=VECTOR('',#1504,39.3700787401575);
#908=VECTOR('',#1505,39.3700787401575);
#909=VECTOR('',#1506,39.3700787401575);
#910=VECTOR('',#1507,39.3700787401575);
#911=VECTOR('',#1510,39.3700787401575);
#912=VECTOR('',#1511,39.3700787401575);
#913=VECTOR('',#1512,39.3700787401575);
#914=VECTOR('',#1513,39.3700787401575);
#915=VECTOR('',#1514,39.3700787401575);
#916=VECTOR('',#1515,39.3700787401575);
#917=VECTOR('',#1518,39.3700787401575);
#918=VECTOR('',#1519,39.3700787401575);
#919=VECTOR('',#1520,39.3700787401575);
#920=VECTOR('',#1521,39.3700787401575);
#921=VECTOR('',#1522,39.3700787401575);
#922=VECTOR('',#1523,39.3700787401575);
#923=VECTOR('',#1526,39.3700787401575);
#924=VECTOR('',#1527,39.3700787401575);
#925=VECTOR('',#1528,39.3700787401575);
#926=VECTOR('',#1529,39.3700787401575);
#927=VECTOR('',#1530,39.3700787401575);
#928=VECTOR('',#1531,39.3700787401575);
#929=VECTOR('',#1534,39.3700787401575);
#930=VECTOR('',#1535,39.3700787401575);
#931=VECTOR('',#1536,39.3700787401575);
#932=VECTOR('',#1537,39.3700787401575);
#933=VECTOR('',#1538,39.3700787401575);
#934=VECTOR('',#1539,39.3700787401575);
#935=VECTOR('',#1542,39.3700787401575);
#936=VECTOR('',#1543,39.3700787401575);
#937=VECTOR('',#1544,39.3700787401575);
#938=VECTOR('',#1545,39.3700787401575);
#939=VECTOR('',#1548,39.3700787401575);
#940=VECTOR('',#1549,39.3700787401575);
#941=VECTOR('',#1550,39.3700787401575);
#942=VECTOR('',#1551,39.3700787401575);
#943=VECTOR('',#1554,39.3700787401575);
#944=VECTOR('',#1555,39.3700787401575);
#945=VECTOR('',#1556,39.3700787401575);
#946=VECTOR('',#1557,39.3700787401575);
#947=VECTOR('',#1560,39.3700787401575);
#948=VECTOR('',#1561,39.3700787401575);
#949=VECTOR('',#1564,39.3700787401575);
#950=VECTOR('',#1565,39.3700787401575);
#951=VECTOR('',#1568,39.3700787401575);
#952=VECTOR('',#1569,39.3700787401575);
#953=VECTOR('',#1572,39.3700787401575);
#954=VECTOR('',#1573,39.3700787401575);
#955=VECTOR('',#1576,39.3700787401575);
#956=VECTOR('',#1577,39.3700787401575);
#957=VECTOR('',#1580,39.3700787401575);
#958=VECTOR('',#1581,39.3700787401575);
#959=VECTOR('',#1584,39.3700787401575);
#960=VECTOR('',#1585,39.3700787401575);
#961=VECTOR('',#1588,39.3700787401575);
#962=VECTOR('',#1589,39.3700787401575);
#963=VECTOR('',#1592,39.3700787401575);
#964=VECTOR('',#1593,39.3700787401575);
#965=VECTOR('',#1596,39.3700787401575);
#966=VECTOR('',#1597,39.3700787401575);
#967=VECTOR('',#1600,39.3700787401575);
#968=VECTOR('',#1601,39.3700787401575);
#969=VECTOR('',#1604,39.3700787401575);
#970=VECTOR('',#1605,39.3700787401575);
#971=VECTOR('',#1608,39.3700787401575);
#972=VECTOR('',#1609,39.3700787401575);
#973=VECTOR('',#1610,39.3700787401575);
#974=VECTOR('',#1611,39.3700787401575);
#975=VECTOR('',#1614,39.3700787401575);
#976=VECTOR('',#1615,39.3700787401575);
#977=VECTOR('',#1616,39.3700787401575);
#978=VECTOR('',#1619,39.3700787401575);
#979=VECTOR('',#1620,39.3700787401575);
#980=VECTOR('',#1621,39.3700787401575);
#981=VECTOR('',#1624,39.3700787401575);
#982=VECTOR('',#1625,39.3700787401575);
#983=EDGE_LOOP('',(#31,#32,#33,#34,#35,#36,#37,#38,#39,#40,#41,#42,#43,
#44,#45,#46));
#984=EDGE_LOOP('',(#47,#48,#49,#50,#51,#52,#53,#54,#55,#56,#57,#58,#59,
#60,#61,#62));
#985=EDGE_LOOP('',(#63,#64,#65,#66));
#986=EDGE_LOOP('',(#67,#68,#69,#70));
#987=EDGE_LOOP('',(#71,#72,#73,#74));
#988=EDGE_LOOP('',(#75,#76,#77,#78));
#989=EDGE_LOOP('',(#79,#80,#81,#82));
#990=EDGE_LOOP('',(#83,#84,#85,#86));
#991=EDGE_LOOP('',(#87,#88,#89,#90));
#992=EDGE_LOOP('',(#91,#92,#93,#94));
#993=EDGE_LOOP('',(#95,#96,#97,#98));
#994=EDGE_LOOP('',(#99,#100,#101,#102));
#995=EDGE_LOOP('',(#103,#104,#105,#106));
#996=EDGE_LOOP('',(#107,#108,#109,#110));
#997=EDGE_LOOP('',(#111,#112,#113,#114));
#998=EDGE_LOOP('',(#115,#116,#117,#118));
#999=EDGE_LOOP('',(#119,#120,#121,#122));
#1000=EDGE_LOOP('',(#123,#124,#125,#126));
#1001=EDGE_LOOP('',(#127,#128,#129,#130));
#1002=EDGE_LOOP('',(#131,#132,#133,#134));
#1003=EDGE_LOOP('',(#135,#136,#137,#138));
#1004=EDGE_LOOP('',(#139,#140,#141,#142));
#1005=EDGE_LOOP('',(#143,#144,#145,#146));
#1006=EDGE_LOOP('',(#147,#148,#149,#150));
#1007=EDGE_LOOP('',(#151,#152,#153,#154));
#1008=EDGE_LOOP('',(#155,#156,#157,#158));
#1009=EDGE_LOOP('',(#159,#160,#161,#162));
#1010=EDGE_LOOP('',(#163,#164,#165,#166));
#1011=EDGE_LOOP('',(#167,#168,#169,#170));
#1012=EDGE_LOOP('',(#171,#172,#173,#174));
#1013=EDGE_LOOP('',(#175,#176,#177,#178));
#1014=EDGE_LOOP('',(#179,#180,#181,#182));
#1015=EDGE_LOOP('',(#183,#184,#185,#186));
#1016=EDGE_LOOP('',(#187,#188,#189,#190));
#1017=EDGE_LOOP('',(#191,#192,#193,#194));
#1018=EDGE_LOOP('',(#195,#196,#197,#198));
#1019=EDGE_LOOP('',(#199,#200,#201,#202,#203,#204));
#1020=EDGE_LOOP('',(#205,#206,#207,#208,#209,#210));
#1021=EDGE_LOOP('',(#211,#212,#213,#214,#215,#216));
#1022=EDGE_LOOP('',(#217,#218,#219,#220,#221,#222));
#1023=EDGE_LOOP('',(#223,#224,#225,#226,#227,#228));
#1024=EDGE_LOOP('',(#229,#230,#231,#232,#233,#234));
#1025=EDGE_LOOP('',(#235,#236,#237,#238));
#1026=EDGE_LOOP('',(#239,#240,#241,#242));
#1027=EDGE_LOOP('',(#243,#244,#245,#246));
#1028=EDGE_LOOP('',(#247,#248,#249,#250));
#1029=EDGE_LOOP('',(#251,#252,#253,#254));
#1030=EDGE_LOOP('',(#255,#256,#257,#258));
#1031=EDGE_LOOP('',(#259,#260,#261,#262));
#1032=EDGE_LOOP('',(#263,#264,#265,#266));
#1033=EDGE_LOOP('',(#267,#268,#269,#270));
#1034=EDGE_LOOP('',(#271,#272,#273,#274));
#1035=EDGE_LOOP('',(#275,#276,#277,#278));
#1036=EDGE_LOOP('',(#279,#280,#281,#282));
#1037=EDGE_LOOP('',(#283,#284,#285,#286));
#1038=EDGE_LOOP('',(#287,#288,#289,#290));
#1039=EDGE_LOOP('',(#291,#292,#293,#294));
#1040=EDGE_LOOP('',(#295,#296,#297,#298));
#1041=EDGE_LOOP('',(#299,#300,#301,#302));
#1042=EDGE_LOOP('',(#303,#304,#305,#306));
#1043=EDGE_LOOP('',(#307,#308,#309,#310));
#1044=EDGE_LOOP('',(#311,#312,#313,#314));
#1045=EDGE_LOOP('',(#315,#316,#317,#318));
#1046=EDGE_LOOP('',(#319,#320,#321,#322));
#1047=EDGE_LOOP('',(#323,#324,#325,#326));
#1048=EDGE_LOOP('',(#327,#328,#329,#330));
#1049=EDGE_LOOP('',(#331,#332,#333,#334,#335,#336));
#1050=EDGE_LOOP('',(#337,#338,#339,#340,#341,#342));
#1051=EDGE_LOOP('',(#343,#344,#345,#346,#347,#348));
#1052=EDGE_LOOP('',(#349,#350,#351,#352,#353,#354));
#1053=EDGE_LOOP('',(#355,#356,#357,#358,#359,#360));
#1054=EDGE_LOOP('',(#361,#362,#363,#364,#365,#366));
#1055=FACE_BOUND('',#983,.T.);
#1056=FACE_BOUND('',#984,.T.);
#1057=FACE_BOUND('',#985,.T.);
#1058=FACE_BOUND('',#986,.T.);
#1059=FACE_BOUND('',#987,.T.);
#1060=FACE_BOUND('',#988,.T.);
#1061=FACE_BOUND('',#989,.T.);
#1062=FACE_BOUND('',#990,.T.);
#1063=FACE_BOUND('',#991,.T.);
#1064=FACE_BOUND('',#992,.T.);
#1065=FACE_BOUND('',#993,.T.);
#1066=FACE_BOUND('',#994,.T.);
#1067=FACE_BOUND('',#995,.T.);
#1068=FACE_BOUND('',#996,.T.);
#1069=FACE_BOUND('',#997,.T.);
#1070=FACE_BOUND('',#998,.T.);
#1071=FACE_BOUND('',#999,.T.);
#1072=FACE_BOUND('',#1000,.T.);
#1073=FACE_BOUND('',#1001,.T.);
#1074=FACE_BOUND('',#1002,.T.);
#1075=FACE_BOUND('',#1003,.T.);
#1076=FACE_BOUND('',#1004,.T.);
#1077=FACE_BOUND('',#1005,.T.);
#1078=FACE_BOUND('',#1006,.T.);
#1079=FACE_BOUND('',#1007,.T.);
#1080=FACE_BOUND('',#1008,.T.);
#1081=FACE_BOUND('',#1009,.T.);
#1082=FACE_BOUND('',#1010,.T.);
#1083=FACE_BOUND('',#1011,.T.);
#1084=FACE_BOUND('',#1012,.T.);
#1085=FACE_BOUND('',#1013,.T.);
#1086=FACE_BOUND('',#1014,.T.);
#1087=FACE_BOUND('',#1015,.T.);
#1088=FACE_BOUND('',#1016,.T.);
#1089=FACE_BOUND('',#1017,.T.);
#1090=FACE_BOUND('',#1018,.T.);
#1091=FACE_BOUND('',#1019,.T.);
#1092=FACE_BOUND('',#1020,.T.);
#1093=FACE_BOUND('',#1021,.T.);
#1094=FACE_BOUND('',#1022,.T.);
#1095=FACE_BOUND('',#1023,.T.);
#1096=FACE_BOUND('',#1024,.T.);
#1097=FACE_BOUND('',#1025,.T.);
#1098=FACE_BOUND('',#1026,.T.);
#1099=FACE_BOUND('',#1027,.T.);
#1100=FACE_BOUND('',#1028,.T.);
#1101=FACE_BOUND('',#1029,.T.);
#1102=FACE_BOUND('',#1030,.T.);
#1103=FACE_BOUND('',#1031,.T.);
#1104=FACE_BOUND('',#1032,.T.);
#1105=FACE_BOUND('',#1033,.T.);
#1106=FACE_BOUND('',#1034,.T.);
#1107=FACE_BOUND('',#1035,.T.);
#1108=FACE_BOUND('',#1036,.T.);
#1109=FACE_BOUND('',#1037,.T.);
#1110=FACE_BOUND('',#1038,.T.);
#1111=FACE_BOUND('',#1039,.T.);
#1112=FACE_BOUND('',#1040,.T.);
#1113=FACE_BOUND('',#1041,.T.);
#1114=FACE_BOUND('',#1042,.T.);
#1115=FACE_BOUND('',#1043,.T.);
#1116=FACE_BOUND('',#1044,.T.);
#1117=FACE_BOUND('',#1045,.T.);
#1118=FACE_BOUND('',#1046,.T.);
#1119=FACE_BOUND('',#1047,.T.);
#1120=FACE_BOUND('',#1048,.T.);
#1121=FACE_BOUND('',#1049,.T.);
#1122=FACE_BOUND('',#1050,.T.);
#1123=FACE_BOUND('',#1051,.T.);
#1124=FACE_BOUND('',#1052,.T.);
#1125=FACE_BOUND('',#1053,.T.);
#1126=FACE_BOUND('',#1054,.T.);
#1127=PLANE('',#1279);
#1128=PLANE('',#1280);
#1129=PLANE('',#1281);
#1130=PLANE('',#1282);
#1131=PLANE('',#1283);
#1132=PLANE('',#1284);
#1133=PLANE('',#1285);
#1134=PLANE('',#1286);
#1135=PLANE('',#1287);
#1136=PLANE('',#1288);
#1137=PLANE('',#1289);
#1138=PLANE('',#1290);
#1139=PLANE('',#1291);
#1140=PLANE('',#1292);
#1141=PLANE('',#1293);
#1142=PLANE('',#1294);
#1143=PLANE('',#1295);
#1144=PLANE('',#1296);
#1145=PLANE('',#1297);
#1146=PLANE('',#1298);
#1147=PLANE('',#1299);
#1148=PLANE('',#1300);
#1149=PLANE('',#1301);
#1150=PLANE('',#1302);
#1151=PLANE('',#1303);
#1152=PLANE('',#1304);
#1153=PLANE('',#1305);
#1154=PLANE('',#1306);
#1155=PLANE('',#1307);
#1156=PLANE('',#1308);
#1157=PLANE('',#1310);
#1158=PLANE('',#1311);
#1159=PLANE('',#1312);
#1160=PLANE('',#1313);
#1161=PLANE('',#1314);
#1162=PLANE('',#1315);
#1163=PLANE('',#1316);
#1164=PLANE('',#1317);
#1165=PLANE('',#1318);
#1166=PLANE('',#1319);
#1167=PLANE('',#1320);
#1168=PLANE('',#1321);
#1169=PLANE('',#1322);
#1170=PLANE('',#1323);
#1171=PLANE('',#1324);
#1172=PLANE('',#1325);
#1173=PLANE('',#1326);
#1174=PLANE('',#1327);
#1175=PLANE('',#1328);
#1176=PLANE('',#1329);
#1177=PLANE('',#1330);
#1178=PLANE('',#1331);
#1179=PLANE('',#1332);
#1180=PLANE('',#1333);
#1181=PLANE('',#1334);
#1182=PLANE('',#1335);
#1183=PLANE('',#1336);
#1184=PLANE('',#1337);
#1185=PLANE('',#1338);
#1186=PLANE('',#1339);
#1187=PLANE('',#1340);
#1188=PLANE('',#1341);
#1189=PLANE('',#1342);
#1190=ADVANCED_FACE('',(#1055),#1127,.F.);
#1191=ADVANCED_FACE('',(#1056),#1128,.F.);
#1192=ADVANCED_FACE('',(#1057),#1129,.T.);
#1193=ADVANCED_FACE('',(#1058),#1130,.T.);
#1194=ADVANCED_FACE('',(#1059),#1131,.T.);
#1195=ADVANCED_FACE('',(#1060),#1132,.T.);
#1196=ADVANCED_FACE('',(#1061),#1133,.T.);
#1197=ADVANCED_FACE('',(#1062),#1134,.T.);
#1198=ADVANCED_FACE('',(#1063),#1135,.T.);
#1199=ADVANCED_FACE('',(#1064),#1136,.T.);
#1200=ADVANCED_FACE('',(#1065),#1137,.T.);
#1201=ADVANCED_FACE('',(#1066),#1138,.T.);
#1202=ADVANCED_FACE('',(#1067),#1139,.T.);
#1203=ADVANCED_FACE('',(#1068),#1140,.T.);
#1204=ADVANCED_FACE('',(#1069),#1141,.F.);
#1205=ADVANCED_FACE('',(#1070),#1142,.F.);
#1206=ADVANCED_FACE('',(#1071),#1143,.F.);
#1207=ADVANCED_FACE('',(#1072),#1144,.F.);
#1208=ADVANCED_FACE('',(#1073),#1145,.F.);
#1209=ADVANCED_FACE('',(#1074),#1146,.F.);
#1210=ADVANCED_FACE('',(#1075,#1076,#1077,#1078),#1147,.T.);
#1211=ADVANCED_FACE('',(#1079),#1148,.T.);
#1212=ADVANCED_FACE('',(#1080),#1149,.T.);
#1213=ADVANCED_FACE('',(#1081,#1082),#1150,.T.);
#1214=ADVANCED_FACE('',(#1083),#1151,.T.);
#1215=ADVANCED_FACE('',(#1084),#1152,.T.);
#1216=ADVANCED_FACE('',(#1085,#1086),#1153,.T.);
#1217=ADVANCED_FACE('',(#1087,#1088),#1154,.T.);
#1218=ADVANCED_FACE('',(#1089),#1155,.T.);
#1219=ADVANCED_FACE('',(#1090),#1156,.T.);
#1220=ADVANCED_FACE('',(#1091),#1157,.F.);
#1221=ADVANCED_FACE('',(#1092),#1158,.F.);
#1222=ADVANCED_FACE('',(#1093),#1159,.F.);
#1223=ADVANCED_FACE('',(#1094),#1160,.F.);
#1224=ADVANCED_FACE('',(#1095),#1161,.F.);
#1225=ADVANCED_FACE('',(#1096),#1162,.F.);
#1226=ADVANCED_FACE('',(#1097),#1163,.F.);
#1227=ADVANCED_FACE('',(#1098),#1164,.F.);
#1228=ADVANCED_FACE('',(#1099),#1165,.F.);
#1229=ADVANCED_FACE('',(#1100),#1166,.T.);
#1230=ADVANCED_FACE('',(#1101),#1167,.T.);
#1231=ADVANCED_FACE('',(#1102),#1168,.T.);
#1232=ADVANCED_FACE('',(#1103),#1169,.T.);
#1233=ADVANCED_FACE('',(#1104),#1170,.T.);
#1234=ADVANCED_FACE('',(#1105),#1171,.T.);
#1235=ADVANCED_FACE('',(#1106),#1172,.T.);
#1236=ADVANCED_FACE('',(#1107),#1173,.T.);
#1237=ADVANCED_FACE('',(#1108),#1174,.T.);
#1238=ADVANCED_FACE('',(#1109),#1175,.T.);
#1239=ADVANCED_FACE('',(#1110),#1176,.T.);
#1240=ADVANCED_FACE('',(#1111),#1177,.T.);
#1241=ADVANCED_FACE('',(#1112),#1178,.F.);
#1242=ADVANCED_FACE('',(#1113),#1179,.F.);
#1243=ADVANCED_FACE('',(#1114),#1180,.F.);
#1244=ADVANCED_FACE('',(#1115),#1181,.F.);
#1245=ADVANCED_FACE('',(#1116,#1117,#1118,#1119),#1182,.F.);
#1246=ADVANCED_FACE('',(#1120),#1183,.F.);
#1247=ADVANCED_FACE('',(#1121),#1184,.T.);
#1248=ADVANCED_FACE('',(#1122),#1185,.T.);
#1249=ADVANCED_FACE('',(#1123),#1186,.T.);
#1250=ADVANCED_FACE('',(#1124),#1187,.T.);
#1251=ADVANCED_FACE('',(#1125),#1188,.T.);
#1252=ADVANCED_FACE('',(#1126),#1189,.T.);
#1253=CLOSED_SHELL('',(#1190,#1191,#1192,#1193,#1194,#1195,#1196,#1197,
#1198,#1199,#1200,#1201,#1202,#1203,#1204,#1205,#1206,#1207,#1208,#1209,
#1210,#1211,#1212,#1213,#1214,#1215,#1216,#1217,#1218,#1219));
#1254=CLOSED_SHELL('',(#1220,#1221,#1222,#1223,#1224,#1225,#1226,#1227,
#1228,#1229,#1230,#1231,#1232,#1233,#1234,#1235,#1236,#1237,#1238,#1239,
#1240,#1241,#1242,#1243,#1244,#1245,#1246,#1247,#1248,#1249,#1250,#1251,
#1252));
#1255=STYLED_ITEM('',(#1257),#1270);
#1256=STYLED_ITEM('',(#1258),#1271);
#1257=PRESENTATION_STYLE_ASSIGNMENT((#1259));
#1258=PRESENTATION_STYLE_ASSIGNMENT((#1260));
#1259=SURFACE_STYLE_USAGE(.BOTH.,#1261);
#1260=SURFACE_STYLE_USAGE(.BOTH.,#1262);
#1261=SURFACE_SIDE_STYLE('',(#1263));
#1262=SURFACE_SIDE_STYLE('',(#1264));
#1263=SURFACE_STYLE_FILL_AREA(#1265);
#1264=SURFACE_STYLE_FILL_AREA(#1266);
#1265=FILL_AREA_STYLE('',(#1267));
#1266=FILL_AREA_STYLE('',(#1268));
#1267=FILL_AREA_STYLE_COLOUR('',#1269);
#1268=FILL_AREA_STYLE_COLOUR('',#18);
#1269=COLOUR_RGB('',0.689999997615814,0.689999997615814,0.689999997615814);
#1270=MANIFOLD_SOLID_BREP('T1SSQ-103-01-T-S',#1253);
#1271=MANIFOLD_SOLID_BREP('P2SSQ-103-01-T-S',#1254);
#1272=SHAPE_DEFINITION_REPRESENTATION(#2003,#1275);
#1273=SHAPE_DEFINITION_REPRESENTATION(#2004,#1276);
#1274=SHAPE_DEFINITION_REPRESENTATION(#2006,#1277);
#1275=SHAPE_REPRESENTATION('SSQ-103-01-T-S',(#1278,#1309,#1343),#1991);
#1276=SHAPE_REPRESENTATION('T1SSQ-103-01-T-S',(#1278),#1992);
#1277=SHAPE_REPRESENTATION('P2SSQ-103-01-T-S',(#1278),#1993);
#1278=AXIS2_PLACEMENT_3D('',#1644,#1344,#1345);
#1279=AXIS2_PLACEMENT_3D('',#1645,#1346,#1347);
#1280=AXIS2_PLACEMENT_3D('',#1678,#1364,#1365);
#1281=AXIS2_PLACEMENT_3D('',#1711,#1382,#1383);
#1282=AXIS2_PLACEMENT_3D('',#1720,#1388,#1389);
#1283=AXIS2_PLACEMENT_3D('',#1726,#1393,#1394);
#1284=AXIS2_PLACEMENT_3D('',#1732,#1398,#1399);
#1285=AXIS2_PLACEMENT_3D('',#1741,#1404,#1405);
#1286=AXIS2_PLACEMENT_3D('',#1747,#1409,#1410);
#1287=AXIS2_PLACEMENT_3D('',#1753,#1414,#1415);
#1288=AXIS2_PLACEMENT_3D('',#1762,#1420,#1421);
#1289=AXIS2_PLACEMENT_3D('',#1768,#1425,#1426);
#1290=AXIS2_PLACEMENT_3D('',#1774,#1430,#1431);
#1291=AXIS2_PLACEMENT_3D('',#1777,#1434,#1435);
#1292=AXIS2_PLACEMENT_3D('',#1780,#1438,#1439);
#1293=AXIS2_PLACEMENT_3D('',#1783,#1442,#1443);
#1294=AXIS2_PLACEMENT_3D('',#1786,#1446,#1447);
#1295=AXIS2_PLACEMENT_3D('',#1789,#1450,#1451);
#1296=AXIS2_PLACEMENT_3D('',#1792,#1454,#1455);
#1297=AXIS2_PLACEMENT_3D('',#1795,#1458,#1459);
#1298=AXIS2_PLACEMENT_3D('',#1797,#1461,#1462);
#1299=AXIS2_PLACEMENT_3D('',#1799,#1464,#1465);
#1300=AXIS2_PLACEMENT_3D('',#1800,#1466,#1467);
#1301=AXIS2_PLACEMENT_3D('',#1802,#1469,#1470);
#1302=AXIS2_PLACEMENT_3D('',#1804,#1472,#1473);
#1303=AXIS2_PLACEMENT_3D('',#1805,#1474,#1475);
#1304=AXIS2_PLACEMENT_3D('',#1807,#1477,#1478);
#1305=AXIS2_PLACEMENT_3D('',#1809,#1480,#1481);
#1306=AXIS2_PLACEMENT_3D('',#1810,#1482,#1483);
#1307=AXIS2_PLACEMENT_3D('',#1813,#1486,#1487);
#1308=AXIS2_PLACEMENT_3D('',#1814,#1488,#1489);
#1309=AXIS2_PLACEMENT_3D('',#1815,#1490,#1491);
#1310=AXIS2_PLACEMENT_3D('',#1816,#1492,#1493);
#1311=AXIS2_PLACEMENT_3D('',#1829,#1500,#1501);
#1312=AXIS2_PLACEMENT_3D('',#1842,#1508,#1509);
#1313=AXIS2_PLACEMENT_3D('',#1855,#1516,#1517);
#1314=AXIS2_PLACEMENT_3D('',#1868,#1524,#1525);
#1315=AXIS2_PLACEMENT_3D('',#1881,#1532,#1533);
#1316=AXIS2_PLACEMENT_3D('',#1894,#1540,#1541);
#1317=AXIS2_PLACEMENT_3D('',#1903,#1546,#1547);
#1318=AXIS2_PLACEMENT_3D('',#1912,#1552,#1553);
#1319=AXIS2_PLACEMENT_3D('',#1921,#1558,#1559);
#1320=AXIS2_PLACEMENT_3D('',#1924,#1562,#1563);
#1321=AXIS2_PLACEMENT_3D('',#1927,#1566,#1567);
#1322=AXIS2_PLACEMENT_3D('',#1930,#1570,#1571);
#1323=AXIS2_PLACEMENT_3D('',#1933,#1574,#1575);
#1324=AXIS2_PLACEMENT_3D('',#1936,#1578,#1579);
#1325=AXIS2_PLACEMENT_3D('',#1939,#1582,#1583);
#1326=AXIS2_PLACEMENT_3D('',#1942,#1586,#1587);
#1327=AXIS2_PLACEMENT_3D('',#1945,#1590,#1591);
#1328=AXIS2_PLACEMENT_3D('',#1948,#1594,#1595);
#1329=AXIS2_PLACEMENT_3D('',#1951,#1598,#1599);
#1330=AXIS2_PLACEMENT_3D('',#1954,#1602,#1603);
#1331=AXIS2_PLACEMENT_3D('',#1957,#1606,#1607);
#1332=AXIS2_PLACEMENT_3D('',#1966,#1612,#1613);
#1333=AXIS2_PLACEMENT_3D('',#1972,#1617,#1618);
#1334=AXIS2_PLACEMENT_3D('',#1978,#1622,#1623);
#1335=AXIS2_PLACEMENT_3D('',#1981,#1626,#1627);
#1336=AXIS2_PLACEMENT_3D('',#1982,#1628,#1629);
#1337=AXIS2_PLACEMENT_3D('',#1983,#1630,#1631);
#1338=AXIS2_PLACEMENT_3D('',#1984,#1632,#1633);
#1339=AXIS2_PLACEMENT_3D('',#1985,#1634,#1635);
#1340=AXIS2_PLACEMENT_3D('',#1986,#1636,#1637);
#1341=AXIS2_PLACEMENT_3D('',#1987,#1638,#1639);
#1342=AXIS2_PLACEMENT_3D('',#1988,#1640,#1641);
#1343=AXIS2_PLACEMENT_3D('',#1989,#1642,#1643);
#1344=DIRECTION('',(0.,0.,1.));
#1345=DIRECTION('',(1.,0.,0.));
#1346=DIRECTION('',(0.,0.,1.));
#1347=DIRECTION('',(1.,0.,0.));
#1348=DIRECTION('',(0.,-1.,0.));
#1349=DIRECTION('',(1.,5.33564061262551E-17,0.));
#1350=DIRECTION('',(0.,1.,0.));
#1351=DIRECTION('',(-1.,0.,0.));
#1352=DIRECTION('',(0.,-1.,0.));
#1353=DIRECTION('',(1.,0.,0.));
#1354=DIRECTION('',(0.,1.,0.));
#1355=DIRECTION('',(-1.,0.,0.));
#1356=DIRECTION('',(0.,-1.,0.));
#1357=DIRECTION('',(1.,0.,0.));
#1358=DIRECTION('',(0.,1.,0.));
#1359=DIRECTION('',(-1.,0.,0.));
#1360=DIRECTION('',(0.,-1.,0.));
#1361=DIRECTION('',(-1.,0.,0.));
#1362=DIRECTION('',(0.,-1.,0.));
#1363=DIRECTION('',(-1.,0.,0.));
#1364=DIRECTION('',(0.,0.,-1.));
#1365=DIRECTION('',(-1.,0.,0.));
#1366=DIRECTION('',(0.,1.,0.));
#1367=DIRECTION('',(1.,0.,0.));
#1368=DIRECTION('',(0.,-1.,0.));
#1369=DIRECTION('',(1.,0.,0.));
#1370=DIRECTION('',(0.,-1.,0.));
#1371=DIRECTION('',(1.,0.,0.));
#1372=DIRECTION('',(0.,-1.,0.));
#1373=DIRECTION('',(-1.,0.,0.));
#1374=DIRECTION('',(0.,1.,0.));
#1375=DIRECTION('',(1.,0.,0.));
#1376=DIRECTION('',(0.,-1.,0.));
#1377=DIRECTION('',(-1.,0.,0.));
#1378=DIRECTION('',(0.,1.,0.));
#1379=DIRECTION('',(1.,0.,0.));
#1380=DIRECTION('',(0.,-1.,0.));
#1381=DIRECTION('',(-1.,-5.33564061262551E-17,0.));
#1382=DIRECTION('',(0.,0.,1.));
#1383=DIRECTION('',(1.,0.,0.));
#1384=DIRECTION('',(0.,-1.,0.));
#1385=DIRECTION('',(1.,5.33564061262551E-17,0.));
#1386=DIRECTION('',(0.,-1.,0.));
#1387=DIRECTION('',(-1.,0.,0.));
#1388=DIRECTION('',(-1.,0.,0.));
#1389=DIRECTION('',(0.,0.,1.));
#1390=DIRECTION('',(0.,0.,1.));
#1391=DIRECTION('',(0.,-1.,0.));
#1392=DIRECTION('',(0.,0.,-1.));
#1393=DIRECTION('',(0.,0.,-1.));
#1394=DIRECTION('',(-1.,0.,0.));
#1395=DIRECTION('',(-1.,-5.33564061262551E-17,0.));
#1396=DIRECTION('',(0.,-1.,0.));
#1397=DIRECTION('',(1.,0.,0.));
#1398=DIRECTION('',(0.,0.,1.));
#1399=DIRECTION('',(1.,0.,0.));
#1400=DIRECTION('',(0.,-1.,0.));
#1401=DIRECTION('',(1.,0.,0.));
#1402=DIRECTION('',(0.,-1.,0.));
#1403=DIRECTION('',(-1.,0.,0.));
#1404=DIRECTION('',(-1.,0.,0.));
#1405=DIRECTION('',(0.,0.,1.));
#1406=DIRECTION('',(0.,0.,1.));
#1407=DIRECTION('',(0.,-1.,0.));
#1408=DIRECTION('',(0.,0.,-1.));
#1409=DIRECTION('',(0.,0.,-1.));
#1410=DIRECTION('',(-1.,0.,0.));
#1411=DIRECTION('',(-1.,0.,0.));
#1412=DIRECTION('',(0.,-1.,0.));
#1413=DIRECTION('',(1.,0.,0.));
#1414=DIRECTION('',(0.,0.,1.));
#1415=DIRECTION('',(1.,0.,0.));
#1416=DIRECTION('',(0.,-1.,0.));
#1417=DIRECTION('',(1.,0.,0.));
#1418=DIRECTION('',(0.,-1.,0.));
#1419=DIRECTION('',(-1.,0.,0.));
#1420=DIRECTION('',(-1.,0.,0.));
#1421=DIRECTION('',(0.,0.,1.));
#1422=DIRECTION('',(0.,0.,1.));
#1423=DIRECTION('',(0.,-1.,0.));
#1424=DIRECTION('',(0.,0.,-1.));
#1425=DIRECTION('',(0.,0.,-1.));
#1426=DIRECTION('',(-1.,0.,0.));
#1427=DIRECTION('',(-1.,0.,0.));
#1428=DIRECTION('',(0.,-1.,0.));
#1429=DIRECTION('',(1.,0.,0.));
#1430=DIRECTION('',(1.,0.,0.));
#1431=DIRECTION('',(0.,0.,-1.));
#1432=DIRECTION('',(0.,0.,-1.));
#1433=DIRECTION('',(0.,0.,1.));
#1434=DIRECTION('',(1.,0.,0.));
#1435=DIRECTION('',(0.,0.,-1.));
#1436=DIRECTION('',(0.,0.,-1.));
#1437=DIRECTION('',(0.,0.,1.));
#1438=DIRECTION('',(1.,0.,0.));
#1439=DIRECTION('',(0.,0.,-1.));
#1440=DIRECTION('',(0.,0.,-1.));
#1441=DIRECTION('',(0.,0.,1.));
#1442=DIRECTION('',(0.,1.,0.));
#1443=DIRECTION('',(0.,0.,1.));
#1444=DIRECTION('',(0.,0.,-1.));
#1445=DIRECTION('',(0.,0.,1.));
#1446=DIRECTION('',(0.,1.,0.));
#1447=DIRECTION('',(0.,0.,1.));
#1448=DIRECTION('',(0.,0.,1.));
#1449=DIRECTION('',(0.,0.,-1.));
#1450=DIRECTION('',(0.,1.,0.));
#1451=DIRECTION('',(0.,0.,1.));
#1452=DIRECTION('',(0.,0.,-1.));
#1453=DIRECTION('',(0.,0.,1.));
#1454=DIRECTION('',(0.,1.,0.));
#1455=DIRECTION('',(0.,0.,1.));
#1456=DIRECTION('',(0.,0.,-1.));
#1457=DIRECTION('',(0.,0.,1.));
#1458=DIRECTION('',(1.,0.,0.));
#1459=DIRECTION('',(0.,0.,-1.));
#1460=DIRECTION('',(0.,0.,1.));
#1461=DIRECTION('',(-1.,0.,0.));
#1462=DIRECTION('',(0.,0.,1.));
#1463=DIRECTION('',(0.,0.,-1.));
#1464=DIRECTION('',(0.,1.,0.));
#1465=DIRECTION('',(0.,0.,1.));
#1466=DIRECTION('',(-1.,0.,0.));
#1467=DIRECTION('',(0.,0.,1.));
#1468=DIRECTION('',(0.,0.,-1.));
#1469=DIRECTION('',(1.,0.,0.));
#1470=DIRECTION('',(0.,0.,-1.));
#1471=DIRECTION('',(0.,0.,-1.));
#1472=DIRECTION('',(0.,-1.,0.));
#1473=DIRECTION('',(0.,0.,-1.));
#1474=DIRECTION('',(-1.,0.,0.));
#1475=DIRECTION('',(0.,0.,1.));
#1476=DIRECTION('',(0.,0.,-1.));
#1477=DIRECTION('',(1.,0.,0.));
#1478=DIRECTION('',(0.,0.,-1.));
#1479=DIRECTION('',(0.,0.,-1.));
#1480=DIRECTION('',(0.,-1.,0.));
#1481=DIRECTION('',(0.,0.,-1.));
#1482=DIRECTION('',(5.33564061262551E-17,-1.,0.));
#1483=DIRECTION('',(1.,5.33564061262551E-17,0.));
#1484=DIRECTION('',(0.,0.,-1.));
#1485=DIRECTION('',(0.,0.,-1.));
#1486=DIRECTION('',(-1.,0.,0.));
#1487=DIRECTION('',(0.,0.,1.));
#1488=DIRECTION('',(1.,0.,0.));
#1489=DIRECTION('',(0.,0.,-1.));
#1490=DIRECTION('',(0.,0.,1.));
#1491=DIRECTION('',(1.,0.,0.));
#1492=DIRECTION('',(0.,0.,-1.));
#1493=DIRECTION('',(-1.,0.,0.));
#1494=DIRECTION('',(-0.5,-0.866025403784439,0.));
#1495=DIRECTION('',(0.,-1.,0.));
#1496=DIRECTION('',(1.,0.,0.));
#1497=DIRECTION('',(0.,1.,0.));
#1498=DIRECTION('',(-0.5,0.866025403784439,0.));
#1499=DIRECTION('',(-1.,0.,0.));
#1500=DIRECTION('',(0.,0.,-1.));
#1501=DIRECTION('',(-1.,0.,0.));
#1502=DIRECTION('',(-0.5,-0.866025403784439,0.));
#1503=DIRECTION('',(0.,-1.,0.));
#1504=DIRECTION('',(1.,0.,0.));
#1505=DIRECTION('',(0.,1.,0.));
#1506=DIRECTION('',(-0.5,0.866025403784439,0.));
#1507=DIRECTION('',(-1.,0.,0.));
#1508=DIRECTION('',(0.,0.,-1.));
#1509=DIRECTION('',(-1.,0.,0.));
#1510=DIRECTION('',(-0.5,0.866025403784439,0.));
#1511=DIRECTION('',(-1.,0.,0.));
#1512=DIRECTION('',(-0.5,-0.866025403784439,0.));
#1513=DIRECTION('',(0.,-1.,0.));
#1514=DIRECTION('',(1.,0.,0.));
#1515=DIRECTION('',(0.,1.,0.));
#1516=DIRECTION('',(0.,0.,1.));
#1517=DIRECTION('',(1.,0.,0.));
#1518=DIRECTION('',(0.5,0.866025403784439,0.));
#1519=DIRECTION('',(-1.,0.,0.));
#1520=DIRECTION('',(0.5,-0.866025403784439,0.));
#1521=DIRECTION('',(0.,-1.,0.));
#1522=DIRECTION('',(-1.,0.,0.));
#1523=DIRECTION('',(0.,1.,0.));
#1524=DIRECTION('',(0.,0.,1.));
#1525=DIRECTION('',(1.,0.,0.));
#1526=DIRECTION('',(0.5,0.866025403784439,0.));
#1527=DIRECTION('',(-1.,0.,0.));
#1528=DIRECTION('',(0.5,-0.866025403784439,0.));
#1529=DIRECTION('',(0.,-1.,0.));
#1530=DIRECTION('',(-1.,0.,0.));
#1531=DIRECTION('',(0.,1.,0.));
#1532=DIRECTION('',(0.,0.,1.));
#1533=DIRECTION('',(1.,0.,0.));
#1534=DIRECTION('',(0.5,-0.866025403784439,0.));
#1535=DIRECTION('',(0.,-1.,0.));
#1536=DIRECTION('',(-1.,0.,0.));
#1537=DIRECTION('',(0.,1.,0.));
#1538=DIRECTION('',(0.5,0.866025403784439,0.));
#1539=DIRECTION('',(-1.,0.,0.));
#1540=DIRECTION('',(0.,1.,0.));
#1541=DIRECTION('',(0.,0.,1.));
#1542=DIRECTION('',(0.,0.,-1.));
#1543=DIRECTION('',(-1.,0.,0.));
#1544=DIRECTION('',(0.,0.,-1.));
#1545=DIRECTION('',(-1.,0.,0.));
#1546=DIRECTION('',(0.,1.,0.));
#1547=DIRECTION('',(0.,0.,1.));
#1548=DIRECTION('',(0.,0.,-1.));
#1549=DIRECTION('',(-1.,0.,0.));
#1550=DIRECTION('',(0.,0.,-1.));
#1551=DIRECTION('',(-1.,0.,0.));
#1552=DIRECTION('',(0.,1.,0.));
#1553=DIRECTION('',(0.,0.,1.));
#1554=DIRECTION('',(0.,0.,-1.));
#1555=DIRECTION('',(-1.,0.,0.));
#1556=DIRECTION('',(0.,0.,-1.));
#1557=DIRECTION('',(-1.,0.,0.));
#1558=DIRECTION('',(-1.,0.,0.));
#1559=DIRECTION('',(0.,0.,1.));
#1560=DIRECTION('',(0.,0.,1.));
#1561=DIRECTION('',(0.,0.,-1.));
#1562=DIRECTION('',(1.,0.,0.));
#1563=DIRECTION('',(0.,0.,-1.));
#1564=DIRECTION('',(0.,0.,-1.));
#1565=DIRECTION('',(0.,0.,-1.));
#1566=DIRECTION('',(-1.,0.,0.));
#1567=DIRECTION('',(0.,0.,1.));
#1568=DIRECTION('',(0.,0.,1.));
#1569=DIRECTION('',(0.,0.,-1.));
#1570=DIRECTION('',(1.,0.,0.));
#1571=DIRECTION('',(0.,0.,-1.));
#1572=DIRECTION('',(0.,0.,-1.));
#1573=DIRECTION('',(0.,0.,-1.));
#1574=DIRECTION('',(-1.,0.,0.));
#1575=DIRECTION('',(0.,0.,1.));
#1576=DIRECTION('',(0.,0.,1.));
#1577=DIRECTION('',(0.,0.,-1.));
#1578=DIRECTION('',(1.,0.,0.));
#1579=DIRECTION('',(0.,0.,-1.));
#1580=DIRECTION('',(0.,0.,-1.));
#1581=DIRECTION('',(0.,0.,-1.));
#1582=DIRECTION('',(0.,-0.4226182617407,-0.90630778703665));
#1583=DIRECTION('',(0.,0.90630778703665,-0.4226182617407));
#1584=DIRECTION('',(-0.463622830290399,-0.803018297611853,0.374453581814997));
#1585=DIRECTION('',(-0.463622830290398,0.803018297611854,-0.374453581814997));
#1586=DIRECTION('',(0.,-0.422618261740699,0.90630778703665));
#1587=DIRECTION('',(0.,-0.90630778703665,-0.422618261740699));
#1588=DIRECTION('',(0.463622830290399,0.803018297611854,0.374453581814997));
#1589=DIRECTION('',(0.463622830290399,-0.803018297611854,-0.374453581814997));
#1590=DIRECTION('',(0.,-0.4226182617407,-0.90630778703665));
#1591=DIRECTION('',(0.,0.90630778703665,-0.4226182617407));
#1592=DIRECTION('',(-0.463622830290399,-0.803018297611853,0.374453581814997));
#1593=DIRECTION('',(-0.463622830290398,0.803018297611854,-0.374453581814997));
#1594=DIRECTION('',(0.,-0.422618261740699,0.90630778703665));
#1595=DIRECTION('',(0.,-0.90630778703665,-0.422618261740699));
#1596=DIRECTION('',(0.463622830290399,0.803018297611854,0.374453581814997));
#1597=DIRECTION('',(0.463622830290399,-0.803018297611854,-0.374453581814997));
#1598=DIRECTION('',(0.,-0.4226182617407,-0.90630778703665));
#1599=DIRECTION('',(0.,0.90630778703665,-0.4226182617407));
#1600=DIRECTION('',(-0.463622830290398,0.803018297611854,-0.374453581814997));
#1601=DIRECTION('',(-0.463622830290399,-0.803018297611853,0.374453581814997));
#1602=DIRECTION('',(0.,-0.422618261740699,0.90630778703665));
#1603=DIRECTION('',(0.,-0.90630778703665,-0.422618261740699));
#1604=DIRECTION('',(0.463622830290399,-0.803018297611854,-0.374453581814997));
#1605=DIRECTION('',(0.463622830290399,0.803018297611854,0.374453581814997));
#1606=DIRECTION('',(0.,0.,1.));
#1607=DIRECTION('',(1.,0.,0.));
#1608=DIRECTION('',(-1.,0.,0.));
#1609=DIRECTION('',(0.,-1.,0.));
#1610=DIRECTION('',(-1.,0.,0.));
#1611=DIRECTION('',(0.,-1.,0.));
#1612=DIRECTION('',(1.,0.,0.));
#1613=DIRECTION('',(0.,0.,-1.));
#1614=DIRECTION('',(0.,0.,1.));
#1615=DIRECTION('',(0.,-1.,0.));
#1616=DIRECTION('',(0.,0.,1.));
#1617=DIRECTION('',(0.,0.,-1.));
#1618=DIRECTION('',(-1.,0.,0.));
#1619=DIRECTION('',(1.,0.,0.));
#1620=DIRECTION('',(0.,-1.,0.));
#1621=DIRECTION('',(1.,0.,0.));
#1622=DIRECTION('',(-1.,0.,0.));
#1623=DIRECTION('',(0.,0.,1.));
#1624=DIRECTION('',(0.,0.,-1.));
#1625=DIRECTION('',(0.,0.,-1.));
#1626=DIRECTION('',(0.,1.,0.));
#1627=DIRECTION('',(0.,0.,1.));
#1628=DIRECTION('',(0.,-1.,0.));
#1629=DIRECTION('',(0.,0.,-1.));
#1630=DIRECTION('',(0.866025403784438,-0.5,0.));
#1631=DIRECTION('',(0.5,0.866025403784439,0.));
#1632=DIRECTION('',(-0.866025403784439,-0.5,0.));
#1633=DIRECTION('',(0.5,-0.866025403784439,0.));
#1634=DIRECTION('',(-0.866025403784439,-0.5,0.));
#1635=DIRECTION('',(0.5,-0.866025403784439,0.));
#1636=DIRECTION('',(0.866025403784438,-0.5,0.));
#1637=DIRECTION('',(0.5,0.866025403784439,0.));
#1638=DIRECTION('',(-0.866025403784439,-0.5,0.));
#1639=DIRECTION('',(0.5,-0.866025403784439,0.));
#1640=DIRECTION('',(0.866025403784438,-0.5,0.));
#1641=DIRECTION('',(0.5,0.866025403784439,0.));
#1642=DIRECTION('',(0.,0.,1.));
#1643=DIRECTION('',(1.,0.,0.));
#1644=CARTESIAN_POINT('',(0.,0.,0.));
#1645=CARTESIAN_POINT('',(0.16,0.335,-0.0475));
#1646=CARTESIAN_POINT('',(0.14,0.335,-0.0475));
#1647=CARTESIAN_POINT('',(0.14,0.02,-0.0475));
#1648=CARTESIAN_POINT('',(0.14,0.,-0.0475));
#1649=CARTESIAN_POINT('',(0.16,0.02,-0.0475));
#1650=CARTESIAN_POINT('',(0.06,0.02,-0.0475));
#1651=CARTESIAN_POINT('',(0.06,0.335,-0.0475));
#1652=CARTESIAN_POINT('',(0.06,0.,-0.0475));
#1653=CARTESIAN_POINT('',(0.16,0.,-0.0475));
#1654=CARTESIAN_POINT('',(0.04,0.,-0.0475));
#1655=CARTESIAN_POINT('',(0.04,0.335,-0.0475));
#1656=CARTESIAN_POINT('',(0.04,0.02,-0.0475));
#1657=CARTESIAN_POINT('',(0.16,0.02,-0.0475));
#1658=CARTESIAN_POINT('',(-0.04,0.02,-0.0475));
#1659=CARTESIAN_POINT('',(-0.04,0.335,-0.0475));
#1660=CARTESIAN_POINT('',(-0.04,0.,-0.0475));
#1661=CARTESIAN_POINT('',(0.16,0.,-0.0475));
#1662=CARTESIAN_POINT('',(-0.06,0.,-0.0475));
#1663=CARTESIAN_POINT('',(-0.06,0.335,-0.0475));
#1664=CARTESIAN_POINT('',(-0.06,0.02,-0.0475));
#1665=CARTESIAN_POINT('',(0.16,0.02,-0.0475));
#1666=CARTESIAN_POINT('',(-0.14,0.02,-0.0475));
#1667=CARTESIAN_POINT('',(-0.14,0.335,-0.0475));
#1668=CARTESIAN_POINT('',(-0.14,0.,-0.0475));
#1669=CARTESIAN_POINT('',(0.16,0.,-0.0475));
#1670=CARTESIAN_POINT('',(-0.16,0.,-0.0475));
#1671=CARTESIAN_POINT('',(-0.16,0.335,-0.0475));
#1672=CARTESIAN_POINT('',(-0.16,0.335,-0.0475));
#1673=CARTESIAN_POINT('',(0.16,0.335,-0.0475));
#1674=CARTESIAN_POINT('',(0.16,0.335,-0.0475));
#1675=CARTESIAN_POINT('',(0.16,0.335,-0.0475));
#1676=CARTESIAN_POINT('',(0.16,0.,-0.0475));
#1677=CARTESIAN_POINT('',(0.16,0.,-0.0475));
#1678=CARTESIAN_POINT('',(-0.16,0.335,0.0475));
#1679=CARTESIAN_POINT('',(0.14,0.335,0.0475));
#1680=CARTESIAN_POINT('',(0.14,0.,0.0475));
#1681=CARTESIAN_POINT('',(0.14,0.02,0.0475));
#1682=CARTESIAN_POINT('',(-0.16,0.,0.0475));
#1683=CARTESIAN_POINT('',(0.16,0.,0.0475));
#1684=CARTESIAN_POINT('',(0.16,0.335,0.0475));
#1685=CARTESIAN_POINT('',(0.16,0.335,0.0475));
#1686=CARTESIAN_POINT('',(-0.16,0.335,0.0475));
#1687=CARTESIAN_POINT('',(-0.16,0.335,0.0475));
#1688=CARTESIAN_POINT('',(-0.16,0.335,0.0475));
#1689=CARTESIAN_POINT('',(-0.16,0.,0.0475));
#1690=CARTESIAN_POINT('',(-0.16,0.,0.0475));
#1691=CARTESIAN_POINT('',(-0.14,0.,0.0475));
#1692=CARTESIAN_POINT('',(-0.14,0.335,0.0475));
#1693=CARTESIAN_POINT('',(-0.14,0.02,0.0475));
#1694=CARTESIAN_POINT('',(-0.16,0.02,0.0475));
#1695=CARTESIAN_POINT('',(-0.06,0.02,0.0475));
#1696=CARTESIAN_POINT('',(-0.06,0.335,0.0475));
#1697=CARTESIAN_POINT('',(-0.06,0.,0.0475));
#1698=CARTESIAN_POINT('',(-0.16,0.,0.0475));
#1699=CARTESIAN_POINT('',(-0.04,0.,0.0475));
#1700=CARTESIAN_POINT('',(-0.04,0.335,0.0475));
#1701=CARTESIAN_POINT('',(-0.04,0.02,0.0475));
#1702=CARTESIAN_POINT('',(-0.16,0.02,0.0475));
#1703=CARTESIAN_POINT('',(0.04,0.02,0.0475));
#1704=CARTESIAN_POINT('',(0.04,0.335,0.0475));
#1705=CARTESIAN_POINT('',(0.04,0.,0.0475));
#1706=CARTESIAN_POINT('',(-0.16,0.,0.0475));
#1707=CARTESIAN_POINT('',(0.06,0.,0.0475));
#1708=CARTESIAN_POINT('',(0.06,0.335,0.0475));
#1709=CARTESIAN_POINT('',(0.06,0.02,0.0475));
#1710=CARTESIAN_POINT('',(-0.16,0.02,0.0475));
#1711=CARTESIAN_POINT('',(0.1155,0.335,-0.0155));
#1712=CARTESIAN_POINT('',(0.0845,0.335,-0.0155));
#1713=CARTESIAN_POINT('',(0.0845,0.335,-0.0155));
#1714=CARTESIAN_POINT('',(0.0845,0.02,-0.0155));
#1715=CARTESIAN_POINT('',(0.1155,0.02,-0.0155));
#1716=CARTESIAN_POINT('',(0.1155,0.02,-0.0155));
#1717=CARTESIAN_POINT('',(0.1155,0.335,-0.0155));
#1718=CARTESIAN_POINT('',(0.1155,0.335,-0.0155));
#1719=CARTESIAN_POINT('',(0.1155,0.335,-0.0155));
#1720=CARTESIAN_POINT('',(0.1155,0.335,0.0155));
#1721=CARTESIAN_POINT('',(0.1155,0.02,0.0155));
#1722=CARTESIAN_POINT('',(0.1155,0.02,0.0155));
#1723=CARTESIAN_POINT('',(0.1155,0.335,0.0155));
#1724=CARTESIAN_POINT('',(0.1155,0.335,0.0155));
#1725=CARTESIAN_POINT('',(0.1155,0.335,0.0155));
#1726=CARTESIAN_POINT('',(0.0845,0.335,0.0155));
#1727=CARTESIAN_POINT('',(0.0845,0.02,0.0155));
#1728=CARTESIAN_POINT('',(0.0845,0.02,0.0155));
#1729=CARTESIAN_POINT('',(0.0845,0.335,0.0155));
#1730=CARTESIAN_POINT('',(0.0845,0.335,0.0155));
#1731=CARTESIAN_POINT('',(0.0845,0.335,0.0155));
#1732=CARTESIAN_POINT('',(0.0155,0.335,-0.0155));
#1733=CARTESIAN_POINT('',(-0.0155,0.335,-0.0155));
#1734=CARTESIAN_POINT('',(-0.0155,0.335,-0.0155));
#1735=CARTESIAN_POINT('',(-0.0155,0.02,-0.0155));
#1736=CARTESIAN_POINT('',(0.0155,0.02,-0.0155));
#1737=CARTESIAN_POINT('',(0.0155,0.02,-0.0155));
#1738=CARTESIAN_POINT('',(0.0155,0.335,-0.0155));
#1739=CARTESIAN_POINT('',(0.0155,0.335,-0.0155));
#1740=CARTESIAN_POINT('',(0.0155,0.335,-0.0155));
#1741=CARTESIAN_POINT('',(0.0155,0.335,0.0155));
#1742=CARTESIAN_POINT('',(0.0155,0.02,0.0155));
#1743=CARTESIAN_POINT('',(0.0155,0.02,0.0155));
#1744=CARTESIAN_POINT('',(0.0155,0.335,0.0155));
#1745=CARTESIAN_POINT('',(0.0155,0.335,0.0155));
#1746=CARTESIAN_POINT('',(0.0155,0.335,0.0155));
#1747=CARTESIAN_POINT('',(-0.0155,0.335,0.0155));
#1748=CARTESIAN_POINT('',(-0.0155,0.02,0.0155));
#1749=CARTESIAN_POINT('',(-0.0155,0.02,0.0155));
#1750=CARTESIAN_POINT('',(-0.0155,0.335,0.0155));
#1751=CARTESIAN_POINT('',(-0.0155,0.335,0.0155));
#1752=CARTESIAN_POINT('',(-0.0155,0.335,0.0155));
#1753=CARTESIAN_POINT('',(-0.0845,0.335,-0.0155));
#1754=CARTESIAN_POINT('',(-0.1155,0.335,-0.0155));
#1755=CARTESIAN_POINT('',(-0.1155,0.335,-0.0155));
#1756=CARTESIAN_POINT('',(-0.1155,0.02,-0.0155));
#1757=CARTESIAN_POINT('',(-0.0845,0.02,-0.0155));
#1758=CARTESIAN_POINT('',(-0.0845,0.02,-0.0155));
#1759=CARTESIAN_POINT('',(-0.0845,0.335,-0.0155));
#1760=CARTESIAN_POINT('',(-0.0845,0.335,-0.0155));
#1761=CARTESIAN_POINT('',(-0.0845,0.335,-0.0155));
#1762=CARTESIAN_POINT('',(-0.0845,0.335,0.0155));
#1763=CARTESIAN_POINT('',(-0.0845,0.02,0.0155));
#1764=CARTESIAN_POINT('',(-0.0845,0.02,0.0155));
#1765=CARTESIAN_POINT('',(-0.0845,0.335,0.0155));
#1766=CARTESIAN_POINT('',(-0.0845,0.335,0.0155));
#1767=CARTESIAN_POINT('',(-0.0845,0.335,0.0155));
#1768=CARTESIAN_POINT('',(-0.1155,0.335,0.0155));
#1769=CARTESIAN_POINT('',(-0.1155,0.02,0.0155));
#1770=CARTESIAN_POINT('',(-0.1155,0.02,0.0155));
#1771=CARTESIAN_POINT('',(-0.1155,0.335,0.0155));
#1772=CARTESIAN_POINT('',(-0.1155,0.335,0.0155));
#1773=CARTESIAN_POINT('',(-0.1155,0.335,0.0155));
#1774=CARTESIAN_POINT('',(0.0845,0.335,-0.0155));
#1775=CARTESIAN_POINT('',(0.0845,0.02,-0.0155));
#1776=CARTESIAN_POINT('',(0.0845,0.335,-0.0155));
#1777=CARTESIAN_POINT('',(-0.0155,0.335,-0.0155));
#1778=CARTESIAN_POINT('',(-0.0155,0.02,-0.0155));
#1779=CARTESIAN_POINT('',(-0.0155,0.335,-0.0155));
#1780=CARTESIAN_POINT('',(-0.1155,0.335,-0.0155));
#1781=CARTESIAN_POINT('',(-0.1155,0.02,-0.0155));
#1782=CARTESIAN_POINT('',(-0.1155,0.335,-0.0155));
#1783=CARTESIAN_POINT('',(0.,0.,0.));
#1784=CARTESIAN_POINT('',(-0.14,0.,0.));
#1785=CARTESIAN_POINT('',(-0.16,0.,-0.0475));
#1786=CARTESIAN_POINT('',(0.,0.,0.));
#1787=CARTESIAN_POINT('',(0.14,0.,0.));
#1788=CARTESIAN_POINT('',(0.16,0.,0.0475));
#1789=CARTESIAN_POINT('',(0.,0.,0.));
#1790=CARTESIAN_POINT('',(0.06,0.,0.));
#1791=CARTESIAN_POINT('',(0.04,0.,0.));
#1792=CARTESIAN_POINT('',(0.,0.,0.));
#1793=CARTESIAN_POINT('',(-0.04,0.,0.));
#1794=CARTESIAN_POINT('',(-0.06,0.,0.));
#1795=CARTESIAN_POINT('',(-0.16,0.335,-0.0475));
#1796=CARTESIAN_POINT('',(-0.16,0.335,-0.0475));
#1797=CARTESIAN_POINT('',(0.16,0.335,0.0475));
#1798=CARTESIAN_POINT('',(0.16,0.335,0.0475));
#1799=CARTESIAN_POINT('',(0.,0.335,0.));
#1800=CARTESIAN_POINT('',(-0.06,0.,0.2));
#1801=CARTESIAN_POINT('',(-0.06,0.02,0.2));
#1802=CARTESIAN_POINT('',(-0.14,0.02,0.2));
#1803=CARTESIAN_POINT('',(-0.14,0.02,0.2));
#1804=CARTESIAN_POINT('',(-0.06,0.02,0.2));
#1805=CARTESIAN_POINT('',(0.04,0.,0.2));
#1806=CARTESIAN_POINT('',(0.04,0.02,0.2));
#1807=CARTESIAN_POINT('',(-0.04,0.02,0.2));
#1808=CARTESIAN_POINT('',(-0.04,0.02,0.2));
#1809=CARTESIAN_POINT('',(0.04,0.02,0.2));
#1810=CARTESIAN_POINT('',(0.14,0.02,0.2));
#1811=CARTESIAN_POINT('',(0.14,0.02,0.2));
#1812=CARTESIAN_POINT('',(0.06,0.02,0.2));
#1813=CARTESIAN_POINT('',(0.14,-0.08,0.2));
#1814=CARTESIAN_POINT('',(0.06,0.02,0.2));
#1815=CARTESIAN_POINT('',(0.,0.,0.));
#1816=CARTESIAN_POINT('',(0.1175,0.144,0.0125));
#1817=CARTESIAN_POINT('',(0.17085382907248,0.113196152422707,0.0125));
#1818=CARTESIAN_POINT('',(0.1125,0.0121243556529822,0.0125));
#1819=CARTESIAN_POINT('',(0.112000191151135,0.0112586613326752,0.0125));
#1820=CARTESIAN_POINT('',(0.1125,0.144,0.0125));
#1821=CARTESIAN_POINT('',(0.1125,0.139,0.0124999999999999));
#1822=CARTESIAN_POINT('',(0.1175,0.139,0.0125));
#1823=CARTESIAN_POINT('',(0.0875,0.139,0.0124999999999999));
#1824=CARTESIAN_POINT('',(0.0875,0.144,0.0125));
#1825=CARTESIAN_POINT('',(0.0875,0.0121243556529821,0.0125));
#1826=CARTESIAN_POINT('',(0.0378961709275204,0.098040707856479,0.0125));
#1827=CARTESIAN_POINT('',(0.0879998088488652,0.0112586613326752,0.0125));
#1828=CARTESIAN_POINT('',(0.5,0.0112586613326752,0.0125));
#1829=CARTESIAN_POINT('',(0.1175,0.144,0.0125));
#1830=CARTESIAN_POINT('',(0.0958538290724796,0.156497422611929,0.0125));
#1831=CARTESIAN_POINT('',(0.0125,0.0121243556529821,0.0125));
#1832=CARTESIAN_POINT('',(0.0120001911511349,0.0112586613326752,0.0125));
#1833=CARTESIAN_POINT('',(0.0125,0.144,0.0125));
#1834=CARTESIAN_POINT('',(0.0125,0.139,0.0124999999999999));
#1835=CARTESIAN_POINT('',(0.1175,0.139,0.0125));
#1836=CARTESIAN_POINT('',(-0.0125,0.139,0.0124999999999999));
#1837=CARTESIAN_POINT('',(-0.0125,0.144,0.0125));
#1838=CARTESIAN_POINT('',(-0.0125,0.0121243556529822,0.0125));
#1839=CARTESIAN_POINT('',(-0.0371038290724796,0.0547394376672571,0.0125));
#1840=CARTESIAN_POINT('',(-0.0120001911511348,0.0112586613326752,0.0125));
#1841=CARTESIAN_POINT('',(0.5,0.0112586613326752,0.0125));
#1842=CARTESIAN_POINT('',(0.1175,0.144,0.0125));
#1843=CARTESIAN_POINT('',(-0.11210382907248,0.0114381674780351,0.0125));
#1844=CARTESIAN_POINT('',(-0.112000191151135,0.0112586613326752,0.0125));
#1845=CARTESIAN_POINT('',(-0.1125,0.0121243556529821,0.0125));
#1846=CARTESIAN_POINT('',(0.5,0.0112586613326752,0.0125));
#1847=CARTESIAN_POINT('',(-0.0879998088488651,0.0112586613326752,0.0125));
#1848=CARTESIAN_POINT('',(0.0208538290724796,0.19979869280115,0.0125));
#1849=CARTESIAN_POINT('',(-0.0875,0.0121243556529821,0.0125));
#1850=CARTESIAN_POINT('',(-0.0875,0.144,0.0125));
#1851=CARTESIAN_POINT('',(-0.0875,0.139,0.0124999999999999));
#1852=CARTESIAN_POINT('',(0.1175,0.139,0.0125));
#1853=CARTESIAN_POINT('',(-0.1125,0.139,0.0124999999999999));
#1854=CARTESIAN_POINT('',(-0.1125,0.144,0.0125));
#1855=CARTESIAN_POINT('',(0.1175,0.,-0.0125));
#1856=CARTESIAN_POINT('',(0.1085,0.00519615242270663,-0.0125));
#1857=CARTESIAN_POINT('',(0.112000191151135,0.0112586613326752,-0.0125));
#1858=CARTESIAN_POINT('',(0.1125,0.0121243556529822,-0.0124999999999999));
#1859=CARTESIAN_POINT('',(0.5,0.0112586613326752,-0.0125));
#1860=CARTESIAN_POINT('',(0.0879998088488652,0.0112586613326752,-0.0125));
#1861=CARTESIAN_POINT('',(0.10025,-0.00995929214352105,-0.0125));
#1862=CARTESIAN_POINT('',(0.0875,0.0121243556529821,-0.0124999999999999));
#1863=CARTESIAN_POINT('',(0.0875,0.,-0.0125));
#1864=CARTESIAN_POINT('',(0.0875,0.139,-0.0124999999999999));
#1865=CARTESIAN_POINT('',(0.1175,0.139,-0.0125));
#1866=CARTESIAN_POINT('',(0.1125,0.139,-0.0124999999999999));
#1867=CARTESIAN_POINT('',(0.1125,0.,-0.0125));
#1868=CARTESIAN_POINT('',(0.1175,0.,-0.0125));
#1869=CARTESIAN_POINT('',(0.0335,0.0484974226119286,-0.0125));
#1870=CARTESIAN_POINT('',(0.0120001911511348,0.0112586613326752,-0.0125));
#1871=CARTESIAN_POINT('',(0.0125,0.0121243556529821,-0.0124999999999999));
#1872=CARTESIAN_POINT('',(0.5,0.0112586613326752,-0.0125));
#1873=CARTESIAN_POINT('',(-0.0120001911511348,0.0112586613326752,-0.0125));
#1874=CARTESIAN_POINT('',(0.02525,-0.053260562332743,-0.0125));
#1875=CARTESIAN_POINT('',(-0.0125,0.0121243556529822,-0.0124999999999999));
#1876=CARTESIAN_POINT('',(-0.0125,0.,-0.0125));
#1877=CARTESIAN_POINT('',(-0.0125,0.139,-0.0124999999999999));
#1878=CARTESIAN_POINT('',(0.1175,0.139,-0.0125));
#1879=CARTESIAN_POINT('',(0.0125,0.139,-0.0124999999999999));
#1880=CARTESIAN_POINT('',(0.0125,0.,-0.0125));
#1881=CARTESIAN_POINT('',(0.1175,0.,-0.0125));
#1882=CARTESIAN_POINT('',(-0.04975,-0.0965618325219649,-0.0125));
#1883=CARTESIAN_POINT('',(-0.1125,0.0121243556529821,-0.0124999999999999));
#1884=CARTESIAN_POINT('',(-0.112000191151135,0.0112586613326752,-0.0125));
#1885=CARTESIAN_POINT('',(-0.1125,0.,-0.0125));
#1886=CARTESIAN_POINT('',(-0.1125,0.139,-0.0124999999999999));
#1887=CARTESIAN_POINT('',(0.1175,0.139,-0.0125));
#1888=CARTESIAN_POINT('',(-0.0875,0.139,-0.0124999999999999));
#1889=CARTESIAN_POINT('',(-0.0875,0.,-0.0125));
#1890=CARTESIAN_POINT('',(-0.0875,0.0121243556529821,-0.0124999999999999));
#1891=CARTESIAN_POINT('',(-0.0415,0.0917986928011505,-0.0125));
#1892=CARTESIAN_POINT('',(-0.0879998088488651,0.0112586613326752,-0.0125));
#1893=CARTESIAN_POINT('',(0.5,0.0112586613326752,-0.0125));
#1894=CARTESIAN_POINT('',(0.1175,0.,0.0125));
#1895=CARTESIAN_POINT('',(0.1055,0.,0.5));
#1896=CARTESIAN_POINT('',(0.1055,0.,0.00724999999999997));
#1897=CARTESIAN_POINT('',(0.1055,0.,-0.00724999999999997));
#1898=CARTESIAN_POINT('',(0.5,0.,0.00725));
#1899=CARTESIAN_POINT('',(0.0945,0.,0.00725));
#1900=CARTESIAN_POINT('',(0.0945,0.,0.5));
#1901=CARTESIAN_POINT('',(0.0945,-1.70740499604016E-17,-0.00725000000000005));
#1902=CARTESIAN_POINT('',(0.5,0.,-0.00725));
#1903=CARTESIAN_POINT('',(0.1175,0.,0.0125));
#1904=CARTESIAN_POINT('',(0.0055,0.,0.5));
#1905=CARTESIAN_POINT('',(0.0055,0.,0.00724999999999997));
#1906=CARTESIAN_POINT('',(0.0055,0.,-0.00724999999999997));
#1907=CARTESIAN_POINT('',(0.5,0.,0.00725));
#1908=CARTESIAN_POINT('',(-0.00549999999999985,-3.41480999208033E-17,0.00724999999999999));
#1909=CARTESIAN_POINT('',(-0.0055,0.,0.5));
#1910=CARTESIAN_POINT('',(-0.0055,-1.70740499604016E-17,-0.00725000000000005));
#1911=CARTESIAN_POINT('',(0.5,0.,-0.00725));
#1912=CARTESIAN_POINT('',(0.1175,0.,0.0125));
#1913=CARTESIAN_POINT('',(-0.1055,0.,0.5));
#1914=CARTESIAN_POINT('',(-0.1055,0.,0.00725));
#1915=CARTESIAN_POINT('',(-0.1055,0.,-0.00724999999999997));
#1916=CARTESIAN_POINT('',(0.5,0.,-0.00725));
#1917=CARTESIAN_POINT('',(-0.0945,0.,-0.00724999999999997));
#1918=CARTESIAN_POINT('',(-0.0945,0.,0.5));
#1919=CARTESIAN_POINT('',(-0.0945,0.,0.00724999999999997));
#1920=CARTESIAN_POINT('',(0.5,0.,0.00725));
#1921=CARTESIAN_POINT('',(-0.1125,-0.35,1.));
#1922=CARTESIAN_POINT('',(-0.1125,0.0121243556529821,1.));
#1923=CARTESIAN_POINT('',(-0.1125,0.139,1.));
#1924=CARTESIAN_POINT('',(-0.0875,0.139,1.));
#1925=CARTESIAN_POINT('',(-0.0875,0.0121243556529821,1.));
#1926=CARTESIAN_POINT('',(-0.0875,0.139,1.));
#1927=CARTESIAN_POINT('',(-0.0125,-0.35,1.));
#1928=CARTESIAN_POINT('',(-0.0125,0.0121243556529822,1.));
#1929=CARTESIAN_POINT('',(-0.0125,0.139,1.));
#1930=CARTESIAN_POINT('',(0.0125,0.139,1.));
#1931=CARTESIAN_POINT('',(0.0125,0.0121243556529821,1.));
#1932=CARTESIAN_POINT('',(0.0125,0.139,1.));
#1933=CARTESIAN_POINT('',(0.0875,-0.35,1.));
#1934=CARTESIAN_POINT('',(0.0875,0.0121243556529821,1.));
#1935=CARTESIAN_POINT('',(0.0875,0.139,1.));
#1936=CARTESIAN_POINT('',(0.1125,0.139,1.));
#1937=CARTESIAN_POINT('',(0.1125,0.0121243556529822,1.));
#1938=CARTESIAN_POINT('',(0.1125,0.139,1.));
#1939=CARTESIAN_POINT('',(0.5,0.0112586613326752,-0.0125));
#1940=CARTESIAN_POINT('',(0.195399248025333,0.155710065142112,-0.0798587958275806));
#1941=CARTESIAN_POINT('',(0.176557654987851,-0.142128027588916,0.0590253877031765));
#1942=CARTESIAN_POINT('',(0.5,0.,0.00725));
#1943=CARTESIAN_POINT('',(0.190296247798376,0.146871409477988,0.0757372630036045));
#1944=CARTESIAN_POINT('',(0.181660655214808,-0.15096668325304,-0.0631469205271524));
#1945=CARTESIAN_POINT('',(0.5,0.0112586613326752,-0.0125));
#1946=CARTESIAN_POINT('',(0.116893860901981,0.192939826733491,-0.0972193187689252));
#1947=CARTESIAN_POINT('',(0.0980522678644992,-0.179357789180295,0.0763859106445211));
#1948=CARTESIAN_POINT('',(0.5,0.,0.00725));
#1949=CARTESIAN_POINT('',(0.111790860675024,0.184101171069367,0.0930977859449491));
#1950=CARTESIAN_POINT('',(0.103155268091456,-0.188196444844418,-0.080507443468497));
#1951=CARTESIAN_POINT('',(0.5,0.0112586613326752,-0.0125));
#1952=CARTESIAN_POINT('',(0.0195468807411471,-0.216587550771673,0.0937464335858658));
#1953=CARTESIAN_POINT('',(0.0383884737786286,0.230169588324869,-0.11457984171027));
#1954=CARTESIAN_POINT('',(0.5,0.,0.00725));
#1955=CARTESIAN_POINT('',(0.0246498809681035,-0.225426206435797,-0.0978679664098416));
#1956=CARTESIAN_POINT('',(0.0332854735516724,0.221330932660745,0.110458308886294));
#1957=CARTESIAN_POINT('',(0.1205,0.144,-0.024));
#1958=CARTESIAN_POINT('',(0.1205,0.139,-0.024));
#1959=CARTESIAN_POINT('',(0.1205,0.139,-0.024));
#1960=CARTESIAN_POINT('',(-0.1205,0.139,-0.024));
#1961=CARTESIAN_POINT('',(-0.1205,0.144,-0.024));
#1962=CARTESIAN_POINT('',(-0.1205,0.144,-0.024));
#1963=CARTESIAN_POINT('',(0.1205,0.144,-0.024));
#1964=CARTESIAN_POINT('',(0.1205,0.144,-0.024));
#1965=CARTESIAN_POINT('',(0.1205,0.144,-0.024));
#1966=CARTESIAN_POINT('',(-0.1205,0.144,-0.024));
#1967=CARTESIAN_POINT('',(-0.1205,0.139,-0.024));
#1968=CARTESIAN_POINT('',(-0.1205,0.139,0.024));
#1969=CARTESIAN_POINT('',(-0.1205,0.144,0.024));
#1970=CARTESIAN_POINT('',(-0.1205,0.144,0.024));
#1971=CARTESIAN_POINT('',(-0.1205,0.144,-0.024));
#1972=CARTESIAN_POINT('',(-0.1205,0.144,0.024));
#1973=CARTESIAN_POINT('',(-0.1205,0.139,0.024));
#1974=CARTESIAN_POINT('',(0.1205,0.139,0.024));
#1975=CARTESIAN_POINT('',(0.1205,0.144,0.024));
#1976=CARTESIAN_POINT('',(0.1205,0.144,0.024));
#1977=CARTESIAN_POINT('',(-0.1205,0.144,0.024));
#1978=CARTESIAN_POINT('',(0.1205,0.144,0.024));
#1979=CARTESIAN_POINT('',(0.1205,0.139,0.024));
#1980=CARTESIAN_POINT('',(0.1205,0.144,0.024));
#1981=CARTESIAN_POINT('',(0.,0.139,0.));
#1982=CARTESIAN_POINT('',(0.1175,0.144,-0.0125));
#1983=CARTESIAN_POINT('',(-0.0845,0.0173205080756888,0.5));
#1984=CARTESIAN_POINT('',(-0.1055,0.,0.5));
#1985=CARTESIAN_POINT('',(-0.0055,0.,0.5));
#1986=CARTESIAN_POINT('',(0.0155,0.0173205080756888,0.5));
#1987=CARTESIAN_POINT('',(0.0945,0.,0.5));
#1988=CARTESIAN_POINT('',(0.1155,0.0173205080756888,0.5));
#1989=CARTESIAN_POINT('',(0.,-0.104,-1.27363267111325E-17));
#1990=MECHANICAL_DESIGN_GEOMETRIC_PRESENTATION_REPRESENTATION('',(#1255,
#1256),#1991);
#1991=(
GEOMETRIC_REPRESENTATION_CONTEXT(3)
GLOBAL_UNCERTAINTY_ASSIGNED_CONTEXT((#1994))
GLOBAL_UNIT_ASSIGNED_CONTEXT((#1999,#1998,#1997))
REPRESENTATION_CONTEXT('SSQ-103-01-T-S','TOP_LEVEL_ASSEMBLY_PART')
);
#1992=(
GEOMETRIC_REPRESENTATION_CONTEXT(3)
GLOBAL_UNCERTAINTY_ASSIGNED_CONTEXT((#1995))
GLOBAL_UNIT_ASSIGNED_CONTEXT((#1999,#1998,#1997))
REPRESENTATION_CONTEXT('T1SSQ-103-01-T-S','COMPONENT_PART')
);
#1993=(
GEOMETRIC_REPRESENTATION_CONTEXT(3)
GLOBAL_UNCERTAINTY_ASSIGNED_CONTEXT((#1996))
GLOBAL_UNIT_ASSIGNED_CONTEXT((#1999,#1998,#1997))
REPRESENTATION_CONTEXT('P2SSQ-103-01-T-S','COMPONENT_PART')
);
#1994=UNCERTAINTY_MEASURE_WITH_UNIT(LENGTH_MEASURE(0.000196850393700787),
#1999,'DISTANCE_ACCURACY_VALUE','Maximum Tolerance applied to model');
#1995=UNCERTAINTY_MEASURE_WITH_UNIT(LENGTH_MEASURE(0.000196850393700787),
#1999,'DISTANCE_ACCURACY_VALUE','Maximum Tolerance applied to model');
#1996=UNCERTAINTY_MEASURE_WITH_UNIT(LENGTH_MEASURE(0.000196850393700787),
#1999,'DISTANCE_ACCURACY_VALUE','Maximum Tolerance applied to model');
#1997=(
NAMED_UNIT(*)
SI_UNIT($,.STERADIAN.)
SOLID_ANGLE_UNIT()
);
#1998=(
NAMED_UNIT(*)
PLANE_ANGLE_UNIT()
SI_UNIT($,.RADIAN.)
);
#1999=(
CONVERSION_BASED_UNIT('INCH',#2001)
LENGTH_UNIT()
NAMED_UNIT(#2000)
);
#2000=DIMENSIONAL_EXPONENTS(1.,0.,0.,0.,0.,0.,0.);
#2001=LENGTH_MEASURE_WITH_UNIT(LENGTH_MEASURE(25.4),#2002);
#2002=(
LENGTH_UNIT()
NAMED_UNIT(*)
SI_UNIT(.MILLI.,.METRE.)
);
#2003=PRODUCT_DEFINITION_SHAPE('','',#2008);
#2004=PRODUCT_DEFINITION_SHAPE('','',#2009);
#2005=PRODUCT_DEFINITION_SHAPE(' ','NAUO PRDDFN',#21);
#2006=PRODUCT_DEFINITION_SHAPE('','',#2010);
#2007=PRODUCT_DEFINITION_SHAPE(' ','NAUO PRDDFN',#22);
#2008=PRODUCT_DEFINITION('','',#2014,#2011);
#2009=PRODUCT_DEFINITION('','',#2015,#2012);
#2010=PRODUCT_DEFINITION('','',#2016,#2013);
#2011=PRODUCT_DEFINITION_CONTEXT('',#2030,'design');
#2012=PRODUCT_DEFINITION_CONTEXT('',#2030,'design');
#2013=PRODUCT_DEFINITION_CONTEXT('',#2030,'design');
#2014=PRODUCT_DEFINITION_FORMATION_WITH_SPECIFIED_SOURCE('','',#2020,
 .NOT_KNOWN.);
#2015=PRODUCT_DEFINITION_FORMATION_WITH_SPECIFIED_SOURCE('','',#2021,
 .NOT_KNOWN.);
#2016=PRODUCT_DEFINITION_FORMATION_WITH_SPECIFIED_SOURCE('','',#2022,
 .NOT_KNOWN.);
#2017=PRODUCT_RELATED_PRODUCT_CATEGORY('','',(#2020));
#2018=PRODUCT_RELATED_PRODUCT_CATEGORY('','',(#2021));
#2019=PRODUCT_RELATED_PRODUCT_CATEGORY('','',(#2022));
#2020=PRODUCT('SSQ-103-01-T-S','SSQ-103-01-T-S','SSQ-103-01-T-S',(#2026));
#2021=PRODUCT('T1SSQ-103-01-T-S','T1SSQ-103-01-T-S','T1SSQ-103-01-T-S',
(#2027));
#2022=PRODUCT('P2SSQ-103-01-T-S','P2SSQ-103-01-T-S','P2SSQ-103-01-T-S',
(#2028));
#2023=PRODUCT_CATEGORY('','');
#2024=PRODUCT_CATEGORY('','');
#2025=PRODUCT_CATEGORY('','');
#2026=PRODUCT_CONTEXT('',#2030,'mechanical');
#2027=PRODUCT_CONTEXT('',#2030,'mechanical');
#2028=PRODUCT_CONTEXT('',#2030,'mechanical');
#2029=APPLICATION_PROTOCOL_DEFINITION('international standard',
'automotive_design',2010,#2030);
#2030=APPLICATION_CONTEXT(
'core data for automotive mechanical design processes');
ENDSEC;
END-ISO-10303-21;
